<svg width="24" height="24" viewBox="0 0 24 24" fill="none" xmlns="http://www.w3.org/2000/svg">
<path fill-rule="evenodd" clip-rule="evenodd" d="M12.001 2C8.14098 2 5.00098 5.14 5.00098 9C5.00098 11.38 6.19098 13.47 8.00098 14.74V17C8.00098 17.55 8.45098 18 9.00098 18H15.001C15.551 18 16.001 17.55 16.001 17V14.74C17.811 13.47 19.001 11.38 19.001 9C19.001 5.14 15.861 2 12.001 2ZM9.00098 21C9.00098 21.55 9.45098 22 10.001 22H14.001C14.551 22 15.001 21.55 15.001 21V20H9.00098V21ZM14.001 13.7L14.851 13.1C16.201 12.16 17.001 10.63 17.001 9C17.001 6.24 14.761 4 12.001 4C9.24098 4 7.00098 6.24 7.00098 9C7.00098 10.63 7.80098 12.16 9.15098 13.1L10.001 13.7V16H14.001V13.7Z" fill="#FFFDF4"/>
</svg>
