<svg width="49" height="48" viewBox="0 0 49 48" fill="none" xmlns="http://www.w3.org/2000/svg">
<path fill-rule="evenodd" clip-rule="evenodd" d="M11.2022 24.9575C10.6289 16.8375 17.3355 10.1308 25.4555 10.7042C32.5089 11.1842 37.8289 17.3442 37.8289 24.4242V25.8775C37.8289 27.7975 36.7355 29.6242 34.9489 30.3308C32.7755 31.1975 30.4022 30.3442 29.2155 28.7175C27.6822 30.2775 25.3489 31.0642 22.8955 30.4908C20.3755 29.8908 18.3889 27.7842 17.9355 25.2375C17.1222 20.6775 20.9489 16.7575 25.4822 17.4108C28.7889 17.8775 31.1622 20.8908 31.1622 24.2375V25.9042C31.1622 26.9575 32.1089 27.9975 33.1622 27.9975C34.2155 27.9975 35.1622 26.9575 35.1622 25.9042V24.4375C35.1622 19.4642 31.9355 14.9042 27.1089 13.6775C19.3755 11.6775 12.1755 18.8908 14.1622 26.6242C15.4022 31.4375 19.9622 34.6642 24.9355 34.6642H29.8289C30.5622 34.6642 31.1622 35.2642 31.1622 35.9975C31.1622 36.7308 30.5622 37.3308 29.8289 37.3308H24.9089C17.8422 37.3308 11.6822 32.0108 11.2022 24.9575ZM20.4955 23.9975C20.4955 26.2108 22.2822 27.9975 24.4955 27.9975C26.7088 27.9975 28.4955 26.2108 28.4955 23.9975C28.4955 21.7841 26.7088 19.9975 24.4955 19.9975C22.2822 19.9975 20.4955 21.7841 20.4955 23.9975Z" fill="#68CC6A"/>
</svg>
