<svg width="176" height="136" viewBox="0 0 176 136" fill="none" xmlns="http://www.w3.org/2000/svg">
<path d="M110.013 48.4315C131.046 52.2045 148.28 49.0338 164.925 68.6938C180.672 87.2623 178.446 104.497 165.663 119.861C132.27 159.995 90.5864 113.306 43.5089 107.913C2.49487 103.197 -15.8355 36.3427 16.6259 11.0401C27.0878 2.88767 48.4079 -5.2242 62.5138 4.30672C82.2725 17.6644 81.1317 43.2458 110.013 48.4315Z" fill="#6EBBE2"/>
<path opacity="0.9" d="M110.013 48.4315C131.046 52.2045 148.28 49.0338 164.925 68.6938C180.672 87.2623 178.446 104.497 165.663 119.861C132.27 159.995 90.5864 113.306 43.5089 107.913C2.49487 103.197 -15.8355 36.3427 16.6259 11.0401C27.0878 2.88767 48.4079 -5.2242 62.5138 4.30672C82.2725 17.6644 81.1317 43.2458 110.013 48.4315Z" fill="#6EBBE2"/>
<path d="M124.479 28.3619C123.178 27.3691 121.564 26.8799 119.933 26.984C118.302 27.0881 116.763 27.7784 115.597 28.9286C114.729 28.5357 113.791 28.3231 112.839 28.3037C111.887 28.2842 110.94 28.4583 110.057 28.8154C106.63 30.2471 104.001 35.1659 106.225 38.3128C106.48 41.2865 107.339 43.72 110.197 44.1301C111.485 47.472 116.636 49.07 120.06 46.5407C122.61 47.7285 125.651 46.5749 127.773 44.6947C128.273 44.2511 128.744 43.5111 128.923 43.4287C128.923 43.4287 135.945 43.0563 136.185 36.3083C136.436 29.2451 129.836 23.4913 124.479 28.3619Z" fill="#0C152E"/>
<path d="M87.4886 108.392C87.3362 110.442 87.3443 112.502 87.5129 114.551C87.5331 114.711 87.9459 115.39 87.9702 115.552C86.7681 119.011 84.082 120.534 81.6826 121.491C82.5778 119.825 84.0764 118.039 84.0493 117.609C83.9712 114.975 83.7021 112.351 83.2439 109.757C84.9758 110.008 85.848 109.098 87.4886 108.392Z" fill="#FFFDF4"/>
<path d="M101.467 66.1196L111.003 76.1725C111.003 76.1725 104.948 80.7874 102.675 82.5006C100.402 84.2138 89.3472 90.0109 89.1105 90.4427C89.2945 91.3038 89.4067 92.1788 89.4459 93.0586C89.4174 96.7722 88.9998 103.947 88.3608 110.064C87.0577 111.121 84.5366 111.084 83.0011 111.269C80.3184 103.304 80.8592 88.7505 81.1 87.0247C81.4947 84.2159 101.467 66.1196 101.467 66.1196Z" fill="#EE8700"/>
<path d="M130.119 89.0195C127.969 90.8492 125.974 92.8533 124.152 95.0116C123.214 93.7323 122.818 92.4809 121.641 91.4133C123.311 90.1773 126.832 87.0156 127.341 86.1381C128.551 84.0567 129.151 83.9106 129.151 83.9106C129.151 83.9106 135.38 89.1586 135.601 90.0494C135.822 90.9402 131.942 88.1608 130.119 89.0195Z" fill="#FFFDF4"/>
<path d="M127.082 86.6028C126.525 86.3932 128.067 83.9919 128.409 83.4343C128.795 82.8055 129.245 82.7453 129.346 82.7565C129.624 82.7866 136.544 88.6193 137.522 90.1403C137.593 90.2796 137.647 90.4275 137.68 90.5805C137.901 92.2986 131.269 90.0914 130.553 89.1035C129.916 88.2259 129.573 87.5419 127.082 86.6028Z" fill="#8195AC"/>
<path d="M98.8232 68.3221L108.741 65.667C108.701 65.6789 108.741 66.0744 108.745 66.1051C109.124 69.8152 114.003 69.0892 115.07 75.5899C115.823 80.1831 113.155 94.9166 113.155 94.9166C113.155 94.9166 117.958 92.2755 123.014 89.4493C123.475 89.1915 126.296 93.3047 126.296 93.3047C118.658 103.038 108.429 105.839 107.263 105.192C103.284 102.982 100.715 73.8641 100.726 73.8683C100.136 72.0678 98.8232 68.3221 98.8232 68.3221Z" fill="#EE8700"/>
<path d="M117.157 46.4975C117.157 46.4975 128.997 45.685 131.611 45.6591C134.225 45.6333 143.557 43.9215 143.918 43.8425C144.279 43.7636 146.284 39.2534 146.729 39.6747C147.173 40.0961 145.587 41.9253 146.167 42.3054C146.747 42.6854 152.442 41.17 152.408 41.6263C152.343 42.4801 148.957 42.6931 148.997 43.0984C149.037 43.5036 152.509 42.5352 152.812 43.1857C153.115 43.8362 149.443 43.7824 149.326 44.0941C149.209 44.4057 152.778 44.6243 152.477 45.2818C152.313 45.6402 149.307 45.01 149.365 45.4718C149.423 45.9337 151.653 46.7862 151.426 47.1795C151.2 47.5729 149.647 46.2055 148.409 46.3047C147.171 46.4039 146.222 45.8107 144.302 46.566C142.382 47.3213 135.923 50.805 131.693 50.9964C127.463 51.1879 118.12 51.6344 118.12 51.6344L117.157 46.4975Z" fill="#FFFDF4"/>
<path d="M104.019 43.5182C104.019 43.5182 101.07 31.9799 100.271 29.4813C99.4718 26.9828 98.1632 17.5511 98.1249 17.1843C98.0866 16.8174 101.722 13.4867 101.184 13.1961C100.647 12.9054 99.414 14.9904 98.8725 14.5579C98.331 14.1254 97.976 8.22067 97.5555 8.39744C96.769 8.72653 97.6307 12.0209 97.2339 12.1083C96.8372 12.1956 96.6632 8.58472 95.9532 8.50018C95.2432 8.41563 96.4474 11.8993 96.1863 12.1089C95.9253 12.3185 94.6014 8.98576 94.0717 9.47973C93.7835 9.74803 95.3246 12.4142 94.8694 12.5044C94.4142 12.5945 92.9079 10.7367 92.6065 11.0762C92.3051 11.4158 94.0863 12.4653 94.3814 13.6761C94.6765 14.8869 95.5355 15.6052 95.4255 17.6719C95.3155 19.7387 94.0473 26.9877 95.1958 31.0799C96.3444 35.1722 98.8558 44.2155 98.8558 44.2155L104.019 43.5182Z" fill="#FFFDF4"/>
<path d="M98.8335 56.2337C98.9561 54.1788 99.4496 48.6556 99.6306 47.9932C99.3382 45.7993 97.6356 42.3694 97.3105 41.4212C97.3105 41.4212 100.692 38.3806 102.839 38.7117C102.839 38.7117 104.706 42.0655 106.275 43.2323C106.532 43.391 106.806 43.5208 107.092 43.6193C108.734 43.8373 114.49 44.4578 115.514 44.9469L113.615 54.1508C113.233 54.6399 111.372 65.2678 110.616 66.058C109.86 66.8482 100.077 69.5557 98.6922 68.3092C98.6352 68.2568 98.585 60.3881 98.8335 56.2337Z" fill="#D92F25"/>
<path d="M112.569 44.6782C113.155 44.5492 113.76 44.5347 114.351 44.6355C116.956 44.9548 121.348 45.46 121.348 45.46C121.348 45.46 121.639 51.1977 120.588 52.4197C120.588 52.4197 113.6 52.5273 113.712 53.1436L112.569 44.6782Z" fill="#D92F25"/>
<path d="M111.306 40.7234C110.811 42.1639 110.443 43.6452 110.205 45.1503C110.147 46.438 109.005 50.4541 106.438 50.111C103.871 49.768 106.677 44.8345 107.091 43.6222C107.513 41.9543 107.85 40.2657 108.1 38.563L111.306 40.7234Z" fill="#FFFDF4"/>
<path d="M107.778 40.4871C107.965 39.4391 108.101 38.5601 108.101 38.5601L111.303 40.726C111.303 40.726 111.09 41.3682 110.851 42.1933C110.225 42.2736 109.589 42.1514 109.037 41.8446C108.484 41.5378 108.043 41.0623 107.778 40.4871Z" fill="#F4AE33"/>
<path d="M113.803 32.0059C114.596 32.7019 115.116 33.6576 115.273 34.7029C115.525 36.4427 114.372 40.6788 110.804 41.2392C107.236 41.7996 106.228 38.1761 107.305 35.6042C108.383 33.0323 110.386 29.8664 113.803 32.0059Z" fill="#FFFDF4"/>
<path d="M107.019 34.5087C106.986 35.2353 107.287 35.8362 107.691 35.8516C108.096 35.867 108.449 35.2926 108.482 34.5632C108.515 33.8338 108.214 33.2356 107.81 33.221C107.405 33.2063 107.052 33.7827 107.019 34.5087Z" fill="#FFFDF4"/>
<path d="M87.5167 114.645C87.871 114.144 89.5458 116.493 89.953 116.99C90.0998 117.133 90.2086 117.311 90.2693 117.507C90.3301 117.703 90.341 117.911 90.301 118.113C90.1952 118.376 82.9735 123.928 81.1393 124.471C80.9435 124.504 80.7425 124.471 80.5671 124.378C79.7778 123.784 82.6846 118.431 84.131 117.609C85.5366 116.994 86.7189 115.959 87.5167 114.645Z" fill="#8195AC"/>
<path d="M113.431 31.7319C113.431 31.7319 113.382 36.6312 114.744 37.7072C116.106 38.7832 115.188 40.8318 115.188 40.8318C115.188 40.8318 117.224 36.0639 116.272 34.3074C115.602 33.184 114.612 32.2871 113.431 31.7319Z" fill="#0C152E"/>
<path d="M113.769 38.2751C113.282 38.846 113.178 39.5852 113.542 39.9275C113.907 40.2699 114.599 40.084 115.089 39.5132C115.578 38.9424 115.679 38.2025 115.315 37.8608C114.951 37.5191 114.259 37.7043 113.769 38.2751Z" fill="#FFFDF4"/>
<path d="M43.0454 42.2551C40.882 51.3144 34.0459 54.671 27.8077 53.1702C21.2388 51.5897 17.2392 45.4146 19.1763 37.2888C21.0216 29.5619 27.1325 24.8331 34.4984 26.605C41.9338 28.3937 44.8099 34.8608 43.0454 42.2551ZM26.7413 38.8259C25.6603 43.3556 26.4072 46.9874 29.3272 47.6896C32.1811 48.3764 34.2742 45.7801 35.4352 40.9171C36.4842 36.5209 36.1006 32.836 32.9822 32.0863C29.9954 31.368 27.775 34.4961 26.7413 38.8259ZM26.7879 68.3808L58.4815 33.6744C58.7762 33.3518 59.1515 33.1142 59.5685 32.9862C59.9855 32.8581 60.429 32.8444 60.853 32.9464C61.2671 33.046 61.6481 33.2524 61.9582 33.5453C62.2682 33.8381 62.4967 34.2072 62.621 34.6159C62.7453 35.0247 62.761 35.4589 62.6666 35.8757C62.5723 36.2924 62.3711 36.6772 62.083 36.9918L30.3497 71.6619C30.0583 71.9803 29.6875 72.2147 29.2755 72.3408C28.8636 72.467 28.4256 72.4803 28.0067 72.3795C27.597 72.2814 27.2199 72.0776 26.9128 71.7881C26.6058 71.4987 26.3794 71.1338 26.2561 70.7295C26.1329 70.3252 26.1171 69.8955 26.2102 69.4832C26.3034 69.0709 26.5023 68.6901 26.7873 68.3787L26.7879 68.3808ZM69.8087 67.7143C67.6453 76.7736 60.8092 80.1301 54.571 78.6293C48.0675 77.0649 44.0673 70.8898 45.9397 62.7472C47.785 55.0203 53.8965 50.2922 61.2617 52.0634C68.6971 53.8493 71.5732 60.3179 69.8087 67.7115V67.7143ZM53.5715 64.3011C52.4236 68.8147 53.1705 72.4458 56.0906 73.148C58.9445 73.8341 61.0382 71.2385 62.1992 66.3763C63.2489 61.9794 62.9315 58.3112 59.8131 57.5608C56.7594 56.8244 54.6044 59.9692 53.5707 64.2962L53.5715 64.3011Z" fill="white"/>
</svg>
