<svg width="64" height="64" viewBox="0 0 64 64" fill="none" xmlns="http://www.w3.org/2000/svg">
<rect x="0.000976562" y="0.000976562" width="64" height="64" rx="8" fill="white"/>
<g clip-path="url(#clip0)">
<path d="M39.7983 38.8759H30.126L29.8135 32.6259L24.1885 26.3759L26.0635 23.8759L29.8135 27.0009H32.3135V26.3759C30.126 24.5009 30.4385 22.3134 30.4385 19.5009C30.4385 17.2509 31.6885 16.4801 32.3135 16.3759C33.4593 15.6468 36.1885 14.6259 37.9385 16.3759C40.126 18.5634 39.501 21.6884 39.501 23.2509C39.501 24.5009 38.0426 25.8551 37.3135 26.3759V27.0009C38.0635 26.7509 40.126 27.7301 41.0635 28.2509C42.8135 30.0009 43.251 32.5218 43.251 33.5634V38.1337C43.3551 38.6676 43.1989 39.1364 43.251 38.8759V38.1337C43.1468 37.5999 42.7822 37.0009 41.6885 37.0009C39.9468 37.0009 39.7899 38.5198 39.7983 38.8759H39.8135C39.8135 38.9821 39.8005 38.9671 39.7983 38.8759Z" fill="#ECF7FB"/>
<path d="M32.001 21.6884H30.4385C30.4385 24.4384 31.0635 25.1259 31.376 25.1259L32.626 27.3134C32.4176 28.355 32.5635 30.4384 34.8135 30.4384C37.0635 30.4384 37.2093 28.1467 37.001 27.0009C37.751 26.2509 38.7718 24.605 39.1885 23.8759V21.6884C37.626 21.6884 37.3135 20.7509 36.376 20.1259C35.4385 19.5009 32.9385 18.5634 32.9385 19.5009C32.9385 20.2509 32.3135 21.2717 32.001 21.6884Z" fill="white"/>
<path d="M18.2305 24.4702C18.2305 24.6256 18.2922 24.7746 18.4021 24.8845C18.512 24.9944 18.661 25.0561 18.8164 25.0561C18.9718 25.0561 19.1208 24.9944 19.2307 24.8845C19.3406 24.7746 19.4023 24.6256 19.4023 24.4702C19.4035 23.0664 19.962 21.7206 20.955 20.7284C21.948 19.7362 23.2943 19.1789 24.6981 19.1789C24.8535 19.1789 25.0025 19.1172 25.1124 19.0073C25.2223 18.8974 25.284 18.7484 25.284 18.593C25.284 18.4376 25.2223 18.2886 25.1124 18.1787C25.0025 18.0688 24.8535 18.0071 24.6981 18.0071C22.9839 18.0081 21.3401 18.6892 20.1275 19.901C18.915 21.1127 18.2327 22.756 18.2305 24.4702Z" fill="#333333"/>
<path d="M12.5869 21.3289C12.7423 21.3289 12.8913 21.2671 13.0012 21.1573C13.1111 21.0474 13.1728 20.8983 13.1728 20.7429V13.8404C13.173 13.6634 13.2433 13.4937 13.3685 13.3685C13.4937 13.2433 13.6634 13.173 13.8404 13.1728H20.7429C20.8983 13.1728 21.0474 13.1111 21.1573 13.0012C21.2671 12.8913 21.3289 12.7423 21.3289 12.5869C21.3289 12.4315 21.2671 12.2825 21.1573 12.1726C21.0474 12.0627 20.8983 12.001 20.7429 12.001H13.8404C13.3527 12.0016 12.8852 12.1956 12.5404 12.5404C12.1956 12.8852 12.0016 13.3527 12.001 13.8404V20.7429C12.001 20.8983 12.0627 21.0474 12.1726 21.1573C12.2825 21.2671 12.4315 21.3289 12.5869 21.3289Z" fill="#333333"/>
<path d="M50.1599 12.001H43.2568C43.1014 12.001 42.9524 12.0627 42.8425 12.1726C42.7326 12.2825 42.6709 12.4315 42.6709 12.5869C42.6709 12.7423 42.7326 12.8913 42.8425 13.0012C42.9524 13.1111 43.1014 13.1728 43.2568 13.1728H50.1599C50.3372 13.1727 50.5073 13.2429 50.6329 13.368C50.7585 13.4932 50.8293 13.6631 50.8298 13.8404V20.7429C50.8298 20.8983 50.8915 21.0474 51.0014 21.1573C51.1113 21.2671 51.2603 21.3289 51.4157 21.3289C51.5711 21.3289 51.7201 21.2671 51.83 21.1573C51.9399 21.0474 52.0016 20.8983 52.0016 20.7429V13.8404C52.0007 13.3524 51.8063 12.8848 51.4611 12.5399C51.1158 12.1951 50.6479 12.0013 50.1599 12.001V12.001Z" fill="#333333"/>
<path d="M20.7429 50.8292H13.8404C13.6631 50.8288 13.4932 50.758 13.368 50.6324C13.2429 50.5068 13.1727 50.3367 13.1728 50.1594V43.2568C13.1728 43.1014 13.1111 42.9524 13.0012 42.8425C12.8913 42.7326 12.7423 42.6709 12.5869 42.6709C12.4315 42.6709 12.2825 42.7326 12.1726 42.8425C12.0627 42.9524 12.001 43.1014 12.001 43.2568V50.1599C12.0013 50.6479 12.1951 51.1158 12.5399 51.4611C12.8848 51.8063 13.3524 52.0007 13.8404 52.0016H20.7429C20.8983 52.0016 21.0474 51.9399 21.1573 51.83C21.2671 51.7201 21.3289 51.5711 21.3289 51.4157C21.3289 51.2603 21.2671 51.1113 21.1573 51.0014C21.0474 50.8915 20.8983 50.8298 20.7429 50.8298V50.8292Z" fill="#333333"/>
<path d="M51.4151 42.6709C51.2597 42.6709 51.1107 42.7326 51.0008 42.8425C50.8909 42.9524 50.8292 43.1014 50.8292 43.2568V50.1593C50.8291 50.337 50.7584 50.5072 50.6329 50.6328C50.5073 50.7584 50.337 50.8291 50.1594 50.8292H43.2568C43.1014 50.8292 42.9524 50.8909 42.8425 51.0008C42.7326 51.1107 42.6709 51.2597 42.6709 51.4151C42.6709 51.5705 42.7326 51.7195 42.8425 51.8294C42.9524 51.9393 43.1014 52.001 43.2568 52.001H50.1599C50.6482 52.0006 51.1164 51.8064 51.4617 51.4611C51.807 51.1158 52.0012 50.6477 52.0016 50.1593V43.2568C52.0016 43.1798 51.9864 43.1036 51.957 43.0325C51.9275 42.9613 51.8843 42.8967 51.8298 42.8423C51.7753 42.7879 51.7107 42.7447 51.6395 42.7153C51.5684 42.6859 51.4921 42.6708 51.4151 42.6709Z" fill="#333333"/>
<path d="M15.4922 24.1115C15.4922 24.2669 15.5539 24.4159 15.6638 24.5258C15.7737 24.6357 15.9227 24.6974 16.0781 24.6974C16.2335 24.6974 16.3825 24.6357 16.4924 24.5258C16.6023 24.4159 16.664 24.2669 16.664 24.1115C16.666 22.0833 17.4725 20.1386 18.9066 18.7044C20.3408 17.2702 22.2853 16.4635 24.3136 16.4614C24.469 16.4614 24.618 16.3997 24.7279 16.2898C24.8378 16.1799 24.8995 16.0309 24.8995 15.8755C24.8995 15.7201 24.8378 15.571 24.7279 15.4612C24.618 15.3513 24.469 15.2896 24.3136 15.2896C21.9747 15.2921 19.7323 16.2224 18.0785 17.8763C16.4247 19.5302 15.4946 21.7726 15.4922 24.1115Z" fill="#333333"/>
<path d="M43.858 38.8343V33.9931C43.8611 33.2829 43.7892 32.5744 43.6434 31.8793C43.6287 31.8026 43.5989 31.7296 43.5557 31.6646C43.5124 31.5996 43.4566 31.5438 43.3915 31.5007C43.3264 31.4576 43.2534 31.4279 43.1766 31.4134C43.0999 31.3989 43.021 31.3999 42.9447 31.4163C42.8683 31.4327 42.7961 31.4642 42.7321 31.5089C42.6681 31.5537 42.6137 31.6108 42.572 31.6769C42.5304 31.7429 42.5024 31.8167 42.4897 31.8937C42.477 31.9708 42.4798 32.0496 42.498 32.1255C42.6263 32.7397 42.6894 33.3657 42.6862 33.9931V36.592H40.649V33.2821C40.649 33.1268 40.5873 32.9777 40.4774 32.8678C40.3675 32.758 40.2185 32.6962 40.0631 32.6962C39.9077 32.6962 39.7587 32.758 39.6488 32.8678C39.5389 32.9777 39.4772 33.1268 39.4772 33.2821V38.2726H30.3797V33.2821C30.3797 32.121 30.2321 31.8647 29.5442 31.1824L24.8338 26.5255L26.3808 24.7537L28.1989 26.5717L28.2056 26.5779C28.2969 26.6664 28.3791 26.7469 28.4552 26.8236C28.7104 27.1553 29.0437 27.4189 29.4253 27.5907C29.807 27.7625 30.2252 27.8373 30.6428 27.8083H32.1577V28.0438C32.1285 28.4221 32.1778 28.8024 32.3025 29.1607C32.4272 29.5191 32.6247 29.8477 32.8824 30.1262C33.1402 30.4046 33.4527 30.6267 33.8004 30.7787C34.1481 30.9306 34.5234 31.009 34.9028 31.009C35.2822 31.009 35.6576 30.9306 36.0052 30.7787C36.3529 30.6267 36.6654 30.4046 36.9232 30.1262C37.1809 29.8477 37.3784 29.5191 37.5031 29.1607C37.6278 28.8024 37.6771 28.4221 37.6479 28.0438V27.8134C38.4164 27.815 39.173 28.0028 39.8531 28.3608C40.5331 28.7187 41.1163 29.2361 41.5527 29.8686C41.6426 29.9933 41.7778 30.0777 41.9294 30.1035C42.0809 30.1294 42.2365 30.0947 42.3626 30.0069C42.4888 29.9191 42.5754 29.7852 42.6038 29.6341C42.6321 29.4831 42.6 29.3269 42.5144 29.1993C42.0027 28.4605 41.3296 27.8477 40.5461 27.4074C39.7627 26.9671 38.8893 26.7108 37.9921 26.6579C39.1786 25.6207 40.0062 24.143 40.0062 22.8303V19.3036C40.0062 17.5436 38.6822 15.9554 36.6327 15.2585C34.8428 14.6495 33.0653 14.9323 32.1087 15.9537C31.1267 16.1267 29.7504 16.9058 29.7989 19.9182C29.7989 19.9452 29.7989 22.8292 29.7989 22.8292C29.8573 23.5648 30.0636 24.2812 30.4053 24.9352C30.747 25.5893 31.2171 26.1678 31.7876 26.6359H30.6417C29.9301 26.6359 29.8434 26.5503 29.2806 25.9914C29.2022 25.9137 29.1177 25.8298 29.0242 25.739L25.8208 22.5357C25.5334 22.2014 25.1591 21.9531 24.7392 21.8184C24.3194 21.6836 23.8705 21.6677 23.4422 21.7723C23.0423 21.8902 22.6797 22.1096 22.3897 22.4093C22.0997 22.7089 21.8923 23.0785 21.7876 23.4821C21.6776 23.8963 21.6817 24.3325 21.7994 24.7445C21.9171 25.1565 22.1441 25.5289 22.4563 25.8224L28.6873 31.9824L28.7183 32.0134C29.2073 32.4985 29.2073 32.4985 29.2073 33.281V41.5582C29.2073 41.7136 29.269 41.8626 29.3789 41.9725C29.4888 42.0824 29.6378 42.1441 29.7932 42.1441C29.9486 42.1441 30.0977 42.0824 30.2075 41.9725C30.3174 41.8626 30.3791 41.7136 30.3791 41.5582V39.4444H34.3408V46.8247H30.3791V44.3644C30.3791 44.209 30.3174 44.06 30.2075 43.9501C30.0977 43.8402 29.9486 43.7785 29.7932 43.7785C29.6378 43.7785 29.4888 43.8402 29.3789 43.9501C29.269 44.06 29.2073 44.209 29.2073 44.3644V48.9193C29.1939 49.7216 29.4991 50.4966 30.0561 51.0742C30.613 51.6519 31.3763 51.9852 32.1786 52.001H32.542C33.0102 51.9985 33.471 51.884 33.886 51.6672C34.3009 51.4503 34.658 51.1373 34.9273 50.7543C35.197 51.1373 35.5543 51.4504 35.9696 51.6672C36.3848 51.8841 36.8459 51.9986 37.3144 52.001H37.6777C38.4801 51.9853 39.2434 51.6521 39.8004 51.0744C40.3574 50.4967 40.6626 49.7217 40.649 48.9193V40.7712C40.9827 40.9475 41.3563 41.0345 41.7335 41.0238C42.1108 41.0131 42.4788 40.9051 42.802 40.7102C43.1251 40.5153 43.3924 40.2401 43.5778 39.9114C43.7633 39.5827 43.8606 39.2117 43.8603 38.8343H43.858ZM36.4777 28.0427C36.5068 28.2664 36.4879 28.4938 36.4221 28.7096C36.3563 28.9254 36.2453 29.1247 36.0964 29.2942C35.9475 29.4637 35.7642 29.5995 35.5587 29.6926C35.3531 29.7856 35.1301 29.8337 34.9045 29.8337C34.6789 29.8337 34.4559 29.7856 34.2503 29.6926C34.0448 29.5995 33.8615 29.4637 33.7126 29.2942C33.5637 29.1247 33.4526 28.9254 33.3869 28.7096C33.3211 28.4938 33.3022 28.2664 33.3313 28.0427V27.6298C33.4101 27.6641 33.4896 27.6968 33.5696 27.7267C34.4247 28.0795 35.3848 28.0795 36.24 27.7267C36.32 27.6968 36.3989 27.6641 36.4777 27.6303V28.0427ZM32.4625 17.0883C32.5432 17.0814 32.6215 17.0577 32.6926 17.0189C32.7637 16.9801 32.826 16.927 32.8755 16.863C33.4659 16.0957 34.8569 15.8923 36.2558 16.3689C37.4456 16.7734 38.8344 17.7852 38.8344 19.3047V20.8647H38.5899C38.0158 20.8647 37.6445 20.5441 37.0868 20.0196C36.7407 19.6199 36.3157 19.2959 35.8385 19.0681C35.3614 18.8403 34.8423 18.7135 34.3138 18.6957H33.6028C33.3529 18.6768 33.1028 18.7301 32.8823 18.8493C32.6617 18.9684 32.4801 19.1484 32.3589 19.3678C32.208 19.6952 32.1248 20.0497 32.1144 20.41C32.0445 21.1498 31.9904 21.1937 31.5944 21.1937H30.9713C30.9713 21.1937 30.9713 19.9345 30.9713 19.8979C30.9425 18.1238 31.4439 17.1779 32.4608 17.0883H32.4625ZM30.9729 22.8298V22.3638H31.5961C31.8719 22.3873 32.1489 22.3339 32.3963 22.2096C32.6437 22.0853 32.8519 21.8949 32.9977 21.6596C33.1758 21.3048 33.2732 20.915 33.2828 20.5182C33.3442 19.8658 33.3735 19.8658 33.6045 19.8658H34.3155C35.2129 19.8658 35.7104 20.3328 36.2873 20.8731C36.5727 21.2128 36.9242 21.4909 37.3204 21.6905C37.7166 21.8901 38.1493 22.007 38.5921 22.0343H38.8366V22.8281C38.8366 24.2326 37.4051 26.0427 35.8344 26.6252C35.5409 26.7521 35.2245 26.8175 34.9048 26.8175C34.5851 26.8175 34.2687 26.7521 33.9752 26.6252C32.4028 26.0438 30.9713 24.2337 30.9713 22.8292L30.9729 22.8298ZM23.2828 24.9909C23.1178 24.842 22.997 24.6506 22.9336 24.4377C22.8702 24.2247 22.8667 23.9984 22.9234 23.7836C22.9738 23.5784 23.0765 23.3897 23.2214 23.2359C23.3663 23.0821 23.5486 22.9684 23.7504 22.9058C23.9801 22.8625 24.2172 22.8824 24.4364 22.9635C24.6557 23.0446 24.8487 23.1837 24.9949 23.3661L25.5532 23.9244L24.0017 25.7013L23.2828 24.9909ZM34.3431 48.9199C34.3568 49.4114 34.1751 49.8883 33.838 50.2463C33.5009 50.6042 33.0357 50.814 32.5442 50.8298H32.1808C31.6893 50.8141 31.2239 50.6044 30.8867 50.2465C30.5494 49.8885 30.3677 49.4115 30.3814 48.9199V47.9948H34.3431V48.9193V48.9199ZM39.4789 48.9199C39.4925 49.4114 39.3109 49.8883 38.9738 50.2463C38.6366 50.6042 38.1714 50.814 37.68 50.8298H37.3166C36.8245 50.815 36.3583 50.6057 36.0203 50.2476C35.6823 49.8896 35.5001 49.4121 35.5138 48.9199V47.9948H39.4777L39.4789 48.9199ZM39.4789 46.8236H35.5149V39.4433H39.4789V46.8236ZM42.6901 38.8348C42.6901 39.105 42.5828 39.364 42.3918 39.5551C42.2008 39.7461 41.9417 39.8534 41.6715 39.8534C41.4014 39.8534 41.1423 39.7461 40.9513 39.5551C40.7603 39.364 40.6529 39.105 40.6529 38.8348V37.7644H42.6901V38.8348Z" fill="#333333"/>
</g>
<defs>
<clipPath id="clip0">
<rect width="40" height="40" fill="white" transform="translate(12.001 12.001)"/>
</clipPath>
</defs>
</svg>
