<svg width="64" height="64" viewBox="0 0 64 64" fill="none" xmlns="http://www.w3.org/2000/svg">
<rect x="0.000976562" y="0.00100708" width="64" height="64" rx="8" fill="white"/>
<g clip-path="url(#clip0)">
<path d="M16.6885 23.251L23.876 36.376L30.126 24.501C30.4385 23.5635 31.0635 21.4385 31.0635 20.4385C31.0635 19.1885 29.1885 13.876 23.5635 13.876C17.9385 13.876 16.376 18.876 16.376 20.4385C16.376 21.6885 16.5843 22.8343 16.6885 23.251Z" fill="#ECF7FB"/>
<circle cx="23.876" cy="21.376" r="3.125" fill="white"/>
<path d="M25.275 28.901H24.1033V27.7288H25.275V28.901ZM23.3231 28.901H22.1514V27.7288H23.3231V28.901Z" fill="#333333"/>
<path d="M23.7136 37.1879C25.8634 34.0152 31.6655 25.0108 31.6655 21.2029C31.6655 19.0939 30.8277 17.0713 29.3364 15.5801C27.8452 14.0888 25.8226 13.251 23.7136 13.251C21.6046 13.251 19.582 14.0888 18.0908 15.5801C16.5995 17.0713 15.7617 19.0939 15.7617 21.2029C15.7622 25.0108 21.5643 34.0152 23.7136 37.1879ZM16.934 21.2029C16.9181 20.3026 17.0817 19.4081 17.4152 18.5717C17.7488 17.7353 18.2456 16.9738 18.8767 16.3314C19.5077 15.6891 20.2604 15.179 21.0908 14.8307C21.9212 14.4825 22.8126 14.3031 23.7131 14.3031C24.6135 14.3031 25.505 14.4825 26.3353 14.8307C27.1657 15.179 27.9184 15.6891 28.5495 16.3314C29.1806 16.9738 29.6774 17.7353 30.0109 18.5717C30.3445 19.4081 30.5081 20.3026 30.4922 21.2029C30.4922 24.3951 25.4672 32.4003 23.712 35.0824C21.9679 32.4135 16.934 24.3983 16.934 21.2029Z" fill="#333333"/>
<path d="M27.4913 21.2029C27.4914 20.4556 27.2699 19.725 26.8548 19.1036C26.4397 18.4822 25.8496 17.9978 25.1592 17.7117C24.4688 17.4257 23.7091 17.3508 22.9761 17.4965C22.2432 17.6422 21.5699 18.0021 21.0414 18.5305C20.5129 19.0588 20.153 19.7321 20.0072 20.465C19.8614 21.198 19.9362 21.9577 20.2221 22.6482C20.5081 23.3386 20.9924 23.9287 21.6137 24.3439C22.2351 24.7591 22.9656 24.9807 23.7129 24.9807C24.7146 24.9796 25.6749 24.5812 26.3832 23.873C27.0916 23.1648 27.4901 22.2045 27.4913 21.2029ZM21.1079 21.2029C21.1079 20.6874 21.2607 20.1836 21.5471 19.755C21.8334 19.3264 22.2405 18.9924 22.7167 18.7951C23.1929 18.5979 23.7169 18.5463 24.2224 18.6468C24.728 18.7474 25.1923 18.9956 25.5568 19.3601C25.9213 19.7245 26.1695 20.1889 26.2701 20.6945C26.3706 21.2 26.319 21.724 26.1218 22.2002C25.9245 22.6764 25.5905 23.0834 25.1619 23.3698C24.7333 23.6562 24.2294 23.809 23.714 23.809C23.0229 23.8085 22.3602 23.5337 21.8714 23.0451C21.3826 22.5566 21.1076 21.894 21.1068 21.2029H21.1079Z" fill="#333333"/>
<path d="M49.3822 24.6547L43.4735 30.5634H41.1808L36.2449 25.5589H31.4969V26.7285H35.7543L40.6901 31.7329H43.961L49.3822 26.3118L50.8293 27.7583V29.5093L49.4328 30.9057V40.3654L47.6017 42.1965V44.8581L48.9506 46.207V47.2986L48.1034 48.1474L45.12 45.1641H35.7559L34.81 47.4484L35.7854 48.4238L34.6733 49.5359H33.2911L28.9192 45.1641H21.4174L13.1727 36.9194V26.7285H15.9292V25.5568H12.001V37.4037L20.9315 46.3342H28.4334L32.8052 50.7061H35.1608L37.4446 48.4223L36.1938 47.1714L36.5409 46.3342H44.6347L48.1034 49.8029L50.1229 47.7834V45.7206L48.7718 44.3727V42.6845L50.603 40.8534V31.3911L51.9994 29.9952V27.2735L49.3822 24.6547Z" fill="#333333"/>
</g>
<defs>
<clipPath id="clip0">
<rect width="40" height="40" fill="white" transform="translate(12.001 12.001)"/>
</clipPath>
</defs>
</svg>
