<svg width="28" height="38" viewBox="0 0 28 38" fill="none" xmlns="http://www.w3.org/2000/svg">
<path d="M13.7598 37.116C9.35859 37.116 5.77734 36.0141 5.77734 34.6598C5.77734 33.5591 8.16109 32.5891 11.5736 32.3016C12.3236 33.1416 12.9317 33.7935 13.3136 34.1966L13.7592 34.6673L14.2048 34.1966C14.5867 33.7941 15.1973 33.1416 15.9448 32.3016C19.358 32.5891 21.7411 33.5591 21.7411 34.6598C21.7423 36.0141 18.1611 37.116 13.7598 37.116Z" fill="#F7FFFD"/>
<path d="M19.2869 8.56539V17.4441C19.2871 17.7381 19.1819 18.0224 18.9904 18.2455C18.7989 18.4685 18.5338 18.6155 18.2431 18.6598C18.1938 18.6598 18.1325 18.6723 18.0588 18.6723H9.4625C9.13709 18.6713 8.82528 18.5416 8.59518 18.3115C8.36507 18.0814 8.23536 17.7696 8.23438 17.4441V8.56539L13.7606 5.16351L19.2869 8.56539Z" fill="#F7FFFD"/>
<path d="M15.6023 14.9885V18.6729H11.918V14.9885C11.9281 14.666 12.0608 14.3595 12.2889 14.1314C12.5171 13.9032 12.8236 13.7706 13.1461 13.7604H14.3742C14.6996 13.7614 15.0114 13.8911 15.2415 14.1212C15.4716 14.3513 15.6014 14.6631 15.6023 14.9885Z" fill="white"/>
<path d="M18.0547 19.2866C18.543 19.286 19.0111 19.0917 19.3564 18.7464C19.7016 18.4011 19.8959 17.933 19.8966 17.4447V11.3035C19.8966 11.1406 19.8319 10.9845 19.7167 10.8693C19.6015 10.7541 19.4454 10.6894 19.2825 10.6894C19.1196 10.6894 18.9635 10.7541 18.8483 10.8693C18.7331 10.9845 18.6684 11.1406 18.6684 11.3035V17.4441C18.6681 17.6068 18.6033 17.7627 18.4883 17.8777C18.3733 17.9928 18.2174 18.0575 18.0547 18.0579H16.2141V14.9879C16.2134 14.4996 16.0191 14.0315 15.6739 13.6862C15.3286 13.3409 14.8605 13.1467 14.3722 13.146H13.1434C12.6551 13.1467 12.187 13.3409 11.8418 13.6862C11.4965 14.0315 11.3022 14.4996 11.3016 14.9879V18.0585H9.45906C9.29639 18.0582 9.14047 17.9934 9.02544 17.8784C8.91041 17.7633 8.84564 17.6074 8.84531 17.4447V11.3035C8.84531 11.1406 8.78062 10.9845 8.66546 10.8693C8.5503 10.7541 8.39411 10.6894 8.23125 10.6894C8.06839 10.6894 7.9122 10.7541 7.79704 10.8693C7.68188 10.9845 7.61719 11.1406 7.61719 11.3035V17.4441C7.61785 17.9324 7.81212 18.4005 8.15739 18.7458C8.50267 19.0911 8.97077 19.2853 9.45906 19.286L18.0547 19.2866ZM12.5297 18.0585V14.9879C12.53 14.8252 12.5948 14.6693 12.7098 14.5543C12.8248 14.4392 12.9808 14.3745 13.1434 14.3741H14.3716C14.5342 14.3745 14.6902 14.4392 14.8052 14.5543C14.9202 14.6693 14.985 14.8252 14.9853 14.9879V18.0585H12.5297Z" fill="#0C152E"/>
<path d="M21.4182 10.5985C21.5148 10.6584 21.6264 10.6898 21.74 10.6891C21.8738 10.6891 22.0038 10.6454 22.1105 10.5647C22.2171 10.484 22.2945 10.3707 22.3309 10.242C22.3673 10.1134 22.3607 9.97632 22.3122 9.85172C22.2636 9.72711 22.1758 9.62175 22.0619 9.55163L14.0788 4.64038C13.982 4.5807 13.8706 4.5491 13.7569 4.5491C13.6432 4.5491 13.5318 4.5807 13.435 4.64038L5.45253 9.55225C5.31775 9.63945 5.22244 9.77595 5.18702 9.93252C5.1516 10.0891 5.17887 10.2533 5.26299 10.39C5.34712 10.5268 5.48142 10.6251 5.63716 10.6641C5.79289 10.7031 5.95769 10.6795 6.09628 10.5985L13.7569 5.88413L21.4182 10.5985Z" fill="#0C152E"/>
<path d="M17.1962 31.7923C21.0625 27.3791 27.2681 19.4935 27.2681 14.3635C27.2681 10.7807 25.8448 7.34459 23.3114 4.81115C20.778 2.27771 17.3419 0.854439 13.7591 0.854439C10.1762 0.854439 6.74015 2.27771 4.20671 4.81115C1.67327 7.34459 0.25 10.7807 0.25 14.3635C0.25 19.4935 6.45812 27.3791 10.3212 31.7923C7.65 32.1673 5.16187 33.066 5.16187 34.6266C5.16187 36.6429 9.48625 37.6966 13.7587 37.6966C18.0312 37.6966 22.3556 36.6429 22.3556 34.6266C22.3556 33.066 19.8675 32.1673 17.1962 31.7923ZM13.7587 2.08225C17.0148 2.08589 20.1365 3.38097 22.4389 5.68337C24.7413 7.98576 26.0364 11.1074 26.04 14.3635C26.04 20.426 15.9981 31.3735 13.7594 33.7385C11.5194 31.3748 1.47875 20.426 1.47875 14.3635C1.48255 11.1078 2.77754 7.98643 5.07964 5.68421C7.38175 3.38199 10.503 2.08685 13.7587 2.08288V2.08225ZM13.7587 36.4685C9.18812 36.4685 6.39 35.276 6.39 34.6266C6.39 34.1723 8.03562 33.2329 11.3144 32.9085C12.4219 34.1366 13.1956 34.931 13.32 35.0579C13.3773 35.1155 13.4455 35.1613 13.5206 35.1926C13.5957 35.2238 13.6762 35.2399 13.7575 35.2399C13.8388 35.2399 13.9193 35.2238 13.9944 35.1926C14.0695 35.1613 14.1377 35.1155 14.195 35.0579C14.32 34.9329 15.0925 34.1366 16.2006 32.9085C19.4794 33.2329 21.125 34.1723 21.125 34.6266C21.125 35.2766 18.33 36.4691 13.7587 36.4691V36.4685Z" fill="#0C152E"/>
</svg>
