<svg xmlns="http://www.w3.org/2000/svg" xmlns:xlink="http://www.w3.org/1999/xlink" viewBox="0 0 896 187"><defs><style>.cls-1{fill:none;}.cls-2{fill:#7eb3ff;stroke:#7eb3ff;}.cls-3{fill:#002e62;}.cls-4{fill:#d00a2c;}.cls-5{fill:#fff;}.cls-6{isolation:isolate;}.cls-7{fill:url(#linear-gradient);}.cls-8{fill:#96969a;}.cls-9{fill:#eeeded;}.cls-10{fill:#818285;}.cls-11{fill:#dfe1e3;}.cls-12{fill:#808186;}.cls-13{fill:#00337a;}.cls-14{fill:#003378;}.cls-15{fill:#003379;}.cls-16{fill:#003479;}.cls-17{fill:#037;}.cls-18{fill:#00357e;}.cls-19{fill:#00357c;}.cls-20{fill:#0d2251;}.cls-21{fill:#6c6e73;}.cls-22{fill:#0d214f;}.cls-23{fill:#0d2455;}.cls-24{fill:#0d2454;}.cls-25{fill:#0d2557;}.cls-26{fill:#0c265a;}.cls-27{fill:#0c285d;}.cls-28{fill:#03336e;}.cls-29{fill:#0c275c;}.cls-30{fill:#0c285e;}.cls-31{fill:#0c285c;}.cls-32{fill:#95989d;}.cls-33{fill:#0d2556;}.cls-34{fill:#0d2659;}.cls-35{fill:#00367f;}.cls-36{clip-path:url(#clip-path);}.cls-37{fill:#006dff;}.cls-38{fill:#08192f;}.cls-39{clip-path:url(#clip-path-2);}</style><linearGradient id="linear-gradient" x1="152.4" y1="508.69" x2="153.06" y2="508.69" gradientTransform="matrix(1168.92, 0, 0, -53, -177923.37, 27121.08)" gradientUnits="userSpaceOnUse"><stop offset="0" stop-color="#002e62"/><stop offset="1" stop-color="#08192f"/></linearGradient><clipPath id="clip-path"><polygon class="cls-1" points="677.67 41.49 676.64 33.77 691.34 31.2 692.52 40.12 677.67 41.49"/></clipPath><clipPath id="clip-path-2"><polygon class="cls-1" points="797.16 108.84 797.16 82.35 849.21 84.06 849.21 107.13 797.16 108.84"/></clipPath></defs><g id="Layer_2" data-name="Layer 2"><g id="Layer_1-2" data-name="Layer 1"><path id="Path_40444" data-name="Path 40444" class="cls-2" d="M22,1,5,22.64H38.79Z"/><rect id="Rectangle_1962-2" data-name="Rectangle 1962-2" class="cls-3" y="12" width="896" height="175" rx="4"/><g id="layer1"><g id="g30924"><g id="path29999"><path class="cls-4" d="M306.37,68H147V31.41H306.37Z"/></g><g id="path30011"><path d="M306.92,68.6H146.44V30.86H306.92ZM147.56,67.48H305.81V32H147.56Z"/></g><g id="path30023"><path class="cls-5" d="M163.38,48.34h3a10.73,10.73,0,0,0,4.9-.8,2.33,2.33,0,0,0,1.41-2,2.45,2.45,0,0,0-1.22-2c-.82-.56-2.35-.84-4.61-.84h-3.43Zm-12.08-11h20c4.35,0,7.62.68,9.79,2a6.51,6.51,0,0,1,3.25,5.84,6.8,6.8,0,0,1-3.55,6.08q-3.54,2.19-10.83,2.19h-6.59v9.55H151.3Z"/></g><g id="path30027"><path class="cls-5" d="M199.72,50.58q0,3.9,1.88,5.6a7.25,7.25,0,0,0,5.09,1.71,7.34,7.34,0,0,0,5.14-1.67q1.81-1.66,1.81-6c0-2.42-.63-4.2-1.89-5.31a7.5,7.5,0,0,0-5.15-1.68,7.17,7.17,0,0,0-5,1.7q-1.89,1.71-1.89,5.64m-10.27,0A11.68,11.68,0,0,1,194,40.72q4.53-3.51,12.64-3.51,8.3,0,12.79,3.45a11.47,11.47,0,0,1,4.5,9.66,12.92,12.92,0,0,1-2,7.4,12.82,12.82,0,0,1-5.67,4.49,23.32,23.32,0,0,1-9.25,1.6,26.85,26.85,0,0,1-9.31-1.38,13.25,13.25,0,0,1-6-4.39,12,12,0,0,1-2.29-7.51"/></g><g id="path30031"><path class="cls-5" d="M241.13,43.48V57.54h2.72a15.53,15.53,0,0,0,5-.55,4.48,4.48,0,0,0,2.3-1.93,9.09,9.09,0,0,0,.83-4.47c0-2.73-.62-4.59-1.86-5.6s-3.3-1.51-6.17-1.51ZM230,37.66h16.48a27,27,0,0,1,7.88.94,13.23,13.23,0,0,1,5,2.72,10.58,10.58,0,0,1,2.84,4.12,14,14,0,0,1,.88,5,13,13,0,0,1-1.31,6.4,11.27,11.27,0,0,1-3.64,3.8,13.32,13.32,0,0,1-5,2,35.29,35.29,0,0,1-6.62.71H230Z"/></g><g id="path30035"><path class="cls-5" d="M269.16,54.88l10.56-.47a4.81,4.81,0,0,0,1.39,2.79A7,7,0,0,0,286,58.75a6.94,6.94,0,0,0,3.65-.8,2.22,2.22,0,0,0,1.28-1.85,2.19,2.19,0,0,0-1.21-1.79q-1.21-.78-5.67-1.49-7.31-1.17-10.41-3.12t-3.13-5A5.47,5.47,0,0,1,272.1,41a10.65,10.65,0,0,1,4.83-2.77,30.37,30.37,0,0,1,8.83-1q6.89,0,10.5,1.83a7.64,7.64,0,0,1,4.29,5.83l-10.45.44a3.78,3.78,0,0,0-1.75-2.52,7.21,7.21,0,0,0-3.68-.79,5.65,5.65,0,0,0-2.91.59,1.66,1.66,0,0,0-1,1.43c0,.41.26.77.8,1.1a11.18,11.18,0,0,0,3.71,1,60.56,60.56,0,0,1,10.42,2.27,10.73,10.73,0,0,1,4.58,2.85A5.81,5.81,0,0,1,301.72,55a6.68,6.68,0,0,1-1.91,4.57,11.78,11.78,0,0,1-5.34,3.16,29.18,29.18,0,0,1-8.64,1.08q-9.15,0-12.68-2.52a9,9,0,0,1-4-6.41"/></g><g id="path30047"><path d="M226.92,68.21h-.56V31.82h.56ZM266.55,68H266V31.64h.56Zm-79.16-.28h-.56V31.92h.56Z"/></g><g id="path30059"><path class="cls-5" d="M300.14,36h.23a3.12,3.12,0,0,0,.61,0,.34.34,0,0,0,.19-.14.31.31,0,0,0,.07-.21.36.36,0,0,0-.07-.22.34.34,0,0,0-.19-.13,2.51,2.51,0,0,0-.61,0h-.23Zm-.58,1.62V34.74H301a1.11,1.11,0,0,1,.44.12.68.68,0,0,1,.26.27.81.81,0,0,1,.11.41.78.78,0,0,1-.2.53,1,1,0,0,1-.56.27.62.62,0,0,1,.2.11,1.48,1.48,0,0,1,.19.21l.21.35.33.58h-.71l-.24-.47a2,2,0,0,0-.39-.59.62.62,0,0,0-.39-.12h-.15v1.18Zm1.21-3.6a2.24,2.24,0,0,0-1.06.28,2,2,0,0,0-.79.79,2.19,2.19,0,0,0,0,2.16,2,2,0,0,0,.79.8,2.18,2.18,0,0,0,1.07.29,2.11,2.11,0,0,0,1.06-.29,2,2,0,0,0,.79-.8,2.18,2.18,0,0,0,.29-1.07,2.25,2.25,0,0,0-.29-1.09,2,2,0,0,0-.8-.79,2.12,2.12,0,0,0-1.05-.28m0-.52a2.7,2.7,0,0,1,1.32.34,2.48,2.48,0,0,1,1,1,2.73,2.73,0,0,1,.36,1.35,2.63,2.63,0,0,1-.36,1.33,2.48,2.48,0,0,1-1,1,2.73,2.73,0,0,1-1.33.35,2.78,2.78,0,0,1-1.33-.35,2.55,2.55,0,0,1-1-1,2.71,2.71,0,0,1,0-2.68,2.48,2.48,0,0,1,1-1,2.7,2.7,0,0,1,1.31-.34"/></g></g></g><g id="Your_personal_moving_and_storage_service" data-name="Your personal moving and storage service" class="cls-6"><g class="cls-6"><path class="cls-5" d="M153.79,89.41l3.25-7h3.53l-5.14,10V98h-3.27V92.33l-5.14-10h3.54Z"/><path class="cls-5" d="M160.61,92.08a6.8,6.8,0,0,1,.67-3.08,4.86,4.86,0,0,1,1.91-2.1,5.67,5.67,0,0,1,2.91-.74,5.29,5.29,0,0,1,3.84,1.44,5.81,5.81,0,0,1,1.66,3.91l0,.8a6.1,6.1,0,0,1-1.49,4.29,5.8,5.8,0,0,1-8,0,6.16,6.16,0,0,1-1.5-4.38Zm3.1.22a4.27,4.27,0,0,0,.63,2.53,2.23,2.23,0,0,0,3.54,0,4.67,4.67,0,0,0,.64-2.77,4.21,4.21,0,0,0-.64-2.51,2.2,2.2,0,0,0-3.54,0A4.79,4.79,0,0,0,163.71,92.3Z"/><path class="cls-5" d="M180.49,96.82a3.88,3.88,0,0,1-3.18,1.39,3.67,3.67,0,0,1-2.85-1.07,4.61,4.61,0,0,1-1-3.15V86.38h3.1v7.51c0,1.22.55,1.82,1.66,1.82a2.24,2.24,0,0,0,2.17-1.1V86.38h3.11V98h-2.92Z"/><path class="cls-5" d="M192.37,89.29a8,8,0,0,0-1.11-.09A2.27,2.27,0,0,0,189,90.39V98h-3.11V86.38h2.94l.08,1.38a2.88,2.88,0,0,1,2.59-1.6,3.39,3.39,0,0,1,1,.14Z"/><path class="cls-5" d="M209.81,92.3a7,7,0,0,1-1.22,4.3,3.92,3.92,0,0,1-3.29,1.61A3.6,3.6,0,0,1,202.45,97v5.48h-3.1V86.38h2.88l.1,1.13a3.66,3.66,0,0,1,2.95-1.35,3.94,3.94,0,0,1,3.34,1.59,7.19,7.19,0,0,1,1.19,4.38Zm-3.11-.23a4.58,4.58,0,0,0-.57-2.5,1.86,1.86,0,0,0-1.67-.88,2,2,0,0,0-2,1.11v4.76a2.07,2.07,0,0,0,2,1.15C206,95.71,206.7,94.5,206.7,92.07Z"/><path class="cls-5" d="M217.08,98.21a5.72,5.72,0,0,1-4.16-1.56,5.59,5.59,0,0,1-1.61-4.18v-.3A7.1,7.1,0,0,1,212,89a4.94,4.94,0,0,1,1.92-2.12,5.34,5.34,0,0,1,2.83-.75,4.79,4.79,0,0,1,3.75,1.51,6.06,6.06,0,0,1,1.37,4.26V93.2h-7.4a2.82,2.82,0,0,0,.91,1.82,2.72,2.72,0,0,0,1.92.69,3.34,3.34,0,0,0,2.8-1.3l1.53,1.71a4.68,4.68,0,0,1-1.9,1.54A6.15,6.15,0,0,1,217.08,98.21Zm-.35-9.55a1.93,1.93,0,0,0-1.5.63,3.28,3.28,0,0,0-.74,1.79h4.32v-.25a2.28,2.28,0,0,0-.56-1.6A2,2,0,0,0,216.73,88.66Z"/><path class="cls-5" d="M230.16,89.29A8.21,8.21,0,0,0,229,89.2a2.27,2.27,0,0,0-2.31,1.19V98h-3.11V86.38h2.94l.08,1.38a2.88,2.88,0,0,1,2.59-1.6,3.34,3.34,0,0,1,1,.14Z"/><path class="cls-5" d="M237.94,94.79a1,1,0,0,0-.56-.9,6.66,6.66,0,0,0-1.81-.59q-4.15-.87-4.15-3.52a3.18,3.18,0,0,1,1.29-2.58,5.16,5.16,0,0,1,3.35-1,5.58,5.58,0,0,1,3.54,1,3.28,3.28,0,0,1,1.33,2.71h-3.1a1.53,1.53,0,0,0-.43-1.1,1.84,1.84,0,0,0-1.35-.44,1.82,1.82,0,0,0-1.21.36,1.12,1.12,0,0,0-.43.9,1,1,0,0,0,.49.83,4.86,4.86,0,0,0,1.65.55,14.86,14.86,0,0,1,1.95.52A3.22,3.22,0,0,1,241,94.66a3,3,0,0,1-1.36,2.57,5.87,5.87,0,0,1-3.53,1,6.11,6.11,0,0,1-2.59-.52,4.24,4.24,0,0,1-1.78-1.43,3.28,3.28,0,0,1-.64-2H234a1.61,1.61,0,0,0,.61,1.27,2.46,2.46,0,0,0,1.53.44,2.24,2.24,0,0,0,1.35-.34A1,1,0,0,0,237.94,94.79Z"/><path class="cls-5" d="M242.48,92.08a6.93,6.93,0,0,1,.66-3.08,5,5,0,0,1,1.92-2.1,5.62,5.62,0,0,1,2.91-.74,5.32,5.32,0,0,1,3.84,1.44,5.81,5.81,0,0,1,1.66,3.91l0,.8A6.06,6.06,0,0,1,252,96.6a5.8,5.8,0,0,1-8,0,6.2,6.2,0,0,1-1.49-4.38Zm3.1.22a4.35,4.35,0,0,0,.62,2.53,2.24,2.24,0,0,0,3.55,0,4.76,4.76,0,0,0,.63-2.77,4.29,4.29,0,0,0-.63-2.51,2.21,2.21,0,0,0-3.55,0A4.88,4.88,0,0,0,245.58,92.3Z"/><path class="cls-5" d="M258.26,86.38l.09,1.34a4.06,4.06,0,0,1,3.34-1.56,3.34,3.34,0,0,1,2.75,1.09,5,5,0,0,1,.93,3.24V98h-3.11V90.57a2,2,0,0,0-.43-1.44,1.89,1.89,0,0,0-1.42-.44,2.14,2.14,0,0,0-2,1.11V98h-3.11V86.38Z"/><path class="cls-5" d="M274.46,98a3.45,3.45,0,0,1-.32-1,3.77,3.77,0,0,1-2.93,1.25,4.16,4.16,0,0,1-2.83-1,3.18,3.18,0,0,1-1.12-2.5,3.29,3.29,0,0,1,1.37-2.83,6.76,6.76,0,0,1,4-1H274v-.67a1.93,1.93,0,0,0-.42-1.29,1.62,1.62,0,0,0-1.3-.48,1.83,1.83,0,0,0-1.23.38,1.26,1.26,0,0,0-.45,1h-3.1a3.07,3.07,0,0,1,.62-1.87,4.06,4.06,0,0,1,1.76-1.35,6.35,6.35,0,0,1,2.56-.49,5.07,5.07,0,0,1,3.41,1.08,3.78,3.78,0,0,1,1.26,3v5a5.64,5.64,0,0,0,.46,2.51V98Zm-2.57-2.16a2.62,2.62,0,0,0,1.27-.31,2,2,0,0,0,.86-.82v-2h-1.16q-2.34,0-2.49,1.62v.18a1.25,1.25,0,0,0,.41.95A1.6,1.6,0,0,0,271.89,95.84Z"/><path class="cls-5" d="M282.79,98h-3.11V81.5h3.11Z"/><path class="cls-5" d="M293.74,86.38l.09,1.3a4.11,4.11,0,0,1,3.35-1.52,3.1,3.1,0,0,1,3.08,1.77,4,4,0,0,1,3.49-1.77,3.46,3.46,0,0,1,2.81,1.1,5.06,5.06,0,0,1,.93,3.32V98h-3.12V90.59a2.29,2.29,0,0,0-.38-1.45,1.75,1.75,0,0,0-1.37-.45A1.93,1.93,0,0,0,300.69,90v8h-3.11V90.6a2.2,2.2,0,0,0-.39-1.46,1.75,1.75,0,0,0-1.36-.45,2,2,0,0,0-1.91,1.09V98h-3.1V86.38Z"/><path class="cls-5" d="M309.39,92.08a6.8,6.8,0,0,1,.67-3.08A4.86,4.86,0,0,1,312,86.9a5.67,5.67,0,0,1,2.91-.74,5.29,5.29,0,0,1,3.84,1.44,5.81,5.81,0,0,1,1.66,3.91l0,.8a6.1,6.1,0,0,1-1.49,4.29,5.8,5.8,0,0,1-8,0,6.16,6.16,0,0,1-1.5-4.38Zm3.1.22a4.27,4.27,0,0,0,.63,2.53,2.23,2.23,0,0,0,3.54,0,4.75,4.75,0,0,0,.64-2.77,4.29,4.29,0,0,0-.64-2.51,2.05,2.05,0,0,0-1.78-.9,2,2,0,0,0-1.76.89A4.79,4.79,0,0,0,312.49,92.3Z"/><path class="cls-5" d="M326.5,94.21l2.16-7.83h3.25L328,98h-3L321.1,86.38h3.24Z"/><path class="cls-5" d="M333.25,83.37a1.49,1.49,0,0,1,.47-1.15,1.74,1.74,0,0,1,1.27-.45,1.78,1.78,0,0,1,1.27.45,1.64,1.64,0,0,1,0,2.31,2,2,0,0,1-2.52,0A1.52,1.52,0,0,1,333.25,83.37ZM336.55,98h-3.12V86.38h3.12Z"/><path class="cls-5" d="M342,86.38l.1,1.34a4,4,0,0,1,3.34-1.56,3.35,3.35,0,0,1,2.75,1.09,5,5,0,0,1,.92,3.24V98H346V90.57a2.06,2.06,0,0,0-.43-1.44,1.93,1.93,0,0,0-1.43-.44,2.14,2.14,0,0,0-2,1.11V98H339V86.38Z"/><path class="cls-5" d="M351,92.1a6.82,6.82,0,0,1,1.28-4.31,4.13,4.13,0,0,1,3.43-1.63,3.62,3.62,0,0,1,3,1.31l.13-1.09h2.82V97.61a4.93,4.93,0,0,1-.7,2.66A4.4,4.4,0,0,1,359,102a6.74,6.74,0,0,1-2.94.59,6.55,6.55,0,0,1-2.49-.5,4.53,4.53,0,0,1-1.84-1.32l1.38-1.89a3.65,3.65,0,0,0,2.81,1.3,2.65,2.65,0,0,0,1.92-.66,2.48,2.48,0,0,0,.69-1.88V97a3.58,3.58,0,0,1-2.82,1.21,4.09,4.09,0,0,1-3.39-1.64,6.74,6.74,0,0,1-1.3-4.34Zm3.11.23a4.25,4.25,0,0,0,.63,2.48,2,2,0,0,0,1.74.9,2.15,2.15,0,0,0,2-1.06v-4.9a2.14,2.14,0,0,0-2-1.06,2,2,0,0,0-1.75.91A4.75,4.75,0,0,0,354.08,92.33Z"/><path class="cls-5" d="M376.2,98a3.45,3.45,0,0,1-.32-1A3.77,3.77,0,0,1,373,98.21a4.16,4.16,0,0,1-2.83-1,3.18,3.18,0,0,1-1.12-2.5,3.26,3.26,0,0,1,1.37-2.83,6.76,6.76,0,0,1,4-1h1.42v-.67a1.92,1.92,0,0,0-.41-1.29,1.62,1.62,0,0,0-1.3-.48,1.83,1.83,0,0,0-1.23.38,1.26,1.26,0,0,0-.45,1h-3.1a3.07,3.07,0,0,1,.62-1.87,4.06,4.06,0,0,1,1.76-1.35,6.35,6.35,0,0,1,2.56-.49,5.07,5.07,0,0,1,3.41,1.08,3.78,3.78,0,0,1,1.26,3v5a5.64,5.64,0,0,0,.46,2.51V98Zm-2.57-2.16a2.62,2.62,0,0,0,1.27-.31,1.93,1.93,0,0,0,.85-.82v-2h-1.16c-1.55,0-2.38.54-2.48,1.62v.18a1.25,1.25,0,0,0,.41.95A1.6,1.6,0,0,0,373.63,95.84Z"/><path class="cls-5" d="M384.11,86.38l.1,1.34a4,4,0,0,1,3.34-1.56,3.35,3.35,0,0,1,2.75,1.09,5,5,0,0,1,.92,3.24V98h-3.1V90.57a2,2,0,0,0-.43-1.44,1.91,1.91,0,0,0-1.43-.44,2.15,2.15,0,0,0-2,1.11V98h-3.1V86.38Z"/><path class="cls-5" d="M393.09,92.1a7,7,0,0,1,1.22-4.33,4,4,0,0,1,3.34-1.61,3.54,3.54,0,0,1,2.8,1.27V81.5h3.12V98h-2.81l-.15-1.24a3.64,3.64,0,0,1-3,1.45,4,4,0,0,1-3.3-1.61A7.29,7.29,0,0,1,393.09,92.1Zm3.11.23a4.59,4.59,0,0,0,.57,2.51,1.85,1.85,0,0,0,1.65.87,2.07,2.07,0,0,0,2-1.21V89.9a2.05,2.05,0,0,0-2-1.21C397,88.69,396.2,89.9,396.2,92.33Z"/><path class="cls-5" d="M417.75,94.79a1,1,0,0,0-.57-.9,6.54,6.54,0,0,0-1.81-.59q-4.14-.87-4.14-3.52a3.17,3.17,0,0,1,1.28-2.58,5.17,5.17,0,0,1,3.36-1,5.62,5.62,0,0,1,3.54,1,3.3,3.3,0,0,1,1.32,2.71h-3.1a1.53,1.53,0,0,0-.43-1.1,2.25,2.25,0,0,0-2.56-.08,1.12,1.12,0,0,0-.43.9,1,1,0,0,0,.49.83,5,5,0,0,0,1.65.55,14.86,14.86,0,0,1,1.95.52,3.22,3.22,0,0,1,2.46,3.13,3,3,0,0,1-1.36,2.57,5.84,5.84,0,0,1-3.52,1,6.13,6.13,0,0,1-2.6-.52,4.3,4.3,0,0,1-1.78-1.43,3.35,3.35,0,0,1-.64-2h2.94a1.62,1.62,0,0,0,.62,1.27,2.43,2.43,0,0,0,1.52.44,2.22,2.22,0,0,0,1.35-.34A1.06,1.06,0,0,0,417.75,94.79Z"/><path class="cls-5" d="M426.48,83.52v2.86h2v2.27h-2v5.8a1.38,1.38,0,0,0,.25.93,1.25,1.25,0,0,0,.94.28,4.81,4.81,0,0,0,.91-.08v2.35a6.2,6.2,0,0,1-1.88.28q-3.26,0-3.33-3.29V88.65h-1.69V86.38h1.69V83.52Z"/><path class="cls-5" d="M429.39,92.08a6.8,6.8,0,0,1,.67-3.08A4.86,4.86,0,0,1,432,86.9a5.67,5.67,0,0,1,2.91-.74,5.29,5.29,0,0,1,3.84,1.44,5.76,5.76,0,0,1,1.66,3.91l0,.8a6.1,6.1,0,0,1-1.49,4.29,5.8,5.8,0,0,1-8,0,6.16,6.16,0,0,1-1.5-4.38Zm3.11.22a4.28,4.28,0,0,0,.62,2.53,2.23,2.23,0,0,0,3.54,0,4.67,4.67,0,0,0,.64-2.77,4.21,4.21,0,0,0-.64-2.51,2.2,2.2,0,0,0-3.54,0A4.8,4.8,0,0,0,432.5,92.3Z"/><path class="cls-5" d="M448.84,89.29a8,8,0,0,0-1.11-.09,2.27,2.27,0,0,0-2.31,1.19V98h-3.11V86.38h2.94l.08,1.38a2.87,2.87,0,0,1,2.59-1.6,3.39,3.39,0,0,1,1,.14Z"/><path class="cls-5" d="M456.75,98a3.45,3.45,0,0,1-.31-1,3.77,3.77,0,0,1-2.93,1.25,4.16,4.16,0,0,1-2.83-1,3.19,3.19,0,0,1-1.13-2.5,3.29,3.29,0,0,1,1.37-2.83,6.8,6.8,0,0,1,4-1h1.43v-.67a2,2,0,0,0-.41-1.29,1.64,1.64,0,0,0-1.31-.48,1.86,1.86,0,0,0-1.23.38,1.26,1.26,0,0,0-.44,1h-3.11a3.13,3.13,0,0,1,.62-1.87,4.15,4.15,0,0,1,1.77-1.35,6.34,6.34,0,0,1,2.55-.49,5.05,5.05,0,0,1,3.41,1.08,3.76,3.76,0,0,1,1.27,3v5a5.5,5.5,0,0,0,.46,2.51V98Zm-2.57-2.16a2.62,2.62,0,0,0,1.27-.31,2,2,0,0,0,.86-.82v-2h-1.16c-1.55,0-2.38.54-2.48,1.62v.18a1.21,1.21,0,0,0,.41.95A1.57,1.57,0,0,0,454.18,95.84Z"/><path class="cls-5" d="M461.36,92.1a6.82,6.82,0,0,1,1.27-4.31,4.16,4.16,0,0,1,3.43-1.63,3.63,3.63,0,0,1,3,1.31l.13-1.09H472V97.61a5,5,0,0,1-.69,2.66,4.4,4.4,0,0,1-2,1.71,6.77,6.77,0,0,1-2.94.59,6.55,6.55,0,0,1-2.49-.5,4.46,4.46,0,0,1-1.84-1.32l1.37-1.89a3.68,3.68,0,0,0,2.82,1.3,2.66,2.66,0,0,0,1.92-.66,2.48,2.48,0,0,0,.69-1.88V97A3.6,3.6,0,0,1,466,98.21a4.11,4.11,0,0,1-3.39-1.64,6.8,6.8,0,0,1-1.29-4.34Zm3.1.23a4.25,4.25,0,0,0,.64,2.48,2,2,0,0,0,1.74.9,2.16,2.16,0,0,0,2-1.06v-4.9a2.16,2.16,0,0,0-2-1.06,2,2,0,0,0-1.76.91A4.83,4.83,0,0,0,464.46,92.33Z"/><path class="cls-5" d="M479.72,98.21a5.71,5.71,0,0,1-4.16-1.56A5.55,5.55,0,0,1,474,92.47v-.3a7.1,7.1,0,0,1,.68-3.14,5,5,0,0,1,1.91-2.12,5.37,5.37,0,0,1,2.83-.75,4.81,4.81,0,0,1,3.76,1.51,6.11,6.11,0,0,1,1.37,4.26V93.2h-7.4A2.86,2.86,0,0,0,478,95a2.76,2.76,0,0,0,1.92.69,3.36,3.36,0,0,0,2.81-1.3l1.52,1.71a4.59,4.59,0,0,1-1.89,1.54A6.18,6.18,0,0,1,479.72,98.21Zm-.36-9.55a1.92,1.92,0,0,0-1.49.63,3.21,3.21,0,0,0-.74,1.79h4.32v-.25a2.33,2.33,0,0,0-.56-1.6A2,2,0,0,0,479.36,88.66Z"/><path class="cls-5" d="M498,94.79a1,1,0,0,0-.56-.9,6.66,6.66,0,0,0-1.81-.59q-4.16-.87-4.15-3.52a3.18,3.18,0,0,1,1.29-2.58,5.16,5.16,0,0,1,3.35-1,5.58,5.58,0,0,1,3.54,1A3.28,3.28,0,0,1,501,89.91h-3.1a1.53,1.53,0,0,0-.43-1.1,2.25,2.25,0,0,0-2.56-.08,1.12,1.12,0,0,0-.43.9,1,1,0,0,0,.49.83,4.86,4.86,0,0,0,1.65.55,14.86,14.86,0,0,1,1.95.52,3.22,3.22,0,0,1,2.46,3.13,3,3,0,0,1-1.36,2.57,5.87,5.87,0,0,1-3.53,1,6.11,6.11,0,0,1-2.59-.52,4.24,4.24,0,0,1-1.78-1.43,3.28,3.28,0,0,1-.64-2h2.94a1.61,1.61,0,0,0,.61,1.27,2.46,2.46,0,0,0,1.53.44,2.24,2.24,0,0,0,1.35-.34A1,1,0,0,0,498,94.79Z"/><path class="cls-5" d="M508.4,98.21a5.72,5.72,0,0,1-4.16-1.56,5.59,5.59,0,0,1-1.61-4.18v-.3a7.1,7.1,0,0,1,.68-3.14,5,5,0,0,1,1.91-2.12,5.4,5.4,0,0,1,2.84-.75,4.79,4.79,0,0,1,3.75,1.51,6.11,6.11,0,0,1,1.37,4.26V93.2h-7.4a2.82,2.82,0,0,0,.91,1.82,2.72,2.72,0,0,0,1.91.69,3.36,3.36,0,0,0,2.81-1.3l1.52,1.71A4.59,4.59,0,0,1,511,97.66,6.15,6.15,0,0,1,508.4,98.21Zm-.35-9.55a1.93,1.93,0,0,0-1.5.63,3.21,3.21,0,0,0-.74,1.79h4.32v-.25a2.33,2.33,0,0,0-.56-1.6A2,2,0,0,0,508.05,88.66Z"/><path class="cls-5" d="M521.47,89.29a8,8,0,0,0-1.11-.09,2.27,2.27,0,0,0-2.31,1.19V98h-3.11V86.38h2.93l.09,1.38a2.87,2.87,0,0,1,2.59-1.6,3.39,3.39,0,0,1,1,.14Z"/><path class="cls-5" d="M527.51,94.21l2.16-7.83h3.24L529,98h-3l-3.92-11.62h3.24Z"/><path class="cls-5" d="M534.26,83.37a1.52,1.52,0,0,1,.46-1.15,1.77,1.77,0,0,1,1.28-.45,1.74,1.74,0,0,1,1.26.45,1.5,1.5,0,0,1,.48,1.15,1.52,1.52,0,0,1-.48,1.16,2,2,0,0,1-2.53,0A1.55,1.55,0,0,1,534.26,83.37ZM537.55,98h-3.11V86.38h3.11Z"/><path class="cls-5" d="M544.94,95.71a2.06,2.06,0,0,0,1.4-.47A1.65,1.65,0,0,0,546.9,94h2.91a4,4,0,0,1-.64,2.17,4.29,4.29,0,0,1-1.74,1.52,5.42,5.42,0,0,1-2.43.54,5,5,0,0,1-3.93-1.58,6.29,6.29,0,0,1-1.44-4.38v-.2a6.18,6.18,0,0,1,1.43-4.29,5,5,0,0,1,3.92-1.6,4.9,4.9,0,0,1,3.49,1.24,4.38,4.38,0,0,1,1.34,3.31H546.9a2.12,2.12,0,0,0-.56-1.48,2.06,2.06,0,0,0-3.05.23,4.54,4.54,0,0,0-.56,2.56v.32a4.64,4.64,0,0,0,.55,2.59A1.89,1.89,0,0,0,544.94,95.71Z"/><path class="cls-5" d="M556.93,98.21a5.72,5.72,0,0,1-4.16-1.56,5.59,5.59,0,0,1-1.61-4.18v-.3a7.1,7.1,0,0,1,.68-3.14,4.94,4.94,0,0,1,1.92-2.12,5.37,5.37,0,0,1,2.83-.75,4.79,4.79,0,0,1,3.75,1.51,6.06,6.06,0,0,1,1.37,4.26V93.2h-7.4a2.87,2.87,0,0,0,.91,1.82,2.72,2.72,0,0,0,1.92.69,3.34,3.34,0,0,0,2.8-1.3l1.53,1.71a4.72,4.72,0,0,1-1.89,1.54A6.22,6.22,0,0,1,556.93,98.21Zm-.35-9.55a1.93,1.93,0,0,0-1.5.63,3.28,3.28,0,0,0-.74,1.79h4.32v-.25a2.28,2.28,0,0,0-.56-1.6A2,2,0,0,0,556.58,88.66Z"/></g></g><path id="Path_40400" data-name="Path 40400" class="cls-7" d="M896,187H4.8c-2.65,0-4.8-1.79-4.8-4V138c0-2.21,2.15-4,4.8-4H896"/><g id="Group_33694" data-name="Group 33694"><g id="Group_33685" data-name="Group 33685"><path id="Path_40331" data-name="Path 40331" class="cls-8" d="M645,148.35c.09-13.18.23-26.37.25-39.55q.06-31.29,0-62.57c0-1-.13-2-.2-3,.15-.76.31-1.53.47-2.3,1.59-1.31,3-1.12,4.34.43a7.7,7.7,0,0,1,.53,5.38c-.1,1.53-.05,3-.06,4.58V61.58c0,.42,0,.84,0,1.27a10.23,10.23,0,0,1,.2,3.17,8.3,8.3,0,0,0-.1,3.18,28.84,28.84,0,0,1,0,8.4,15,15,0,0,0-.07,1.9c.36,1.45,0,2.9,0,4.35a10.71,10.71,0,0,0,.2,2.46,10.35,10.35,0,0,1-.17,3.09,14.61,14.61,0,0,0,.06,1.87,27,27,0,0,1,0,8.23,14.46,14.46,0,0,0-.07,1.86,11.29,11.29,0,0,1,.19,3.07,8.86,8.86,0,0,0-.18,2.41,10.6,10.6,0,0,1,0,4.2,15.25,15.25,0,0,0,0,1.79c.25,1.19-.12,2.37,0,3.55,0,.4,0,.79,0,1.19a10.73,10.73,0,0,1,0,4.15c0,.6,0,1.18,0,1.78a8.64,8.64,0,0,1,0,3.58,13.83,13.83,0,0,0,0,1.82,13,13,0,0,1,0,4.31,15,15,0,0,0,.09,1.9,33.36,33.36,0,0,1,.22,7.2,11.22,11.22,0,0,0-.25,3.37c.28,5.37,1.15,10.76-.6,16.06-1.66,1.57-3,.71-4.4-.48-.12-.78-.25-1.55-.37-2.33Z"/><path id="Path_40332" data-name="Path 40332" class="cls-9" d="M741.46,24.16a8.39,8.39,0,0,0,3.86-.1c9.35-1.12,18.48,1.06,27.7,1.92,13.5,1.27,27,2.85,40.46,4.36l7.95.89s-5.89.78-5.12.29c4.7-.92,14,.5,18.7,1.1,1.49.19,8,.83,9,2.17,1.44,1.35-1.89.07-.31-.2,2.87-.35-41-5.35-38.09-5.2,1.55.07,76.84,8.28,78,9.44,6,1.18-15-1.63-9-1.18a7.66,7.66,0,0,0,3.68.34l4.86.84c2.61.78,2.07,2.84,1.5,7.15-.33,2.49-.68,1.42-2.25,1.34-9.16-.52-19.45-1.3-28.58-2.22-13.25-1.34-26.49-2.77-39.73-4.17q-15.75-1.66-31.49-3.37c-10.87-1.17-21.74-2.35-32.62-3.4-4.26-.41-8.49-1-12.73-1.56-3.58-.45-4.41-1.5-4.43-5.23,0-3.89,1.74-3.58,5.73-4.19C740.18,22.78,740.59,22.7,741.46,24.16Z"/><path id="Path_40333" data-name="Path 40333" class="cls-10" d="M709.7,25.82l23.38-2.64c.87,2.55.3,5.16.38,7.75-1.47,2-3.81,2-5.88,2.56-9.89.9-19.76,2-29.62,3.27a14.75,14.75,0,0,1-4.87.08A100.89,100.89,0,0,0,675,38.92c-8.54,1.42-17.06,3-25.77,2.82-1.05-1.17-2.46-.66-3.74-.81-.07-1-.1-2-.23-3-.37-2.66.63-3.64,3.43-4,19.09-2.43,38.15-5.08,57.21-7.67"/><path id="Path_40334" data-name="Path 40334" class="cls-11" d="M733.07,31.09q0-4,0-7.91c.12-.14.07.16,0,0,1.82-1.41,36.42,1.21,37.67,3.58-3.06-.27-36.93-2.26-37,.85,0,3.4,1.73,3.33,4.23,3.58,10.46,1,20.9,2.36,31.35,3.52,7.84.87,15.7,1.62,23.54,2.46,11.08,1.19,22.15,2.42,33.22,3.6q11.21,1.2,22.42,2.35c10.59,1.06,21.18,2.16,31.79,3,1.2.1,3.59,2,3.95-.87.29-2.27,1.22-5.17-2.09-6.44,2.8-.65,3,1,3,3.16q-.08,25.79,0,51.57c0,1.37-.13,39.3.14,56.89.7,3.92-1.42,4.88-4.9,5.38q-57.3,8.25-114.57,16.77c-9.44,1.39-18.87,2.9-28.33,4.26-1.43.21-2.9.8-4.39.21-1.44-1.38-1.46-3.11-1.21-4.91-.14-1.62-.33-3.24-.33-4.88q0-65.09,0-130.16C731.59,35,731.33,32.79,733.07,31.09Z"/><path id="Path_40335" data-name="Path 40335" class="cls-12" d="M733.08,172.56l0,4.52c-12.46-1.53-24.93-3-37.38-4.58-15.45-1.95-30.88-4.1-46.34-5.92-3.69-.43-4.82-1.94-4-5.33l4.06.55c1.23-1.22,2.74-1,4.25-.85,19.68,2.54,39.38,4.85,59,7.53,5,.68,10,1.05,14.93,2C729.77,170.35,731.77,170.54,733.08,172.56Z"/><path id="Path_40336" data-name="Path 40336" class="cls-13" d="M727.7,171.67c-10.44-1.25-20.9-2.44-31.33-3.77-15.65-2-31.3-4.06-47-6.11q0-8.19,0-16.41a4.24,4.24,0,0,1,3.49-1.11c6.35,1,12.79.68,19.14,1.55,7.09,1,14.24,1.43,21.35,2,10,.8,20,1.93,30,2.49a6,6,0,0,1,4.88,3.15,2.68,2.68,0,0,1-.28,2.69c-1.89,1.52-4.15,1-6.18.8-9.47-1-19-1.7-28.43-2.74-10-1.1-20-1.67-29.9-3.09a12,12,0,0,0-1.7-.08c-1.2.16-.44.83-.69.4-.11-.21,0-.33.19-.33,3.62,0,7.2.55,10.79.88,8.86.8,17.7,1.67,26.55,2.5,9.23.86,18.44,1.94,27.7,2.61a3,3,0,0,1,2,1C729.73,162.7,730.56,167.27,727.7,171.67Z"/><path id="Path_40337" data-name="Path 40337" class="cls-14" d="M649.41,100V90.83c3.2-1.74,6.78-1.5,10.21-1.77a103.79,103.79,0,0,1,11.7-.06c14.6.42,29.15-1.2,43.74-.86,3.1.07,6.2-.9,9.36-.69,1.25.09,2.54-.1,3.6.83a3.9,3.9,0,0,1,.17,4.93,3.71,3.71,0,0,1-2.85.66c-9.93-.28-19.85.66-25.24.49,5.59,0,15.71-.74,25.85-.45a3.32,3.32,0,0,1,2.14.57,3.92,3.92,0,0,1,0,5,5.52,5.52,0,0,1-4.25,1.17,267,267,0,0,0-33.23-.12c-12.1.74-24.16.22-36.23.53C652.69,101.08,650.81,101.48,649.41,100Z"/><path id="Path_40338" data-name="Path 40338" class="cls-15" d="M649.41,77.92l0-9c2.49-3.27,6.44-2.32,9.45-2.34,10.19-.1,20.29-1.34,30.42-2,11.48-.76,23-.94,34.47-2.64,1.49-.22,3-.36,4.33.74a4,4,0,0,1,.13,4.87c-3.73,1.7-7.79,1.56-11.71,1.7-8.16.29-16.33.71-24.45,1.38-9.12.75-18.29.64-27.39,1.69-.74.09-1.68.44-2.07,0a34,34,0,0,0,6.14-.1c5-.71,10-.72,15-1,12.76-.82,25.54-1.3,38.27-2.51,2.09-.2,4.3-.54,6.16,1a3.94,3.94,0,0,1-.13,4.88,2.78,2.78,0,0,1-2.06.8c-5.54-.43-11,.87-16.53.84-12.66,0-25.28,1.32-38,1.73-5.56.18-11.28-.18-16.84,1.14C653,79.43,650.88,79.64,649.41,77.92Z"/><path id="Path_40339" data-name="Path 40339" class="cls-16" d="M649.46,142.47l-.05-7.68c1.48-1.73,3.56-1.4,5.3-1.06,6.72,1.31,13.53.39,20.29,1.28,10.7,1.4,21.55.92,32.28,2.23,5.35.64,10.8-.14,16.18.86,1.58.3,3.28,0,4.7,1.06a3.93,3.93,0,0,1,.05,4.79c-1.21,1.26-2.78,1.08-4.26.93-12.12-1.25-24.27-1.88-36.42-2.68-7.8-.51-15.59-1.32-23.4-1.9,7.89.55,15.76,1.57,23.63,1.87,11.06.43,22,1.88,33.11,2.16,2.33.06,5,.07,7.25,1.57a3.68,3.68,0,0,1,0,4.66c-3,.91-6,.15-8.92-.1-14.74-1.24-29.47-2.54-44.22-3.66-7.63-.57-15.23-1.6-22.89-1.84a2.41,2.41,0,0,1-2.64-2.17C649.47,142.68,649.46,142.58,649.46,142.47Z"/><path id="Path_40340" data-name="Path 40340" class="cls-17" d="M649.46,104.59l-.05-3.14c1.05-1,2.36-.75,3.59-.74,22.27.25,44.53-.64,66.79-.36,2.72,0,5.55-.17,8.05,1.38a3.4,3.4,0,0,1,.43,4.24,5.5,5.5,0,0,1-5.22,1.32,21.13,21.13,0,0,0-4.9-.17l-63.06,0C652.88,107.1,650.38,107.57,649.46,104.59Z"/><path id="Path_40341" data-name="Path 40341" class="cls-15" d="M649.41,127.19l0-3.8c1.25-1.47,3-1.08,4.57-1.11,13.29-.32,26.48,1.57,39.77,1.71,9.6.1,19.2,1.33,28.84,1.29,2,0,4.06-.07,5.59,1.61a3.62,3.62,0,0,1-.07,4.27c-5,1.92-10.22,1.2-15.2.65-5.86-.64-11.78-.91-17.58-1-14.05-.25-28-2.17-42.08-1.76A3.9,3.9,0,0,1,649.41,127.19Z"/><path id="Path_40342" data-name="Path 40342" class="cls-15" d="M649.45,66.07l-.05-3.16c3.39-2,7.26-1.46,10.9-1.83,12.81-1.3,25.66-2,38.5-2.94,9.69-.7,19.37-2.13,29.15-1.52a3.59,3.59,0,0,1,.29,4.69c-5.1,2-10.56,1.89-15.84,2.2-14,.84-27.95,2-41.91,3-5.87.44-11.76.48-17.6,1.22C651.56,67.92,649.68,68.48,649.45,66.07Z"/><path id="Path_40343" data-name="Path 40343" class="cls-15" d="M649.42,89.38l0-3.15c.6-2.08,2.18-2.55,4.1-2.53,9.28.12,18.53-.9,27.83-.86,13.91.06,27.78-1.88,41.72-1.41,1.73.06,3.55-.28,5,1a3.38,3.38,0,0,1-.11,4.2c-4.29,1.75-8.88,1.37-13.32,1.51-19.94.65-39.89,1-59.82,1.91C653.07,90.14,651.11,90.63,649.42,89.38Z"/><path id="Path_40344" data-name="Path 40344" class="cls-16" d="M649.42,133.1v-4.42a104.75,104.75,0,0,1,18.74.28c4.87.43,9.8.92,14.62,1,14,.36,27.87,2,41.84,2.08a4.05,4.05,0,0,1,3.65,1.56,3.47,3.47,0,0,1,0,3.52c-2.08,2.15-4.73,1.5-7.11,1.11a50,50,0,0,0-6.35-.53c-11.88-.42-23.72-1.54-35.59-2.14-6.12-.31-12.21-1.12-18.38-1A32,32,0,0,1,649.42,133.1Z"/><path id="Path_40345" data-name="Path 40345" class="cls-16" d="M649.41,116.48l0-3.72c2.69-3.24,6.37-1.89,9.52-1.61a79.72,79.72,0,0,0,9.77.49c12.58-.5,25.13.63,37.68,1,6.13.17,12.28.43,18.42.56A4.57,4.57,0,0,1,728,114a4,4,0,0,1,.21,5c-4.32,2-8.85.82-13.29.75-1,0-2-.49-3-.44-9.43.47-18.81-1.18-28.23-.77-10.19.44-20.31-.9-30.49-.8A5.35,5.35,0,0,1,649.41,116.48Z"/><path id="Path_40346" data-name="Path 40346" class="cls-16" d="M649.42,111.31l0-4.52c1-.87,2.18-.4,3.27-.4,22.29,0,44.57.57,66.86.4,3,0,6,.08,8.61,1.95a3,3,0,0,1-.13,3.59c-1.27,1.15-2.84.81-4.32.84-10,.25-19.94.09-29.84-.54-14.47-.91-28.94-.06-43.38-.92A2.81,2.81,0,0,1,649.42,111.31Z"/><path id="Path_40347" data-name="Path 40347" class="cls-18" d="M649.41,84V79.65c3.13-1.76,6.63-1,9.91-1.16,12.4-.74,24.82-1.18,37.23-1.76,9-.43,18.05-.75,27.06-1.34,1.47-.1,3-.33,4.35.77a3.1,3.1,0,0,1,.4,3.44c-1.32,1.81-3.17,2.17-5.3,2.21-21.58.39-43.13,1.48-64.68,2.57C655.41,84.53,652.36,84.91,649.41,84Z"/><path id="Path_40348" data-name="Path 40348" class="cls-19" d="M649.4,121.84v-4.48c5.11-1.16,10.24-.1,15.34.1s10.3.65,15.43.54c11-.23,21.85,1,32.8,1,3.84,0,7.73.75,11.64.64a4.29,4.29,0,0,1,3.56,1.8,3.08,3.08,0,0,1,0,3.45c-1.84,1.47-3.87.4-5.83.43-13,.27-25.89-1.15-38.86-1.27-10.66-.1-21.3-1.55-32-1.42A2.57,2.57,0,0,1,649.4,121.84Z"/><path id="Path_40349" data-name="Path 40349" class="cls-20" d="M727.61,76.57c-18.06.18-36.08,1.52-54.12,2.18q-12,.44-24.07.9V77.92l37.94-2c5-.28,10-.32,15-.74,8.38-.71,16.81-.7,25.22-1a1.39,1.39,0,0,1,.5,1.91A1.44,1.44,0,0,1,727.61,76.57Z"/><path id="Path_40350" data-name="Path 40350" class="cls-21" d="M649.24,41.74c2.9-2.41,6.56-1.4,9.83-2,5.15-1,10.45-1.27,15.68-1.85,1.92,1.84,1.34,4,.69,6.09-3.27,3.17-7.62,1.71-11.43,2.45a98.7,98.7,0,0,1-12.24,1.33,3.05,3.05,0,0,1-2.46-.56Z"/><path id="Path_40351" data-name="Path 40351" class="cls-22" d="M727.6,102.23c-26.05-1.47-52.13-.42-78.19-.79V100l78.19-.86a1.84,1.84,0,0,1,.62,2.53A1.73,1.73,0,0,1,727.6,102.23Z"/><path id="Path_40352" data-name="Path 40352" class="cls-23" d="M649.4,121.85c18,0,35.86,1.55,53.81,1.8,8.1.11,16.3-.11,24.39,1.1a1.37,1.37,0,0,1,.51,1.89,1.25,1.25,0,0,1-.51.51,41.06,41.06,0,0,0-5.2-.66c-14.33.07-28.59-1.46-42.9-1.81-10-.25-20-1.51-30.07-1.3Z"/><path id="Path_40353" data-name="Path 40353" class="cls-23" d="M649.42,89.38c16.54-.53,33.12-.66,49.63-1.76,9.52-.63,19.09.19,28.56-1.27a1.36,1.36,0,0,1,0,2.35c-23,.61-45.88,1.65-68.84,1.56-3.09,0-6.21.7-9.36.58Z"/><path id="Path_40354" data-name="Path 40354" class="cls-24" d="M727.58,134c-4-1.57-8.18-.92-12.24-1.27-11-1-22-.89-33-1.87s-22-1.21-32.94-2.16v-1.49a19.53,19.53,0,0,0,5.94.74c19.44.58,38.87,1.57,58.27,2.85,4.64.3,9.31.08,14,.1C728.78,131.92,728.79,133,727.58,134Z"/><path id="Path_40355" data-name="Path 40355" class="cls-24" d="M727.62,57c-4.35.46-8.68,1-13,1.36-18.48,1.33-37,2.5-55.44,4-3.25.26-6.48.56-9.74.64v-.82a2.92,2.92,0,0,1,1.92-1.86c9.59-1,19.21-1.71,28.8-2.65,13.22-1.3,26.47-2.18,39.69-3.54,2.73-.28,5.75-1.31,8.23,1.05A1.4,1.4,0,0,1,727.62,57Z"/><path id="Path_40356" data-name="Path 40356" class="cls-25" d="M649.42,133.1c11.21.83,22.46,1,33.65,2.21,5.46.62,11,0,16.51.85,7.67,1.2,15.51.31,23.21,1.53a10.1,10.1,0,0,0,4.8-.67c.95.76.92,1.53,0,2.31-11.08-.67-22.19-.87-33.24-2.15-5.22-.6-10.48-.19-15.75-.73-9.69-1-19.47-1.16-29.21-1.67Z"/><path id="Path_40357" data-name="Path 40357" class="cls-26" d="M649.42,111.31c13,0,26-.55,38.93.17,13.1.72,26.17.21,39.25.51a1.41,1.41,0,0,1,.51,1.92,1.36,1.36,0,0,1-.51.5c-11.55-.3-23.12-.17-34.64-1-10.05-.73-20.1-.25-30.13-.69-4.48-.19-8.94-1.51-13.4.05Z"/><path id="Path_40358" data-name="Path 40358" class="cls-27" d="M649.46,142.47a4,4,0,0,0,3.3,2.1c14.48,1,29,1.79,43.4,3.09,10.2.92,20.37,2,30.62,2.13.28,0,.55.48.82.73,1.15,1,1.2,2-.06,3-3.24-3.17-7.59-2.37-11.42-2.75-13.73-1.35-27.54-1.9-41.27-3.34-8.46-.89-16.94-1.4-25.42-2.08Z"/><path id="Path_40359" data-name="Path 40359" class="cls-28" d="M649.31,47.16c6.36-1.5,12.9-1.59,19.36-2.4a38.27,38.27,0,0,0,5.92-.88c2.48-1.47,5.34-1.49,8-1.65,3.4-.2,6.73-.65,10.07-1.16,5.75-1.5,11.71-1.46,17.56-2.24,4.23-.57,8.51-.88,12.76-1.38,1.76-.2,3.53-.29,5,.93a3.8,3.8,0,0,1,.26,4.67,1.72,1.72,0,0,1-1.82.51c-1.28-1.65-2.86-1.68-4.92-1.6-7.16.31-14.18,1.89-21.36,2-4.38.1-8.73,1-13,1.66-7.34,1.08-14.8.68-22,2.35-2.84.66-5.78.27-8.64.58-1.49.16-3.51,0-3.28,2.53-1.09,1.67-2.38,1.67-3.81.45Z"/><path id="Path_40360" data-name="Path 40360" class="cls-29" d="M649.41,84c4.09-.29,8.17,0,12.3-.48A180.94,180.94,0,0,1,682,82.57c13.82-.1,27.56-2,41.39-1.55,1.66,0,2.73-1.18,4.2-1.48,1.18,1,1.18,2,0,3h-9c-17.07,0-34.07,1.88-51.15,1.68-4.7-.05-9.5.56-14.26.56a5.72,5.72,0,0,0-3.77,1.41Z"/><path id="Path_40361" data-name="Path 40361" class="cls-30" d="M727.57,109a36.08,36.08,0,0,0-10-1.48c-13,0-25.92.47-38.84-.18-9.79-.49-19.56-.4-29.34-.56,0-.73.05-1.46.07-2.2,1.38,1.36,3.11,1.38,4.91,1.37q32.43,0,64.84.05h8.39C728.76,107,728.78,108,727.57,109Z"/><path id="Path_40362" data-name="Path 40362" class="cls-29" d="M727.56,121.81c-4.6-2.59-9.79-1.81-14.63-2-11.54-.44-23.08-.94-34.63-1.14-9.62-.17-19.26-1-28.9-1.32v-.88c4.63,0,9.3-.33,13.86.21,9.17,1.1,18.34.27,27.49.66,12.28.54,24.55,1.38,36.85,1.39C728.76,119.78,728.79,120.8,727.56,121.81Z"/><path id="Path_40363" data-name="Path 40363" class="cls-31" d="M726.24,43.09l1.37.12a1.2,1.2,0,0,1,.33,1.68.58.58,0,0,1-.11.15c-4.38,2.21-9.2,2.28-13.9,2.65-9,.71-18,1.72-26.94,2.62-11,1.1-22,2-32.9,3.38a5.9,5.9,0,0,1-3-.32,3,3,0,0,1-1.72-1.12.67.67,0,0,1,0-.67c1.21-.19,2.56.33,3.57-.77,1-1.38,2.55-1.39,4-1.57,16.4-2,32.88-3.46,49.3-5.34,5.34-.62,10.71-1,16-1.76A4.4,4.4,0,0,1,726.24,43.09Z"/><path id="Path_40364" data-name="Path 40364" class="cls-29" d="M649.46,66.07a3.15,3.15,0,0,0,3.3,1.32c17.17-2.12,34.48-2.55,51.69-4.27,7.68-.77,15.44-1.18,23.16-1.82a.93.93,0,0,1,.4,1.26,1,1,0,0,1-.4.39c-11.92,1.43-23.94,1.88-35.9,2.66-10,.66-20,1.9-30,1.89a54.46,54.46,0,0,0-12.27,1.4Z"/><path id="Path_40365" data-name="Path 40365" class="cls-28" d="M649.4,52.24l1.32.11c1.65,3,1.26,6,0,9l-1.3.75C649.39,58.81,649.4,55.53,649.4,52.24Z"/><path id="Path_40366" data-name="Path 40366" class="cls-32" d="M727.61,63V55.17c-.65-1.33-1.32-2.66-.94-4.22,0-.63,0-1.26,0-1.9-.2-1.52-.25-3,.89-4.23l0-1.61c0-1.45.06-2.91.1-4.36-1.45-2.09-1.88-4.16.08-6.19,1.42-1.69,3.37-1.54,5.28-1.57q.06,26.22.1,52.44,0,44.52-.1,89l-5.38-.88q0-6.7-.09-13.39a2,2,0,0,1,0-2.35l-.06-2.38c0-1,.05-2,.06-3v-4.31a2.12,2.12,0,0,1,0-2.51v-4.37c0-.77,0-1.54,0-2.31v-6.14l0-3.73v-2.4c0-1,0-2,0-2.94s0-2,0-3.07V112l0-3,0-3V94.74a1.69,1.69,0,0,1,0-1.71V79.54c0-1,0-2,0-3V69.83a2.09,2.09,0,0,1,0-2.51Z"/><path id="Path_40367" data-name="Path 40367" class="cls-21" d="M727.8,32.66l-.09,6.19c-6.51-.25-12.88,1.23-19.34,1.68-5.08.35-10.12,1.34-15.25,1.29-1.79-2.08-1.62-4.15,0-6.22,8-.86,16-1.82,24.05-2.54C720.72,32.75,724.22,31.39,727.8,32.66Z"/><path id="Path_40368" data-name="Path 40368" class="cls-21" d="M693.16,35.6c0,2.08,0,4.15,0,6.22-6,1.8-12.29,1.91-18.52,2.06l.15-6C680.77,36.19,687,35.86,693.16,35.6Z"/><path id="Path_40373" data-name="Path 40373" class="cls-33" d="M727.59,155.94c0,.78,0,1.57,0,2.35-9.26-.57-18.45-1.73-27.66-2.88-8.44-1.06-17-1.52-25.4-2.62-4.82-.62-9.75-.36-14.75-1.82,3.85-1,7.35.13,10.85.43,13.35,1.13,26.69,2.42,40,3.55C716.31,155.42,722,155.61,727.59,155.94Z"/><path id="Path_40374" data-name="Path 40374" class="cls-34" d="M727.6,93v1.71H694.18V94Z"/><path id="Path_40375" data-name="Path 40375" class="cls-33" d="M727.61,67.32v2.51c-18,.22-36,2.07-54.07,2.32-4,0-7.94.49-12-.06Z"/><path id="Path_40376" data-name="Path 40376" class="cls-33" d="M727.61,143.7v2.51c-10.85-1-21.68-2.36-32.55-2.89-7.78-.38-15.47-1.6-23.26-1.84a87.21,87.21,0,0,1-9.54-1c6.17-1.14,12.34-.19,18.37.54,6.39.77,12.78.34,19.17,1.09C709,143.15,718.33,143.2,727.61,143.7Z"/><path id="Path_40377" data-name="Path 40377" class="cls-14" d="M727.61,50.85c0,1.44,0,2.89,0,4.33-11.48.6-22.9,1.75-34.33,2.87-5.72.56-11.45,1.29-17.16,1.51-8.51.32-16.89,2.29-25.44,1.78-.86-3-.27-6,0-9,9.07-1,18.14-2,27.22-2.9,8.83-.88,17.68-1.63,26.52-2.45Q716,45.92,727.6,44.82c0,1.44,0,2.88,0,4.32-2.22,1.65-4.88.82-7.32,1.17-10.55,1.51-21.21,2-28.2,2.78,7.48-1,18.68-1.26,29.75-2.93C723.72,49.88,725.85,49.33,727.61,50.85Z"/><path id="Path_40378" data-name="Path 40378" class="cls-35" d="M726.24,43.09c-12.94,1.51-25.88,3.12-38.83,4.5-11.47,1.21-23,2.16-34.44,3.22-1-.31-2.6-.28-2.56-1.68s1.61-1.28,2.68-1.4c6.83-.76,13.65-1.59,20.5-2.2,7.85-.7,15.66-1.73,23.49-2.62q9.31-1.08,18.68-1.88a52.68,52.68,0,0,0,8.21-.86C727.06,39.43,727.24,40.75,726.24,43.09Z"/><path id="Path_40379" data-name="Path 40379" class="cls-27" d="M727.61,50.85c-10.87.38-21.67,1.64-32.49,2.62a28.65,28.65,0,0,1-8.62-.32l41.11-4Z"/></g><g id="layer1-2" data-name="layer1"><g class="cls-6"><g class="cls-36"><path class="cls-4" d="M685.42,35.13l-.26,0,.41,3.08.26,0,.15,0a.34.34,0,0,0,.12,0l.11,0,.07-.06.06-.08a1,1,0,0,0,0-.1.5.5,0,0,0,0-.13.59.59,0,0,0,0-.14,1,1,0,0,0,0-.18v-.23c0-.08,0-.17,0-.27s0-.2,0-.32a3.86,3.86,0,0,0-.07-.41,2.44,2.44,0,0,0-.08-.34,1.07,1.07,0,0,0-.09-.27.85.85,0,0,0-.1-.19l-.12-.13a1.19,1.19,0,0,0-.15-.09.47.47,0,0,0-.17,0,.6.6,0,0,0-.19,0m-3.39.45-.13,0a.44.44,0,0,0-.11.09.36.36,0,0,0-.08.12.87.87,0,0,0-.07.17,1.42,1.42,0,0,0,0,.22,2.53,2.53,0,0,0,0,.28c0,.1,0,.21,0,.33s0,.25,0,.38,0,.27.06.38a2.66,2.66,0,0,0,.08.33,2,2,0,0,0,.08.26c0,.07.07.14.1.2a1.71,1.71,0,0,0,.11.14.53.53,0,0,0,.12.1.38.38,0,0,0,.13.06h.14a.28.28,0,0,0,.13,0,.42.42,0,0,0,.12-.08.62.62,0,0,0,.09-.12,1.47,1.47,0,0,0,.07-.17c0-.06,0-.13,0-.22a2.53,2.53,0,0,0,0-.29c0-.1,0-.22,0-.36s0-.27,0-.42,0-.25-.06-.36,0-.21-.07-.31l-.09-.25c0-.07-.07-.13-.1-.19l-.11-.14-.13-.1-.12-.05H682m-3.4.37-.28,0,.16,1.17.24,0,.13,0,.11-.05.08-.06a.21.21,0,0,0,.06-.08.3.3,0,0,0,0-.1.3.3,0,0,0,0-.1.45.45,0,0,0,0-.11.57.57,0,0,0,0-.13.5.5,0,0,0,0-.12l0-.1,0-.1a.24.24,0,0,0-.06-.08L679,36a.19.19,0,0,0-.09,0l-.11,0h-.13m12.13-3.55h0l0,.18h.09v-.14l0,0h-.06m0,.56-.09-.65h.21l0,.06v.28h0l0,0,0,0h0v.06l.06.12h-.08l0-.1,0,0v0l0,0v0h-.06l0,.27h-.06m0-.85h0l0,0,0,0,0,0,0,0s0,0,0,.05l0,0v.06a.15.15,0,0,0,0,.07v.12s0,0,0,.07a.13.13,0,0,0,0,.06s0,0,0,.06,0,0,0,.06l0,.06,0,0,0,.05,0,0,0,0,0,0H691l0,0s0,0,0,0,0,0,0,0l0-.05a.43.43,0,0,1,0,0s0,0,0-.06v-.19a.2.2,0,0,0,0-.07.13.13,0,0,0,0-.06.13.13,0,0,0,0-.06s0,0,0-.06a.14.14,0,0,0,0-.06.14.14,0,0,1,0-.06l0,0,0,0,0,0,0,0,0,0h-.06m-12.83,8.16-.69-5.19,1.62-.26a1.14,1.14,0,0,1,.26,0,1,1,0,0,1,.23.05.75.75,0,0,1,.2.1.69.69,0,0,1,.18.16,1.07,1.07,0,0,1,.15.22,1.11,1.11,0,0,1,.12.27,2.42,2.42,0,0,1,.1.32,3.29,3.29,0,0,1,.07.36q0,.21,0,.39c0,.12,0,.24,0,.34a1.55,1.55,0,0,1-.06.31,1.71,1.71,0,0,1-.09.27,1.07,1.07,0,0,1-.15.22.74.74,0,0,1-.19.16.84.84,0,0,1-.23.12,1.27,1.27,0,0,1-.28.06l-.54.07.26,2-1,.1M680,33.55l-3.17.54.93,7,3.21-.31-1-7.27m2.65,6.39a1,1,0,0,1-.24,0,.85.85,0,0,1-.23,0l-.2-.07a1.18,1.18,0,0,1-.19-.11,1.19,1.19,0,0,1-.18-.15,1.75,1.75,0,0,1-.16-.2l-.16-.23c0-.09-.09-.18-.14-.29a2.37,2.37,0,0,1-.13-.32,3.07,3.07,0,0,1-.11-.36,2.71,2.71,0,0,1-.09-.41c0-.14-.05-.29-.08-.45s0-.43,0-.62a5.22,5.22,0,0,1,0-.56,3.85,3.85,0,0,1,0-.5,2.7,2.7,0,0,1,.12-.43,2.28,2.28,0,0,1,.17-.35,1,1,0,0,1,.23-.27,1,1,0,0,1,.27-.19,1.15,1.15,0,0,1,.33-.1,1.38,1.38,0,0,1,.35,0,.9.9,0,0,1,.32.09,1.66,1.66,0,0,1,.3.19,1.48,1.48,0,0,1,.26.29,2,2,0,0,1,.23.38,2.76,2.76,0,0,1,.19.46,4,4,0,0,1,.15.55,5.12,5.12,0,0,1,.11.63,3.8,3.8,0,0,1,.05.46c0,.15,0,.29,0,.42s0,.27,0,.39l0,.34q0,.16-.06.3a2.29,2.29,0,0,1-.09.28,1.6,1.6,0,0,1-.1.23,1.1,1.1,0,0,1-.14.21,1.22,1.22,0,0,1-.15.17l-.19.13-.2.08-.23,0m.81-7-3.38.58,1,7.27,3.43-.33-1-7.52m1.25,6.67L684,34.06l1.53-.24.22,0h.2l.19,0,.16.07.16.09.14.12.13.15a1.09,1.09,0,0,1,.13.17,1.18,1.18,0,0,1,.11.19,2.12,2.12,0,0,1,.11.21l.09.23.09.24c0,.09,0,.18.07.26l.06.27.06.28c0,.1,0,.2,0,.29s0,.3,0,.44l0,.38v.34a2.64,2.64,0,0,1,0,.29l0,.25-.06.23a1.72,1.72,0,0,1-.07.21,1.08,1.08,0,0,1-.08.19l-.09.17-.1.14-.11.11a.94.94,0,0,1-.12.09l-.16.08-.16.07-.15,0-.14,0-1.54.16m2.48-7.31-3.65.62,1,7.54,3.68-.35-1-7.81M690,38l.11,0,.1-.05.07-.07a.27.27,0,0,0,.07-.08s0-.07,0-.11l0-.1a.45.45,0,0,0,0-.11.49.49,0,0,0,0-.12.36.36,0,0,0,0-.11.49.49,0,0,0,0-.11.41.41,0,0,0-.05-.09l-.07-.09a.36.36,0,0,0-.09-.08L690,36.8l-.17-.06-.22-.06-.36-.1a1.81,1.81,0,0,1-.31-.13,1.61,1.61,0,0,1-.26-.15,1.29,1.29,0,0,1-.21-.19,1.73,1.73,0,0,1-.17-.21,2,2,0,0,1-.13-.25,2.47,2.47,0,0,1-.1-.29A3,3,0,0,1,688,35a1.64,1.64,0,0,1,0-.22V34.6c0-.07,0-.14,0-.21a1.42,1.42,0,0,1,.05-.22.76.76,0,0,1,.06-.2,1.51,1.51,0,0,1,.09-.18,1,1,0,0,1,.11-.17l.13-.15.16-.12.2-.11.23-.08.27-.06.33,0a1.39,1.39,0,0,1,.3,0,1.07,1.07,0,0,1,.27.09,1.14,1.14,0,0,1,.23.15,1.42,1.42,0,0,1,.2.22,1.89,1.89,0,0,1,.17.28,3,3,0,0,1,.14.36,4.21,4.21,0,0,1,.12.42l-1.07.26c0-.07,0-.13,0-.18l-.06-.16-.07-.12a.73.73,0,0,0-.08-.09.27.27,0,0,0-.08-.07l-.1,0a.18.18,0,0,0-.1,0h-.12l-.09,0-.07,0s-.05,0-.06,0a.18.18,0,0,0,0,.07.2.2,0,0,0,0,.08s0,.05,0,.08v.18a.64.64,0,0,1,0,.07.14.14,0,0,0,0,.06l0,.06,0,0s0,0,.06.05l.08,0,.12,0,.14,0,.36.08.31.09.26.1.21.1.17.12.15.14a1,1,0,0,1,.13.16.78.78,0,0,1,.11.18,1.14,1.14,0,0,1,.1.19l.07.21.06.22a2,2,0,0,1,0,.24l0,.28a7.33,7.33,0,0,1,0,.54l-.06.26a2.25,2.25,0,0,1-.08.24,2,2,0,0,1-.1.21l-.13.18a.75.75,0,0,1-.15.16,1.09,1.09,0,0,1-.17.13l-.2.1-.23.07-.26,0a3.16,3.16,0,0,1-.43,0,2,2,0,0,1-.37-.07A1.48,1.48,0,0,1,689,39a1,1,0,0,1-.24-.23,2.11,2.11,0,0,1-.2-.29,3.18,3.18,0,0,1-.16-.32c0-.12-.09-.24-.13-.37s-.07-.27-.1-.42l1-.23a1.05,1.05,0,0,0,0,.19.84.84,0,0,0,.05.17l.06.14.06.12.12.14.13.1.14,0a.43.43,0,0,0,.16,0m.91-4.78h-.07l0,0,0,0,0,0a.1.1,0,0,1,0-.05l0,0,0-.07,0-.07a.24.24,0,0,0,0-.08s0-.05,0-.07,0-.06,0-.08a.19.19,0,0,0,0-.08v-.16s0-.05,0-.08a.15.15,0,0,1,0-.07.14.14,0,0,1,0-.07.14.14,0,0,1,0-.06l0,0,0,0,0,0,0,0h.11l0,0,0,0,0,0,0,0,0,0,0,.07,0,.07a.24.24,0,0,0,0,.08.31.31,0,0,0,0,.08s0,0,0,.08,0,0,0,.08v.15a.19.19,0,0,1,0,.08.22.22,0,0,1,0,.08s0,0,0,.06a.14.14,0,0,0,0,.06l0,.05,0,0,0,0,0,0h0m.3-1.6-3.93.68,1,7.81,4-.38-1.08-8.11"/><path d="M687.19,32.32l0-.14.09,0,0,.15,3.93-.68,1.08,8.11-4,.38,0,.19h-.08l0-.19-3.68.35,0,.22h-.08l0-.23-3.43.33,0,.12H681l0-.12-3.21.31-.93-7,3.17-.54v-.08h.08v.08l3.38-.58v-.1l.08,0v.1l3.65-.62m4.15-1.12-14.7,2.57,1,7.72,14.85-1.37-1.18-8.92"/><path class="cls-5" d="M678.51,37.16,678.35,36l.28,0h.13l.11,0a.19.19,0,0,1,.09,0l.07.07a.24.24,0,0,1,.06.08l0,.1,0,.1a.5.5,0,0,1,0,.12.57.57,0,0,1,0,.13.45.45,0,0,1,0,.11.3.3,0,0,1,0,.1.3.3,0,0,1,0,.1.21.21,0,0,1-.06.08l-.08.06-.11.05-.13,0-.24,0m.35-2.34-1.62.26.69,5.19,1-.1-.26-2,.54-.07a1.27,1.27,0,0,0,.28-.06.84.84,0,0,0,.23-.12.74.74,0,0,0,.19-.16,1.07,1.07,0,0,0,.15-.22,1.71,1.71,0,0,0,.09-.27,1.55,1.55,0,0,0,.06-.31c0-.1,0-.22,0-.34s0-.25,0-.39a3.29,3.29,0,0,0-.07-.36,2.42,2.42,0,0,0-.1-.32,1.11,1.11,0,0,0-.12-.27,1.07,1.07,0,0,0-.15-.22.69.69,0,0,0-.18-.16.75.75,0,0,0-.2-.1,1,1,0,0,0-.23-.05,1.14,1.14,0,0,0-.26,0"/><path class="cls-5" d="M682.45,38.68h-.14a.38.38,0,0,1-.13-.06.53.53,0,0,1-.12-.1,1.71,1.71,0,0,1-.11-.14c0-.06-.07-.13-.1-.2a2,2,0,0,1-.08-.26,2.66,2.66,0,0,1-.08-.33c0-.11,0-.24-.06-.38s0-.26,0-.38,0-.23,0-.33a2.53,2.53,0,0,1,0-.28,1.42,1.42,0,0,1,0-.22.87.87,0,0,1,.07-.17.36.36,0,0,1,.08-.12.44.44,0,0,1,.11-.09l.13,0h.14l.12.05.13.1.11.14c0,.06.07.12.1.19l.09.25c0,.1,0,.2.07.31s0,.23.06.36,0,.29,0,.42,0,.26,0,.36a2.53,2.53,0,0,1,0,.29c0,.09,0,.16,0,.22a1.47,1.47,0,0,1-.07.17.62.62,0,0,1-.09.12.42.42,0,0,1-.12.08.28.28,0,0,1-.13,0m-.59-4.38a1.15,1.15,0,0,0-.33.1,1,1,0,0,0-.27.19,1,1,0,0,0-.23.27,2.28,2.28,0,0,0-.17.35,2.7,2.7,0,0,0-.12.43,3.85,3.85,0,0,0,0,.5,5.22,5.22,0,0,0,0,.56c0,.19,0,.4,0,.62s0,.31.08.45a2.71,2.71,0,0,0,.09.41,3.07,3.07,0,0,0,.11.36,2.37,2.37,0,0,0,.13.32c.05.11.09.2.14.29l.16.23a1.75,1.75,0,0,0,.16.2,1.19,1.19,0,0,0,.18.15,1.18,1.18,0,0,0,.19.11l.2.07a.85.85,0,0,0,.23,0,1,1,0,0,0,.24,0l.23,0,.2-.08.19-.13a1.22,1.22,0,0,0,.15-.17,1.1,1.1,0,0,0,.14-.21,1.6,1.6,0,0,0,.1-.23,2.29,2.29,0,0,0,.09-.28q0-.13.06-.3l0-.34c0-.12,0-.25,0-.39s0-.27,0-.42a3.8,3.8,0,0,0-.05-.46,5.12,5.12,0,0,0-.11-.63,4,4,0,0,0-.15-.55,2.76,2.76,0,0,0-.19-.46,2,2,0,0,0-.23-.38,1.48,1.48,0,0,0-.26-.29,1.66,1.66,0,0,0-.3-.19.9.9,0,0,0-.32-.09,1.38,1.38,0,0,0-.35,0"/><path class="cls-5" d="M685.57,38.25l-.41-3.08.26,0a.6.6,0,0,1,.19,0,.47.47,0,0,1,.17,0,1.19,1.19,0,0,1,.15.09l.12.13a.85.85,0,0,1,.1.19,1.07,1.07,0,0,1,.09.27,2.44,2.44,0,0,1,.08.34,3.86,3.86,0,0,1,.07.41c0,.12,0,.22,0,.32s0,.19,0,.27v.23a1,1,0,0,1,0,.18.59.59,0,0,1,0,.14.5.5,0,0,1,0,.13,1,1,0,0,1,0,.1l-.06.08-.07.06-.11,0a.34.34,0,0,1-.12,0l-.15,0-.26,0m-.07-4.43-1.53.24.74,5.57,1.54-.16.14,0,.15,0,.16-.07.16-.08a.94.94,0,0,0,.12-.09l.11-.11.1-.14.09-.17a1.08,1.08,0,0,0,.08-.19,1.72,1.72,0,0,0,.07-.21l.06-.23,0-.25a2.64,2.64,0,0,0,0-.29v-.34l0-.38c0-.14,0-.28,0-.44s0-.19,0-.29l-.06-.28-.06-.27c0-.08,0-.17-.07-.26l-.09-.24-.09-.23a2.12,2.12,0,0,0-.11-.21,1.18,1.18,0,0,0-.11-.19,1.09,1.09,0,0,0-.13-.17l-.13-.15-.14-.12-.16-.09-.16-.07-.19,0h-.2l-.22,0"/><path class="cls-5" d="M689.32,33.1l-.27.06-.23.08-.2.11-.16.12-.13.15a1,1,0,0,0-.11.17,1.51,1.51,0,0,0-.09.18.76.76,0,0,0-.06.2,1.42,1.42,0,0,0-.05.22c0,.07,0,.14,0,.21v.22a1.64,1.64,0,0,0,0,.22,3,3,0,0,0,.06.32,2.47,2.47,0,0,0,.1.29,2,2,0,0,0,.13.25,1.73,1.73,0,0,0,.17.21,1.29,1.29,0,0,0,.21.19,1.61,1.61,0,0,0,.26.15,1.81,1.81,0,0,0,.31.13l.36.1.22.06.17.06.14.07a.36.36,0,0,1,.09.08l.07.09a.41.41,0,0,1,.05.09.49.49,0,0,1,0,.11.36.36,0,0,1,0,.11.49.49,0,0,1,0,.12.45.45,0,0,1,0,.11l0,.1s0,.07,0,.11a.27.27,0,0,1-.07.08l-.07.07-.1.05L690,38a.43.43,0,0,1-.16,0l-.14,0-.13-.1-.12-.14-.06-.12-.06-.14a.84.84,0,0,1-.05-.17,1.05,1.05,0,0,1,0-.19l-1,.23c0,.15.06.29.1.42s.08.25.13.37a3.18,3.18,0,0,0,.16.32,2.11,2.11,0,0,0,.2.29A1,1,0,0,0,689,39a1.48,1.48,0,0,0,.31.15,2,2,0,0,0,.37.07,3.16,3.16,0,0,0,.43,0l.26,0,.23-.07.2-.1a1.09,1.09,0,0,0,.17-.13.75.75,0,0,0,.15-.16l.13-.18a2,2,0,0,0,.1-.21,2.25,2.25,0,0,0,.08-.24l.06-.26a7.33,7.33,0,0,0,0-.54l0-.28a2,2,0,0,0,0-.24l-.06-.22-.07-.21a1.14,1.14,0,0,0-.1-.19.78.78,0,0,0-.11-.18,1,1,0,0,0-.13-.16l-.15-.14-.17-.12-.21-.1-.26-.1-.31-.09-.36-.08-.14,0-.12,0-.08,0s-.05,0-.06-.05l0,0,0-.06a.14.14,0,0,1,0-.06.64.64,0,0,0,0-.07v-.18s0-.06,0-.08a.2.2,0,0,1,0-.08.18.18,0,0,1,0-.07s0,0,.06,0l.07,0,.09,0h.12a.18.18,0,0,1,.1,0l.1,0a.27.27,0,0,1,.08.07.73.73,0,0,1,.08.09l.07.12.06.16s0,.11,0,.18l1.07-.26a4.21,4.21,0,0,0-.12-.42,3,3,0,0,0-.14-.36,1.89,1.89,0,0,0-.17-.28,1.42,1.42,0,0,0-.2-.22,1.14,1.14,0,0,0-.23-.15,1.07,1.07,0,0,0-.27-.09,1.39,1.39,0,0,0-.3,0l-.33,0"/><path d="M680.07,33.46H680v.08l1,7.27,0,.12h.07l0-.12-1-7.27v-.08m3.46-.62-.08,0V33l1,7.52,0,.23h.08l0-.22-1-7.54v-.1m3.73-.68-.09,0,0,.14,1,7.81,0,.19h.08l0-.19-1-7.81,0-.15"/><path class="cls-5" d="M690.76,32.58l0-.18h.08l0,0v.14h-.09m.06-.3h-.16l.09.65h.06l0-.27h.06v0l0,0v0l0,0,0,.1H691L691,32.8v-.06h0l0,0,0,0h0v-.28l0-.06h0m.08.83h-.09l0,0,0,0,0,0,0-.05,0,0,0-.06s0,0,0-.06,0,0,0-.06a.13.13,0,0,1,0-.06s0,0,0-.07v-.12a.15.15,0,0,1,0-.07v-.06l0,0s0,0,0-.05l0,0,0,0,0,0,0,0h.08l0,0,0,0,0,0,0,0,0,0a.14.14,0,0,0,0,.06.14.14,0,0,1,0,.06s0,0,0,.06a.13.13,0,0,1,0,.06.13.13,0,0,1,0,.06.2.2,0,0,1,0,.07v.19s0,0,0,.06a.43.43,0,0,0,0,0l0,.05s0,0,0,0,0,0,0,0l0,0h-.05M690.75,32h0l0,0,0,0,0,0,0,0a.14.14,0,0,0,0,.06.14.14,0,0,0,0,.07.15.15,0,0,0,0,.07s0,0,0,.08v.16a.19.19,0,0,1,0,.08s0,.05,0,.08,0,0,0,.07a.24.24,0,0,1,0,.08l0,.07,0,.07,0,0a.1.1,0,0,0,0,.05l0,0,0,0,0,0H691l0,0,0,0,0,0,0-.05a.14.14,0,0,1,0-.06s0,0,0-.06a.22.22,0,0,0,0-.08.19.19,0,0,0,0-.08v-.15s0-.06,0-.08,0-.06,0-.08a.31.31,0,0,1,0-.08.24.24,0,0,1,0-.08l0-.07,0-.07,0,0,0,0,0,0,0,0,0,0h-.07"/></g></g></g></g><g id="Group_33693" data-name="Group 33693"><g id="Group_33689" data-name="Group 33689"><g id="Path_40443" data-name="Path 40443"><path class="cls-37" d="M124.88,74.26c0-8.69,0-12.88,0-21.57l0-25.54,0-19.43c0-2.57,0-5.15,0-7.72H22.13c0,2.57,0,5.15,0,7.72l0,19.43,0,25.54c0,8.69,0,12.88,0,21.57,0,7,0,7.26,0,14.26,0,3.93,0,7.64,1.86,11.2a36.18,36.18,0,0,0,6.39,8.13l8.65,9.07,18.28,19.17c3,3.09,6.28,6.91,10.52,8.25a23,23,0,0,0,5.71.94h.08a23.11,23.11,0,0,0,5.72-.94c4.24-1.34,7.57-5.16,10.52-8.25L108,116.92q4.32-4.55,8.65-9.07a36.76,36.76,0,0,0,6.39-8.13c1.85-3.57,1.86-7.27,1.86-11.2C124.9,81.52,124.89,81.26,124.88,74.26Z"/></g></g><g class="cls-6"><g class="cls-6"><path class="cls-5" d="M37.13,48.5H32.68V41.34H45.14V74.19h-8Z"/><path class="cls-5" d="M63.05,40.67c9.36,0,12.65,7,12.65,16.65S72.41,74.06,63.05,74.06,50.41,67,50.41,57.32,53.69,40.67,63.05,40.67Zm0,7.2c-4.54,0-5.08,4.41-5.08,9.45,0,5.22.54,9.54,5.08,9.54s5.09-4.32,5.09-9.54C68.14,52.28,67.6,47.87,63.05,47.87Z"/><path class="cls-5" d="M86.63,42c4.28,0,7.47,2.61,7.47,7.6s-3.19,7.61-7.47,7.61-7.51-2.61-7.51-7.61S82.36,42,86.63,42Zm-2.2,7.6c0,2.12.81,3.06,2.16,3.06s2.2-.94,2.2-3.06-.85-3.1-2.2-3.1S84.43,47.46,84.43,49.62Zm17.82-7.11h7.42L92.35,74.19H84.92Zm5.75,17c4.28,0,7.47,2.56,7.47,7.6s-3.19,7.61-7.47,7.61-7.46-2.61-7.46-7.61S103.73,59.48,108,59.48Zm-2.2,7.6c0,2.12.81,3.06,2.16,3.06s2.2-.94,2.2-3.06S109.31,64,108,64,105.8,65,105.8,67.08Z"/></g></g><g id="OFF" class="cls-6"><g class="cls-6"><path class="cls-5" d="M62.13,105.06A7.91,7.91,0,1,1,70,97.14,7.77,7.77,0,0,1,62.13,105.06Zm0-3.43c2.46,0,4.07-1.78,4.07-4.49s-1.61-4.49-4.07-4.49S58,94.39,58,97.14,59.62,101.63,62.13,101.63Z"/><path class="cls-5" d="M72.12,89.46h10v3H75.88v3.26h4.71v2.93H75.88v6.25H72.12Z"/><path class="cls-5" d="M84.15,89.46h10v3H87.91v3.26h4.71v2.93H87.91v6.25H84.15Z"/></g></g><g id="Recommended_" data-name="Recommended " class="cls-6"><g class="cls-6"><path class="cls-5" d="M34.84,14.28c1.89,0,2.84,1.09,2.84,2.43A2.24,2.24,0,0,1,36,18.94L37.74,22H35.62L34,19.08h-.45V22H31.68V14.28Zm-.11,1.56H33.56v1.91h1.17c.7,0,1-.36,1-1S35.43,15.84,34.73,15.84Z"/><path class="cls-5" d="M43.58,15.78H40.74v1.57h2.51V18.8H40.74v1.69h2.84V22H38.85V14.28h4.73Z"/><path class="cls-5" d="M48.37,14.19A3.58,3.58,0,0,1,52,16.89H50a1.69,1.69,0,0,0-1.61-1,2,2,0,0,0-2,2.23,2,2,0,0,0,2,2.22,1.69,1.69,0,0,0,1.61-1H52a3.57,3.57,0,0,1-3.66,2.69,3.73,3.73,0,0,1-3.88-3.92A3.75,3.75,0,0,1,48.37,14.19Z"/><path class="cls-5" d="M56.84,22.08a4,4,0,1,1,3.95-4A3.88,3.88,0,0,1,56.84,22.08Zm0-1.72a2,2,0,0,0,2-2.24,2,2,0,1,0-4.08,0A2,2,0,0,0,56.84,20.36Z"/><path class="cls-5" d="M61.83,14.28h2.22l2.17,5.34,2.15-5.34h2.21V22H68.7V17.37L67,22H65.45l-1.74-4.64V22H61.83Z"/><path class="cls-5" d="M71.93,14.28h2.22l2.17,5.34,2.15-5.34h2.21V22H78.8V17.37L77.07,22H75.55l-1.74-4.64V22H71.93Z"/><path class="cls-5" d="M86.76,15.78H83.91v1.57h2.52V18.8H83.91v1.69h2.85V22H82V14.28h4.73Z"/><path class="cls-5" d="M94.89,14.28V22H93l-3.15-4.76V22H88V14.28h1.88L93,19.06V14.28Z"/><path class="cls-5" d="M103.19,18.14a3.73,3.73,0,0,1-4,3.86H96.25V14.28h2.89A3.73,3.73,0,0,1,103.19,18.14ZM99,20.37a2,2,0,0,0,2.26-2.23A2.07,2.07,0,0,0,99,15.88h-.89v4.49Z"/><path class="cls-5" d="M109,15.78h-2.85v1.57h2.52V18.8h-2.52v1.69H109V22h-4.73V14.28H109Z"/><path class="cls-5" d="M117.14,18.14a3.73,3.73,0,0,1-4,3.86H110.2V14.28h2.89A3.73,3.73,0,0,1,117.14,18.14ZM113,20.37a2,2,0,0,0,2.26-2.23A2.07,2.07,0,0,0,113,15.88h-.89v4.49Z"/></g></g></g><g id="Button"><g id="Base-2"><path class="cls-5" d="M248.73,158.5H150c-1.38,0-2.51-1.57-2.51-3.5V125c0-1.93,1.13-3.5,2.51-3.5h98.72c1.39,0,2.51,1.57,2.51,3.5v30C251.24,156.93,250.12,158.5,248.73,158.5Z"/><path class="cls-38" d="M150,122c-1.09,0-2,1.37-2,3v30c0,1.63.92,3,2,3h98.72c1.09,0,2-1.37,2-3V125c0-1.63-.92-3-2-3H150m0-1h98.72c1.66,0,3,1.79,3,4v30c0,2.21-1.35,4-3,4H150c-1.66,0-3-1.79-3-4V125C147,122.79,148.35,121,150,121Z"/></g><g id="bOOK_nOW" data-name="bOOK nOW" class="cls-6"><g class="cls-6"><path class="cls-38" d="M168.07,145.32v-10h3.41a4.17,4.17,0,0,1,2.57.68,2.37,2.37,0,0,1,.88,2,2.14,2.14,0,0,1-.37,1.23,2.34,2.34,0,0,1-1.08.85,2.17,2.17,0,0,1,1.25.82,2.35,2.35,0,0,1,.44,1.45,2.65,2.65,0,0,1-.9,2.16,3.88,3.88,0,0,1-2.57.75Zm1.73-5.76h1.7a2,2,0,0,0,1.26-.37,1.48,1.48,0,0,0,0-2.1,2.12,2.12,0,0,0-1.31-.33H169.8Zm0,1.27v3.11h1.92a1.85,1.85,0,0,0,1.27-.41,1.39,1.39,0,0,0,.46-1.12,1.42,1.42,0,0,0-1.59-1.58Z"/><path class="cls-38" d="M176.43,141.55a4.34,4.34,0,0,1,.43-2,3.21,3.21,0,0,1,1.21-1.34,3.44,3.44,0,0,1,1.79-.47,3.24,3.24,0,0,1,2.43,1,3.79,3.79,0,0,1,1,2.56v.39a4.4,4.4,0,0,1-.42,2,3.06,3.06,0,0,1-1.21,1.33,3.36,3.36,0,0,1-1.8.47,3.2,3.2,0,0,1-2.51-1,4,4,0,0,1-.94-2.78Zm1.66.15a3,3,0,0,0,.47,1.78,1.56,1.56,0,0,0,1.32.65,1.53,1.53,0,0,0,1.31-.66,3.32,3.32,0,0,0,.46-1.92,3,3,0,0,0-.48-1.78,1.55,1.55,0,0,0-1.31-.65,1.52,1.52,0,0,0-1.29.64A3.26,3.26,0,0,0,178.09,141.7Z"/><path class="cls-38" d="M184.4,141.55a4.48,4.48,0,0,1,.43-2,3.21,3.21,0,0,1,1.21-1.34,3.44,3.44,0,0,1,1.79-.47,3.24,3.24,0,0,1,2.43,1,3.74,3.74,0,0,1,1,2.56v.39a4.4,4.4,0,0,1-.42,2,3.1,3.1,0,0,1-1.2,1.33,3.42,3.42,0,0,1-1.81.47,3.2,3.2,0,0,1-2.51-1,4,4,0,0,1-.94-2.78Zm1.66.15a3,3,0,0,0,.47,1.78,1.56,1.56,0,0,0,1.32.65,1.53,1.53,0,0,0,1.31-.66,3.32,3.32,0,0,0,.46-1.92,3,3,0,0,0-.48-1.78,1.55,1.55,0,0,0-1.31-.65,1.52,1.52,0,0,0-1.29.64A3.26,3.26,0,0,0,186.06,141.7Z"/><path class="cls-38" d="M195.09,142.15l-.74.75v2.42h-1.66v-10.5h1.66v6.05l.52-.64,2-2.31h2L196.16,141l3,4.32h-1.92Z"/><path class="cls-38" d="M211.53,145.32H209.8l-4.43-7.06v7.06h-1.73v-10h1.73l4.45,7.09v-7.09h1.71Z"/><path class="cls-38" d="M213.11,141.55a4.34,4.34,0,0,1,.43-2,3.15,3.15,0,0,1,1.21-1.34,3.41,3.41,0,0,1,1.79-.47,3.24,3.24,0,0,1,2.43,1,3.79,3.79,0,0,1,1,2.56v.39a4.4,4.4,0,0,1-.42,2,3.1,3.1,0,0,1-1.2,1.33,3.39,3.39,0,0,1-1.81.47,3.17,3.17,0,0,1-2.5-1,4,4,0,0,1-.94-2.78Zm1.66.15a2.92,2.92,0,0,0,.47,1.78,1.53,1.53,0,0,0,1.31.65,1.51,1.51,0,0,0,1.31-.66,3.32,3.32,0,0,0,.47-1.92,3,3,0,0,0-.48-1.78,1.55,1.55,0,0,0-1.31-.65,1.51,1.51,0,0,0-1.29.64A3.26,3.26,0,0,0,214.77,141.7Z"/><path class="cls-38" d="M227.89,143l1.17-5.11h1.62l-2,7.4H227.3l-1.59-5.08-1.56,5.08h-1.36l-2-7.4h1.62l1.2,5.05,1.52-5.05h1.25Z"/></g></g></g><g id="layer1-3" data-name="layer1"><g class="cls-6"><g class="cls-39"><path class="cls-4" d="M830.44,91.64h-.87v8.93l.86,0,.5,0,.42-.07a1.8,1.8,0,0,0,.35-.12.93.93,0,0,0,.26-.15,1.45,1.45,0,0,0,.22-.21,1.52,1.52,0,0,0,.19-.28,2.53,2.53,0,0,0,.16-.33,3.93,3.93,0,0,0,.14-.41,4.11,4.11,0,0,0,.12-.5c0-.19.06-.4.08-.64s0-.49,0-.76,0-.58,0-.91,0-.82,0-1.19-.06-.69-.11-1a6,6,0,0,0-.18-.78,2.88,2.88,0,0,0-.25-.58,2,2,0,0,0-.34-.42,1.84,1.84,0,0,0-.43-.3,2.07,2.07,0,0,0-.53-.18,2.45,2.45,0,0,0-.62-.07m-12-.29a1.63,1.63,0,0,0-.5.06,1.61,1.61,0,0,0-.44.21,1.76,1.76,0,0,0-.39.34,2.67,2.67,0,0,0-.35.49,4,4,0,0,0-.27.65,5.77,5.77,0,0,0-.2.84c0,.3-.09.65-.12,1s0,.77,0,1.2,0,.82,0,1.19.07.71.12,1a5.62,5.62,0,0,0,.2.83,4,4,0,0,0,.27.65,3,3,0,0,0,.35.48,2.13,2.13,0,0,0,.39.35,1.69,1.69,0,0,0,.46.2,1.43,1.43,0,0,0,.51.06,1.81,1.81,0,0,0,.52-.07,1.83,1.83,0,0,0,.85-.56,2.44,2.44,0,0,0,.33-.47,4.13,4.13,0,0,0,.26-.66,7.2,7.2,0,0,0,.19-.87c0-.32.08-.68.11-1.08s0-.83,0-1.3,0-.76,0-1.1-.07-.66-.12-.94a5.05,5.05,0,0,0-.2-.79,2.6,2.6,0,0,0-.27-.63,2.93,2.93,0,0,0-.34-.48,1.83,1.83,0,0,0-.85-.56,1.7,1.7,0,0,0-.51-.07m-13.73-.57-1.23,0v3.89h1.06a3.52,3.52,0,0,0,.58,0,2.4,2.4,0,0,0,.48-.1,2.27,2.27,0,0,0,.39-.16,1.37,1.37,0,0,0,.29-.24,1.23,1.23,0,0,0,.22-.29,1.2,1.2,0,0,0,.16-.32,1.9,1.9,0,0,0,.09-.36,2.58,2.58,0,0,0,0-.4,2.38,2.38,0,0,0,0-.39c0-.13,0-.25-.08-.37s-.09-.22-.14-.33-.12-.2-.19-.3a1.24,1.24,0,0,0-.26-.25,1.82,1.82,0,0,0-.37-.18,2,2,0,0,0-.45-.11,3.28,3.28,0,0,0-.56,0m42.57-4h-.06v.46h.24l0-.08,0-.13,0-.12,0-.09h-.18M847,88.25V86.52h.45l0,0,0,0,0,0,.08.17s0,0,0,.06,0,0,0,.06v.21a.28.28,0,0,1,0,.09.24.24,0,0,1,0,.08.14.14,0,0,1,0,.06.16.16,0,0,1,0,.06.1.1,0,0,1,0,0l0,0,0,0,.06.07.05.14v.06l0,.06,0,.09.09.35h-.2l-.06-.29a.84.84,0,0,1,0-.12l0-.11a.64.64,0,0,0,0-.07l0,0s0,0,0,0l0,0,0,0h-.07v.72H847m.34-2.16a.22.22,0,0,0-.08,0l-.07,0-.08,0-.07.08a.35.35,0,0,0-.07.09l-.06.11s0,.08-.05.12l0,.14,0,.16,0,.17s0,.11,0,.16v.34c0,.06,0,.11,0,.17s0,.1,0,.16,0,.1,0,.16,0,.1,0,.14l.06.13.06.12a.61.61,0,0,0,.07.1.23.23,0,0,0,.07.07s.05,0,.07.06l.08,0h.16l.07,0,.08-.05.07-.07a.86.86,0,0,0,.07-.1l.06-.11a.5.5,0,0,0,.05-.13s0-.09,0-.14l0-.16,0-.16s0-.1,0-.16,0-.11,0-.17,0-.11,0-.17,0-.11,0-.16l0-.17a.94.94,0,0,0,0-.16s0-.1,0-.14l-.06-.13a.24.24,0,0,0-.06-.11l-.06-.1-.08-.08a.18.18,0,0,0-.07-.05.11.11,0,0,0-.07,0h-.08m-48.31,18.7V87.11l7.22.15a7,7,0,0,1,1.08.11,4.48,4.48,0,0,1,.94.28,3.94,3.94,0,0,1,.78.44,3.7,3.7,0,0,1,.64.61,4.07,4.07,0,0,1,.5.77,4.91,4.91,0,0,1,.35.91,8.13,8.13,0,0,1,.21,1.05,9,9,0,0,1,.07,1.2,9.37,9.37,0,0,1-.08,1.22,6,6,0,0,1-.23,1.09,5.6,5.6,0,0,1-.38.94,4,4,0,0,1-.54.8,3.91,3.91,0,0,1-.7.65,4,4,0,0,1-.87.47,6.2,6.2,0,0,1-1,.28,7.69,7.69,0,0,1-1.21.1h-2.36v6.5l-4.39.1M811.66,84l-13.86-.41v24.07l13.86-.41V84m6.9,20.84a6.66,6.66,0,0,1-.9,0,5.4,5.4,0,0,1-.82-.15,4.33,4.33,0,0,1-.74-.27,4,4,0,0,1-.66-.39,4.77,4.77,0,0,1-.6-.51,5.82,5.82,0,0,1-.54-.65,7.36,7.36,0,0,1-.48-.78,9.8,9.8,0,0,1-.42-.92,9.42,9.42,0,0,1-.34-1.06,9.83,9.83,0,0,1-.24-1.18,12.76,12.76,0,0,1-.15-1.31c0-.46,0-.93,0-1.43a17.72,17.72,0,0,1,.1-2,12.62,12.62,0,0,1,.29-1.74,10.68,10.68,0,0,1,.48-1.51,8.06,8.06,0,0,1,.68-1.27,6,6,0,0,1,.85-1,4.55,4.55,0,0,1,1-.7,4.68,4.68,0,0,1,1.14-.41,5.78,5.78,0,0,1,1.27-.11,5.37,5.37,0,0,1,1.3.17,4.66,4.66,0,0,1,1.13.44,4.49,4.49,0,0,1,1,.72,5.8,5.8,0,0,1,.81,1,7.1,7.1,0,0,1,.63,1.23,8.79,8.79,0,0,1,.46,1.45,13.55,13.55,0,0,1,.27,1.67q.09.9.09,1.89c0,.49,0,1,0,1.39a12.25,12.25,0,0,1-.12,1.26c0,.4-.11.78-.19,1.13s-.18.69-.28,1-.23.6-.36.88a7.16,7.16,0,0,1-.42.78,6.11,6.11,0,0,1-.5.69,6.37,6.37,0,0,1-.57.59,4.7,4.7,0,0,1-.64.46,3.77,3.77,0,0,1-.73.35,4.83,4.83,0,0,1-1.68.3m6.27-20.44L812,84v23.23l12.87-.39V84.37m1.23,20V87.86l5.2.11a5.27,5.27,0,0,1,.71,0,5.8,5.8,0,0,1,.65.12,4.77,4.77,0,0,1,.57.2,2.57,2.57,0,0,1,.49.27,3.61,3.61,0,0,1,.44.33,3.87,3.87,0,0,1,.4.41,4.06,4.06,0,0,1,.36.46,5.74,5.74,0,0,1,.32.53c.1.19.19.38.28.58l.24.62c.07.22.13.44.19.67s.11.47.15.71.09.5.12.75.06.51.08.77,0,.52,0,.78,0,.54,0,.81c0,.43,0,.83,0,1.21s0,.74-.08,1.07-.07.64-.12.93a7.71,7.71,0,0,1-.18.79c-.06.23-.14.46-.21.68s-.17.42-.26.62a5.12,5.12,0,0,1-.3.57,5.9,5.9,0,0,1-.69,1,4.36,4.36,0,0,1-.38.37,3.27,3.27,0,0,1-.39.29,3.84,3.84,0,0,1-.4.21c-.19.08-.37.14-.55.2l-.52.15a4.91,4.91,0,0,1-.5.1l-.47,0-5.2.13m11.1-19.6-12-.36v22.43l12-.36V84.74m6,16.38a1.12,1.12,0,0,0,.32,0,1.4,1.4,0,0,0,.29-.09,1,1,0,0,0,.24-.16,1,1,0,0,0,.21-.21l.16-.26a1.59,1.59,0,0,0,.12-.27c0-.1,0-.2.07-.3a3,3,0,0,0,0-.31c0-.1,0-.2,0-.3a2.86,2.86,0,0,0-.07-.28,1.19,1.19,0,0,0-.11-.26,1.28,1.28,0,0,0-.15-.25,1.36,1.36,0,0,0-.24-.24,2.13,2.13,0,0,0-.35-.22,5.18,5.18,0,0,0-.47-.23l-.59-.21c-.36-.12-.69-.25-1-.38a7.51,7.51,0,0,1-.85-.45,6.16,6.16,0,0,1-.69-.51,4.81,4.81,0,0,1-.54-.57,3.91,3.91,0,0,1-.4-.65,4.55,4.55,0,0,1-.3-.72,6.6,6.6,0,0,1-.17-.82,6.33,6.33,0,0,1-.06-.89,5.88,5.88,0,0,1,0-.6,5.58,5.58,0,0,1,.09-.59q.06-.28.15-.57a5.2,5.2,0,0,1,.21-.55,4.11,4.11,0,0,1,.27-.51,3.72,3.72,0,0,1,.33-.45,3.55,3.55,0,0,1,.38-.4,3.72,3.72,0,0,1,.45-.33,3.6,3.6,0,0,1,.52-.26,5.26,5.26,0,0,1,.6-.18,5,5,0,0,1,.69-.1,6.66,6.66,0,0,1,.78,0A6.82,6.82,0,0,1,844,88a5.18,5.18,0,0,1,.82.22,3.26,3.26,0,0,1,.69.37,2.79,2.79,0,0,1,.58.5,3.11,3.11,0,0,1,.47.64,6.14,6.14,0,0,1,.36.81,7.43,7.43,0,0,1,.25,1,9.37,9.37,0,0,1,.15,1.13l-3,.24a3.34,3.34,0,0,0-.08-.49,2.58,2.58,0,0,0-.11-.42,2.32,2.32,0,0,0-.14-.35,1.48,1.48,0,0,0-.17-.28,1.45,1.45,0,0,0-.22-.21.82.82,0,0,0-.25-.16,1.31,1.31,0,0,0-.28-.09,1.66,1.66,0,0,0-.33,0l-.26,0-.23.07a.78.78,0,0,0-.2.11.75.75,0,0,0-.16.15,2,2,0,0,0-.12.19,1,1,0,0,0-.09.21,1.55,1.55,0,0,0-.06.23,2,2,0,0,0,0,.25,1.09,1.09,0,0,0,0,.18,1.16,1.16,0,0,0,0,.18,1.19,1.19,0,0,0,.08.16.86.86,0,0,0,.1.16,1.06,1.06,0,0,0,.15.15l.23.15.32.15.38.14c.36.11.68.23,1,.35s.58.23.83.34l.68.35c.2.12.37.24.52.35a5.14,5.14,0,0,1,.42.38A4.1,4.1,0,0,1,847,96a4.37,4.37,0,0,1,.23.49,5.52,5.52,0,0,1,.18.53c.05.19.09.37.13.56a5.93,5.93,0,0,1,.07.59c0,.21,0,.41,0,.62s0,.5,0,.74-.06.47-.11.7a5.2,5.2,0,0,1-.17.68,3.91,3.91,0,0,1-.24.65,5.55,5.55,0,0,1-.29.6,4,4,0,0,1-.36.52,2.52,2.52,0,0,1-.41.45,4.22,4.22,0,0,1-.46.38,4.4,4.4,0,0,1-.52.3,5.31,5.31,0,0,1-.6.22,4.15,4.15,0,0,1-.65.13,4.23,4.23,0,0,1-.73.06,6.91,6.91,0,0,1-1.23-.07,4.52,4.52,0,0,1-1-.26,3.2,3.2,0,0,1-.83-.47,2.87,2.87,0,0,1-.63-.67,6.49,6.49,0,0,1-.47-.82,7.81,7.81,0,0,1-.35-.93,8.08,8.08,0,0,1-.24-1c-.06-.36-.1-.75-.13-1.15l3.13-.32c0,.19,0,.37.07.53s0,.32.08.47.08.27.12.39a2.52,2.52,0,0,0,.14.33,2.46,2.46,0,0,0,.28.41,1.28,1.28,0,0,0,.33.29,1.46,1.46,0,0,0,.38.18,2,2,0,0,0,.44.05M847.38,89h-.1l-.1,0-.09-.07-.09-.09-.08-.12a1,1,0,0,1-.08-.14s-.05-.11-.07-.17a1,1,0,0,1,0-.18c0-.07,0-.13-.05-.2l0-.2a1.5,1.5,0,0,0,0-.2v-.42a1.49,1.49,0,0,0,0-.21,1.42,1.42,0,0,1,0-.2,1.29,1.29,0,0,1,0-.19l.06-.19.06-.16.08-.13L847,86l.09-.08.1-.07.09,0h.1l.09,0,.1,0,.09.07.09.1a.44.44,0,0,1,.08.11.64.64,0,0,1,.08.14l.06.17s0,.12.06.18a1.42,1.42,0,0,1,0,.2,1.18,1.18,0,0,1,0,.2c0,.06,0,.13,0,.2v.42c0,.07,0,.14,0,.21l0,.19c0,.07,0,.13-.05.2a1.21,1.21,0,0,1,0,.18.77.77,0,0,1-.07.16s0,.09-.07.13l-.09.12a.38.38,0,0,1-.09.09l-.09.07-.09,0h-.1m1.34-3.93-11.3-.33v21.7l11.3-.34v-21"/><path d="M837.16,84.74v-.39h.26v.4l11.3.33v21l-11.3.34V107h-.26v-.53l-12,.36v.67h-.28v-.67l-12.87.39v.39h-.3v-.39l-13.86.41V83.56l13.86.41v-.23h.3V84l12.87.39v-.3h.28v.3l12,.36m12.05-.68-52.05-1.71v26.49l52.05-1.71V84.06"/><path class="cls-5" d="M803.46,94.65V90.76l1.23,0a3.28,3.28,0,0,1,.56,0,2,2,0,0,1,.45.11,1.82,1.82,0,0,1,.37.18,1.24,1.24,0,0,1,.26.25c.07.1.13.2.19.3s.1.22.14.33.06.24.08.37a2.38,2.38,0,0,1,0,.39,2.58,2.58,0,0,1,0,.4,1.9,1.9,0,0,1-.09.36,1.2,1.2,0,0,1-.16.32,1.23,1.23,0,0,1-.22.29,1.37,1.37,0,0,1-.29.24,2.27,2.27,0,0,1-.39.16,2.4,2.4,0,0,1-.48.1,3.52,3.52,0,0,1-.58,0h-1.06m2.83-7.39-7.22-.15v17.68l4.39-.1v-6.5h2.36a7.69,7.69,0,0,0,1.21-.1,6.2,6.2,0,0,0,1-.28,4,4,0,0,0,.87-.47,3.91,3.91,0,0,0,.7-.65,4,4,0,0,0,.54-.8,5.6,5.6,0,0,0,.38-.94,6,6,0,0,0,.23-1.09,9.37,9.37,0,0,0,.08-1.22,9,9,0,0,0-.07-1.2,8.13,8.13,0,0,0-.21-1.05,4.91,4.91,0,0,0-.35-.91,4.07,4.07,0,0,0-.5-.77,3.7,3.7,0,0,0-.64-.61,3.94,3.94,0,0,0-.78-.44,4.48,4.48,0,0,0-.94-.28,7,7,0,0,0-1.08-.11"/><path class="cls-5" d="M818.45,100.93a1.43,1.43,0,0,1-.51-.06,1.69,1.69,0,0,1-.46-.2,2.13,2.13,0,0,1-.39-.35,3,3,0,0,1-.35-.48,4,4,0,0,1-.27-.65,5.62,5.62,0,0,1-.2-.83c0-.3-.09-.64-.12-1s0-.76,0-1.19,0-.83,0-1.2.07-.72.12-1a5.77,5.77,0,0,1,.2-.84,4,4,0,0,1,.27-.65,2.67,2.67,0,0,1,.35-.49,1.76,1.76,0,0,1,.39-.34,1.61,1.61,0,0,1,.44-.21,1.63,1.63,0,0,1,.5-.06,1.7,1.7,0,0,1,.51.07,1.83,1.83,0,0,1,.85.56,2.93,2.93,0,0,1,.34.48,2.6,2.6,0,0,1,.27.63,5.05,5.05,0,0,1,.2.79c0,.28.09.6.12.94s0,.71,0,1.1,0,.9,0,1.3-.06.76-.11,1.08a7.2,7.2,0,0,1-.19.87,4.13,4.13,0,0,1-.26.66,2.44,2.44,0,0,1-.33.47,1.83,1.83,0,0,1-.85.56,1.81,1.81,0,0,1-.52.07m0-13.52a5.78,5.78,0,0,0-1.27.11,4.68,4.68,0,0,0-1.14.41,4.55,4.55,0,0,0-1,.7,6,6,0,0,0-.85,1,8.06,8.06,0,0,0-.68,1.27,10.68,10.68,0,0,0-.48,1.51,12.62,12.62,0,0,0-.29,1.74,17.72,17.72,0,0,0-.1,2c0,.5,0,1,0,1.43a12.76,12.76,0,0,0,.15,1.31,9.83,9.83,0,0,0,.24,1.18,9.42,9.42,0,0,0,.34,1.06,9.8,9.8,0,0,0,.42.92,7.36,7.36,0,0,0,.48.78,5.82,5.82,0,0,0,.54.65,4.77,4.77,0,0,0,.6.51,4,4,0,0,0,.66.39,4.33,4.33,0,0,0,.74.27,5.4,5.4,0,0,0,.82.15,6.66,6.66,0,0,0,.9,0,4.83,4.83,0,0,0,1.68-.3,3.77,3.77,0,0,0,.73-.35,4.7,4.7,0,0,0,.64-.46,6.37,6.37,0,0,0,.57-.59,6.11,6.11,0,0,0,.5-.69,7.16,7.16,0,0,0,.42-.78c.13-.28.25-.57.36-.88s.2-.65.28-1,.14-.73.19-1.13a12.25,12.25,0,0,0,.12-1.26c0-.44,0-.9,0-1.39q0-1-.09-1.89a13.55,13.55,0,0,0-.27-1.67,8.79,8.79,0,0,0-.46-1.45,7.1,7.1,0,0,0-.63-1.23,5.8,5.8,0,0,0-.81-1,4.49,4.49,0,0,0-1-.72,4.66,4.66,0,0,0-1.13-.44,5.37,5.37,0,0,0-1.3-.17"/><path class="cls-5" d="M829.57,100.56V91.63h.87a2.45,2.45,0,0,1,.62.07,2.07,2.07,0,0,1,.53.18,1.84,1.84,0,0,1,.43.3,2,2,0,0,1,.34.42,2.88,2.88,0,0,1,.25.58,6,6,0,0,1,.18.78c.05.29.08.62.11,1s0,.76,0,1.19,0,.63,0,.91,0,.53,0,.76,0,.45-.08.64a4.11,4.11,0,0,1-.12.5,3.93,3.93,0,0,1-.14.41,2.53,2.53,0,0,1-.16.33,1.52,1.52,0,0,1-.19.28,1.45,1.45,0,0,1-.22.21.93.93,0,0,1-.26.15,1.8,1.8,0,0,1-.35.12l-.42.07-.5,0-.86,0M831.26,88l-5.2-.11v16.48l5.2-.13.47,0a4.91,4.91,0,0,0,.5-.1l.52-.15c.18-.06.36-.12.55-.2a3.84,3.84,0,0,0,.4-.21,3.27,3.27,0,0,0,.39-.29,4.36,4.36,0,0,0,.38-.37,5.9,5.9,0,0,0,.69-1,5.12,5.12,0,0,0,.3-.57c.09-.2.18-.41.26-.62s.15-.45.21-.68a7.71,7.71,0,0,0,.18-.79q.07-.43.12-.93c0-.33.06-.69.08-1.07s0-.78,0-1.21c0-.27,0-.54,0-.81s0-.53,0-.78,0-.52-.08-.77-.07-.5-.12-.75-.09-.48-.15-.71-.12-.45-.19-.67l-.24-.62c-.09-.2-.18-.39-.28-.58a5.74,5.74,0,0,0-.32-.53,4.06,4.06,0,0,0-.36-.46,3.87,3.87,0,0,0-.4-.41,3.61,3.61,0,0,0-.44-.33,2.57,2.57,0,0,0-.49-.27,4.77,4.77,0,0,0-.57-.2A5.8,5.8,0,0,0,832,88a5.27,5.27,0,0,0-.71,0"/><path class="cls-5" d="M843.06,87.94a6.66,6.66,0,0,0-.78,0,5,5,0,0,0-.69.1,5.26,5.26,0,0,0-.6.18,3.6,3.6,0,0,0-.52.26,3.72,3.72,0,0,0-.45.33,3.55,3.55,0,0,0-.38.4,3.72,3.72,0,0,0-.33.45,4.11,4.11,0,0,0-.27.51,5.2,5.2,0,0,0-.21.55q-.09.29-.15.57a5.58,5.58,0,0,0-.09.59,5.88,5.88,0,0,0,0,.6,6.33,6.33,0,0,0,.06.89,6.6,6.6,0,0,0,.17.82,4.55,4.55,0,0,0,.3.72,3.91,3.91,0,0,0,.4.65,4.81,4.81,0,0,0,.54.57,6.16,6.16,0,0,0,.69.51,7.51,7.51,0,0,0,.85.45c.3.13.63.26,1,.38l.59.21a5.18,5.18,0,0,1,.47.23,2.13,2.13,0,0,1,.35.22,1.36,1.36,0,0,1,.24.24,1.28,1.28,0,0,1,.15.25,1.19,1.19,0,0,1,.11.26,2.86,2.86,0,0,1,.07.28c0,.1,0,.2,0,.3a3,3,0,0,1,0,.31c0,.1,0,.2-.07.3a1.59,1.59,0,0,1-.12.27l-.16.26a1,1,0,0,1-.21.21,1,1,0,0,1-.24.16,1.4,1.4,0,0,1-.29.09,1.12,1.12,0,0,1-.32,0,2,2,0,0,1-.44-.05,1.46,1.46,0,0,1-.38-.18,1.28,1.28,0,0,1-.33-.29,2.46,2.46,0,0,1-.28-.41,2.52,2.52,0,0,1-.14-.33q-.06-.18-.12-.39c0-.15-.06-.3-.08-.47s-.05-.34-.07-.53l-3.13.32c0,.4.07.79.13,1.15a8.08,8.08,0,0,0,.24,1,7.81,7.81,0,0,0,.35.93,6.49,6.49,0,0,0,.47.82,2.87,2.87,0,0,0,.63.67,3.2,3.2,0,0,0,.83.47,4.52,4.52,0,0,0,1,.26,6.91,6.91,0,0,0,1.23.07,4.23,4.23,0,0,0,.73-.06,4.15,4.15,0,0,0,.65-.13,5.31,5.31,0,0,0,.6-.22,4.4,4.4,0,0,0,.52-.3,4.22,4.22,0,0,0,.46-.38,2.52,2.52,0,0,0,.41-.45,4,4,0,0,0,.36-.52,5.55,5.55,0,0,0,.29-.6,3.91,3.91,0,0,0,.24-.65,5.2,5.2,0,0,0,.17-.68c0-.23.08-.46.11-.7s0-.49,0-.74,0-.41,0-.62a5.93,5.93,0,0,0-.07-.59c0-.19-.08-.37-.13-.56a5.52,5.52,0,0,0-.18-.53A4.37,4.37,0,0,0,847,96a4.1,4.1,0,0,0-.66-.86,5.14,5.14,0,0,0-.42-.38c-.15-.11-.32-.23-.52-.35l-.68-.35c-.25-.11-.52-.23-.83-.34s-.62-.24-1-.35l-.38-.14-.32-.15-.23-.15a1.06,1.06,0,0,1-.15-.15.86.86,0,0,1-.1-.16,1.19,1.19,0,0,1-.08-.16,1.16,1.16,0,0,1,0-.18,1.09,1.09,0,0,1,0-.18,2,2,0,0,1,0-.25,1.55,1.55,0,0,1,.06-.23,1,1,0,0,1,.09-.21,2,2,0,0,1,.12-.19.75.75,0,0,1,.16-.15.78.78,0,0,1,.2-.11l.23-.07.26,0a1.66,1.66,0,0,1,.33,0,1.31,1.31,0,0,1,.28.09.82.82,0,0,1,.25.16,1.45,1.45,0,0,1,.22.21,1.48,1.48,0,0,1,.17.28,2.32,2.32,0,0,1,.14.35,2.58,2.58,0,0,1,.11.42,3.34,3.34,0,0,1,.08.49l3-.24a9.37,9.37,0,0,0-.15-1.13,7.43,7.43,0,0,0-.25-1,6.14,6.14,0,0,0-.36-.81,3.11,3.11,0,0,0-.47-.64,2.79,2.79,0,0,0-.58-.5,3.26,3.26,0,0,0-.69-.37A5.18,5.18,0,0,0,844,88a6.82,6.82,0,0,0-.94-.09"/><path d="M812,83.75h-.3v23.87h.3V83.75m13.15.33h-.28v23.42h.28V84.08m12.31.27h-.26V107h.26V84.35"/><path class="cls-5" d="M847.2,87.27v-.46h.24l0,.09,0,.12,0,.13,0,.08h-.24m0-.74H847v1.73h.16v-.72h.07l0,0,0,0s0,0,0,0l0,0a.64.64,0,0,1,0,.07l0,.11a.84.84,0,0,0,0,.12l.06.29h.2l-.09-.35,0-.09,0-.06v-.06l-.05-.14-.06-.07,0,0,0,0a.1.1,0,0,0,0,0,.16.16,0,0,0,0-.06.14.14,0,0,0,0-.06.24.24,0,0,0,0-.08.28.28,0,0,0,0-.09V86.9s0,0,0-.06,0,0,0-.06l-.08-.17,0,0,0,0,0,0h-.29m.18,2.16h-.08l-.08,0s-.05,0-.07-.06a.23.23,0,0,1-.07-.07.61.61,0,0,1-.07-.1L847,88.3l-.06-.13s0-.09,0-.14,0-.11,0-.16,0-.11,0-.16,0-.11,0-.17V87.2s0-.11,0-.16l0-.17,0-.16,0-.14s0-.09.05-.12l.06-.11a.35.35,0,0,1,.07-.09l.07-.08.08,0,.07,0a.22.22,0,0,1,.08,0h.08a.11.11,0,0,1,.07,0,.18.18,0,0,1,.07.05l.08.08.06.1a.24.24,0,0,1,.06.11l.06.13s0,.09,0,.14a.94.94,0,0,1,0,.16l0,.17c0,.05,0,.11,0,.16s0,.12,0,.17,0,.12,0,.17,0,.11,0,.16l0,.16,0,.16s0,.1,0,.14a.5.5,0,0,1-.05.13l-.06.11a.86.86,0,0,1-.07.1l-.07.07-.08.05-.07,0h-.08m0-2.93h-.1l-.09,0-.1.07L847,86l-.08.12-.08.13-.06.16-.06.19a1.29,1.29,0,0,0,0,.19,1.42,1.42,0,0,0,0,.2,1.49,1.49,0,0,1,0,.21v.42a1.5,1.5,0,0,1,0,.2l0,.2c0,.07,0,.13.05.2a1,1,0,0,0,0,.18c0,.06.05.12.07.17a1,1,0,0,0,.08.14l.08.12.09.09.09.07.1,0h.2l.09,0,.09-.07a.38.38,0,0,0,.09-.09l.09-.12s0-.08.07-.13a.77.77,0,0,0,.07-.16,1.21,1.21,0,0,0,0-.18c0-.07,0-.13.05-.2l0-.19c0-.07,0-.14,0-.21v-.42c0-.07,0-.14,0-.2a1.18,1.18,0,0,0,0-.2,1.42,1.42,0,0,0,0-.2c0-.06,0-.13-.06-.18l-.06-.17a.64.64,0,0,0-.08-.14.44.44,0,0,0-.08-.11l-.09-.1-.09-.07-.1,0-.09,0"/></g></g></g></g></g></svg>