<svg width="32" height="32" viewBox="0 0 32 32" fill="none" xmlns="http://www.w3.org/2000/svg">
<path d="M15.2037 0.375757C15.1013 0.375616 14.9999 0.395699 14.9053 0.434847C14.8107 0.473995 14.7248 0.53144 14.6525 0.603886L1.93683 13.3195V10.5208C1.93683 10.3136 1.85451 10.1149 1.708 9.96834C1.56149 9.82183 1.36278 9.73951 1.15558 9.73951C0.948375 9.73951 0.749663 9.82183 0.60315 9.96834C0.456637 10.1149 0.374325 10.3136 0.374325 10.5208V15.2033C0.374844 15.3058 0.396098 15.4072 0.43682 15.5014C0.495343 15.6441 0.594994 15.7662 0.723094 15.8521C0.851193 15.938 1.00195 15.9839 1.1562 15.9839H5.8387C6.0459 15.9839 6.24461 15.9016 6.39112 15.7551C6.53764 15.6085 6.61995 15.4098 6.61995 15.2026C6.61995 14.9954 6.53764 14.7967 6.39112 14.6502C6.24461 14.5037 6.0459 14.4214 5.8387 14.4214H3.03995L15.7562 1.70889C15.8656 1.59971 15.9401 1.46053 15.9703 1.30897C16.0005 1.1574 15.985 1.00028 15.9259 0.857515C15.8667 0.714748 15.7665 0.592755 15.6379 0.506992C15.5094 0.42123 15.3582 0.375553 15.2037 0.375757V0.375757Z" fill="#333333"/>
<path d="M30.8135 1.93652H24.5704C24.3633 1.93652 24.1648 2.01877 24.0184 2.16517C23.872 2.31156 23.7897 2.51011 23.7897 2.71714V6.61903H19.8878C19.7853 6.61903 19.6838 6.63922 19.5891 6.67845C19.4944 6.71768 19.4083 6.77517 19.3359 6.84766C19.2634 6.92015 19.2059 7.00621 19.1666 7.10092C19.1274 7.19563 19.1072 7.29713 19.1072 7.39965V11.3015H15.2054C14.9983 11.3015 14.7998 11.3838 14.6534 11.5302C14.507 11.6766 14.4247 11.8751 14.4247 12.0821V15.984H10.5229C10.3158 15.984 10.1173 16.0663 9.97087 16.2127C9.82447 16.3591 9.74222 16.5576 9.74222 16.7647V20.6665H5.83848C5.63145 20.6665 5.43289 20.7488 5.28649 20.8952C5.1401 21.0416 5.05785 21.2401 5.05785 21.4471V25.349H1.15598C0.949159 25.3492 0.750862 25.4314 0.60462 25.5777C0.458377 25.7239 0.376142 25.9222 0.375977 26.129V30.8115C0.375977 31.0186 0.458224 31.2171 0.60462 31.3635C0.751016 31.5099 0.949563 31.5921 1.1566 31.5921H30.8135C31.0205 31.5921 31.2191 31.5099 31.3655 31.3635C31.5119 31.2171 31.5941 31.0186 31.5941 30.8115V2.71714C31.5941 2.51011 31.5119 2.31156 31.3655 2.16517C31.2191 2.01877 31.0205 1.93652 30.8135 1.93652ZM30.0328 30.0309H1.93848V26.909H5.84035C6.04738 26.909 6.24594 26.8268 6.39234 26.6804C6.53873 26.534 6.62098 26.3354 6.62098 26.1284V22.2265H10.5229C10.6254 22.2265 10.7269 22.2063 10.8216 22.1671C10.9163 22.1279 11.0024 22.0704 11.0748 21.9979C11.1473 21.9254 11.2048 21.8393 11.2441 21.7446C11.2833 21.6499 11.3035 21.5484 11.3035 21.4459V17.544H15.2054C15.4124 17.544 15.6109 17.4618 15.7573 17.3154C15.9037 17.169 15.986 16.9704 15.986 16.7634V12.8615H19.8878C19.9904 12.8615 20.0919 12.8413 20.1866 12.8021C20.2813 12.7629 20.3673 12.7054 20.4398 12.6329C20.5123 12.5604 20.5698 12.4743 20.6091 12.3796C20.6483 12.2849 20.6685 12.1834 20.6685 12.0809V8.17903H24.5704C24.7774 8.17903 24.9759 8.09678 25.1223 7.95038C25.2687 7.80399 25.351 7.60543 25.351 7.3984V3.49902H30.0335L30.0328 30.0309Z" fill="#333333"/>
</svg>
