<svg width="40" height="33" viewBox="0 0 40 33" fill="none" xmlns="http://www.w3.org/2000/svg">
<path d="M2.90789 29.4058H4.88926C5.01605 30.3632 5.48638 31.2419 6.21272 31.8784C6.93906 32.5149 7.87192 32.8658 8.83768 32.8658C9.80344 32.8658 10.7363 32.5149 11.4626 31.8784C12.189 31.2419 12.6593 30.3632 12.7861 29.4058H27.6183C27.7451 30.3632 28.2154 31.2419 28.9417 31.8784C29.6681 32.5149 30.6009 32.8658 31.5667 32.8658C32.5325 32.8658 33.4653 32.5149 34.1917 31.8784C34.918 31.2419 35.3883 30.3632 35.5151 29.4058H37.4965C38.1599 29.405 38.7959 29.141 39.2649 28.6718C39.7339 28.2026 39.9976 27.5665 39.9981 26.9031V18.0522C39.998 18.021 39.995 17.9899 39.9891 17.9594C39.9895 17.9569 39.9895 17.9544 39.9891 17.9519C39.983 17.9213 39.9742 17.8913 39.9626 17.8623C39.9617 17.8592 39.9606 17.8562 39.9594 17.8533C39.9473 17.8242 39.9326 17.7964 39.9154 17.77L39.9111 17.7626C39.8925 17.7343 39.8712 17.7078 39.8475 17.6836L34.2322 12.0158C34.0201 11.8023 33.7679 11.6327 33.4902 11.5168C33.2124 11.4008 32.9146 11.3408 32.6136 11.3401H24.4176V3.01475C24.4169 2.35149 24.1531 1.7156 23.6841 1.2466C23.2152 0.777607 22.5793 0.513817 21.916 0.513115L2.90789 0.513115C2.24463 0.513817 1.60873 0.777607 1.13974 1.2466C0.670742 1.7156 0.406952 2.35149 0.40625 3.01475L0.40625 26.9036C0.406952 27.5669 0.670725 28.2029 1.13971 28.672C1.60869 29.1411 2.24458 29.405 2.90789 29.4058ZM31.5662 31.813C30.9862 31.8128 30.4192 31.6406 29.9371 31.3183C29.4549 30.9959 29.0792 30.5378 28.8574 30.0018C28.6355 29.4659 28.5776 28.8763 28.6909 28.3074C28.8042 27.7386 29.0836 27.2161 29.4938 26.806C29.904 26.396 30.4266 26.1168 30.9955 26.0037C31.5643 25.8906 32.154 25.9488 32.6898 26.1708C33.2256 26.3928 33.6836 26.7687 34.0058 27.251C34.3281 27.7332 34.5 28.3002 34.5 28.8802C34.5 29.2655 34.4241 29.6469 34.2767 30.0028C34.1292 30.3587 33.9131 30.6821 33.6407 30.9544C33.3682 31.2268 33.0448 31.4428 32.6888 31.5901C32.3329 31.7374 31.9514 31.8132 31.5662 31.813ZM24.4176 12.3929H32.6136C32.7756 12.3932 32.936 12.4256 33.0855 12.488C33.235 12.5504 33.3708 12.6417 33.485 12.7567L38.2114 17.5298H24.4176V12.3929ZM24.4176 18.5793H38.9491V26.9058C38.9485 27.2907 38.7952 27.6597 38.5227 27.9317C38.2502 28.2037 37.8809 28.3564 37.496 28.3562H35.5151C35.3883 27.3988 34.918 26.5201 34.1917 25.8836C33.4653 25.2471 32.5325 24.8962 31.5667 24.8962C30.6009 24.8962 29.6681 25.2471 28.9417 25.8836C28.2154 26.5201 27.7451 27.3988 27.6183 28.3562H24.4176V18.5793ZM8.83874 31.813C8.25866 31.8131 7.69158 31.6412 7.20922 31.319C6.72685 30.9968 6.35086 30.5388 6.1288 30.0029C5.90674 29.467 5.84859 28.8773 5.96169 28.3084C6.07479 27.7394 6.35407 27.2168 6.76421 26.8066C7.17435 26.3964 7.69693 26.117 8.26585 26.0038C8.83478 25.8906 9.42449 25.9487 9.96043 26.1706C10.4964 26.3926 10.9544 26.7685 11.2767 27.2508C11.599 27.7331 11.771 28.3001 11.771 28.8802C11.771 29.658 11.4621 30.4039 10.9122 30.9538C10.3623 31.5038 9.61648 31.8129 8.83874 31.813ZM1.45739 3.01475C1.45782 2.63019 1.61077 2.26149 1.8827 1.98956C2.15463 1.71764 2.52332 1.56468 2.90789 1.56426H21.916C22.3006 1.56468 22.6693 1.71764 22.9412 1.98956C23.2131 2.26149 23.3661 2.63019 23.3665 3.01475V28.3562H12.7856C12.6588 27.3988 12.1885 26.5201 11.4621 25.8836C10.7358 25.2471 9.80291 24.8962 8.83715 24.8962C7.87139 24.8962 6.93853 25.2471 6.21219 25.8836C5.48585 26.5201 5.01552 27.3988 4.88873 28.3562H2.90789C2.52318 28.3557 2.15441 28.2025 1.88248 27.9304C1.61055 27.6583 1.45768 27.2894 1.45739 26.9047V3.01475Z" fill="#333333"/>
<path d="M5.72626 12.1218H7.25419V19.8744C7.25419 20.0138 7.30956 20.1475 7.40813 20.2461C7.50669 20.3446 7.64037 20.4 7.77976 20.4H17.6887C17.7578 20.4001 17.8261 20.3865 17.8899 20.3601C17.9537 20.3337 18.0117 20.295 18.0605 20.2462C18.1093 20.1974 18.1481 20.1394 18.1744 20.0756C18.2008 20.0118 18.2144 19.9435 18.2143 19.8744V12.1218H19.7412C19.8521 12.1219 19.9603 12.0868 20.0501 12.0217C20.1399 11.9565 20.2068 11.8646 20.2411 11.7591C20.2755 11.6536 20.2756 11.54 20.2415 11.4344C20.2073 11.3288 20.1406 11.2368 20.0509 11.1715L18.7393 10.2168V8.71862C18.7393 8.57923 18.684 8.44554 18.5854 8.34698C18.4868 8.24842 18.3532 8.19304 18.2138 8.19304C18.0744 8.19304 17.9407 8.24842 17.8421 8.34698C17.7436 8.44554 17.6882 8.57923 17.6882 8.71862V9.45261L13.0429 6.0706C12.9531 6.00524 12.8448 5.97003 12.7337 5.97003C12.6226 5.97003 12.5144 6.00524 12.4245 6.0706L5.41707 11.1731C5.32809 11.2386 5.26203 11.3305 5.22826 11.4357C5.1945 11.5409 5.19475 11.6541 5.22899 11.7591C5.26323 11.8642 5.3297 11.9558 5.41897 12.0209C5.50824 12.086 5.61577 12.1213 5.72626 12.1218ZM12.7337 7.14402L18.1273 11.0686H17.6893C17.6202 11.0685 17.5519 11.0821 17.4881 11.1084C17.4243 11.1348 17.3663 11.1735 17.3175 11.2224C17.2687 11.2712 17.2299 11.3291 17.2036 11.3929C17.1772 11.4567 17.1636 11.5251 17.1637 11.5941V19.3489H8.30692V11.5979C8.30692 11.4585 8.25155 11.3248 8.15299 11.2262C8.05442 11.1277 7.92074 11.0723 7.78135 11.0723H7.34329L12.7337 7.14402Z" fill="#333333"/>
</svg>
