<svg width="41" height="27" viewBox="0 0 41 27" fill="none" xmlns="http://www.w3.org/2000/svg">
<path d="M40.1093 13.9616V21.0884C40.1093 21.2974 40.0682 21.5044 39.9883 21.6975C39.9083 21.8906 39.7911 22.0661 39.6432 22.2139C39.4954 22.3617 39.32 22.479 39.1268 22.5589C38.9337 22.6389 38.7267 22.68 38.5177 22.68H36.527C36.5318 22.3112 36.4634 21.9451 36.3256 21.6029C36.1879 21.2608 35.9835 20.9494 35.7244 20.6869C35.4654 20.4244 35.1567 20.2159 34.8164 20.0737C34.4761 19.9314 34.111 19.8581 33.7421 19.8581C33.3733 19.8581 33.0082 19.9314 32.6679 20.0737C32.3276 20.2159 32.0189 20.4244 31.7599 20.6869C31.5008 20.9494 31.2964 21.2608 31.1587 21.6029C31.0209 21.9451 30.9525 22.3112 30.9573 22.68H26.8594V13.9616H40.1093Z" fill="white"/>
<path d="M36.0099 9.49513L40.1093 13.9621H26.8594V8.98046H34.8378C35.0581 8.9805 35.2761 9.02626 35.4778 9.11485C35.6796 9.20344 35.8607 9.33293 36.0099 9.49513V9.49513Z" fill="white"/>
<path d="M36.5311 22.6799C36.5311 23.2308 36.3677 23.7692 36.0617 24.2272C35.7557 24.6852 35.3207 25.0422 34.8118 25.253C34.3029 25.4638 33.7429 25.5189 33.2027 25.4115C32.6624 25.304 32.1662 25.0388 31.7767 24.6493C31.3872 24.2598 31.1219 23.7635 31.0145 23.2233C30.907 22.683 30.9621 22.1231 31.1729 21.6142C31.3837 21.1053 31.7407 20.6703 32.1987 20.3643C32.6567 20.0582 33.1952 19.8949 33.746 19.8949C34.4846 19.8949 35.193 20.1883 35.7153 20.7106C36.2376 21.2329 36.5311 21.9413 36.5311 22.6799V22.6799Z" fill="white"/>
<path d="M26.8588 13.9616V22.6794H19.8185C19.8088 21.9472 19.5111 21.2483 18.9899 20.7339C18.4687 20.2196 17.7659 19.9312 17.0336 19.9312C16.3014 19.9312 15.5986 20.2196 15.0773 20.7339C14.5561 21.2483 14.2585 21.9472 14.2488 22.6794H12.2581C12.0492 22.6794 11.8424 22.6382 11.6494 22.5582C11.4565 22.4782 11.2812 22.361 11.1335 22.2132C10.9859 22.0655 10.8687 21.8901 10.7889 21.6971C10.709 21.5041 10.6679 21.2972 10.668 21.0883V2.6495C10.6678 2.44045 10.7089 2.23343 10.7889 2.04027C10.8688 1.84711 10.986 1.6716 11.1339 1.52378C11.2817 1.37596 11.4572 1.25873 11.6503 1.17879C11.8435 1.09885 12.0505 1.05777 12.2596 1.0579H25.2672C25.4762 1.05784 25.6832 1.09896 25.8763 1.17892C26.0695 1.25889 26.2449 1.37612 26.3927 1.52393C26.5406 1.67173 26.6578 1.84721 26.7378 2.04034C26.8177 2.23347 26.8588 2.44047 26.8588 2.6495V13.9616Z" fill="white"/>
<path d="M19.8201 22.6799C19.8201 23.2308 19.6568 23.7692 19.3507 24.2272C19.0447 24.6852 18.6098 25.0422 18.1009 25.253C17.592 25.4638 17.032 25.5189 16.4917 25.4115C15.9515 25.304 15.4552 25.0388 15.0657 24.6493C14.6762 24.2598 14.411 23.7635 14.3035 23.2233C14.1961 22.683 14.2512 22.1231 14.462 21.6142C14.6728 21.1053 15.0298 20.6703 15.4878 20.3643C15.9458 20.0582 16.4842 19.8949 17.0351 19.8949C17.7737 19.8949 18.4821 20.1883 19.0044 20.7106C19.5267 21.2329 19.8201 21.9413 19.8201 22.6799V22.6799Z" fill="white"/>
<path d="M12.2618 23.2369H13.7417C13.8732 24.0155 14.2762 24.7224 14.8792 25.2322C15.4823 25.742 16.2464 26.0217 17.0361 26.0217C17.8258 26.0217 18.5899 25.742 19.193 25.2322C19.796 24.7224 20.199 24.0155 20.3305 23.2369H30.4511C30.5825 24.0155 30.9855 24.7224 31.5886 25.2322C32.1917 25.742 32.9558 26.0217 33.7455 26.0217C34.5351 26.0217 35.2993 25.742 35.9024 25.2322C36.5054 24.7224 36.9084 24.0155 37.0399 23.2369H38.5174C39.0874 23.2367 39.634 23.0103 40.0371 22.6074C40.4403 22.2044 40.6669 21.6579 40.6673 21.0879V13.9616C40.6673 13.9568 40.6673 13.9524 40.6673 13.9475C40.6673 13.9427 40.6673 13.9271 40.6673 13.9174C40.6673 13.9077 40.6673 13.9004 40.6644 13.8922C40.6615 13.8839 40.662 13.8732 40.6605 13.864C40.6591 13.8548 40.6571 13.8465 40.6552 13.8378C40.6533 13.8291 40.6508 13.8203 40.6484 13.8111C40.646 13.8019 40.6435 13.7936 40.6401 13.7854C40.6367 13.7771 40.6343 13.7684 40.6309 13.7596C40.6275 13.7509 40.6246 13.7431 40.6207 13.7349C40.6168 13.7266 40.6125 13.7184 40.6086 13.7101C40.6047 13.7018 40.6008 13.6941 40.596 13.6863C40.5911 13.6785 40.5867 13.6703 40.5819 13.663C40.577 13.6557 40.5717 13.647 40.5659 13.6392L40.5508 13.6183L40.5314 13.595L40.5222 13.5843L36.4227 9.11739C36.2212 8.89879 35.9767 8.72425 35.7044 8.60476C35.4322 8.48527 35.1382 8.42341 34.8409 8.42306H27.4179V2.64952C27.4174 2.07986 27.1909 1.53367 26.7881 1.13086C26.3853 0.728047 25.8391 0.501521 25.2694 0.501007L12.2618 0.501007C11.6921 0.501521 11.1459 0.728047 10.7431 1.13086C10.3403 1.53367 10.1138 2.07986 10.1133 2.64952V21.0879C10.1137 21.6576 10.3401 22.2039 10.743 22.6068C11.1458 23.0098 11.692 23.2363 12.2618 23.2369V23.2369ZM17.0361 24.9076C16.5954 24.9076 16.1646 24.7769 15.7982 24.5321C15.4318 24.2873 15.1462 23.9393 14.9776 23.5321C14.8089 23.125 14.7648 22.677 14.8508 22.2448C14.9368 21.8126 15.149 21.4155 15.4606 21.1039C15.7722 20.7923 16.1692 20.5801 16.6014 20.4941C17.0336 20.4082 17.4816 20.4523 17.8888 20.6209C18.2959 20.7896 18.6439 21.0752 18.8887 21.4416C19.1336 21.808 19.2643 22.2388 19.2643 22.6795C19.2643 22.9721 19.2067 23.2619 19.0947 23.5323C18.9827 23.8027 18.8186 24.0484 18.6116 24.2553C18.4046 24.4622 18.1589 24.6263 17.8885 24.7383C17.6181 24.8502 17.3283 24.9077 17.0356 24.9076H17.0361ZM33.7455 24.9076C33.3048 24.9076 32.874 24.7769 32.5076 24.5321C32.1412 24.2873 31.8556 23.9393 31.6869 23.5321C31.5183 23.125 31.4742 22.677 31.5601 22.2448C31.6461 21.8126 31.8583 21.4155 32.1699 21.1039C32.4816 20.7923 32.8786 20.5801 33.3108 20.4941C33.743 20.4082 34.191 20.4523 34.5981 20.6209C35.0053 20.7896 35.3533 21.0752 35.5981 21.4416C35.8429 21.808 35.9736 22.2388 35.9736 22.6795C35.9737 22.9721 35.9161 23.2619 35.8041 23.5323C35.6921 23.8027 35.5279 24.0484 35.321 24.2553C35.114 24.4622 34.8683 24.6263 34.5979 24.7383C34.3275 24.8502 34.0377 24.9077 33.745 24.9076H33.7455ZM39.5535 21.0879C39.5532 21.3621 39.4442 21.625 39.2503 21.8189C39.0564 22.0128 38.7935 22.1218 38.5193 22.1221H37.0389C36.9074 21.3434 36.5044 20.6365 35.9014 20.1267C35.2983 19.6169 34.5342 19.3372 33.7445 19.3372C32.9548 19.3372 32.1907 19.6169 31.5876 20.1267C30.9846 20.6365 30.5816 21.3434 30.4501 22.1221H27.4179V14.5185H39.5535V21.0879ZM34.8389 9.53738C34.9821 9.53758 35.1236 9.56736 35.2547 9.62484C35.3858 9.68232 35.5036 9.76628 35.6007 9.87143L38.8432 13.4042H27.4179V9.53738H34.8389ZM11.2271 2.64952C11.2275 2.37535 11.3366 2.11252 11.5304 1.91865C11.7243 1.72479 11.9871 1.6157 12.2613 1.61532H25.2694C25.5436 1.6157 25.8064 1.72479 26.0003 1.91865C26.1941 2.11252 26.3032 2.37535 26.3036 2.64952V22.1226H20.3315C20.1997 21.3441 19.7966 20.6374 19.1935 20.1278C18.5904 19.6183 17.8264 19.3387 17.0368 19.3387C16.2473 19.3387 15.4833 19.6183 14.8802 20.1278C14.2771 20.6374 13.874 21.3441 13.7422 22.1226H12.2618C11.9876 22.1223 11.7247 22.0133 11.5308 21.8194C11.3369 21.6255 11.2279 21.3626 11.2276 21.0884L11.2271 2.64952Z" fill="#333333" stroke="white" stroke-width="0.5"/>
<path d="M4.1077 5.14914L3.94174 7.80396L4.35663 8.55171L3.94174 11.969L3.65061 16.0111V20.8345L1.29688 23.451V25.0047L2.33197 25.668L4.59608 23.8089L6.22387 21.3705L6.39599 19.7492L7.57902 21.3705V24.41L8.26323 25.4932L9.17267 25.6674L9.76727 25.299L10.0646 24.2371V20.0348L7.57902 17.3643V15.4425L7.82179 14.2723L10.2319 15.4425H10.9636V17.3643H18.1414V15.4425L20.4781 14.8599L21.4909 14.2743L21.6976 16.5491L20.4781 19.3206L18.9911 21.1558V24.2409L19.3695 25.3028L20.4776 25.6714L21.4904 25.3028L21.6971 23.8128V21.1558L22.929 19.7531V21.7754L23.5601 22.544L26.0926 25.4976L27.3349 25.6718L28.1116 24.7978V23.8112L25.6938 20.8379L25.1244 9.91029L24.4776 9.0766L25.1244 7.80787L25.461 5.15293L24.4776 4.19798L22.6663 3.88479L21.3116 4.39262L20.8455 6.15412L21.0826 7.42428L21.3116 8.55467L21.4913 9.41989L21.0826 11.0134L19.6554 13.0241L17.864 13.4858L18.1424 11.0134V10.1424H10.9645V13.4858L9.44863 12.7483L8.05508 11.0134L7.57949 9.41989V8.55467L8.05508 7.42428V4.70533L7.57949 4.19691L5.70893 3.88373L4.35521 4.19691L4.1077 5.14914Z" fill="#ECF7FB"/>
<path d="M12.1306 15.2381C12.2934 15.2381 12.4495 15.1734 12.5646 15.0583C12.6797 14.9432 12.7444 14.7871 12.7444 14.6244C12.7444 14.4616 12.6797 14.3055 12.5646 14.1904C12.4495 14.0753 12.2934 14.0106 12.1306 14.0106C11.5264 14.0132 10.9262 13.913 10.3555 13.7145C9.80294 13.5247 9.29042 13.2339 8.84403 12.857C8.44249 12.5186 8.11407 12.1019 7.87877 11.6325C7.65308 11.18 7.53478 10.6815 7.53307 10.1759C7.53389 10.0372 7.4873 9.90233 7.401 9.79374C7.35132 9.7311 7.28999 9.67867 7.22038 9.63934C6.85929 9.82537 6.45869 9.92166 6.0525 9.92005C5.64631 9.91845 5.24649 9.81899 4.88688 9.63011C4.75431 9.68977 4.64026 9.78403 4.55671 9.90298C4.4506 10.0524 4.38914 10.2288 4.37949 10.4118L4.29646 11.7844C4.29699 11.8404 4.28601 11.8958 4.2642 11.9473C4.24239 11.9988 4.21022 12.0453 4.16968 12.0839C4.12915 12.1224 4.08112 12.1522 4.02859 12.1714C3.97605 12.1906 3.92012 12.1988 3.86429 12.1954C3.80846 12.1921 3.75391 12.1773 3.70403 12.152C3.65415 12.1267 3.61002 12.0914 3.57436 12.0483C3.53871 12.0052 3.5123 11.9552 3.49678 11.9015C3.48127 11.8477 3.47697 11.7914 3.48415 11.7359L3.56767 10.3647C3.58723 10.0278 3.70169 9.70327 3.89783 9.42861C3.98534 9.30759 4.08797 9.19827 4.20324 9.1033C3.77025 8.63542 3.5296 8.02149 3.52931 7.38401V5.1044C3.53033 4.68027 3.69907 4.27376 3.99871 3.97357C4.29834 3.67339 4.70455 3.50391 5.12868 3.50212H7.00383C7.42796 3.50391 7.83417 3.67339 8.1338 3.97357C8.43344 4.27376 8.60218 4.68027 8.6032 5.1044V7.38352C8.60316 8.03506 8.35124 8.66136 7.90014 9.13146C7.95097 9.17884 7.99835 9.22979 8.04191 9.28392C8.24429 9.53691 8.35426 9.8514 8.35363 10.1754C8.3545 10.5554 8.44323 10.9302 8.61291 11.2703C8.79941 11.6407 9.05964 11.9692 9.37763 12.2355C9.73885 12.5409 10.1529 12.7777 10.5993 12.9342V10.189C10.5992 10.1353 10.6097 10.0821 10.6302 10.0324C10.6508 9.98281 10.6809 9.93772 10.7189 9.89974C10.7568 9.86177 10.8019 9.83165 10.8516 9.81113C10.9012 9.79061 10.9544 9.78008 11.0081 9.78014H18.1853C18.2391 9.77995 18.2923 9.79039 18.342 9.81087C18.3917 9.83135 18.4368 9.86145 18.4748 9.89946C18.5128 9.93746 18.5429 9.9826 18.5634 10.0323C18.5839 10.082 18.5943 10.1352 18.5941 10.189V12.9357C19.041 12.7792 19.4555 12.5424 19.8172 12.237C20.1348 11.9706 20.3945 11.6421 20.5805 11.2717C20.7502 10.9316 20.8389 10.5569 20.8398 10.1768C20.8401 9.87991 20.9328 9.59044 21.1049 9.3485C21.1607 9.27085 21.2236 9.19852 21.2928 9.13243C20.8417 8.66233 20.5898 8.03603 20.5897 7.38449V5.1044C20.5907 4.67976 20.7599 4.27281 21.0601 3.97255C21.3604 3.67229 21.7674 3.50315 22.192 3.50212H24.0657C24.4901 3.50289 24.8969 3.67204 25.1968 3.97245C25.4967 4.27285 25.6651 4.67995 25.6651 5.1044V7.38352C25.6648 8.021 25.4241 8.63494 24.9911 9.10282C25.1072 9.19695 25.2099 9.30639 25.2965 9.42813C25.4933 9.70245 25.6079 10.0272 25.6267 10.3642L25.9797 16.1907C26.003 16.5825 26.0074 16.9249 26.0059 17.3181L25.9996 20.8543L28.0986 23.2C28.393 23.5372 28.5453 23.9754 28.5234 24.4226C28.5016 24.8697 28.3074 25.291 27.9816 25.598C27.8166 25.7446 27.6244 25.8572 27.416 25.9294C27.2075 26.0017 26.9868 26.0322 26.7666 26.0192C26.5463 26.0061 26.3308 25.9498 26.1323 25.8535C25.9338 25.7572 25.7562 25.6227 25.6097 25.4577L23.1102 22.6649C22.804 22.3507 22.6339 21.9286 22.6368 21.4899V20.5815C22.6368 20.5815 22.1289 21.0888 22.0318 21.1859L22.0085 24.2963C22.0136 24.519 21.9744 24.7406 21.8932 24.948C21.8119 25.1554 21.6902 25.3446 21.5352 25.5046C21.3802 25.6646 21.1948 25.7922 20.9901 25.8799C20.7853 25.9676 20.5651 26.0137 20.3423 26.0155C20.1195 26.0174 19.8986 25.9749 19.6924 25.8906C19.4862 25.8062 19.2988 25.6817 19.1412 25.5243C18.9835 25.3669 18.8587 25.1798 18.7741 24.9737C18.6894 24.7676 18.6466 24.5468 18.648 24.324L18.6728 21.0961C18.6732 20.9881 18.7165 20.8847 18.7931 20.8087C18.8697 20.7326 18.9734 20.6901 19.0814 20.6905C19.1894 20.6908 19.2928 20.7341 19.3688 20.8107C19.4449 20.8874 19.4874 20.9911 19.4871 21.099L19.4623 24.3298C19.4608 24.4436 19.4819 24.5565 19.5242 24.662C19.5665 24.7676 19.6293 24.8638 19.7089 24.945C19.793 25.0305 19.8938 25.0977 20.005 25.1426C20.1161 25.1874 20.2354 25.2089 20.3552 25.2057C20.4687 25.2024 20.5805 25.1767 20.6841 25.1302C20.7877 25.0837 20.8812 25.0172 20.9591 24.9345C21.037 24.8519 21.0979 24.7547 21.1382 24.6485C21.1785 24.5423 21.1976 24.4293 21.1942 24.3157L21.219 21.017C21.2196 20.916 21.2575 20.8189 21.3253 20.7441C21.3855 20.6776 24.0856 17.8649 25.1883 16.6743L25.162 16.2271L22.0318 16.4175L22.0803 17.1715C22.0835 17.2256 22.0759 17.2798 22.0579 17.3309C22.0399 17.382 22.0118 17.429 21.9754 17.4691L19.4171 21.3617C19.381 21.4014 19.3374 21.4336 19.2888 21.4564C19.2402 21.4793 19.1876 21.4923 19.1339 21.4948C19.0803 21.4973 19.0267 21.4892 18.9762 21.471C18.9257 21.4528 18.8793 21.4248 18.8396 21.3887C18.7999 21.3525 18.7677 21.3089 18.7449 21.2603C18.722 21.2117 18.709 21.1591 18.7065 21.1055C18.704 21.0518 18.7121 20.9982 18.7303 20.9477C18.7485 20.8972 18.7765 20.8508 18.8126 20.8111L21.2554 17.0462L21.1214 14.8302C20.3582 15.3483 19.5001 15.7105 18.5966 15.896V17.3681C18.5966 17.4219 18.5861 17.475 18.5656 17.5247C18.5451 17.5743 18.515 17.6194 18.477 17.6574C18.439 17.6954 18.3939 17.7255 18.3443 17.746C18.2947 17.7665 18.2415 17.777 18.1878 17.777H13.3464C13.2405 17.7733 13.1401 17.7287 13.0665 17.6525C12.9929 17.5762 12.9517 17.4744 12.9517 17.3684C12.9517 17.2624 12.9929 17.1606 13.0665 17.0843C13.1401 17.0081 13.2405 16.9635 13.3464 16.9598H17.7765V16.0213C17.542 16.0446 17.3031 16.0553 17.0608 16.0553C16.6813 16.0553 16.3172 15.9045 16.0489 15.6361C15.7805 15.3677 15.6297 15.0037 15.6297 14.6241C15.6297 14.2446 15.7805 13.8806 16.0489 13.6122C16.3172 13.3438 16.6813 13.193 17.0608 13.193C17.3004 13.1937 17.5396 13.1761 17.7765 13.1406V10.5973H16.0354V12.5395C16.0354 12.5932 16.0249 12.6464 16.0044 12.696C15.9838 12.7456 15.9537 12.7907 15.9158 12.8287C15.8778 12.8667 15.8327 12.8968 15.7831 12.9173C15.7334 12.9378 15.6802 12.9484 15.6265 12.9483H13.5649C13.5112 12.9485 13.4579 12.938 13.4083 12.9176C13.3586 12.8971 13.3134 12.867 13.2754 12.829C13.2374 12.791 13.2073 12.7458 13.1868 12.6961C13.1664 12.6465 13.1559 12.5932 13.1561 12.5395V10.5973H11.4135V13.1406C11.6509 13.1761 11.8906 13.1934 12.1306 13.1925C12.5102 13.1925 12.8742 13.3433 13.1426 13.6117C13.411 13.8801 13.5618 14.2441 13.5618 14.6236C13.5618 15.0032 13.411 15.3672 13.1426 15.6356C12.8742 15.904 12.5102 16.0548 12.1306 16.0548C11.8879 16.0548 11.6495 16.0441 11.4135 16.0208V16.9603H13.6698C13.7757 16.964 13.8761 17.0086 13.9497 17.0848C14.0234 17.161 14.0645 17.2629 14.0645 17.3689C14.0645 17.4749 14.0234 17.5767 13.9497 17.6529C13.8761 17.7292 13.7757 17.7738 13.6698 17.7775H11.0052C10.8968 17.7773 10.7929 17.7342 10.7162 17.6576C10.6396 17.5809 10.5965 17.477 10.5963 17.3686V15.8965C9.69292 15.7105 8.83499 15.3483 8.07153 14.8307L7.93752 17.0467L10.0739 19.386C10.219 19.5459 10.3325 19.7317 10.4084 19.9337C10.4833 20.1355 10.5189 20.3498 10.5133 20.5649L10.541 24.3235C10.5441 24.6557 10.4488 24.9814 10.2669 25.2594C10.0851 25.5374 9.82489 25.7552 9.51927 25.8854C9.21365 26.0156 8.8763 26.0523 8.54983 25.9909C8.22336 25.9295 7.92243 25.7727 7.68504 25.5403C7.37366 25.2095 7.1942 24.7761 7.18057 24.322L7.15726 21.1855C6.95819 20.982 6.75621 20.7815 6.55568 20.581V21.4894C6.55699 21.9259 6.38824 22.3458 6.08519 22.66L3.58417 25.4577C3.28795 25.7909 2.87158 25.9928 2.42656 26.0191C1.98154 26.0454 1.54428 25.894 1.21086 25.598C0.885375 25.2909 0.691523 24.8696 0.669978 24.4225C0.648432 23.9755 0.800868 23.5375 1.0953 23.2004L3.19283 20.8548L3.18506 17.257C3.18506 16.9593 3.18506 16.6661 3.2006 16.3704L3.46425 11.4125C3.4712 11.3049 3.52048 11.2045 3.6013 11.1331C3.68212 11.0618 3.7879 11.0253 3.89553 11.0317C4.00315 11.0381 4.10385 11.0869 4.17562 11.1674C4.24739 11.2478 4.28437 11.3534 4.2785 11.4611L4.07651 15.4148L7.20873 15.6047L7.2937 14.2073C6.99729 13.9319 6.72952 13.6272 6.4945 13.2979C6.21146 12.9021 5.9842 12.4694 5.81911 12.0117C5.80101 11.9614 5.79298 11.908 5.79551 11.8546C5.79803 11.8012 5.81104 11.7488 5.83381 11.7004C5.85658 11.652 5.88866 11.6086 5.92821 11.5726C5.96775 11.5366 6.014 11.5088 6.06431 11.4907C6.11462 11.4726 6.168 11.4646 6.22141 11.4671C6.27482 11.4696 6.32721 11.4826 6.37559 11.5054C6.42396 11.5282 6.46738 11.5602 6.50337 11.5998C6.53935 11.6393 6.56719 11.6856 6.5853 11.7359C6.72586 12.1239 6.91897 12.4908 7.1592 12.8264C7.62741 13.4709 8.22865 14.0072 8.9222 14.3991C9.90075 14.9546 11.0078 15.2439 12.1331 15.2381H12.1306ZM24.7333 7.99724C24.627 8.01278 24.525 8.02346 24.4265 8.02832C23.9373 8.07381 23.4491 7.93223 23.0601 7.63212C22.7383 7.35958 22.5066 6.99598 22.3954 6.58918C22.3663 6.48916 22.3401 6.38865 22.3197 6.28523C22.0309 6.40416 21.7183 6.45404 21.4069 6.43089V7.37915C21.4071 7.71905 21.5081 8.05126 21.6971 8.33377C21.8861 8.61628 22.1546 8.83641 22.4687 8.96633C22.7828 9.09625 23.1284 9.13012 23.4617 9.06367C23.7951 8.99722 24.1012 8.83343 24.3415 8.593C24.5118 8.42356 24.6452 8.22073 24.7333 7.99724ZM21.4069 5.6181C21.5741 5.63646 21.7433 5.62149 21.9048 5.57407C22.0662 5.52665 22.2166 5.44772 22.3474 5.34183C22.4218 5.26583 22.5218 5.22016 22.628 5.21365C22.7359 5.2089 22.8413 5.24711 22.9212 5.31991C23.001 5.39272 23.0487 5.49418 23.0538 5.60208C23.0646 5.85581 23.105 6.10742 23.1742 6.35175C23.2401 6.60096 23.3779 6.82524 23.5704 6.99655C23.8066 7.16903 24.0989 7.24665 24.3896 7.21407C24.5432 7.20421 24.6959 7.18197 24.846 7.14755V5.1044C24.8457 4.89697 24.7633 4.69809 24.6168 4.55124C24.4703 4.40438 24.2717 4.32151 24.0642 4.32074H22.1901C21.9826 4.32176 21.7839 4.40467 21.6372 4.55143C21.4906 4.69819 21.4078 4.89692 21.4069 5.1044V5.6181ZM4.34453 7.14755C4.4951 7.18207 4.64822 7.20432 4.80239 7.21407C5.09241 7.24644 5.38401 7.16881 5.61956 6.99655C5.81316 6.82609 5.95118 6.60148 6.01576 6.35175C6.08651 6.10775 6.12696 5.85596 6.13617 5.60208C6.14158 5.49427 6.18937 5.39296 6.26912 5.32021C6.34887 5.24746 6.45413 5.20916 6.56199 5.21365C6.66354 5.21878 6.75964 5.26112 6.83195 5.3326C6.96339 5.44146 7.11536 5.52282 7.27883 5.57186C7.4423 5.6209 7.61395 5.63663 7.78361 5.6181V5.1044C7.78335 4.89697 7.70097 4.69809 7.55448 4.55124C7.40799 4.40438 7.20931 4.32151 7.00189 4.32074H5.12625C4.91882 4.32151 4.72014 4.40438 4.57365 4.55124C4.42716 4.69809 4.34478 4.89697 4.34453 5.1044V7.14755ZM7.78361 6.43526C7.47262 6.45843 7.16052 6.40855 6.87225 6.2896C6.85089 6.39302 6.8237 6.49304 6.79505 6.59355C6.68354 6.99964 6.45183 7.36253 6.13034 7.63455C5.74141 7.93466 5.25319 8.07623 4.76404 8.03075C4.66693 8.02589 4.56496 8.01521 4.45863 7.99967C4.54606 8.22523 4.6795 8.43011 4.85046 8.60125C5.00964 8.76108 5.1988 8.88792 5.4071 8.97449C5.6154 9.06105 5.83874 9.10566 6.06431 9.10573C6.51608 9.08744 6.94651 8.90856 7.27816 8.60125C7.43832 8.44224 7.56546 8.25314 7.65229 8.04483C7.73911 7.83651 7.78391 7.61309 7.78409 7.38741V6.43526H7.78361ZM21.9701 9.63982C21.8905 9.68481 21.822 9.74702 21.7696 9.8219C21.6956 9.92538 21.6561 10.0496 21.6569 10.1768C21.6552 10.6825 21.5369 11.1809 21.3112 11.6334C21.0769 12.1036 20.7484 12.5204 20.346 12.858C19.9002 13.2348 19.3884 13.5256 18.8364 13.7154C18.2657 13.9137 17.6655 14.0139 17.0613 14.0116C16.8985 14.0116 16.7424 14.0763 16.6273 14.1914C16.5122 14.3065 16.4476 14.4626 16.4476 14.6253C16.4476 14.7881 16.5122 14.9442 16.6273 15.0593C16.7424 15.1744 16.8985 15.2391 17.0613 15.2391C17.5743 15.2401 18.0856 15.1811 18.5849 15.0633C19.691 14.8114 20.7036 14.2523 21.5059 13.4503C21.698 13.2569 21.8739 13.0481 22.0318 12.8259C22.2713 12.4902 22.4642 12.1235 22.6052 11.7359C22.642 11.6342 22.7177 11.5514 22.8157 11.5055C22.9136 11.4597 23.0257 11.4546 23.1274 11.4914C23.2291 11.5283 23.3119 11.604 23.3578 11.7019C23.4036 11.7998 23.4087 11.912 23.3719 12.0136C23.205 12.4708 22.9774 12.9034 22.695 13.2998C22.4602 13.6284 22.1931 13.9327 21.8978 14.2083L21.9827 15.6056L25.1149 15.4158L24.8125 10.4147C24.8021 10.2319 24.7407 10.0556 24.6352 9.9059C24.5507 9.78727 24.4363 9.69313 24.3036 9.63302C23.944 9.82191 23.5442 9.92136 23.138 9.92297C22.7318 9.92457 22.3312 9.82828 21.9701 9.64225V9.63982ZM4.02844 16.2281L4.00077 16.6753L7.86518 20.7451C7.93257 20.82 7.96992 20.9172 7.97005 21.0179L7.99482 24.3167C7.98582 24.4371 8.0048 24.558 8.05029 24.6698C8.09578 24.7817 8.16653 24.8815 8.25701 24.9615C8.34004 25.0417 8.43814 25.1047 8.54565 25.1468C8.65315 25.1889 8.76793 25.2092 8.88336 25.2067C9.11042 25.2006 9.32601 25.1056 9.48374 24.9421C9.64147 24.7787 9.72873 24.5599 9.72674 24.3327L9.69906 20.5727C9.70332 20.4532 9.68504 20.3339 9.64517 20.2212C9.60715 20.1157 9.54781 20.0192 9.47086 19.9376L7.22281 17.4696C7.18626 17.4295 7.15805 17.3826 7.13979 17.3315C7.12154 17.2804 7.11361 17.2262 7.11648 17.172L7.16503 16.4179L4.02844 16.2281ZM15.2182 10.5958H13.9718V12.1287H15.2163L15.2182 10.5958ZM23.452 19.7565L23.4471 21.4899C23.4474 21.6018 23.4688 21.7127 23.5102 21.8167C23.5592 21.9298 23.6281 22.0333 23.7137 22.1221L26.2152 24.9163C26.2912 25.0034 26.3839 25.0744 26.4878 25.1251C26.5917 25.1758 26.7047 25.2052 26.8201 25.2115C26.9356 25.2178 27.0511 25.201 27.1599 25.1619C27.2687 25.1228 27.3686 25.0624 27.4537 24.9841C27.5387 24.9058 27.6073 24.8113 27.6552 24.7061C27.7031 24.6009 27.7295 24.4871 27.7328 24.3716C27.7361 24.256 27.7161 24.141 27.6742 24.0332C27.6323 23.9255 27.5693 23.8272 27.4888 23.7443L25.2849 21.2816C25.2175 21.2072 25.1802 21.1105 25.18 21.0102L25.1878 17.8886C24.693 18.4689 24.0438 19.1506 23.452 19.7565ZM5.74046 19.7565C5.14664 19.1506 4.49747 18.4689 4.00271 17.8891L4.00805 21.0097C4.00847 21.1099 3.9716 21.2066 3.90463 21.2811L1.70125 23.7447C1.62257 23.8282 1.56125 23.9264 1.52084 24.0337C1.48042 24.1411 1.46173 24.2554 1.46583 24.37C1.46994 24.4846 1.49677 24.5973 1.54475 24.7014C1.59274 24.8056 1.66094 24.8992 1.74539 24.9768C1.82983 25.0544 1.92885 25.1144 2.03669 25.1535C2.14453 25.1925 2.25905 25.2097 2.3736 25.2041C2.48816 25.1986 2.60046 25.1703 2.704 25.121C2.80754 25.0717 2.90025 25.0023 2.97676 24.9168L5.47487 22.1221C5.56042 22.033 5.62976 21.9296 5.67976 21.8167C5.72074 21.7126 5.74167 21.6017 5.74143 21.4899L5.74046 19.7565Z" fill="#333333"/>
</svg>
