<svg width="34" height="31" viewBox="0 0 34 31" fill="none" xmlns="http://www.w3.org/2000/svg">
<path d="M13.1808 30.0629C14.1242 30.0629 14.8889 29.2981 14.8889 28.3548C14.8889 27.4114 14.1242 26.6466 13.1808 26.6466C12.2374 26.6466 11.4727 27.4114 11.4727 28.3548C11.4727 29.2981 12.2374 30.0629 13.1808 30.0629Z" fill="#0C152E"/>
<path d="M22.0597 30.0629C23.0031 30.0629 23.7678 29.2981 23.7678 28.3548C23.7678 27.4114 23.0031 26.6466 22.0597 26.6466C21.1163 26.6466 20.3516 27.4114 20.3516 28.3548C20.3516 29.2981 21.1163 30.0629 22.0597 30.0629Z" fill="#0C152E"/>
<path d="M18.6719 27.7504H16.3594C16.206 27.7504 16.059 27.8113 15.9506 27.9197C15.8422 28.0281 15.7812 28.1752 15.7812 28.3285C15.7812 28.4819 15.8422 28.6289 15.9506 28.7373C16.059 28.8457 16.206 28.9067 16.3594 28.9067H18.6719C18.8252 28.9067 18.9723 28.8457 19.0807 28.7373C19.1891 28.6289 19.25 28.4819 19.25 28.3285C19.25 28.1752 19.1891 28.0281 19.0807 27.9197C18.9723 27.8113 18.8252 27.7504 18.6719 27.7504Z" fill="#0C152E"/>
<path d="M27.3434 22.3485C27.3445 21.9689 27.2702 21.5928 27.125 21.2421C26.9797 20.8914 26.7663 20.573 26.4971 20.3054L24.7184 18.5316C24.3439 18.1545 23.8984 17.8554 23.4076 17.6516C22.9168 17.4478 22.3904 17.3433 21.859 17.3441H18.2746C16.8947 17.3475 15.5719 17.895 14.5934 18.8679L11.4946 21.9691H10.8584C10.3265 21.9679 9.79968 22.0723 9.30843 22.2761C8.81718 22.48 8.37125 22.7792 7.99648 23.1566L6.6996 24.4504C6.62404 24.5266 6.57107 24.6222 6.54658 24.7267C6.52208 24.8312 6.52702 24.9404 6.56085 25.0422L7.7171 28.511C7.7554 28.6261 7.82894 28.7263 7.92732 28.7973C8.02569 28.8683 8.14391 28.9065 8.26523 28.9066H9.42148C9.57481 28.9066 9.72185 28.8457 9.83027 28.7373C9.93869 28.6289 9.9996 28.4818 9.9996 28.3285C9.9996 28.1752 9.93869 28.0281 9.83027 27.9197C9.72185 27.8113 9.57481 27.7504 9.42148 27.7504H8.68148L7.77023 25.0154L8.81398 23.9691C9.08196 23.7 9.4006 23.4867 9.7515 23.3415C10.1024 23.1962 10.4786 23.1219 10.8584 23.1229H26.1865V26.9304L25.199 27.9166C25.0904 28.0252 25.0294 28.1724 25.0294 28.326C25.0294 28.4795 25.0904 28.6268 25.199 28.7354C25.3076 28.8439 25.4548 28.9049 25.6084 28.9049C25.7619 28.9049 25.9092 28.8439 26.0177 28.7354L27.174 27.5791C27.2819 27.4702 27.3426 27.3231 27.3427 27.1697L27.3434 22.3485ZM23.9059 19.3485L25.6821 21.1247C25.912 21.3581 26.0718 21.6513 26.1434 21.971H20.4059V18.5004H21.859C22.239 18.4988 22.6156 18.5725 22.9669 18.7173C23.3182 18.8621 23.6374 19.0752 23.9059 19.3441V19.3485ZM15.4159 19.6872C16.1765 18.9304 17.2047 18.5038 18.2777 18.4997H19.2527V21.9691H13.129L15.4159 19.6872Z" fill="#0C152E"/>
<path d="M18.6719 24.2816H17.5156C17.3623 24.2816 17.2152 24.3425 17.1068 24.4509C16.9984 24.5594 16.9375 24.7064 16.9375 24.8597C16.9375 25.0131 16.9984 25.1601 17.1068 25.2685C17.2152 25.377 17.3623 25.4379 17.5156 25.4379H18.6719C18.8252 25.4379 18.9723 25.377 19.0807 25.2685C19.1891 25.1601 19.25 25.0131 19.25 24.8597C19.25 24.7064 19.1891 24.5594 19.0807 24.4509C18.9723 24.3425 18.8252 24.2816 18.6719 24.2816Z" fill="#0C152E"/>
<path d="M6.53125 28.9066H4.21875V16.1885H29.6562V28.9073H27.3438V30.0635H32.5469C32.7002 30.0635 32.8473 30.0026 32.9557 29.8942C33.0641 29.7858 33.125 29.6387 33.125 29.4854V0.579132C33.125 0.503159 33.11 0.427931 33.0809 0.357749C33.0518 0.287567 33.0092 0.223807 32.9555 0.170115C32.9017 0.116423 32.8379 0.0738517 32.7677 0.044835C32.6975 0.0158183 32.6222 0.000925285 32.5462 0.00100742H1.32812C1.1748 0.00100742 1.02775 0.0619168 0.919329 0.170336C0.810909 0.278756 0.75 0.425804 0.75 0.579132V29.4848C0.75 29.6381 0.810909 29.7851 0.919329 29.8936C1.02775 30.002 1.1748 30.0629 1.32812 30.0629H6.53125V28.9066ZM1.90625 1.15726H31.9688V8.09476H1.90625V1.15726ZM4.21875 11.5635H29.6562V12.7198H4.21875V11.5635ZM29.6562 10.4073H4.21875V9.25101H29.6562V10.4073ZM1.90625 9.25101H3.0625V28.9066H1.90625V9.25101ZM4.21875 15.0323V13.876H29.6562V15.0323H4.21875ZM31.9688 28.9073H30.8125V9.25101H31.9688V28.9073Z" fill="#0C152E"/>
</svg>
