<svg width="27" height="35" viewBox="0 0 27 35" fill="none" xmlns="http://www.w3.org/2000/svg">
<path d="M2.5625 27.9385H25.0625C25.3609 27.9385 25.647 27.8199 25.858 27.609C26.069 27.398 26.1875 27.1118 26.1875 26.8135V2.06348C26.1875 1.76511 26.069 1.47896 25.858 1.26798C25.647 1.057 25.3609 0.938477 25.0625 0.938477H2.5625C2.26413 0.938477 1.97798 1.057 1.767 1.26798C1.55603 1.47896 1.4375 1.76511 1.4375 2.06348V26.8135C1.4375 27.1118 1.55603 27.398 1.767 27.609C1.97798 27.8199 2.26413 27.9385 2.5625 27.9385ZM22.8125 3.18848C23.035 3.18848 23.2525 3.25446 23.4375 3.37807C23.6225 3.50169 23.7667 3.67739 23.8519 3.88296C23.937 4.08852 23.9593 4.31472 23.9159 4.53295C23.8725 4.75118 23.7653 4.95164 23.608 5.10897C23.4507 5.26631 23.2502 5.37345 23.032 5.41686C22.8137 5.46027 22.5875 5.43799 22.382 5.35284C22.1764 5.26769 22.0007 5.1235 21.8771 4.93849C21.7535 4.75349 21.6875 4.53598 21.6875 4.31348C21.6875 4.01511 21.806 3.72896 22.017 3.51798C22.228 3.307 22.5141 3.18848 22.8125 3.18848ZM13.8125 13.3135C14.5913 13.3135 15.3525 13.5444 16.0001 13.9771C16.6476 14.4097 17.1523 15.0247 17.4503 15.7442C17.7483 16.4636 17.8263 17.2553 17.6743 18.0191C17.5224 18.7829 17.1474 19.4845 16.5967 20.0352C16.0461 20.5859 15.3445 20.9609 14.5807 21.1128C13.8169 21.2647 13.0252 21.1868 12.3057 20.8888C11.5862 20.5907 10.9712 20.0861 10.5386 19.4385C10.1059 18.791 9.875 18.0297 9.875 17.251C9.875 16.2067 10.2898 15.2052 11.0283 14.4667C11.7667 13.7283 12.7682 13.3135 13.8125 13.3135ZM9.3125 23.4385H18.3125V25.6885H9.3125V23.4385Z" fill="#ECF7FB"/>
<path d="M25.0625 0.375977H2.5625C2.11495 0.375977 1.68572 0.553766 1.36926 0.870234C1.05279 1.1867 0.875 1.61592 0.875 2.06348L0.875 26.8135C0.875 27.261 1.05279 27.6903 1.36926 28.0067C1.68572 28.3232 2.11495 28.501 2.5625 28.501H4.25V32.4385C4.25 32.886 4.42779 33.3153 4.74426 33.6317C5.06072 33.9482 5.48995 34.126 5.9375 34.126C6.38505 34.126 6.81428 33.9482 7.13074 33.6317C7.44721 33.3153 7.625 32.886 7.625 32.4385V28.501H20V32.4385C20 32.6601 20.0436 32.8795 20.1285 33.0843C20.2133 33.289 20.3376 33.475 20.4943 33.6317C20.651 33.7884 20.837 33.9127 21.0417 33.9975C21.2465 34.0823 21.4659 34.126 21.6875 34.126C21.9091 34.126 22.1285 34.0823 22.3333 33.9975C22.538 33.9127 22.724 33.7884 22.8807 33.6317C23.0374 33.475 23.1617 33.289 23.2465 33.0843C23.3314 32.8795 23.375 32.6601 23.375 32.4385V28.501H25.0625C25.5101 28.501 25.9393 28.3232 26.2557 28.0067C26.5722 27.6903 26.75 27.261 26.75 26.8135V2.06348C26.75 1.61592 26.5722 1.1867 26.2557 0.870234C25.9393 0.553766 25.5101 0.375977 25.0625 0.375977ZM6.5 32.4385C6.5 32.5877 6.44074 32.7307 6.33525 32.8362C6.22976 32.9417 6.08668 33.001 5.9375 33.001C5.78832 33.001 5.64524 32.9417 5.53975 32.8362C5.43426 32.7307 5.375 32.5877 5.375 32.4385V28.501H6.5V32.4385ZM22.25 32.4385C22.25 32.5877 22.1907 32.7307 22.0852 32.8362C21.9798 32.9417 21.8367 33.001 21.6875 33.001C21.5383 33.001 21.3952 32.9417 21.2898 32.8362C21.1843 32.7307 21.125 32.5877 21.125 32.4385V28.501H22.25V32.4385ZM25.625 26.8135C25.625 26.9627 25.5657 27.1057 25.4602 27.2112C25.3548 27.3167 25.2117 27.376 25.0625 27.376H2.5625C2.41332 27.376 2.27024 27.3167 2.16475 27.2112C2.05926 27.1057 2 26.9627 2 26.8135V2.06348C2 1.91429 2.05926 1.77122 2.16475 1.66573C2.27024 1.56024 2.41332 1.50098 2.5625 1.50098H25.0625C25.2117 1.50098 25.3548 1.56024 25.4602 1.66573C25.5657 1.77122 25.625 1.91429 25.625 2.06348V26.8135Z" fill="#333333"/>
<path d="M13.8125 21.751C14.7025 21.751 15.5725 21.4871 16.3126 20.9926C17.0526 20.4981 17.6294 19.7953 17.97 18.9731C18.3106 18.1508 18.3997 17.246 18.226 16.3731C18.0524 15.5002 17.6238 14.6983 16.9945 14.069C16.3651 13.4397 15.5633 13.0111 14.6904 12.8374C13.8175 12.6638 12.9127 12.7529 12.0904 13.0935C11.2682 13.4341 10.5654 14.0109 10.0709 14.7509C9.57642 15.4909 9.3125 16.361 9.3125 17.251C9.3125 18.4444 9.78661 19.589 10.6305 20.433C11.4744 21.2769 12.619 21.751 13.8125 21.751ZM13.8125 13.876C14.48 13.876 15.1325 14.0739 15.6875 14.4448C16.2426 14.8156 16.6751 15.3427 16.9306 15.9594C17.186 16.5761 17.2529 17.2547 17.1227 17.9094C16.9924 18.5641 16.671 19.1655 16.199 19.6375C15.727 20.1095 15.1256 20.4309 14.4709 20.5611C13.8162 20.6914 13.1376 20.6245 12.5209 20.3691C11.9042 20.1136 11.3771 19.681 11.0063 19.126C10.6354 18.571 10.4375 17.9185 10.4375 17.251C10.4375 16.3559 10.7931 15.4974 11.426 14.8645C12.0589 14.2316 12.9174 13.876 13.8125 13.876Z" fill="#333333"/>
<path d="M22.8125 2.62598C22.4788 2.62598 22.1525 2.72495 21.875 2.91037C21.5975 3.0958 21.3812 3.35935 21.2535 3.6677C21.1257 3.97605 21.0923 4.31535 21.1574 4.64269C21.2225 4.97004 21.3832 5.27072 21.6193 5.50672C21.8553 5.74272 22.1559 5.90344 22.4833 5.96855C22.8106 6.03367 23.1499 6.00025 23.4583 5.87252C23.7666 5.7448 24.0302 5.52851 24.2156 5.251C24.401 4.97349 24.5 4.64723 24.5 4.31348C24.5 4.09187 24.4564 3.87244 24.3716 3.6677C24.2867 3.46296 24.1624 3.27693 24.0057 3.12024C23.849 2.96354 23.663 2.83923 23.4583 2.75443C23.2535 2.66962 23.0341 2.62598 22.8125 2.62598ZM22.8125 4.87598C22.7013 4.87598 22.5925 4.84299 22.5 4.78118C22.4075 4.71937 22.3354 4.63152 22.2928 4.52874C22.2502 4.42595 22.2391 4.31285 22.2608 4.20374C22.2825 4.09462 22.3361 3.9944 22.4147 3.91573C22.4934 3.83706 22.5936 3.78349 22.7028 3.76179C22.8119 3.74008 22.925 3.75122 23.0278 3.79379C23.1305 3.83637 23.2184 3.90847 23.2802 4.00097C23.342 4.09347 23.375 4.20223 23.375 4.31348C23.375 4.46266 23.3157 4.60573 23.2102 4.71122C23.1048 4.81671 22.9617 4.87598 22.8125 4.87598Z" fill="#333333"/>
<path d="M18.3125 22.876H9.3125C9.16332 22.876 9.02024 22.9352 8.91475 23.0407C8.80926 23.1462 8.75 23.2893 8.75 23.4385V25.6885C8.75 25.8377 8.80926 25.9807 8.91475 26.0862C9.02024 26.1917 9.16332 26.251 9.3125 26.251H18.3125C18.4617 26.251 18.6048 26.1917 18.7102 26.0862C18.8157 25.9807 18.875 25.8377 18.875 25.6885V23.4385C18.875 23.2893 18.8157 23.1462 18.7102 23.0407C18.6048 22.9352 18.4617 22.876 18.3125 22.876ZM17.75 25.126H9.875V24.001H17.75V25.126Z" fill="#333333"/>
</svg>
