<svg width="36" height="35" viewBox="0 0 36 35" fill="none" xmlns="http://www.w3.org/2000/svg">
<path d="M34.7422 6.75098H0.992188V23.001H34.7422V6.75098Z" fill="#ECF7FB"/>
<path d="M1.11812 7.9173H14.0969V22.1323C14.0969 22.2135 14.1129 22.2938 14.1439 22.3688C14.175 22.4438 14.2205 22.512 14.2779 22.5694C14.3353 22.6268 14.4035 22.6723 14.4785 22.7034C14.5534 22.7344 14.6338 22.7504 14.715 22.7504C14.7962 22.7504 14.8766 22.7344 14.9515 22.7034C15.0265 22.6723 15.0947 22.6268 15.1521 22.5694C15.2095 22.512 15.255 22.4438 15.2861 22.3688C15.3171 22.2938 15.3331 22.2135 15.3331 22.1323V19.0423H25.2219V22.1323C25.2219 22.2962 25.287 22.4535 25.4029 22.5694C25.5188 22.6853 25.6761 22.7504 25.84 22.7504C26.0039 22.7504 26.1612 22.6853 26.2771 22.5694C26.393 22.4535 26.4581 22.2962 26.4581 22.1323V7.9173H34.4925C34.6564 7.9173 34.8137 7.85217 34.9296 7.73625C35.0455 7.62033 35.1106 7.46311 35.1106 7.29917C35.1106 7.13523 35.0455 6.97801 34.9296 6.86209C34.8137 6.74617 34.6564 6.68105 34.4925 6.68105H26.4575V3.59105C26.4575 2.77145 26.1319 1.98541 25.5524 1.40586C24.9728 0.826319 24.1868 0.500732 23.3672 0.500732C22.5476 0.500732 21.7616 0.826319 21.182 1.40586C20.6025 1.98541 20.2769 2.77145 20.2769 3.59105V6.68105H15.3325V3.59105C15.3325 2.77145 15.0069 1.98541 14.4274 1.40586C13.8478 0.826319 13.0618 0.500732 12.2422 0.500732C11.4226 0.500732 10.6366 0.826319 10.057 1.40586C9.47746 1.98541 9.15188 2.77145 9.15188 3.59105V6.68105H1.11812C0.954187 6.68105 0.796966 6.74617 0.681046 6.86209C0.565125 6.97801 0.5 7.13523 0.5 7.29917C0.5 7.46311 0.565125 7.62033 0.681046 7.73625C0.796966 7.85217 0.954187 7.9173 1.11812 7.9173ZM25.2213 14.0979H15.3325V11.626H25.2213V14.0979ZM15.3325 17.806V15.3342H25.2213V17.806H15.3325ZM21.5131 3.59105C21.522 3.10521 21.7213 2.6423 22.068 2.30187C22.4148 1.96144 22.8813 1.77071 23.3672 1.77071C23.8531 1.77071 24.3196 1.96144 24.6663 2.30187C25.0131 2.6423 25.2123 3.10521 25.2213 3.59105V6.68105H21.5131V3.59105ZM25.2213 7.9173V10.3892H15.3325V7.9173H25.2213ZM10.3888 3.59105C10.3977 3.10521 10.5969 2.6423 10.9437 2.30187C11.2904 1.96144 11.7569 1.77071 12.2428 1.77071C12.7287 1.77071 13.1952 1.96144 13.542 2.30187C13.8887 2.6423 14.088 3.10521 14.0969 3.59105V6.68105H10.3888V3.59105Z" fill="#333333"/>
<path d="M34.4905 26.2235C34.1178 26.2244 33.7489 26.1487 33.4066 26.0014C33.0644 25.854 32.756 25.638 32.5005 25.3666C31.7599 24.6326 30.7594 24.2208 29.7167 24.2208C28.674 24.2208 27.6735 24.6326 26.933 25.3666C26.6774 25.6371 26.3693 25.8526 26.0276 25.9999C25.6858 26.1471 25.3176 26.2231 24.9455 26.2231C24.5733 26.2231 24.2051 26.1471 23.8634 25.9999C23.5216 25.8526 23.2135 25.6371 22.958 25.3666C22.2186 24.6323 21.2188 24.2202 20.1767 24.2202C19.1346 24.2202 18.1349 24.6323 17.3955 25.3666C17.1405 25.6371 16.833 25.8526 16.4918 25.9999C16.1505 26.1472 15.7828 26.2232 15.4111 26.2232C15.0394 26.2232 14.6717 26.1472 14.3304 25.9999C13.9892 25.8526 13.6816 25.6371 13.4267 25.3666C12.6873 24.6323 11.6875 24.2202 10.6455 24.2202C9.60339 24.2202 8.60361 24.6323 7.86422 25.3666C7.60913 25.6371 7.30148 25.8525 6.96014 25.9998C6.6188 26.147 6.25097 26.223 5.87922 26.223C5.50747 26.223 5.13964 26.147 4.7983 25.9998C4.45695 25.8525 4.1493 25.6371 3.89422 25.3666C3.52989 25.001 3.09649 24.7114 2.61924 24.5147C2.14199 24.318 1.6304 24.2182 1.11422 24.221C0.950281 24.221 0.79306 24.2862 0.677139 24.4021C0.561218 24.518 0.496094 24.6752 0.496094 24.8391C0.496094 25.0031 0.561218 25.1603 0.677139 25.2762C0.79306 25.3921 0.950281 25.4573 1.11422 25.4573C1.48613 25.4566 1.85422 25.5323 2.19567 25.6797C2.53712 25.827 2.84466 26.043 3.09922 26.3141C3.83861 27.0485 4.83839 27.4606 5.88047 27.4606C6.92254 27.4606 7.92233 27.0485 8.66172 26.3141C8.91664 26.0437 9.22417 25.8282 9.56542 25.6809C9.90666 25.5336 10.2744 25.4576 10.6461 25.4576C11.0178 25.4576 11.3855 25.5336 11.7268 25.6809C12.068 25.8282 12.3755 26.0437 12.6305 26.3141C13.3699 27.0485 14.3696 27.4606 15.4117 27.4606C16.4538 27.4606 17.4536 27.0485 18.193 26.3141C18.4481 26.0437 18.7557 25.8283 19.097 25.681C19.4384 25.5338 19.8062 25.4578 20.178 25.4578C20.5497 25.4578 20.9175 25.5338 21.2589 25.681C21.6002 25.8283 21.9079 26.0437 22.163 26.3141C22.9027 27.0479 23.9023 27.4596 24.9442 27.4596C25.9861 27.4596 26.9858 27.0479 27.7255 26.3141C27.9815 26.0436 28.2901 25.8281 28.6322 25.6809C28.9744 25.5336 29.343 25.4576 29.7155 25.4576C30.088 25.4576 30.4566 25.5336 30.7987 25.6809C31.1409 25.8281 31.4494 26.0436 31.7055 26.3141C32.0705 26.6799 32.5045 26.9696 32.9824 27.1662C33.4603 27.3629 33.9725 27.4627 34.4892 27.4598C34.6532 27.4598 34.8104 27.3946 34.9263 27.2787C35.0422 27.1628 35.1073 27.0056 35.1073 26.8416C35.1073 26.6777 35.0422 26.5205 34.9263 26.4046C34.8104 26.2886 34.6532 26.2235 34.4892 26.2235H34.4905Z" fill="#333333"/>
<path d="M34.4905 29.9318C34.1178 29.9326 33.7489 29.857 33.4066 29.7096C33.0644 29.5622 32.756 29.3462 32.5005 29.0749C31.7599 28.3409 30.7594 27.929 29.7167 27.929C28.674 27.929 27.6735 28.3409 26.933 29.0749C26.6774 29.3454 26.3693 29.5609 26.0276 29.7081C25.6858 29.8554 25.3176 29.9313 24.9455 29.9313C24.5733 29.9313 24.2051 29.8554 23.8634 29.7081C23.5216 29.5609 23.2135 29.3454 22.958 29.0749C22.2186 28.3406 21.2188 27.9285 20.1767 27.9285C19.1346 27.9285 18.1349 28.3406 17.3955 29.0749C17.1405 29.3454 16.833 29.5609 16.4918 29.7082C16.1505 29.8555 15.7828 29.9314 15.4111 29.9314C15.0394 29.9314 14.6717 29.8555 14.3304 29.7082C13.9892 29.5609 13.6816 29.3454 13.4267 29.0749C12.6873 28.3406 11.6875 27.9285 10.6455 27.9285C9.60339 27.9285 8.60361 28.3406 7.86422 29.0749C7.60913 29.3453 7.30148 29.5608 6.96014 29.708C6.6188 29.8553 6.25097 29.9313 5.87922 29.9313C5.50747 29.9313 5.13964 29.8553 4.7983 29.708C4.45695 29.5608 4.1493 29.3453 3.89422 29.0749C3.52989 28.7092 3.09649 28.4196 2.61924 28.223C2.14199 28.0263 1.6304 27.9265 1.11422 27.9293C0.950281 27.9293 0.79306 27.9944 0.677139 28.1103C0.561218 28.2262 0.496094 28.3835 0.496094 28.5474C0.496094 28.7113 0.561218 28.8686 0.677139 28.9845C0.79306 29.1004 0.950281 29.1655 1.11422 29.1655C1.48613 29.1648 1.85422 29.2405 2.19567 29.3879C2.53712 29.5353 2.84466 29.7513 3.09922 30.0224C3.83861 30.7567 4.83839 31.1688 5.88047 31.1688C6.92254 31.1688 7.92233 30.7567 8.66172 30.0224C8.91664 29.7519 9.22417 29.5364 9.56542 29.3891C9.90666 29.2418 10.2744 29.1658 10.6461 29.1658C11.0178 29.1658 11.3855 29.2418 11.7268 29.3891C12.068 29.5364 12.3755 29.7519 12.6305 30.0224C13.3699 30.7567 14.3696 31.1688 15.4117 31.1688C16.4538 31.1688 17.4536 30.7567 18.193 30.0224C18.4481 29.752 18.7557 29.5365 19.097 29.3893C19.4384 29.242 19.8062 29.166 20.178 29.166C20.5497 29.166 20.9175 29.242 21.2589 29.3893C21.6002 29.5365 21.9079 29.752 22.163 30.0224C22.9027 30.7561 23.9023 31.1678 24.9442 31.1678C25.9861 31.1678 26.9858 30.7561 27.7255 30.0224C27.9815 29.7519 28.2901 29.5364 28.6322 29.3891C28.9744 29.2418 29.343 29.1659 29.7155 29.1659C30.088 29.1659 30.4566 29.2418 30.7987 29.3891C31.1409 29.5364 31.4494 29.7519 31.7055 30.0224C32.0705 30.3882 32.5045 30.6778 32.9824 30.8745C33.4603 31.0711 33.9725 31.1709 34.4892 31.168C34.6532 31.168 34.8104 31.1029 34.9263 30.987C35.0422 30.8711 35.1073 30.7138 35.1073 30.5499C35.1073 30.386 35.0422 30.2287 34.9263 30.1128C34.8104 29.9969 34.6532 29.9318 34.4892 29.9318H34.4905Z" fill="#333333"/>
<path d="M34.4905 33.6398C34.1178 33.6406 33.7489 33.565 33.4066 33.4176C33.0644 33.2702 32.756 33.0542 32.5005 32.7829C31.7599 32.0489 30.7594 31.6371 29.7167 31.6371C28.674 31.6371 27.6735 32.0489 26.933 32.7829C26.6774 33.0534 26.3693 33.2689 26.0276 33.4161C25.6858 33.5634 25.3176 33.6393 24.9455 33.6393C24.5733 33.6393 24.2051 33.5634 23.8634 33.4161C23.5216 33.2689 23.2135 33.0534 22.958 32.7829C22.2186 32.0486 21.2188 31.6365 20.1767 31.6365C19.1346 31.6365 18.1349 32.0486 17.3955 32.7829C17.1405 33.0534 16.833 33.2689 16.4918 33.4162C16.1505 33.5635 15.7828 33.6395 15.4111 33.6395C15.0394 33.6395 14.6717 33.5635 14.3304 33.4162C13.9892 33.2689 13.6816 33.0534 13.4267 32.7829C12.6873 32.0486 11.6875 31.6365 10.6455 31.6365C9.60339 31.6365 8.60361 32.0486 7.86422 32.7829C7.60913 33.0533 7.30148 33.2688 6.96014 33.416C6.6188 33.5633 6.25097 33.6393 5.87922 33.6393C5.50747 33.6393 5.13964 33.5633 4.7983 33.416C4.45695 33.2688 4.1493 33.0533 3.89422 32.7829C3.52989 32.4172 3.09649 32.1277 2.61924 31.931C2.14199 31.7343 1.6304 31.6345 1.11422 31.6373C0.950281 31.6373 0.79306 31.7024 0.677139 31.8183C0.561218 31.9343 0.496094 32.0915 0.496094 32.2554C0.496094 32.4193 0.561218 32.5766 0.677139 32.6925C0.79306 32.8084 0.950281 32.8735 1.11422 32.8735C1.48613 32.8728 1.85422 32.9485 2.19567 33.0959C2.53712 33.2433 2.84466 33.4593 3.09922 33.7304C3.83861 34.4647 4.83839 34.8768 5.88047 34.8768C6.92254 34.8768 7.92233 34.4647 8.66172 33.7304C8.91664 33.4599 9.22417 33.2444 9.56542 33.0971C9.90666 32.9498 10.2744 32.8739 10.6461 32.8739C11.0178 32.8739 11.3855 32.9498 11.7268 33.0971C12.068 33.2444 12.3755 33.4599 12.6305 33.7304C13.3699 34.4647 14.3696 34.8768 15.4117 34.8768C16.4538 34.8768 17.4536 34.4647 18.193 33.7304C18.4481 33.46 18.7557 33.2445 19.097 33.0973C19.4384 32.95 19.8062 32.874 20.178 32.874C20.5497 32.874 20.9175 32.95 21.2589 33.0973C21.6002 33.2445 21.9079 33.46 22.163 33.7304C22.9027 34.4641 23.9023 34.8758 24.9442 34.8758C25.9861 34.8758 26.9858 34.4641 27.7255 33.7304C27.9815 33.4599 28.2901 33.2444 28.6322 33.0971C28.9744 32.9498 29.343 32.8739 29.7155 32.8739C30.088 32.8739 30.4566 32.9498 30.7987 33.0971C31.1409 33.2444 31.4494 33.4599 31.7055 33.7304C32.0705 34.0962 32.5045 34.3858 32.9824 34.5825C33.4603 34.7791 33.9725 34.8789 34.4892 34.876C34.6532 34.876 34.8104 34.8109 34.9263 34.695C35.0422 34.5791 35.1073 34.4218 35.1073 34.2579C35.1073 34.094 35.0422 33.9367 34.9263 33.8208C34.8104 33.7049 34.6532 33.6398 34.4892 33.6398H34.4905Z" fill="#333333"/>
</svg>
