<svg width="35" height="33" viewBox="0 0 35 33" fill="none" xmlns="http://www.w3.org/2000/svg">
<path d="M0.714844 7.35547H9.51922V16.1592H0.714844V7.35547Z" fill="#ECF7FB"/>
<path d="M9.5175 16.7477H0.71375C0.636411 16.7478 0.559816 16.7327 0.488348 16.7031C0.416881 16.6735 0.351945 16.6302 0.297258 16.5755C0.242571 16.5208 0.199207 16.4559 0.169649 16.3844C0.14009 16.3129 0.124918 16.2363 0.125 16.159V7.35462C0.124918 7.27728 0.14009 7.20068 0.169649 7.12921C0.199207 7.05775 0.242571 6.99281 0.297258 6.93813C0.351945 6.88344 0.416881 6.84007 0.488348 6.81052C0.559816 6.78096 0.636411 6.76579 0.71375 6.76587H9.5175C9.59484 6.76579 9.67144 6.78096 9.7429 6.81052C9.81437 6.84007 9.87931 6.88344 9.93399 6.93813C9.98868 6.99281 10.032 7.05775 10.0616 7.12921C10.0912 7.20068 10.1063 7.27728 10.1063 7.35462V16.159C10.1063 16.2363 10.0912 16.3129 10.0616 16.3844C10.032 16.4559 9.98868 16.5208 9.93399 16.5755C9.87931 16.6302 9.81437 16.6735 9.7429 16.7031C9.67144 16.7327 9.59484 16.7478 9.5175 16.7477ZM1.30188 15.5702H8.92688V7.94212H1.30188V15.5702Z" fill="#333333"/>
<path d="M8.96875 7.35547H17.2225V15.0586H8.96875V7.35547Z" fill="#ECF7FB"/>
<path d="M17.2217 15.6091H8.96797C8.89569 15.6091 8.82412 15.5948 8.75735 15.5671C8.69058 15.5395 8.62992 15.4989 8.57884 15.4478C8.52776 15.3966 8.48726 15.3359 8.45965 15.2691C8.43205 15.2023 8.41789 15.1307 8.41797 15.0584V7.35469C8.41797 7.20882 8.47591 7.06892 8.57906 6.96578C8.6822 6.86263 8.8221 6.80469 8.96797 6.80469H17.2217C17.294 6.80461 17.3656 6.81877 17.4324 6.84637C17.4992 6.87398 17.5599 6.91448 17.611 6.96556C17.6622 7.01664 17.7027 7.0773 17.7304 7.14407C17.7581 7.21084 17.7723 7.28241 17.7723 7.35469V15.0578C17.7724 15.1302 17.7582 15.2018 17.7306 15.2687C17.703 15.3356 17.6624 15.3964 17.6113 15.4476C17.5602 15.4988 17.4994 15.5394 17.4326 15.5671C17.3657 15.5948 17.2941 15.6091 17.2217 15.6091ZM9.51797 14.5084H16.6711V7.90531H9.5186L9.51797 14.5084Z" fill="#333333"/>
<path d="M17.2188 7.35547H25.4725V15.0586H17.2188V7.35547Z" fill="#ECF7FB"/>
<path d="M25.4763 15.6091H17.2225C17.1502 15.6091 17.0785 15.595 17.0117 15.5673C16.9448 15.5397 16.8841 15.4991 16.833 15.448C16.7818 15.3968 16.7413 15.3361 16.7136 15.2693C16.686 15.2024 16.6718 15.1308 16.6719 15.0584V7.35469C16.6719 7.28241 16.6861 7.21084 16.7138 7.14407C16.7415 7.0773 16.7821 7.01664 16.8332 6.96556C16.8843 6.91448 16.945 6.87398 17.0118 6.84637C17.0786 6.81877 17.1502 6.80461 17.2225 6.80469H25.4763C25.5485 6.80461 25.6201 6.81877 25.6869 6.84637C25.7537 6.87398 25.8144 6.91448 25.8656 6.96556C25.9167 7.01664 25.9573 7.0773 25.985 7.14407C26.0126 7.21084 26.0269 7.28241 26.0269 7.35469V15.0578C26.027 15.1302 26.0129 15.2019 25.9853 15.2688C25.9577 15.3357 25.9172 15.3965 25.866 15.4478C25.8149 15.499 25.7541 15.5396 25.6872 15.5673C25.6203 15.5949 25.5486 15.6091 25.4763 15.6091ZM17.7731 14.5084H24.9263V7.90531H17.7731V14.5084Z" fill="#333333"/>
<path d="M24.9258 7.35547H33.7295V16.1592H24.9258V7.35547Z" fill="#ECF7FB"/>
<path d="M33.7266 16.7477H24.9247C24.8473 16.7478 24.7708 16.7327 24.6993 16.7031C24.6278 16.6735 24.5629 16.6302 24.5082 16.5755C24.4535 16.5208 24.4101 16.4559 24.3806 16.3844C24.351 16.3129 24.3359 16.2363 24.3359 16.159V7.35462C24.3359 7.27728 24.351 7.20068 24.3806 7.12921C24.4101 7.05775 24.4535 6.99281 24.5082 6.93813C24.5629 6.88344 24.6278 6.84007 24.6993 6.81052C24.7708 6.78096 24.8473 6.76579 24.9247 6.76587H33.7266C33.8039 6.76579 33.8805 6.78096 33.952 6.81052C34.0234 6.84007 34.0884 6.88344 34.143 6.93813C34.1977 6.99281 34.2411 7.05775 34.2707 7.12921C34.3002 7.20068 34.3154 7.27728 34.3153 7.35462V16.159C34.3154 16.2363 34.3002 16.3129 34.2707 16.3844C34.2411 16.4559 34.1977 16.5208 34.143 16.5755C34.0884 16.6302 34.0234 16.6735 33.952 16.7031C33.8805 16.7327 33.8039 16.7478 33.7266 16.7477ZM25.5109 15.5702H33.1359V7.94212H25.5109V15.5702Z" fill="#333333"/>
<path d="M9.51922 21.6616H0.714844V15.5847L5.11672 13.5378L9.51859 15.5847L9.51922 21.6616Z" fill="white"/>
<path d="M9.51906 22.2117H0.714688C0.642409 22.2118 0.570822 22.1976 0.50402 22.17C0.437219 22.1424 0.376514 22.1019 0.325375 22.0508C0.274237 21.9997 0.233668 21.9391 0.205989 21.8723C0.17831 21.8055 0.164063 21.734 0.164063 21.6617V15.5854C0.163898 15.4804 0.193758 15.3776 0.250123 15.289C0.306487 15.2004 0.387007 15.1298 0.482188 15.0854L4.88406 13.0386C4.9569 13.0051 5.0361 12.9878 5.11625 12.9878C5.1964 12.9878 5.2756 13.0051 5.34844 13.0386L9.75031 15.0854C9.84549 15.1298 9.92601 15.2004 9.98238 15.289C10.0387 15.3776 10.0686 15.4804 10.0684 15.5854V21.6617C10.0684 21.8075 10.0106 21.9473 9.90757 22.0504C9.80456 22.1535 9.66482 22.2115 9.51906 22.2117ZM1.26531 21.1117H8.96844V15.9361L5.11906 14.1448L1.26719 15.9361L1.26531 21.1117Z" fill="#333333"/>
<path d="M17.2225 21.6616H8.96875V15.5847L13.0938 13.5378L17.2188 15.5847L17.2225 21.6616Z" fill="white"/>
<path d="M17.2217 22.2117H8.96797C8.8221 22.2117 8.6822 22.1538 8.57906 22.0506C8.47591 21.9475 8.41797 21.8076 8.41797 21.6617V15.5854C8.41794 15.483 8.44654 15.3826 8.50055 15.2956C8.55455 15.2086 8.63181 15.1384 8.72359 15.093L12.8486 13.0461C12.9246 13.0085 13.0082 12.989 13.093 12.989C13.1777 12.989 13.2613 13.0085 13.3373 13.0461L17.4623 15.093C17.5543 15.1382 17.6317 15.2084 17.6858 15.2954C17.74 15.3825 17.7686 15.4829 17.7686 15.5854V21.6617C17.7686 21.807 17.7111 21.9465 17.6086 22.0495C17.5061 22.1526 17.367 22.2109 17.2217 22.2117ZM9.51797 21.1111H16.6711V15.9236L13.0948 14.1498L9.51797 15.9236V21.1111Z" fill="#333333"/>
<path d="M29.4972 26.6711L25.4347 29.3461L21.3966 26.6711L17.3691 29.3461L13.3472 26.6711L9.32844 29.3461L5.08594 26.6711L0.710938 29.433V32.2505L5.08031 29.4893L9.20531 32.1643L13.2734 29.4893L17.3097 32.1643L21.3234 29.4893L25.3141 32.1643L29.4866 29.4893L33.7241 32.2505V29.433L29.4972 26.6711Z" fill="#333333"/>
<path d="M33.7303 32.8018C33.6236 32.8015 33.5192 32.7705 33.4297 32.7124L29.4922 30.1449L25.6172 32.6274C25.5267 32.6849 25.4216 32.7149 25.3144 32.7138C25.2072 32.7127 25.1027 32.6805 25.0134 32.6211L21.3259 30.1511L17.6191 32.6218C17.5288 32.6818 17.4228 32.7139 17.3144 32.7139C17.206 32.7139 17.1 32.6818 17.0097 32.6218L13.2766 30.148L9.51156 32.623C9.42207 32.6811 9.31765 32.7121 9.21094 32.7121C9.10423 32.7121 8.9998 32.6811 8.91031 32.623L5.07906 30.1405L1.00844 32.7186C0.925233 32.7714 0.829398 32.8008 0.730943 32.8038C0.632489 32.8068 0.535029 32.7833 0.448747 32.7358C0.362465 32.6883 0.290526 32.6185 0.240448 32.5337C0.19037 32.4489 0.163989 32.3521 0.164063 32.2536V29.4355C0.164127 29.3426 0.187718 29.2512 0.232636 29.1699C0.277555 29.0886 0.342336 29.02 0.420938 28.9705L4.79594 26.2086C4.88395 26.1534 4.98577 26.1241 5.08969 26.1241C5.19361 26.1241 5.29542 26.1534 5.38344 26.2086L9.32406 28.693L13.0466 26.2161C13.1368 26.156 13.2428 26.1239 13.3513 26.1239C13.4597 26.1239 13.5657 26.156 13.6559 26.2161L17.3691 28.6855L21.0916 26.2136C21.1818 26.1541 21.2875 26.1223 21.3956 26.1223C21.5037 26.1223 21.6095 26.1541 21.6997 26.2136L25.4347 28.688L29.1916 26.213C29.281 26.1542 29.3858 26.1229 29.4928 26.1229C29.5999 26.1229 29.7046 26.1542 29.7941 26.213L34.0284 28.9749C34.1052 29.0249 34.1683 29.0933 34.2119 29.1738C34.2556 29.2544 34.2784 29.3445 34.2784 29.4361V32.2543C34.2785 32.3265 34.2644 32.3981 34.2367 32.4648C34.2091 32.5316 34.1686 32.5923 34.1175 32.6433C34.0664 32.6944 34.0058 32.7349 33.939 32.7626C33.8722 32.7902 33.8007 32.8043 33.7284 32.8043L33.7303 32.8018ZM5.08406 28.9393C5.19035 28.9392 5.29436 28.97 5.38344 29.028L9.20844 31.5068L12.9772 29.0299C13.0672 28.9707 13.1726 28.9392 13.2803 28.9392C13.388 28.9392 13.4934 28.9707 13.5834 29.0299L17.3147 31.503L21.0241 29.0311C21.1147 28.9707 21.2211 28.9384 21.33 28.9384C21.4389 28.9384 21.5454 28.9707 21.6359 29.0311L25.3272 31.5055L29.1953 29.0255C29.2843 28.968 29.3881 28.9374 29.4941 28.9374C29.6001 28.9374 29.7038 28.968 29.7928 29.0255L33.1797 31.2324V29.728L29.4972 27.3261L25.7384 29.8024C25.6485 29.8618 25.5431 29.8934 25.4353 29.8934C25.3275 29.8934 25.2221 29.8618 25.1322 29.8024L21.3984 27.3293L17.6753 29.8018C17.585 29.8617 17.479 29.8936 17.3706 29.8936C17.2622 29.8936 17.1563 29.8617 17.0659 29.8018L13.3484 27.3299L9.63469 29.8011C9.54649 29.8603 9.44296 29.8926 9.33674 29.8939C9.23052 29.8952 9.12622 29.8656 9.03656 29.8086L5.08781 27.3224L1.26531 29.7361V31.2524L4.79031 29.0243C4.87832 28.969 4.98011 28.9395 5.08406 28.9393Z" fill="#333333"/>
<path d="M25.4731 21.6616H17.2188V15.5847L21.3437 13.5378L25.4687 15.5847L25.4731 21.6616Z" fill="white"/>
<path d="M25.4763 22.2117H17.2225C17.1502 22.2118 17.0786 22.1976 17.0118 22.17C16.945 22.1424 16.8843 22.1019 16.8332 22.0508C16.7821 21.9997 16.7415 21.9391 16.7138 21.8723C16.6861 21.8055 16.6719 21.734 16.6719 21.6617V15.5854C16.6718 15.483 16.7004 15.3826 16.7545 15.2956C16.8085 15.2086 16.8857 15.1384 16.9775 15.093L21.1025 13.0461C21.1785 13.0085 21.2621 12.989 21.3469 12.989C21.4316 12.989 21.5153 13.0085 21.5913 13.0461L25.7163 15.093C25.8082 15.1382 25.8856 15.2084 25.9398 15.2954C25.9939 15.3825 26.0225 15.4829 26.0225 15.5854V21.6617C26.0225 21.8069 25.9651 21.9463 25.8627 22.0493C25.7604 22.1523 25.6215 22.2107 25.4763 22.2117ZM17.7731 21.1111H24.9263V15.9236L21.3494 14.1498L17.7731 15.9236V21.1111Z" fill="#333333"/>
<path d="M33.7295 21.6616H24.9258V15.5847L29.3277 13.5378L33.7295 15.5847V21.6616Z" fill="white"/>
<path d="M33.73 22.2117H24.9256C24.8534 22.2118 24.7818 22.1976 24.715 22.17C24.6482 22.1424 24.5875 22.1019 24.5363 22.0508C24.4852 21.9997 24.4446 21.9391 24.4169 21.8723C24.3893 21.8055 24.375 21.734 24.375 21.6617V15.5854C24.3748 15.4804 24.4047 15.3776 24.4611 15.289C24.5174 15.2004 24.5979 15.1298 24.6931 15.0854L29.095 13.0386C29.1678 13.0051 29.2471 12.9878 29.3272 12.9878C29.4074 12.9878 29.4865 13.0051 29.5594 13.0386L33.9613 15.0854C34.0564 15.1298 34.137 15.2004 34.1933 15.289C34.2497 15.3776 34.2795 15.4804 34.2794 15.5854V21.6617C34.2794 21.8075 34.2215 21.9473 34.1185 22.0504C34.0155 22.1535 33.8758 22.2115 33.73 22.2117ZM25.4763 21.1111H33.18V15.9354L29.3281 14.1442L25.4763 15.9354V21.1111Z" fill="#333333"/>
<path d="M29.3277 18.6267L24.9258 21.1536V28.2011L25.1589 28.2455L29.4089 25.5705L33.727 28.3317V21.1542L29.3277 18.6267Z" fill="#ECF7FB"/>
<path d="M33.6975 28.8696C33.6038 28.8705 33.5118 28.8445 33.4325 28.7946L29.4081 26.2215L25.4513 28.7096C25.3336 28.7832 25.1926 28.8098 25.0562 28.784L24.8231 28.7396C24.6971 28.7159 24.5834 28.6488 24.5016 28.5501C24.4197 28.4514 24.375 28.3272 24.375 28.199V21.154C24.375 21.0571 24.4005 20.962 24.449 20.8781C24.4975 20.7943 24.5673 20.7247 24.6513 20.6765L29.0531 18.1496C29.1365 18.1015 29.231 18.0762 29.3272 18.0762C29.4234 18.0762 29.5179 18.1015 29.6013 18.1496L34.0031 20.6765C34.0871 20.7247 34.1569 20.7942 34.2055 20.8781C34.254 20.9619 34.2795 21.0571 34.2794 21.154V28.2877C34.2796 28.3894 34.2534 28.4895 34.2033 28.578C34.1533 28.6665 34.081 28.7405 33.9938 28.7927C33.9029 28.8425 33.8011 28.8689 33.6975 28.8696ZM25.4725 21.4727V27.3959L29.1156 25.1052C29.2038 25.0495 29.306 25.02 29.4103 25.02C29.5146 25.02 29.6168 25.0495 29.705 25.1052L33.1763 27.3259V21.4709L29.3244 19.2596L25.4725 21.4727Z" fill="#333333"/>
<path d="M17.3383 28.2453L21.3383 25.5703L25.2995 28.2453L25.4727 28.1128V21.1541L21.3477 18.6272L17.2227 21.1541V28.1697L17.3383 28.2453Z" fill="#ECF7FB"/>
<path d="M17.3388 28.7954C17.2325 28.7954 17.1285 28.7646 17.0394 28.7066L16.9219 28.6304C16.845 28.5803 16.7819 28.5118 16.7383 28.4312C16.6946 28.3505 16.6718 28.2602 16.6719 28.1685V21.1535C16.6719 21.0593 16.696 20.9666 16.7421 20.8845C16.7882 20.8023 16.8546 20.7333 16.935 20.6841L21.06 18.1566C21.1464 18.1034 21.246 18.0752 21.3475 18.0752C21.449 18.0752 21.5486 18.1034 21.635 18.1566L25.76 20.6841C25.8404 20.7333 25.9068 20.8023 25.9529 20.8845C25.999 20.9666 26.0231 21.0593 26.0231 21.1535V28.1123C26.0231 28.1969 26.0036 28.2804 25.9661 28.3563C25.9286 28.4322 25.8741 28.4984 25.8069 28.5498L25.6331 28.6823C25.5415 28.7522 25.4302 28.7917 25.315 28.7952C25.1998 28.7986 25.0863 28.7659 24.9906 28.7016L21.3363 26.2341L17.6419 28.7029C17.5521 28.7628 17.4467 28.7949 17.3388 28.7954ZM21.3388 25.0204C21.4486 25.0202 21.556 25.0531 21.6469 25.1148L24.9231 27.3273V21.4623L21.3463 19.2748L17.77 21.4623V27.2941L21.0331 25.1135C21.1241 25.0526 21.2311 25.0202 21.3406 25.0204H21.3388Z" fill="#333333"/>
<path d="M9.20562 28.2453L13.275 25.5703L17.1775 28.2453L17.2187 28.1472V21.1541L13.0937 18.6272L8.96875 21.1541V28.1616L9.20562 28.2453Z" fill="#ECF7FB"/>
<path d="M17.1823 28.7954C17.0708 28.7958 16.9618 28.7622 16.8698 28.6991L13.2717 26.2329L9.51109 28.7048C9.44039 28.7513 9.35988 28.7809 9.27586 28.7912C9.19184 28.8015 9.10657 28.7922 9.02672 28.7641L8.7861 28.6798C8.67841 28.6421 8.5851 28.5719 8.51914 28.4788C8.45317 28.3858 8.41781 28.2745 8.41797 28.1604V21.1535C8.41782 21.0593 8.44189 20.9667 8.48786 20.8845C8.53383 20.8023 8.60015 20.7333 8.68047 20.6841L12.8055 18.1566C12.8919 18.1034 12.9914 18.0752 13.093 18.0752C13.1945 18.0752 13.294 18.1034 13.3805 18.1566L17.5055 20.6841C17.5859 20.7333 17.6523 20.8023 17.6984 20.8845C17.7444 20.9666 17.7686 21.0593 17.7686 21.1535V28.1466C17.7685 28.2198 17.7538 28.2923 17.7255 28.3598L17.6842 28.4579C17.642 28.5577 17.5714 28.6428 17.4811 28.7028C17.3909 28.7628 17.2851 28.795 17.1767 28.7954H17.1823ZM9.51984 21.4616V27.3829L12.9767 25.1104C13.0681 25.0508 13.175 25.0195 13.2841 25.0205C13.3932 25.0215 13.4996 25.0547 13.5898 25.116L16.6723 27.2291V21.4616L13.0961 19.2741L9.51984 21.4616Z" fill="#333333"/>
<path d="M8.71125 28.2455L8.96875 28.1555V21.388L4.84375 18.6267L0.71875 21.388V28.3317L4.77625 25.5705L8.71125 28.2455Z" fill="#ECF7FB"/>
<path d="M0.714688 28.883C0.642356 28.8831 0.570718 28.8689 0.503875 28.8412C0.437033 28.8136 0.3763 28.773 0.325154 28.7219C0.274007 28.6707 0.233452 28.61 0.205809 28.5432C0.178167 28.4763 0.163981 28.4047 0.164063 28.3323V21.388C0.164017 21.2976 0.186301 21.2086 0.228933 21.1289C0.271566 21.0492 0.333227 20.9812 0.408438 20.9311L4.53344 18.1692C4.62405 18.1089 4.7305 18.0767 4.83938 18.0767C4.94825 18.0767 5.0547 18.1089 5.14531 18.1692L9.27031 20.9311C9.34552 20.9812 9.40719 21.0492 9.44982 21.1289C9.49245 21.2086 9.51473 21.2976 9.51469 21.388V28.1555C9.5147 28.2698 9.47915 28.3812 9.41296 28.4744C9.34678 28.5676 9.25323 28.6379 9.14531 28.6755L8.88781 28.7655C8.8069 28.7939 8.72048 28.803 8.63542 28.7922C8.55036 28.7813 8.469 28.7508 8.39781 28.703L4.76906 26.2386L1.01906 28.7898C0.928969 28.8501 0.823096 28.8825 0.714688 28.883ZM4.77219 25.0211C4.88231 25.021 4.9899 25.0541 5.08094 25.1161L8.41781 27.3817V21.6824L4.84094 19.2892L1.26469 21.6824V27.2923L4.46281 25.1149C4.5542 25.0532 4.66195 25.0203 4.77219 25.0205V25.0211Z" fill="#333333"/>
<path d="M29.4933 25.571L25.4308 28.246L21.3927 25.571L17.3652 28.246L13.3433 25.571L9.32453 28.246L5.08203 25.571L0.707031 28.3323V31.1504L5.07641 28.3885L9.20141 31.0635L13.2695 28.3885L17.3058 31.0635L21.3195 28.3885L25.3102 31.0635L29.4827 28.3885L33.7202 31.1504V28.3323L29.4933 25.571Z" fill="white"/>
<path d="M33.7297 31.7004C33.6229 31.7003 33.5185 31.6692 33.4291 31.611L29.4916 29.0435L25.6184 31.5254C25.5281 31.5829 25.4229 31.6131 25.3157 31.6121C25.2086 31.6111 25.104 31.579 25.0147 31.5197L21.3272 29.0497L17.6184 31.521C17.5281 31.5808 17.4221 31.6127 17.3138 31.6127C17.2054 31.6127 17.0994 31.5808 17.0091 31.521L13.2759 29.0472L9.51094 31.5222C9.42153 31.5806 9.31708 31.6117 9.21031 31.6117C9.10355 31.6117 8.99909 31.5806 8.90969 31.5222L5.07844 29.0397L1.00656 31.6135C0.923486 31.6654 0.828056 31.6943 0.730119 31.697C0.632183 31.6998 0.535286 31.6763 0.449428 31.6291C0.36357 31.5819 0.291859 31.5127 0.241696 31.4285C0.191533 31.3443 0.164733 31.2483 0.164062 31.1504V28.3322C0.164079 28.2392 0.187645 28.1478 0.232563 28.0663C0.277481 27.9849 0.342287 27.9162 0.420938 27.8666L4.79594 25.1054C4.88395 25.0501 4.98577 25.0208 5.08969 25.0208C5.19361 25.0208 5.29542 25.0501 5.38344 25.1054L9.32406 27.5897L13.0466 25.1129C13.1368 25.0528 13.2428 25.0208 13.3513 25.0208C13.4597 25.0208 13.5657 25.0528 13.6559 25.1129L17.3684 27.5847L21.0909 25.1129C21.1812 25.0533 21.2869 25.0215 21.395 25.0215C21.5031 25.0215 21.6088 25.0533 21.6991 25.1129L25.4341 27.5866L29.1909 25.1122C29.2804 25.0535 29.3851 25.0221 29.4922 25.0221C29.5992 25.0221 29.704 25.0535 29.7934 25.1122L34.0278 27.8735C34.1045 27.9235 34.1676 27.9919 34.2112 28.0725C34.2549 28.153 34.2777 28.2431 34.2778 28.3347V31.1504C34.2778 31.2495 34.2511 31.3467 34.2003 31.4319C34.1496 31.5171 34.0768 31.5869 33.9897 31.6341C33.9097 31.6771 33.8205 31.6998 33.7297 31.7004ZM5.08344 27.8379C5.18972 27.8378 5.29374 27.8686 5.38281 27.9266L9.20781 30.4054L12.9766 27.9279C13.0666 27.8687 13.172 27.8372 13.2797 27.8372C13.3874 27.8372 13.4928 27.8687 13.5828 27.9279L17.3141 30.401L21.0234 27.9291C21.1141 27.8688 21.2205 27.8366 21.3294 27.8366C21.4383 27.8366 21.5447 27.8688 21.6353 27.9291L25.3266 30.4028L29.1947 27.9229C29.2836 27.8651 29.3874 27.8344 29.4934 27.8344C29.5995 27.8344 29.7032 27.8651 29.7922 27.9229L33.1791 30.1297V28.6254L29.4966 26.2235L25.7378 28.6997C25.6479 28.7591 25.5425 28.7908 25.4347 28.7908C25.3269 28.7908 25.2215 28.7591 25.1316 28.6997L21.3978 26.2266L17.6747 28.6991C17.5843 28.7589 17.4784 28.7908 17.37 28.7908C17.2616 28.7908 17.1557 28.7589 17.0653 28.6991L13.3478 26.2272L9.63406 28.6985C9.54587 28.7577 9.44233 28.7899 9.33612 28.7913C9.2299 28.7926 9.12559 28.763 9.03594 28.706L5.08719 26.2216L1.26469 28.6354V30.1504L4.78969 27.9222C4.87776 27.8671 4.97955 27.8379 5.08344 27.8379Z" fill="#333333"/>
<path d="M21.625 1.30225H29.3287V4.05225H21.625V1.30225Z" fill="white"/>
<path d="M29.3286 4.60348H21.6249C21.5526 4.60356 21.481 4.58939 21.4142 4.56179C21.3474 4.53419 21.2867 4.49369 21.2355 4.44261C21.1844 4.39153 21.1438 4.33087 21.1162 4.2641C21.0885 4.19733 21.0742 4.12576 21.0742 4.05348V1.30223C21.0741 1.22984 21.0882 1.15814 21.1158 1.09122C21.1434 1.02431 21.184 0.963501 21.2351 0.912288C21.2863 0.861076 21.347 0.820464 21.4139 0.792783C21.4808 0.765101 21.5525 0.750894 21.6249 0.750977H29.3286C29.4009 0.750977 29.4725 0.765224 29.5392 0.792903C29.606 0.820582 29.6667 0.861151 29.7177 0.912289C29.7688 0.963428 29.8093 1.02413 29.8369 1.09093C29.8645 1.15774 29.8787 1.22932 29.8786 1.3016V4.0516C29.8788 4.12399 29.8648 4.19571 29.8373 4.26265C29.8098 4.3296 29.7693 4.39045 29.7182 4.44172C29.6671 4.49299 29.6064 4.53367 29.5395 4.56143C29.4727 4.58919 29.401 4.60348 29.3286 4.60348ZM22.1755 3.50098H28.7786V1.85223H22.1755V3.50098Z" fill="#333333"/>
<path d="M21.625 4.0542V13.9586L25.4544 15.3117L29.3294 13.9586V4.0542H21.625Z" fill="#ECF7FB"/>
<path d="M25.4536 15.8611C25.3912 15.8612 25.3293 15.8506 25.2705 15.8298L21.4411 14.4767C21.3338 14.4386 21.2409 14.3682 21.1752 14.2752C21.1095 14.1822 21.0742 14.0712 21.0742 13.9573V4.05356C21.0741 3.98122 21.0883 3.90958 21.116 3.84274C21.1436 3.7759 21.1842 3.71517 21.2353 3.66402C21.2865 3.61287 21.3472 3.57232 21.414 3.54467C21.4809 3.51703 21.5525 3.50285 21.6249 3.50293H29.3286C29.4009 3.50293 29.4725 3.51718 29.5392 3.54486C29.606 3.57254 29.6667 3.6131 29.7177 3.66424C29.7688 3.71538 29.8093 3.77609 29.8369 3.84289C29.8645 3.90969 29.8787 3.98128 29.8786 4.05356V13.9579C29.8786 14.0721 29.8431 14.1835 29.777 14.2766C29.711 14.3698 29.6176 14.4401 29.5098 14.4779L25.6348 15.8311C25.5765 15.8511 25.5153 15.8612 25.4536 15.8611ZM22.1742 13.5686L25.4548 14.7279L28.7774 13.5673V4.60668H22.1742V13.5686Z" fill="#333333"/>
<path d="M29.3287 7.35478H26.0269C25.8809 7.35478 25.7409 7.2968 25.6377 7.1936C25.5345 7.09039 25.4766 6.95042 25.4766 6.80446C25.4766 6.65851 25.5345 6.51854 25.6377 6.41534C25.7409 6.31213 25.8809 6.25415 26.0269 6.25415H29.3287C29.4747 6.25415 29.6147 6.31213 29.7179 6.41534C29.8211 6.51854 29.879 6.65851 29.879 6.80446C29.879 6.95042 29.8211 7.09039 29.7179 7.1936C29.6147 7.2968 29.4747 7.35478 29.3287 7.35478Z" fill="#333333"/>
<path d="M24.9238 10.106H21.6219C21.4792 10.1012 21.3439 10.0411 21.2446 9.93842C21.1453 9.83574 21.0898 9.69851 21.0898 9.55568C21.0898 9.41286 21.1453 9.27562 21.2446 9.17295C21.3439 9.07027 21.4792 9.01018 21.6219 9.00537H24.9238C25.0665 9.01018 25.2018 9.07027 25.3011 9.17295C25.4004 9.27562 25.4559 9.41286 25.4559 9.55568C25.4559 9.69851 25.4004 9.83574 25.3011 9.93842C25.2018 10.0411 25.0665 10.1012 24.9238 10.106Z" fill="#333333"/>
</svg>
