<svg width="32" height="34" viewBox="0 0 32 34" fill="none" xmlns="http://www.w3.org/2000/svg">
<path d="M30.6169 12.0764H1.07812V6.45142H26.3969L30.6169 12.0764Z" fill="#ECF7FB"/>
<path d="M31.1795 11.6515L26.9595 6.0265C26.894 5.93917 26.8091 5.86829 26.7115 5.81947C26.6139 5.77066 26.5062 5.74524 26.397 5.74524H14.0289L8.60766 0.325869L8.60078 0.320242C8.50012 0.231296 8.37775 0.17053 8.24604 0.14408C8.11434 0.11763 7.97798 0.126436 7.85078 0.169619H7.84516L0.820782 2.97836C0.690382 3.03055 0.578598 3.12061 0.499842 3.2369C0.421085 3.3532 0.378964 3.49041 0.378906 3.63087V14.8809C0.378906 15.0674 0.453018 15.2464 0.584938 15.3783C0.716858 15.5102 0.895783 15.5843 1.08235 15.5843C1.26891 15.5843 1.44783 15.5102 1.57975 15.3783C1.71167 15.2464 1.78579 15.0674 1.78579 14.8809V12.7709H7.41079V32.4634H2.48766C2.3011 32.4634 2.12217 32.5375 1.99025 32.6694C1.85833 32.8013 1.78422 32.9802 1.78422 33.1668C1.78422 33.3534 1.85833 33.5323 1.99025 33.6642C2.12217 33.7961 2.3011 33.8702 2.48766 33.8702H19.367C19.5536 33.8702 19.7325 33.7961 19.8644 33.6642C19.9964 33.5323 20.0705 33.3534 20.0705 33.1668C20.0705 32.9802 19.9964 32.8013 19.8644 32.6694C19.7325 32.5375 19.5536 32.4634 19.367 32.4634H14.4439V12.7771H24.2902V19.1071C24.2901 19.1995 24.3082 19.291 24.3435 19.3763C24.3788 19.4616 24.4306 19.5392 24.4959 19.6045C24.5612 19.6698 24.6388 19.7216 24.7241 19.7569C24.8095 19.7922 24.9009 19.8103 24.9933 19.8102C25.4106 19.8102 25.8186 19.934 26.1655 20.1658C26.5125 20.3977 26.783 20.7272 26.9427 21.1128C27.1024 21.4983 27.1442 21.9226 27.0627 22.3319C26.9813 22.7412 26.7804 23.1172 26.4853 23.4122C26.1902 23.7073 25.8142 23.9083 25.4049 23.9897C24.9956 24.0711 24.5714 24.0293 24.1858 23.8696C23.8003 23.7099 23.4707 23.4395 23.2389 23.0925C23.007 22.7455 22.8833 22.3376 22.8833 21.9202C22.8833 21.7337 22.8092 21.5548 22.6773 21.4228C22.5453 21.2909 22.3664 21.2168 22.1799 21.2168C21.9933 21.2168 21.8144 21.2909 21.6824 21.4228C21.5505 21.5548 21.4764 21.7337 21.4764 21.9202C21.4766 22.5855 21.6656 23.2371 22.0213 23.7992C22.377 24.3614 22.8849 24.8111 23.486 25.0962C24.087 25.3812 24.7567 25.4899 25.417 25.4096C26.0774 25.3293 26.7015 25.0634 27.2168 24.6426C27.732 24.2218 28.1174 23.6634 28.328 23.0324C28.5386 22.4014 28.5659 21.7236 28.4067 21.0776C28.2475 20.4317 27.9084 19.8442 27.4286 19.3833C26.9489 18.9225 26.3482 18.6071 25.6964 18.474V12.7771H30.6195C30.7501 12.7771 30.8781 12.7408 30.9892 12.6721C31.1003 12.6035 31.19 12.5052 31.2484 12.3884C31.3068 12.2716 31.3315 12.1409 31.3198 12.0109C31.3081 11.8808 31.2604 11.7566 31.182 11.6521L31.1795 11.6515ZM8.81266 2.51837L12.0383 5.74337H8.81266V2.51837ZM7.40578 1.85837V5.74337H1.78078V4.11024L7.40578 1.85837ZM13.0308 27.5459L9.28078 24.7334L13.0308 21.9209V27.5459ZM8.81078 23.3259V17.7009L12.5608 20.5134L8.81078 23.3259ZM12.5608 28.9509L8.81078 31.7634V26.1384L12.5608 28.9509ZM9.28078 16.2915L13.0308 13.479V19.104L9.28078 16.2915ZM8.81078 14.8846V12.7746H11.6252L8.81078 14.8846ZM10.2177 32.4671L13.0302 30.3571V32.4671H10.2177ZM13.7339 11.3684H1.77766V7.14838H26.0414L29.2064 11.3684H13.7339Z" fill="#333333"/>
</svg>
