<svg width="41" height="38" viewBox="0 0 41 38" fill="none" xmlns="http://www.w3.org/2000/svg">
<path d="M28.7081 19.2387H36.6722L37.9142 24.6562V25.7437C37.9142 25.7437 39.827 26.8135 39.827 28.7327V34.0518H36.9494C36.9494 34.0518 36.8595 37.1495 33.9728 37.1495C31.0861 37.1495 30.7921 33.7982 30.7921 33.7982H16.2563C16.2563 33.7982 16.5308 37.0246 13.3319 37.1495C10.1329 37.2744 9.99024 33.5963 9.99024 33.5963C9.99024 33.5963 8.66371 37.1495 6.42572 37.1495C4.18774 37.1495 3.20199 33.7982 3.20199 33.7982H0.757812V31.0429H28.7081V19.2387Z" fill="#ECF7FB"/>
<path d="M1.69141 17.5519V28.8576H26.0682V17.1261L13.955 12.3002L1.69141 17.5519Z" fill="#ECF7FB"/>
<path d="M38.3099 25.4815V24.6648C38.3101 24.5207 38.2859 24.3777 38.2383 24.2417L37.1024 19.7431H38.3088C38.3833 19.7431 38.457 19.7284 38.5258 19.6999C38.5946 19.6715 38.6571 19.6297 38.7097 19.577C38.7623 19.5244 38.8041 19.4619 38.8326 19.3931C38.8611 19.3244 38.8757 19.2506 38.8757 19.1762C38.8757 19.1017 38.8611 19.028 38.8326 18.9592C38.8041 18.8905 38.7623 18.828 38.7097 18.7753C38.6571 18.7227 38.5946 18.6809 38.5258 18.6524C38.457 18.624 38.3833 18.6093 38.3088 18.6093H28.4805C28.4091 18.606 28.3379 18.6176 28.2713 18.6434C28.2046 18.6691 28.1441 18.7084 28.0935 18.7587C28.0429 18.8091 28.0033 18.8695 27.9772 18.936C27.9511 19.0024 27.9392 19.0736 27.9421 19.145V30.5131H14.8679C14.3538 30.2598 13.7883 30.128 13.2151 30.128C12.642 30.128 12.0765 30.2598 11.5623 30.5131H8.01396C7.49972 30.2598 6.93415 30.1281 6.36091 30.1281C5.78768 30.1281 5.22211 30.2598 4.70786 30.5131H1.22356C0.984869 30.5193 0.758039 30.6185 0.591477 30.7896C0.424915 30.9607 0.331811 31.1901 0.332032 31.4288V33.6545C0.331853 33.8925 0.425201 34.1211 0.591962 34.291C0.758723 34.4609 0.985549 34.5584 1.22356 34.5627H2.66477C2.80795 35.3331 3.1824 36.0416 3.73827 36.5939C4.17163 37.0155 4.70034 37.3263 5.2795 37.4999C5.85865 37.6735 6.47115 37.7048 7.06497 37.591C7.65879 37.4773 8.2164 37.222 8.69044 36.8467C9.16448 36.4714 9.54095 35.9872 9.78788 35.4354C10.0354 35.9866 10.4121 36.4701 10.8861 36.8449C11.3602 37.2196 11.9175 37.4747 12.511 37.5883C13.1045 37.702 13.7166 37.671 14.2956 37.4979C14.8745 37.3248 15.4033 37.0147 15.8369 36.5939C16.3928 36.0416 16.7673 35.3331 16.9104 34.5627H30.2716C30.4147 35.3329 30.7889 36.0412 31.3446 36.5934C32.0472 37.2761 32.9883 37.658 33.968 37.658C34.9477 37.658 35.8888 37.2761 36.5915 36.5934C37.1473 36.0405 37.5215 35.3314 37.6644 34.5605H39.7641C39.9163 34.5567 40.061 34.4935 40.1671 34.3843C40.2733 34.2751 40.3325 34.1287 40.332 33.9764V28.8415C40.3313 28.1507 40.1427 27.4732 39.7865 26.8813C39.4303 26.2895 38.9199 25.8056 38.3099 25.4815V25.4815ZM2.64323 33.4289H1.46583V31.6474H3.35011C2.97557 32.1763 2.73319 32.7871 2.64323 33.4289V33.4289ZM8.97871 33.9672C8.95856 34.6483 8.67367 35.2947 8.18458 35.7691C7.69549 36.2435 7.04073 36.5085 6.35937 36.5078C5.67801 36.5072 5.02373 36.241 4.53552 35.7657C4.04731 35.2904 3.76363 34.6435 3.74473 33.9624C3.74473 33.9441 3.74473 33.9247 3.74473 33.9086C3.74464 33.2481 3.99471 32.6122 4.4446 32.1287L4.45537 32.118L4.46668 32.1061C4.65432 31.9067 4.87237 31.7382 5.11271 31.607C5.49596 31.3996 5.92487 31.291 6.36065 31.291C6.79642 31.291 7.22533 31.3996 7.60858 31.607C7.84885 31.7379 8.0669 31.906 8.25461 32.105L8.26592 32.1169L8.27669 32.1276C8.72682 32.611 8.97692 33.247 8.97656 33.9075C8.97925 33.922 8.97925 33.9409 8.97871 33.9645V33.9672ZM9.78626 32.3521C9.66974 32.1055 9.53156 31.8697 9.37334 31.6474H10.2003C10.0426 31.8697 9.90457 32.1053 9.78788 32.3516L9.78626 32.3521ZM15.7987 33.9021V33.9694C15.7869 34.6509 15.5074 35.3004 15.0206 35.7776C14.5339 36.2547 13.879 36.5213 13.1973 36.5196C12.5147 36.5149 11.8607 36.2448 11.3738 35.7664C10.8869 35.288 10.6052 34.6389 10.5884 33.9565C10.5884 33.9387 10.5917 33.9204 10.5917 33.9026C10.592 33.4317 10.7193 32.9695 10.9603 32.5649C11.2012 32.1602 11.5468 31.828 11.9607 31.6033H11.9639C12.3467 31.3945 12.7759 31.2858 13.2119 31.2873C13.6473 31.2873 14.0758 31.396 14.4587 31.6033V31.6033C14.8426 31.8122 15.1673 32.1149 15.4027 32.4832C15.638 32.8514 15.7763 33.2732 15.8046 33.7094C15.8122 33.7697 15.7987 33.8332 15.7987 33.9021ZM27.9453 33.4273H16.932C16.8411 32.7869 16.6014 32.1768 16.2321 31.6458H27.9448L27.9453 33.4273ZM33.0469 19.742H35.9341L37.1449 24.541C37.1496 24.5571 37.1552 24.5729 37.1616 24.5884C37.1712 24.6122 37.1761 24.6376 37.1761 24.6632V25.0939C36.9636 25.0469 36.7475 25.018 36.5301 25.0078H34.1198C33.5395 25.0072 33.0463 24.5647 33.0463 19.7431L33.0469 19.742ZM29.0791 19.742H31.9131C31.9131 25.0029 32.642 25.8621 33.6138 26.1023V27.5968H29.0807L29.0791 19.742ZM36.5855 33.9635C36.5712 34.6483 36.289 35.3003 35.7994 35.7795C35.3099 36.2586 34.652 36.5268 33.967 36.5263C33.2819 36.5259 32.6244 36.257 32.1354 35.7772C31.6464 35.2975 31.365 34.6451 31.3516 33.9602C31.3516 33.9409 31.3516 33.9209 31.3516 33.9021C31.3533 33.2257 31.6168 32.5761 32.0869 32.0897C32.557 31.6033 33.1972 31.3178 33.8732 31.293C34.5492 31.2683 35.2085 31.5061 35.713 31.9568C36.2174 32.4075 36.5278 33.0359 36.5791 33.7104C36.5839 33.7724 36.5861 33.8364 36.5861 33.9021C36.585 33.9231 36.585 33.9436 36.585 33.9651L36.5855 33.9635ZM39.2009 33.4251H37.6865C37.5674 32.5234 37.1246 31.6957 36.4406 31.0961C35.7567 30.4966 34.8781 30.166 33.9685 30.166C33.059 30.166 32.1804 30.4966 31.4965 31.0961C30.8125 31.6957 30.3697 32.5234 30.2506 33.4251H29.0807V31.1101C29.0807 31.1064 29.0807 31.1031 29.0807 31.0994C29.0807 31.0956 29.0807 31.0918 29.0807 31.0886V28.7338H34.1527C34.2265 28.7386 34.3006 28.7287 34.3707 28.7048C34.4407 28.6808 34.5053 28.6432 34.5608 28.5942C34.6162 28.5452 34.6614 28.4856 34.6938 28.419C34.7261 28.3524 34.7449 28.2801 34.7492 28.2062V26.1426H36.5296C37.2405 26.1503 37.9198 26.4379 38.4201 26.9431C38.9204 27.4484 39.2013 28.1305 39.202 28.8415L39.2009 33.4251Z" fill="#333333"/>
<path d="M5.1919 19.2387C5.04155 19.2387 4.89736 19.2984 4.79104 19.4047C4.68473 19.511 4.625 19.6552 4.625 19.8056V26.3268C4.625 26.4771 4.68473 26.6213 4.79104 26.7276C4.89736 26.834 5.04155 26.8937 5.1919 26.8937C5.34225 26.8937 5.48644 26.834 5.59276 26.7276C5.69907 26.6213 5.7588 26.4771 5.7588 26.3268V19.8056C5.7588 19.6552 5.69907 19.511 5.59276 19.4047C5.48644 19.2984 5.34225 19.2387 5.1919 19.2387Z" fill="#333333"/>
<path d="M9.56299 19.2387C9.41264 19.2387 9.26845 19.2984 9.16214 19.4047C9.05582 19.511 8.99609 19.6552 8.99609 19.8056V26.3268C8.99609 26.4771 9.05582 26.6213 9.16214 26.7276C9.26845 26.834 9.41264 26.8937 9.56299 26.8937C9.71334 26.8937 9.85754 26.834 9.96385 26.7276C10.0702 26.6213 10.1299 26.4771 10.1299 26.3268V19.8056C10.1299 19.6552 10.0702 19.511 9.96385 19.4047C9.85754 19.2984 9.71334 19.2387 9.56299 19.2387Z" fill="#333333"/>
<path d="M13.856 19.2387C13.7056 19.2387 13.5614 19.2984 13.4551 19.4047C13.3488 19.511 13.2891 19.6552 13.2891 19.8056V26.3268C13.2891 26.4771 13.3488 26.6213 13.4551 26.7276C13.5614 26.834 13.7056 26.8937 13.856 26.8937C14.0063 26.8937 14.1505 26.834 14.2568 26.7276C14.3631 26.6213 14.4229 26.4771 14.4229 26.3268V19.8056C14.4229 19.6552 14.3631 19.511 14.2568 19.4047C14.1505 19.2984 14.0063 19.2387 13.856 19.2387V19.2387Z" fill="#333333"/>
<path d="M18.1489 19.2387C17.9986 19.2387 17.8544 19.2984 17.7481 19.4047C17.6418 19.511 17.582 19.6552 17.582 19.8056V26.3268C17.582 26.4771 17.6418 26.6213 17.7481 26.7276C17.8544 26.834 17.9986 26.8937 18.1489 26.8937C18.2993 26.8937 18.4435 26.834 18.5498 26.7276C18.6561 26.6213 18.7158 26.4771 18.7158 26.3268V19.8056C18.7158 19.6552 18.6561 19.511 18.5498 19.4047C18.4435 19.2984 18.2993 19.2387 18.1489 19.2387V19.2387Z" fill="#333333"/>
<path d="M22.52 19.2387C22.3697 19.2387 22.2255 19.2984 22.1192 19.4047C22.0128 19.511 21.9531 19.6552 21.9531 19.8056V26.3268C21.9531 26.4771 22.0128 26.6213 22.1192 26.7276C22.2255 26.834 22.3697 26.8937 22.52 26.8937C22.6704 26.8937 22.8146 26.834 22.9209 26.7276C23.0272 26.6213 23.0869 26.4771 23.0869 26.3268V19.8056C23.0869 19.6552 23.0272 19.511 22.9209 19.4047C22.8146 19.2984 22.6704 19.2387 22.52 19.2387Z" fill="#333333"/>
<path d="M1.70989 29.4606H26.0031C26.1573 29.4516 26.3022 29.3837 26.4077 29.2708C26.5133 29.158 26.5713 29.0089 26.57 28.8544V17.2203C26.5685 17.2037 26.5654 17.1873 26.5608 17.1713C26.5533 17.1344 26.5421 17.0984 26.5274 17.0637C26.5221 17.0507 26.5156 17.0378 26.5091 17.0254L26.5032 17.0136C26.4984 17.0044 26.4925 16.9953 26.4871 16.9867C26.4817 16.9781 26.479 16.9727 26.4747 16.9662C26.4704 16.9598 26.4666 16.9549 26.4623 16.9501C26.458 16.9452 26.4488 16.9312 26.4413 16.9221L26.4354 16.9151C26.3995 16.8733 26.3576 16.837 26.311 16.8074C26.2986 16.7993 26.2857 16.7913 26.2723 16.7843H26.269C26.2532 16.776 26.2371 16.7683 26.2206 16.7611H26.2313L14.5854 11.9503V11.3042C15.0127 11.1459 15.3824 10.8624 15.6463 10.4909C15.9102 10.1193 16.0561 9.67693 16.0649 9.2213C16.0619 8.73637 15.8996 8.26586 15.603 7.88219C15.3064 7.49853 14.8919 7.22299 14.4234 7.09799V5.2487H14.6716C14.7976 5.2494 14.9203 5.20783 15.0199 5.13063C15.1195 5.05344 15.1904 4.94508 15.2212 4.82286L16.0363 1.56359C16.0571 1.48142 16.0586 1.39555 16.0406 1.31271C16.0227 1.22987 15.9858 1.1523 15.933 1.08606C15.8795 1.01921 15.8114 0.965516 15.734 0.929114C15.6565 0.892713 15.5717 0.874577 15.4861 0.876101H12.2263C12.1407 0.874464 12.056 0.892597 11.9785 0.92909C11.9011 0.965582 11.8332 1.01945 11.78 1.0865C11.7268 1.15354 11.6898 1.23196 11.6719 1.31565C11.654 1.39933 11.6556 1.48602 11.6766 1.56898L12.4917 4.82447C12.5226 4.94653 12.5936 5.05469 12.6932 5.13161C12.7929 5.20854 12.9155 5.24977 13.0414 5.2487H13.2896V7.59113C13.2896 7.74148 13.3493 7.88567 13.4556 7.99199C13.5619 8.0983 13.7061 8.15803 13.8565 8.15803C14.0669 8.15792 14.2727 8.22024 14.4477 8.33709C14.6227 8.45394 14.7592 8.62008 14.8398 8.81449C14.9203 9.00889 14.9414 9.22284 14.9004 9.42924C14.8594 9.63565 14.7581 9.82526 14.6093 9.97406C14.4604 10.1229 14.2708 10.2242 14.0644 10.2652C13.858 10.3063 13.6441 10.2851 13.4497 10.2046C13.2553 10.124 13.0891 9.98755 12.9723 9.81252C12.8554 9.6375 12.7931 9.43175 12.7932 9.2213C12.7932 9.07095 12.7335 8.92676 12.6272 8.82044C12.5209 8.71413 12.3767 8.6544 12.2263 8.6544C12.1525 8.6546 12.0794 8.66949 12.0113 8.69819C11.9433 8.72689 11.8816 8.76884 11.8299 8.82159C11.7782 8.87434 11.7375 8.93684 11.7102 9.00546C11.6828 9.07408 11.6694 9.14745 11.6707 9.2213C11.6658 9.73266 11.8419 10.2293 12.1678 10.6234C12.4937 11.0174 12.9485 11.2836 13.4516 11.3748V11.9449L1.50962 16.7525H1.50155C1.48862 16.7579 1.47301 16.7638 1.46063 16.7703L1.44556 16.7767L1.41487 16.7945L1.39549 16.8058L1.37718 16.8192C1.36803 16.8257 1.35888 16.8322 1.35026 16.8397C1.25644 16.9169 1.1903 17.0225 1.16184 17.1407C1.16184 17.1466 1.15861 17.152 1.15753 17.1579C1.15645 17.1638 1.15753 17.174 1.15376 17.1816C1.14999 17.1891 1.14999 17.2031 1.14892 17.2139C1.14784 17.2246 1.14892 17.2246 1.14892 17.23C1.14892 17.244 1.14892 17.2575 1.14892 17.2715V28.8544C1.14759 29.0079 1.20491 29.1561 1.30917 29.2688C1.41343 29.3814 1.55676 29.45 1.70989 29.4606V29.4606ZM13.4839 4.11491L12.952 2.00721H14.7609L14.2269 4.11491H13.4839ZM13.9932 12.9769L23.1401 16.7455H4.63429L13.9932 12.9769ZM2.27518 17.8809H25.4362V28.3252H2.27518V17.8809Z" fill="#333333"/>
</svg>
