<svg width="38" height="38" viewBox="0 0 38 38" fill="none" xmlns="http://www.w3.org/2000/svg">
<path d="M6.68204 12.8716L19.1277 2.62163L31.5745 12.8716C31.7101 12.9842 31.8809 13.0455 32.057 13.0448C32.2137 13.0447 32.3665 12.9962 32.4946 12.906C32.6226 12.8158 32.7197 12.6882 32.7724 12.5407C32.8252 12.3932 32.831 12.233 32.7892 12.082C32.7475 11.931 32.66 11.7966 32.5389 11.6973L19.6114 1.04976C19.4751 0.937608 19.3042 0.876293 19.1277 0.876293C18.9512 0.876293 18.7802 0.937608 18.6439 1.04976L5.71454 11.6973C5.55881 11.8256 5.46042 12.0105 5.44103 12.2113C5.42163 12.4121 5.48281 12.6125 5.6111 12.7682C5.7394 12.9239 5.92431 13.0223 6.12515 13.0417C6.32599 13.0611 6.52631 12.9999 6.68204 12.8716Z" fill="#0C152E"/>
<path d="M9.24109 13.0448C9.1412 13.0448 9.0423 13.0644 8.95002 13.1027C8.85774 13.1409 8.77388 13.1969 8.70325 13.2675C8.63262 13.3382 8.57659 13.422 8.53837 13.5143C8.50014 13.6066 8.48047 13.7055 8.48047 13.8054V22.9304C8.48196 23.9384 8.88305 24.9047 9.59584 25.6175C10.3086 26.3303 11.2749 26.7314 12.283 26.7329H25.9705C26.9786 26.7317 27.9451 26.3307 28.658 25.6179C29.3708 24.905 29.7718 23.9385 29.773 22.9304V13.8054C29.773 13.6036 29.6928 13.4102 29.5502 13.2675C29.4075 13.1249 29.2141 13.0448 29.0123 13.0448C28.8106 13.0448 28.6171 13.1249 28.4745 13.2675C28.3319 13.4102 28.2517 13.6036 28.2517 13.8054V22.9304C28.2511 23.5354 28.0104 24.1154 27.5826 24.5432C27.1549 24.971 26.5748 25.2116 25.9698 25.2123H23.688V19.8885C23.6868 18.8804 23.2858 17.9139 22.573 17.201C21.8601 16.4882 20.8936 16.0872 19.8855 16.086H18.3642C17.3562 16.0875 16.3899 16.4886 15.6771 17.2014C14.9643 17.9142 14.5632 18.8805 14.5617 19.8885V25.2123H12.2798C11.6749 25.2116 11.0948 24.971 10.667 24.5432C10.2393 24.1154 9.99863 23.5354 9.99796 22.9304V13.8054C9.99797 13.6043 9.91835 13.4114 9.77651 13.2689C9.63468 13.1263 9.44217 13.0457 9.24109 13.0448ZM16.0861 19.8898C16.0868 19.2848 16.3274 18.7047 16.7552 18.277C17.183 17.8492 17.763 17.6085 18.368 17.6079H19.8892C20.4942 17.6085 21.0742 17.8492 21.502 18.277C21.9298 18.7047 22.1704 19.2848 22.1711 19.8898V25.2135H16.0867L16.0861 19.8898Z" fill="#0C152E"/>
<path d="M37.1561 33.041L34.1136 29.9985C34.0435 29.925 33.9595 29.8663 33.8664 29.8258C33.7733 29.7853 33.673 29.7638 33.5715 29.7626C33.47 29.7615 33.3692 29.7806 33.2752 29.8189C33.1812 29.8573 33.0958 29.914 33.0241 29.9859C32.9523 30.0577 32.8957 30.1432 32.8574 30.2372C32.8192 30.3313 32.8002 30.432 32.8015 30.5336C32.8028 30.6351 32.8244 30.7353 32.865 30.8284C32.9056 30.9214 32.9644 31.0054 33.038 31.0754L34.783 32.8185H3.47047L5.21359 31.0754C5.28715 31.0054 5.34598 30.9214 5.3866 30.8284C5.42721 30.7353 5.4488 30.6351 5.4501 30.5336C5.4514 30.432 5.43237 30.3313 5.39414 30.2372C5.35591 30.1432 5.29925 30.0577 5.2275 29.9859C5.15575 29.914 5.07036 29.8573 4.97634 29.8189C4.88233 29.7806 4.7816 29.7615 4.68008 29.7626C4.57855 29.7638 4.47829 29.7853 4.38519 29.8258C4.29209 29.8663 4.20803 29.925 4.13797 29.9985L1.09734 33.041C0.954947 33.184 0.875 33.3776 0.875 33.5794C0.875 33.7813 0.954947 33.9749 1.09734 34.1179L4.13797 37.1604C4.28192 37.2973 4.4737 37.3726 4.67237 37.37C4.87104 37.3675 5.06084 37.2874 5.20125 37.1468C5.34166 37.0062 5.42155 36.8163 5.42386 36.6177C5.42616 36.419 5.3507 36.2273 5.21359 36.0835L3.47047 34.3404H34.783L33.038 36.0835C32.9009 36.2273 32.8254 36.419 32.8277 36.6177C32.83 36.8163 32.9099 37.0062 33.0503 37.1468C33.1907 37.2874 33.3805 37.3675 33.5792 37.37C33.7779 37.3726 33.9696 37.2973 34.1136 37.1604L37.1561 34.1179C37.2985 33.9749 37.3784 33.7813 37.3784 33.5794C37.3784 33.3776 37.2985 33.184 37.1561 33.041Z" fill="#0C152E"/>
</svg>
