<svg width="32" height="32" viewBox="0 0 32 32" fill="none" xmlns="http://www.w3.org/2000/svg">
<path d="M1.15665 15.9841C1.25903 15.9843 1.36043 15.9642 1.45502 15.925C1.54962 15.8859 1.63556 15.8285 1.7079 15.756L14.4235 3.04038V5.83913C14.4235 6.04633 14.5058 6.24504 14.6524 6.39156C14.7989 6.53807 14.9976 6.62038 15.2048 6.62038C15.412 6.62038 15.6107 6.53807 15.7572 6.39156C15.9037 6.24504 15.986 6.04633 15.986 5.83913V1.15663C15.9855 1.05405 15.9643 0.952653 15.9235 0.858509C15.865 0.715798 15.7654 0.593719 15.6373 0.5078C15.5092 0.421881 15.3584 0.376004 15.2042 0.376007H10.5217C10.3145 0.376007 10.1157 0.458319 9.96923 0.604832C9.82272 0.751345 9.7404 0.950057 9.7404 1.15726C9.7404 1.36446 9.82272 1.56317 9.96923 1.70968C10.1157 1.8562 10.3145 1.93851 10.5217 1.93851H13.3204L0.604156 14.651C0.494776 14.7602 0.420263 14.8994 0.390057 15.0509C0.359851 15.2025 0.37531 15.3596 0.434479 15.5024C0.493647 15.6451 0.593859 15.7671 0.722422 15.8529C0.850984 15.9387 1.00211 15.9843 1.15665 15.9841Z" fill="#0C152E"/>
<path d="M30.8125 1.93661H24.5694C24.3623 1.93661 24.1638 2.01886 24.0174 2.16526C23.871 2.31165 23.7888 2.5102 23.7888 2.71724V6.61912H19.8869C19.7844 6.61912 19.6829 6.63931 19.5881 6.67854C19.4934 6.71777 19.4074 6.77526 19.3349 6.84775C19.2624 6.92024 19.2049 7.0063 19.1657 7.10101C19.1264 7.19572 19.1063 7.29722 19.1063 7.39974V11.3016H15.2044C14.9973 11.3016 14.7988 11.3839 14.6524 11.5303C14.506 11.6766 14.4237 11.8752 14.4237 12.0822V15.9841H10.5219C10.3148 15.9841 10.1163 16.0664 9.96989 16.2128C9.82349 16.3592 9.74125 16.5577 9.74125 16.7647V20.6666H5.8375C5.63047 20.6666 5.43191 20.7489 5.28552 20.8952C5.13912 21.0416 5.05687 21.2402 5.05687 21.4472V25.3491H1.155C0.948183 25.3493 0.749886 25.4315 0.603643 25.5778C0.457401 25.724 0.375166 25.9223 0.375 26.1291V30.8116C0.375 31.0186 0.457248 31.2172 0.603643 31.3636C0.750039 31.51 0.948586 31.5922 1.15562 31.5922H30.8125C31.0195 31.5922 31.2181 31.51 31.3645 31.3636C31.5109 31.2172 31.5931 31.0186 31.5931 30.8116V2.71724C31.5931 2.5102 31.5109 2.31165 31.3645 2.16526C31.2181 2.01886 31.0195 1.93661 30.8125 1.93661ZM30.0319 30.031H1.9375V26.9091H5.83937C6.04641 26.9091 6.24496 26.8269 6.39136 26.6805C6.53776 26.5341 6.62 26.3355 6.62 26.1285V22.2266H10.5219C10.6244 22.2266 10.7259 22.2064 10.8206 22.1672C10.9153 22.128 11.0014 22.0705 11.0739 21.998C11.1463 21.9255 11.2039 21.8394 11.2431 21.7447C11.2823 21.65 11.3025 21.5485 11.3025 21.446V17.5441H15.2044C15.4114 17.5441 15.61 17.4619 15.7564 17.3155C15.9028 17.1691 15.985 16.9705 15.985 16.7635V12.8616H19.8869C19.9894 12.8616 20.0909 12.8414 20.1856 12.8022C20.2803 12.763 20.3664 12.7055 20.4389 12.633C20.5113 12.5605 20.5688 12.4744 20.6081 12.3797C20.6473 12.285 20.6675 12.1835 20.6675 12.081V8.17912H24.5694C24.7764 8.17912 24.975 8.09687 25.1214 7.95048C25.2678 7.80408 25.35 7.60552 25.35 7.39849V3.49911H30.0325L30.0319 30.031Z" fill="#0C152E"/>
</svg>
