<svg width="34" height="34" viewBox="0 0 34 34" fill="none" xmlns="http://www.w3.org/2000/svg">
<path d="M16.9361 0.751007C14.323 0.753903 11.7493 1.38869 9.43451 2.60126C7.11974 3.81382 5.13254 5.56818 3.64234 7.71476L3.22172 5.58413C3.21141 5.49878 3.18361 5.41647 3.14004 5.34235C3.09648 5.26822 3.03809 5.20389 2.96853 5.15336C2.89897 5.10284 2.81973 5.0672 2.73577 5.0487C2.65181 5.03019 2.56494 5.0292 2.48058 5.0458C2.39622 5.06239 2.3162 5.09621 2.2455 5.14515C2.17481 5.19408 2.11498 5.25707 2.06974 5.33018C2.0245 5.40329 1.99483 5.48495 1.98259 5.57005C1.97035 5.65515 1.9758 5.74186 1.99859 5.82476L2.72297 9.49038C2.75862 9.65016 2.85438 9.7901 2.9904 9.88121C3.12641 9.97231 3.29227 10.0076 3.45359 9.97976L7.11797 9.25538C7.20497 9.24716 7.28929 9.22079 7.36547 9.17796C7.44165 9.13513 7.508 9.07681 7.56024 9.00675C7.61248 8.93668 7.64945 8.85645 7.66875 8.77121C7.68805 8.68598 7.68927 8.59764 7.67232 8.51191C7.65536 8.42618 7.62062 8.34495 7.57033 8.27348C7.52003 8.20201 7.45531 8.14188 7.38034 8.09697C7.30536 8.05207 7.2218 8.02338 7.13506 8.01277C7.04831 8.00217 6.9603 8.00987 6.87672 8.03538L4.65172 8.47288C6.68352 5.5435 9.69781 3.4392 13.148 2.54156C16.5982 1.64392 20.2558 2.01239 23.4576 3.58014C26.6595 5.14789 29.1935 7.81112 30.6002 11.0869C32.0069 14.3627 32.1931 18.0341 31.1251 21.4354C30.0572 24.8367 27.8057 27.7427 24.7789 29.6264C21.7522 31.5102 18.1506 32.2469 14.6273 31.703C11.104 31.1591 7.89225 29.3707 5.57443 26.6619C3.25661 23.9532 1.98621 20.5035 1.99359 16.9385C2.00135 16.8521 1.99102 16.765 1.96326 16.6827C1.9355 16.6005 1.89092 16.525 1.83236 16.4609C1.7738 16.3969 1.70254 16.3457 1.62313 16.3107C1.54371 16.2757 1.45788 16.2577 1.37109 16.2577C1.28431 16.2577 1.19848 16.2757 1.11906 16.3107C1.03965 16.3457 0.96839 16.3969 0.90983 16.4609C0.85127 16.525 0.806691 16.6005 0.778931 16.6827C0.751171 16.765 0.740839 16.8521 0.748594 16.9385C0.748594 20.1401 1.69797 23.2698 3.47668 25.9318C5.25538 28.5938 7.78352 30.6686 10.7414 31.8938C13.6993 33.119 16.954 33.4396 20.0941 32.815C23.2342 32.1904 26.1185 30.6487 28.3824 28.3848C30.6462 26.1209 32.188 23.2366 32.8125 20.0965C33.4371 16.9565 33.1166 13.7017 31.8914 10.7438C30.6662 7.78594 28.5914 5.2578 25.9294 3.47909C23.2674 1.70039 20.1377 0.751007 16.9361 0.751007Z" fill="#0C152E"/>
<path d="M26.7898 15.4148C26.8806 15.2771 26.9134 15.1092 26.881 14.9475C26.8485 14.7859 26.7535 14.6436 26.6167 14.5516L17.2785 8.32663C17.1761 8.25863 17.0559 8.22237 16.9329 8.22237C16.8099 8.22237 16.6897 8.25863 16.5873 8.32663L7.24915 14.5523C7.12738 14.6501 7.04666 14.79 7.0229 14.9444C6.99914 15.0988 7.03406 15.2565 7.12079 15.3864C7.20751 15.5164 7.33976 15.6091 7.49146 15.6464C7.64316 15.6837 7.80333 15.6628 7.9404 15.5879L16.9342 9.59288L25.9267 15.5879C26.0643 15.6787 26.2322 15.7115 26.3939 15.6791C26.5555 15.6466 26.6978 15.5516 26.7898 15.4148Z" fill="#0C152E"/>
<path d="M10.0898 15.6923C9.92408 15.6923 9.76511 15.7581 9.6479 15.8753C9.53069 15.9925 9.46484 16.1515 9.46484 16.3173V23.7854C9.46534 24.2805 9.66225 24.7552 10.0124 25.1054C10.3625 25.4555 10.8372 25.6524 11.3323 25.6529H22.5386C23.0337 25.6522 23.5083 25.4553 23.8584 25.1052C24.2085 24.7551 24.4054 24.2805 24.4061 23.7854V16.3173C24.3921 16.1618 24.3205 16.0172 24.2053 15.9118C24.0901 15.8065 23.9397 15.7481 23.7836 15.7481C23.6275 15.7481 23.4771 15.8065 23.3619 15.9118C23.2467 16.0172 23.175 16.1618 23.1611 16.3173V23.7854C23.1611 23.9511 23.0952 24.1101 22.978 24.2273C22.8608 24.3445 22.7019 24.4104 22.5361 24.4104H19.4236V20.6729C19.4236 20.0124 19.1612 19.379 18.6942 18.912C18.2272 18.4449 17.5938 18.1826 16.9333 18.1826C16.2728 18.1826 15.6394 18.4449 15.1724 18.912C14.7053 19.379 14.443 20.0124 14.443 20.6729V24.4085H11.3305C11.1647 24.4085 11.0057 24.3427 10.8885 24.2255C10.7713 24.1082 10.7055 23.9493 10.7055 23.7835V16.3173C10.7055 16.1531 10.6409 15.9955 10.5257 15.8786C10.4105 15.7617 10.254 15.6947 10.0898 15.6923ZM15.693 20.6729C15.693 20.3427 15.8241 20.026 16.0576 19.7925C16.2911 19.5591 16.6078 19.4279 16.938 19.4279C17.2682 19.4279 17.5848 19.5591 17.8183 19.7925C18.0518 20.026 18.183 20.3427 18.183 20.6729V24.4085H15.6905L15.693 20.6729Z" fill="#0C152E"/>
</svg>
