<svg width="41" height="40" viewBox="0 0 41 40" fill="none" xmlns="http://www.w3.org/2000/svg">
<g clip-path="url(#clip0)">
<rect x="6.375" y="5.62598" width="28.75" height="16.875" fill="#ECF7FB"/>
<rect x="1.375" y="25.001" width="12.5" height="4.375" fill="#ECF7FB"/>
<rect x="27.625" y="25.001" width="12.5" height="4.375" fill="#ECF7FB"/>
<path d="M34.9723 23.1948C35.1447 23.1946 35.31 23.126 35.4319 23.0041C35.5539 22.8822 35.6224 22.7169 35.6227 22.5445V5.65131C35.6224 5.4789 35.5539 5.31361 35.4319 5.1917C35.31 5.06979 35.1447 5.0012 34.9723 5.00098H6.52533C6.35292 5.0012 6.18763 5.06979 6.06572 5.1917C5.94381 5.31361 5.87522 5.4789 5.875 5.65131V22.5445C5.87522 22.7169 5.94381 22.8822 6.06572 23.0041C6.18763 23.126 6.35292 23.1946 6.52533 23.1948H34.9723ZM6.8505 5.97522H34.6472V22.2206H6.8505V5.97522Z" fill="#333333"/>
<path d="M40.0993 24.4365H1.40033C1.22792 24.4367 1.06264 24.5053 0.940722 24.6272C0.818809 24.7492 0.750221 24.9144 0.75 25.0869V34.0256C0.750553 34.1984 0.81965 34.3639 0.942123 34.4858C1.0646 34.6078 1.23044 34.6761 1.40326 34.6759H40.0959C40.2685 34.6758 40.434 34.6073 40.5562 34.4854C40.6784 34.3635 40.7474 34.1982 40.7479 34.0256V25.0869C40.7477 24.9147 40.6793 24.7497 40.5578 24.6278C40.4362 24.506 40.2714 24.4372 40.0993 24.4365ZM39.7741 29.0244H28.1341V25.412H39.7741V29.0244ZM14.3413 29.0244V25.412H27.1586V29.0244H14.3413ZM1.72592 25.412H13.3659V29.0244H1.7255L1.72592 25.412ZM1.72592 29.9999H20.262V33.7H1.7255L1.72592 29.9999ZM39.7745 33.7H21.2375V29.9999H39.7741L39.7745 33.7Z" fill="#333333"/>
<path d="M12.2057 30.644H10.4799C10.3506 30.644 10.2265 30.6954 10.135 30.7869C10.0436 30.8784 9.99219 31.0024 9.99219 31.1318C9.99219 31.2611 10.0436 31.3852 10.135 31.4767C10.2265 31.5682 10.3506 31.6195 10.4799 31.6195H12.2057C12.335 31.6195 12.4591 31.5682 12.5505 31.4767C12.642 31.3852 12.6934 31.2611 12.6934 31.1318C12.6934 31.0024 12.642 30.8784 12.5505 30.7869C12.4591 30.6954 12.335 30.644 12.2057 30.644Z" fill="#333333"/>
<path d="M29.1284 31.6552H30.8541C30.9834 31.6552 31.1075 31.6038 31.199 31.5123C31.2905 31.4209 31.3418 31.2968 31.3418 31.1674C31.3418 31.0381 31.2905 30.914 31.199 30.8225C31.1075 30.7311 30.9834 30.6797 30.8541 30.6797H29.1284C28.999 30.6797 28.875 30.7311 28.7835 30.8225C28.692 30.914 28.6406 31.0381 28.6406 31.1674C28.6406 31.2968 28.692 31.4209 28.7835 31.5123C28.875 31.6038 28.999 31.6552 29.1284 31.6552Z" fill="#333333"/>
</g>
<defs>
<clipPath id="clip0">
<rect width="40" height="40" fill="white" transform="translate(0.75 0.000976562)"/>
</clipPath>
</defs>
</svg>
