<svg width="41" height="40" viewBox="0 0 41 40" fill="none" xmlns="http://www.w3.org/2000/svg">
<g clip-path="url(#clip0)">
<path d="M0.8125 27.1885V33.126H5.5L2.375 26.5635L2.6875 26.251H3.625L3.3125 25.626C3.20833 25.4177 2.8125 25.0635 2.0625 25.3135C1.3125 25.5635 0.916667 26.6677 0.8125 27.1885Z" fill="#ECF7FB"/>
<path d="M4.87486 26.5635L7.37486 33.126H10.1875C11.125 30.9385 13 26.3135 13 25.3135C13 24.3135 12.1667 22.8135 11.75 22.1885L10.8125 22.8135V23.4385L11.75 25.001V25.3135C11.75 26.0635 10.7083 27.2926 10.1875 27.8135L8.625 25.9385C8.3125 26.6676 7.5625 28.0635 7.0625 27.8135C6.4375 27.501 5.81236 25.9385 5.81236 25.001C5.81236 24.251 6.43745 23.6468 6.75 23.4385V22.8135L5.81236 22.1885C4.81236 23.1885 4.7707 25.5218 4.87486 26.5635Z" fill="#ECF7FB"/>
<path d="M15.1875 26.5635L11.75 33.126H15.8125V27.1885C15.8125 26.6885 16.2292 26.3551 16.4375 26.251C15.9375 25.251 14.9792 25.2093 14.5625 25.3135L13.9375 26.251L15.1875 26.5635Z" fill="#ECF7FB"/>
<path d="M16.75 26.876L20.1875 33.126L21.4375 33.4385C21.125 33.126 18.9375 25.9385 18.9375 25.3135C18.9375 24.8135 19.3542 23.6468 19.5625 23.126C19.4583 23.2301 19.1875 23.4385 18.9375 23.4385C18.625 23.4385 17.375 25.626 17.375 25.9385C17.375 26.1885 18 26.6676 18.3125 26.876H16.75Z" fill="#ECF7FB"/>
<path d="M24.25 33.126L25.5 33.4385L28.625 26.876L27.375 26.5635L28 26.251V25.626C27.5 24.376 26.3333 23.4385 25.8125 23.126C26.8125 24.376 26.6458 26.1468 26.4375 26.876L24.25 33.126Z" fill="#ECF7FB"/>
<path d="M29.875 27.8135V33.4385H39.5625V29.0635C39.5625 28.0635 38.7292 27.6051 38.3125 27.501H36.75C36.125 27.8135 34.75 28.4385 34.25 28.4385C33.75 28.4385 32.375 27.8135 31.75 27.501H30.5L29.875 27.8135Z" fill="#ECF7FB"/>
<path d="M40.189 18.126L37.689 18.751H31.7515L32.3765 17.8135L32.689 16.5635L34.564 15.001L36.1265 16.5635L36.439 17.8135H39.8765L40.189 18.126Z" fill="#ECF7FB"/>
<path d="M26.7515 19.376C26.5015 20.626 25.6057 21.5635 25.189 21.876C25.7099 21.6676 26.8141 21.1885 27.064 20.9385C27.3764 20.626 28.0015 20.9385 28.6266 20.9385C29.2516 20.9385 29.2516 19.689 29.2516 19.3762V19.376C29.2516 19.0635 29.8766 18.751 30.1891 18.4385C30.4391 18.1885 30.2933 17.501 30.1891 17.1885L29.5641 16.251C29.5641 15.7301 29.5016 14.626 29.2516 14.376C28.9391 14.0635 28.0016 13.4385 27.6891 13.126C27.3766 12.8135 26.7515 10.9385 26.4391 10.626C26.1268 10.3135 24.5641 10.626 24.2516 10.3135C23.9391 10.001 22.3765 9.37598 21.4391 9.37598C20.5018 9.37598 19.8765 10.626 18.3141 10.9385C16.7518 11.251 17.0641 12.501 17.0641 13.126C17.0641 13.751 15.8141 14.376 15.5016 15.001C15.1891 15.626 15.814 16.876 15.5015 17.1885C15.189 17.501 14.8765 18.751 15.5015 19.0635C16.1265 19.376 16.7515 20.626 17.3765 21.251C17.8765 21.751 19.0432 21.4593 19.564 21.251C18.814 20.751 18.6265 18.9593 18.6265 18.126C18.314 18.2301 17.6265 18.251 17.3765 17.501C17.1265 16.751 17.689 16.5635 18.0015 16.5635H18.6265V15.3135L19.564 14.6885C19.564 14.4801 19.6265 14.0635 19.8765 14.0635C20.189 14.0635 20.814 13.4385 20.814 13.126C20.814 12.876 21.2307 12.6051 21.439 12.501H22.3765V12.8135L23.0015 13.751L24.8765 14.0635L25.5015 15.3135L26.7515 15.626L27.064 16.5635C28.0015 16.251 28.314 17.1885 28.0015 17.8135C27.7515 18.3135 27.2723 18.2301 27.064 18.126C27.064 18.0218 27.0015 18.126 26.7515 19.376Z" fill="#ECF7FB"/>
<path d="M4.25 13.4387V15.3137C4 15.5637 3.3125 14.7929 3 14.3762V10.3137C3 9.56369 4.04167 8.95953 4.5625 8.75119H5.5C5.5 9.75119 5.91667 10.2095 6.125 10.3137L7.0625 10.6262L6.4375 11.5637C6.125 11.4595 5.5 11.4387 5.5 12.1887C5.5 12.9387 5.08333 13.3345 4.875 13.4387H4.25Z" fill="#ECF7FB"/>
<path d="M8 8.75119C7.5 8.75119 7.375 9.79286 7.375 10.3137C7.58333 10.522 8.125 10.8762 8.625 10.6262C9.25 10.3137 10.8125 9.37619 11.75 10.3137C12.6875 11.2512 12.375 11.8762 12.375 13.1262C12.375 14.1262 13.625 14.7929 14.25 15.0012V12.8137C14.25 11.5637 14.25 10.6262 13.625 10.0012C13 9.37619 11.125 9.06369 10.1875 8.75119C9.25 8.43869 8.625 8.75119 8 8.75119Z" fill="#ECF7FB"/>
<path d="M5.5 20.001C4.75 20.001 4.35417 19.7926 4.25 19.6885L5.8125 22.1885L8.9375 23.751C9.66667 23.2301 11.3125 22.126 12.0625 21.876C12.8125 21.626 13.2083 20.1051 13.3125 19.376L12.375 20.001C11.8542 20.1051 10.75 20.1885 10.5 19.6885C10.25 19.1885 9.97917 18.8551 9.875 18.751H9.25L8.625 17.8135L8.3125 18.4385C8 18.5426 7.3125 18.876 7.0625 19.376C6.75 20.001 6.4375 20.001 5.5 20.001Z" fill="#ECF7FB"/>
<path d="M40.4618 17.7438C40.4866 17.8013 40.4997 17.8632 40.5004 17.9259C40.5011 17.9886 40.4894 18.0507 40.4659 18.1088C40.4423 18.1669 40.4075 18.2197 40.3634 18.2643C40.3193 18.3088 40.2667 18.3441 40.2089 18.3681C39.5703 18.6431 38.9016 18.8421 38.2165 18.9609V20.6291C38.2524 20.6445 38.2868 20.6631 38.3193 20.6846C38.4185 20.752 38.5022 20.8397 38.5649 20.9419C38.6275 21.0442 38.6678 21.1585 38.6829 21.2774C38.6895 21.3166 38.6921 21.3563 38.6908 21.396C38.6918 21.5102 38.67 21.6234 38.6265 21.729C38.5831 21.8346 38.519 21.9305 38.4379 22.0109C38.3569 22.0913 38.2605 22.1547 38.1546 22.1973C38.0486 22.2399 37.9352 22.2609 37.8211 22.259C37.7918 22.2603 37.7626 22.2576 37.734 22.2511V22.2747C37.7327 22.8798 37.572 23.4738 37.2681 23.997C36.9641 24.5202 36.5278 24.9541 36.0028 25.255V26.5119C36.0028 26.5355 36.0107 26.567 36.0107 26.5911C36.2206 26.5794 36.4304 26.6136 36.6257 26.6914C36.8209 26.7692 36.9968 26.8886 37.1412 27.0413C37.1642 27.0626 37.1806 27.0901 37.1885 27.1205H37.7655C38.3228 27.1205 38.8572 27.3418 39.2513 27.7359C39.6453 28.1299 39.8667 28.6644 39.8667 29.2216V33.2772C39.8665 33.34 39.8414 33.4002 39.797 33.4446C39.7526 33.4891 39.6924 33.5141 39.6296 33.5143H0.737153C0.705923 33.5149 0.6749 33.5091 0.645928 33.4975C0.616956 33.4858 0.590627 33.4684 0.568506 33.4464C0.546384 33.4243 0.528922 33.398 0.517158 33.3691C0.505394 33.3402 0.499567 33.3092 0.500025 33.2779V27.6165C0.499497 27.2677 0.563877 26.9219 0.689878 26.5967C0.878997 26.1171 1.20123 25.7016 1.61863 25.3991C2.03602 25.0966 2.53118 24.9196 3.04578 24.8891C3.55699 23.7392 4.37136 22.75 5.40167 22.0275C4.71889 21.3699 4.27163 20.5059 4.12899 19.5688C4.12111 19.5215 4.12111 19.4817 4.11323 19.4344C4.02595 19.2463 3.98014 19.0415 3.97891 18.8341V18.1314C3.98017 17.9932 4.01548 17.8575 4.08171 17.7363V17.4361C4.00896 17.4518 3.93476 17.4597 3.86034 17.4597C3.80519 17.4597 3.75754 17.4519 3.70238 17.4519C3.55731 17.4319 3.4176 17.3835 3.29124 17.3095C3.16489 17.2355 3.05437 17.1373 2.96602 17.0205C2.87768 16.9037 2.81323 16.7706 2.77638 16.6289C2.73952 16.4872 2.73098 16.3396 2.75124 16.1946C2.7715 16.0424 2.82349 15.8963 2.90383 15.7655C2.98417 15.6348 3.09107 15.5223 3.21762 15.4355C3.28356 15.3893 3.35535 15.3521 3.43111 15.3248C3.25598 15.2 3.11316 15.0351 3.0145 14.844C2.91583 14.6529 2.86417 14.441 2.8638 14.2259V10.708C2.8637 10.4307 2.91824 10.1562 3.02428 9.90005C3.13033 9.6439 3.28581 9.41116 3.48185 9.21513C3.67788 9.0191 3.91062 8.86361 4.16677 8.75757C4.42292 8.65152 4.69746 8.59698 4.97469 8.59708H5.3619C5.58559 8.00598 6.01215 7.51365 6.56538 7.20807C7.1186 6.90248 7.76246 6.80355 8.38191 6.92893L11.5362 7.57728C11.9173 7.65751 12.2606 7.86305 12.5113 8.16111C12.7619 8.45917 12.9055 8.83259 12.9192 9.2218C13.4463 9.45375 13.8941 9.83477 14.2074 10.318C14.5208 10.8011 14.686 11.3654 14.6827 11.9413L14.6669 13.6646V14.9849C14.6675 15.0162 14.6617 15.0473 14.65 15.0763C14.6383 15.1053 14.6209 15.1317 14.5987 15.1538C14.5766 15.176 14.5502 15.1934 14.5212 15.2051C14.4922 15.2168 14.4611 15.2226 14.4298 15.222H14.3664C14.0508 15.2228 13.7395 15.1497 13.4573 15.0085V15.3087C13.598 15.2627 13.7473 15.2495 13.8939 15.27C14.0404 15.2906 14.1804 15.3444 14.303 15.4273C14.4295 15.5141 14.5364 15.6265 14.6168 15.7573C14.6971 15.888 14.7491 16.0342 14.7694 16.1863C14.7759 16.2387 14.7786 16.2915 14.7772 16.3443C14.7774 16.4907 14.7487 16.6358 14.6928 16.7711C14.6368 16.9064 14.5547 17.0294 14.4512 17.1329C14.3476 17.2365 14.2247 17.3186 14.0893 17.3745C13.954 17.4305 13.809 17.4592 13.6625 17.459C13.5907 17.459 13.5191 17.451 13.449 17.4354V17.7517C13.5179 17.8718 13.5534 18.0082 13.5518 18.1467V18.8503C13.5495 19.0518 13.5065 19.2507 13.4254 19.4352C13.4266 19.4539 13.4239 19.4727 13.4175 19.4903C13.3077 20.4669 12.8669 21.3764 12.1685 22.0676C13.1828 22.7889 13.9853 23.7689 14.4925 24.9057C14.8744 24.9286 15.2472 25.032 15.5865 25.2091C15.9257 25.3862 16.2236 25.633 16.4608 25.9333C16.7148 25.7131 17.0106 25.5465 17.3305 25.4433C17.6826 24.5996 18.2235 23.8478 18.9116 23.2458C19.3746 22.8248 19.9639 22.5691 20.5876 22.5186V22.2972C20.3148 22.1409 20.0579 21.9582 19.8207 21.7517L19.4808 21.6253C19.3357 21.578 19.1823 21.5619 19.0305 21.578L18.24 21.6729C17.9571 21.7078 17.6702 21.6581 17.4155 21.5301C17.1608 21.4021 16.9498 21.2015 16.809 20.9536L16.3662 20.171C16.2893 20.0388 16.1839 19.9254 16.0578 19.8389L15.5201 19.4832C15.4709 19.4488 15.4234 19.4119 15.3779 19.3725C15.2333 19.2501 15.1144 19.1001 15.0281 18.9314C14.9418 18.7627 14.8898 18.5786 14.8751 18.3896C14.8604 18.2007 14.8834 18.0107 14.9425 17.8307C15.0017 17.6507 15.096 17.4842 15.22 17.3408C15.3358 17.2072 15.4125 17.0443 15.4418 16.87C15.4711 16.6956 15.4517 16.5166 15.3858 16.3525L15.2117 15.9255C15.0807 15.5958 15.0751 15.2294 15.196 14.8957C15.3169 14.5621 15.556 14.2844 15.868 14.1152L16.2 13.9332C16.3552 13.851 16.485 13.728 16.5755 13.5776C16.6661 13.4271 16.714 13.2549 16.714 13.0793V12.2729C16.7144 11.9712 16.8091 11.6771 16.9849 11.4319C17.1607 11.1867 17.4088 11.0025 17.6944 10.9053L18.7536 10.5418C18.8536 10.5076 18.9471 10.4569 19.0302 10.3917L19.5359 10.0045C20.1391 9.54148 20.8665 9.26866 21.6254 9.22081C22.3843 9.17296 23.1402 9.35226 23.7967 9.73582L24.4924 10.1392L26.1433 10.2971C26.4182 10.321 26.6792 10.4285 26.8912 10.6052C27.1031 10.7819 27.2559 11.0193 27.3289 11.2854L27.8032 12.9614C27.8369 13.0828 27.8959 13.1957 27.9762 13.2927C28.0566 13.3896 28.1566 13.4686 28.2695 13.5242L29.0128 13.8799C29.2748 14.0049 29.4898 14.2105 29.6264 14.4666C29.763 14.7228 29.814 15.0159 29.7719 15.3031L29.7006 15.7852C29.6771 15.9472 29.6986 16.1125 29.7627 16.2631C29.8268 16.4137 29.9311 16.5438 30.0641 16.6392C30.1939 16.7321 30.3064 16.8472 30.3962 16.9791C30.4575 16.7672 30.5641 16.5712 30.7088 16.4046C30.8535 16.2381 31.0327 16.1051 31.234 16.0148L33.8349 14.845C34.0319 14.7589 34.2445 14.7145 34.4594 14.7145C34.6744 14.7145 34.887 14.7589 35.084 14.845L37.6849 16.0148C37.9511 16.1351 38.1769 16.3295 38.3354 16.5749C38.4938 16.8203 38.5782 17.1061 38.5782 17.3982V17.4455H40.025C40.1185 17.4493 40.2089 17.4795 40.2859 17.5326C40.3629 17.5858 40.4232 17.6596 40.4599 17.7457L40.4618 17.7438ZM40.0269 17.9336V17.9258H35.4119C34.4535 17.926 33.5047 18.1173 32.6211 18.4886L32.2891 18.6308H36.6433C37.8067 18.6293 38.9577 18.3922 40.0269 17.9336ZM39.4022 33.0569V29.2381C39.4025 29.0242 39.3606 28.8123 39.2788 28.6146C39.1971 28.4169 39.0772 28.2373 38.9259 28.086C38.7746 27.9348 38.595 27.8148 38.3973 27.7331C38.1996 27.6514 37.9877 27.6094 37.7738 27.6097H36.8804C36.1559 28.1914 35.2563 28.5117 34.3272 28.5189H34.3036C33.3653 28.522 32.4549 28.2009 31.7263 27.6097H30.8329C30.5445 27.6121 30.2615 27.6883 30.0109 27.8311C30.0109 27.8784 30.0187 27.926 30.0187 27.9812V33.0569H30.8644V31.5861C30.8639 31.5548 30.8696 31.5238 30.8813 31.4947C30.8931 31.4657 30.9105 31.4393 30.9326 31.4172C30.9548 31.3951 30.9811 31.3776 31.0102 31.3659C31.0392 31.3542 31.0703 31.3484 31.1016 31.349C31.1644 31.3492 31.2246 31.3743 31.269 31.4187C31.3135 31.4631 31.3385 31.5233 31.3387 31.5861V33.0569H37.2755V31.5861C37.275 31.5548 37.2807 31.5238 37.2924 31.4947C37.3042 31.4657 37.3216 31.4393 37.3437 31.4172C37.3659 31.3951 37.3922 31.3776 37.4213 31.3659C37.4503 31.3542 37.4814 31.3484 37.5127 31.349C37.5755 31.3492 37.6357 31.3743 37.6801 31.4187C37.7245 31.4631 37.7496 31.5233 37.7498 31.5861V33.0569H39.4022ZM38.1453 21.6256C38.2034 21.5395 38.2252 21.4339 38.206 21.3317C38.1867 21.2296 38.128 21.1392 38.0424 21.0801C37.997 21.0498 37.9439 21.0331 37.8894 21.0317C37.8348 21.0303 37.781 21.0443 37.734 21.0722V21.7851C37.8132 21.7996 37.8946 21.7942 37.9712 21.7693C38.0409 21.7375 38.101 21.6878 38.1453 21.6253V21.6256ZM38.1137 17.4515V17.4042C38.1123 17.2028 38.0535 17.0059 37.9444 16.8365C37.8352 16.6672 37.6802 16.5324 37.4973 16.4478L35.2915 15.4599L36.1135 16.282C36.4209 16.601 36.6153 17.0119 36.667 17.4519L38.1137 17.4515ZM37.7423 20.5739V19.0405H37.7344L37.7423 20.5739ZM37.2601 22.2815V19.0799C37.0545 19.0956 36.8474 19.1035 36.6358 19.1035H31.3387V22.2815C31.3475 23.0609 31.6632 23.8054 32.2175 24.3535C32.7718 24.9015 33.5198 25.2089 34.2992 25.2089C35.0787 25.2089 35.8267 24.9015 36.381 24.3535C36.9352 23.8054 37.251 23.0609 37.2598 22.2815H37.2601ZM35.4104 17.4511H36.1931C36.1461 17.138 36.0017 16.8476 35.7803 16.6212L34.3733 15.2142L32.9663 16.6212C32.8292 16.7562 32.7208 16.9176 32.6474 17.0955C32.5741 17.2734 32.5373 17.4643 32.5393 17.6567L32.5472 18.0124C33.4551 17.6395 34.4274 17.4483 35.4089 17.4496L35.4104 17.4511ZM36.611 27.2222C36.4718 27.1334 36.3119 27.0823 36.147 27.074C35.9821 27.0657 35.8178 27.1005 35.6704 27.1749C35.2493 27.3784 34.7881 27.4854 34.3203 27.4881C33.8526 27.4908 33.3902 27.3892 32.9667 27.1906C32.8173 27.1209 32.6527 27.0901 32.4882 27.1012C32.3237 27.1123 32.1647 27.1649 32.0261 27.254C32.6719 27.7707 33.4757 28.0498 34.3028 28.0446H34.3264C35.1596 28.0386 35.9658 27.7487 36.6118 27.2225L36.611 27.2222ZM35.5518 26.7081C35.5401 26.6454 35.5322 26.582 35.5282 26.5183V25.4827C34.7376 25.7911 33.8601 25.7911 33.0695 25.4827V26.5183C33.0682 26.5818 33.0629 26.6452 33.0537 26.7081C33.0931 26.7239 33.1329 26.7396 33.1644 26.7554C33.5233 26.9246 33.9157 27.0111 34.3125 27.0084C34.7093 27.0056 35.1004 26.9138 35.4569 26.7396C35.4892 26.7321 35.5207 26.716 35.5522 26.7085L35.5518 26.7081ZM32.6253 16.2887L33.2815 15.6325L31.4396 16.4625C31.2561 16.5461 31.1005 16.6807 30.9912 16.8503C30.8819 17.0198 30.8236 17.2172 30.8232 17.4189V18.6364H31.0524L32.0565 18.2094L32.0486 17.656C32.0564 17.1424 32.2641 16.6521 32.6275 16.2891L32.6253 16.2887ZM32.5938 26.5183V25.2613C32.0682 24.9612 31.6312 24.5275 31.3272 24.0041C31.0232 23.4808 30.8629 22.8864 30.8626 22.2811V22.2575C30.831 22.2575 30.7992 22.2653 30.7676 22.2653C30.728 22.2667 30.6882 22.264 30.6491 22.2575C30.5364 22.2415 30.4279 22.2035 30.3299 22.1455C30.232 22.0876 30.1464 22.0109 30.0781 21.9198C30.0098 21.8287 29.9602 21.7251 29.932 21.6148C29.9039 21.5045 29.8978 21.3897 29.9141 21.2771C29.9312 21.1587 29.9722 21.0451 30.0348 20.9432C30.0973 20.8413 30.1799 20.7532 30.2776 20.6842C30.2996 20.6681 30.3236 20.6549 30.3489 20.6448V18.621C30.3221 18.6546 30.293 18.6863 30.2619 18.7159L29.7797 19.2138C29.6601 19.3388 29.5779 19.4948 29.5426 19.6641L29.4556 20.1143C29.4556 20.1301 29.4477 20.1379 29.4477 20.1537C29.3667 20.5073 29.1493 20.8145 28.8428 21.0085C28.5363 21.2024 28.1656 21.2674 27.8114 21.1893L27.5979 21.142C27.4679 21.1109 27.3324 21.1104 27.2022 21.1407C27.072 21.1709 26.9506 21.2309 26.8475 21.3161L26.0806 21.9325C25.9388 22.0466 25.7753 22.1307 25.5999 22.1797C25.4246 22.2286 25.2412 22.2414 25.0608 22.2173C25.0143 22.2407 24.9695 22.2672 24.9265 22.2965V22.5179C25.5697 22.5642 26.1777 22.829 26.6498 23.2683C27.3138 23.872 27.8373 24.6141 28.1832 25.4422C28.6077 25.5894 28.989 25.8399 29.2925 26.1711C29.5961 26.5024 29.8125 26.9039 29.9223 27.3396C30.2014 27.2071 30.5068 27.1395 30.8157 27.1419H31.44C31.4479 27.1261 31.4636 27.1103 31.4715 27.0946C31.6103 26.9423 31.7804 26.8218 31.97 26.7413C32.1597 26.6608 32.3645 26.6222 32.5705 26.6282C32.5896 26.5946 32.5978 26.556 32.5941 26.5175L32.5938 26.5183ZM30.8723 20.5739V19.1035H30.8329V20.5668C30.8459 20.5699 30.8591 20.5723 30.8723 20.5739ZM30.8723 21.7836V21.0801C30.8254 21.0491 30.7704 21.0326 30.7142 21.0326C30.6579 21.0326 30.603 21.0491 30.556 21.0801C30.5118 21.1115 30.4744 21.1514 30.4459 21.1976C30.4174 21.2437 30.3984 21.2951 30.3902 21.3487C30.381 21.3987 30.3837 21.4501 30.3981 21.4988C30.4247 21.5985 30.4891 21.684 30.5776 21.7372C30.6661 21.7903 30.7718 21.8069 30.8723 21.7836ZM30.0184 18.2814C30.0861 18.186 30.1343 18.0782 30.1603 17.9641C30.1862 17.8499 30.1893 17.7318 30.1695 17.6165C30.1497 17.5012 30.1072 17.3909 30.0447 17.292C29.9821 17.1931 29.9006 17.1076 29.8049 17.0403C29.5998 16.8961 29.4386 16.6979 29.3393 16.4677C29.2399 16.2375 29.2063 15.9842 29.2421 15.7361L29.3134 15.2539C29.3416 15.0667 29.3083 14.8753 29.2185 14.7085C29.1288 14.5418 28.9873 14.4086 28.8155 14.3291L28.0722 13.9734C27.8987 13.8901 27.7448 13.7709 27.6208 13.6237C27.4968 13.4764 27.4055 13.3046 27.3529 13.1194L26.8787 11.4434C26.8317 11.2696 26.7319 11.1146 26.5931 10.9999C26.4543 10.8852 26.2834 10.8164 26.1039 10.8029L24.4042 10.6449C24.3703 10.6429 24.3376 10.6321 24.3093 10.6134L23.575 10.1864C23 9.85037 22.3378 9.69343 21.6731 9.73567C21.0084 9.77791 20.3715 10.0174 19.8436 10.4236L19.3378 10.8108C19.212 10.9046 19.0729 10.9792 18.9251 11.0321L17.8659 11.3957C17.6739 11.46 17.5071 11.5833 17.3893 11.7479C17.2715 11.9126 17.2086 12.1102 17.2097 12.3127V13.119C17.2092 13.3798 17.1384 13.6356 17.0048 13.8595C16.8713 14.0835 16.6798 14.2673 16.4506 14.3917L16.1186 14.5737C15.9091 14.6857 15.7481 14.8709 15.6665 15.0941C15.5848 15.3172 15.5881 15.5625 15.6759 15.7833L15.8499 16.2103C15.9488 16.4542 15.9782 16.7206 15.9349 16.9801C15.8917 17.2396 15.7775 17.4821 15.6049 17.6807L15.5337 17.7757C15.3935 17.991 15.3439 18.2529 15.3957 18.5045C15.4475 18.7561 15.5964 18.9772 15.8102 19.1196L16.3478 19.4753C16.5373 19.6001 16.6945 19.768 16.8063 19.9654L17.2491 20.748C17.3437 20.9151 17.486 21.0502 17.6577 21.1361C17.8295 21.222 18.0229 21.2547 18.2134 21.2302L19.0039 21.1352C19.0851 21.1247 19.1672 21.1221 19.2489 21.1274C18.6698 20.3599 18.3562 19.4248 18.3556 18.4634V18.3527C18.29 18.3622 18.224 18.3675 18.1578 18.3685C18.1077 18.3698 18.0575 18.3672 18.0077 18.3606C17.7968 18.3306 17.5998 18.2379 17.4423 18.0944C17.2848 17.9509 17.1741 17.7634 17.1247 17.5561C17.0752 17.3489 17.0892 17.1316 17.165 16.9325C17.2407 16.7333 17.3746 16.5616 17.5492 16.4396C17.6647 16.3608 17.7966 16.3092 17.9348 16.2886C18.0731 16.2681 18.2143 16.2792 18.3477 16.321V15.5305H17.7098C17.6469 15.5305 17.5866 15.5055 17.5422 15.461C17.4977 15.4165 17.4727 15.3562 17.4727 15.2933C17.4727 15.2304 17.4977 15.1701 17.5422 15.1257C17.5866 15.0812 17.6469 15.0562 17.7098 15.0562H18.524C18.7446 15.0568 18.9589 14.9831 19.1324 14.847C19.306 14.7108 19.4285 14.5202 19.4804 14.3058H19.1251C19.0622 14.3058 19.0019 14.2808 18.9574 14.2363C18.9129 14.1919 18.888 14.1316 18.888 14.0687C18.888 14.0058 18.9129 13.9455 18.9574 13.901C19.0019 13.8565 19.0622 13.8315 19.1251 13.8315H19.9156C20.0914 13.8305 20.2597 13.7601 20.384 13.6358C20.5084 13.5115 20.5787 13.3432 20.5798 13.1674C20.5797 13.0387 20.605 12.9112 20.6543 12.7922C20.7035 12.6732 20.7757 12.5651 20.8668 12.4741C20.9578 12.383 21.0659 12.3108 21.1849 12.2616C21.3039 12.2123 21.4314 12.187 21.5602 12.187H22.3901C22.5178 12.1865 22.6402 12.1356 22.7305 12.0453C22.8208 11.955 22.8717 11.8326 22.8722 11.7049C22.8722 11.642 22.8972 11.5817 22.9417 11.5372C22.9862 11.4927 23.0465 11.4678 23.1094 11.4678C23.1723 11.4678 23.2326 11.4927 23.277 11.5372C23.3215 11.5817 23.3465 11.642 23.3465 11.7049C23.3465 11.9171 23.2757 12.1232 23.1455 12.2907C23.0152 12.4582 22.8329 12.5775 22.6272 12.6298V12.8669C22.6263 13.0398 22.6941 13.2061 22.8157 13.3291C22.9372 13.4522 23.1026 13.5219 23.2756 13.5231H24.1611C24.3091 13.5232 24.4557 13.5526 24.5924 13.6095C24.7291 13.6665 24.8531 13.7499 24.9574 13.8549C25.0618 13.96 25.1443 14.0846 25.2003 14.2217C25.2563 14.3588 25.2846 14.5056 25.2837 14.6536C25.2836 14.7394 25.3006 14.8244 25.3337 14.9036C25.3667 14.9828 25.4152 15.0547 25.4762 15.115C25.5373 15.1753 25.6097 15.2229 25.6893 15.255C25.7689 15.2871 25.8541 15.3031 25.9399 15.302H26.9676C26.989 15.3006 27.0105 15.3033 27.031 15.3098C27.0916 15.3269 27.1431 15.3672 27.1741 15.4221C27.2052 15.4769 27.2133 15.5417 27.1968 15.6025V16.3218C27.3289 16.2796 27.4688 16.2684 27.6059 16.289C27.743 16.3095 27.8735 16.3613 27.9874 16.4403C28.1076 16.5231 28.2096 16.6296 28.287 16.7533C28.3645 16.877 28.4157 17.0153 28.4376 17.1596C28.4442 17.2093 28.4468 17.2595 28.4455 17.3097C28.4454 17.5906 28.3338 17.8599 28.1352 18.0585C27.9366 18.2571 27.6672 18.3688 27.3863 18.3689C27.3228 18.3675 27.2594 18.3623 27.1965 18.3531V18.4638C27.1983 19.4815 26.8461 20.4681 26.2003 21.2546L26.556 20.9698C26.7163 20.842 26.9031 20.7517 27.1027 20.7052C27.3024 20.6587 27.5099 20.6573 27.7101 20.7011L27.9236 20.7484C27.9279 20.7479 27.9322 20.7483 27.9363 20.7497C27.9404 20.751 27.9441 20.7533 27.9472 20.7563C28.1789 20.8013 28.419 20.7525 28.6146 20.6206C28.8103 20.4887 28.9456 20.2844 28.9907 20.0528L29.0777 19.6025C29.1258 19.3415 29.2527 19.1015 29.4413 18.9148L29.9234 18.4169C29.9628 18.3535 29.9947 18.322 30.0184 18.2826V18.2814ZM29.5441 33.0644V27.9891C29.542 27.5817 29.4281 27.1827 29.2148 26.8356C29.0015 26.4885 28.697 26.2067 28.3344 26.0208C28.3251 26.1172 28.2957 26.2106 28.248 26.295C28.2004 26.3794 28.1357 26.4529 28.0579 26.5108H28.5082C28.5709 26.5116 28.6327 26.525 28.6901 26.5502C28.7393 26.5736 28.7833 26.6067 28.8196 26.6473C28.8558 26.688 28.8836 26.7355 28.9013 26.787C28.919 26.8385 28.9262 26.8931 28.9225 26.9474C28.9189 27.0018 28.9044 27.0549 28.88 27.1036L27.1567 30.6215L27.1803 30.6136C27.5128 31.3969 27.5438 32.2754 27.2674 33.0802H29.5445L29.5441 33.0644ZM25.4169 33.0644L28.4061 26.9786H27.1019C27.0584 26.9781 27.0158 26.9661 26.9783 26.9439C26.9408 26.9217 26.9099 26.8901 26.8884 26.8522C26.8654 26.8086 26.8571 26.7587 26.8648 26.71C26.8702 26.6719 26.8844 26.6356 26.9064 26.604C26.9284 26.5724 26.9574 26.5464 26.9912 26.528L27.7345 26.1487C27.784 26.1243 27.8232 26.0831 27.8449 26.0324C27.8667 25.9817 27.8696 25.9248 27.8531 25.8722C27.5463 25.0071 27.0272 24.233 26.3432 23.621C26.3275 23.6052 26.3117 23.5973 26.3039 23.5816C26.8076 24.5344 26.9614 25.6337 26.7387 26.6882C26.6609 27.1032 26.5471 27.5105 26.3988 27.9058L24.5321 33.0644H25.4169ZM27.8756 17.6095C27.9193 17.5462 27.9502 17.4749 27.9663 17.3997C27.9825 17.3245 27.9836 17.2468 27.9697 17.1712C27.9557 17.0955 27.927 17.0234 27.8851 16.9589C27.8432 16.8944 27.7889 16.8388 27.7255 16.7953C27.6485 16.7422 27.5568 16.7144 27.4633 16.7159C27.3698 16.7173 27.279 16.7478 27.2036 16.8031V17.8308C27.3244 17.8738 27.4561 17.8754 27.5778 17.8353C27.6996 17.7952 27.8046 17.7158 27.8763 17.6095H27.8756ZM26.7537 33.0644C27.0015 32.4651 27.0432 31.8005 26.8723 31.1749L25.9474 33.0644H26.7537ZM22.7766 22.3922C23.8248 22.3918 24.83 21.9752 25.5712 21.234C26.3124 20.4928 26.7289 19.4876 26.7293 18.4394V15.7436H25.9474C25.6492 15.7427 25.3634 15.6244 25.1518 15.4143C24.9402 15.2042 24.8199 14.9191 24.8169 14.621C24.8178 14.448 24.7501 14.2818 24.6285 14.1587C24.5069 14.0357 24.3415 13.9659 24.1686 13.9647H23.2831C22.9837 13.9635 22.6969 13.8439 22.4851 13.6322C22.2734 13.4205 22.1539 13.1337 22.1526 12.8342V12.6286H21.5598C21.4259 12.6296 21.2979 12.6832 21.2032 12.7779C21.1086 12.8725 21.055 13.0006 21.054 13.1344C21.0526 13.4278 20.9386 13.7095 20.7356 13.9213C20.5326 14.1331 20.256 14.2589 19.9629 14.2728C19.9159 14.5634 19.782 14.833 19.5788 15.046C19.3756 15.2591 19.1126 15.4056 18.8246 15.4663V18.4304C18.8238 18.9501 18.9254 19.4649 19.1237 19.9454C19.3219 20.4258 19.6129 20.8624 19.98 21.2304C20.3471 21.5983 20.7831 21.8903 21.263 22.0896C21.743 22.289 22.2576 22.3918 22.7773 22.3922H22.7766ZM25.9467 27.7362C26.2479 26.978 26.38 26.1633 26.3339 25.3488C26.27 25.3421 26.2066 25.3316 26.144 25.3173C25.1122 25.9857 23.9045 26.3315 22.6752 26.3104C21.4459 26.2892 20.2508 25.9022 19.2425 25.1987C19.1668 26.0593 19.294 26.9258 19.614 27.7283L21.535 33.0562H24.0331L25.9467 27.7362ZM26.263 24.8588C26.1786 24.4564 26.0319 24.0696 25.8281 23.7125C25.6996 23.4908 25.5542 23.2793 25.3932 23.0799C25.243 23.0388 25.0896 23.0097 24.9347 22.9929V23.2615C24.9352 23.6409 25.0683 24.0083 25.311 24.2999C25.5537 24.5916 25.8907 24.7893 26.2637 24.8588H26.263ZM25.5673 25.1116C25.2328 24.9323 24.9532 24.6655 24.7582 24.3397C24.5633 24.014 24.4604 23.6415 24.4605 23.2619V22.5269C23.3815 22.9696 22.1716 22.9696 21.0927 22.5269V23.3568C21.0909 23.7208 20.9909 24.0775 20.803 24.3893C20.6152 24.701 20.3466 24.9562 20.0256 25.1278C20.8742 25.5978 21.8288 25.8431 22.7989 25.8403C23.769 25.8375 24.7222 25.5866 25.5681 25.1116H25.5673ZM21.0236 33.0644L19.166 27.9024C19.015 27.4966 18.8986 27.0788 18.8182 26.6533C18.6031 25.626 18.7513 24.5558 19.2373 23.6255C18.5416 24.2304 18.0158 25.0064 17.7117 25.8767C17.6961 25.9294 17.6993 25.9859 17.721 26.0364C17.7427 26.0869 17.7813 26.1282 17.8303 26.1532L18.5735 26.5325C18.6021 26.5468 18.6273 26.5667 18.6477 26.5912C18.6681 26.6157 18.6832 26.6441 18.6921 26.6747C18.6986 26.6952 18.7013 26.7167 18.7 26.7381C18.7005 26.7694 18.6948 26.8005 18.6831 26.8295C18.6714 26.8586 18.6539 26.8849 18.6318 26.9071C18.6096 26.9292 18.5833 26.9466 18.5543 26.9584C18.5252 26.9701 18.4942 26.9758 18.4629 26.9753H17.1568L20.2004 33.0626L21.0236 33.0644ZM20.6203 23.3568V22.9932C20.462 23.0089 20.3057 23.0407 20.1539 23.0882C19.9929 23.2829 19.85 23.4918 19.7269 23.7125C19.5554 24.0181 19.4252 24.3452 19.3397 24.685L19.5296 24.8272C19.8434 24.729 20.118 24.5336 20.3138 24.2694C20.5095 24.0052 20.6165 23.6857 20.6192 23.3568H20.6203ZM19.6628 33.0644L18.6902 31.1198C18.5021 31.7608 18.5384 32.4468 18.793 33.0644H19.6628ZM18.4452 30.6297L16.6818 27.0961C16.6529 27.0399 16.6393 26.9772 16.6424 26.9141C16.6418 26.8597 16.652 26.8058 16.6726 26.7555C16.6931 26.7051 16.7235 26.6594 16.7619 26.6209C16.8004 26.5825 16.8461 26.5521 16.8964 26.5316C16.9468 26.511 17.0007 26.5008 17.0551 26.5014H17.5053C17.4288 26.4423 17.365 26.3685 17.3175 26.2844C17.27 26.2002 17.2398 26.1074 17.2288 26.0114C16.8626 26.1947 16.5551 26.4771 16.3412 26.8264C16.1274 27.1757 16.0158 27.578 16.0192 27.9876V33.0644H18.288C18.0037 32.2609 18.0348 31.3794 18.3751 30.5979L18.4452 30.6297ZM18.3503 17.8308V16.8178C18.275 16.7595 18.1832 16.7265 18.088 16.7237C17.9928 16.7208 17.8991 16.7483 17.8205 16.802C17.7028 16.882 17.6183 17.0023 17.5832 17.1402C17.5481 17.2781 17.5648 17.4241 17.63 17.5506C17.6952 17.6771 17.8045 17.7754 17.9372 17.8268C18.0699 17.8782 18.2169 17.8793 18.3503 17.8297V17.8308ZM16.1527 26.2729C15.9766 26.0369 15.7551 25.8384 15.5012 25.689C15.2474 25.5397 14.9663 25.4425 14.6744 25.4032C14.6864 25.534 14.6626 25.6657 14.6055 25.7841C14.5484 25.9025 14.4602 26.0031 14.3503 26.0752H14.88C14.9427 26.076 15.0046 26.0894 15.062 26.1146C15.1126 26.1387 15.1578 26.1727 15.1952 26.2145C15.2325 26.2562 15.2612 26.305 15.2796 26.3579C15.298 26.4108 15.3057 26.4669 15.3023 26.5228C15.2989 26.5787 15.2844 26.6334 15.2598 26.6837L12.9436 31.5058H14.0974C14.1603 31.5058 14.2206 31.5308 14.265 31.5753C14.3095 31.6198 14.3345 31.6801 14.3345 31.743C14.3345 31.8059 14.3095 31.8662 14.265 31.9106C14.2206 31.9551 14.1603 31.9801 14.0974 31.9801H12.7136L12.1917 33.0633H15.5355V27.9891C15.5361 27.363 15.7543 26.7566 16.1527 26.2736V26.2729ZM11.7336 32.9222L14.793 26.5505H13.3777C13.334 26.5509 13.291 26.5394 13.2534 26.5171C13.2157 26.4948 13.1849 26.4626 13.1642 26.4241C13.1366 26.3672 13.1318 26.3018 13.1509 26.2415C13.1701 26.1812 13.2116 26.1305 13.2671 26.0999L14.0576 25.6966C14.1118 25.6685 14.1542 25.622 14.1774 25.5656C14.2005 25.5091 14.2029 25.4462 14.184 25.3882C13.8441 24.4351 13.2609 23.5876 12.4923 22.9295C13.0312 23.936 13.2017 25.0992 12.9744 26.2181C12.8889 26.6698 12.7673 27.114 12.6108 27.5463L10.6031 33.0644H11.6702L11.7336 32.9222ZM14.2159 16.7082C14.2634 16.6392 14.2967 16.5616 14.3141 16.4797C14.3314 16.3978 14.3324 16.3133 14.317 16.231C14.3016 16.1487 14.2701 16.0703 14.2243 16.0003C14.1785 15.9302 14.1193 15.8699 14.0501 15.8227C13.9641 15.7652 13.8624 15.7359 13.7591 15.7387C13.6557 15.7415 13.5557 15.7764 13.473 15.8385V16.9453C13.6054 16.9962 13.7512 17.0004 13.8863 16.9573C14.0214 16.9142 14.1378 16.8263 14.2163 16.7082H14.2159ZM14.2159 11.9334C14.2167 11.3682 14.0255 10.8194 13.6736 10.3771C13.3217 9.93475 12.8301 9.62504 12.2791 9.4987L9.59907 8.87398C8.90344 8.73178 8.3185 8.80269 7.99433 9.07171C7.88546 9.16775 7.80026 9.28764 7.74539 9.42205C7.69052 9.55645 7.66747 9.70172 7.67803 9.84651V10.3196C7.9574 10.4711 8.27747 10.5305 8.59259 10.4893C8.9077 10.4482 9.20177 10.3086 9.43285 10.0904C9.77472 9.77988 10.2201 9.60798 10.6819 9.60826H10.832C11.3244 9.60905 11.7964 9.80502 12.1447 10.1532C12.4929 10.5014 12.6888 10.9735 12.6896 11.4659V12.8493C12.6883 13.1182 12.7408 13.3848 12.8438 13.6332C12.9469 13.8816 13.0986 14.107 13.2899 14.296C13.5369 14.5428 13.8601 14.6989 14.2069 14.7388V13.6477C14.206 13.4299 14.1191 13.2214 13.9652 13.0674C13.8112 12.9134 13.6026 12.8265 13.3849 12.8256C13.3536 12.8262 13.3225 12.8204 13.2935 12.8087C13.2644 12.797 13.2381 12.7795 13.2159 12.7574C13.1938 12.7353 13.1764 12.7089 13.1646 12.6799C13.1529 12.6509 13.1472 12.6198 13.1477 12.5885C13.1479 12.5257 13.173 12.4655 13.2174 12.421C13.2618 12.3766 13.322 12.3516 13.3849 12.3514C13.6875 12.3546 13.9801 12.4604 14.2148 12.6515L14.2159 11.9334ZM13.1091 18.3208V18.155C13.1086 18.0671 13.0735 17.9829 13.0113 17.9207C12.9491 17.8586 12.865 17.8234 12.777 17.8229C12.7141 17.8229 12.6538 17.798 12.6094 17.7535C12.5649 17.709 12.5399 17.6487 12.5399 17.5858C12.5399 17.5229 12.5649 17.4626 12.6094 17.4181C12.6538 17.3737 12.7141 17.3487 12.777 17.3487C12.8546 17.3475 12.9319 17.3581 13.0063 17.3802V14.6765C12.9905 14.6607 12.9748 14.6529 12.959 14.6371C12.7237 14.4028 12.537 14.1244 12.4094 13.8178C12.2819 13.5112 12.2161 13.1824 12.2157 12.8504V11.4591C12.2153 11.0924 12.0695 10.7407 11.8101 10.4814C11.5508 10.222 11.1991 10.0762 10.8324 10.0758H10.6744C10.3327 10.0758 10.0032 10.2026 9.74953 10.4315C9.43965 10.7209 9.04503 10.9033 8.62375 10.9516C8.20247 11 7.7768 10.9118 7.40939 10.7001C7.39363 10.708 7.37787 10.708 7.36211 10.7159C7.36236 10.8509 7.33594 10.9846 7.28439 11.1094C7.23283 11.2342 7.15714 11.3476 7.06166 11.4431C6.96618 11.5386 6.85279 11.6143 6.728 11.6658C6.6032 11.7174 6.46946 11.7438 6.33443 11.7435C6.18516 11.7435 6.04201 11.8028 5.93647 11.9084C5.83092 12.0139 5.77162 12.1571 5.77162 12.3063V12.3855C5.77131 12.7297 5.64871 13.0625 5.42569 13.3246C5.20267 13.5868 4.89376 13.7611 4.55409 13.8165V17.381C4.62835 17.3583 4.70574 17.3477 4.78334 17.3494C4.81448 17.3494 4.84532 17.3556 4.87409 17.3675C4.90286 17.3794 4.929 17.3969 4.95102 17.4189C4.97303 17.4409 4.9905 17.4671 5.00242 17.4958C5.01434 17.5246 5.02047 17.5554 5.02047 17.5866C5.02047 17.6177 5.01434 17.6485 5.00242 17.6773C4.9905 17.7061 4.97303 17.7322 4.95102 17.7542C4.929 17.7763 4.90286 17.7937 4.87409 17.8056C4.84532 17.8176 4.81448 17.8237 4.78334 17.8237C4.69543 17.8242 4.61125 17.8593 4.54909 17.9215C4.48692 17.9837 4.45178 18.0678 4.45129 18.1558V18.3216C4.45068 18.376 4.46095 18.4299 4.48147 18.4802C4.502 18.5306 4.53238 18.5763 4.57083 18.6148C4.60927 18.6532 4.65501 18.6836 4.70536 18.7041C4.7557 18.7247 4.80964 18.7349 4.86401 18.7343H5.86017C6.02779 18.7338 6.18841 18.667 6.30694 18.5485C6.42546 18.43 6.49227 18.2693 6.49276 18.1017C6.49356 17.8084 6.61043 17.5273 6.81783 17.3199C7.02523 17.1125 7.3063 16.9957 7.59961 16.9949H9.8921C10.1854 16.9957 10.4665 17.1125 10.6739 17.3199C10.8813 17.5273 10.9982 17.8084 10.999 18.1017C10.9994 18.2693 11.0663 18.43 11.1848 18.5485C11.3033 18.667 11.4639 18.7338 11.6315 18.7343H12.6907C12.8007 18.7338 12.9061 18.6903 12.9843 18.613C13.0625 18.5357 13.1073 18.4308 13.1091 18.3208ZM12.1527 19.8149C12.3607 19.8155 12.563 19.7477 12.7287 19.622C12.8944 19.4963 13.0142 19.3197 13.0697 19.1193C12.9537 19.175 12.8269 19.2047 12.6982 19.2063H11.6387C11.3454 19.2055 11.0643 19.0887 10.8569 18.8813C10.6495 18.6739 10.5326 18.3928 10.5318 18.0995C10.5313 17.9318 10.4645 17.7712 10.346 17.6527C10.2275 17.5342 10.0669 17.4674 9.89923 17.4669H8.9192C8.95162 17.4891 8.97847 17.5185 8.99766 17.5528C9.01686 17.5871 9.02789 17.6254 9.02989 17.6646C9.02969 17.7903 9.05429 17.9147 9.10228 18.0308C9.15028 18.147 9.22072 18.2525 9.30957 18.3413C9.39841 18.4302 9.50393 18.5006 9.62005 18.5486C9.73617 18.5966 9.86063 18.6212 9.98628 18.621H10.1052C10.4924 18.621 10.548 18.9767 10.548 19.1838V19.2074C10.5481 19.3688 10.6122 19.5236 10.7263 19.6377C10.8404 19.7518 10.9952 19.8159 11.1565 19.816L12.1527 19.8149ZM12.5954 25.2929H11.9231C11.9237 25.5846 11.8838 25.8751 11.8045 26.1558C11.6888 26.5655 11.4867 26.9456 11.2117 27.2706L10.769 27.8003C10.711 27.8698 10.6385 27.9257 10.5565 27.9639C10.4745 28.0022 10.3852 28.0219 10.2947 28.0217H10.2553C10.1591 28.0158 10.0655 27.9878 9.98187 27.9399C9.89824 27.8919 9.82682 27.8253 9.77316 27.7452L8.777 26.2117L7.78084 27.7452C7.72914 27.8271 7.65818 27.8952 7.57413 27.9434C7.49009 27.9916 7.39553 28.0185 7.2987 28.0217H7.2593C7.16885 28.0219 7.07945 28.0022 6.99748 27.9639C6.91551 27.9257 6.84298 27.8698 6.78505 27.8003L6.34231 27.2706C6.06732 26.9456 5.86517 26.5655 5.74949 26.1558C5.67071 25.8749 5.63082 25.5846 5.63092 25.2929H4.95856C4.98911 26.0068 5.13325 26.7112 5.38554 27.3797L7.44916 33.0558H10.0895L12.1531 27.3797C12.4181 26.7143 12.5678 26.0086 12.5958 25.2929H12.5954ZM11.8762 24.8186H12.5797C12.5292 24.2092 12.3456 23.6182 12.042 23.0874C11.9304 22.8882 11.8035 22.698 11.6627 22.5182C11.5464 22.6046 11.425 22.6837 11.2991 22.7554L11.062 22.8897V23.1741L11.3306 23.5455C11.611 23.9204 11.798 24.3567 11.8762 24.8182V24.8186ZM12.3902 9.03157C12.4035 9.03342 12.4166 9.03605 12.4296 9.03945C12.3845 8.79137 12.2663 8.56241 12.0902 8.38192C11.9142 8.20143 11.6882 8.07763 11.4413 8.0264L8.28698 7.38593C7.96955 7.31974 7.6413 7.32584 7.32654 7.40378C7.01179 7.48172 6.71862 7.62951 6.46875 7.83617C6.22576 8.03539 6.02863 8.28471 5.89084 8.5671C5.75304 8.8495 5.67782 9.1583 5.67032 9.47243C5.78888 9.67804 6.31079 10.4855 7.20377 10.2787V9.84651C7.19511 9.63104 7.2346 9.41635 7.31937 9.21806C7.40413 9.01978 7.53204 8.84288 7.69379 8.70026C8.13653 8.33669 8.84791 8.23389 9.70187 8.4076L12.3902 9.03157ZM12.8404 20.1068C12.6279 20.2259 12.3884 20.2885 12.1448 20.2888H11.1487C11.0063 20.2893 10.8652 20.2616 10.7335 20.2073C10.6019 20.1531 10.4823 20.0733 10.3816 19.9726C10.2809 19.8719 10.2012 19.7523 10.1469 19.6207C10.0926 19.489 10.0649 19.348 10.0654 19.2056V19.1819C10.0671 19.1527 10.0645 19.1234 10.0576 19.0949H9.97052C9.82593 19.0938 9.68221 19.0724 9.54354 19.0315C9.20555 18.928 8.91814 18.7025 8.73723 18.3989C8.5676 18.6786 8.30866 18.893 8.00221 19.0075C7.84491 19.0638 7.67926 19.0932 7.51219 19.0945C7.48916 19.0947 7.46714 19.1039 7.45086 19.1202C7.43457 19.1365 7.42534 19.1585 7.42514 19.1816V19.2052C7.42564 19.3476 7.39796 19.4887 7.3437 19.6203C7.28944 19.752 7.20967 19.8716 7.10898 19.9722C7.0083 20.0729 6.88869 20.1527 6.75705 20.207C6.6254 20.2612 6.48432 20.2889 6.34193 20.2884H5.41706C5.18276 20.2898 4.95181 20.2328 4.74507 20.1226C5.03651 21.0377 5.66342 21.8087 6.49989 22.2807V21.0474C6.49989 20.9846 6.52488 20.9242 6.56935 20.8798C6.61382 20.8353 6.67413 20.8103 6.73702 20.8103C6.79991 20.8103 6.86023 20.8353 6.9047 20.8798C6.94917 20.9242 6.97415 20.9846 6.97415 21.0474V22.328C6.97145 22.3941 6.94304 22.4566 6.89498 22.5021L8.90307 23.5771L10.6665 22.573C10.6185 22.5275 10.5901 22.4651 10.5874 22.3989V21.0482C10.5874 20.9853 10.6123 20.925 10.6568 20.8805C10.7013 20.836 10.7616 20.8111 10.8245 20.8111C10.8874 20.8111 10.9477 20.836 10.9922 20.8805C11.0366 20.925 11.0616 20.9853 11.0616 21.0482V22.3524C11.9217 21.8613 12.559 21.0571 12.8404 20.1076V20.1068ZM10.8481 26.9786C11.1999 26.559 11.4075 26.0374 11.4403 25.4908C11.4731 24.9442 11.3293 24.4015 11.0301 23.9429C10.9461 24.2652 10.7977 24.5672 10.594 24.8308C10.3902 25.0943 10.1353 25.3139 9.84445 25.4763L9.12519 25.8718L10.1686 27.4852C10.1765 27.4931 10.1844 27.5088 10.2001 27.5167C10.229 27.5395 10.2654 27.5506 10.3021 27.5477C10.3388 27.5448 10.373 27.5281 10.3979 27.5009L10.8481 26.9786ZM10.5855 23.7519V23.167L9.02013 24.0603C8.98506 24.0798 8.94561 24.09 8.90551 24.09C8.8654 24.09 8.82596 24.0798 8.79088 24.0603L6.97265 23.0799V23.7519C7.03399 24.0276 7.15308 24.2873 7.32207 24.5136C7.49106 24.74 7.70612 24.9279 7.95305 25.0651L8.783 25.5236L9.61295 25.0651C9.85946 24.9282 10.0739 24.7402 10.2419 24.5137C10.41 24.2872 10.5277 24.0275 10.5874 23.7519H10.5855ZM8.58527 17.4673H7.60712C7.4395 17.4677 7.27888 17.5346 7.16035 17.6531C7.04183 17.7716 6.97502 17.9322 6.97453 18.0998C6.97373 18.3932 6.85686 18.6742 6.64946 18.8816C6.44206 19.089 6.16099 19.2059 5.86768 19.2067H4.86363C4.73495 19.2051 4.60817 19.1754 4.49218 19.1196C4.54869 19.3195 4.66875 19.4955 4.83421 19.621C4.99966 19.7465 5.2015 19.8147 5.40918 19.8153H6.34981C6.51076 19.8138 6.66471 19.7492 6.77852 19.6354C6.89233 19.5216 6.95692 19.3676 6.95839 19.2067V19.1831C6.95839 19.0338 7.01769 18.8906 7.12323 18.7851C7.22878 18.6795 7.37193 18.6203 7.5212 18.6203C7.64685 18.6204 7.7713 18.5958 7.88742 18.5479C8.00355 18.4999 8.10906 18.4294 8.19791 18.3406C8.28676 18.2517 8.3572 18.1462 8.40519 18.0301C8.45318 17.914 8.47779 17.7895 8.47759 17.6639C8.48031 17.6248 8.49165 17.5868 8.51079 17.5526C8.52992 17.5184 8.55638 17.4889 8.58827 17.4661L8.58527 17.4673ZM7.39138 27.4912L8.43481 25.8778L7.71555 25.4827C7.4243 25.3208 7.16901 25.1014 6.96519 24.8378C6.76137 24.5742 6.61327 24.2719 6.52991 23.9493C6.2327 24.4086 6.09006 24.9509 6.12279 25.497C6.15553 26.0431 6.36193 26.5645 6.71188 26.985L7.15462 27.5148L7.18614 27.5463C7.22188 27.5619 7.26182 27.5648 7.29948 27.5548C7.33713 27.5448 7.37031 27.5224 7.39363 27.4912H7.39138ZM6.95877 33.0644L4.95068 27.5463C4.79059 27.1152 4.66893 26.6707 4.58711 26.2181C4.35187 25.0994 4.5228 23.9335 5.06925 22.9295C4.30065 23.5876 3.71744 24.4351 3.37746 25.3882C3.3586 25.4462 3.36096 25.5091 3.38412 25.5656C3.40727 25.622 3.44972 25.6685 3.5039 25.6966L4.29445 26.0999C4.32296 26.1142 4.34822 26.1341 4.36862 26.1586C4.38903 26.1831 4.40414 26.2115 4.41302 26.2421C4.41953 26.2626 4.4222 26.2841 4.42089 26.3055C4.4207 26.3684 4.39565 26.4286 4.35122 26.473C4.3068 26.5174 4.2466 26.5425 4.18377 26.5427H2.76888L5.82791 32.9144L5.89131 33.0566H6.95839L6.95877 33.0644ZM6.89536 10.7871H5.79039C5.46342 10.7875 5.14996 10.9176 4.91875 11.1488C4.68755 11.38 4.55749 11.6935 4.55709 12.0204V13.3336C4.7689 13.2808 4.95702 13.1589 5.09166 12.9871C5.2263 12.8152 5.29975 12.6034 5.30037 12.3851V12.306C5.30136 12.0316 5.41078 11.7688 5.60477 11.5748C5.79876 11.3808 6.06159 11.2714 6.33593 11.2704C6.47181 11.271 6.60329 11.2223 6.70611 11.1335C6.80894 11.0447 6.87615 10.9217 6.89536 10.7871ZM6.50027 23.1748V22.8191L6.35019 22.74C6.20589 22.66 6.06599 22.5723 5.93109 22.4773C5.77736 22.6688 5.63934 22.8723 5.51836 23.0859C5.21823 23.6182 5.03494 24.2084 4.9807 24.8171H5.6842C5.76153 24.3567 5.94567 23.9208 6.22187 23.5444L6.50027 23.1748ZM5.36978 33.0644L2.3025 26.686C2.27365 26.6298 2.26006 26.5671 2.2631 26.504C2.26285 26.4479 2.27373 26.3922 2.2951 26.3403C2.31647 26.2884 2.34791 26.2412 2.38761 26.2015C2.42731 26.1618 2.47448 26.1304 2.52639 26.109C2.57831 26.0877 2.63394 26.0768 2.69008 26.077H3.21199C3.1027 26.0044 3.01495 25.9036 2.95792 25.7854C2.90089 25.6672 2.87668 25.5358 2.88782 25.405C2.49909 25.4598 2.13185 25.6167 1.82356 25.8597C1.51528 26.1028 1.27698 26.4232 1.13299 26.7884C1.02895 27.0611 0.975421 27.3505 0.975032 27.6424V33.0644H5.36978ZM5.74911 10.3129C5.53396 10.1191 5.35462 9.889 5.21933 9.63302C5.20403 9.60089 5.19596 9.5658 5.19569 9.53021C5.19703 9.37398 5.2102 9.21808 5.23509 9.06383H4.97244C4.53875 9.06473 4.12308 9.23741 3.81642 9.54407C3.50975 9.85074 3.33708 10.2664 3.33618 10.7001V14.218C3.33535 14.4272 3.41008 14.6298 3.54664 14.7883C3.6832 14.9469 3.8724 15.0508 4.07946 15.081V12.0137C4.08206 11.5688 4.25784 11.1423 4.56953 10.8248C4.88122 10.5073 5.30432 10.3237 5.74911 10.3129ZM4.08884 16.9453V15.8464C4.00631 15.7812 3.90528 15.7438 3.80021 15.7396C3.69514 15.7353 3.59142 15.7645 3.5039 15.8227C3.40079 15.8927 3.32096 15.9919 3.27465 16.1075C3.22795 16.2223 3.2157 16.3482 3.23939 16.4698C3.26307 16.5915 3.32168 16.7036 3.40804 16.7924C3.4944 16.8813 3.60477 16.9431 3.72567 16.9702C3.84658 16.9974 3.97277 16.9887 4.08884 16.9453Z" fill="#333333"/>
<path d="M36.5628 20.9374C36.5634 20.9687 36.5576 20.9998 36.5459 21.0288C36.5342 21.0578 36.5167 21.0842 36.4946 21.1063C36.4725 21.1285 36.4461 21.1459 36.4171 21.1576C36.3881 21.1693 36.357 21.1751 36.3257 21.1745C36.2629 21.1743 36.2027 21.1493 36.1582 21.1049C36.1138 21.0604 36.0888 21.0002 36.0886 20.9374C36.0871 20.8561 36.0542 20.7784 35.9966 20.7209C35.9391 20.6634 35.8615 20.6304 35.7802 20.629C35.7391 20.6282 35.6982 20.6356 35.66 20.6507C35.6218 20.6658 35.5869 20.6884 35.5575 20.7171C35.5281 20.7458 35.5047 20.78 35.4886 20.8178C35.4725 20.8557 35.4641 20.8963 35.4639 20.9374C35.4637 21.0002 35.4386 21.0604 35.3942 21.1049C35.3498 21.1493 35.2896 21.1743 35.2267 21.1745C35.1954 21.1751 35.1643 21.1693 35.1353 21.1576C35.1063 21.1459 35.0799 21.1285 35.0578 21.1063C35.0357 21.0842 35.0182 21.0578 35.0065 21.0288C34.9948 20.9998 34.989 20.9687 34.9896 20.9374C34.9834 20.8303 34.9992 20.723 35.0359 20.6222C35.0726 20.5214 35.1296 20.4291 35.2032 20.3511C35.2769 20.2731 35.3657 20.2109 35.4642 20.1684C35.5627 20.1259 35.6689 20.104 35.7762 20.104C35.8835 20.104 35.9897 20.1259 36.0882 20.1684C36.1867 20.2109 36.2756 20.2731 36.3492 20.3511C36.4229 20.4291 36.4798 20.5214 36.5165 20.6222C36.5533 20.723 36.569 20.8303 36.5628 20.9374Z" fill="#333333"/>
<path d="M35.3947 22.8349C35.4385 22.8791 35.463 22.9387 35.463 23.0009C35.463 23.0631 35.4385 23.1228 35.3947 23.1669C35.1063 23.4549 34.7154 23.6167 34.3078 23.6167C33.9002 23.6167 33.5092 23.4549 33.2208 23.1669C33.1786 23.1225 33.1555 23.0634 33.1563 23.0022C33.1571 22.9409 33.1817 22.8824 33.225 22.8391C33.2683 22.7958 33.3268 22.7712 33.3881 22.7704C33.4493 22.7696 33.5084 22.7927 33.5529 22.8349C33.7529 23.032 34.0224 23.1426 34.3033 23.1426C34.5841 23.1426 34.8537 23.032 35.0537 22.8349C35.0759 22.8122 35.1024 22.7941 35.1317 22.7818C35.161 22.7695 35.1924 22.7632 35.2242 22.7632C35.256 22.7632 35.2874 22.7695 35.3167 22.7818C35.346 22.7941 35.3725 22.8122 35.3947 22.8349Z" fill="#333333"/>
<path d="M33.624 20.9373C33.6238 21.0001 33.5988 21.0603 33.5543 21.1047C33.5099 21.1492 33.4497 21.1742 33.3869 21.1744C33.3556 21.175 33.3245 21.1692 33.2955 21.1575C33.2665 21.1458 33.2401 21.1283 33.218 21.1062C33.1958 21.0841 33.1784 21.0577 33.1667 21.0287C33.1549 20.9997 33.1492 20.9686 33.1497 20.9373C33.1483 20.8559 33.1153 20.7783 33.0578 20.7208C33.0003 20.6633 32.9227 20.6303 32.8413 20.6289C32.8002 20.6281 32.7594 20.6354 32.7212 20.6506C32.683 20.6657 32.6481 20.6882 32.6187 20.7169C32.5893 20.7456 32.5658 20.7799 32.5498 20.8177C32.5337 20.8555 32.5253 20.8962 32.525 20.9373C32.525 21.0002 32.5001 21.0605 32.4556 21.105C32.4111 21.1494 32.3508 21.1744 32.2879 21.1744C32.225 21.1744 32.1647 21.1494 32.1202 21.105C32.0758 21.0605 32.0508 21.0002 32.0508 20.9373C32.0624 20.7365 32.1503 20.5478 32.2966 20.4098C32.4428 20.2717 32.6363 20.1948 32.8374 20.1948C33.0385 20.1948 33.232 20.2717 33.3782 20.4098C33.5245 20.5478 33.6124 20.7365 33.624 20.9373Z" fill="#333333"/>
<path d="M25.6628 16.6682C25.6626 16.731 25.6376 16.7912 25.5932 16.8356C25.5487 16.8801 25.4885 16.9051 25.4257 16.9053C25.3944 16.9059 25.3633 16.9001 25.3343 16.8884C25.3053 16.8767 25.2789 16.8592 25.2568 16.8371C25.2346 16.815 25.2172 16.7886 25.2055 16.7596C25.1938 16.7306 25.188 16.6995 25.1886 16.6682C25.1881 16.5405 25.1371 16.4181 25.0468 16.3278C24.9565 16.2375 24.8341 16.1866 24.7064 16.1861C24.643 16.1857 24.5801 16.1979 24.5215 16.2219C24.4628 16.246 24.4095 16.2815 24.3646 16.3264C24.3198 16.3712 24.2843 16.4245 24.2602 16.4832C24.2361 16.5419 24.2239 16.6048 24.2243 16.6682C24.2241 16.731 24.199 16.7912 24.1546 16.8356C24.1102 16.8801 24.05 16.9051 23.9872 16.9053C23.9559 16.9059 23.9248 16.9001 23.8958 16.8884C23.8667 16.8767 23.8404 16.8592 23.8182 16.8371C23.7961 16.815 23.7787 16.7886 23.7669 16.7596C23.7552 16.7306 23.7495 16.6995 23.75 16.6682C23.75 16.4144 23.8508 16.1711 24.0303 15.9917C24.2097 15.8122 24.4531 15.7114 24.7068 15.7114C24.9606 15.7114 25.2039 15.8122 25.3833 15.9917C25.5628 16.1711 25.6636 16.4144 25.6636 16.6682H25.6628Z" fill="#333333"/>
<path d="M24.1521 19.2059C24.1746 19.2274 24.1925 19.2531 24.2047 19.2817C24.217 19.3102 24.2233 19.3409 24.2233 19.372C24.2233 19.403 24.217 19.4337 24.2047 19.4623C24.1925 19.4908 24.1746 19.5166 24.1521 19.538C23.9722 19.7184 23.7584 19.8615 23.523 19.9592C23.2877 20.0569 23.0354 20.1072 22.7805 20.1072C22.5257 20.1072 22.2734 20.0569 22.0381 19.9592C21.8027 19.8615 21.5889 19.7184 21.409 19.538C21.3671 19.4929 21.3438 19.4336 21.3438 19.372C21.3438 19.3104 21.3671 19.2511 21.409 19.2059C21.4522 19.1612 21.5113 19.1353 21.5734 19.1339C21.6356 19.1324 21.6958 19.1555 21.7411 19.1981C22.0164 19.4715 22.3886 19.6249 22.7766 19.6249C23.1646 19.6249 23.5369 19.4715 23.8122 19.1981C23.8606 19.1589 23.9213 19.1381 23.9836 19.1396C24.0458 19.141 24.1056 19.1645 24.1521 19.2059Z" fill="#333333"/>
<path d="M20.8553 15.7041C20.981 15.705 21.1052 15.7306 21.221 15.7795C21.3367 15.8285 21.4416 15.8998 21.5298 15.9894C21.6179 16.079 21.6874 16.185 21.7345 16.3016C21.7815 16.4181 21.8051 16.5428 21.8039 16.6684C21.8039 16.7313 21.7789 16.7916 21.7344 16.8361C21.6899 16.8805 21.6296 16.9055 21.5667 16.9055C21.5038 16.9055 21.4435 16.8805 21.399 16.8361C21.3546 16.7916 21.3296 16.7313 21.3296 16.6684V16.6526C21.319 16.5303 21.2627 16.4165 21.1719 16.3338C21.0811 16.2512 20.9625 16.2059 20.8397 16.2069C20.7169 16.2079 20.599 16.2551 20.5096 16.3392C20.4201 16.4233 20.3657 16.538 20.3571 16.6605C20.3571 16.7234 20.3321 16.7837 20.2876 16.8282C20.2431 16.8727 20.1828 16.8977 20.1199 16.8977C20.0571 16.8977 19.9967 16.8727 19.9523 16.8282C19.9078 16.7837 19.8828 16.7234 19.8828 16.6605V16.6448C19.8892 16.3918 19.9947 16.1514 20.1766 15.9755C20.3585 15.7995 20.6023 15.7021 20.8553 15.7041Z" fill="#333333"/>
<path d="M11.8358 15.4591C11.8358 15.522 11.8109 15.5823 11.7664 15.6268C11.7219 15.6713 11.6616 15.6962 11.5987 15.6962C11.5358 15.6962 11.4755 15.6713 11.431 15.6268C11.3866 15.5823 11.3616 15.522 11.3616 15.4591C11.3579 15.3211 11.3005 15.19 11.2016 15.0936C11.1027 14.9973 10.97 14.9434 10.832 14.9434C10.6939 14.9434 10.5613 14.9973 10.4624 15.0936C10.3635 15.19 10.3061 15.3211 10.3024 15.4591C10.3024 15.522 10.2774 15.5823 10.2329 15.6268C10.1885 15.6713 10.1281 15.6962 10.0653 15.6962C10.0024 15.6962 9.94205 15.6713 9.89758 15.6268C9.85311 15.5823 9.82812 15.522 9.82812 15.4591C9.82812 15.1928 9.93391 14.9375 10.1222 14.7492C10.3105 14.5609 10.5659 14.4551 10.8322 14.4551C11.0985 14.4551 11.3538 14.5609 11.5421 14.7492C11.7304 14.9375 11.8362 15.1928 11.8362 15.4591H11.8358Z" fill="#333333"/>
<path d="M9.68504 19.2455C9.69672 19.2745 9.70252 19.3056 9.70208 19.3369C9.70164 19.3682 9.69497 19.3991 9.68247 19.4278C9.66997 19.4565 9.65188 19.4824 9.62926 19.5041C9.60664 19.5257 9.57994 19.5427 9.55072 19.5539C9.06708 19.75 8.52656 19.7529 8.0409 19.5618C7.98251 19.5383 7.9357 19.4928 7.91057 19.4351C7.88544 19.3774 7.884 19.3121 7.90657 19.2533C7.9196 19.2201 7.93981 19.1901 7.96575 19.1655C7.99169 19.1409 8.02273 19.1224 8.05666 19.1111C8.10578 19.094 8.15968 19.0968 8.20674 19.119C8.5816 19.263 8.99699 19.2602 9.36987 19.1111C9.41974 19.0891 9.47601 19.0863 9.52783 19.1033C9.56267 19.1144 9.59473 19.1328 9.62185 19.1573C9.64897 19.1818 9.67051 19.2119 9.68504 19.2455Z" fill="#333333"/>
<path d="M9.14223 21.6332V22.8428C9.14278 22.8741 9.13703 22.9052 9.12531 22.9342C9.11359 22.9632 9.09615 22.9896 9.07402 23.0117C9.05188 23.0339 9.02552 23.0513 8.9965 23.063C8.96747 23.0748 8.93639 23.0805 8.9051 23.0799C8.84227 23.0797 8.78207 23.0547 8.73764 23.0103C8.69321 22.9658 8.66817 22.9056 8.66797 22.8428V21.6332C8.66949 21.5707 8.69496 21.5113 8.73911 21.4672C8.78325 21.423 8.84268 21.3976 8.9051 21.396C8.93639 21.3955 8.96747 21.4012 8.9965 21.4129C9.02552 21.4247 9.05188 21.4421 9.07402 21.4642C9.09615 21.4864 9.11359 21.5127 9.12531 21.5418C9.13703 21.5708 9.14278 21.6019 9.14223 21.6332Z" fill="#333333"/>
<path d="M7.74209 15.4591C7.74209 15.522 7.7171 15.5823 7.67263 15.6268C7.62816 15.6713 7.56785 15.6962 7.50496 15.6962C7.44207 15.6962 7.38175 15.6713 7.33728 15.6268C7.29281 15.5823 7.26783 15.522 7.26783 15.4591C7.26416 15.3211 7.20675 15.19 7.10783 15.0936C7.00891 14.9973 6.8763 14.9434 6.73823 14.9434C6.60017 14.9434 6.46755 14.9973 6.36863 15.0936C6.26972 15.19 6.21231 15.3211 6.20863 15.4591C6.20863 15.4903 6.2025 15.5211 6.19058 15.5499C6.17867 15.5786 6.1612 15.6048 6.13918 15.6268C6.11716 15.6488 6.09102 15.6663 6.06225 15.6782C6.03348 15.6901 6.00264 15.6962 5.9715 15.6962C5.94036 15.6962 5.90953 15.6901 5.88076 15.6782C5.85199 15.6663 5.82585 15.6488 5.80383 15.6268C5.78181 15.6048 5.76434 15.5786 5.75243 15.5499C5.74051 15.5211 5.73437 15.4903 5.73438 15.4591C5.73438 15.1928 5.84016 14.9375 6.02845 14.7492C6.21675 14.5609 6.47213 14.4551 6.73842 14.4551C7.00471 14.4551 7.26009 14.5609 7.44839 14.7492C7.63668 14.9375 7.74246 15.1928 7.74246 15.4591H7.74209Z" fill="#333333"/>
</g>
<defs>
<clipPath id="clip0">
<rect width="40" height="40" fill="white" transform="translate(0.5 0.000976562)"/>
</clipPath>
</defs>
</svg>
