<svg width="40" height="40" viewBox="0 0 40 40" fill="none" xmlns="http://www.w3.org/2000/svg">
<path d="M39.6952 12.8536C39.7937 12.7507 39.8709 12.6294 39.9225 12.4966C39.974 12.3639 39.9989 12.2223 39.9957 12.0799C39.9925 11.9375 39.9613 11.7971 39.9038 11.6668C39.8463 11.5365 39.7637 11.4189 39.6606 11.3205C34.3481 6.31719 27.2827 3.60107 19.9868 3.75737C16.3989 3.78852 12.8468 4.47345 9.50454 5.77858C6.0962 7.09964 2.98081 9.07786 0.335576 11.6007C0.127626 11.7991 0.00702262 12.0721 0.000297075 12.3594C-0.00642848 12.6468 0.101275 12.925 0.299713 13.133C0.498152 13.3409 0.771071 13.4615 1.05843 13.4683C1.34579 13.475 1.62405 13.3673 1.832 13.1689C6.74736 8.52737 13.249 5.93702 20.0095 5.92667C20.106 5.92667 20.2024 5.92667 20.2989 5.92667C26.9295 5.84902 33.3322 8.34426 38.1616 12.8882C38.2645 12.9867 38.3859 13.064 38.5187 13.1156C38.6515 13.1672 38.7931 13.1921 38.9356 13.1889C39.078 13.1857 39.2185 13.1544 39.3488 13.0969C39.4791 13.0394 39.5969 12.9567 39.6952 12.8536Z" fill="#ECF7FB"/>
<path d="M32.941 21.2766C33.0399 21.174 33.1177 21.053 33.1698 20.9204C33.2218 20.7878 33.2473 20.6462 33.2446 20.5038C33.2419 20.3613 33.2112 20.2208 33.1541 20.0903C33.0971 19.9597 33.0148 19.8417 32.9121 19.743C31.1958 18.0992 29.1716 16.8109 26.9558 15.9519C24.74 15.0929 22.3763 14.6803 20.0005 14.7377C15.1842 14.8042 10.5714 16.6912 7.08948 20.0196C6.98651 20.1178 6.90391 20.2354 6.84638 20.3656C6.78885 20.4957 6.75753 20.636 6.7542 20.7783C6.75087 20.9206 6.7756 21.0621 6.82697 21.1948C6.87835 21.3276 6.95536 21.4489 7.05362 21.5518C7.15188 21.6548 7.26945 21.7374 7.39963 21.7949C7.52981 21.8525 7.67005 21.8838 7.81233 21.8871C7.95462 21.8905 8.09617 21.8657 8.2289 21.8144C8.36163 21.763 8.48294 21.686 8.58591 21.5877C11.6733 18.6374 15.763 16.9649 20.0331 16.9065C22.1248 16.8548 24.2062 17.2168 26.1578 17.9715C28.1093 18.7262 29.8926 19.8588 31.4054 21.3044C31.5079 21.4037 31.629 21.4818 31.7618 21.5341C31.8945 21.5865 32.0363 21.6121 32.179 21.6095C32.3217 21.6069 32.4625 21.5762 32.5932 21.5191C32.724 21.4619 32.8422 21.3795 32.941 21.2766Z" fill="#ECF7FB"/>
<path d="M26.5308 29.4122C26.6293 29.3094 26.7066 29.1881 26.7581 29.0553C26.8097 28.9226 26.8346 28.7809 26.8314 28.6385C26.8282 28.4962 26.7969 28.3558 26.7394 28.2255C26.6819 28.0952 26.5993 27.9775 26.4963 27.8792C25.6282 27.0614 24.6042 26.4269 23.4854 26.0136C22.3666 25.6004 21.176 25.4169 19.9848 25.4741C17.5817 25.5462 15.2895 26.5015 13.5465 28.1573C13.3386 28.3558 13.218 28.6287 13.2112 28.916C13.2045 29.2034 13.3122 29.4817 13.5106 29.6896C13.7091 29.8976 13.982 30.0182 14.2694 30.0249C14.5567 30.0316 14.835 29.9239 15.0429 29.7255C16.4056 28.4454 18.1869 27.704 20.0554 27.6392C20.9579 27.5934 21.8603 27.7297 22.709 28.04C23.5576 28.3503 24.3351 28.8282 24.9952 29.4453C25.098 29.5442 25.2194 29.6219 25.3524 29.6738C25.4853 29.7258 25.6272 29.7509 25.7699 29.7478C25.9126 29.7448 26.0533 29.7135 26.1838 29.656C26.3144 29.5984 26.4324 29.5155 26.5308 29.4122Z" fill="#ECF7FB"/>
<path d="M39.6952 10.9786C39.7937 10.8757 39.8709 10.7544 39.9225 10.6216C39.974 10.4889 39.9989 10.3473 39.9957 10.2049C39.9925 10.0625 39.9613 9.92214 39.9038 9.79184C39.8463 9.66154 39.7637 9.54386 39.6606 9.44551C34.3481 4.44219 27.2827 1.72607 19.9868 1.88237C16.3989 1.91352 12.8468 2.59845 9.50454 3.90358C6.0962 5.22464 2.98081 7.20286 0.335576 9.72571C0.127626 9.92415 0.00702262 10.1971 0.000297075 10.4844C-0.00642848 10.7718 0.101275 11.05 0.299713 11.258C0.498152 11.4659 0.771071 11.5865 1.05843 11.5933C1.34579 11.6 1.62405 11.4923 1.832 11.2939C6.74736 6.65237 13.249 4.06202 20.0095 4.05167C20.106 4.05167 20.2024 4.05167 20.2989 4.05167C26.9295 3.97402 33.3322 6.46926 38.1616 11.0132C38.2645 11.1117 38.3859 11.189 38.5187 11.2406C38.6515 11.2922 38.7931 11.3171 38.9356 11.3139C39.078 11.3107 39.2185 11.2794 39.3488 11.2219C39.4791 11.1644 39.5969 11.0817 39.6952 10.9786Z" fill="#333333"/>
<path d="M32.941 19.4016C33.0399 19.299 33.1177 19.178 33.1698 19.0454C33.2218 18.9128 33.2473 18.7712 33.2446 18.6288C33.2419 18.4863 33.2112 18.3458 33.1541 18.2153C33.0971 18.0847 33.0148 17.9667 32.9121 17.868C31.1958 16.2242 29.1716 14.9359 26.9558 14.0769C24.74 13.2179 22.3763 12.8053 20.0005 12.8627C15.1842 12.9292 10.5714 14.8162 7.08948 18.1446C6.98651 18.2428 6.90391 18.3604 6.84638 18.4906C6.78885 18.6207 6.75753 18.761 6.7542 18.9033C6.75087 19.0456 6.7756 19.1871 6.82697 19.3198C6.87835 19.4526 6.95536 19.5739 7.05362 19.6768C7.15188 19.7798 7.26945 19.8624 7.39963 19.9199C7.52981 19.9775 7.67005 20.0088 7.81233 20.0121C7.95462 20.0155 8.09617 19.9907 8.2289 19.9394C8.36163 19.888 8.48294 19.811 8.58591 19.7127C11.6733 16.7624 15.763 15.0899 20.0331 15.0315C22.1248 14.9798 24.2062 15.3418 26.1578 16.0965C28.1093 16.8512 29.8926 17.9838 31.4054 19.4294C31.5079 19.5287 31.629 19.6068 31.7618 19.6591C31.8945 19.7115 32.0363 19.7371 32.179 19.7345C32.3217 19.7319 32.4625 19.7012 32.5932 19.6441C32.724 19.5869 32.8422 19.5045 32.941 19.4016Z" fill="#333333"/>
<path d="M26.5308 27.5372C26.6293 27.4344 26.7066 27.3131 26.7581 27.1803C26.8097 27.0476 26.8346 26.9059 26.8314 26.7635C26.8282 26.6212 26.7969 26.4808 26.7394 26.3505C26.6819 26.2202 26.5993 26.1025 26.4963 26.0042C25.6282 25.1864 24.6042 24.5519 23.4854 24.1386C22.3666 23.7254 21.176 23.5419 19.9848 23.5991C17.5817 23.6712 15.2895 24.6265 13.5465 26.2823C13.3386 26.4808 13.218 26.7537 13.2112 27.041C13.2045 27.3284 13.3122 27.6067 13.5106 27.8146C13.7091 28.0226 13.982 28.1432 14.2694 28.1499C14.5567 28.1566 14.835 28.0489 15.0429 27.8505C16.4056 26.5704 18.1869 25.829 20.0554 25.7642C20.9579 25.7184 21.8603 25.8547 22.709 26.165C23.5576 26.4753 24.3351 26.9532 24.9952 27.5703C25.098 27.6692 25.2194 27.7469 25.3524 27.7988C25.4853 27.8508 25.6272 27.8759 25.7699 27.8728C25.9126 27.8698 26.0533 27.8385 26.1838 27.781C26.3144 27.7234 26.4324 27.6405 26.5308 27.5372Z" fill="#333333"/>
<path d="M24.0976 34.42C24.0979 33.6096 23.8579 32.8172 23.4079 32.1432C22.9579 31.4692 22.3181 30.9437 21.5695 30.6333C20.8209 30.3229 19.997 30.2414 19.2021 30.3992C18.4072 30.557 17.6769 30.947 17.1036 31.5199C16.5303 32.0927 16.1398 32.8227 15.9814 33.6175C15.823 34.4123 15.9038 35.2362 16.2137 35.9851C16.5235 36.734 17.0485 37.3741 17.7222 37.8246C18.3958 38.2751 19.188 38.5158 19.9984 38.5161C20.5365 38.5163 21.0694 38.4105 21.5666 38.2047C22.0639 37.999 22.5157 37.6974 22.8963 37.317C23.277 36.9366 23.579 36.485 23.7851 35.988C23.9912 35.4909 24.0974 34.9581 24.0976 34.42ZM20 36.3483C19.6186 36.3483 19.2458 36.2352 18.9286 36.0233C18.6115 35.8114 18.3644 35.5103 18.2184 35.1579C18.0725 34.8056 18.0343 34.4178 18.1087 34.0438C18.1831 33.6697 18.3668 33.3261 18.6364 33.0565C18.9061 32.7868 19.2497 32.6031 19.6238 32.5287C19.9978 32.4543 20.3856 32.4925 20.7379 32.6384C21.0903 32.7844 21.3914 33.0316 21.6033 33.3487C21.8152 33.6658 21.9283 34.0386 21.9283 34.42C21.9284 34.6734 21.8785 34.9243 21.7815 35.1584C21.6845 35.3926 21.5424 35.6053 21.3631 35.7844C21.1839 35.9635 20.9711 36.1056 20.737 36.2024C20.5028 36.2993 20.2518 36.349 19.9984 36.3488L20 36.3483Z" fill="#333333"/>
</svg>
