<svg width="40" height="40" viewBox="0 0 40 40" fill="none" xmlns="http://www.w3.org/2000/svg">
<path d="M27.8125 32.8135H12.8125V27.1885C12.8125 25.4385 14.0625 24.7926 14.6875 24.6885C15.2083 24.5843 16.25 24.4385 16.25 24.6885C16.25 25.001 17.1875 26.5635 18.4375 26.5635C19.4375 26.5635 20.1042 25.9385 20.3125 25.626C20.4167 25.9385 20.9375 26.5635 22.1875 26.5635C23.4375 26.5635 23.9583 25.3135 24.0625 24.6885H25.625C27.125 24.6885 27.7083 26.1468 27.8125 26.876V32.8135Z" fill="#ECF7FB"/>
<path d="M19.0625 10.3135C17.3125 11.0635 16.6667 15.001 16.5625 16.876C15.7292 16.4593 14.0625 15.126 14.0625 13.126C14.0625 11.126 14.4792 10.001 14.6875 9.68848L13.4375 10.3135C13.4375 9.37598 14.375 7.50098 15.625 7.50098C17.8125 7.50098 17.8125 7.81348 18.4375 7.81348C19.0625 7.81348 19.6875 7.18848 21.25 7.18848C22.5 7.18848 23.2292 8.23014 23.4375 8.75098C24.1667 8.85514 25.625 9.56348 25.625 11.5635C25.625 13.5635 25 14.8968 24.6875 15.3135L23.4375 14.0635C22.9375 13.5635 23.2292 12.6051 23.4375 12.1885C23.3333 11.6676 23.125 10.5635 23.125 10.3135C21.25 10.3135 20 11.876 19.6875 11.876C19.4375 11.876 19.1667 10.8343 19.0625 10.3135Z" fill="#ECF7FB"/>
<path d="M21.5592 15.6928C21.6206 15.6928 21.6794 15.6684 21.7229 15.625C21.7663 15.5816 21.7906 15.5227 21.7906 15.4613C21.7906 15.3165 21.8482 15.1776 21.9506 15.0752C22.053 14.9728 22.1919 14.9153 22.3367 14.9153C22.4815 14.9153 22.6204 14.9728 22.7229 15.0752C22.8253 15.1776 22.8828 15.3165 22.8828 15.4613C22.8828 15.5227 22.9072 15.5816 22.9506 15.625C22.994 15.6684 23.0528 15.6928 23.1142 15.6928C23.1756 15.6928 23.2345 15.6684 23.2779 15.625C23.3213 15.5816 23.3457 15.5227 23.3457 15.4613C23.3406 15.1971 23.2321 14.9455 23.0435 14.7604C22.8549 14.5753 22.6012 14.4717 22.3369 14.4717C22.0727 14.4717 21.819 14.5753 21.6303 14.7604C21.4417 14.9455 21.3332 15.1971 21.3281 15.4613C21.3281 15.5227 21.3525 15.5816 21.3959 15.625C21.4393 15.6684 21.4982 15.6928 21.5596 15.6928H21.5592Z" fill="#333333"/>
<path d="M18.9658 15.6928C19.0272 15.6928 19.086 15.6684 19.1295 15.625C19.1729 15.5816 19.1972 15.5227 19.1972 15.4613C19.1922 15.1971 19.0837 14.9455 18.895 14.7604C18.7064 14.5753 18.4527 14.4717 18.1885 14.4717C17.9242 14.4717 17.6705 14.5753 17.4819 14.7604C17.2933 14.9455 17.1847 15.1971 17.1797 15.4613C17.1797 15.5227 17.2041 15.5816 17.2475 15.625C17.2909 15.6684 17.3497 15.6928 17.4111 15.6928C17.4725 15.6928 17.5314 15.6684 17.5748 15.625C17.6182 15.5816 17.6426 15.5227 17.6426 15.4613C17.6426 15.3165 17.7001 15.1776 17.8025 15.0752C17.9049 14.9728 18.0438 14.9153 18.1886 14.9153C18.3335 14.9153 18.4724 14.9728 18.5748 15.0752C18.6772 15.1776 18.7347 15.3165 18.7347 15.4613C18.7347 15.5226 18.7591 15.5815 18.8024 15.6248C18.8457 15.6682 18.9045 15.6927 18.9658 15.6928Z" fill="#333333"/>
<path d="M21.7219 18.538C21.7443 18.5167 21.7622 18.4911 21.7746 18.4628C21.7869 18.4345 21.7935 18.404 21.7939 18.3731C21.7943 18.3422 21.7885 18.3116 21.7769 18.2829C21.7653 18.2543 21.748 18.2283 21.7262 18.2065C21.7043 18.1846 21.6783 18.1674 21.6497 18.1557C21.6211 18.1441 21.5904 18.1383 21.5595 18.1387C21.5286 18.1391 21.4981 18.1457 21.4698 18.1581C21.4415 18.1704 21.4159 18.1884 21.3946 18.2108C21.0943 18.5111 20.6869 18.6798 20.2622 18.6798C19.8375 18.6798 19.4301 18.5111 19.1298 18.2108C19.1085 18.1884 19.0829 18.1704 19.0546 18.1581C19.0263 18.1457 18.9958 18.1391 18.9649 18.1387C18.934 18.1383 18.9034 18.1441 18.8747 18.1557C18.8461 18.1674 18.8201 18.1846 18.7983 18.2065C18.7764 18.2283 18.7592 18.2543 18.7475 18.2829C18.7359 18.3116 18.7301 18.3422 18.7305 18.3731C18.7309 18.404 18.7375 18.4345 18.7498 18.4628C18.7622 18.4911 18.7801 18.5167 18.8026 18.538C18.9942 18.7297 19.2218 18.8817 19.4722 18.9855C19.7227 19.0892 19.9911 19.1426 20.2622 19.1426C20.5333 19.1426 20.8017 19.0892 21.0522 18.9855C21.3026 18.8817 21.5302 18.7297 21.7219 18.538Z" fill="#333333"/>
<path d="M25.1617 24.3116H24.368C24.3619 24.1829 24.3462 24.0549 24.321 23.9286C24.3156 23.9013 24.3053 23.8753 24.2907 23.8517L23.3775 22.3787C23.3569 22.345 23.328 22.317 23.2936 22.2976C23.2592 22.2782 23.2203 22.2679 23.1808 22.2678H22.5634V21.5006C23.3017 21.0902 23.917 20.4899 24.3456 19.7619C24.7742 19.0339 25.0004 18.2046 25.0009 17.3598V17.2089C25.0749 17.2244 25.1502 17.2322 25.2257 17.2322C25.464 17.2325 25.696 17.1566 25.8881 17.0156C26.0802 16.8746 26.2221 16.6759 26.2933 16.4486C26.3644 16.2212 26.361 15.977 26.2835 15.7517C26.2061 15.5264 26.0586 15.3318 25.8627 15.1962C25.6565 15.0543 25.403 14.9984 25.1562 15.0405L25.6971 13.7572C26.081 12.841 26.1195 11.8167 25.8056 10.8742C25.4916 9.93172 24.8464 9.13513 23.9897 8.63221C23.9833 8.62842 23.9766 8.62496 23.9698 8.62185L23.4666 8.39041L23.4566 8.38634C23.1587 7.79181 22.6545 7.32613 22.0382 7.07634C21.422 6.82655 20.7358 6.80976 20.1081 7.02911L19.2806 7.31675C18.8972 7.44988 18.4853 7.47846 18.0872 7.39956L16.8139 7.14705C16.2207 7.02985 15.6053 7.1116 15.0633 7.37964C14.5213 7.64769 14.0828 8.08705 13.8158 8.62962L12.6764 10.95C12.6514 11.0007 12.6459 11.0588 12.6608 11.1134C12.6758 11.1679 12.7102 11.2151 12.7576 11.246C12.805 11.2769 12.862 11.2893 12.9179 11.2811C12.9739 11.2728 13.0249 11.2443 13.0612 11.201C13.4496 10.7366 13.9177 10.3452 14.4436 10.0453L14.1848 10.5773C13.8903 11.1776 13.723 11.8323 13.6933 12.5003C13.6636 13.1683 13.7721 13.8352 14.0121 14.4593C14.1316 14.7747 14.2829 15.0771 14.4636 15.3618C14.3421 15.495 14.2546 15.6556 14.2086 15.8299C14.1626 16.0042 14.1594 16.187 14.1994 16.3628C14.2393 16.5386 14.3212 16.7021 14.438 16.8394C14.5548 16.9767 14.7031 17.0837 14.8703 17.1513C15.0041 17.2052 15.1471 17.2331 15.2914 17.2333C15.3701 17.2332 15.4485 17.2246 15.5254 17.2078V17.3609C15.5259 18.2057 15.7522 19.035 16.1807 19.763C16.6093 20.491 17.2246 21.0913 17.963 21.5017V22.2689H17.3433C17.3038 22.269 17.265 22.2793 17.2305 22.2987C17.1961 22.3181 17.1672 22.3461 17.1466 22.3798L16.2334 23.8528C16.2188 23.8764 16.2085 23.9024 16.2031 23.9297C16.178 24.056 16.1624 24.184 16.1565 24.3127H15.3646C14.6051 24.3136 13.8769 24.6157 13.3399 25.1528C12.8028 25.6899 12.5008 26.4181 12.5 27.1776V32.8976C12.5 32.9589 12.5244 33.0178 12.5678 33.0612C12.6112 33.1046 12.6701 33.129 12.7314 33.129H27.7949C27.8563 33.129 27.9151 33.1046 27.9585 33.0612C28.0019 33.0178 28.0263 32.9589 28.0263 32.8976V27.1762C28.0254 26.4167 27.7234 25.6886 27.1863 25.1516C26.6493 24.6146 25.9212 24.3125 25.1617 24.3116ZM23.3793 23.2586L23.8755 24.0591C23.9483 24.4592 23.9012 24.8719 23.7401 25.2453C23.5791 25.6187 23.3113 25.9362 22.9704 26.158C22.61 26.3962 22.1719 26.4871 21.7464 26.412C21.3209 26.3369 20.9404 26.1015 20.6833 25.7542L22.0975 24.99C22.4257 24.8139 22.7108 24.5673 22.9324 24.2679C23.154 23.9686 23.3067 23.6239 23.3793 23.2586ZM22.387 24.1955C22.2381 24.35 22.0663 24.4806 21.8775 24.5826L20.2689 25.4518H20.2582L18.6495 24.5826C18.4607 24.4806 18.2887 24.35 18.1397 24.1955C18.3258 23.9483 18.4262 23.6472 18.4258 23.3377V21.7295C19.0075 21.9743 19.6322 22.1005 20.2633 22.1005C20.8944 22.1005 21.5192 21.9743 22.1008 21.7295V23.3377C22.1006 23.6472 22.201 23.9482 22.387 24.1955ZM22.9634 22.7322C22.9694 23.1085 22.8722 23.4793 22.6824 23.8043C22.6041 23.6613 22.5632 23.5008 22.5634 23.3377V22.7322H22.9634ZM25.5999 15.5792C25.7311 15.6697 25.8247 15.8049 25.8632 15.9596C25.9016 16.1142 25.8823 16.2776 25.8087 16.419C25.7352 16.5603 25.6126 16.67 25.4639 16.7273C25.3152 16.7846 25.1507 16.7856 25.0013 16.7301V15.5995C25.0863 15.5338 25.1899 15.4964 25.2973 15.4928C25.4048 15.4893 25.5106 15.5196 25.5999 15.5796V15.5792ZM23.4777 9.95062C23.5113 9.95735 23.5459 9.95654 23.5792 9.94825C23.6124 9.93996 23.6434 9.92439 23.6699 9.90268C23.6964 9.88096 23.7177 9.85363 23.7324 9.82266C23.747 9.7917 23.7546 9.75787 23.7546 9.72361V9.62268C23.7541 9.41274 23.7293 9.20356 23.6807 8.99933L23.7664 9.03889C24.5231 9.48654 25.0923 10.1929 25.3689 11.0274C25.6455 11.862 25.6108 12.7684 25.2712 13.5794L24.734 14.8553C24.3036 14.6755 23.9447 14.3585 23.7132 13.9535C23.4818 13.5485 23.3908 13.0784 23.4544 12.6163C23.6856 13.0903 23.9781 13.5318 24.3243 13.9295C24.3647 13.9758 24.4218 14.0042 24.483 14.0084C24.5443 14.0126 24.6047 13.9922 24.651 13.9519C24.6973 13.9115 24.7256 13.8545 24.7298 13.7932C24.734 13.7319 24.7137 13.6715 24.6733 13.6252C23.7915 12.6141 23.3056 11.3178 23.3054 9.97613C23.3051 9.95715 23.3025 9.93827 23.2976 9.91993C23.3586 9.92955 23.4174 9.93805 23.4777 9.95099V9.95062ZM14.4466 14.297C14.2292 13.7319 14.1309 13.128 14.1578 12.5231C14.1847 11.9182 14.3363 11.3253 14.603 10.7817L15.0836 9.79053C15.1008 9.75524 15.1087 9.71617 15.1066 9.67697C15.1045 9.63778 15.0925 9.59976 15.0717 9.56649C15.0509 9.53321 15.022 9.50578 14.9876 9.48676C14.9533 9.46775 14.9147 9.45778 14.8754 9.45779H14.8662C14.4217 9.51551 14.0037 9.7014 13.6631 9.99277L14.2321 8.83444C14.4542 8.38341 14.8188 8.01819 15.2694 7.79535C15.72 7.5725 16.2316 7.50448 16.7248 7.6018L17.9981 7.85468C18.477 7.94956 18.9725 7.9151 19.4337 7.75486L20.2611 7.46722C20.5907 7.3527 20.9421 7.31526 21.2884 7.3578C21.6347 7.40034 21.9666 7.52172 22.2587 7.7126C22.5507 7.90349 22.7951 8.15879 22.973 8.4589C23.1509 8.75901 23.2577 9.09592 23.2851 9.44373C21.2202 9.08696 19.5879 9.44374 18.4332 10.5093C17.4616 11.404 16.8331 12.8241 16.6161 14.6157C16.5351 15.2937 16.5122 15.9773 16.5477 16.6592C15.5783 16.1599 14.8293 15.3177 14.4466 14.2967V14.297ZM22.8492 10.1861C22.4393 10.2021 22.0325 10.2641 21.6365 10.371C20.8576 10.5535 20.1695 11.0082 19.6962 11.6532C19.5044 11.2065 19.48 10.7056 19.6274 10.2423C20.6472 9.78502 21.7816 9.64785 22.881 9.84895C22.8571 9.88573 22.8443 9.92859 22.844 9.97243C22.844 10.0442 22.8458 10.114 22.8484 10.1846L22.8492 10.1861ZM15.5258 16.7264C15.3965 16.777 15.2545 16.785 15.1203 16.7494C14.9862 16.7137 14.8669 16.6362 14.7797 16.5282C14.6926 16.4201 14.6422 16.2871 14.6358 16.1484C14.6294 16.0098 14.6674 15.8727 14.7442 15.757C14.9735 16.0486 15.2358 16.3126 15.5258 16.5438V16.7264ZM15.9887 17.362V16.8714C16.2216 17.0173 16.4662 17.1436 16.72 17.2492C16.7572 17.2646 16.7978 17.27 16.8378 17.2649C16.8777 17.2598 16.9157 17.2443 16.9478 17.22C16.98 17.1958 17.0052 17.1635 17.0211 17.1265C17.037 17.0895 17.0429 17.0489 17.0383 17.0089C17.0335 16.9675 16.5821 12.8437 18.7464 10.8501C18.8501 10.7557 18.959 10.6671 19.0725 10.5847C19.0528 11.1754 19.1885 11.7609 19.4659 12.2828C19.4858 12.3191 19.5151 12.3494 19.5507 12.3706C19.5864 12.3917 19.627 12.4029 19.6685 12.403H19.6773C19.7203 12.4013 19.7619 12.3877 19.7975 12.3638C19.8332 12.3398 19.8615 12.3064 19.8792 12.2673C20.5185 10.8623 22.2872 10.6719 22.8832 10.649C22.9274 11.0445 23.0107 11.4346 23.132 11.8136L23.017 12.4129C22.9052 12.9918 22.9952 13.5915 23.2721 14.112C23.5489 14.6325 23.9959 15.0423 24.5384 15.2731V17.3624C24.5384 18.4962 24.088 19.5836 23.2862 20.3854C22.4844 21.1872 21.397 21.6376 20.2632 21.6376C19.1293 21.6376 18.0419 21.1872 17.2401 20.3854C16.4383 19.5836 15.9879 18.4962 15.9879 17.3624L15.9887 17.362ZM17.9633 22.7303V23.3359C17.9637 23.4994 17.9226 23.6603 17.8439 23.8036C17.6541 23.4785 17.557 23.1078 17.5629 22.7314L17.9633 22.7303ZM16.6512 24.0569L17.1477 23.2564C17.2204 23.6217 17.373 23.9664 17.5946 24.2657C17.8162 24.5651 18.1014 24.8117 18.4295 24.9878L19.8437 25.752C19.5866 26.0993 19.2061 26.3347 18.7807 26.4098C18.3552 26.4849 17.9171 26.394 17.5566 26.1557C17.2157 25.9341 16.9478 25.6167 16.7866 25.2434C16.6255 24.87 16.5782 24.4573 16.6508 24.0572L16.6512 24.0569ZM27.5634 32.6632H25.0493C25.3703 31.7892 25.3438 30.8255 24.9754 29.9705C24.9633 29.9426 24.9458 29.9174 24.9239 29.8962C24.902 29.8751 24.8761 29.8585 24.8478 29.8474C24.8195 29.8362 24.7893 29.8308 24.7589 29.8313C24.7285 29.8319 24.6985 29.8384 24.6706 29.8505C24.6427 29.8627 24.6175 29.8802 24.5963 29.9021C24.5752 29.9239 24.5586 29.9498 24.5475 29.9781C24.5363 30.0064 24.5309 30.0366 24.5314 30.067C24.5319 30.0975 24.5385 30.1275 24.5506 30.1554C24.7212 30.5515 24.8091 30.9782 24.8091 31.4094C24.8091 31.8407 24.7212 32.2674 24.5506 32.6635H15.9754C15.8048 32.2674 15.7168 31.8407 15.7168 31.4094C15.7168 30.9782 15.8048 30.5514 15.9754 30.1554C15.9875 30.1275 15.994 30.0975 15.9946 30.067C15.9951 30.0366 15.9896 30.0064 15.9785 29.9781C15.9674 29.9498 15.9508 29.9239 15.9296 29.9021C15.9085 29.8802 15.8833 29.8627 15.8554 29.8505C15.8275 29.8384 15.7975 29.8319 15.7671 29.8313C15.7366 29.8308 15.7064 29.8362 15.6781 29.8474C15.6498 29.8585 15.624 29.8751 15.6021 29.8962C15.5802 29.9174 15.5627 29.9426 15.5505 29.9705C15.1822 30.8255 15.1557 31.7892 15.4766 32.6632H12.9625V27.1762C12.9625 26.5388 13.2157 25.9276 13.6664 25.4769C14.1171 25.0262 14.7283 24.773 15.3657 24.773H16.1813C16.2305 25.1313 16.3562 25.4749 16.5499 25.7804C16.7435 26.0859 17.0006 26.3462 17.3037 26.5436C17.7722 26.8532 18.3433 26.9671 18.8947 26.861C19.4461 26.7548 19.934 26.4371 20.2541 25.9757L20.2641 25.9616L20.2741 25.9757C20.5941 26.4372 21.0822 26.755 21.6337 26.8612C22.1852 26.9673 22.7563 26.8533 23.2248 26.5436C23.5278 26.3461 23.7849 26.0858 23.9785 25.7804C24.1721 25.4749 24.2977 25.1313 24.3469 24.773H25.1625C25.7998 24.773 26.4111 25.0262 26.8618 25.4769C27.3125 25.9276 27.5657 26.5388 27.5657 27.1762L27.5634 32.6632Z" fill="#333333"/>
</svg>
