<svg width="40" height="40" viewBox="0 0 40 40" fill="none" xmlns="http://www.w3.org/2000/svg">
<g clip-path="url(#clip0)">
<path d="M14.0625 28.4375H8.125L8.4375 36.25H14.0625V28.4375Z" fill="#ECF7FB"/>
<path d="M19.3733 22.5H7.18578C6.87328 20.5208 9.06087 16.5625 12.8108 16.5625C18.0608 16.5625 19.3733 20.5208 19.3733 22.5Z" fill="#ECF7FB"/>
<path d="M19.375 12.8126H13.75L14.375 11.8751C14.375 10.1251 15.625 9.68759 16.25 9.68759L16.875 8.43759C16.3542 8.12509 15.375 7.25009 15.625 6.25009C15.875 5.25009 17.3958 4.79175 18.125 4.68759C18.375 3.43759 19.6875 3.33342 20.3125 3.43759C21.5625 2.18759 23.3333 2.91675 24.0625 3.43759L25.3125 4.06259L25.625 2.81259C25.3125 1.56259 25.9375 1.25009 26.5625 0.625088C27.0625 0.125088 28.4375 1.25009 29.0625 1.87509C30.625 2.18759 31.875 3.43759 31.875 5.00009C31.875 6.25009 31.0417 7.18759 30.625 7.50009C30.8333 7.39592 31.5625 7.18759 32.8125 7.18759C34.0625 7.18759 33.75 8.85425 33.4375 9.68759C33.6458 9.79175 34.0625 10.2501 34.0625 11.2501C34.0625 12.2501 33.2292 12.7084 32.8125 12.8126H23.4375L22.1875 13.4376H20.9375L19.375 12.8126Z" fill="#ECF7FB"/>
<path d="M19.6875 25.9375L20.625 37.5H23.9062V12.8125H23.125C22.625 13.8125 21.875 13.6458 21.5625 13.4375L20 13.125H19.0625C19.1667 16.25 19.4375 22.5 19.6875 22.5C20 22.5 20.625 23.5937 20.9375 24.375C21.1875 25 20.2083 25.6771 19.6875 25.9375Z" fill="#ECF7FB"/>
<path d="M34.6875 12.8125L29.375 12.5L27.8125 37.5L31.5625 37.1875L34.6875 12.8125Z" fill="#ECF7FB"/>
<path d="M20 9.99999C19.5 9.99999 18.75 11.0417 18.4375 11.5625C18.4375 12.8125 19.6875 12.9167 20.3125 12.8125C20.4167 13.3333 21.1875 13.9375 22.1875 13.4375C24.4375 12.4375 23.4375 11.4583 22.8125 10.9375C23.125 10.3125 22.8125 9.68749 22.1875 9.06249C21.6875 8.56249 20.5208 9.47916 20 9.99999Z" fill="white"/>
<path d="M27.5 7.18762C26.875 6.56262 25.9375 7.18762 25.3125 8.12512C24.375 8.12512 24.0625 9.06262 24.0625 10.0001C24.0625 10.7501 25.1042 10.9376 25.625 10.9376C25.875 11.6876 26.7708 11.8751 27.1875 11.8751C28.9375 11.6251 28.5417 10.3126 28.125 9.68762C28.75 7.81262 28.125 7.81262 27.5 7.18762Z" fill="white"/>
<path d="M34.5725 12.1916H34.2142C34.2324 12.1616 34.2511 12.1328 34.2677 12.1023C34.493 11.6953 34.6022 11.2342 34.5834 10.7694C34.5645 10.3045 34.4183 9.85383 34.1607 9.46645C34.2951 9.13954 34.3334 8.78106 34.271 8.43314C34.2087 8.08523 34.0483 7.76233 33.8088 7.50241C33.5693 7.2425 33.2605 7.05635 32.9189 6.96587C32.5772 6.87539 32.2168 6.88432 31.88 6.99162C32.214 6.4369 32.4032 5.8071 32.4302 5.16013C32.4571 4.51316 32.3209 3.8698 32.0342 3.28924C31.7474 2.70867 31.3193 2.20953 30.7891 1.83774C30.2589 1.46594 29.6438 1.23342 29.0003 1.16157C28.877 0.914823 28.7063 0.694774 28.4979 0.513992C28.2896 0.33321 28.0477 0.195235 27.786 0.107946C27.2575 -0.0683439 26.6807 -0.0274803 26.1823 0.221547C25.684 0.470574 25.305 0.907366 25.1287 1.43583C24.9524 1.9643 24.9933 2.54115 25.2423 3.03949C25.1669 3.16733 25.099 3.29949 25.0391 3.43529C24.8452 3.37434 24.6455 3.33382 24.4432 3.31441C24.1995 2.97351 23.8849 2.68946 23.5209 2.4818C23.1569 2.27415 22.7522 2.14783 22.3348 2.11154C21.9173 2.07524 21.4969 2.12984 21.1026 2.27156C20.7082 2.41329 20.3492 2.63878 20.0504 2.93252C19.9288 2.91147 19.8057 2.90091 19.6824 2.90096C19.2539 2.89993 18.8354 3.03027 18.4832 3.27443C18.1311 3.51859 17.8623 3.86482 17.713 4.26648C17.6745 4.26648 17.636 4.2622 17.5969 4.2622C17.0883 4.26193 16.5925 4.42195 16.18 4.71953C15.7675 5.01711 15.4592 5.43712 15.2991 5.91987C15.1389 6.40263 15.1349 6.92359 15.2877 7.40874C15.4404 7.8939 15.7422 8.31857 16.1501 8.62243C16.1617 8.75581 16.1824 8.88823 16.2122 9.01876C15.47 9.12403 14.798 9.51425 14.3386 10.1067C13.8793 10.6991 13.6688 11.4471 13.7518 12.1921H13.7475C13.6768 12.1921 13.6069 12.2071 13.5424 12.2362C13.478 12.2653 13.4204 12.3077 13.3736 12.3607C13.3268 12.4138 13.2919 12.4761 13.271 12.5437C13.2502 12.6113 13.2439 12.6825 13.2527 12.7527L13.64 15.8319C13.5111 15.8244 13.3822 15.8196 13.2517 15.8196C12.655 15.8195 12.0611 15.9012 11.4866 16.0624L10.5351 12.7184C10.5116 12.636 10.4673 12.5609 10.4064 12.5006C10.3455 12.4403 10.2701 12.3967 10.1874 12.374L7.7019 11.6936C7.57423 11.6587 7.43793 11.676 7.32298 11.7416C7.20802 11.8072 7.12384 11.9158 7.08894 12.0434C7.05405 12.1711 7.0713 12.3074 7.1369 12.4224C7.2025 12.5373 7.31108 12.6215 7.43875 12.6564L9.65416 13.2629L10.549 16.4058C9.4468 16.9052 8.50377 17.699 7.82373 18.6999C7.1437 19.7008 6.75304 20.87 6.69475 22.0786C6.21625 22.1785 5.78669 22.44 5.47815 22.8191C5.16962 23.1983 5.00089 23.672 5.00029 24.1608C4.99566 24.4387 5.04653 24.7148 5.14992 24.9728C5.25331 25.2308 5.40714 25.4655 5.60239 25.6633C5.79765 25.8611 6.03041 26.018 6.28705 26.1247C6.54368 26.2314 6.81903 26.2858 7.09697 26.2848H7.46709L7.99394 38.2958C8.01355 38.7594 8.21173 39.1975 8.54701 39.5183C8.88228 39.8391 9.32865 40.0178 9.79269 40.017H16.7123C17.1764 40.0178 17.6228 39.839 17.9581 39.5181C18.2934 39.1971 18.4915 38.7589 18.511 38.2952L18.5233 38.0144H31.4489C31.5703 38.0146 31.6877 37.9704 31.7788 37.8901C31.8699 37.8098 31.9285 37.699 31.9437 37.5785L35.0673 12.7527C35.0762 12.6825 35.07 12.6112 35.0492 12.5436C35.0284 12.476 34.9934 12.4136 34.9466 12.3606C34.8998 12.3075 34.8422 12.2651 34.7777 12.236C34.7132 12.207 34.6433 12.192 34.5725 12.1921V12.1916ZM32.8577 8.0068C33.0573 8.1176 33.2048 8.30302 33.2679 8.5224C33.3309 8.74178 33.3044 8.97721 33.1942 9.17708C33.1847 9.19548 33.1741 9.21334 33.1626 9.23057C33.0977 9.32267 33.0659 9.43404 33.0724 9.54651C33.0789 9.65899 33.1234 9.76595 33.1985 9.84995C33.3488 10.0188 33.4602 10.2187 33.5246 10.4354C33.5891 10.6521 33.605 10.8804 33.5714 11.1039C33.5378 11.3275 33.4553 11.5409 33.33 11.7291C33.2046 11.9173 33.0394 12.0755 32.846 12.1927H27.7086C28.0455 12.0701 28.3419 11.8568 28.5652 11.5764C28.7885 11.296 28.93 10.9593 28.9741 10.6036C29.1404 10.3687 29.3695 10.1855 29.6351 10.0748C29.9007 9.96411 30.1921 9.93049 30.476 9.97778C30.5573 9.99111 30.6407 9.98406 30.7186 9.95727C30.7966 9.93048 30.8666 9.88479 30.9226 9.82427C31.043 9.69411 31.1855 9.58636 31.3435 9.50603C31.4426 9.45557 31.5219 9.3735 31.569 9.27283C31.6161 9.17216 31.6282 9.05865 31.6035 8.9503C31.5665 8.78833 31.5772 8.61911 31.6343 8.4631C31.6914 8.30709 31.7925 8.17095 31.9254 8.07116C32.0582 7.97137 32.2171 7.91218 32.3828 7.90076C32.5486 7.88934 32.7141 7.92617 32.8593 8.0068H32.8577ZM24.6593 37.0206V13.188H28.835L27.2978 37.0206H24.6593ZM21.0222 37.0206L20.3178 26.0826C20.7031 25.9006 21.0248 25.607 21.2412 25.2399C21.4576 24.8727 21.5586 24.449 21.5311 24.0238C21.5037 23.5985 21.349 23.1913 21.0873 22.855C20.8255 22.5188 20.4687 22.2689 20.0632 22.138L19.4989 13.3811C19.718 13.4513 19.9479 13.4813 20.1777 13.4699C20.3985 13.7088 20.6708 13.8942 20.9741 14.012C21.2773 14.1298 21.6034 14.1769 21.9276 14.1497C22.2517 14.1226 22.5654 14.0218 22.8448 13.8552C23.1242 13.6885 23.3619 13.4604 23.5398 13.188H23.6623V37.0206H21.0222ZM22.5033 11.1598C22.6247 11.2671 22.722 11.399 22.7886 11.5468C22.8552 11.6945 22.8897 11.8547 22.8896 12.0168C22.8896 12.1789 22.8551 12.3391 22.7884 12.4868C22.7217 12.6345 22.6244 12.7664 22.5029 12.8736C22.3814 12.9808 22.2384 13.061 22.0835 13.1088C21.9287 13.1566 21.7654 13.1708 21.6046 13.1507C21.4438 13.1306 21.2891 13.0765 21.1508 12.992C21.0125 12.9075 20.8937 12.7946 20.8024 12.6607C20.7464 12.5782 20.667 12.5144 20.5745 12.4775C20.4819 12.4406 20.3804 12.4323 20.283 12.4537C20.148 12.483 20.0082 12.4822 19.8736 12.4515C19.7389 12.4208 19.6126 12.3609 19.5036 12.276C19.3946 12.1911 19.3056 12.0833 19.2429 11.9602C19.1802 11.8371 19.1453 11.7017 19.1407 11.5637C19.1361 11.4256 19.1619 11.2882 19.2162 11.1612C19.2705 11.0342 19.3521 10.9207 19.4552 10.8287C19.5582 10.7367 19.6802 10.6685 19.8126 10.6288C19.9449 10.5892 20.0843 10.5791 20.221 10.5993C20.3515 10.6188 20.4845 10.5857 20.5907 10.5073C20.6969 10.4289 20.7676 10.3115 20.7874 10.181C20.8045 10.0664 20.8457 9.95668 20.9082 9.85906C20.9706 9.76143 21.053 9.67809 21.1499 9.6145C21.2468 9.55091 21.356 9.5085 21.4704 9.49004C21.5849 9.47159 21.7019 9.4775 21.8139 9.5074C21.9259 9.5373 22.0303 9.59051 22.1202 9.66355C22.2102 9.73658 22.2838 9.8278 22.3361 9.93123C22.3884 10.0347 22.4183 10.148 22.4238 10.2637C22.4293 10.3795 22.4102 10.4951 22.3679 10.603C22.3305 10.6984 22.3233 10.8029 22.3474 10.9025C22.3716 11.002 22.4258 11.0917 22.5027 11.1593L22.5033 11.1598ZM30.6568 8.24856C30.6049 8.42802 30.5806 8.61431 30.5846 8.80107C30.5129 8.85081 30.444 8.90437 30.3781 8.96153C29.846 8.9291 29.3173 9.06576 28.8676 9.35199C28.9258 9.18661 28.9634 9.01469 28.9794 8.84012C29.5773 8.77686 30.1519 8.57384 30.6568 8.24749V8.24856ZM27.8193 9.82481C27.8988 9.9378 27.9525 10.0669 27.9766 10.2029C28.0007 10.3389 27.9946 10.4786 27.9587 10.612C27.9229 10.7454 27.8582 10.8693 27.7691 10.975C27.6801 11.0806 27.569 11.1654 27.4436 11.2234C27.3182 11.2813 27.1816 11.311 27.0434 11.3103C26.9053 11.3096 26.7689 11.2786 26.6441 11.2194C26.5193 11.1603 26.409 11.0744 26.321 10.9679C26.233 10.8613 26.1695 10.7368 26.135 10.603C26.1022 10.4752 26.0201 10.3655 25.9066 10.2981C25.7931 10.2308 25.6575 10.2112 25.5295 10.2436C25.4171 10.2729 25.2998 10.278 25.1853 10.2587C25.0707 10.2394 24.9616 10.196 24.865 10.1315C24.7684 10.067 24.6866 9.98278 24.6249 9.88438C24.5632 9.78599 24.523 9.67565 24.5069 9.56061C24.4909 9.44557 24.4994 9.32845 24.5319 9.21692C24.5643 9.1054 24.62 9.00202 24.6953 8.91356C24.7705 8.8251 24.8637 8.75356 24.9686 8.70366C25.0734 8.65377 25.1877 8.62663 25.3038 8.62403C25.4062 8.6213 25.5052 8.58714 25.5875 8.52619C25.6698 8.46524 25.7314 8.38045 25.7638 8.28332C25.8142 8.12818 25.8972 7.98562 26.0073 7.86521C26.1173 7.7448 26.2519 7.64933 26.4019 7.5852C26.5519 7.52108 26.7138 7.48979 26.8769 7.49343C27.04 7.49708 27.2004 7.53557 27.3474 7.60632C27.4944 7.67708 27.6245 7.77847 27.7291 7.90367C27.8337 8.02888 27.9102 8.175 27.9537 8.33224C27.9971 8.48948 28.0064 8.65419 27.9809 8.81531C27.9554 8.97644 27.8958 9.13024 27.8059 9.26641C27.7521 9.35015 27.7246 9.44812 27.727 9.54766C27.7293 9.6472 27.7615 9.74374 27.8193 9.82481ZM14.7317 11.8889C14.7322 11.3839 14.9331 10.8998 15.2901 10.5427C15.6472 10.1856 16.1313 9.98477 16.6363 9.9842C16.7109 9.98412 16.7853 9.98858 16.8594 9.99757C16.9503 10.0093 17.0427 9.99564 17.1264 9.9582C17.2101 9.92077 17.2819 9.86097 17.3338 9.78539C17.3857 9.70981 17.4158 9.62137 17.4207 9.52981C17.4256 9.43824 17.4051 9.3471 17.3616 9.26641C17.3294 9.20594 17.3005 9.14381 17.2749 9.08027C17.3813 9.09484 17.4885 9.10234 17.5959 9.10274C17.7281 9.10274 17.8549 9.05022 17.9484 8.95673C18.0418 8.86325 18.0944 8.73645 18.0944 8.60424C18.0944 8.47203 18.0418 8.34524 17.9484 8.25175C17.8549 8.15827 17.7281 8.10575 17.5959 8.10575C17.3733 8.10566 17.1539 8.05341 16.9552 7.9532C16.7566 7.853 16.5841 7.70761 16.4518 7.52872C16.3194 7.34983 16.2309 7.1424 16.1932 6.92309C16.1555 6.70378 16.1697 6.47869 16.2348 6.26588C16.2998 6.05307 16.4138 5.85846 16.5676 5.69767C16.7214 5.53688 16.9108 5.41438 17.1205 5.34C17.3303 5.26563 17.5545 5.24144 17.7753 5.26939C17.996 5.29734 18.2072 5.37665 18.3917 5.50095C18.4458 5.53984 18.5072 5.5675 18.5721 5.58229C18.6371 5.59709 18.7043 5.59871 18.7699 5.58707C18.8355 5.57543 18.8981 5.55076 18.954 5.51452C19.0099 5.47829 19.0579 5.43121 19.0953 5.37608C19.1327 5.32096 19.1587 5.25889 19.1717 5.19356C19.1847 5.12823 19.1845 5.06095 19.1711 4.9957C19.1576 4.93046 19.1312 4.86857 19.0935 4.81369C19.0557 4.75881 19.0073 4.71205 18.9512 4.67618C18.8654 4.61921 18.7761 4.56776 18.6838 4.52214C18.802 4.27772 19.006 4.08537 19.257 3.98178C19.508 3.8782 19.7883 3.87063 20.0445 3.96053C20.1417 3.99496 20.2473 3.99844 20.3466 3.97047C20.4459 3.9425 20.5341 3.88447 20.5991 3.80435C20.7934 3.56396 21.0432 3.37447 21.3271 3.25225C21.6109 3.13004 21.9203 3.07877 22.2284 3.10289C22.5365 3.12701 22.8341 3.22578 23.0955 3.39068C23.3569 3.55557 23.5742 3.78163 23.7286 4.04932C23.7729 4.12519 23.8364 4.18813 23.9126 4.23186C23.9888 4.27559 24.0751 4.29859 24.163 4.29857C24.485 4.29828 24.8018 4.38001 25.0835 4.53605C25.1494 4.5727 25.2227 4.59392 25.298 4.59812C25.3733 4.60232 25.4485 4.58939 25.5181 4.5603C25.5877 4.53121 25.6497 4.48671 25.6996 4.43017C25.7495 4.37362 25.7859 4.3065 25.8061 4.23385C25.8956 3.91346 26.0404 3.61117 26.234 3.34062C26.2947 3.25594 26.3273 3.15438 26.3273 3.05019C26.3273 2.946 26.2947 2.84443 26.234 2.75976C26.0987 2.57315 26.0262 2.34839 26.027 2.11792C26.0292 1.85583 26.1246 1.60309 26.2961 1.40494C26.4677 1.20679 26.7041 1.07617 26.9632 1.03647C27.2223 0.996762 27.487 1.05057 27.71 1.18825C27.933 1.32594 28.0998 1.53851 28.1803 1.7879C28.2116 1.88717 28.2731 1.9742 28.3563 2.03681C28.4394 2.09943 28.54 2.13452 28.6441 2.13717C29.3735 2.15744 30.0678 2.45522 30.5852 2.96978C31.1026 3.48433 31.4043 4.1769 31.4287 4.90623C31.453 5.63556 31.1982 6.34671 30.7163 6.89464C30.2343 7.44257 29.5615 7.786 28.835 7.85489C28.6832 7.47326 28.4247 7.14341 28.0904 6.90473C27.7561 6.66605 27.3602 6.52864 26.95 6.5089C26.5397 6.48916 26.1324 6.58793 25.7768 6.79341C25.4212 6.99889 25.1322 7.3024 24.9444 7.66769C24.5008 7.75762 24.1067 8.00973 23.8391 8.37474C23.5715 8.73975 23.4496 9.19143 23.4973 9.64151C23.545 10.0916 23.7588 10.5077 24.0969 10.8086C24.435 11.1094 24.8732 11.2734 25.3258 11.2684C25.5506 11.6984 25.9285 12.0286 26.3848 12.1937H23.8816C23.9281 11.6337 23.7518 11.0779 23.3911 10.6469C23.4802 10.2035 23.4008 9.74279 23.1685 9.35474C22.9362 8.96669 22.5677 8.67913 22.1348 8.54817C21.7019 8.41721 21.2357 8.45226 20.8273 8.64648C20.4188 8.84069 20.0974 9.18014 19.9257 9.59856C19.6286 9.6228 19.3411 9.71529 19.0855 9.86883C18.83 10.0224 18.6133 10.2328 18.4524 10.4838C18.2915 10.7348 18.1907 11.0195 18.1578 11.3158C18.1249 11.6121 18.1609 11.912 18.2628 12.1921H14.7552C14.7396 12.0918 14.7317 11.9904 14.7317 11.8889ZM14.3134 13.1886H18.4853L18.8598 18.9732C18.398 18.2166 17.7884 17.5611 17.0673 17.0458C16.3462 16.5305 15.5285 16.166 14.6632 15.9742L14.3134 13.1886ZM11.2518 17.1894C11.2636 17.1894 11.2759 17.1851 11.2882 17.1819C11.3268 17.1704 11.364 17.1545 11.3989 17.1343C12.2108 16.8472 13.0781 16.7524 13.9328 16.8574C14.7875 16.9623 15.6062 17.2642 16.3245 17.7391C17.0428 18.2141 17.641 18.8493 18.0722 19.5947C18.5034 20.34 18.7558 21.1753 18.8095 22.0347H7.69495C7.7634 20.9718 8.13471 19.9507 8.76501 19.0921C9.39531 18.2334 10.2582 17.5732 11.2518 17.1894ZM5.99675 24.1608C6.00063 23.8624 6.12089 23.5774 6.3319 23.3664C6.54291 23.1553 6.82799 23.0351 7.12638 23.0312H19.4085C19.5589 23.0279 19.7084 23.0547 19.8483 23.11C19.9882 23.1653 20.1156 23.248 20.2231 23.3532C20.3307 23.4583 20.4161 23.584 20.4744 23.7226C20.5327 23.8613 20.5627 24.0102 20.5627 24.1606C20.5627 24.311 20.5327 24.4599 20.4744 24.5985C20.4161 24.7372 20.3307 24.8628 20.2231 24.968C20.1156 25.0732 19.9882 25.1558 19.8483 25.2111C19.7084 25.2664 19.5589 25.2932 19.4085 25.2899H7.09697C6.95015 25.2896 6.80488 25.2599 6.66968 25.2026C6.53448 25.1454 6.41206 25.0617 6.30959 24.9566C6.20713 24.8514 6.12668 24.7269 6.07296 24.5902C6.01924 24.4536 5.99333 24.3076 5.99675 24.1608ZM8.5871 29.0634H13.5555V36.0868H8.89519L8.5871 29.0634ZM17.5151 38.2546C17.5064 38.4615 17.418 38.657 17.2685 38.8002C17.119 38.9435 16.9199 39.0234 16.7128 39.0232H9.79323C9.58616 39.0234 9.38703 38.9435 9.23751 38.8002C9.08798 38.657 8.99963 38.4615 8.99093 38.2546L8.93744 37.0837H14.0529C14.1184 37.0837 14.1832 37.0709 14.2437 37.0458C14.3042 37.0208 14.3591 36.984 14.4054 36.9377C14.4517 36.8915 14.4884 36.8365 14.5135 36.776C14.5385 36.7155 14.5514 36.6507 14.5514 36.5853V28.5623C14.5514 28.43 14.4989 28.3032 14.4054 28.2098C14.3119 28.1163 14.1851 28.0638 14.0529 28.0638H8.54378L8.46516 26.2848H18.0393L17.5151 38.2546ZM19.0379 26.2848H19.332L20.0247 37.018H18.5672L19.0379 26.2848ZM31.0092 37.0206H28.2959L29.8331 13.188H34.005L31.0092 37.0206Z" fill="#333333"/>
</g>
<defs>
<clipPath id="clip0">
<rect width="40" height="40" fill="white"/>
</clipPath>
</defs>
</svg>
