<svg width="41" height="40" viewBox="0 0 41 40" fill="none" xmlns="http://www.w3.org/2000/svg">
<g clip-path="url(#clip0)">
<path d="M9.9375 32.1885H15.5625L12.75 25.9385C13.2708 25.8343 14.25 25.626 14 25.626C13.75 25.626 13.2708 25.001 13.0625 24.6885C12.75 24.6885 11.9375 24.751 11.1875 25.001C10.4375 25.251 10.0417 26.1468 9.9375 26.5635V32.1885Z" fill="#ECF7FB"/>
<path d="M14.9375 25.9385L17.125 32.1885L18.0625 27.501L17.4375 26.876L17.125 27.1885C16.8125 26.7718 16.125 25.8135 15.875 25.3135C15.625 24.8135 16.1875 23.6468 16.5 23.126L16.8125 22.1885L15.875 21.876C15.7708 22.0843 15.4375 22.626 14.9375 23.126C14.4375 23.626 14.7292 25.2093 14.9375 25.9385Z" fill="#ECF7FB"/>
<path d="M19 27.501L19.9375 32.1885C21.1875 30.4385 22.125 26.0426 22.4375 24.0635L21.5 21.876L20.875 22.1885C20.5625 22.2926 20.0625 22.626 20.5625 23.126C21.1875 23.751 21.5 25.001 20.875 26.251C20.375 27.251 19.8333 27.0843 19.625 26.876L19 27.501Z" fill="#ECF7FB"/>
<path d="M9.625 25.3133C9.625 26.3133 8.79167 27.3967 8.375 27.8133C8.125 27.8133 7.4375 26.5633 7.125 25.9383C7.625 25.9383 8.58333 24.8967 9 24.3758C9.20833 24.2717 9.625 24.3133 9.625 25.3133Z" fill="#ECF7FB"/>
<path d="M4.625 25.001H3.0625V32.1885H4.625V25.001Z" fill="#ECF7FB"/>
<path d="M14.6262 18.7511C14.3137 18.6469 13.9387 18.8761 14.9387 20.6261C15.9011 22.3103 17.7126 22.9718 18.5903 23.112L19.3138 23.1261L22.4388 20.6261L22.7513 18.7511H20.8763C20.3763 17.5011 19.8347 17.1886 19.6263 17.1886H18.6888C18.168 17.0844 17.0638 17.0636 16.8138 17.8136C16.5638 18.5636 16.0847 18.7511 15.8763 18.7511H14.6262Z" fill="#ECF7FB"/>
<path d="M14.3138 13.7511V15.3136C14.0639 15.5636 13.5847 15.0011 13.3763 14.6886C13.2722 14.0636 13.1263 12.4386 13.3763 10.9386C13.6263 9.43858 14.7305 9.27192 15.2513 9.37608C15.3555 9.48025 15.5638 9.81358 15.5638 10.3136C15.5638 10.8136 16.6055 10.9386 17.1263 10.9386C17.1263 11.0427 17.0638 11.3136 16.8138 11.5636C16.5013 11.8761 15.8763 11.5636 15.5638 12.8136C15.3138 13.8136 14.6263 13.8552 14.3138 13.7511Z" fill="#ECF7FB"/>
<path d="M17.4375 9.68848V10.9385C17.5417 11.0426 17.875 11.251 18.375 11.251C19 11.251 19 10.3135 20.5625 10.3135C22.125 10.3135 22.125 11.251 22.125 12.501C22.125 13.751 22.125 14.0635 22.75 14.6885C23.25 15.1885 23.7917 15.1051 24 15.001V12.1885C24 10.9385 22.9583 10.2093 22.4375 10.001C21.3958 9.68848 19.1875 9.06348 18.6875 9.06348C18.1875 9.06348 17.6458 9.48014 17.4375 9.68848Z" fill="#ECF7FB"/>
<path d="M6.1875 18.751C4.4375 19.001 4 20.5218 4 21.251C4 22.1885 5.25 23.126 6.8125 23.4385C8.375 23.751 10.25 22.1885 10.25 20.9385C10.25 19.6885 8.375 18.4385 6.1875 18.751Z" fill="#ECF7FB"/>
<path d="M22.125 28.751V32.1885H24V28.4385C24 28.0218 23.9375 27.1885 23.6875 27.1885C22.6875 27.1885 22.2292 28.2301 22.125 28.751Z" fill="#ECF7FB"/>
<path d="M29.3125 29.0635L27.4375 27.8135C28.4375 27.8135 28.4792 26.9801 28.375 26.5635L28.6875 25.9385C29.4375 26.4385 29.4167 26.9801 29.3125 27.1885V29.0635Z" fill="#ECF7FB"/>
<path d="M30.5625 32.1885V27.1885C31.5625 27.1885 32.2292 28.0218 32.4375 28.4385V32.1885H30.5625Z" fill="#ECF7FB"/>
<path d="M36.1882 32.1887H34.6257C35.2507 29.7929 36.5632 24.8137 36.8132 24.0637C37.0632 23.3137 36.5007 22.7095 36.1882 22.5012V21.8762C36.6882 22.1262 37.6465 23.647 38.0632 24.3762L37.7507 25.0012L38.3757 25.3137L36.1882 32.1887Z" fill="#ECF7FB"/>
<path d="M30.5632 23.7512L30.2507 23.4387C30.1465 23.022 30.5631 22.1887 30.8757 21.8762C31.5746 21.1776 31.8132 21.8762 31.8132 22.5012C31.8132 23.0012 30.9799 23.5429 30.5632 23.7512Z" fill="#ECF7FB"/>
<path d="M37.4376 20.0008C36.9376 20.0008 36.3959 20.6258 36.1876 20.9383C36.2918 20.5217 36.5626 19.6258 36.8126 19.3758C37.0626 19.1258 37.1251 18.0217 37.1251 17.5008C37.4376 17.7092 38.0626 17.9383 38.0626 17.1883C38.0626 15.9383 37.4376 16.0425 37.1251 16.2508L36.8126 15.6258C36.396 15.6258 35.5626 15.5008 35.5626 15.0008C35.5626 14.3758 34.9376 14.0633 34.0001 14.0633C33.2501 14.0633 33.0626 13.23 33.0626 12.8133C32.7501 12.8133 32.0626 12.9383 31.8126 13.4383C31.5001 14.0633 31.1876 13.7508 30.8751 14.3758C30.6251 14.8758 30.146 15.2092 29.9376 15.3133V17.5008C29.9376 18.0008 30.146 18.5425 30.2501 18.7508C30.7501 18.7508 30.8751 19.3758 30.8751 19.6883L29.9376 21.2508L29.6251 19.0633L28.6876 18.4383L27.1251 19.0633H25.8751L25.2501 19.3758L24.3126 19.6883V21.2508C23.6876 20.6258 22.8126 19.0633 24.3126 17.8133C26.1876 16.2508 25.5626 17.5008 26.1876 17.1883C26.6876 16.9383 27.2293 16.8758 27.4376 16.8758C27.3334 16.4592 27.1251 15.5008 27.1251 15.0008C27.1251 14.3758 28.0626 14.0633 28.3751 13.4383C28.6876 12.8133 27.7501 12.1883 29.6251 11.5633C31.5001 10.9383 30.2501 10.6258 32.4376 10.3133C34.6251 10.0008 33.6876 11.2508 35.2501 11.2508C36.5001 11.2508 37.0209 11.6675 37.1251 11.8758L37.7501 13.7508C38.2709 13.855 39.3126 14.2508 39.3126 15.0008C39.3126 15.9383 39.3126 16.2508 39.6251 16.5633C39.8751 16.8133 39.9376 17.2925 39.9376 17.5008C39.9376 18.7508 39.4168 17.8133 39.0001 19.0633C38.3751 20.9383 38.0626 20.0008 37.4376 20.0008Z" fill="#ECF7FB"/>
<path d="M24.1288 24.8784C24.1413 24.9968 24.1231 25.1163 24.076 25.2257C24.029 25.335 23.9546 25.4305 23.8601 25.5029H24.3108C24.3735 25.5037 24.4354 25.5172 24.4928 25.5424C24.5419 25.5658 24.5859 25.5989 24.6221 25.6395C24.6583 25.6802 24.6861 25.7277 24.7037 25.7792C24.7214 25.8307 24.7286 25.8852 24.7249 25.9395C24.7213 25.9939 24.7069 26.0469 24.6825 26.0956L24.2477 26.9966H24.7297C24.7543 26.7272 24.8595 26.4715 25.0315 26.2628C25.2035 26.0541 25.4344 25.9021 25.6941 25.8266V25.5092C25.3832 25.3442 25.1025 25.1277 24.8641 24.8688H24.1288V24.8784ZM39.8822 16.6182C39.9965 16.7284 40.0878 16.8602 40.1508 17.0058C40.2139 17.1515 40.2475 17.3082 40.2497 17.467C40.2519 17.6257 40.2227 17.7833 40.1636 17.9307C40.1046 18.078 40.017 18.2123 39.9058 18.3256L39.4869 18.7523C39.3865 18.8544 39.318 18.9836 39.2895 19.1239L39.2189 19.5118C39.2189 19.5196 39.2112 19.5354 39.2112 19.5436C39.1765 19.6978 39.1118 19.8436 39.0207 19.9728C38.9296 20.102 38.8139 20.2119 38.6803 20.2964C38.5467 20.3808 38.3977 20.4381 38.242 20.4649C38.0862 20.4917 37.9266 20.4875 37.7725 20.4526L37.5905 20.4131C37.4838 20.3881 37.3728 20.3878 37.266 20.4123C37.1592 20.4367 37.0594 20.4853 36.9742 20.5542L36.3102 21.0831C36.0973 21.2536 35.8322 21.3458 35.5594 21.344C35.5145 21.3454 35.4696 21.3428 35.4251 21.3363C35.3933 21.3521 35.3697 21.368 35.338 21.3835V21.5246C35.8864 21.5712 36.4037 21.7993 36.8081 22.1727C37.3793 22.6903 37.8299 23.3271 38.1279 24.0381C38.585 24.2007 38.9807 24.5006 39.2609 24.8968C39.541 25.2929 39.6919 25.7659 39.6929 26.2511V32.2979C39.6934 32.3292 39.6877 32.3602 39.676 32.3892C39.6643 32.4182 39.6469 32.4446 39.6247 32.4667C39.6026 32.4888 39.5763 32.5063 39.5473 32.518C39.5182 32.5297 39.4872 32.5354 39.4559 32.5348H0.487319C0.456254 32.5355 0.42538 32.5298 0.396519 32.5183C0.367659 32.5068 0.341395 32.4896 0.319277 32.4678C0.297158 32.446 0.279634 32.42 0.267737 32.3913C0.255839 32.3626 0.24981 32.3318 0.250005 32.3007V27.321C0.250658 26.6504 0.517353 26.0074 0.991558 25.5332C1.46576 25.059 2.10873 24.7923 2.77936 24.7916H4.19408C4.2691 24.7927 4.34384 24.782 4.41552 24.7599C4.50007 24.5155 4.62277 24.286 4.77908 24.08L4.96879 23.8191V23.068C4.6679 22.8843 4.40888 22.6395 4.20845 22.3495C4.00801 22.0595 3.87062 21.7306 3.80514 21.3842C3.21316 20.6426 2.88743 19.7237 2.88021 18.7748V18.68C2.82529 18.6892 2.76979 18.6945 2.71413 18.6959C2.66698 18.6971 2.6198 18.6945 2.57308 18.6881C2.38353 18.6606 2.20575 18.5796 2.06056 18.4547C1.91536 18.3298 1.80877 18.1661 1.75327 17.9828C1.69776 17.7995 1.69564 17.6042 1.74716 17.4197C1.79868 17.2352 1.90169 17.0692 2.04414 16.9412V14.7359C2.04361 14.4107 2.16509 14.097 2.3846 13.857C2.6041 13.617 2.90566 13.4681 3.22966 13.4397C3.55123 12.6928 4.08457 12.0566 4.76377 11.6096C5.44297 11.1625 6.23826 10.9243 7.05137 10.9243C7.86449 10.9243 8.65978 11.1625 9.33898 11.6096C10.0182 12.0566 10.5515 12.6928 10.8731 13.4397C11.1935 13.4738 11.49 13.6249 11.7059 13.8641C11.9218 14.1033 12.0419 14.4137 12.0431 14.7359V16.9334C12.2247 17.0919 12.3426 17.311 12.3749 17.5498C12.3814 17.5966 12.384 17.6437 12.3827 17.6909C12.3831 17.8238 12.3572 17.9556 12.3065 18.0785C12.2558 18.2015 12.1813 18.3131 12.0873 18.4072C11.9933 18.5012 11.8816 18.5757 11.7586 18.6264C11.6357 18.6771 11.504 18.703 11.371 18.7026C11.318 18.7016 11.2652 18.6963 11.213 18.6867V18.7738C11.2139 19.7227 10.8904 20.6434 10.2962 21.3832C10.2318 21.73 10.0948 22.0592 9.89429 22.3494C9.69376 22.6396 9.43417 22.8841 9.13255 23.067V23.818L9.32226 24.079C9.47562 24.2869 9.59807 24.5159 9.68581 24.7588C9.7582 24.7777 9.83248 24.7883 9.90726 24.7906H10.9584C11.3612 24.5532 11.8189 24.4251 12.2864 24.4189L13.2113 24.4111C13.6892 23.3407 14.4487 22.42 15.4089 21.7474C14.7744 21.1298 14.3582 20.3224 14.2233 19.4473C14.2156 19.4078 14.2156 19.3683 14.2075 19.3288C14.1227 19.1511 14.0794 18.9565 14.0809 18.7597V18.1034C14.0794 17.9734 14.1121 17.8452 14.1757 17.7318V17.4472C14.1134 17.4603 14.0497 17.4657 13.986 17.4631C13.9388 17.4631 13.8834 17.4553 13.8358 17.4553C13.625 17.4253 13.428 17.3325 13.2706 17.1891C13.1132 17.0456 13.0025 16.8581 12.9531 16.6509C12.9036 16.4438 12.9177 16.2265 12.9933 16.0274C13.069 15.8283 13.2028 15.6566 13.3774 15.5346C13.4319 15.497 13.4901 15.4652 13.5512 15.4397C13.3903 15.3209 13.2593 15.1662 13.1687 14.9878C13.0782 14.8094 13.0306 14.6123 13.0297 14.4122V11.1081C13.0302 10.58 13.2402 10.0736 13.6137 9.70012C13.9871 9.32666 14.4935 9.11664 15.0217 9.11617H15.3775C15.5897 8.56058 15.9921 8.09833 16.5133 7.81175C17.0344 7.52516 17.6403 7.43285 18.2231 7.55124L21.1873 8.15986C21.5479 8.2338 21.8733 8.42672 22.1113 8.70768C22.3492 8.98864 22.4859 9.34136 22.4994 9.70928C22.9941 9.92996 23.4141 10.2893 23.7087 10.7439C24.0033 11.1985 24.1598 11.7287 24.1592 12.2704L24.1514 13.8829V15.1326C24.1499 15.195 24.1244 15.2544 24.0803 15.2985C24.0362 15.3426 23.9768 15.368 23.9144 15.3696H23.8591C23.569 15.3707 23.2825 15.3058 23.0213 15.1799V15.4168C23.1533 15.3747 23.2933 15.3634 23.4303 15.384C23.5674 15.4045 23.6979 15.4563 23.8118 15.5353C23.9322 15.6172 24.0339 15.7236 24.1102 15.8476C24.1864 15.9716 24.2356 16.1103 24.2544 16.2547C24.2609 16.3044 24.2635 16.3547 24.2621 16.4049C24.2621 16.6854 24.1507 16.9545 23.9523 17.1529C23.7539 17.3513 23.4848 17.4627 23.2043 17.4627C23.1433 17.4617 23.0825 17.4564 23.0223 17.4469V17.7237C23.0851 17.8403 23.1177 17.9707 23.1172 18.1031V18.7593C23.1185 18.7964 23.1159 18.8335 23.1094 18.87C23.096 19.0225 23.0586 19.1718 22.9987 19.3126C23 19.3288 22.9974 19.3452 22.9909 19.3602C22.8892 20.2743 22.4761 21.1256 21.8209 21.7711C22.7635 22.4442 23.5108 23.3552 23.9867 24.4111H24.5157C24.2461 23.9594 24.104 23.4431 24.1045 22.9171H24.0573C24.0202 22.9184 23.9831 22.9158 23.9465 22.9093C23.7433 22.8797 23.5601 22.7708 23.4371 22.6063C23.3141 22.4419 23.2613 22.2353 23.2903 22.032C23.3065 21.9267 23.3435 21.8257 23.3991 21.7349C23.4548 21.6441 23.5279 21.5653 23.6144 21.5031C23.6948 21.447 23.7865 21.4092 23.8831 21.3923C23.5985 20.7679 23.1718 19.6772 23.2427 18.863C23.2533 18.7024 23.2907 18.5447 23.3534 18.3965C23.4077 18.2753 23.4862 18.1666 23.5841 18.0769C23.682 17.9872 23.7972 17.9185 23.9226 17.8749C24.1675 17.5024 24.5124 17.2062 24.9177 17.0203C25.323 16.8345 25.7724 16.7663 26.2146 16.8238H26.2305C26.5019 16.6643 26.8209 16.6055 27.1314 16.6577C27.1487 16.5285 27.1295 16.3971 27.0761 16.2783L26.9258 15.9066C26.8101 15.6171 26.805 15.2952 26.9114 15.0022C27.0177 14.7091 27.2282 14.4655 27.5027 14.3177L27.7873 14.1597C27.9143 14.091 28.0204 13.9891 28.0942 13.865C28.1679 13.7408 28.2066 13.5989 28.2062 13.4545V12.77C28.2064 12.5049 28.2895 12.2465 28.444 12.031C28.5985 11.8156 28.8166 11.6539 29.0677 11.5687L29.9767 11.2605C30.0584 11.2321 30.1356 11.1922 30.2059 11.142L30.6407 10.8102C31.1641 10.4079 31.7955 10.1705 32.4543 10.1283C33.1131 10.0861 33.7696 10.241 34.3401 10.5732L34.9251 10.9131L36.332 11.0475C36.5738 11.0688 36.8033 11.1636 36.9898 11.319C37.1763 11.4744 37.3108 11.6831 37.3754 11.917L37.7866 13.3557C37.8146 13.4555 37.8637 13.5481 37.9307 13.6272C37.9976 13.7063 38.0807 13.77 38.1745 13.8142L38.8067 14.1223C39.0373 14.2338 39.2265 14.4155 39.3473 14.6413C39.468 14.8672 39.5139 15.1255 39.4785 15.3791L39.4231 15.7902C39.4044 15.9237 39.4225 16.0598 39.4755 16.1838C39.5284 16.3078 39.6142 16.4149 39.7235 16.4937C39.781 16.5295 39.8341 16.572 39.8815 16.6203L39.8822 16.6182ZM39.6371 17.8986C39.6934 17.8204 39.7335 17.7319 39.7552 17.6381C39.7769 17.5444 39.7797 17.4472 39.7635 17.3523C39.7474 17.2574 39.7125 17.1667 39.6609 17.0854C39.6094 17.0041 39.5422 16.9339 39.4633 16.8788C39.2816 16.7513 39.1389 16.576 39.051 16.3722C38.9631 16.1684 38.9334 15.9443 38.9654 15.7247L39.0208 15.3135C39.0439 15.1605 39.0172 15.0041 38.9446 14.8675C38.872 14.7308 38.7574 14.6212 38.6177 14.5547L37.9855 14.2465C37.8319 14.1727 37.6959 14.0667 37.5868 13.9358C37.4777 13.8049 37.3981 13.652 37.3532 13.4876L36.9421 12.0489C36.9026 11.9071 36.821 11.7807 36.7081 11.6862C36.5952 11.5918 36.4563 11.5338 36.3098 11.52L34.8475 11.3789C34.8136 11.3769 34.7809 11.3659 34.7526 11.3472L34.1204 10.9755C33.6322 10.6898 33.07 10.5559 32.5054 10.5911C31.9409 10.6263 31.3996 10.8289 30.9507 11.173L30.5159 11.5048C30.4081 11.591 30.2846 11.6554 30.1523 11.6945L29.2433 12.0027C29.0852 12.0566 28.9482 12.1589 28.8517 12.2951C28.7552 12.4314 28.7042 12.5946 28.7059 12.7616V13.4492C28.705 13.6794 28.6421 13.905 28.524 14.1025C28.4058 14.3 28.2366 14.462 28.0341 14.5716L27.7496 14.7218C27.5776 14.8145 27.4455 14.9671 27.3785 15.1506C27.3115 15.3342 27.3142 15.5359 27.386 15.7176L27.5362 16.0893C27.6227 16.3049 27.6471 16.5404 27.6068 16.7691C27.9177 16.6277 28.271 16.6106 28.5941 16.7215C28.6252 16.6269 28.673 16.5385 28.7351 16.4606C28.8022 16.375 28.8822 16.3003 28.9721 16.2391C29.0676 16.1791 29.1746 16.1397 29.2862 16.1234C29.3978 16.107 29.5115 16.1142 29.6202 16.1443V15.5448H29.1008C29.0379 15.5448 28.9776 15.5198 28.9331 15.4754C28.8887 15.4309 28.8637 15.3706 28.8637 15.3077C28.8637 15.2448 28.8887 15.1845 28.9331 15.14C28.9776 15.0955 29.0379 15.0705 29.1008 15.0705H29.8061C29.9805 15.0687 30.15 15.012 30.2905 14.9085C30.4309 14.8049 30.5352 14.6598 30.5885 14.4937H30.3181C30.2553 14.4935 30.1951 14.4684 30.1507 14.424C30.1063 14.3796 30.0813 14.3195 30.0811 14.2567C30.0805 14.2254 30.0863 14.1943 30.098 14.1653C30.1097 14.1363 30.1271 14.11 30.1492 14.0879C30.1713 14.0657 30.1977 14.0483 30.2267 14.0366C30.2557 14.0249 30.2868 14.0192 30.3181 14.0197H30.9986C31.1411 14.0195 31.2777 13.9629 31.3784 13.8621C31.4792 13.7614 31.5358 13.6248 31.536 13.4823C31.5371 13.25 31.6299 13.0275 31.7942 12.8632C31.9585 12.6989 32.181 12.6061 32.4133 12.605H33.1246C33.2252 12.605 33.3217 12.565 33.3929 12.4939C33.464 12.4227 33.504 12.3262 33.504 12.2256C33.504 12.1627 33.529 12.1024 33.5735 12.0579C33.6179 12.0134 33.6782 11.9885 33.7411 11.9885C33.804 11.9885 33.8643 12.0134 33.9088 12.0579C33.9533 12.1024 33.9783 12.1627 33.9783 12.2256C33.9782 12.4099 33.918 12.5892 33.8067 12.7361C33.6955 12.8831 33.5393 12.9897 33.3619 13.0398V13.2136C33.3619 13.3539 33.4176 13.4885 33.5168 13.5877C33.616 13.6868 33.7505 13.7426 33.8908 13.7426H34.6497C34.9154 13.743 35.1702 13.8487 35.3583 14.0365C35.5463 14.2243 35.6524 14.479 35.6532 14.7447C35.6532 14.885 35.709 15.0195 35.8081 15.1187C35.9073 15.2179 36.0419 15.2737 36.1822 15.2737H37.0676C37.1304 15.2738 37.1905 15.2989 37.2349 15.3433C37.2793 15.3877 37.3044 15.4478 37.3046 15.5106C37.3059 15.5294 37.3032 15.5483 37.2968 15.566V16.1351C37.4096 16.1069 37.527 16.1029 37.6415 16.1233C37.7559 16.1438 37.8647 16.1882 37.9608 16.2536C38.069 16.3255 38.1603 16.42 38.2285 16.5305C38.2967 16.641 38.3403 16.765 38.3561 16.894C38.3626 16.9384 38.3652 16.9834 38.3638 17.0283C38.3627 17.2788 38.2622 17.5186 38.0843 17.6949C37.9064 17.8713 37.6658 17.9698 37.4153 17.9687C37.3729 17.9701 37.3306 17.9675 37.2887 17.961V18.0163C37.288 18.8068 37.0416 19.5775 36.5834 20.2216L36.6783 20.1427C36.8198 20.0296 36.9849 19.9496 37.1613 19.9086C37.3378 19.8676 37.5212 19.8666 37.6981 19.9057L37.88 19.9452C37.8843 19.9446 37.8886 19.9451 37.8927 19.9464C37.8968 19.9477 37.9005 19.95 37.9037 19.9529C38.0943 19.99 38.2919 19.9502 38.4533 19.8421C38.6147 19.734 38.7268 19.5665 38.7651 19.3761L38.8441 18.9882C38.8913 18.7597 39.0012 18.549 39.1615 18.3795L39.5804 17.9529C39.5881 17.9606 39.6121 17.9292 39.6357 17.8975L39.6371 17.8986ZM39.2182 32.0553V26.2539C39.217 25.9173 39.1254 25.5871 38.9529 25.2979C38.7805 25.0087 38.5336 24.7712 38.2379 24.61C38.2175 24.7366 38.1565 24.853 38.0641 24.9418H38.3645C38.4189 24.9409 38.4728 24.9517 38.5225 24.9736C38.6166 25.0159 38.6907 25.0931 38.729 25.189C38.7674 25.2848 38.767 25.3918 38.7281 25.4873L36.3489 32.056L39.2182 32.0553ZM35.8352 32.0553L38.2379 25.4158H37.155C37.1113 25.4161 37.0683 25.4045 37.0307 25.3822C36.9931 25.3599 36.9623 25.3277 36.9417 25.2892C36.9189 25.2459 36.9106 25.1965 36.9181 25.1481C36.9235 25.11 36.9378 25.0737 36.9598 25.0421C36.9818 25.0105 37.0108 24.9845 37.0447 24.9662L37.685 24.6421C37.7192 24.6236 37.7458 24.5938 37.7603 24.5577C37.7747 24.5216 37.776 24.4816 37.764 24.4446C37.52 23.7503 37.1135 23.1243 36.5785 22.6188C36.9447 23.4032 37.0447 24.2858 36.8631 25.1323C36.7947 25.4876 36.6969 25.8366 36.5707 26.1757L34.9487 32.0563L35.8352 32.0553ZM37.7954 17.3294C37.8308 17.2786 37.8558 17.2213 37.8691 17.1608C37.8823 17.1002 37.8834 17.0377 37.8724 16.9767C37.8614 16.9158 37.8385 16.8576 37.8049 16.8055C37.7714 16.7534 37.7279 16.7085 37.6769 16.6732C37.6183 16.6345 37.5495 16.6139 37.4793 16.6139C37.409 16.6139 37.3403 16.6345 37.2816 16.6732V17.511C37.3831 17.5414 37.492 17.5358 37.5898 17.4952C37.6715 17.4587 37.7423 17.4017 37.7954 17.3298V17.3294ZM36.8081 18.0565V15.78H36.1677C35.9016 15.7796 35.6464 15.6738 35.4582 15.4856C35.2701 15.2974 35.1642 15.0422 35.1638 14.7761C35.1638 14.6358 35.1081 14.5013 35.0089 14.4021C34.9097 14.3029 34.7751 14.2472 34.6349 14.2472H33.875C33.6088 14.2468 33.3537 14.1409 33.1655 13.9527C32.9773 13.7645 32.8714 13.5094 32.871 13.2433V13.1022H32.3968C32.29 13.1027 32.1878 13.1453 32.1123 13.2208C32.0368 13.2963 31.9942 13.3985 31.9937 13.5053C31.9931 13.7613 31.8959 14.0077 31.7216 14.1953C31.5473 14.3828 31.3086 14.4977 31.0533 14.5169C31.0077 14.7629 30.8916 14.9904 30.7189 15.1715C30.5463 15.3526 30.3247 15.4795 30.0811 15.5367V17.7815C30.192 17.8909 30.2772 18.0236 30.3305 18.1699C30.3838 18.3163 30.4039 18.4727 30.3893 18.6278C30.4619 18.636 30.5334 18.6518 30.6026 18.675C30.6977 18.7107 30.7848 18.7648 30.859 18.8341C30.9331 18.9035 30.9928 18.9869 31.0347 19.0794C31.0766 19.1719 31.0998 19.2718 31.1029 19.3733C31.1061 19.4748 31.0893 19.5759 31.0533 19.6709L30.8713 20.161C30.8636 20.1769 30.8636 20.1846 30.8555 20.2005C31.1693 20.5841 31.565 20.8925 32.0136 21.1031C32.4623 21.3138 32.9523 21.4213 33.4479 21.4177C34.3383 21.4159 35.1917 21.0613 35.8213 20.4317C36.451 19.8021 36.8055 18.9487 36.8074 18.0583L36.8081 18.0565ZM36.1363 26.0258C36.39 25.3882 36.5031 24.7033 36.4681 24.018C36.4286 24.0102 36.381 24.0102 36.3415 24.0021C35.4569 24.5703 34.4247 24.8657 33.3735 24.8517C32.3222 24.8376 31.2983 24.5147 30.4291 23.9231C30.3759 24.6395 30.4867 25.3587 30.7532 26.0258C30.7532 26.0336 30.7532 26.0336 30.761 26.0417L31.0297 27.022C31.4612 27.0897 31.8543 27.3092 32.1384 27.641C32.4225 27.9728 32.5787 28.3952 32.5791 28.832V32.057H34.4444L36.1123 26.042C36.1282 26.042 36.136 26.0343 36.136 26.0262L36.1363 26.0258ZM36.3973 23.5282C36.326 23.2037 36.206 22.8919 36.0415 22.6033C35.9368 22.4162 35.8151 22.2391 35.6779 22.0743C35.5672 22.0412 35.4532 22.02 35.338 22.0112V22.2009C35.3391 22.509 35.4442 22.8077 35.6362 23.0487C35.8281 23.2897 36.0958 23.4589 36.3958 23.5289L36.3973 23.5282ZM35.7728 23.7891C35.4951 23.6267 35.2646 23.3947 35.1038 23.1161C34.9431 22.8375 34.8577 22.5219 34.8559 22.2002V21.6152C33.9477 21.9787 32.9344 21.9787 32.0262 21.6152V22.2792C32.0262 22.5877 31.9442 22.8907 31.7886 23.1571C31.633 23.4236 31.4094 23.6439 31.1407 23.7955C31.8525 24.1793 32.6487 24.3797 33.4574 24.3783C34.266 24.377 35.0616 24.174 35.7721 23.7877L35.7728 23.7891ZM32.1122 32.0556V30.4907H30.7606V32.0556H32.1122ZM32.1122 30.0242V28.8387C32.1123 28.6611 32.0774 28.4853 32.0095 28.3213C31.9416 28.1573 31.8421 28.0083 31.7165 27.8827C31.591 27.7572 31.442 27.6577 31.2779 27.5898C31.1139 27.5219 30.9381 27.487 30.7606 27.4871V30.0323H32.1122V30.0242ZM31.5589 22.2781V22.0087C31.4415 22.0239 31.3253 22.0474 31.2113 22.0793C31.0766 22.2416 30.9575 22.4162 30.8555 22.6008C30.7118 22.8538 30.6029 23.1249 30.5314 23.4069C30.579 23.4386 30.6185 23.47 30.6657 23.5017C30.9246 23.4175 31.1502 23.2537 31.3106 23.0338C31.4709 22.8138 31.5578 22.5489 31.5589 22.2767V22.2781ZM31.5589 21.5352V21.4008C31.5512 21.4008 31.5512 21.3931 31.5431 21.3931C31.1631 21.4554 30.7735 21.4172 30.4129 21.2823V21.4643C30.4462 21.4797 30.4779 21.4983 30.5078 21.5196C30.6016 21.5831 30.68 21.6668 30.737 21.7647C30.9944 21.638 31.2731 21.56 31.5589 21.5348V21.5352ZM30.8949 20.9188C30.808 20.8398 30.721 20.7528 30.634 20.6578C30.6023 20.7054 30.5709 20.7604 30.5392 20.8081C30.6533 20.8578 30.7727 20.8948 30.8949 20.9184V20.9188ZM30.634 19.4092C30.6389 19.3305 30.6125 19.2531 30.5607 19.1937C30.5089 19.1343 30.4358 19.0977 30.3572 19.0918L30.0963 19.076C30.0543 19.0733 30.0139 19.0595 29.9791 19.0358C29.9444 19.0122 29.9167 18.9797 29.8988 18.9416C29.8724 18.8816 29.8697 18.8139 29.891 18.7519C29.9062 18.711 29.9169 18.6686 29.9228 18.6253C29.9362 18.5469 29.9339 18.4666 29.9161 18.3891C29.8983 18.3115 29.8652 18.2383 29.8189 18.1736C29.7726 18.1089 29.714 18.054 29.6463 18.0122C29.5787 17.9703 29.5034 17.9422 29.4249 17.9296L29.3378 17.9137C29.2856 17.9083 29.2375 17.8831 29.2034 17.8432L28.8155 17.4243C28.6746 17.2709 28.4842 17.1718 28.2777 17.1444C28.0712 17.1169 27.8615 17.1628 27.6854 17.2741C27.6502 17.2966 27.6097 17.3092 27.568 17.3106C27.5263 17.3119 27.485 17.302 27.4484 17.2818L27.3299 17.2187C27.1881 17.1443 27.0289 17.1094 26.8689 17.1177C26.709 17.126 26.5542 17.1772 26.4209 17.266C26.3723 17.2992 26.3131 17.3133 26.2548 17.3055L26.1599 17.2896C25.7937 17.2393 25.4208 17.2979 25.0876 17.4581C24.7545 17.6183 24.4758 17.873 24.2865 18.1905C24.2701 18.2181 24.2484 18.2422 24.2226 18.2612C24.1968 18.2802 24.1674 18.2938 24.1362 18.3013C24.0592 18.3161 23.9871 18.3498 23.9264 18.3995C23.8657 18.4492 23.8183 18.5132 23.7886 18.5858C23.583 19.0523 23.8203 19.9374 24.1059 20.6663V19.6624C23.9981 19.6236 23.8947 19.5732 23.7977 19.5122L24.0506 19.1091C24.2662 19.249 24.5213 19.3154 24.7778 19.2983C25.0342 19.2812 25.2783 19.1816 25.4734 19.0143C25.4138 18.983 25.3557 18.9488 25.2995 18.9117L25.5446 18.5086C26.7855 19.2597 27.4336 18.8965 28.0581 18.5403L28.0659 18.5326C28.2534 18.4 28.4745 18.323 28.7038 18.3106C28.9331 18.2981 29.1613 18.3506 29.3621 18.4621C29.5408 18.5701 29.6904 18.7202 29.7979 18.8993C29.9053 19.0784 29.9673 19.2811 29.9785 19.4896C29.973 19.8758 29.9994 20.2619 30.0575 20.6437C30.2161 20.4437 30.3416 20.2195 30.4291 19.9797L30.6188 19.4896C30.6295 19.4646 30.6349 19.4378 30.6347 19.4106L30.634 19.4092ZM30.5402 27.0047L30.311 26.1827C29.8604 24.9337 29.8209 23.8826 30.1925 22.9104C30.1534 22.9169 30.1137 22.9195 30.074 22.9181H30.0346C30.0314 23.3926 29.9141 23.8594 29.6926 24.279C29.4711 24.6986 29.1519 25.0587 28.7619 25.329V25.8428C29.0215 25.9186 29.2523 26.0706 29.4243 26.2793C29.5963 26.488 29.7015 26.7435 29.7264 27.0128H30.5402V27.0047ZM30.3188 22.3095C30.3416 22.277 30.3578 22.2403 30.3662 22.2014C30.3746 22.1626 30.3751 22.1224 30.3678 22.0834C30.3604 22.0443 30.3453 22.0071 30.3233 21.974C30.3013 21.9409 30.2729 21.9125 30.2398 21.8906C30.2083 21.8706 30.1723 21.8587 30.1351 21.8559C30.0979 21.8532 30.0606 21.8596 30.0264 21.8747V22.428C30.0771 22.4349 30.1286 22.4294 30.1767 22.4121C30.2352 22.3976 30.2858 22.3608 30.3177 22.3095H30.3188ZM30.287 29.3838V27.4797H29.7253V28.8313C29.7253 28.9341 29.6844 29.0328 29.6117 29.1055C29.539 29.1783 29.4403 29.2191 29.3374 29.2191C29.2916 29.2197 29.246 29.2117 29.2031 29.1955C29.1953 29.1878 29.1794 29.1878 29.1713 29.1796L27.227 28.1126L25.2745 29.1796C25.2668 29.1874 25.2509 29.1874 25.2428 29.1955C25.1998 29.2117 25.1543 29.2197 25.1084 29.2191C25.0056 29.2191 24.9069 29.1783 24.8342 29.1055C24.7614 29.0328 24.7205 28.9341 24.7205 28.8313V27.4797H24.2001V29.3838H30.2863H30.287ZM30.287 30.7195V29.8581H24.2001V30.7185L30.287 30.7195ZM30.287 32.0553V31.1938H24.2001V32.0553H30.287ZM29.6146 17.4952V16.6732C29.5581 16.634 29.4916 16.6117 29.4229 16.6088C29.3542 16.606 29.2862 16.6229 29.2267 16.6573C29.18 16.6857 29.1397 16.7234 29.1082 16.7681C29.0632 16.8316 29.0335 16.9046 29.0211 16.9814C29.0687 17.0209 29.116 17.0604 29.1622 17.108L29.494 17.4638H29.5017C29.5378 17.4791 29.5758 17.4896 29.6146 17.4952ZM29.5515 22.8938V20.4752C29.5133 20.1525 29.4948 19.8279 29.4961 19.503C29.4842 19.377 29.4438 19.2554 29.3781 19.1472C29.3124 19.039 29.223 18.9472 29.1167 18.8785C28.9856 18.8148 28.8396 18.7885 28.6946 18.8025C28.5496 18.8164 28.4112 18.87 28.2947 18.9575L28.287 18.9653C27.7415 19.2734 27.0302 19.6846 25.9244 19.2498C25.779 19.4228 25.5976 19.5619 25.3928 19.6575C25.188 19.7531 24.9649 19.8028 24.7389 19.8031C24.6834 19.8044 24.6279 19.8019 24.5728 19.7953V22.9097C24.5749 23.57 24.8392 24.2025 25.3077 24.668C25.7761 25.1334 26.4102 25.3937 27.0706 25.3916C27.7309 25.3895 28.3634 25.1252 28.8289 24.6567C29.2943 24.1883 29.5546 23.5542 29.5525 22.8938H29.5515ZM29.251 28.6796V27.1302C29.2505 26.966 29.2044 26.8051 29.1179 26.6655C29.0313 26.526 28.9077 26.4131 28.7609 26.3396V26.6796C28.7603 26.9503 28.6786 27.2147 28.5265 27.4387C28.3743 27.6626 28.1587 27.8359 27.9072 27.9363L29.251 28.6796ZM27.5429 27.5502C27.7499 27.5172 27.9384 27.4116 28.0746 27.2522C28.2107 27.0929 28.2857 26.8902 28.2859 26.6806V25.59C27.6195 25.8915 26.8653 25.9366 26.1677 25.7165V26.681C26.1679 26.8906 26.2429 27.0932 26.379 27.2526C26.5152 27.412 26.7037 27.5176 26.9107 27.5505C27.1203 27.582 27.3334 27.5819 27.5429 27.5502ZM26.539 27.9455C26.2875 27.8451 26.0719 27.6718 25.9197 27.4478C25.7676 27.2239 25.6859 26.9595 25.6853 26.6887V26.3488C25.5362 26.4202 25.4104 26.5323 25.3223 26.6722C25.2342 26.8121 25.1874 26.9741 25.1874 27.1394V28.6888L26.539 27.9455ZM23.718 27.005L24.2082 25.9852H22.9035C22.86 25.9846 22.8174 25.9726 22.78 25.9504C22.7425 25.9282 22.7116 25.8965 22.6901 25.8587C22.6674 25.8154 22.6591 25.7659 22.6665 25.7176C22.672 25.6795 22.6863 25.6432 22.7082 25.6116C22.7302 25.58 22.7593 25.554 22.7931 25.5357L23.5361 25.1562C23.5856 25.1318 23.6248 25.0905 23.6465 25.0397C23.6683 24.989 23.6711 24.9321 23.6546 24.8794C23.3475 24.0125 22.8221 23.2393 22.1291 22.6346C22.6126 23.5743 22.7578 24.6518 22.5403 25.6859C22.4624 26.1007 22.3487 26.508 22.2004 26.9031L20.3269 32.0567H21.2991L21.3544 31.9382L21.9077 30.7841V28.8397C21.9067 28.3572 22.0964 27.8938 22.4353 27.5504C22.7743 27.207 23.2352 27.0114 23.7177 27.0061L23.718 27.005ZM24.1059 22.4365V21.891C24.073 21.8727 24.0358 21.8638 23.9982 21.8652C23.9606 21.8665 23.9241 21.8781 23.8926 21.8987C23.8583 21.9223 23.8294 21.9527 23.8076 21.9881C23.7858 22.0235 23.7716 22.0631 23.766 22.1043C23.7581 22.1354 23.7581 22.168 23.766 22.1991C23.7719 22.2375 23.7854 22.2742 23.8059 22.3071C23.8264 22.34 23.8534 22.3684 23.8851 22.3905C23.9169 22.4127 23.9529 22.4281 23.9909 22.436C24.0288 22.4438 24.068 22.4439 24.1059 22.4361V22.4365ZM23.7265 32.056V30.4911H22.382V32.056H23.7265ZM23.7265 30.0245V27.4793C23.3696 27.4821 23.0282 27.6256 22.7766 27.8787C22.525 28.1318 22.3834 28.474 22.3827 28.8309V30.0164H23.7265V30.0245ZM23.6793 16.7307C23.723 16.6674 23.7539 16.5961 23.7701 16.5209C23.7862 16.4457 23.7873 16.368 23.7734 16.2924C23.7594 16.2167 23.7307 16.1445 23.6887 16.08C23.6468 16.0155 23.5925 15.96 23.529 15.9165C23.4513 15.8655 23.36 15.839 23.2671 15.8404C23.1741 15.8418 23.0837 15.871 23.0075 15.9242V16.9518C23.1284 16.991 23.2587 16.9906 23.3794 16.9506C23.5 16.9106 23.6047 16.833 23.6782 16.7293L23.6793 16.7307ZM23.6793 12.2489C23.6811 11.7223 23.5036 11.2108 23.1761 10.7985C22.8485 10.3862 22.3904 10.0977 21.877 9.98045L19.3621 9.39404C19.1142 9.31803 18.8531 9.29495 18.5957 9.3263C18.3384 9.35764 18.0904 9.44271 17.868 9.57599C17.7663 9.66457 17.6869 9.77584 17.6361 9.9008C17.5853 10.0258 17.5646 10.1609 17.5757 10.2953V10.7301C17.8344 10.8689 18.1301 10.9229 18.4211 10.8847C18.7121 10.8464 18.9838 10.7177 19.1978 10.5168C19.5202 10.2237 19.9398 10.0604 20.3755 10.0584H20.5166C20.9819 10.0587 21.428 10.2436 21.757 10.5726C22.086 10.9016 22.271 11.3478 22.2712 11.813V13.1177C22.2702 13.369 22.3193 13.618 22.4157 13.8501C22.5121 14.0822 22.6538 14.2927 22.8326 14.4693C23.054 14.6974 23.3471 14.8425 23.6627 14.8805V13.8766C23.6613 13.6757 23.5809 13.4835 23.4389 13.3415C23.2969 13.1995 23.1047 13.1191 22.9038 13.1177V12.6435C23.1801 12.6431 23.4481 12.738 23.6627 12.9121L23.6793 12.2489ZM22.6358 18.2403V18.09C22.6357 18.051 22.6277 18.0124 22.6124 17.9765C22.5972 17.9406 22.5749 17.9081 22.547 17.8809C22.519 17.8536 22.4859 17.8323 22.4495 17.818C22.4132 17.8037 22.3744 17.7968 22.3354 17.7977C22.2726 17.7975 22.2125 17.7725 22.1681 17.7281C22.1237 17.6837 22.0986 17.6236 22.0984 17.5608C22.0979 17.5295 22.1036 17.4984 22.1153 17.4694C22.127 17.4404 22.1445 17.414 22.1666 17.3919C22.1887 17.3698 22.215 17.3524 22.2441 17.3407C22.2731 17.329 22.3041 17.3232 22.3354 17.3238C22.4019 17.3239 22.4682 17.3318 22.5329 17.3474V14.8339C22.5251 14.8181 22.5093 14.8103 22.4934 14.7944C22.2699 14.5752 22.0931 14.313 21.9735 14.0236C21.854 13.7343 21.7941 13.4237 21.7977 13.1107V11.806C21.7964 11.4668 21.661 11.1419 21.4212 10.9021C21.1814 10.6622 20.8565 10.5269 20.5173 10.5256H20.3762C20.058 10.5263 19.7512 10.6444 19.5148 10.8574C19.2231 11.1307 18.8511 11.3029 18.4539 11.3484C18.0568 11.394 17.6555 11.3104 17.3095 11.1102C17.3017 11.1102 17.2936 11.118 17.2859 11.118C17.2799 11.3759 17.1732 11.6212 16.9887 11.8014C16.8042 11.9816 16.5565 12.0825 16.2985 12.0824C16.231 12.0823 16.1641 12.0955 16.1017 12.1213C16.0394 12.147 15.9827 12.1849 15.9349 12.2326C15.8872 12.2803 15.8493 12.337 15.8236 12.3994C15.7978 12.4618 15.7846 12.5287 15.7848 12.5962V12.6667C15.7846 12.9909 15.6705 13.3047 15.4625 13.5532C15.2544 13.8018 14.9656 13.9693 14.6465 14.0264V17.3383C14.7112 17.3226 14.7774 17.3147 14.844 17.3146C14.9069 17.3146 14.9672 17.3396 15.0116 17.3841C15.0561 17.4286 15.0811 17.4889 15.0811 17.5518C15.0811 17.6147 15.0561 17.675 15.0116 17.7195C14.9672 17.7639 14.9069 17.7889 14.844 17.7889C14.8049 17.7891 14.7663 17.797 14.7304 17.8123C14.6945 17.8276 14.662 17.8498 14.6348 17.8778C14.6076 17.9058 14.5862 17.9389 14.5719 17.9752C14.5576 18.0115 14.5507 18.0503 14.5516 18.0893V18.2396C14.5515 18.2884 14.5611 18.3368 14.5797 18.3819C14.5984 18.427 14.6258 18.468 14.6603 18.5026C14.6948 18.5371 14.7358 18.5645 14.781 18.5831C14.8261 18.6018 14.8745 18.6113 14.9233 18.6112H15.856C15.9318 18.6115 16.0069 18.5967 16.077 18.5678C16.1471 18.5389 16.2108 18.4964 16.2644 18.4428C16.318 18.3892 16.3605 18.3255 16.3894 18.2554C16.4183 18.1853 16.4331 18.1102 16.4329 18.0343C16.4328 17.8963 16.46 17.7596 16.5128 17.632C16.5656 17.5045 16.643 17.3886 16.7407 17.2909C16.8383 17.1933 16.9542 17.1159 17.0817 17.0631C17.2093 17.0103 17.346 16.9831 17.484 16.9832H19.635C19.7731 16.9831 19.9098 17.0103 20.0373 17.0631C20.1649 17.1159 20.2808 17.1933 20.3784 17.2909C20.476 17.3886 20.5535 17.5045 20.6063 17.632C20.6591 17.7596 20.6862 17.8963 20.6862 18.0343C20.6871 18.187 20.7482 18.3332 20.8562 18.4412C20.9642 18.5492 21.1104 18.6103 21.2631 18.6112H22.2504C22.3003 18.6125 22.3499 18.6039 22.3963 18.5858C22.4428 18.5677 22.4852 18.5405 22.521 18.5058C22.5568 18.4712 22.5854 18.4297 22.605 18.3839C22.6246 18.338 22.6348 18.2887 22.6351 18.2389L22.6358 18.2403ZM21.7504 19.6314C21.9364 19.6313 22.1176 19.5724 22.2681 19.463C22.4186 19.3537 22.5307 19.1996 22.5882 19.0227C22.485 19.0634 22.3751 19.0848 22.2642 19.0858H21.2768C21.1388 19.0859 21.0021 19.0587 20.8745 19.0059C20.747 18.9531 20.6311 18.8757 20.5334 18.7781C20.4358 18.6805 20.3584 18.5646 20.3056 18.437C20.2528 18.3094 20.2256 18.1727 20.2257 18.0347C20.2247 17.882 20.1637 17.7358 20.0557 17.6278C19.9477 17.5198 19.8015 17.4587 19.6488 17.4578H18.7697C18.8152 17.5042 18.8405 17.5667 18.8402 17.6316C18.84 17.748 18.8627 17.8632 18.9071 17.9708C18.9516 18.0783 19.0168 18.176 19.099 18.2582C19.1813 18.3405 19.279 18.4057 19.3865 18.4501C19.4941 18.4946 19.6093 18.5173 19.7257 18.5171H19.8364C19.9944 18.5171 20.2712 18.5876 20.2712 19.0626V19.0862C20.2707 19.159 20.2847 19.2311 20.3123 19.2985C20.34 19.3658 20.3807 19.427 20.4322 19.4785C20.4836 19.5299 20.5448 19.5707 20.6121 19.5983C20.6795 19.6259 20.7516 19.6399 20.8244 19.6395L21.7504 19.6314ZM21.9874 9.52169C21.9951 9.52169 21.9951 9.52169 22.0032 9.52945C21.9575 9.30467 21.8471 9.09816 21.6856 8.93528C21.5241 8.7724 21.3186 8.66025 21.0942 8.61263L18.1279 8.00295C17.8375 7.94407 17.5377 7.94948 17.2495 8.01881C16.9614 8.08814 16.692 8.2197 16.4601 8.40425C16.2282 8.58881 16.0396 8.82188 15.9074 9.08711C15.7752 9.35234 15.7026 9.6433 15.6948 9.93954C15.8056 10.137 16.2876 10.8722 17.1018 10.6825V10.2946C17.0909 10.0904 17.1273 9.88638 17.2082 9.69853C17.2891 9.51069 17.4124 9.34409 17.5683 9.21173C17.9872 8.87181 18.659 8.76919 19.4654 8.93493L21.9874 9.52169ZM21.9084 32.0567V31.8747L21.8213 32.0567H21.9084ZM22.3749 19.9551C22.1822 20.0556 21.9677 20.1072 21.7504 20.1053H20.817C20.682 20.1056 20.5483 20.0792 20.4235 20.0276C20.2987 19.9761 20.1853 19.9004 20.0898 19.8049C19.9943 19.7095 19.9187 19.5961 19.8671 19.4713C19.8156 19.3465 19.7892 19.2128 19.7895 19.0777V18.9829H19.7264C19.5922 18.9819 19.4589 18.9606 19.3311 18.9198C19.0186 18.821 18.7503 18.6165 18.5722 18.3415C18.4137 18.5997 18.1708 18.7952 17.8846 18.8947C17.7355 18.951 17.5775 18.9805 17.4181 18.9818C17.4088 18.9818 17.3997 18.9837 17.3911 18.9872C17.3826 18.9907 17.3748 18.9959 17.3682 19.0025C17.3617 19.009 17.3565 19.0168 17.3529 19.0254C17.3494 19.0339 17.3476 19.0431 17.3476 19.0524V19.076C17.3479 19.211 17.3215 19.3447 17.2699 19.4695C17.2184 19.5943 17.1427 19.7077 17.0472 19.8032C16.9518 19.8987 16.8384 19.9743 16.7136 20.0259C16.5888 20.0774 16.4551 20.1038 16.32 20.1035H15.442C15.2309 20.1047 15.0224 20.0564 14.8334 19.9625C15.1107 20.7937 15.681 21.4956 16.4378 21.9372V21.1388C16.438 21.076 16.463 21.0159 16.5074 20.9715C16.5518 20.9271 16.612 20.902 16.6748 20.9019C16.706 20.9013 16.7371 20.907 16.7661 20.9187C16.7951 20.9304 16.8215 20.9479 16.8436 20.97C16.8657 20.9921 16.8832 21.0184 16.8949 21.0475C16.9066 21.0765 16.9123 21.1075 16.9117 21.1388V22.1967L18.5006 23.0504C18.4783 23.015 18.4672 22.9737 18.4689 22.9319V21.7972C18.4689 21.7343 18.4939 21.674 18.5384 21.6295C18.5828 21.585 18.6432 21.56 18.706 21.56C18.7689 21.56 18.8293 21.585 18.8737 21.6295C18.9182 21.674 18.9432 21.7343 18.9432 21.7972V22.9354C18.9429 22.9709 18.9348 23.006 18.9196 23.038L20.2712 22.2714V21.1413C20.2713 21.0785 20.2964 21.0183 20.3408 20.9739C20.3852 20.9295 20.4453 20.9045 20.5081 20.9043C20.5394 20.9037 20.5705 20.9095 20.5995 20.9212C20.6285 20.9329 20.6548 20.9503 20.677 20.9724C20.6991 20.9946 20.7165 21.0209 20.7282 21.0499C20.7399 21.0789 20.7457 21.11 20.7451 21.1413V22.0027C21.5265 21.5499 22.1081 20.8187 22.3735 19.9554L22.3749 19.9551ZM21.7504 26.7448C22.3195 25.1717 22.2878 23.8914 21.6397 22.7295C21.5358 22.548 21.4196 22.3737 21.292 22.208C21.1863 22.2864 21.0754 22.3576 20.9602 22.4213L20.7468 22.5398V22.7926L20.9997 23.1325C21.3764 23.6475 21.5695 24.274 21.5481 24.9117C21.5266 25.5494 21.2918 26.1615 20.8812 26.6499L20.4623 27.1478C20.4075 27.2144 20.3387 27.268 20.2608 27.3049C20.1829 27.3417 20.0978 27.361 20.0116 27.3612H19.9721C19.851 27.355 19.7348 27.3107 19.6403 27.2346L19.427 27.4084L19.9884 31.574L21.7504 26.7448ZM20.5162 26.3495C20.8404 25.9635 21.0335 25.4844 21.0676 24.9814C21.1017 24.4785 20.9751 23.9777 20.7059 23.5515C20.6236 23.8495 20.4826 24.1282 20.2912 24.3711C20.0998 24.614 19.8618 24.8163 19.5913 24.9662L18.9351 25.3297L19.9073 26.8315C19.9176 26.8476 19.9315 26.861 19.948 26.8706C19.9645 26.8803 19.983 26.8858 20.0021 26.8869C20.0198 26.8871 20.0373 26.8836 20.0536 26.8769C20.0699 26.8701 20.0846 26.8601 20.097 26.8474L20.5162 26.3495ZM20.2712 23.3381V22.8166L18.8254 23.6386C18.7903 23.658 18.7509 23.6682 18.7108 23.6682C18.6707 23.6682 18.6313 23.658 18.5962 23.6386L16.9124 22.7295V23.3289C16.9676 23.5862 17.0773 23.8287 17.2341 24.04C17.391 24.2513 17.5912 24.4266 17.8215 24.554L18.5973 24.9806L19.373 24.554C19.6005 24.4264 19.7982 24.2519 19.9531 24.0421C20.108 23.8323 20.2165 23.592 20.2715 23.3371L20.2712 23.3381ZM19.5754 32.0567L18.9509 27.4726H18.9668C18.8594 27.3826 18.7237 27.3333 18.5835 27.3333C18.4434 27.3333 18.3077 27.3826 18.2002 27.4726H18.208L17.5835 32.0567H19.5754ZM19.354 26.8636L18.5863 25.676L17.8106 26.8696L17.9925 27.0276C18.164 26.9161 18.3639 26.8561 18.5684 26.8547C18.773 26.8534 18.9737 26.9107 19.1467 27.0198L19.354 26.8636ZM18.3666 17.4574H17.4812C17.3285 17.4584 17.1823 17.5194 17.0743 17.6274C16.9663 17.7354 16.9053 17.8816 16.9043 18.0343C16.9044 18.1724 16.8772 18.3091 16.8244 18.4366C16.7716 18.5642 16.6942 18.6801 16.5966 18.7777C16.4989 18.8753 16.383 18.9528 16.2555 19.0056C16.1279 19.0584 15.9912 19.0855 15.8532 19.0855H14.9191C14.8057 19.0837 14.6934 19.0623 14.5873 19.0224C14.6448 19.1992 14.7569 19.3534 14.9074 19.4627C15.0579 19.572 15.2391 19.6309 15.4251 19.631H16.3024C16.4507 19.6292 16.5924 19.5694 16.6973 19.4646C16.8022 19.3597 16.8619 19.2179 16.8638 19.0696V19.0467C16.8641 18.9021 16.9216 18.7635 17.0239 18.6613C17.1261 18.559 17.2647 18.5015 17.4093 18.5012C17.5256 18.5014 17.6409 18.4787 17.7484 18.4343C17.8559 18.3899 17.9536 18.3246 18.0359 18.2424C18.1182 18.1601 18.1834 18.0624 18.2278 17.9549C18.2722 17.8474 18.2949 17.7321 18.2947 17.6158C18.2947 17.5856 18.301 17.5558 18.3134 17.5283C18.3259 17.5008 18.344 17.4763 18.3666 17.4564V17.4574ZM17.276 26.8397L18.2482 25.3378L17.5919 24.9743C17.3214 24.8244 17.0835 24.6221 16.8921 24.3792C16.7007 24.1363 16.5597 23.8577 16.4773 23.5596C16.2082 23.9858 16.0815 24.4866 16.1156 24.9895C16.1497 25.4925 16.3428 25.9716 16.667 26.3576L17.0859 26.8555L17.1096 26.8791C17.1372 26.8946 17.1696 26.8991 17.2005 26.8918C17.2313 26.8845 17.2582 26.8659 17.276 26.8397ZM17.1811 31.5507L17.7425 27.425L17.5369 27.2431C17.4429 27.3134 17.3302 27.3547 17.2129 27.3615H17.1734C17.0862 27.3605 17.0002 27.341 16.9212 27.3042C16.8422 27.2674 16.7719 27.2142 16.715 27.1482L16.2943 26.6492C15.8837 26.1608 15.6489 25.5487 15.6274 24.911C15.6059 24.2733 15.799 23.6468 16.1758 23.1318L16.4286 22.7841V22.4668L16.2943 22.3966C16.1605 22.3252 16.031 22.2461 15.9064 22.1597C15.7664 22.3343 15.6402 22.5196 15.5291 22.714C14.881 23.8776 14.8492 25.1562 15.4184 26.7293L17.1811 31.5507ZM16.8571 32.0567L14.9836 26.9031C14.8326 26.4974 14.7163 26.0795 14.6359 25.6541C14.4263 24.6301 14.5713 23.5653 15.0471 22.6346C14.3524 23.2379 13.8267 24.0115 13.5216 24.8794C13.5059 24.9321 13.5091 24.9887 13.5308 25.0393C13.5524 25.0898 13.5911 25.1312 13.6401 25.1562L14.3831 25.5357C14.4126 25.5505 14.4386 25.5716 14.4591 25.5976C14.4795 25.6235 14.494 25.6537 14.5016 25.6859C14.508 25.7063 14.5106 25.7277 14.5093 25.749C14.5091 25.8118 14.4841 25.8719 14.4397 25.9163C14.3953 25.9607 14.3351 25.9858 14.2724 25.986H12.9758L15.8923 32.0645H16.8585L16.8571 32.0567ZM16.8017 11.1892H15.7897C15.4878 11.1893 15.1984 11.3093 14.9849 11.5227C14.7715 11.7362 14.6515 12.0256 14.6514 12.3275V13.5448C14.8419 13.4923 15.01 13.3789 15.13 13.2219C15.2499 13.0648 15.315 12.8728 15.3154 12.6752V12.6047C15.3154 12.3428 15.4194 12.0917 15.6046 11.9065C15.7898 11.7213 16.0409 11.6173 16.3028 11.6173C16.4233 11.6165 16.5396 11.573 16.631 11.4944C16.7224 11.4158 16.7829 11.3072 16.8017 11.1882V11.1892ZM15.363 32.0567L12.5015 26.1048C12.4763 26.0474 12.4629 25.9855 12.462 25.9228C12.4626 25.814 12.5061 25.7097 12.583 25.6327C12.66 25.5557 12.7643 25.5122 12.8732 25.5117H13.3238C13.2305 25.4382 13.157 25.3426 13.1101 25.2336C13.0632 25.1245 13.0443 25.0054 13.0551 24.8872H12.2882C11.743 24.8886 11.2193 25.0994 10.8251 25.4759C10.4309 25.8525 10.1964 26.366 10.17 26.9105V32.0641H15.363V32.0567ZM15.7107 10.715C15.5181 10.5385 15.3576 10.33 15.2364 10.0986C15.2212 10.0665 15.2131 10.0315 15.2128 9.99597C15.2152 9.85583 15.2258 9.71595 15.2445 9.57705H15.0249C14.6227 9.57705 14.237 9.7368 13.9527 10.0212C13.6683 10.3055 13.5086 10.6912 13.5086 11.0933V14.3974C13.5091 14.5861 13.5759 14.7686 13.6972 14.9131C13.8186 15.0575 13.9868 15.1548 14.1726 15.188V12.3264C14.1745 11.9115 14.3353 11.5131 14.622 11.2132C14.9087 10.9132 15.2995 10.7346 15.7139 10.7139L15.7107 10.715ZM14.1694 16.9437V15.932C14.0942 15.8739 14.0025 15.8411 13.9075 15.8383C13.8125 15.8354 13.719 15.8627 13.6405 15.9161C13.5452 15.9782 13.4729 16.0699 13.4349 16.1771C13.3764 16.3209 13.3769 16.482 13.4363 16.6255C13.4957 16.769 13.6092 16.8833 13.7522 16.9437C13.8874 16.9903 14.0344 16.99 14.1694 16.9426V16.9437ZM11.8139 17.979C11.8931 17.8622 11.9234 17.719 11.8983 17.5801C11.8732 17.4412 11.7947 17.3176 11.6795 17.236C11.6105 17.1889 11.5286 17.1644 11.445 17.1657C11.3615 17.1671 11.2804 17.1944 11.213 17.2438V18.1842C11.3217 18.2193 11.4389 18.2182 11.5469 18.1811C11.655 18.1441 11.7481 18.073 11.8125 17.9786L11.8139 17.979ZM11.5688 16.6986V14.7239C11.5684 14.5607 11.5203 14.4012 11.4304 14.265C11.3405 14.1288 11.2127 14.0218 11.0628 13.9573C11.1628 14.3206 11.2159 14.6952 11.2208 15.072V16.724C11.3345 16.6953 11.4524 16.6863 11.5692 16.6975L11.5688 16.6986ZM10.7387 18.7618V15.0772C10.7387 14.0983 10.3498 13.1594 9.6576 12.4671C8.96535 11.7749 8.02647 11.386 7.04749 11.386C6.06852 11.386 5.12963 11.7749 4.43739 12.4671C3.74515 13.1594 3.35625 14.0983 3.35625 15.0772V18.7607C3.35786 19.3946 3.5211 20.0175 3.83053 20.5707C4.11509 19.3612 5.44306 18.4444 7.03938 18.4444C8.6357 18.4444 9.97179 19.3612 10.2482 20.5707C10.5699 20.0218 10.7393 19.397 10.7391 18.7607L10.7387 18.7618ZM10.3671 25.2592H9.90126C9.86944 25.2605 9.83758 25.2579 9.80641 25.2514C9.86088 25.6207 9.8394 25.9973 9.74329 26.358C9.64157 26.738 9.45818 27.0914 9.20589 27.3933L8.8106 27.8598C8.75804 27.9243 8.69171 27.9762 8.61649 28.0118C8.54126 28.0474 8.45903 28.0657 8.37582 28.0654H8.34408C8.25483 28.0604 8.16806 28.0342 8.09106 27.9888C8.01405 27.9434 7.94906 27.8801 7.90154 27.8044L7.04785 26.4923L6.19415 27.8044C6.14663 27.8801 6.08164 27.9434 6.00464 27.9888C5.92763 28.0342 5.84086 28.0604 5.75161 28.0654H5.71212C5.62877 28.0665 5.54627 28.0486 5.47091 28.0129C5.39556 27.9773 5.32935 27.9249 5.27733 27.8598L4.88945 27.3933C4.84996 27.346 4.81892 27.2984 4.77873 27.2522V32.0581H9.68722V26.8887C9.69361 26.7099 9.7201 26.5325 9.76621 26.3597C9.86808 25.948 10.0746 25.5695 10.3657 25.261L10.3671 25.2592ZM9.28417 26.2709C9.36993 25.9767 9.39315 25.6679 9.35234 25.3642C9.31153 25.0606 9.20759 24.7688 9.04721 24.5078C8.88411 25.0627 8.50935 25.5313 8.0038 25.8125L7.40435 26.1443L8.31341 27.5435C8.32116 27.5512 8.32927 27.5593 8.32927 27.5671C8.3502 27.5834 8.37667 27.5909 8.40303 27.5879C8.42939 27.5849 8.45354 27.5718 8.47032 27.5512L8.85821 27.0847C9.05237 26.8439 9.19733 26.5672 9.28488 26.2705L9.28417 26.2709ZM9.84555 21.0542C9.84555 19.8764 8.5888 18.9201 7.04749 18.9201C5.50618 18.9201 4.2572 19.8764 4.2572 21.0542C4.2572 22.2319 5.51394 23.1883 7.04749 23.1883C8.58916 23.1791 9.8459 22.2228 9.8459 21.0528L9.84555 21.0542ZM8.66003 23.884V23.3134C8.15307 23.5363 7.60533 23.6513 7.05155 23.6513C6.49777 23.6513 5.95003 23.5363 5.44306 23.3134V23.8826C5.4415 24.1917 5.52372 24.4954 5.68099 24.7616C5.83827 25.0277 6.06471 25.2462 6.33626 25.3939L7.0556 25.7969L7.77495 25.3939C8.04439 25.2444 8.26869 25.0253 8.4244 24.7594C8.58011 24.4935 8.66149 24.1907 8.66003 23.8826V23.884ZM5.79851 27.5512L6.69946 26.152L6.09083 25.8202C5.58488 25.5396 5.20998 25.0708 5.04742 24.5155C4.80455 24.9125 4.69291 25.3758 4.72835 25.8398C4.7638 26.3038 4.94454 26.7448 5.24489 27.1002L5.64018 27.5668C5.64794 27.5745 5.65605 27.5826 5.66381 27.5826C5.6866 27.5936 5.71251 27.5964 5.73712 27.5905C5.76174 27.5846 5.78355 27.5704 5.79886 27.5502L5.79851 27.5512ZM4.30515 26.1668C4.24855 25.8643 4.24318 25.5544 4.28929 25.25C4.25755 25.25 4.22617 25.2578 4.19443 25.2578H3.34814V32.0634H4.30515V26.1668ZM2.88233 15.0772C2.88327 14.6976 2.93642 14.32 3.0403 13.9548C2.88499 14.0169 2.75171 14.1239 2.6575 14.262C2.56328 14.4002 2.5124 14.5634 2.51137 14.7306V16.7053C2.63562 16.6892 2.76181 16.6972 2.88303 16.7289L2.88233 15.0772ZM2.88233 18.1835V17.2508C2.81425 17.2003 2.73239 17.1717 2.64766 17.1689C2.56293 17.166 2.47935 17.1891 2.40805 17.2349C2.30139 17.308 2.2248 17.4172 2.19241 17.5424C2.16002 17.6676 2.17403 17.8002 2.23185 17.9159C2.28967 18.0315 2.3874 18.1223 2.50697 18.1715C2.62653 18.2207 2.75987 18.225 2.88233 18.1835ZM2.87457 32.0556V25.25H2.77971C2.23476 25.2503 1.7122 25.4669 1.32686 25.8523C0.94152 26.2376 0.724914 26.7602 0.724633 27.3051V32.0475H2.87563L2.87457 32.0556Z" fill="#333333"/>
<path d="M35.9619 16.5399C35.9617 16.6026 35.9367 16.6628 35.8923 16.7072C35.8479 16.7516 35.7878 16.7766 35.725 16.7768C35.6937 16.7773 35.6627 16.7716 35.6337 16.7598C35.6047 16.7481 35.5784 16.7307 35.5562 16.7086C35.5341 16.6865 35.5167 16.6601 35.505 16.6312C35.4933 16.6022 35.4875 16.5711 35.488 16.5399C35.4878 16.4894 35.4775 16.4394 35.4579 16.393C35.4382 16.3465 35.4095 16.3044 35.3734 16.2691C35.3373 16.2338 35.2946 16.206 35.2476 16.1873C35.2007 16.1687 35.1506 16.1595 35.1001 16.1604C34.9987 16.1604 34.9013 16.2001 34.8288 16.271C34.7563 16.342 34.7144 16.4385 34.7122 16.5399C34.712 16.6026 34.687 16.6628 34.6426 16.7072C34.5982 16.7516 34.5381 16.7766 34.4753 16.7768C34.444 16.7773 34.413 16.7716 34.384 16.7598C34.355 16.7481 34.3287 16.7307 34.3066 16.7086C34.2844 16.6865 34.267 16.6601 34.2553 16.6312C34.2436 16.6022 34.2378 16.5711 34.2383 16.5399C34.2383 16.3113 34.3291 16.0922 34.4907 15.9306C34.6523 15.769 34.8714 15.6782 35.0999 15.6782C35.3285 15.6782 35.5476 15.769 35.7092 15.9306C35.8708 16.0922 35.9616 16.3113 35.9616 16.5399H35.9619Z" fill="#333333"/>
<path d="M34.6592 18.6975C34.7018 18.7427 34.7249 18.8029 34.7234 18.865C34.7219 18.9271 34.6961 18.9862 34.6514 19.0293C34.4937 19.1872 34.3064 19.3124 34.1003 19.3979C33.8942 19.4833 33.6732 19.5273 33.4501 19.5273C33.2269 19.5273 33.006 19.4833 32.7998 19.3979C32.5937 19.3124 32.4064 19.1872 32.2487 19.0293C32.2068 18.9842 32.1836 18.925 32.1836 18.8634C32.1836 18.8019 32.2068 18.7426 32.2487 18.6975C32.2919 18.6529 32.3509 18.627 32.413 18.6256C32.4751 18.6241 32.5353 18.6472 32.5805 18.6898C32.6937 18.8043 32.8284 18.8953 32.977 18.9574C33.1256 19.0194 33.285 19.0514 33.446 19.0514C33.607 19.0514 33.7664 19.0194 33.915 18.9574C34.0636 18.8953 34.1984 18.8043 34.3115 18.6898L34.3193 18.682C34.3671 18.6405 34.4291 18.619 34.4923 18.6218C34.5556 18.6247 34.6154 18.6518 34.6592 18.6975Z" fill="#333333"/>
<path d="M32.6501 16.5399C32.6501 16.6027 32.6251 16.6631 32.5807 16.7075C32.5362 16.752 32.4759 16.777 32.413 16.777C32.3501 16.777 32.2898 16.752 32.2453 16.7075C32.2008 16.6631 32.1758 16.6027 32.1758 16.5399C32.1756 16.4894 32.1654 16.4394 32.1457 16.393C32.126 16.3465 32.0973 16.3044 32.0612 16.2691C32.0251 16.2338 31.9824 16.206 31.9355 16.1873C31.8886 16.1687 31.8384 16.1595 31.7879 16.1604C31.6865 16.1604 31.5891 16.2001 31.5166 16.271C31.4441 16.342 31.4023 16.4385 31.4001 16.5399C31.4001 16.6027 31.3751 16.6631 31.3306 16.7075C31.2861 16.752 31.2258 16.777 31.1629 16.777C31.1 16.777 31.0397 16.752 30.9952 16.7075C30.9508 16.6631 30.9258 16.6027 30.9258 16.5399C30.9258 16.3113 31.0166 16.0922 31.1782 15.9306C31.3397 15.769 31.5589 15.6782 31.7874 15.6782C32.0159 15.6782 32.2351 15.769 32.3967 15.9306C32.5583 16.0922 32.6491 16.3113 32.6491 16.5399H32.6501Z" fill="#333333"/>
<path d="M29.0316 21.7484C29.0314 21.8112 29.0063 21.8714 28.9619 21.9158C28.9174 21.9602 28.8571 21.9852 28.7943 21.9853C28.763 21.9859 28.7319 21.9802 28.7029 21.9685C28.6739 21.9567 28.6476 21.9393 28.6254 21.9172C28.6033 21.8951 28.5859 21.8687 28.5742 21.8397C28.5625 21.8107 28.5567 21.7796 28.5573 21.7484C28.5546 21.6885 28.5295 21.6317 28.4871 21.5893C28.4447 21.5469 28.388 21.5219 28.3281 21.5192C28.2974 21.5184 28.2669 21.5237 28.2383 21.5348C28.2097 21.546 28.1836 21.5627 28.1615 21.584C28.1395 21.6054 28.1219 21.6309 28.1098 21.6591C28.0977 21.6873 28.0914 21.7177 28.0912 21.7484C28.091 21.8111 28.0659 21.8713 28.0215 21.9157C27.9771 21.9601 27.917 21.9851 27.8542 21.9853C27.8229 21.9859 27.7918 21.9802 27.7628 21.9685C27.7338 21.9567 27.7075 21.9393 27.6854 21.9172C27.6632 21.8951 27.6458 21.8687 27.6341 21.8397C27.6224 21.8107 27.6167 21.7796 27.6172 21.7484C27.623 21.5646 27.7001 21.3904 27.8321 21.2624C27.9641 21.1345 28.1408 21.063 28.3246 21.063C28.5084 21.063 28.685 21.1345 28.8171 21.2624C28.9491 21.3904 29.0261 21.5646 29.032 21.7484H29.0316Z" fill="#333333"/>
<path d="M28.0245 23.3452C28.0465 23.3671 28.0638 23.3932 28.0753 23.422C28.0869 23.4509 28.0924 23.4817 28.0917 23.5127C28.091 23.5438 28.084 23.5743 28.0711 23.6025C28.0582 23.6308 28.0397 23.6561 28.0167 23.677C27.7631 23.9274 27.4211 24.0678 27.0647 24.0678C26.7083 24.0678 26.3662 23.9274 26.1126 23.677C26.0717 23.6324 26.0495 23.5737 26.0508 23.5132C26.0521 23.4526 26.0768 23.3949 26.1196 23.3521C26.1624 23.3093 26.2201 23.2847 26.2806 23.2834C26.3411 23.2821 26.3998 23.3042 26.4444 23.3452C26.6081 23.5087 26.8301 23.6006 27.0615 23.6006C27.2929 23.6006 27.5149 23.5087 27.6786 23.3452L27.6863 23.3374C27.709 23.3157 27.7358 23.2986 27.7651 23.2872C27.7944 23.2758 27.8256 23.2703 27.857 23.2711C27.8885 23.2718 27.9194 23.2787 27.9482 23.2914C27.9769 23.3041 28.0028 23.3224 28.0245 23.3452Z" fill="#333333"/>
<path d="M26.516 21.7487C26.516 21.8116 26.491 21.8719 26.4465 21.9163C26.402 21.9608 26.3417 21.9858 26.2788 21.9858C26.2159 21.9858 26.1556 21.9608 26.1111 21.9163C26.0667 21.8719 26.0417 21.8116 26.0417 21.7487C26.0403 21.6883 26.0158 21.6308 25.9731 21.5881C25.9304 21.5454 25.8728 21.5208 25.8125 21.5195C25.7818 21.5187 25.7513 21.524 25.7227 21.5351C25.6941 21.5463 25.668 21.563 25.6459 21.5843C25.6238 21.6057 25.6063 21.6312 25.5942 21.6594C25.5821 21.6876 25.5757 21.718 25.5755 21.7487C25.5753 21.8114 25.5503 21.8716 25.5059 21.916C25.4615 21.9604 25.4014 21.9854 25.3386 21.9856C25.3073 21.9862 25.2762 21.9805 25.2472 21.9688C25.2182 21.9571 25.1918 21.9396 25.1697 21.9175C25.1476 21.8954 25.1302 21.869 25.1185 21.84C25.1068 21.811 25.101 21.7799 25.1016 21.7487C25.1058 21.5655 25.1805 21.391 25.31 21.2614C25.4396 21.1318 25.6141 21.0572 25.7973 21.0529C25.8904 21.0507 25.983 21.067 26.0697 21.1009C26.1564 21.1347 26.2355 21.1855 26.3024 21.2503C26.3692 21.315 26.4226 21.3924 26.4592 21.478C26.4959 21.5636 26.5152 21.6556 26.516 21.7487Z" fill="#333333"/>
<path d="M20.523 14.5958C20.6486 14.5965 20.7729 14.6221 20.8887 14.6711C21.0045 14.72 21.1094 14.7913 21.1976 14.8809C21.2857 14.9706 21.3553 15.0767 21.4023 15.1932C21.4493 15.3098 21.4728 15.4345 21.4715 15.5602C21.4715 15.6231 21.4465 15.6834 21.4021 15.7279C21.3576 15.7723 21.2973 15.7973 21.2344 15.7973C21.1715 15.7973 21.1112 15.7723 21.0667 15.7279C21.0222 15.6834 20.9972 15.6231 20.9972 15.5602V15.5443C20.9973 15.4807 20.9845 15.4177 20.9597 15.3591C20.9349 15.3005 20.8985 15.2475 20.8528 15.2032C20.807 15.159 20.7529 15.1244 20.6935 15.1015C20.6341 15.0786 20.5707 15.0679 20.5071 15.07C20.4433 15.0705 20.3801 15.0836 20.3213 15.1085C20.2626 15.1335 20.2093 15.1697 20.1645 15.2152C20.1197 15.2607 20.0844 15.3146 20.0605 15.3738C20.0365 15.433 20.0245 15.4963 20.0251 15.5602C20.0251 15.6231 20.0001 15.6834 19.9556 15.7279C19.9111 15.7723 19.8508 15.7973 19.7879 15.7973C19.725 15.7973 19.6647 15.7723 19.6202 15.7279C19.5758 15.6834 19.5508 15.6231 19.5508 15.5602V15.5443C19.5542 15.2897 19.6585 15.0469 19.8408 14.869C20.023 14.6912 20.2683 14.5929 20.523 14.5958Z" fill="#333333"/>
<path d="M19.4555 19.1088C19.4781 19.1675 19.4766 19.2327 19.4515 19.2904C19.4263 19.3481 19.3795 19.3935 19.3211 19.417C18.8633 19.6052 18.3503 19.608 17.8905 19.4247C17.8611 19.4138 17.8341 19.3971 17.8113 19.3755C17.7885 19.354 17.7702 19.328 17.7577 19.2992C17.7452 19.2705 17.7386 19.2394 17.7383 19.208C17.738 19.1767 17.7441 19.1455 17.7562 19.1165C17.7694 19.0835 17.7896 19.0537 17.8156 19.0293C17.8416 19.0049 17.8726 18.9865 17.9064 18.9755C17.9582 18.9585 18.0145 18.9612 18.0644 18.9832C18.4131 19.1191 18.8006 19.1163 19.1473 18.9755H19.155C19.2057 18.9572 19.2608 18.9545 19.313 18.9677C19.3452 18.9802 19.3744 18.9992 19.3989 19.0234C19.4234 19.0477 19.4427 19.0768 19.4555 19.1088Z" fill="#333333"/>
<path d="M16.6749 14.5958C16.8006 14.5965 16.9249 14.6221 17.0407 14.6711C17.1565 14.72 17.2614 14.7913 17.3495 14.8809C17.4377 14.9705 17.5072 15.0767 17.5543 15.1932C17.6013 15.3098 17.6248 15.4345 17.6235 15.5602C17.6241 15.5915 17.6183 15.6225 17.6066 15.6515C17.5949 15.6805 17.5775 15.7069 17.5554 15.729C17.5333 15.7511 17.5069 15.7686 17.4779 15.7803C17.4489 15.792 17.4178 15.7977 17.3865 15.7971C17.3237 15.797 17.2636 15.7719 17.2192 15.7275C17.1748 15.6831 17.1498 15.623 17.1496 15.5602V15.5443C17.1496 15.4807 17.1368 15.4177 17.112 15.3591C17.0872 15.3005 17.0508 15.2475 17.0051 15.2032C16.9594 15.159 16.9052 15.1244 16.8458 15.1015C16.7864 15.0786 16.723 15.0679 16.6594 15.07C16.5956 15.0705 16.5325 15.0836 16.4737 15.1085C16.4149 15.1334 16.3616 15.1697 16.3168 15.2152C16.2721 15.2607 16.2367 15.3146 16.2128 15.3738C16.1889 15.433 16.1768 15.4963 16.1774 15.5602C16.1774 15.6231 16.1524 15.6834 16.1079 15.7279C16.0635 15.7723 16.0032 15.7973 15.9403 15.7973C15.8774 15.7973 15.817 15.7723 15.7726 15.7279C15.7281 15.6834 15.7031 15.6231 15.7031 15.5602V15.5443C15.7066 15.2898 15.8108 15.047 15.993 14.8692C16.1751 14.6913 16.4204 14.593 16.6749 14.5958Z" fill="#333333"/>
<path d="M9.76728 17.0935V17.1013C9.76728 17.1641 9.7423 17.2245 9.69782 17.2689C9.65335 17.3134 9.59303 17.3384 9.53014 17.3384C9.46725 17.3384 9.40693 17.3134 9.36246 17.2689C9.31799 17.2245 9.29301 17.1641 9.29301 17.1013V17.0935C9.29198 16.9772 9.24477 16.866 9.16178 16.7844C9.07879 16.7029 8.9668 16.6577 8.85046 16.6587C8.73412 16.6597 8.62296 16.7069 8.54142 16.7899C8.45988 16.8729 8.41465 16.9849 8.41568 17.1013V17.109C8.41568 17.1719 8.3907 17.2322 8.34623 17.2767C8.30175 17.3212 8.24144 17.3461 8.17854 17.3461C8.11565 17.3461 8.05533 17.3212 8.01086 17.2767C7.96639 17.2322 7.94141 17.1719 7.94141 17.109V17.0931C7.94502 16.8504 8.04413 16.6189 8.21726 16.4487C8.39038 16.2786 8.62358 16.1835 8.86633 16.1841C9.10623 16.1858 9.33569 16.2824 9.50454 16.4528C9.67338 16.6232 9.76785 16.8536 9.76728 17.0935Z" fill="#333333"/>
<path d="M9.0231 19.8675C9.13153 19.9768 9.21729 20.1065 9.27544 20.249C9.33359 20.3916 9.36299 20.5443 9.36194 20.6982C9.36089 20.8522 9.32942 21.0044 9.26934 21.1462C9.20925 21.2879 9.12174 21.4164 9.01183 21.5242C8.90192 21.632 8.77178 21.7171 8.62889 21.7744C8.48601 21.8318 8.33319 21.8603 8.17924 21.8584C8.02529 21.8565 7.87323 21.8242 7.73181 21.7633C7.59039 21.7024 7.4624 21.6142 7.3552 21.5037C7.30625 21.4548 7.24205 21.424 7.17325 21.4166H6.92817C6.85341 21.4183 6.78238 21.4496 6.73071 21.5037C6.59522 21.6405 6.42803 21.7418 6.24398 21.7985C6.05994 21.8552 5.86475 21.8655 5.67574 21.8286C5.48673 21.7917 5.30976 21.7087 5.16055 21.587C5.01134 21.4653 4.89451 21.3085 4.82043 21.1308C4.74636 20.953 4.71733 20.7597 4.73594 20.568C4.75454 20.3764 4.8202 20.1923 4.92708 20.0321C5.03396 19.8719 5.17875 19.7405 5.34859 19.6498C5.51843 19.559 5.70806 19.5116 5.90063 19.5117H8.19268C8.50542 19.5169 8.80364 19.6446 9.0231 19.8675ZM8.88875 20.6895C8.88895 20.5063 8.81682 20.3305 8.68806 20.2002C8.55929 20.0699 8.38431 19.9957 8.20114 19.9938H5.9091C5.81774 19.9931 5.72719 20.0109 5.64294 20.0463C5.55868 20.0816 5.48248 20.1337 5.41895 20.1993C5.35459 20.2637 5.30353 20.3401 5.26869 20.4242C5.23386 20.5083 5.21593 20.5984 5.21593 20.6895C5.21593 20.7805 5.23386 20.8706 5.26869 20.9547C5.30353 21.0388 5.35459 21.1153 5.41895 21.1796C5.48332 21.244 5.55973 21.295 5.64383 21.3299C5.72793 21.3647 5.81807 21.3826 5.9091 21.3826C6.00013 21.3826 6.09026 21.3647 6.17436 21.3299C6.25846 21.295 6.33488 21.244 6.39924 21.1796C6.53836 21.0364 6.72851 20.954 6.92817 20.9504H7.17325C7.27116 20.9514 7.36785 20.9722 7.45749 21.0116C7.54713 21.051 7.62785 21.1081 7.69478 21.1796C7.75831 21.2453 7.83451 21.2974 7.91876 21.3327C8.00301 21.368 8.09356 21.3859 8.18492 21.3852C8.37008 21.3848 8.54767 21.3117 8.67936 21.1815C8.81104 21.0514 8.88625 20.8746 8.88875 20.6895Z" fill="#333333"/>
<path d="M7.46551 20.2232C7.49678 20.2226 7.52786 20.2283 7.55686 20.24C7.58587 20.2518 7.61223 20.2692 7.63435 20.2913C7.65646 20.3134 7.6739 20.3398 7.6856 20.3688C7.69731 20.3978 7.70305 20.4289 7.70247 20.4601C7.70229 20.5229 7.67726 20.5831 7.63286 20.6275C7.58846 20.6719 7.5283 20.6969 7.46551 20.6971H6.63544C6.57265 20.6969 6.51248 20.6719 6.46809 20.6275C6.42369 20.5831 6.39866 20.5229 6.39848 20.4601C6.3979 20.4289 6.40364 20.3978 6.41534 20.3688C6.42705 20.3398 6.44448 20.3134 6.4666 20.2913C6.48872 20.2692 6.51507 20.2518 6.54408 20.24C6.57309 20.2283 6.60416 20.2226 6.63544 20.2232H7.46551Z" fill="#333333"/>
<path d="M7.0477 28.333C7.08775 28.3332 7.12735 28.3414 7.16421 28.3571C7.20106 28.3727 7.23444 28.3956 7.26239 28.4243C7.29035 28.4529 7.31232 28.4869 7.32704 28.5241C7.34176 28.5614 7.34893 28.6012 7.34814 28.6412C7.34843 28.7217 7.31712 28.7991 7.26093 28.8567C7.20475 28.9144 7.12818 28.9476 7.0477 28.9494C6.96852 28.9456 6.89383 28.9115 6.83912 28.8541C6.78442 28.7967 6.75391 28.7205 6.75391 28.6412C6.75391 28.5619 6.78442 28.4857 6.83912 28.4283C6.89383 28.3709 6.96852 28.3368 7.0477 28.333Z" fill="#333333"/>
<path d="M7.0465 30.3169C7.08597 30.3168 7.12505 30.3246 7.16153 30.3397C7.198 30.3548 7.23113 30.3769 7.25904 30.4048C7.28695 30.4327 7.30908 30.4658 7.32416 30.5023C7.33924 30.5388 7.34698 30.5779 7.34693 30.6173C7.34723 30.6978 7.31591 30.7752 7.25973 30.8329C7.20354 30.8905 7.12697 30.9238 7.0465 30.9255C6.96579 30.9255 6.88839 30.8935 6.83132 30.8364C6.77425 30.7793 6.74219 30.7019 6.74219 30.6212C6.74219 30.5405 6.77425 30.4631 6.83132 30.406C6.88839 30.349 6.96579 30.3169 7.0465 30.3169Z" fill="#333333"/>
<path d="M6.1543 17.0929V17.1007C6.1543 17.1636 6.12931 17.2239 6.08484 17.2684C6.04037 17.3128 5.98005 17.3378 5.91716 17.3378C5.85427 17.3378 5.79395 17.3128 5.74948 17.2684C5.70501 17.2239 5.68002 17.1636 5.68002 17.1007V17.0929C5.67899 16.9755 5.63136 16.8633 5.54761 16.781C5.46386 16.6987 5.35084 16.6531 5.23343 16.6541C5.11601 16.6551 5.00381 16.7027 4.92151 16.7865C4.83922 16.8703 4.79356 16.9833 4.79459 17.1007C4.79459 17.1636 4.7696 17.2239 4.72513 17.2684C4.68066 17.3128 4.62034 17.3378 4.55745 17.3378C4.49456 17.3378 4.43424 17.3128 4.38977 17.2684C4.3453 17.2239 4.32031 17.1636 4.32031 17.1007V17.0848C4.32134 16.8417 4.41892 16.6089 4.59158 16.4377C4.67708 16.3529 4.77843 16.2858 4.88986 16.2402C5.00129 16.1946 5.12061 16.1714 5.24101 16.1719C5.36141 16.1724 5.48052 16.1966 5.59156 16.2432C5.7026 16.2897 5.80338 16.3577 5.88816 16.4432C5.97293 16.5286 6.04004 16.63 6.08564 16.7414C6.13124 16.8529 6.15445 16.9722 6.15395 17.0926L6.1543 17.0929Z" fill="#333333"/>
</g>
<defs>
<clipPath id="clip0">
<rect width="40" height="40" fill="white" transform="translate(0.25 0.000976562)"/>
</clipPath>
</defs>
</svg>
