<svg width="40" height="40" viewBox="0 0 40 40" fill="none" xmlns="http://www.w3.org/2000/svg">
<path d="M4.6875 11.251L11.875 24.376L18.125 12.501C18.4375 11.5635 19.0625 9.43848 19.0625 8.43848C19.0625 7.18848 17.1875 1.87598 11.5625 1.87598C5.9375 1.87598 4.375 6.87598 4.375 8.43848C4.375 9.68848 4.58333 10.8343 4.6875 11.251Z" fill="#ECF7FB"/>
<circle cx="11.875" cy="9.37598" r="3.125" fill="white"/>
<path d="M13.276 16.9012H12.1043V15.729H13.276V16.9012ZM11.3241 16.9012H10.1523V15.729H11.3241V16.9012Z" fill="#333333"/>
<path d="M11.7136 25.1879C13.8634 22.0151 19.6655 13.0108 19.6655 9.20286C19.6655 7.09389 18.8277 5.0713 17.3364 3.58003C15.8452 2.08876 13.8226 1.25098 11.7136 1.25098C9.60463 1.25098 7.58204 2.08876 6.09077 3.58003C4.5995 5.0713 3.76172 7.09389 3.76172 9.20286C3.76225 13.0108 9.56433 22.0151 11.7136 25.1879ZM4.93395 9.20286C4.91807 8.30255 5.08167 7.40809 5.41523 6.5717C5.74878 5.7353 6.24559 4.97373 6.87666 4.33142C7.50774 3.68911 8.26043 3.17894 9.09081 2.83069C9.92119 2.48243 10.8126 2.30307 11.7131 2.30307C12.6135 2.30307 13.505 2.48243 14.3353 2.83069C15.1657 3.17894 15.9184 3.68911 16.5495 4.33142C17.1806 4.97373 17.6774 5.7353 18.0109 6.5717C18.3445 7.40809 18.5081 8.30255 18.4922 9.20286C18.4922 12.3951 13.4672 20.4003 11.712 23.0824C9.96792 20.4135 4.93395 12.3983 4.93395 9.20286Z" fill="#333333"/>
<path d="M15.4903 9.20273C15.4904 8.45542 15.2689 7.72485 14.8538 7.10343C14.4387 6.48201 13.8487 5.99765 13.1583 5.71159C12.4679 5.42554 11.7081 5.35064 10.9752 5.49637C10.2422 5.6421 9.56891 6.00191 9.04044 6.5303C8.51197 7.0587 8.15207 7.73194 8.00623 8.46488C7.8604 9.19783 7.9352 9.95756 8.22116 10.648C8.50712 11.3384 8.9914 11.9286 9.61277 12.3438C10.2341 12.759 10.9647 12.9806 11.712 12.9806C12.7136 12.9795 13.6739 12.5811 14.3823 11.8729C15.0906 11.1646 15.4891 10.2044 15.4903 9.20273ZM9.10688 9.20273C9.10688 8.68728 9.25973 8.18341 9.5461 7.75484C9.83247 7.32626 10.2395 6.99222 10.7157 6.79497C11.1919 6.59772 11.7159 6.54611 12.2215 6.64667C12.727 6.74723 13.1914 6.99544 13.5558 7.35991C13.9203 7.72439 14.1685 8.18876 14.2691 8.6943C14.3696 9.19984 14.318 9.72385 14.1208 10.2001C13.9235 10.6763 13.5895 11.0833 13.1609 11.3697C12.7323 11.656 12.2285 11.8089 11.713 11.8089C11.0219 11.8083 10.3592 11.5336 9.87045 11.045C9.38166 10.5564 9.10667 9.89385 9.10583 9.20273H9.10688Z" fill="#333333"/>
<path d="M37.3812 12.6548L31.4726 18.5634H29.1798L24.2439 13.559H19.4959V14.7286H23.7533L28.6892 19.733H31.96L37.3812 14.3118L38.8283 15.7584V17.5094L37.4319 18.9058V28.3655L35.6007 30.1966V32.8582L36.9497 34.2071V35.2987L36.1024 36.1475L33.1191 33.1641H23.7549L22.809 35.4485L23.7844 36.4239L22.6723 37.536H21.2901L16.9183 33.1641H9.41639L1.17171 24.9195V14.7286H3.9282V13.5569H0V25.4038L8.93051 34.3343H16.4324L20.8043 38.7062H23.1598L25.4436 36.4223L24.1928 35.1715L24.5399 34.3343H32.6337L36.1024 37.803L38.1219 35.7835V33.7207L36.7708 32.3728V30.6846L38.602 28.8535V19.3912L39.9984 17.9953V15.2736L37.3812 12.6548Z" fill="#333333"/>
</svg>
