<svg width="41" height="40" viewBox="0 0 41 40" fill="none" xmlns="http://www.w3.org/2000/svg">
<path d="M8.25167 15.1625H7.31417C7.31417 14.7324 7.25167 13.7431 7.00167 13.227C6.68917 12.5818 7.93917 6.77539 13.2517 6.77539C17.5017 6.77539 18.5642 9.78614 18.5642 11.2915V15.1625L17.6267 14.8399L16.3767 13.5496C15.1267 12.2593 15.2308 10.0012 15.4392 9.03346C13.4392 12.3883 9.81417 14.0872 8.25167 14.5173V15.1625Z" fill="#ECF7FB"/>
<path d="M10.7511 21.2915C8.75109 20.5173 8.25109 17.9582 8.25109 16.7754C7.75109 16.7754 7.41776 18.0657 7.31359 18.7109C7.31359 18.8184 7.37609 19.2915 7.62609 20.3238C7.87609 21.356 8.98026 21.8292 9.50109 21.9367H10.7511V21.2915Z" fill="#ECF7FB"/>
<path d="M9.18859 23.5496L7.93859 23.227L6.68848 24.1947C6.37601 24.6249 5.68859 25.6786 5.43859 26.4528C5.12609 27.4206 5.75109 28.7109 6.37609 29.0335C7.87609 29.8076 9.29276 31.0765 9.81359 31.6141L10.1261 32.9044L11.3761 30.6464L12.0011 28.3883C11.6886 27.098 9.81359 25.8076 9.50109 25.1625L9.18859 23.5496Z" fill="#ECF7FB"/>
<path d="M16.6885 24.1947L15.751 24.8399L17.001 33.227H17.9385L16.6885 24.1947Z" fill="#ECF7FB"/>
<path d="M23.876 24.8399L22.9385 24.1947L22.626 25.4851L21.6885 33.227H22.626L23.876 24.8399Z" fill="#ECF7FB"/>
<path d="M28.5635 28.3883L25.751 28.0657L25.4385 29.6786C26.1676 29.8937 27.9385 30.3238 29.1885 30.3238C30.4385 30.3238 31.5843 29.8937 32.001 29.6786V28.0657L28.5635 28.3883Z" fill="#ECF7FB"/>
<path d="M28.876 32.2593C27.376 32.2593 25.9593 31.8292 25.4385 31.6141V33.227H32.001V31.6141C31.5843 31.8292 30.376 32.2593 28.876 32.2593Z" fill="#ECF7FB"/>
<path d="M26.6885 23.5496C26.6885 24.5818 25.8551 24.8399 25.4385 24.8399H24.1885C23.9385 24.8399 23.6676 24.6249 23.5635 24.5173L23.251 23.8722L22.626 23.5496L22.3135 23.227C22.4176 23.1195 22.6885 22.7754 22.9385 22.2593C23.1885 21.7431 22.4176 21.6141 22.001 21.6141C22.001 21.2915 22.0635 20.5173 22.3135 20.0012C22.5635 19.4851 23.0426 17.6356 23.251 16.7754V12.2593C23.251 10.6464 24.8135 7.42055 28.876 7.09797C32.126 6.83991 33.7718 10.2163 34.1885 11.9367V15.1625H33.876C33.6676 15.3775 33.251 15.6786 33.251 15.1625C33.251 14.5173 33.251 14.5173 32.3135 14.1947C30.126 13.227 30.4385 11.6141 29.8135 10.9689C29.1885 10.3238 27.001 11.2915 26.376 11.6141C25.751 11.9367 25.4385 14.8399 25.126 15.4851C24.876 16.0012 24.3968 16.5603 24.1885 16.7754L24.8135 19.356C25.0635 20.3883 26.1676 21.2915 26.6885 21.6141V23.5496Z" fill="#ECF7FB"/>
<path d="M33.251 17.4206C33.2702 19.5687 31.8006 21.1113 31.0635 21.6141C30.9593 21.7216 30.751 22.1947 30.751 23.227C30.751 24.2593 31.7926 24.7324 32.3135 24.8399H34.1885C34.3968 24.6249 34.8135 23.8076 34.8135 22.2593C34.8135 20.7109 34.1885 18.8184 33.876 18.0657L33.251 17.098C33.243 16.3104 33.2318 15.2724 33.251 17.4206Z" fill="#ECF7FB"/>
<path d="M20.4407 23.5662C20.5638 23.5663 20.6842 23.5289 20.7867 23.4586C20.8051 23.4459 20.8229 23.4323 20.8399 23.4178C20.9736 23.465 21.1191 23.4613 21.2503 23.4075C21.3816 23.3536 21.4898 23.253 21.5554 23.1239C21.6211 22.9949 21.6398 22.8458 21.6083 22.7037C21.5767 22.5616 21.497 22.4358 21.3834 22.3492L21.3757 22.3438C21.3545 22.1667 21.2697 22.0042 21.138 21.8885C21.0063 21.7729 20.8374 21.7125 20.6646 21.7193C20.4918 21.7261 20.3278 21.7996 20.2051 21.9253C20.0823 22.051 20.0098 22.2197 20.0018 22.398C20.0018 22.4171 20.0018 22.4362 20.0018 22.4556C19.9124 22.5458 19.8511 22.6613 19.8257 22.7876C19.8002 22.9138 19.8118 23.0451 19.859 23.1645C19.9061 23.2839 19.9866 23.3861 20.0903 23.4581C20.194 23.5301 20.3161 23.5685 20.441 23.5685L20.4407 23.5662ZM20.1818 22.864C20.1887 22.8288 20.2022 22.7954 20.2216 22.7656C20.241 22.7359 20.266 22.7104 20.295 22.6907C20.3251 22.6701 20.3486 22.6406 20.3625 22.606C20.3763 22.5715 20.3798 22.5335 20.3726 22.4968C20.363 22.448 20.364 22.3975 20.3756 22.349C20.3871 22.3006 20.409 22.2554 20.4396 22.2168C20.4702 22.1781 20.5087 22.147 20.5523 22.1256C20.596 22.1042 20.6437 22.0931 20.6921 22.0931H20.7076C20.7504 22.0952 20.7923 22.106 20.8311 22.1248C20.8698 22.1436 20.9046 22.1702 20.9334 22.2029C20.9622 22.2356 20.9844 22.2738 20.9989 22.3154C21.0134 22.357 21.0198 22.4012 21.0178 22.4453C21.016 22.4837 21.0257 22.5218 21.0455 22.5544C21.0653 22.5869 21.0944 22.6124 21.1287 22.6274C21.1574 22.6408 21.1831 22.6602 21.2041 22.6844C21.2251 22.7086 21.2411 22.737 21.2509 22.7679C21.2607 22.7988 21.2642 22.8315 21.2611 22.8638C21.258 22.8962 21.2484 22.9275 21.233 22.9558C21.2175 22.9841 21.1965 23.0088 21.1714 23.0284C21.1462 23.0479 21.1173 23.0617 21.0866 23.0691C21.056 23.0765 21.0241 23.0772 20.9932 23.0712C20.9622 23.0652 20.9328 23.0526 20.9069 23.0342C20.8677 23.0052 20.819 22.9935 20.7714 23.0016C20.7239 23.0097 20.6814 23.0369 20.6532 23.0773C20.6179 23.1279 20.5669 23.1645 20.5086 23.1809C20.4504 23.1974 20.3884 23.1928 20.3331 23.1679C20.2777 23.1429 20.2323 23.0992 20.2044 23.0439C20.1765 22.9886 20.1677 22.9251 20.1796 22.864H20.1818Z" fill="#333333"/>
<path d="M18.0998 26.9743C18.1236 26.9723 18.1468 26.9655 18.1681 26.9543C18.1894 26.943 18.2083 26.9276 18.2238 26.9088C18.2393 26.89 18.251 26.8683 18.2584 26.8448C18.2657 26.8213 18.2685 26.7966 18.2666 26.772L18.1797 25.6576C18.1778 25.633 18.1712 25.6091 18.1603 25.5871C18.1494 25.5651 18.1344 25.5456 18.1162 25.5296C18.098 25.5137 18.077 25.5015 18.0542 25.4939C18.0315 25.4864 18.0075 25.4835 17.9837 25.4855C17.9599 25.4874 17.9367 25.4943 17.9154 25.5055C17.8942 25.5167 17.8753 25.5322 17.8598 25.551C17.8443 25.5697 17.8325 25.5915 17.8252 25.615C17.8179 25.6384 17.8151 25.6632 17.817 25.6877L17.9039 26.8022C17.9075 26.8492 17.9281 26.8931 17.9617 26.9251C17.9953 26.9572 18.0393 26.975 18.085 26.975C18.09 26.9752 18.0949 26.975 18.0998 26.9743Z" fill="#333333"/>
<path d="M18.14 27.4795C18.1162 27.4815 18.093 27.4883 18.0717 27.4995C18.0504 27.5107 18.0315 27.5262 18.016 27.545C18.0005 27.5638 17.9888 27.5855 17.9814 27.609C17.9741 27.6325 17.9713 27.6572 17.9732 27.6818L17.9999 28.0252C18.0035 28.0723 18.0241 28.1162 18.0577 28.1482C18.0913 28.1803 18.1353 28.1981 18.181 28.1981H18.1958C18.2196 28.1962 18.2428 28.1894 18.2641 28.1781C18.2854 28.1669 18.3043 28.1514 18.3198 28.1327C18.3353 28.1139 18.347 28.0921 18.3544 28.0687C18.3617 28.0452 18.3645 28.0204 18.3626 27.9959L18.3359 27.6524C18.3341 27.6278 18.3275 27.6038 18.3166 27.5818C18.3058 27.5598 18.2908 27.5403 18.2726 27.5243C18.2544 27.5083 18.2333 27.4962 18.2106 27.4886C18.1878 27.4811 18.1638 27.4782 18.14 27.4803V27.4795Z" fill="#333333"/>
<path d="M19.784 27.8208C19.5926 27.8208 19.4055 27.8794 19.2464 27.9891C19.0873 28.0989 18.9633 28.2549 18.8901 28.4374C18.8168 28.6199 18.7977 28.8207 18.835 29.0144C18.8723 29.2081 18.9645 29.3861 19.0998 29.5258C19.2351 29.6655 19.4075 29.7606 19.5952 29.7991C19.7829 29.8377 19.9774 29.8179 20.1542 29.7423C20.331 29.6667 20.4821 29.5387 20.5885 29.3744C20.6948 29.2102 20.7515 29.0171 20.7515 28.8196C20.7515 28.5547 20.6496 28.3006 20.4681 28.1133C20.2867 27.926 20.0406 27.8208 19.784 27.8208ZM19.784 29.4428C19.6646 29.4426 19.5479 29.406 19.4487 29.3374C19.3495 29.2688 19.2723 29.1714 19.2267 29.0575C19.1811 28.9436 19.1693 28.8184 19.1926 28.6975C19.216 28.5767 19.2736 28.4657 19.358 28.3786C19.4425 28.2915 19.5501 28.2322 19.6672 28.2083C19.7843 28.1843 19.9056 28.1967 20.0159 28.2438C20.1262 28.291 20.2204 28.3709 20.2868 28.4734C20.3531 28.5759 20.3885 28.6963 20.3885 28.8196C20.3885 28.9015 20.3728 28.9826 20.3424 29.0582C20.312 29.1339 20.2675 29.2026 20.2114 29.2605C20.1552 29.3184 20.0886 29.3643 20.0152 29.3956C19.9419 29.4268 19.8633 29.4429 19.784 29.4428Z" fill="#333333"/>
<path d="M29.9609 15.4274C29.9609 15.4772 29.9801 15.525 30.0142 15.5602C30.0483 15.5954 30.0946 15.6152 30.1428 15.6152C30.1911 15.6152 30.2374 15.5954 30.2715 15.5602C30.3056 15.525 30.3247 15.4772 30.3247 15.4274C30.3247 15.2651 30.3872 15.1095 30.4984 14.9947C30.6096 14.88 30.7603 14.8155 30.9176 14.8155C31.0748 14.8155 31.2256 14.88 31.3368 14.9947C31.448 15.1095 31.5104 15.2651 31.5104 15.4274C31.5104 15.4521 31.5151 15.4765 31.5243 15.4993C31.5334 15.5221 31.5468 15.5428 31.5637 15.5602C31.5806 15.5777 31.6006 15.5915 31.6227 15.6009C31.6448 15.6104 31.6684 15.6152 31.6923 15.6152C31.7162 15.6152 31.7399 15.6104 31.7619 15.6009C31.784 15.5915 31.8041 15.5777 31.821 15.5602C31.8379 15.5428 31.8512 15.5221 31.8604 15.4993C31.8695 15.4765 31.8742 15.4521 31.8742 15.4274C31.8742 15.1655 31.7734 14.9144 31.594 14.7292C31.4146 14.544 31.1713 14.4399 30.9176 14.4399C30.6639 14.4399 30.4205 14.544 30.2411 14.7292C30.0617 14.9144 29.9609 15.1655 29.9609 15.4274Z" fill="#333333"/>
<path d="M27.5595 15.6152C27.6078 15.6152 27.654 15.5954 27.6881 15.5602C27.7222 15.525 27.7414 15.4772 27.7414 15.4274C27.7414 15.1655 27.6406 14.9144 27.4612 14.7292C27.2818 14.544 27.0385 14.4399 26.7848 14.4399C26.5311 14.4399 26.2877 14.544 26.1083 14.7292C25.9289 14.9144 25.8281 15.1655 25.8281 15.4274C25.8281 15.4772 25.8473 15.525 25.8814 15.5602C25.9155 15.5954 25.9618 15.6152 26.01 15.6152C26.0583 15.6152 26.1045 15.5954 26.1386 15.5602C26.1728 15.525 26.1919 15.4772 26.1919 15.4274C26.1919 15.2651 26.2544 15.1095 26.3656 14.9947C26.4767 14.88 26.6275 14.8155 26.7848 14.8155C26.942 14.8155 27.0928 14.88 27.204 14.9947C27.3152 15.1095 27.3776 15.2651 27.3776 15.4274C27.3776 15.4521 27.3823 15.4765 27.3915 15.4993C27.4006 15.5221 27.414 15.5428 27.4309 15.5602C27.4478 15.5777 27.4678 15.5915 27.4899 15.6009C27.512 15.6104 27.5356 15.6152 27.5595 15.6152Z" fill="#333333"/>
<path d="M30.0133 18.2907C29.7046 18.6085 29.2864 18.787 28.8504 18.787C28.4143 18.787 27.9961 18.6085 27.6874 18.2907C27.6531 18.2553 27.6065 18.2354 27.558 18.2354C27.5095 18.2354 27.4629 18.2553 27.4286 18.2907C27.3943 18.3261 27.375 18.3742 27.375 18.4243C27.375 18.4744 27.3943 18.5224 27.4286 18.5578C27.8056 18.9461 28.3164 19.1641 28.8489 19.1641C29.3814 19.1641 29.8922 18.9461 30.2691 18.5578C30.2861 18.5403 30.2996 18.5195 30.3088 18.4965C30.318 18.4736 30.3227 18.4491 30.3227 18.4243C30.3227 18.3995 30.318 18.3749 30.3088 18.352C30.2996 18.329 30.2861 18.3082 30.2691 18.2907C30.2521 18.2731 30.232 18.2592 30.2098 18.2497C30.1876 18.2402 30.1638 18.2354 30.1398 18.2354C30.1157 18.2354 30.0919 18.2402 30.0697 18.2497C30.0475 18.2592 30.0273 18.2731 30.0103 18.2907H30.0133Z" fill="#333333"/>
<path d="M14.972 14.2539C14.7164 14.2542 14.4713 14.3592 14.2906 14.5458C14.1098 14.7324 14.0081 14.9854 14.0078 15.2492C14.0078 15.299 14.027 15.3468 14.0611 15.382C14.0952 15.4172 14.1415 15.437 14.1897 15.437C14.238 15.437 14.2842 15.4172 14.3183 15.382C14.3525 15.3468 14.3716 15.299 14.3716 15.2492C14.3716 15.1678 14.3871 15.0873 14.4173 15.0121C14.4475 14.9369 14.4917 14.8685 14.5475 14.811C14.6032 14.7534 14.6694 14.7078 14.7423 14.6766C14.8151 14.6455 14.8932 14.6294 14.972 14.6294C15.0509 14.6294 15.129 14.6455 15.2018 14.6766C15.2747 14.7078 15.3408 14.7534 15.3966 14.811C15.4524 14.8685 15.4966 14.9369 15.5268 15.0121C15.5569 15.0873 15.5725 15.1678 15.5725 15.2492C15.5725 15.299 15.5916 15.3468 15.6257 15.382C15.6599 15.4172 15.7061 15.437 15.7544 15.437C15.8026 15.437 15.8489 15.4172 15.883 15.382C15.9171 15.3468 15.9363 15.299 15.9363 15.2492C15.936 14.9854 15.8343 14.7324 15.6535 14.5458C15.4728 14.3592 15.2277 14.2542 14.972 14.2539Z" fill="#333333"/>
<path d="M11.5825 15.437C11.6307 15.437 11.677 15.4172 11.7111 15.382C11.7452 15.3468 11.7644 15.299 11.7644 15.2492C11.7644 14.9853 11.6628 14.7321 11.482 14.5454C11.3011 14.3588 11.0559 14.2539 10.8002 14.2539C10.5444 14.2539 10.2992 14.3588 10.1184 14.5454C9.93753 14.7321 9.83594 14.9853 9.83594 15.2492C9.83594 15.299 9.8551 15.3468 9.88922 15.382C9.92333 15.4172 9.9696 15.437 10.0178 15.437C10.0661 15.437 10.1123 15.4172 10.1465 15.382C10.1806 15.3468 10.1997 15.299 10.1997 15.2492C10.1997 15.0849 10.263 14.9272 10.3756 14.811C10.4882 14.6947 10.6409 14.6294 10.8002 14.6294C10.9594 14.6294 11.1121 14.6947 11.2247 14.811C11.3373 14.9272 11.4006 15.0849 11.4006 15.2492C11.4006 15.299 11.4198 15.3468 11.4539 15.382C11.488 15.4172 11.5342 15.437 11.5825 15.437Z" fill="#333333"/>
<path d="M14.0623 18.1418C13.7503 18.4634 13.3274 18.644 12.8865 18.644C12.4457 18.644 12.0228 18.4634 11.7108 18.1418C11.6765 18.1063 11.63 18.0864 11.5814 18.0864C11.5329 18.0864 11.4864 18.1063 11.452 18.1418C11.4177 18.1772 11.3984 18.2252 11.3984 18.2753C11.3984 18.3254 11.4177 18.3735 11.452 18.4089C11.8324 18.8006 12.3478 19.0206 12.8851 19.0206C13.4224 19.0206 13.9377 18.8006 14.3181 18.4089C14.3524 18.3735 14.3717 18.3254 14.3717 18.2753C14.3717 18.2252 14.3524 18.1772 14.3181 18.1418C14.2838 18.1063 14.2372 18.0864 14.1887 18.0864C14.1402 18.0864 14.0936 18.1063 14.0593 18.1418H14.0623Z" fill="#333333"/>
<path d="M8.61714 28.594C8.63887 28.6043 8.66234 28.61 8.68622 28.6109C8.71011 28.6118 8.73393 28.6079 8.75633 28.5993C8.77873 28.5907 8.79927 28.5776 8.81678 28.5608C8.83429 28.544 8.84843 28.5238 8.85838 28.5014C8.86833 28.479 8.87391 28.4548 8.87479 28.4301C8.87567 28.4055 8.87184 28.3809 8.86352 28.3577C8.85519 28.3346 8.84253 28.3134 8.82627 28.2953C8.81001 28.2773 8.79045 28.2627 8.76872 28.2524C8.47029 28.1423 8.19868 27.9665 7.97278 27.737C7.74688 27.5076 7.57212 27.2301 7.46066 26.9239C7.34109 26.3858 7.42759 25.8208 7.70209 25.3469C7.72817 25.305 7.73706 25.2542 7.7268 25.2055C7.71653 25.1568 7.68796 25.1143 7.64737 25.0874C7.60677 25.0605 7.55748 25.0513 7.51033 25.0619C7.46318 25.0725 7.42204 25.102 7.39596 25.1439C7.06292 25.7075 6.96026 26.3845 7.11054 27.0262C7.23485 27.3856 7.43427 27.7124 7.69464 27.9833C7.95502 28.2543 8.26996 28.4628 8.61714 28.594Z" fill="#333333"/>
<path d="M34.6263 24.7323C35.1671 23.137 35.1648 21.399 34.6197 19.8053L33.7186 17.1971C33.7442 17.199 33.77 17.2002 33.7955 17.2002C34.0226 17.2005 34.2438 17.1259 34.4269 16.9872C34.6099 16.8485 34.7453 16.6531 34.8131 16.4294C34.8809 16.2058 34.8777 15.9655 34.804 15.7439C34.7302 15.5222 34.5897 15.3307 34.403 15.1973C34.383 15.1828 34.3623 15.1698 34.3416 15.1591V12.7376C34.3416 11.1959 33.7483 9.71733 32.6922 8.62718C31.6362 7.53703 30.2038 6.92459 28.7103 6.92459C27.2167 6.92459 25.7844 7.53703 24.7283 8.62718C23.6722 9.71733 23.0789 11.1959 23.0789 12.7376V16.3216C23.079 16.7594 23.0113 17.1944 22.8781 17.6101L22.1099 20.0095C21.9934 20.3745 21.9013 20.7473 21.8344 21.1254C21.739 21.0204 21.6194 20.9419 21.4868 20.8973C21.3542 20.8528 21.2128 20.8435 21.0758 20.8705C20.9588 20.7498 20.8181 20.6566 20.6631 20.5971C20.5081 20.5377 20.3425 20.5134 20.1776 20.5259C20.0128 20.5384 19.8524 20.5875 19.7075 20.6697C19.5627 20.752 19.4367 20.8655 19.3381 21.0025C19.3073 20.9987 19.2763 20.9966 19.2453 20.9964H19.2401C19.1061 20.9965 18.9741 21.0301 18.8555 21.0945C18.7369 21.1588 18.6352 21.2519 18.5591 21.3658C18.4489 21.343 18.3352 21.3442 18.2255 21.3693C18.1157 21.3945 18.0122 21.4431 17.9217 21.5119C17.8312 21.5808 17.7556 21.6684 17.6999 21.7691C17.6441 21.8699 17.6093 21.9816 17.5978 22.0971C17.4513 22.0605 17.298 22.0651 17.1538 22.1105C17.0096 22.1558 16.8798 22.2402 16.7779 22.3548C16.676 22.4695 16.6057 22.6102 16.5743 22.7624C16.543 22.9146 16.5517 23.0727 16.5996 23.2202C16.604 23.234 16.6103 23.2473 16.6151 23.2607C16.3874 23.3542 16.1941 23.5197 16.0632 23.7336C15.9322 23.9474 15.8702 24.1986 15.886 24.451C15.6741 24.3846 15.4884 24.2497 15.3562 24.0662C15.2241 23.8827 15.1524 23.6603 15.1518 23.4317V21.4944C15.5003 21.2962 15.8232 21.0535 16.113 20.772C16.8852 20.5996 17.5771 20.1602 18.0743 19.5264C18.5714 18.8927 18.8439 18.1027 18.8467 17.2872V16.414C18.9415 16.2158 18.9762 15.9928 18.9462 15.774C18.93 15.6585 18.8965 15.5463 18.8467 15.4416V12.0316C18.8451 10.5527 18.2753 9.13496 17.2625 8.08913C16.2496 7.04331 14.8763 6.4548 13.4437 6.45268C12.5993 6.44947 11.7625 6.61805 10.9813 6.94878C10.2 7.27952 9.48953 7.76593 8.89045 8.38022C8.29138 8.99451 7.81544 9.72463 7.48983 10.5289C7.16423 11.3331 6.99534 12.1957 6.99282 13.0673C6.74043 13.1437 6.48532 13.2105 6.2275 13.2677C6.1837 13.2774 6.14491 13.3035 6.11857 13.3409C6.09224 13.3783 6.0802 13.4245 6.08478 13.4705C6.08937 13.5165 6.11024 13.5591 6.1434 13.5902C6.17656 13.6214 6.21967 13.6387 6.26448 13.6391C6.27753 13.6391 6.29054 13.6377 6.3033 13.6349C6.53733 13.5822 6.76877 13.5204 6.99837 13.4551C7.0065 13.6398 7.02166 13.8253 7.04458 14.0108L7.09412 14.4081L5.97684 14.6603C5.95347 14.6656 5.93134 14.6755 5.91171 14.6896C5.89208 14.7037 5.87533 14.7216 5.86242 14.7424C5.8495 14.7632 5.84069 14.7864 5.83647 14.8107C5.83225 14.835 5.83271 14.8599 5.83782 14.884C5.8429 14.9081 5.85254 14.9309 5.86619 14.9512C5.87983 14.9715 5.89721 14.9888 5.91733 15.0021C5.93745 15.0154 5.95992 15.0245 5.98346 15.0289C6.00699 15.0332 6.03112 15.0328 6.05448 15.0275L7.14219 14.7847L7.17916 15.0901C6.98185 15.2648 6.85314 15.5078 6.8172 15.7736C6.78439 16.0184 6.8314 16.2675 6.95081 16.4817C7.07022 16.6959 7.25526 16.863 7.47678 16.9567C7.55184 16.9874 7.62996 17.0094 7.7097 17.0223L7.34701 17.9085C7.11842 18.4705 7.0586 19.0904 7.17527 19.6879C7.29195 20.2854 7.57976 20.833 8.00141 21.2597L7.80324 21.6608C7.71562 21.6666 7.62763 21.6746 7.54037 21.6868C7.50335 21.6919 7.46877 21.7087 7.44132 21.7349C7.41387 21.761 7.39488 21.7953 7.38694 21.833L7.11926 23.1122C7.11307 23.1417 7.11384 23.1723 7.12151 23.2014C7.12918 23.2304 7.14352 23.2572 7.16331 23.2794C7.18311 23.3015 7.20779 23.3184 7.23526 23.3287C7.26273 23.3389 7.29218 23.3422 7.32113 23.3382C7.03567 23.5881 6.76712 23.8579 6.51736 24.1457C5.9907 24.7178 5.60652 25.4134 5.39786 26.1726H5.3949C5.21651 26.5616 5.12431 26.9868 5.125 27.4172V33.3598C5.125 33.4096 5.14417 33.4573 5.17828 33.4925C5.21239 33.5278 5.25866 33.5475 5.30691 33.5475H36.3559C36.4041 33.5475 36.4504 33.5278 36.4845 33.4925C36.5186 33.4573 36.5378 33.4096 36.5378 33.3598V27.4775C36.5371 26.8711 36.3523 26.2803 36.0094 25.7879C35.6666 25.2956 35.1829 24.9266 34.6263 24.7327V24.7323ZM34.4914 16.0007C34.5087 16.1275 34.493 16.2568 34.446 16.3753C34.399 16.4939 34.3223 16.5974 34.2238 16.6753C34.1252 16.7532 34.0084 16.8026 33.8853 16.8186C33.7622 16.8346 33.6372 16.8165 33.5231 16.7662V15.5431C33.6161 15.4622 33.7321 15.4147 33.8535 15.4078C33.975 15.4009 34.0953 15.435 34.1963 15.5049C34.2763 15.5618 34.3438 15.6354 34.3946 15.7208C34.4454 15.8063 34.4784 15.9017 34.4914 16.001V16.0007ZM23.4427 16.3212V12.7376C23.4427 11.2955 23.9977 9.91245 24.9855 8.89272C25.9734 7.873 27.3132 7.30012 28.7103 7.30012C30.1073 7.30012 31.4471 7.873 32.435 8.89272C33.4228 9.91245 33.9778 11.2955 33.9778 12.7376V15.0374C33.8228 15.0218 33.6664 15.0466 33.5231 15.1095V14.4741C33.5231 14.4703 33.5231 14.4668 33.5231 14.463C33.5285 14.4176 33.5176 14.3716 33.4924 14.3339C33.4673 14.2962 33.4297 14.2692 33.3866 14.2581C32.3558 13.9926 31.4407 13.3788 30.7871 12.5142C30.1335 11.6497 29.779 10.5842 29.78 9.48752V8.35213C29.78 8.30233 29.7609 8.25457 29.7268 8.21935C29.6927 8.18414 29.6464 8.16436 29.5981 8.16436C29.5499 8.16436 29.5036 8.18414 29.4695 8.21935C29.4354 8.25457 29.4162 8.30233 29.4162 8.35213V9.48714C29.4164 9.88004 29.4588 10.2717 29.5427 10.655H28.5814C27.734 10.6565 26.9216 11.0048 26.3226 11.6236C25.7235 12.2423 25.3865 13.081 25.3856 13.9558C25.3805 14.5771 25.1887 15.1815 24.8367 15.6855C24.4846 16.1895 23.9897 16.5682 23.4201 16.7693C23.4346 16.6205 23.4427 16.4712 23.4427 16.3212ZM33.1593 14.5832V17.3818C33.1593 18.5615 32.7053 19.6929 31.8972 20.5271C31.0891 21.3613 29.993 21.8299 28.8502 21.8299C27.7074 21.8299 26.6113 21.3613 25.8032 20.5271C24.9951 19.6929 24.5411 18.5615 24.5411 17.3818V16.5506C24.9161 16.2373 25.2191 15.842 25.4283 15.3932C25.6375 14.9445 25.7476 14.4534 25.7509 13.9554C25.7517 13.1799 26.0506 12.4363 26.5819 11.8879C27.1131 11.3395 27.8334 11.031 28.5847 11.0301H29.6399C29.8901 11.8799 30.3437 12.6509 30.9588 13.2719C31.5739 13.8929 32.3307 14.3439 33.1593 14.5832ZM17.9912 22.0016C18.027 21.9161 18.0873 21.8439 18.1639 21.7947C18.2406 21.7455 18.3299 21.7215 18.4201 21.7261C18.414 21.7663 18.4106 21.8068 18.4101 21.8475V21.8559C18.4101 21.9057 18.4293 21.9534 18.4634 21.9886C18.4975 22.0238 18.5438 22.0436 18.592 22.0436C18.6402 22.0436 18.6865 22.0238 18.7206 21.9886C18.7547 21.9534 18.7739 21.9057 18.7739 21.8559V21.8478C18.7748 21.7212 18.8241 21.6001 18.911 21.5108C18.998 21.4216 19.1156 21.3714 19.2383 21.3712H19.2412C19.3023 21.3715 19.3626 21.3843 19.4189 21.4088C19.4752 21.4332 19.5262 21.4689 19.5691 21.5137C19.612 21.5586 19.6459 21.6117 19.6689 21.6701C19.6918 21.7285 19.7034 21.7909 19.703 21.854C19.7026 21.8788 19.707 21.9034 19.7159 21.9265C19.7248 21.9495 19.738 21.9706 19.7548 21.9883C19.7716 22.006 19.7917 22.0202 19.8138 22.0299C19.836 22.0396 19.8597 22.0446 19.8838 22.0448C19.9318 22.0448 19.9779 22.0252 20.012 21.9902C20.0461 21.9552 20.0654 21.9078 20.0657 21.8581C20.0667 21.7458 20.0461 21.6343 20.0051 21.5302C19.9641 21.4261 19.9035 21.3315 19.8269 21.2517C19.7878 21.2109 19.745 21.1742 19.6989 21.1422C19.7766 21.0605 19.8702 20.9968 19.9734 20.9551C20.0767 20.9134 20.1873 20.8947 20.2981 20.9002C20.4088 20.9058 20.5172 20.9355 20.616 20.9873C20.7149 21.0391 20.802 21.1119 20.8717 21.201C20.8953 21.2312 20.9275 21.2531 20.9637 21.2637C20.9999 21.2743 21.0384 21.2731 21.0739 21.2601C21.1848 21.2196 21.3065 21.2241 21.4144 21.2727C21.5222 21.3213 21.6081 21.4104 21.6547 21.5219C21.6128 21.5427 21.5724 21.5665 21.5338 21.5933C21.514 21.6071 21.497 21.6247 21.4839 21.6453C21.4707 21.6659 21.4615 21.6889 21.457 21.7131C21.4524 21.7373 21.4525 21.7622 21.4572 21.7864C21.462 21.8105 21.4713 21.8335 21.4847 21.854C21.498 21.8744 21.5151 21.8919 21.5351 21.9056C21.555 21.9192 21.5773 21.9286 21.6007 21.9333C21.6242 21.938 21.6483 21.9379 21.6717 21.933C21.6951 21.9281 21.7174 21.9185 21.7372 21.9047C21.8141 21.8512 21.9021 21.8171 21.9942 21.805C22.0862 21.793 22.1797 21.8033 22.2671 21.8353C22.3546 21.8673 22.4336 21.9199 22.4977 21.9891C22.5619 22.0583 22.6095 22.142 22.6366 22.2335C22.6638 22.3251 22.6698 22.422 22.6542 22.5163C22.6386 22.6107 22.6017 22.7 22.5466 22.7771C22.4915 22.8541 22.4197 22.9168 22.3369 22.96C22.2541 23.0032 22.1627 23.0258 22.0699 23.026C22.046 23.026 22.0224 23.0308 22.0003 23.0403C21.9783 23.0497 21.9582 23.0635 21.9413 23.081C21.9244 23.0984 21.911 23.1191 21.9019 23.1419C21.8927 23.1647 21.888 23.1891 21.888 23.2138C21.888 23.2384 21.8927 23.2628 21.9019 23.2856C21.911 23.3084 21.9244 23.3291 21.9413 23.3465C21.9582 23.364 21.9783 23.3778 22.0003 23.3872C22.0224 23.3967 22.046 23.4015 22.0699 23.4015C22.1234 23.4013 22.1766 23.3964 22.2293 23.387C22.2163 23.4256 22.2005 23.4631 22.182 23.4992C22.1661 23.5296 22.1586 23.5638 22.1604 23.5983C22.1621 23.6327 22.173 23.666 22.1919 23.6945C22.2108 23.723 22.2369 23.7455 22.2673 23.7597C22.2978 23.7738 22.3314 23.7791 22.3646 23.7748C22.3955 23.7708 22.4266 23.7689 22.4578 23.769C22.5541 23.7691 22.6496 23.7874 22.7395 23.8232H18.4988C18.5939 23.7333 18.6636 23.6184 18.7005 23.4909C18.7375 23.3634 18.7404 23.2279 18.7089 23.0988C18.6773 22.9698 18.6126 22.8519 18.5215 22.7577C18.4303 22.6635 18.3162 22.5965 18.1912 22.5638L18.1542 22.5554C18.1082 22.4603 18.0456 22.3747 17.9694 22.3031C17.943 22.2034 17.9503 22.0973 17.9901 22.0024L17.9912 22.0016ZM17.2477 22.4737C17.3076 22.4531 17.3708 22.4448 17.4338 22.4494C17.4968 22.454 17.5583 22.4714 17.6148 22.5005C17.6712 22.5297 17.7216 22.57 17.763 22.6192C17.8043 22.6685 17.8359 22.7256 17.8559 22.7875C17.8677 22.824 17.8902 22.856 17.9202 22.8789C17.9502 22.9019 17.9864 22.9147 18.0237 22.9157C18.073 22.9172 18.1214 22.9295 18.1659 22.9516C18.2103 22.9737 18.2496 23.0053 18.2815 23.0442C18.3133 23.0831 18.3368 23.1284 18.3505 23.1773C18.3642 23.2262 18.3678 23.2776 18.361 23.328C18.3542 23.3784 18.3372 23.4268 18.3111 23.47C18.285 23.5132 18.2504 23.5502 18.2095 23.5787C18.1686 23.6071 18.1224 23.6264 18.0738 23.6352C18.0253 23.644 17.9754 23.6421 17.9276 23.6297C17.9044 23.6236 17.8803 23.6222 17.8566 23.6256C17.8329 23.6291 17.81 23.6373 17.7894 23.6499C17.7688 23.6625 17.7508 23.6792 17.7365 23.699C17.7221 23.7188 17.7117 23.7413 17.7058 23.7652C17.7006 23.7845 17.6941 23.8034 17.6862 23.8217H16.9523C16.9259 23.7574 16.9158 23.6873 16.9229 23.6178C16.93 23.5484 16.9541 23.482 16.993 23.4248C17.014 23.3941 17.0256 23.3577 17.0263 23.3201C17.027 23.2826 17.0168 23.2456 16.997 23.2141C16.9571 23.1506 16.9319 23.0784 16.9232 23.0032C16.9145 22.928 16.9226 22.8518 16.9469 22.7803C16.9711 22.7088 17.0109 22.644 17.0632 22.5909C17.1155 22.5378 17.1788 22.4977 17.2484 22.4737H17.2477ZM16.5578 23.7213C16.5627 23.7815 16.5742 23.8409 16.5922 23.8984L16.2742 24.1598C16.3198 23.9855 16.4195 23.8314 16.5582 23.7213H16.5578ZM15.5843 24.7312C15.5638 24.7519 15.5484 24.7774 15.5393 24.8056C15.5303 24.8337 15.5278 24.8637 15.5322 24.893L16.0254 28.0194C12.4022 27.3802 10.5014 25.4815 9.93985 24.8258C10.2392 24.7458 10.5044 24.5655 10.6939 24.3133C10.8834 24.061 10.9864 23.7509 10.9869 23.4317V21.6837C11.5862 21.9546 12.2335 22.0941 12.8877 22.0933C13.5419 22.0925 14.1889 21.9515 14.7876 21.6792V23.4317C14.7884 23.7038 14.8637 23.9702 15.0047 24.2002C15.1457 24.4301 15.3468 24.6143 15.5847 24.7316L15.5843 24.7312ZM10.0016 22.2375C9.92432 22.1875 9.8452 22.1413 9.76497 22.0974L9.78272 22.0841C9.81969 22.0868 9.85666 22.0902 9.89363 22.0913C9.9306 22.0925 9.96351 22.0913 9.99863 22.0913H10.6246V23.4298C10.6242 23.7118 10.5154 23.9822 10.3222 24.1817C10.129 24.3812 9.86705 24.4934 9.59379 24.4938H9.45625C9.44184 24.2503 9.43444 24.0102 9.43481 23.7687C9.46993 23.7897 9.50506 23.8099 9.53907 23.832C9.56381 23.8481 9.59193 23.8578 9.62107 23.8603C9.6502 23.8627 9.67948 23.8579 9.70643 23.8463C9.73339 23.8346 9.75721 23.8164 9.7759 23.7932C9.79458 23.7699 9.80757 23.7424 9.81377 23.7129L10.0826 22.4337C10.0906 22.3959 10.0871 22.3565 10.0726 22.3208C10.0581 22.2852 10.0333 22.255 10.0016 22.2345V22.2375ZM12.8872 21.7177C11.7213 21.7164 10.6035 21.2377 9.77906 20.3868C8.9546 19.5358 8.49081 18.3819 8.48944 17.1784L8.49905 14.4542C11.2335 13.6574 13.6177 11.9107 15.249 9.50927C15.2029 10.0666 15.2182 10.6275 15.2945 11.1813C15.3772 11.8712 15.5919 12.5373 15.926 13.1409C16.2602 13.7445 16.7072 14.2736 17.241 14.6974V17.2238C17.2397 18.4153 16.7805 19.5576 15.9643 20.4001C15.1481 21.2425 14.0415 21.7164 12.8872 21.7177ZM18.4829 17.2872C18.4803 17.912 18.3009 18.5223 17.9668 19.0432C17.6327 19.5642 17.1584 19.973 16.6022 20.2194C17.2524 19.3651 17.6055 18.3099 17.6048 17.2235V17.0002C17.6952 17.0255 17.7885 17.0383 17.8821 17.0384C18.0209 17.0382 18.1583 17.0106 18.287 16.9571C18.356 16.9282 18.4218 16.8917 18.4833 16.8483L18.4829 17.2872ZM18.1502 16.6082C18.0632 16.6447 17.9701 16.663 17.8763 16.6621C17.7824 16.6612 17.6896 16.641 17.6034 16.6029V15.3652C17.6976 15.2834 17.8151 15.2355 17.9381 15.2286C18.061 15.2217 18.1828 15.2563 18.2851 15.3271C18.3904 15.4019 18.4741 15.5047 18.5274 15.6247C18.5806 15.7446 18.6014 15.8772 18.5875 16.0084C18.5736 16.1396 18.5256 16.2644 18.4486 16.3697C18.3715 16.475 18.2683 16.5567 18.1498 16.6063L18.1502 16.6082ZM10.2604 7.74531C11.2197 7.14496 12.3203 6.82812 13.4422 6.82936C14.7784 6.83088 16.0595 7.37942 17.0045 8.35466C17.9495 9.3299 18.4812 10.6522 18.4829 12.0316V15.0137C18.4053 14.96 18.3202 14.9189 18.2304 14.892C17.5296 14.5413 16.9261 14.0133 16.476 13.3572C16.0259 12.7011 15.7438 11.9381 15.6561 11.1393C15.5442 10.3374 15.5686 9.52161 15.7282 8.72843C15.7389 8.68467 15.734 8.63839 15.7144 8.59805C15.6948 8.55771 15.6617 8.52602 15.6213 8.50877C15.5809 8.49153 15.5358 8.48989 15.4943 8.50416C15.4529 8.51843 15.4177 8.54764 15.3954 8.58646C14.5576 10.0206 13.4459 11.2638 12.1279 12.2403C10.81 13.2168 9.31326 13.9064 7.72893 14.2669L7.45275 14.3294L7.40728 13.965C7.3814 13.7585 7.36661 13.5524 7.36032 13.3475C9.81187 12.5526 11.9601 10.984 13.5025 8.86239C13.5298 8.82246 13.5409 8.77312 13.5335 8.72485C13.5262 8.67657 13.5009 8.63316 13.463 8.60385C13.4251 8.57453 13.3776 8.56162 13.3307 8.56785C13.2837 8.57408 13.241 8.59896 13.2115 8.63722C11.738 10.6637 9.69406 12.1709 7.35921 12.9529C7.38386 11.904 7.66219 10.8781 8.16889 9.96861C8.67558 9.05911 9.39456 8.29483 10.2604 7.74531ZM8.13451 14.5558V14.9225C7.9395 14.8441 7.72477 14.8348 7.52411 14.8962L7.50044 14.7054L7.80657 14.6321C7.91638 14.6092 8.02581 14.5821 8.13451 14.5558ZM7.61321 16.6098C7.49485 16.5599 7.39173 16.478 7.31475 16.3727C7.23777 16.2673 7.1898 16.1425 7.1759 16.0113C7.162 15.8801 7.18269 15.7475 7.23578 15.6275C7.28887 15.5074 7.3724 15.4044 7.47752 15.3294C7.57493 15.2624 7.68993 15.228 7.80693 15.2308C7.92392 15.2336 8.03725 15.2735 8.13155 15.345L8.12749 16.6166C7.96121 16.6801 7.77802 16.6774 7.61358 16.609L7.61321 16.6098ZM7.88717 20.5228C7.66183 20.1596 7.52549 19.7452 7.48994 19.3155C7.45438 18.8858 7.52067 18.4536 7.68309 18.0562L8.11011 17.0132L8.12564 17.0097V17.1792C8.12633 18.065 8.35874 18.9343 8.79832 19.6951C9.2379 20.4559 9.86835 21.0801 10.6231 21.5017V21.7185H9.99752C9.96647 21.7185 9.93553 21.7185 9.90472 21.7185C9.49923 21.706 9.10298 21.5905 8.75111 21.3821C8.39923 21.1738 8.10261 20.879 7.88754 20.5239L7.88717 20.5228ZM8.5449 21.6918C8.43522 21.676 8.32504 21.6653 8.21437 21.6597L8.2861 21.5143C8.36909 21.5784 8.45549 21.6376 8.5449 21.6918ZM7.71599 22.0459C8.40567 21.9776 9.09884 22.1327 9.69916 22.4898L9.51134 23.3855C9.45293 23.3532 9.3939 23.3225 9.33425 23.2935C8.84465 23.0563 8.31045 22.9333 7.7696 22.9332C7.68925 22.9332 7.60889 22.9359 7.52854 22.9413L7.71599 22.0459ZM6.78393 24.4022C7.13288 24.0002 7.51966 23.6349 7.93856 23.3118C8.32942 23.3324 8.71369 23.4241 9.0736 23.5828C9.06669 23.9963 9.08027 24.4099 9.11426 24.822C9.11501 24.8316 9.1165 24.8412 9.1187 24.8506C9.24269 25.375 9.549 25.8341 9.97941 26.1406L10.571 26.5604C11.0543 26.9044 11.4126 27.4051 11.5891 27.9831C11.7655 28.5612 11.7499 29.1835 11.5448 29.7513L11.3736 30.2261L10.1979 32.3324C10.0661 31.6476 9.70203 31.0339 9.1712 30.6012C8.78951 30.2622 8.36395 29.9796 7.90676 29.7616C6.48261 28.9514 5.73393 28.0137 5.68106 26.9756C5.6293 25.9669 6.25228 25.0193 6.78393 24.4022ZM8.18886 30.3448C7.81371 31.2449 7.79737 32.2614 8.14338 33.1739H5.48881V27.8187C5.8075 28.6659 6.56099 29.43 7.73743 30.0982C7.74258 30.1012 7.74788 30.1039 7.75333 30.1063C7.90547 30.1783 8.05359 30.2591 8.19699 30.3482L8.18886 30.3448ZM8.45247 33.1739L8.52641 33.1415C8.35603 32.7326 8.26637 32.2927 8.26269 31.8476C8.259 31.4025 8.34137 30.9612 8.50497 30.5493C9.17971 31.0279 10.036 31.8786 9.82967 33.0197C9.82499 33.0466 9.82605 33.0741 9.83275 33.1005C9.83946 33.1268 9.85165 33.1514 9.86849 33.1724L8.45247 33.1739ZM10.1454 33.1739C10.1527 33.1658 10.1593 33.157 10.165 33.1476L11.6971 30.4028C11.7022 30.3938 11.7065 30.3843 11.7101 30.3746L11.8864 29.8853C12.1196 29.239 12.1372 28.5308 11.9363 27.8731C11.7353 27.2153 11.3274 26.6456 10.7773 26.2543L10.1857 25.8345C9.86546 25.6058 9.62736 25.2742 9.50838 24.8915C9.51826 24.8978 9.52712 24.9056 9.53463 24.9147C10.0874 25.5865 10.7368 26.1666 11.4601 26.6348C12.8662 27.552 14.4421 28.1564 16.0872 28.4095L16.8384 33.1728L10.1454 33.1739ZM17.207 33.1739L15.9089 24.9411L16.6085 24.3659L17.6215 33.1739H17.207ZM17.9868 33.1739L16.956 24.1973H22.6127L21.5775 33.1739H17.9868ZM21.945 33.1739L22.9573 24.3663L23.6568 24.9415L22.3583 33.1739H21.945ZM25.3604 33.1739H24.5408C24.5385 33.1632 24.5352 33.1527 24.5311 33.1426C24.3585 32.7289 24.2695 32.2831 24.2695 31.8326C24.2695 31.3821 24.3585 30.9364 24.5311 30.5226C24.5459 30.478 24.5439 30.4292 24.5254 30.386C24.5069 30.3428 24.4733 30.3084 24.4313 30.2897C24.3894 30.2709 24.3421 30.2691 24.2989 30.2847C24.2558 30.3003 24.2199 30.3321 24.1984 30.3738C23.8273 31.2647 23.8108 32.2706 24.1526 33.1739H22.7266L24.0228 24.9563H25.3601L25.3604 33.1739ZM23.9684 24.5808C23.9481 24.5808 23.8668 24.5808 23.8039 24.5808L23.5995 24.4129C23.5641 24.1552 23.4478 23.9167 23.2685 23.7337C23.0892 23.5508 22.8568 23.4336 22.6068 23.4C22.622 23.3365 22.6322 23.2718 22.6371 23.2065C22.7945 23.0878 22.913 22.9224 22.9768 22.7323C23.0406 22.5422 23.0466 22.3365 22.994 22.1427C22.9414 21.949 22.8327 21.7765 22.6825 21.6483C22.5323 21.5201 22.3477 21.4423 22.1535 21.4254C22.2188 20.9842 22.3198 20.5494 22.4552 20.1255L23.2235 17.7257C23.2807 17.5463 23.3269 17.3634 23.3617 17.178C23.6479 17.0965 23.9217 16.9741 24.1751 16.8143V17.3803C24.1756 18.2458 24.4014 19.0953 24.829 19.8397C25.2566 20.5842 25.8702 21.1963 26.6056 21.612V23.529C26.6053 23.8079 26.4979 24.0752 26.3069 24.2724C26.1158 24.4696 25.8568 24.5805 25.5867 24.5808H23.9684ZM31.9762 33.1739H25.7242V31.9072C27.7702 32.4886 29.9302 32.4886 31.9762 31.9072V33.1739ZM31.9762 31.5172C29.9327 32.1173 27.7677 32.1173 25.7242 31.5172V30.0578C27.7702 30.6392 29.9302 30.6392 31.9762 30.0578V31.5172ZM31.9762 29.6677C29.9327 30.2678 27.7677 30.2678 25.7242 29.6677V28.2083C27.7702 28.7895 29.9302 28.7895 31.9762 28.2083V29.6677ZM31.9762 27.8183C29.9327 28.4184 27.7677 28.4184 25.7242 27.8183V24.9491C26.0654 24.9136 26.3817 24.7486 26.6119 24.4862C26.842 24.2238 26.9697 23.8826 26.9702 23.5286V21.7967C27.5625 22.0663 28.2027 22.2056 28.85 22.2056C29.4973 22.2056 30.1376 22.0663 30.7298 21.7967V23.5286C30.7302 23.8826 30.8579 24.2239 31.0881 24.4863C31.3182 24.7487 31.6346 24.9136 31.9758 24.9491L31.9762 27.8183ZM31.094 23.5286V21.612C31.7808 21.223 32.362 20.6623 32.7842 19.9812C33.2065 19.3001 33.4563 18.5205 33.5109 17.7139L34.2769 19.9316C34.7971 21.454 34.7956 23.1145 34.2725 24.6358C34.0944 24.5996 33.9134 24.5813 33.732 24.5812H32.1126C31.8425 24.5808 31.5836 24.4698 31.3927 24.2726C31.2017 24.0755 31.0943 23.8082 31.094 23.5294V23.5286ZM36.174 33.1739H33.5489C33.8907 32.2706 33.8742 31.2647 33.5031 30.3738C33.4817 30.3319 33.4458 30.2998 33.4025 30.2841C33.3592 30.2684 33.3117 30.2701 33.2697 30.289C33.2276 30.3079 33.1939 30.3425 33.1755 30.3859C33.1571 30.4293 33.1553 30.4783 33.1704 30.523C33.343 30.9368 33.432 31.3825 33.432 31.833C33.432 32.2835 33.343 32.7292 33.1704 33.143C33.1663 33.1531 33.1631 33.1636 33.1607 33.1743H32.3396V24.9563H33.7316C34.3791 24.9571 35 25.2229 35.4578 25.6955C35.9157 26.1682 36.1733 26.8091 36.174 27.4775V33.1739Z" fill="#333333"/>
</svg>
