<svg width="40" height="40" viewBox="0 0 40 40" fill="none" xmlns="http://www.w3.org/2000/svg">
<g clip-path="url(#clip0)">
<path d="M5.9375 10.001C2.1875 13.501 1.25 18.126 1.25 20.001L4.0625 20.9385L6.25 23.4385L8.75 24.6885L9.6875 28.4385L12.5 32.1885L13.4375 36.5635L14.375 35.9385L14.6875 34.376L15.9375 32.8135L17.1875 29.376L19.6875 27.1885L18.4375 25.626L17.1875 27.1885L14.0625 22.1885C13.75 21.6676 12.75 20.8135 11.25 21.5635C9.75 22.3135 8.75 22.0843 8.4375 21.876C7.70833 21.251 6.25 19.751 6.25 18.751C6.25 17.501 7.8125 16.5635 8.4375 16.5635C9.375 16.5635 10.9375 17.1885 11.5625 15.9385C14.0625 14.376 12.8125 15.3135 14.6875 15.001C16.5625 14.6885 16.5625 12.8135 16.5625 12.1885C16.5625 11.6885 15.3125 10.1051 14.6875 9.37598L10.9375 6.56348L7.5 11.5635L5.9375 10.001Z" fill="#ECF7FB"/>
<path d="M28.4364 10.3135L29.9989 8.12603C33.749 11.376 34.8947 14.2719 34.9988 15.3135C32.4988 16.5635 32.4988 18.3344 32.8113 19.0635L35.6238 23.751H36.2488L35.6238 26.5635C35.4155 26.6677 34.8113 26.876 34.0613 26.876C33.3113 26.876 32.2905 28.126 31.8738 28.751L30.9363 30.001C29.6863 30.4177 27.1863 30.8135 27.1863 29.0635C27.1863 26.876 26.249 27.1885 25.624 26.251C25.124 25.501 25.4157 24.4802 25.624 24.0635C25.7281 23.8552 26.3114 23.1885 27.8115 22.1885C29.6866 20.9385 30.3115 19.376 29.6865 17.501C29.0615 15.626 26.5614 15.626 25.9364 15.3135C25.4364 15.0635 25.7281 14.1677 25.9364 13.751L28.4364 10.3135Z" fill="#ECF7FB"/>
<path d="M9.0613 4.37603L7.4988 6.25103C5.6238 4.68853 5.6238 3.43853 6.2488 3.12603C6.7488 2.87603 7.29046 3.23019 7.4988 3.43853C7.60296 3.33436 7.9363 3.12603 8.4363 3.12603C8.9363 3.12603 9.0613 3.95936 9.0613 4.37603Z" fill="#ECF7FB"/>
<path d="M18.4375 21.8762L17.5 22.8137C16.9792 22.5012 15.9375 21.6887 15.9375 20.9387C15.9375 20.1887 16.7708 20.4178 17.1875 20.6262C17.1875 20.522 17.375 20.3762 18.125 20.6262C18.875 20.8762 18.6458 21.5637 18.4375 21.8762Z" fill="#ECF7FB"/>
<path d="M36.875 18.9548L35.9375 19.8923C35.4167 19.5798 34.375 18.7673 34.375 18.0173C34.375 17.2673 35.2083 17.4965 35.625 17.7048C35.625 17.6006 35.8125 17.4548 36.5625 17.7048C37.3125 17.9548 37.0833 18.6423 36.875 18.9548Z" fill="#ECF7FB"/>
<path d="M5.9455 34.677C8.38544 37.1174 11.4701 38.8123 14.8384 39.5631C18.2067 40.314 21.7191 40.0897 24.9646 38.9167C28.21 37.7436 31.0541 35.6702 33.1639 32.9393C35.2737 30.2084 36.5619 26.933 36.8776 23.4965L38.8873 20.3499C39.2466 19.7881 39.4414 19.137 39.4497 18.4703C39.4579 17.8035 39.2793 17.1478 38.9341 16.5773C38.5889 16.0068 38.0908 15.5444 37.4963 15.2424C36.9018 14.9404 36.2346 14.8109 35.5703 14.8686C33.7246 10.4317 30.1975 6.90576 25.7599 5.06146C21.3224 3.21716 16.3352 3.20443 11.8883 5.02607C11.98 4.31606 11.8992 3.5944 11.6528 2.92223C11.4064 2.25006 11.0016 1.64719 10.4728 1.16468C9.94388 0.682176 9.30649 0.334252 8.6146 0.150388C7.9227 -0.0334765 7.19668 -0.0478643 6.49804 0.108443C5.79941 0.264751 5.14874 0.587148 4.60116 1.04832C4.05358 1.5095 3.62522 2.09586 3.35238 2.75774C3.07954 3.41962 2.97024 4.13751 3.03376 4.85059C3.09728 5.56368 3.33174 6.25095 3.71728 6.85418L5.42618 9.53009C2.2511 12.9786 0.532178 17.5211 0.628869 22.2076C0.72556 26.8942 2.63038 31.3619 5.94499 34.6765L5.9455 34.677ZM35.8768 15.8105C36.3461 15.8102 36.8068 15.9361 37.2107 16.1751C37.6146 16.4141 37.9467 16.7574 38.1723 17.1689C38.3978 17.5804 38.5085 18.0451 38.4927 18.5141C38.4769 18.9831 38.3352 19.4392 38.0825 19.8346L35.8768 23.2877L33.6711 19.8346C33.4184 19.4392 33.2767 18.9831 33.2609 18.5141C33.2451 18.0451 33.3558 17.5804 33.5814 17.1689C33.8069 16.7574 34.1391 16.4141 34.5429 16.1751C34.9468 15.9361 35.4075 15.8102 35.8768 15.8105ZM29.7074 9.43236L30.11 8.86955C32.0645 10.5726 33.6076 12.6964 34.6233 15.0815C34.1448 15.2596 33.7105 15.5388 33.3498 15.9001C32.7775 16.4779 32.418 17.2326 32.33 18.0411C32.242 18.8496 32.4307 19.664 32.8653 20.3514L35.4747 24.4354C35.542 24.5404 35.6478 24.615 35.7694 24.6431C35.682 25.1725 35.571 25.6954 35.4363 26.2118L35.2577 26.2302C35.225 26.2333 35.1917 26.2359 35.1595 26.2374L34.7307 26.2568C34.0839 26.2836 33.4578 26.492 32.9239 26.8581C32.39 27.2242 31.97 27.7333 31.712 28.327L31.6025 28.5766C31.4568 28.9086 31.2175 29.191 30.9139 29.3892C30.6104 29.5875 30.2557 29.693 29.8931 29.693H28.0691C27.9774 29.6933 27.889 29.6594 27.821 29.5979C27.7531 29.5364 27.7105 29.4517 27.7017 29.3605L27.6286 28.6314C27.5783 28.1145 27.4115 27.6157 27.1407 27.1726C26.8699 26.7295 26.5021 26.3536 26.065 26.0732C25.9849 26.022 25.9191 25.9515 25.8737 25.8681C25.8282 25.7848 25.8046 25.6913 25.8051 25.5963V24.8641C25.8051 24.7292 25.8339 24.5959 25.8894 24.4729C25.9448 24.35 26.0258 24.2402 26.1269 24.1509L29.2423 21.3988C29.7498 20.949 30.118 20.3633 30.3031 19.7109C30.4883 19.0585 30.4827 18.3668 30.2871 17.7175C30.0842 17.0493 29.6919 16.4544 29.1576 16.0049C28.6233 15.5553 27.97 15.2704 27.2771 15.1848L26.9624 15.1459C26.7035 15.1142 26.4654 14.9882 26.2937 14.7919C26.2414 14.7322 26.2084 14.6581 26.1993 14.5793C26.1901 14.5005 26.2052 14.4208 26.2425 14.3508L26.8949 13.2354C27.6838 11.8873 28.6144 10.6273 29.6711 9.47688C29.6842 9.46264 29.6966 9.4476 29.7079 9.43185L29.7074 9.43236ZM4.52364 6.34253C4.18565 5.81337 3.99618 5.20305 3.97508 4.57551C3.95398 3.94797 4.10203 3.32631 4.40372 2.77564C4.7054 2.22497 5.14962 1.76556 5.68985 1.44555C6.23007 1.12553 6.84641 0.956675 7.4743 0.956675C8.10219 0.956675 8.71853 1.12553 9.25875 1.44555C9.79897 1.76556 10.2432 2.22497 10.5449 2.77564C10.8466 3.32631 10.9946 3.94797 10.9735 4.57551C10.9524 5.20305 10.763 5.81337 10.425 6.34253L7.4743 10.9627L4.52364 6.34253ZM5.95931 10.3656L7.07061 12.1052C7.1138 12.1729 7.17335 12.2287 7.24377 12.2673C7.3142 12.3059 7.39322 12.3261 7.47353 12.3261C7.55385 12.3261 7.63287 12.3059 7.70329 12.2673C7.77371 12.2287 7.83327 12.1729 7.87645 12.1052L11.0604 7.11972L12.5877 8.26786C12.772 8.40626 12.964 8.53404 13.1628 8.65057C13.7994 9.0244 14.3473 9.53185 14.7688 10.1379L15.9697 11.8683C16.1408 12.1137 16.229 12.4073 16.2214 12.7064C16.2139 13.0054 16.111 13.2942 15.9277 13.5307L15.3736 14.2526C15.288 14.3634 15.175 14.45 15.0457 14.5038C14.9164 14.5577 14.7753 14.5769 14.6363 14.5596L14.0024 14.4777C13.464 14.4086 12.9172 14.4999 12.4304 14.7401C11.9437 14.9804 11.5386 15.359 11.2661 15.8285C11.1825 15.9658 11.0603 16.0755 10.9147 16.1439C10.7691 16.2122 10.6066 16.2362 10.4475 16.2127L9.0031 16.0295C8.48094 15.9615 7.95015 16.0404 7.47033 16.2573C6.9905 16.4742 6.58065 16.8205 6.28677 17.2575C6.0058 17.672 5.852 18.1596 5.84428 18.6603C5.83655 19.1611 5.97523 19.6531 6.24328 20.0761L7.2062 21.5968C7.53561 22.1129 8.04734 22.486 8.63947 22.6418C9.2316 22.7975 9.86068 22.7246 10.4014 22.4374L11.393 21.9063C11.5981 21.7971 11.8279 21.7426 12.0603 21.7481C12.2926 21.7537 12.5195 21.8191 12.7192 21.938L13.9282 22.6641C14.017 22.9153 14.1341 23.1556 14.2771 23.3804L16.8865 27.4643C16.9297 27.532 16.9893 27.5878 17.0597 27.6264C17.1301 27.665 17.2092 27.6852 17.2895 27.6852C17.3698 27.6852 17.4488 27.665 17.5192 27.6264C17.5896 27.5878 17.6492 27.532 17.6924 27.4643L18.4783 26.2364L19.2631 27.1573C19.2766 27.1729 19.2865 27.1912 19.2919 27.2111C19.2973 27.2309 19.2981 27.2517 19.2944 27.2719C19.2847 27.3134 19.2601 27.3498 19.2253 27.3743L17.4151 28.7562C16.8521 29.1869 16.4378 29.7828 16.2301 30.4605L15.6223 32.4334C15.5928 32.5297 15.5444 32.619 15.48 32.6964L14.8881 33.4086C14.3839 34.0052 14.0735 34.7412 13.9983 35.5187C13.9909 35.601 13.9615 35.6799 13.9132 35.7469C13.8649 35.814 13.7993 35.8668 13.7235 35.8998C13.7235 35.8998 13.7235 35.8952 13.7235 35.8927L13.1684 32.5618C13.0857 32.0698 12.8843 31.6052 12.5816 31.2085L10.5391 28.5306C10.392 28.3382 10.2833 28.1193 10.2188 27.8859L9.54493 25.4541C9.40376 24.9493 9.13441 24.4896 8.76307 24.1197C8.39172 23.7498 7.93101 23.4822 7.42569 23.343L7.27885 23.3031C7.05665 23.2424 6.85269 23.1283 6.68483 22.9705L5.42771 21.7871C5.26207 21.6311 5.11974 21.452 5.00509 21.2555C4.67771 20.6931 4.19057 20.2407 3.60552 19.9557C3.02048 19.6708 2.36394 19.5661 1.7193 19.6551C2.15355 16.199 3.63286 12.958 5.95931 10.3656ZM15.4381 19.6029C15.8943 19.1476 16.5025 18.8767 17.1461 18.842C17.7897 18.8074 18.4235 19.0115 18.9259 19.4152C19.4284 19.8189 19.7642 20.3938 19.869 21.0297C19.9738 21.6657 19.8402 22.318 19.4939 22.8615L17.2882 26.3146L15.0825 22.8615C14.7645 22.3582 14.6265 21.7619 14.691 21.17C14.7555 20.5781 15.0187 20.0255 15.4376 19.6024L15.4381 19.6029ZM1.72595 20.6262C2.19995 20.5343 2.69079 20.5923 3.13033 20.7921C3.56987 20.9919 3.93632 21.3235 4.17879 21.741C4.33994 22.0162 4.53982 22.2667 4.7723 22.485L6.02941 23.6684C6.3114 23.9333 6.65394 24.1251 7.02712 24.2271L7.17396 24.267C7.51958 24.3623 7.8347 24.5453 8.08868 24.7983C8.34267 25.0513 8.5269 25.3657 8.62346 25.7109L9.2973 28.1428C9.39425 28.4938 9.5577 28.8229 9.77875 29.1123L11.8212 31.7903C12.0287 32.0628 12.1667 32.3817 12.2234 32.7194L12.7785 36.0503C12.8002 36.1933 12.8541 36.3295 12.9363 36.4486C13.0185 36.5676 13.1268 36.6663 13.2529 36.7372C13.379 36.8081 13.5196 36.8493 13.664 36.8577C13.8084 36.866 13.9529 36.8414 14.0863 36.7855C14.3237 36.6864 14.5296 36.5245 14.6819 36.3171C14.8341 36.1098 14.927 35.8649 14.9505 35.6087C15.0083 35.0239 15.243 34.4706 15.6233 34.0226L16.2153 33.3063C16.3604 33.132 16.4695 32.9306 16.5361 32.7138L17.1439 30.7414C17.2934 30.2532 17.5918 29.8238 17.9973 29.5135L19.806 28.1243C20.0352 27.9525 20.1896 27.6992 20.2373 27.4167C20.2625 27.2602 20.2535 27.1 20.2108 26.9473C20.1681 26.7946 20.0929 26.6529 19.9902 26.5321L19.015 25.3845L20.2992 23.3737C20.5984 22.9075 20.7851 22.378 20.8445 21.8272C20.9038 21.2764 20.8343 20.7193 20.6412 20.2001C20.4482 19.6808 20.1371 19.2135 19.7323 18.8352C19.3276 18.4569 18.8405 18.1779 18.3094 18.0203C17.7783 17.8627 17.2178 17.8308 16.6722 17.9271C16.1267 18.0234 15.611 18.2453 15.166 18.5753C14.7209 18.9052 14.3588 19.3342 14.1081 19.8282C13.8574 20.3222 13.725 20.8678 13.7215 21.4218L13.2129 21.1148C12.8713 20.9111 12.4829 20.799 12.0853 20.7893C11.6877 20.7796 11.2944 20.8727 10.9433 21.0595L9.95016 21.5947C9.62224 21.7685 9.24086 21.8124 8.88204 21.7176C8.52322 21.6228 8.21331 21.3962 8.01409 21.0831L7.05117 19.5619C6.88274 19.2962 6.79559 18.9871 6.8004 18.6725C6.80522 18.3579 6.9018 18.0516 7.07829 17.7911C7.27351 17.501 7.54573 17.271 7.8644 17.1269C8.18306 16.9829 8.53556 16.9305 8.88235 16.9756L10.3267 17.1587C10.672 17.2061 11.0235 17.1504 11.3372 16.9988C11.651 16.8471 11.913 16.6063 12.0904 16.3063C12.2686 15.999 12.5336 15.7512 12.8523 15.5941C13.1709 15.437 13.5288 15.3775 13.8811 15.4232L14.5125 15.5041C14.8167 15.5426 15.1256 15.5012 15.4089 15.384C15.6922 15.2668 15.9402 15.0779 16.1283 14.8359L16.685 14.1139C16.9927 13.717 17.1655 13.2321 17.1782 12.73C17.1909 12.2279 17.0428 11.7349 16.7556 11.3229L15.5558 9.59302C15.0545 8.87301 14.403 8.27025 13.6463 7.82631C13.4789 7.72835 13.3173 7.6209 13.1623 7.50448L11.5363 6.28216L11.568 6.21053C14.2903 4.95411 17.2934 4.43011 20.2804 4.69034C23.2673 4.95058 26.1346 5.98603 28.5986 7.6943C28.8613 7.87679 29.1181 8.06593 29.3692 8.26172L28.9471 8.8496C27.8515 10.0452 26.886 11.3538 26.067 12.7535L25.4121 13.8735C25.2747 14.1164 25.2164 14.3962 25.2453 14.6738C25.2742 14.9515 25.3888 15.2132 25.5733 15.4227C25.8996 15.7959 26.3521 16.0357 26.8442 16.096L27.1589 16.1349C27.6681 16.1978 28.1481 16.4071 28.5407 16.7374C28.9333 17.0677 29.2216 17.5049 29.3707 17.9958C29.5135 18.4698 29.5175 18.9747 29.3823 19.451C29.2471 19.9272 28.9784 20.3547 28.6079 20.683L25.494 23.4351C25.2915 23.6141 25.1293 23.8341 25.0182 24.0804C24.9071 24.3267 24.8495 24.5939 24.8493 24.8641V25.5958C24.849 25.8504 24.9127 26.1011 25.0347 26.3246C25.1566 26.5481 25.3329 26.7374 25.5472 26.8749C25.863 27.0776 26.1288 27.3492 26.3246 27.6694C26.5203 27.9896 26.641 28.35 26.6774 28.7235L26.7506 29.4526C26.7824 29.7799 26.9352 30.0836 27.179 30.3042C27.4229 30.5249 27.7402 30.6466 28.0691 30.6457H29.8931C30.4414 30.6456 30.9777 30.4859 31.4367 30.1861C31.8957 29.8862 32.2575 29.4593 32.4779 28.9573L32.5874 28.7076C32.7742 28.2777 33.0783 27.9091 33.4649 27.6439C33.8514 27.3788 34.3048 27.2279 34.7732 27.2085L35.1472 27.1916C33.8713 31.081 31.2509 34.3882 27.7563 36.5198C24.2618 38.6514 20.122 39.4677 16.0799 38.8222C12.0378 38.1767 8.35808 36.1116 5.70123 32.9977C3.04439 29.8838 1.58436 25.9249 1.5832 21.8316C1.5832 21.4332 1.59685 21.037 1.62414 20.643L1.72595 20.6262Z" fill="#333333"/>
<path d="M17.6247 23.2773L18.781 22.121C18.9982 21.9034 19.1311 21.6158 19.1558 21.3094C19.1805 21.003 19.0955 20.6977 18.9159 20.4482C18.7364 20.1987 18.474 20.0211 18.1756 19.9472C17.8772 19.8733 17.5623 19.9078 17.287 20.0447C17.0118 19.9078 16.6968 19.8733 16.3984 19.9472C16.1 20.0211 15.8376 20.1987 15.6581 20.4482C15.4786 20.6977 15.3935 21.003 15.4183 21.3094C15.443 21.6158 15.5758 21.9034 15.793 22.121L16.9493 23.2768C16.9937 23.3212 17.0464 23.3563 17.1044 23.3804C17.1624 23.4044 17.2245 23.4168 17.2873 23.4168C17.35 23.4168 17.4122 23.4044 17.4702 23.3804C17.5282 23.3563 17.5808 23.3212 17.6252 23.2768L17.6247 23.2773ZM16.4689 21.4471C16.4053 21.3835 16.3695 21.2972 16.3695 21.2072C16.3695 21.1171 16.4053 21.0308 16.4689 20.9672C16.5325 20.9035 16.6189 20.8678 16.7089 20.8678C16.7989 20.8678 16.8852 20.9035 16.9488 20.9672C16.9932 21.0116 17.0459 21.0468 17.1039 21.0708C17.1619 21.0948 17.224 21.1072 17.2868 21.1072C17.3495 21.1072 17.4117 21.0948 17.4697 21.0708C17.5276 21.0468 17.5803 21.0116 17.6247 20.9672C17.6884 20.9035 17.7747 20.8678 17.8647 20.8678C17.9547 20.8678 18.041 20.9035 18.1046 20.9672C18.1683 21.0308 18.204 21.1171 18.204 21.2072C18.204 21.2972 18.1683 21.3835 18.1046 21.4471L17.286 22.2657L16.4689 21.4471Z" fill="#333333"/>
<path d="M34.3806 19.0954L35.5369 20.2512C35.5813 20.2956 35.634 20.3308 35.692 20.3548C35.75 20.3788 35.8121 20.3912 35.8749 20.3912C35.9376 20.3912 35.9998 20.3788 36.0578 20.3548C36.1157 20.3308 36.1684 20.2956 36.2128 20.2512L37.3691 19.0954C37.5422 18.8269 37.6397 18.5168 37.6514 18.1977C37.6631 17.8785 37.5886 17.5621 37.4357 17.2816C37.2828 17.0012 37.0572 16.7672 36.7826 16.6041C36.508 16.441 36.1945 16.355 35.8751 16.355C35.5557 16.355 35.2422 16.441 34.9676 16.6041C34.693 16.7672 34.4674 17.0012 34.3145 17.2816C34.1616 17.5621 34.0871 17.8785 34.0989 18.1977C34.1106 18.5168 34.2081 18.8269 34.3811 19.0954H34.3806ZM35.0565 17.9391C35.088 17.9076 35.1254 17.8825 35.1666 17.8655C35.2077 17.8484 35.2519 17.8396 35.2964 17.8396C35.341 17.8396 35.3852 17.8484 35.4263 17.8655C35.4675 17.8825 35.5049 17.9076 35.5364 17.9391C35.5808 17.9835 35.6335 18.0187 35.6915 18.0427C35.7494 18.0667 35.8116 18.0791 35.8743 18.0791C35.9371 18.0791 35.9993 18.0667 36.0572 18.0427C36.1152 18.0187 36.1679 17.9835 36.2123 17.9391C36.2759 17.8754 36.3623 17.8397 36.4523 17.8397C36.5423 17.8397 36.6286 17.8754 36.6922 17.9391C36.7559 18.0027 36.7916 18.089 36.7916 18.179C36.7916 18.2691 36.7559 18.3554 36.6922 18.419L35.8736 19.2376L35.0549 18.419C35.0234 18.3875 34.9984 18.3501 34.9813 18.3089C34.9643 18.2677 34.9555 18.2236 34.9555 18.179C34.9555 18.1345 34.9643 18.0903 34.9813 18.0492C34.9984 18.008 35.0234 17.9706 35.0549 17.9391H35.0565Z" fill="#333333"/>
<path d="M7.8126 6.70449L9.29894 5.21816C9.55931 4.95715 9.71666 4.6109 9.74205 4.24311C9.76744 3.87532 9.65917 3.51073 9.43714 3.21642C9.21512 2.9221 8.89428 2.71787 8.53365 2.64128C8.17303 2.5647 7.79688 2.62092 7.47441 2.7996C7.15194 2.62092 6.77578 2.5647 6.41516 2.64128C6.05453 2.71787 5.7337 2.9221 5.51167 3.21642C5.28964 3.51073 5.18137 3.87532 5.20676 4.24311C5.23215 4.6109 5.38951 4.95715 5.64988 5.21816L7.13621 6.70449C7.18058 6.74887 7.23327 6.78408 7.29125 6.8081C7.34924 6.83212 7.41139 6.84449 7.47415 6.84449C7.53691 6.84449 7.59906 6.83212 7.65705 6.8081C7.71503 6.78408 7.76772 6.74887 7.81209 6.70449H7.8126ZM6.32883 4.54227C6.23186 4.43317 6.18018 4.29118 6.18433 4.14528C6.18848 3.99937 6.24816 3.86055 6.35117 3.75714C6.45419 3.65374 6.59278 3.59354 6.73867 3.58883C6.88456 3.58413 7.02674 3.63527 7.13621 3.73182C7.18059 3.77628 7.23331 3.81156 7.29134 3.83562C7.34937 3.85969 7.41158 3.87208 7.47441 3.87208C7.53723 3.87208 7.59944 3.85969 7.65747 3.83562C7.7155 3.81156 7.76822 3.77628 7.8126 3.73182C7.9209 3.62847 8.06533 3.57159 8.21502 3.57336C8.36471 3.57513 8.50776 3.6354 8.61358 3.74129C8.7194 3.84718 8.77958 3.99027 8.78126 4.13995C8.78293 4.28964 8.72596 4.43404 8.62254 4.54227L7.47441 5.69041L6.32883 4.54227Z" fill="#333333"/>
</g>
<defs>
<clipPath id="clip0">
<rect width="40" height="40" fill="white" transform="translate(0 0.000976562)"/>
</clipPath>
</defs>
</svg>
