<svg width="41" height="40" viewBox="0 0 41 40" fill="none" xmlns="http://www.w3.org/2000/svg">
<path d="M22.1751 24.4281L19.5917 25.9196C19.3922 26.0336 19.1599 26.0767 18.9328 26.0417C18.7057 26.0068 18.4972 25.8959 18.3412 25.7272C18.34 25.7252 18.3339 25.7146 18.3327 25.7126C16.031 23.1231 14.2809 20.0918 13.1892 16.8037C13.188 16.8018 13.176 16.7808 13.1748 16.7789C13.1068 16.5594 13.1151 16.3233 13.1983 16.109C13.2815 15.8948 13.4347 15.715 13.633 15.5989L16.2164 14.1074C16.5071 13.9463 16.7628 13.7288 16.9684 13.4676C17.1741 13.2065 17.3256 12.907 17.414 12.5866C17.5025 12.2663 17.5262 11.9315 17.4837 11.6018C17.4413 11.2722 17.3335 10.9543 17.1667 10.6668L14.7958 6.56039C14.631 6.27164 14.4109 6.01819 14.1481 5.8145C13.8853 5.61082 13.585 5.46089 13.2642 5.37327C12.9435 5.28566 12.6086 5.26208 12.2788 5.30388C11.9489 5.34568 11.6305 5.45204 11.3418 5.61688L10.2624 6.24005C8.1316 7.44668 6.48981 9.36049 5.62136 11.6501C4.7529 13.9397 4.71247 16.4609 5.50707 18.7772L6.27451 20.9516C7.39258 24.123 9.08825 27.06 11.2758 29.614L12.7756 31.3666C14.384 33.2132 16.5877 34.4392 19.005 34.832C21.4222 35.2249 23.9007 34.7599 26.0112 33.5176L27.07 32.9063C27.3588 32.7414 27.6122 32.5212 27.8159 32.2583C28.0195 31.9954 28.1693 31.695 28.2568 31.3741C28.3443 31.0533 28.3677 30.7184 28.3257 30.3885C28.2837 30.0586 28.1771 29.7402 28.0121 29.4516L25.6305 25.3266C25.465 25.0382 25.2437 24.7857 24.9795 24.5839C24.7152 24.3822 24.4133 24.2351 24.0916 24.1515C23.7698 24.0678 23.4345 24.0491 23.1055 24.0966C22.7764 24.1441 22.4601 24.2568 22.1751 24.4281Z" fill="#ECF7FB"/>
<path d="M22.1751 24.4281L19.5917 25.9196C19.3922 26.0336 19.1599 26.0767 18.9328 26.0417C18.7057 26.0068 18.4972 25.8959 18.3412 25.7272C18.34 25.7252 18.3339 25.7146 18.3327 25.7126C16.031 23.1231 14.2809 20.0918 13.1892 16.8037C13.188 16.8017 13.176 16.7808 13.1748 16.7789C13.1068 16.5594 13.1151 16.3233 13.1983 16.109C13.2815 15.8948 13.4347 15.715 13.633 15.5989L16.2164 14.1074C16.5071 13.9463 16.7628 13.7288 16.9684 13.4676C17.1741 13.2065 17.3256 12.907 17.414 12.5866C17.5025 12.2663 17.5262 11.9315 17.4837 11.6018C17.4413 11.2722 17.3335 10.9543 17.1667 10.6668L14.7958 6.56039C14.631 6.27164 14.4109 6.01819 14.1481 5.8145C13.8853 5.61081 13.585 5.46088 13.2642 5.37327C12.9435 5.28566 12.6086 5.26208 12.2788 5.30388C11.9489 5.34568 11.6305 5.45204 11.3418 5.61688L10.2624 6.24005C8.1316 7.44668 6.48981 9.36049 5.62136 11.6501C4.7529 13.9397 4.71248 16.4609 5.50707 18.7772L6.27451 20.9516C7.39258 24.123 9.08825 27.06 11.2758 29.614L12.7756 31.3666C14.384 33.2132 16.5877 34.4392 19.005 34.832C21.4222 35.2249 23.9007 34.7599 26.0112 33.5176L27.07 32.9063C27.3588 32.7414 27.6122 32.5212 27.8159 32.2583C28.0195 31.9954 28.1693 31.695 28.2568 31.3741C28.3443 31.0533 28.3677 30.7184 28.3257 30.3885C28.2837 30.0586 28.1771 29.7402 28.0121 29.4516L25.6305 25.3266C25.465 25.0382 25.2437 24.7857 24.9795 24.5839C24.7152 24.3822 24.4133 24.2351 24.0916 24.1515C23.7698 24.0678 23.4345 24.0491 23.1055 24.0966C22.7764 24.1441 22.4601 24.2568 22.1751 24.4281ZM26.5257 30.2824C26.5817 30.3756 26.6187 30.4789 26.6348 30.5864C26.6508 30.6939 26.6454 30.8036 26.6191 30.909C26.5927 31.0145 26.5458 31.1137 26.4811 31.2011C26.4163 31.2884 26.335 31.3621 26.2418 31.418L25.1596 32.0428C23.3935 33.0863 21.3181 33.4793 19.2927 33.1538C17.2674 32.8283 15.4196 31.8048 14.0693 30.2605L12.5701 28.5081C10.5183 26.1132 8.928 23.3588 7.8799 20.3843L7.11161 18.2094C6.44956 16.2679 6.48723 14.1561 7.21812 12.2395C7.949 10.3229 9.32707 8.72219 11.1137 7.71454L12.1726 7.10322C12.2659 7.04736 12.3692 7.01042 12.4767 6.99452C12.5843 6.97862 12.6939 6.98407 12.7993 7.01056C12.9048 7.03705 13.004 7.08405 13.0912 7.14889C13.1785 7.21372 13.2521 7.29512 13.3079 7.38842L15.6922 11.5181C15.7476 11.6119 15.7832 11.7162 15.7968 11.8243C15.8103 11.9325 15.8015 12.0422 15.7709 12.1468C15.7403 12.2514 15.6886 12.3487 15.6189 12.4325C15.5492 12.5163 15.4631 12.5849 15.3658 12.6341L12.7824 14.1256C12.2442 14.4385 11.8293 14.9263 11.6069 15.5077C11.3845 16.0892 11.3679 16.7294 11.56 17.3216C11.5614 17.3239 11.5678 17.335 11.5694 17.3377C12.7328 20.8383 14.5961 24.0657 17.046 26.8236C17.0476 26.8263 17.0601 26.848 17.0615 26.8504C17.4782 27.3135 18.0409 27.62 18.656 27.7189C19.2711 27.8178 19.9015 27.7031 20.4424 27.3939L23.0258 25.9024C23.117 25.8427 23.2195 25.8025 23.3269 25.784C23.4343 25.7656 23.5444 25.7694 23.6503 25.7952C23.7562 25.821 23.8556 25.8683 23.9425 25.9341C24.0294 25.9999 24.1019 26.0828 24.1554 26.1777L26.5257 30.2824Z" fill="#333333"/>
<path d="M22.2481 3.47521C22.1921 3.69396 22.2254 3.92598 22.3405 4.12023C22.4556 4.31448 22.6431 4.45506 22.8619 4.51105C24.9053 5.02125 26.8251 5.93753 28.507 7.20533C30.1888 8.47312 31.5983 10.0665 32.6513 11.8905C33.7044 13.7144 34.3796 15.7317 34.6366 17.8222C34.8936 19.9126 34.7272 22.0333 34.1474 24.0581C34.0913 24.2733 34.1216 24.5019 34.2319 24.695C34.3422 24.8882 34.5236 25.0305 34.7375 25.0916C34.9513 25.1527 35.1806 25.1277 35.3762 25.0219C35.5719 24.9162 35.7184 24.7381 35.7845 24.5258L35.7865 24.5183C36.4278 22.275 36.6113 19.9257 36.3261 17.61C36.0408 15.2944 35.2927 13.0598 34.1261 11.0393C32.9595 9.01872 31.3984 7.25349 29.5356 5.84864C27.6729 4.4438 25.5465 3.42805 23.2831 2.86184C23.0645 2.80614 22.8328 2.83944 22.6387 2.95443C22.4447 3.06943 22.3042 3.25672 22.2481 3.47521Z" fill="#333333"/>
<path d="M21.7884 8.19364C21.6794 8.16297 21.5654 8.15435 21.453 8.16828C21.3406 8.18221 21.2321 8.21841 21.1339 8.27477C21.0357 8.33112 20.9497 8.4065 20.881 8.49649C20.8123 8.58648 20.7622 8.68928 20.7337 8.79886C20.7052 8.90844 20.6988 9.02262 20.7149 9.13469C20.731 9.24677 20.7694 9.35451 20.8276 9.45159C20.8859 9.54868 20.963 9.63316 21.0543 9.7001C21.1456 9.76705 21.2494 9.81512 21.3595 9.84148L21.367 9.84347C24.0202 10.5055 26.3017 12.1944 27.7097 14.5387C29.1177 16.8829 29.5367 19.6904 28.8747 22.3437C28.8457 22.4586 28.815 22.5732 28.7826 22.6876C28.7265 22.9028 28.7568 23.1315 28.8671 23.3246C28.9774 23.5177 29.1588 23.66 29.3727 23.7211C29.5865 23.7822 29.8158 23.7572 30.0114 23.6515C30.2071 23.5457 30.3536 23.3677 30.4197 23.1553L30.4214 23.1474C31.2963 20.0843 30.9186 16.799 29.3715 14.0143C27.8244 11.2295 25.2345 9.17334 22.1714 8.29795C22.043 8.26064 21.9153 8.22587 21.7884 8.19364Z" fill="#333333"/>
<path d="M19.1135 14.6463C19.0858 14.7546 19.0797 14.8673 19.0956 14.978C19.1114 15.0887 19.149 15.1952 19.206 15.2913C19.263 15.3875 19.3385 15.4715 19.428 15.5385C19.5175 15.6055 19.6194 15.6542 19.7277 15.6819C20.2907 15.822 20.8206 16.0717 21.287 16.4167C21.7535 16.7617 22.1474 17.1952 22.4463 17.6924C22.7452 18.1897 22.9433 18.7409 23.0291 19.3147C23.1149 19.8885 23.0868 20.4736 22.9465 21.0366C22.9342 21.0873 22.9203 21.1379 22.9066 21.1879C22.8446 21.4049 22.8714 21.6377 22.9811 21.835C23.0908 22.0323 23.2743 22.178 23.4914 22.2399C23.7085 22.3019 23.9413 22.2751 24.1386 22.1654C24.3359 22.0558 24.4815 21.8722 24.5435 21.6551L24.5459 21.6475C24.9906 20.087 24.7975 18.4138 24.009 16.9956C23.2205 15.5775 21.9012 14.5305 20.341 14.0848C20.2772 14.0666 20.2135 14.0495 20.15 14.0336C20.0417 14.0057 19.929 13.9995 19.8183 14.0152C19.7076 14.0309 19.6011 14.0683 19.5048 14.1252C19.4085 14.1821 19.3244 14.2574 19.2573 14.3468C19.1902 14.4362 19.1413 14.538 19.1135 14.6463Z" fill="#333333"/>
</svg>
