<svg width="41" height="40" viewBox="0 0 41 40" fill="none" xmlns="http://www.w3.org/2000/svg">
<circle cx="20.25" cy="20" r="6.875" fill="#ECF7FB"/>
<rect x="3.375" y="9.375" width="6.25" height="7.5" fill="#ECF7FB"/>
<rect x="3.375" y="23.125" width="6.25" height="7.5" fill="#ECF7FB"/>
<rect x="30.875" y="3.125" width="6.25" height="6.875" fill="#ECF7FB"/>
<rect x="30.875" y="16.875" width="6.25" height="6.875" fill="#ECF7FB"/>
<rect x="30.875" y="30" width="6.25" height="6.875" fill="#ECF7FB"/>
<path d="M22.75 20L19 17.5V22.5L22.75 20Z" fill="white"/>
<path d="M3.23606 37.5H37.2639C37.3929 37.5 37.5165 37.4488 37.6076 37.3576C37.6988 37.2665 37.75 37.1429 37.75 37.0139V2.98606C37.75 2.85715 37.6988 2.73352 37.6076 2.64236C37.5165 2.55121 37.3929 2.5 37.2639 2.5H3.23606C3.10715 2.5 2.98352 2.55121 2.89236 2.64236C2.80121 2.73352 2.75 2.85715 2.75 2.98606V37.0139C2.75 37.1429 2.80121 37.2665 2.89236 37.3576C2.98352 37.4488 3.10715 37.5 3.23606 37.5ZM3.72211 30.6942H8.875V36.5279H3.72211V30.6942ZM31.6235 23.8885H36.7779V29.7221H31.625L31.6235 23.8885ZM31.6235 22.9163V17.0832H36.7779V22.9168L31.6235 22.9163ZM31.6235 16.1106V10.2779H36.7779V16.1111L31.6235 16.1106ZM30.6514 36.5279H9.84859V3.47211H30.6514V36.5279ZM8.875 16.1111H3.72211V10.2779H8.875V16.1111ZM8.875 17.0832V22.9168H3.72211V17.0832H8.875ZM8.875 23.8889V29.7221H3.72211V23.8889H8.875ZM31.625 36.5279V30.6942H36.7779V36.5279H31.625ZM36.7779 9.30577H31.625V3.47211H36.7779V9.30577ZM8.875 3.47211V9.30577H3.72211V3.47211H8.875Z" fill="#333333"/>
<path d="M20.2533 27.446C21.7261 27.4456 23.1658 27.0084 24.3902 26.1898C25.6146 25.3712 26.5687 24.2079 27.1319 22.847C27.6952 21.4861 27.8422 19.9888 27.5544 18.5443C27.2666 17.0998 26.5569 15.7732 25.5151 14.7321C24.4733 13.6909 23.1462 12.9822 21.7015 12.6953C20.2569 12.4085 18.7596 12.5565 17.3991 13.1206C16.0386 13.6847 14.8759 14.6397 14.0581 15.8646C13.2403 17.0895 12.8041 18.5295 12.8047 20.0023C12.805 20.9802 12.9979 21.9484 13.3724 22.8516C13.7469 23.7549 14.2957 24.5756 14.9874 25.2668C15.679 25.958 16.5001 26.5062 17.4036 26.8801C18.3071 27.254 19.2754 27.4463 20.2533 27.446ZM20.2533 13.5253C21.5335 13.5258 22.7848 13.9059 23.8491 14.6174C24.9133 15.3289 25.7427 16.34 26.2324 17.5229C26.7222 18.7057 26.8502 20.0072 26.6004 21.2628C26.3505 22.5184 25.734 23.6717 24.8288 24.577C23.9236 25.4823 22.7703 26.0989 21.5147 26.3488C20.2592 26.5987 18.9577 26.4708 17.7748 25.9812C16.5919 25.4916 15.5808 24.6622 14.8691 23.598C14.1575 22.5338 13.7774 21.2825 13.7768 20.0023C13.7765 19.1517 13.9438 18.3094 14.2691 17.5235C14.5945 16.7376 15.0715 16.0235 15.673 15.422C16.2745 14.8206 16.9885 14.3435 17.7745 14.0182C18.5604 13.6928 19.4027 13.5255 20.2533 13.5258V13.5253Z" fill="#333333"/>
<path d="M18.6431 23.1845C18.7206 23.2261 18.8079 23.2458 18.8958 23.2416C18.9836 23.2375 19.0687 23.2096 19.1419 23.1608L23.2902 20.4047C23.3571 20.3604 23.412 20.3002 23.4499 20.2295C23.4879 20.1588 23.5078 20.0798 23.5078 19.9995C23.5078 19.9192 23.4879 19.8402 23.4499 19.7695C23.412 19.6988 23.3571 19.6386 23.2902 19.5943L19.1419 16.8382C19.0687 16.7894 18.9836 16.7615 18.8957 16.7574C18.8078 16.7532 18.7205 16.773 18.643 16.8146C18.5655 16.8562 18.5007 16.918 18.4555 16.9936C18.4104 17.0691 18.3866 17.1554 18.3867 17.2434V22.7556C18.3866 22.8436 18.4103 22.93 18.4555 23.0056C18.5006 23.0811 18.5655 23.143 18.6431 23.1845ZM19.3588 18.1504L22.1426 20L19.3588 21.8496V18.1504Z" fill="#333333"/>
</svg>
