<svg width="41" height="40" viewBox="0 0 41 40" fill="none" xmlns="http://www.w3.org/2000/svg">
<path d="M30.75 0.9375H11.375L10.75 1.25V15.9375C11.375 18.75 14.25 24.375 20.75 24.375C27.25 24.375 30.125 18.75 30.75 15.9375V0.9375Z" fill="#ECF7FB"/>
<path d="M21.0625 9.375L17.9375 7.8125L18.5625 11.25L16.375 13.4375L19.1875 14.0625L21.0625 16.875L22.625 14.0625L25.4375 13.4375L23.25 10.625L23.5625 7.8125L21.0625 9.375Z" fill="white"/>
<path d="M10.7256 19.0907H11.382C11.8955 20.0357 12.5404 20.9031 13.2975 21.667C15.1364 23.5066 17.5861 24.6078 20.1825 24.7623V35.5549H16.2276C15.2367 35.556 14.2867 35.9501 13.586 36.6508C12.8853 37.3514 12.4912 38.3015 12.4901 39.2924C12.4901 39.3852 12.5083 39.4772 12.5437 39.563C12.5792 39.6488 12.6312 39.7268 12.6968 39.7925C12.7624 39.8582 12.8403 39.9104 12.9261 39.946C13.0118 39.9816 13.1038 39.9999 13.1966 40H28.5814C28.7689 40 28.9488 39.9255 29.0814 39.7929C29.214 39.6603 29.2884 39.4805 29.2884 39.293C29.2874 38.302 28.8933 37.352 28.1926 36.6513C27.4919 35.9506 26.5419 35.5565 25.551 35.5555H21.5961V24.7628C24.198 24.6027 26.6505 23.4926 28.4879 21.6434C29.2394 20.886 29.8806 20.0267 30.3927 19.0907H31.0524C33.3698 19.0792 35.5884 18.1509 37.2234 16.5086C38.8584 14.8663 39.7769 12.6436 39.778 10.3262V7.14085C39.7772 6.99662 39.7477 6.85399 39.6912 6.72128C39.6347 6.58858 39.5524 6.46845 39.449 6.36792C39.3455 6.26738 39.2231 6.18845 39.0889 6.13573C38.9546 6.08301 38.8112 6.05755 38.667 6.06085H31.6969V1.73296C31.69 1.27317 31.5033 0.834349 31.1769 0.510456C30.8505 0.186563 30.4103 0.00333473 29.9504 0H11.8755C11.6504 0.00242729 11.4281 0.0491903 11.2211 0.137617C11.0141 0.226044 10.8266 0.3544 10.6693 0.515345C10.5119 0.676291 10.3879 0.866669 10.3041 1.0756C10.2204 1.28452 10.1787 1.5079 10.1814 1.73296V6.06085H3.11099C2.96679 6.05755 2.82339 6.08301 2.68914 6.13573C2.55489 6.18845 2.43248 6.26738 2.32906 6.36792C2.22564 6.46845 2.14328 6.58858 2.08679 6.72128C2.03029 6.85399 2.00079 6.99662 2 7.14085V10.3268C2.00131 12.6441 2.91982 14.8667 4.55482 16.5088C6.18981 18.151 8.40835 19.0792 10.7256 19.0907ZM27.7639 38.5837H14.0135C14.1687 38.1176 14.4652 37.7114 14.862 37.4217C15.2587 37.1321 15.7358 36.9732 16.227 36.9673H25.5493C26.0405 36.9732 26.5176 37.1321 26.9144 37.4217C27.3111 37.7114 27.6077 38.1176 27.7628 38.5837H27.7639ZM38.3634 7.47268V10.3245C38.3627 12.267 37.5933 14.1303 36.2234 15.5075C34.8535 16.8847 32.9943 17.6639 31.0518 17.6749H31.0203C31.4483 16.4986 31.6768 15.259 31.6963 14.0073V7.47211L38.3634 7.47268ZM11.5961 1.73296C11.5933 1.69349 11.5984 1.65387 11.6112 1.6164C11.6239 1.57894 11.644 1.54439 11.6702 1.51476C11.6964 1.48513 11.7283 1.46102 11.7639 1.44383C11.7995 1.42664 11.8382 1.41672 11.8777 1.41465H29.951C30.0362 1.41705 30.1174 1.4509 30.1791 1.50968C30.2408 1.56846 30.2786 1.648 30.2851 1.73296V14.0034C30.2552 16.4806 29.2572 18.8477 27.5045 20.5986C25.7519 22.3495 23.3837 23.3451 20.9065 23.3724C19.6828 23.3743 18.4707 23.1346 17.3398 22.667C16.209 22.1994 15.1815 21.5131 14.3165 20.6475C13.4515 19.782 12.7659 18.7541 12.2991 17.6229C11.8322 16.4917 11.5933 15.2795 11.5961 14.0558V1.73296ZM3.41409 7.47493H10.182V14.0558C10.1787 15.2864 10.376 16.5094 10.7662 17.6766H10.7256C8.78315 17.6656 6.92395 16.8864 5.55403 15.5092C4.18411 14.132 3.4148 12.2687 3.41409 10.3262V7.47493Z" fill="#333333"/>
<path d="M16.0078 14.1791L18.9588 14.6078L20.2788 17.2822C20.3372 17.4006 20.4275 17.5002 20.5395 17.5699C20.6516 17.6395 20.7809 17.6765 20.9129 17.6765C21.0448 17.6765 21.1741 17.6395 21.2862 17.5699C21.3982 17.5002 21.4886 17.4006 21.547 17.2822L22.8669 14.6078L25.8179 14.1791C25.9487 14.1606 26.0717 14.1057 26.173 14.0208C26.2742 13.9359 26.3496 13.8244 26.3907 13.6988C26.4317 13.5732 26.4368 13.4387 26.4052 13.3104C26.3737 13.1821 26.3069 13.0652 26.2123 12.9729L24.0771 10.8912L24.5813 7.95207C24.6036 7.82204 24.5891 7.68836 24.5394 7.56614C24.4897 7.44393 24.4068 7.33806 24.3 7.26051C24.1933 7.18296 24.067 7.13683 23.9354 7.12733C23.8038 7.11782 23.6722 7.14532 23.5554 7.20672L20.916 8.59433L18.2765 7.20672C18.1598 7.14532 18.0281 7.11782 17.8965 7.12733C17.7649 7.13683 17.6386 7.18296 17.5319 7.26051C17.4252 7.33806 17.3422 7.44393 17.2925 7.56614C17.2428 7.68836 17.2283 7.82204 17.2506 7.95207L17.7548 10.8912L15.6196 12.9729C15.525 13.0652 15.4582 13.1821 15.4267 13.3104C15.3951 13.4387 15.4002 13.5732 15.4413 13.6988C15.4823 13.8244 15.5577 13.9359 15.659 14.0208C15.7602 14.1057 15.8832 14.1606 16.014 14.1791H16.0078ZM19.005 11.6439C19.0872 11.5638 19.1486 11.4649 19.1841 11.3558C19.2195 11.2466 19.2278 11.1305 19.2084 11.0174L18.8833 9.12391L20.5841 10.018C20.6856 10.0714 20.7985 10.0993 20.9132 10.0993C21.0278 10.0993 21.1407 10.0714 21.2422 10.018L22.9424 9.12391L22.6179 11.0174C22.5984 11.1305 22.6068 11.2466 22.6422 11.3558C22.6777 11.4649 22.7391 11.5638 22.8213 11.6439L24.1971 12.9847L22.2957 13.2608C22.1822 13.2773 22.0744 13.3212 21.9817 13.3886C21.8889 13.456 21.814 13.545 21.7633 13.6478L20.9132 15.3707L20.063 13.6478C20.0123 13.545 19.9373 13.456 19.8446 13.3886C19.7518 13.3212 19.6441 13.2773 19.5306 13.2608L17.6292 12.9847L19.005 11.6439Z" fill="#333333"/>
</svg>
