<svg width="41" height="40" viewBox="0 0 41 40" fill="none" xmlns="http://www.w3.org/2000/svg">
<g clip-path="url(#clip0)">
<path d="M8.93902 7.1873L7.68902 9.6873C6.43911 9.3748 3.62643 5.9373 5.50143 2.8123C7.37643 -0.3127 10.8139 0.9373 11.7514 1.2498C12.5014 1.4998 13.3139 2.39563 13.6264 2.8123L11.1264 4.3748C9.56393 2.8123 8.31402 3.1248 7.68902 4.3748C7.18902 5.3748 8.31402 6.66647 8.93902 7.1873Z" fill="#ECF7FB"/>
<circle cx="20.5" cy="13.125" r="12.5" fill="#ECF7FB"/>
<path d="M25.5 19.6875C25.5 22.6875 22.1667 23.4375 20.5 23.4375C18.7292 23.4375 15.1875 22.6875 15.1875 19.6875C15.1875 16.6875 17.0625 15.7292 18 15.625C18.2083 15.9375 18.9375 16.5625 20.1875 16.5625C21.4375 16.5625 22.375 15.9375 22.6875 15.625C23.625 15.7292 25.5 16.6875 25.5 19.6875Z" fill="white"/>
<path d="M31.4366 7.55533L32.6864 10C33.9361 9.69442 36.7484 6.333 34.8737 3.27716C32.999 0.221324 29.562 1.44366 28.6247 1.74924C27.8748 1.99371 27.0624 2.86972 26.75 3.27716L29.2496 4.80508C30.8118 3.27716 32.0615 3.58274 32.6864 4.80508C33.1864 5.78295 32.0615 7.04603 31.4366 7.55533Z" fill="#ECF7FB"/>
<path d="M11.4375 37.8125L10.8125 32.8125L12.375 30.625L17.6875 30.3125L18.9375 33.125L16.4375 38.75L13.625 39.375L11.4375 37.8125Z" fill="#ECF7FB"/>
<path d="M29.25 37.7586L29.875 32.5862L28.3125 30.3233L23 30L21.75 32.9095L24.25 38.7284L27.0625 39.375L29.25 37.7586Z" fill="#ECF7FB"/>
<path d="M36.244 5.33689C36.2446 4.2531 35.915 3.19484 35.299 2.30309C34.6831 1.41134 33.8101 0.72842 32.7962 0.3453C31.7824 -0.0378202 30.6759 -0.102955 29.6242 0.158573C28.5724 0.420101 27.6253 0.995875 26.909 1.8092C24.886 0.628066 22.5855 0.0056465 20.243 0.0056465C17.9004 0.0056465 15.5999 0.628066 13.577 1.8092C13.0539 1.21506 12.4051 0.744921 11.6776 0.432972C10.95 0.121023 10.1622 -0.0249019 9.3712 0.00580602C8.58023 0.0365139 7.80604 0.243083 7.1049 0.610496C6.40377 0.97791 5.79331 1.49694 5.31791 2.12984C4.84251 2.76275 4.5141 3.49364 4.35657 4.26937C4.19904 5.04511 4.21634 5.8462 4.40721 6.61441C4.59809 7.38262 4.95774 8.09865 5.46002 8.71044C5.9623 9.32224 6.59459 9.81443 7.31093 10.1512C6.62615 12.8686 6.82292 15.7332 7.87283 18.3314C8.92274 20.9296 10.7714 23.1267 13.1518 24.6054C12.9455 24.8447 12.7515 25.0944 12.5706 25.3534C11.1449 25.2863 9.72677 25.596 8.45886 26.2513C7.09368 26.9014 5.93876 27.9222 5.12585 29.1971C4.76028 29.7189 4.53521 30.3259 4.47231 30.9598C4.40941 31.5938 4.51079 32.2332 4.7667 32.8166C5.38598 34.0658 6.82704 34.7499 8.56627 34.7499C9.17851 34.745 9.78789 34.6657 10.381 34.5138L10.6512 37.1381C10.7378 37.9317 11.1168 38.6647 11.7144 39.1941C12.3119 39.7235 13.0852 40.0114 13.8835 40.0017H14.8496C15.5638 40.0006 16.2581 39.7665 16.8272 39.3349C19.0182 40.22 21.4672 40.22 23.6582 39.3349C24.2274 39.7666 24.9219 40.0007 25.6363 40.0017H26.6024C27.4003 40.0115 28.1732 39.724 28.7707 39.1951C29.3682 38.6663 29.7475 37.934 29.8347 37.1409L30.1016 34.5194C30.695 34.6718 31.3048 34.7513 31.9175 34.7561C33.6561 34.7561 35.0972 34.0719 35.717 32.8227C35.9733 32.2391 36.0749 31.5993 36.0121 30.9649C35.9493 30.3306 35.7241 29.7231 35.3584 29.2011C34.5486 27.9794 33.44 26.985 32.1378 26.3123C30.8356 25.6396 29.3831 25.3108 27.9182 25.3573C27.736 25.0958 27.5406 24.844 27.3325 24.6027C29.7126 23.1243 31.5613 20.9278 32.6115 18.3301C33.6616 15.7325 33.859 12.8683 33.175 10.1512C34.0914 9.72365 34.8669 9.04361 35.4105 8.19089C35.954 7.33817 36.2432 6.34813 36.244 5.33689ZM5.58066 5.33689C5.57937 4.5413 5.81576 3.76346 6.25953 3.10313C6.7033 2.44279 7.3342 1.93008 8.07133 1.63073C8.80846 1.33138 9.6182 1.25905 10.3967 1.42302C11.1752 1.58698 11.887 1.97976 12.4408 2.55099C12.0785 2.81287 11.7297 3.09294 11.3958 3.39011C11.1226 3.13628 10.7992 2.94268 10.4464 2.82189C10.0936 2.70109 9.71932 2.65579 9.34789 2.68892C8.97646 2.72205 8.61614 2.83287 8.2903 3.0142C7.96445 3.19553 7.68035 3.44332 7.45642 3.7415C7.23249 4.03968 7.07372 4.3816 6.99042 4.74508C6.90712 5.10856 6.90114 5.48549 6.97287 5.85143C7.0446 6.21737 7.19244 6.56415 7.4068 6.86928C7.62116 7.17441 7.89726 7.43109 8.21719 7.62266C8.02381 8.02838 7.8511 8.44362 7.69973 8.86681C7.05912 8.52639 6.52331 8.01795 6.14978 7.39607C5.77626 6.77418 5.57912 6.06233 5.57954 5.33689H5.58066ZM8.85101 6.45125C8.69439 6.35399 8.55974 6.2252 8.45562 6.07306C8.35149 5.92093 8.28019 5.74878 8.24624 5.56758C8.21229 5.38638 8.21643 5.20009 8.25842 5.02058C8.3004 4.84107 8.37929 4.67226 8.49008 4.52491C8.60087 4.37756 8.74112 4.25489 8.90191 4.1647C9.0627 4.07452 9.24051 4.0188 9.42401 4.00109C9.60751 3.98338 9.79269 4.00407 9.96776 4.06184C10.1428 4.11961 10.304 4.2132 10.4409 4.33665C9.84142 4.98716 9.30792 5.69549 8.84821 6.45125H8.85101ZM5.9605 32.223C5.81027 31.8384 5.7599 31.4219 5.81409 31.0126C5.86828 30.6032 6.02527 30.2142 6.27042 29.8819C6.95173 28.8254 7.91578 27.9814 9.05296 27.4456C9.91253 27.0124 10.8492 26.7533 11.8092 26.6831C11.2176 27.9282 10.9106 29.2894 10.9108 30.6679C10.9108 30.8066 10.9214 30.942 10.9281 31.079C10.4627 31.6699 10.2259 32.4087 10.2613 33.1601C8.31061 33.7049 6.5132 33.3407 5.9605 32.223ZM14.8496 38.667H13.8835C13.4154 38.676 12.9607 38.5103 12.6082 38.2022C12.2557 37.894 12.0307 37.4656 11.977 37.0005L11.5854 33.2009C11.5456 32.7324 11.6841 32.2662 11.9731 31.8955C12.2622 31.5247 12.6805 31.2767 13.1445 31.201L15.9774 30.6975C16.0948 30.6764 16.2139 30.6657 16.3332 30.6656C16.6118 30.6643 16.8873 30.7237 17.1406 30.8396C17.3939 30.9555 17.6189 31.1252 17.8 31.3369C18.0078 31.5721 18.149 31.8585 18.2089 32.1666C18.2688 32.4746 18.2452 32.7931 18.1407 33.089L16.6666 37.3965C16.5337 37.7711 16.2872 38.0948 15.9615 38.3226C15.6358 38.5503 15.2471 38.6707 14.8496 38.667ZM28.8988 33.2009L28.5072 37.0005C28.4536 37.4656 28.2286 37.894 27.8761 38.2022C27.5236 38.5103 27.0689 38.676 26.6008 38.667H25.6363C25.239 38.6715 24.8501 38.5519 24.524 38.3248C24.1979 38.0978 23.9508 37.7746 23.8171 37.4004L22.3419 33.0929C22.2374 32.797 22.2138 32.4786 22.2737 32.1705C22.3336 31.8624 22.4748 31.576 22.6826 31.3408C22.8635 31.1284 23.0885 30.958 23.3421 30.8414C23.5956 30.7249 23.8715 30.6651 24.1505 30.6662C24.2698 30.6663 24.3889 30.677 24.5063 30.6981L27.3392 31.2015C27.8032 31.2771 28.2216 31.525 28.5107 31.8956C28.7999 32.2663 28.9385 32.7325 28.8988 33.2009ZM31.433 27.454C32.5709 27.9896 33.5356 28.8339 34.2172 29.8908C34.4625 30.2234 34.6195 30.6127 34.6736 31.0224C34.7277 31.4321 34.6771 31.8488 34.5266 32.2337C33.9733 33.3525 32.1742 33.7144 30.2286 33.1668C30.2657 32.413 30.0289 31.6712 29.5617 31.0785C29.5685 30.9414 29.5791 30.806 29.5791 30.6673C29.5793 29.2913 29.2736 27.9325 28.684 26.6893C29.6415 26.7602 30.5756 27.0191 31.433 27.4512V27.454ZM28.2147 30.0777C28.0076 29.9932 27.7924 29.9304 27.5725 29.8903L24.7401 29.3868C24.1785 29.2829 23.5994 29.3288 23.0612 29.5198C22.5229 29.7108 22.0445 30.0402 21.674 30.4749C21.3158 30.887 21.0727 31.3862 20.969 31.9223C20.8654 32.4584 20.905 33.0123 21.0838 33.5282L22.559 37.8357C22.6104 37.9838 22.6731 38.1278 22.7464 38.2664C21.1225 38.7994 19.3707 38.7994 17.7469 38.2664C17.8201 38.1278 17.8828 37.9838 17.9343 37.8357L19.4094 33.5282C19.588 33.0127 19.6275 32.4593 19.5241 31.9236C19.4207 31.388 19.178 30.8891 18.8204 30.4771C18.4499 30.0424 17.9714 29.713 17.4332 29.522C16.8949 29.331 16.3158 29.2852 15.7542 29.389L12.9219 29.8925C12.7019 29.9327 12.4867 29.9955 12.2797 30.0799C12.4057 28.2909 13.1373 26.5982 14.354 25.2807C16.1843 26.1964 18.2028 26.6732 20.2494 26.6732C22.296 26.6732 24.3145 26.1964 26.1448 25.2807C27.3594 26.5983 28.0894 28.29 28.2147 30.0777ZM20.2447 25.3349C17.8714 25.3353 15.5514 24.6318 13.5779 23.3136C11.6045 21.9953 10.0663 20.1214 9.15789 17.9289C8.24946 15.7365 8.0116 13.3238 8.47439 10.9961C8.93718 8.66847 10.0798 6.5303 11.7579 4.85206C13.4359 3.17381 15.5739 2.03085 17.9015 1.56773C20.2291 1.10462 22.6418 1.34214 24.8344 2.25026C27.027 3.15838 28.9011 4.69631 30.2196 6.66956C31.5381 8.64282 32.2419 10.9628 32.2419 13.336C32.2419 16.518 30.978 19.5697 28.7281 21.8199C26.4782 24.0701 23.4267 25.3345 20.2447 25.3349ZM31.6377 6.45125C31.1789 5.69561 30.6464 4.98729 30.0479 4.33665C30.2849 4.12474 30.5904 4.00555 30.9083 4.001C31.195 4.00176 31.4738 4.09494 31.7033 4.26669C31.9329 4.43845 32.1009 4.67963 32.1826 4.95445C32.2642 5.22928 32.2551 5.52311 32.1566 5.79233C32.058 6.06156 31.8753 6.29184 31.6355 6.44901L31.6377 6.45125ZM32.7879 8.86961C32.6365 8.44642 32.4638 8.03117 32.2704 7.62546C32.5925 7.43504 32.8709 7.17883 33.0872 6.87356C33.3036 6.56829 33.4532 6.22082 33.5262 5.85383C33.5992 5.48684 33.594 5.10859 33.5109 4.74375C33.4278 4.37891 33.2687 4.0357 33.044 3.73652C32.8193 3.43733 32.534 3.1889 32.2067 3.00743C31.8795 2.82597 31.5177 2.71555 31.1449 2.68339C30.7721 2.65123 30.3967 2.69805 30.0432 2.82079C29.6898 2.94353 29.3661 3.13943 29.0935 3.39571C28.7596 3.09853 28.4108 2.81847 28.0485 2.55658C28.4508 2.14248 28.9381 1.82046 29.4768 1.61269C30.0154 1.40492 30.5927 1.31633 31.1689 1.35301C31.7451 1.38969 32.3065 1.55078 32.8144 1.82518C33.3224 2.09959 33.7649 2.4808 34.1114 2.94257C34.458 3.40435 34.7004 3.93573 34.8219 4.50014C34.9434 5.06455 34.9412 5.6486 34.8155 6.21208C34.6897 6.77556 34.4433 7.3051 34.0933 7.76425C33.7433 8.22341 33.2979 8.60127 32.7879 8.87184V8.86961Z" fill="#333333"/>
<path d="M16.2421 14.0028C16.6377 14.0028 17.0243 13.8855 17.3532 13.6657C17.6821 13.446 17.9384 13.1336 18.0898 12.7682C18.2412 12.4027 18.2808 12.0006 18.2036 11.6127C18.1264 11.2247 17.936 10.8684 17.6563 10.5887C17.3766 10.309 17.0202 10.1185 16.6323 10.0414C16.2443 9.96419 15.8422 10.0038 15.4768 10.1552C15.1113 10.3065 14.799 10.5629 14.5792 10.8918C14.3595 11.2206 14.2422 11.6073 14.2422 12.0028C14.2422 12.5333 14.4529 13.0419 14.8279 13.417C15.203 13.7921 15.7117 14.0028 16.2421 14.0028ZM16.2421 11.3366C16.374 11.3366 16.5029 11.3757 16.6126 11.449C16.7222 11.5222 16.8077 11.6264 16.8582 11.7482C16.9086 11.8701 16.9218 12.0041 16.8961 12.1335C16.8704 12.2628 16.8069 12.3817 16.7136 12.4749C16.6204 12.5682 16.5015 12.6317 16.3722 12.6574C16.2428 12.6831 16.1088 12.6699 15.9869 12.6195C15.8651 12.569 15.7609 12.4835 15.6877 12.3739C15.6144 12.2642 15.5753 12.1353 15.5753 12.0034C15.5752 11.9158 15.5924 11.829 15.6259 11.7481C15.6594 11.6671 15.7085 11.5935 15.7704 11.5315C15.8323 11.4695 15.9059 11.4204 15.9868 11.3868C16.0677 11.3533 16.1545 11.336 16.2421 11.336V11.3366Z" fill="#333333"/>
<path d="M24.2421 10.0029C23.8466 10.0029 23.4599 10.1202 23.131 10.34C22.8021 10.5597 22.5458 10.8721 22.3944 11.2375C22.2431 11.6029 22.2034 12.0051 22.2806 12.393C22.3578 12.781 22.5483 13.1373 22.8279 13.417C23.1076 13.6967 23.464 13.8872 23.8519 13.9643C24.2399 14.0415 24.642 14.0019 25.0074 13.8505C25.3729 13.6992 25.6852 13.4428 25.905 13.1139C26.1247 12.7851 26.242 12.3984 26.242 12.0028C26.242 11.4724 26.0313 10.9637 25.6563 10.5887C25.2812 10.2136 24.7725 10.0029 24.2421 10.0029ZM24.2421 12.6691C24.1102 12.6691 23.9813 12.63 23.8716 12.5567C23.762 12.4835 23.6765 12.3793 23.626 12.2575C23.5756 12.1356 23.5624 12.0015 23.5881 11.8722C23.6138 11.7428 23.6773 11.624 23.7706 11.5308C23.8638 11.4375 23.9827 11.374 24.112 11.3483C24.2414 11.3225 24.3754 11.3358 24.4973 11.3862C24.6191 11.4367 24.7233 11.5222 24.7965 11.6318C24.8698 11.7415 24.9089 11.8704 24.9089 12.0023C24.9089 12.1791 24.8387 12.3488 24.7136 12.4738C24.5886 12.5989 24.419 12.6691 24.2421 12.6691Z" fill="#333333"/>
<path d="M22.8846 15.1585C22.7666 14.1247 21.6556 13.3359 20.2414 13.3359C18.8272 13.3359 17.7167 14.1247 17.5987 15.1585C15.5484 15.9311 14.2422 17.5209 14.2422 19.3357C14.2422 21.909 16.933 24.0018 20.2414 24.0018C23.5498 24.0018 26.2406 21.9084 26.2406 19.3357C26.2406 17.5209 24.9349 15.9316 22.8841 15.1585H22.8846ZM20.2414 14.669C21.0553 14.669 21.5745 15.0634 21.5745 15.3359C21.5745 15.6083 21.0553 16.0027 20.2414 16.0027C19.4274 16.0027 18.9083 15.6083 18.9083 15.3359C18.9083 15.0634 19.4274 14.669 20.2414 14.669ZM20.2414 22.6687C17.6681 22.6687 15.5753 21.1734 15.5753 19.3357C15.5753 18.129 16.5341 17.0074 17.9998 16.4267C18.2873 16.7289 18.636 16.9663 19.0225 17.1231C19.4091 17.2798 19.8246 17.3524 20.2414 17.3358C20.6582 17.3524 21.0737 17.2798 21.4602 17.1231C21.8468 16.9663 22.1954 16.7289 22.483 16.4267C23.9486 17.0074 24.9075 18.129 24.9075 19.3357C24.908 21.1734 22.8141 22.6681 20.2414 22.6681V22.6687Z" fill="#333333"/>
<path d="M20.9099 19.3352H19.5768C19.4876 19.3327 19.3988 19.348 19.3157 19.3803C19.2326 19.4127 19.1568 19.4613 19.0928 19.5235C19.0288 19.5856 18.978 19.66 18.9432 19.7421C18.9085 19.8243 18.8906 19.9126 18.8906 20.0018C18.8906 20.091 18.9085 20.1793 18.9432 20.2614C18.978 20.3436 19.0288 20.4179 19.0928 20.4801C19.1568 20.5422 19.2326 20.5909 19.3157 20.6232C19.3988 20.6556 19.4876 20.6709 19.5768 20.6683H20.9099C20.999 20.6709 21.0878 20.6556 21.1709 20.6232C21.254 20.5909 21.3298 20.5422 21.3938 20.4801C21.4578 20.4179 21.5086 20.3436 21.5434 20.2614C21.5781 20.1793 21.596 20.091 21.596 20.0018C21.596 19.9126 21.5781 19.8243 21.5434 19.7421C21.5086 19.66 21.4578 19.5856 21.3938 19.5235C21.3298 19.4613 21.254 19.4127 21.1709 19.3803C21.0878 19.348 20.999 19.3327 20.9099 19.3352Z" fill="#333333"/>
<path d="M14.9092 8.66931H17.5754C17.6646 8.67189 17.7533 8.65656 17.8365 8.62423C17.9196 8.59189 17.9954 8.54321 18.0594 8.48106C18.1233 8.41891 18.1742 8.34455 18.2089 8.2624C18.2437 8.18024 18.2616 8.09196 18.2616 8.00276C18.2616 7.91357 18.2437 7.82528 18.2089 7.74313C18.1742 7.66097 18.1233 7.58662 18.0594 7.52447C17.9954 7.46232 17.9196 7.41363 17.8365 7.3813C17.7533 7.34896 17.6646 7.33363 17.5754 7.33622H14.9092C14.7358 7.34124 14.5711 7.41367 14.4502 7.53812C14.3293 7.66258 14.2617 7.82925 14.2617 8.00276C14.2617 8.17627 14.3293 8.34295 14.4502 8.4674C14.5711 8.59185 14.7358 8.66428 14.9092 8.66931Z" fill="#333333"/>
<path d="M25.575 7.33622H22.9088C22.8196 7.33363 22.7309 7.34896 22.6477 7.3813C22.5646 7.41363 22.4888 7.46232 22.4248 7.52447C22.3609 7.58662 22.31 7.66097 22.2753 7.74313C22.2405 7.82528 22.2227 7.91357 22.2227 8.00276C22.2227 8.09196 22.2405 8.18024 22.2753 8.2624C22.31 8.34455 22.3609 8.41891 22.4248 8.48106C22.4888 8.54321 22.5646 8.59189 22.6477 8.62423C22.7309 8.65656 22.8196 8.67189 22.9088 8.66931H25.575C25.6641 8.67189 25.7529 8.65656 25.836 8.62423C25.9192 8.59189 25.9949 8.54321 26.0589 8.48106C26.1229 8.41891 26.1738 8.34455 26.2085 8.2624C26.2432 8.18024 26.2611 8.09196 26.2611 8.00276C26.2611 7.91357 26.2432 7.82528 26.2085 7.74313C26.1738 7.66097 26.1229 7.58662 26.0589 7.52447C25.9949 7.46232 25.9192 7.41363 25.836 7.3813C25.7529 7.34896 25.6641 7.33363 25.575 7.33622Z" fill="#333333"/>
</g>
<defs>
<clipPath id="clip0">
<rect width="40" height="40" fill="white" transform="translate(0.5)"/>
</clipPath>
</defs>
</svg>
