<svg width="41" height="40" viewBox="0 0 41 40" fill="none" xmlns="http://www.w3.org/2000/svg">
<path d="M39.8549 18.7094H34.0487V17.4193C34.0488 17.3343 34.0321 17.2502 33.9996 17.1717C33.9671 17.0933 33.9193 17.022 33.8592 16.962C33.7991 16.902 33.7276 16.8545 33.6491 16.8222C33.5705 16.7898 33.4864 16.7734 33.4014 16.7736H32.5118L31.8668 15.4835H35.9839C36.2381 15.4836 36.4898 15.4336 36.7247 15.3364C36.9595 15.2391 37.173 15.0966 37.3527 14.9169C37.5325 14.7372 37.6751 14.5238 37.7724 14.289C37.8696 14.0542 37.9197 13.8025 37.9197 13.5483V3.22548C37.9198 2.97125 37.8698 2.7195 37.7725 2.4846C37.6753 2.24971 37.5327 2.03628 37.3529 1.85651C37.1731 1.67675 36.9597 1.53416 36.7248 1.43691C36.4899 1.33965 36.2382 1.28963 35.9839 1.2897H21.7901C21.2769 1.2897 20.7847 1.49359 20.4217 1.85651C20.0588 2.21944 19.8549 2.71167 19.8549 3.22492V13.5477C19.8549 14.061 20.0588 14.5532 20.4217 14.9161C20.7847 15.2791 21.2769 15.4829 21.7901 15.4829H25.9085L25.2634 16.7731H24.371C24.2863 16.7731 24.2024 16.7898 24.1241 16.8222C24.0459 16.8546 23.9748 16.9021 23.9149 16.962C23.855 17.0219 23.8074 17.093 23.775 17.1713C23.7426 17.2496 23.7259 17.3334 23.7259 17.4182V18.7083H17.2741V15.4835C17.2741 15.3124 17.2061 15.1483 17.0851 15.0274C16.9642 14.9064 16.8001 14.8384 16.629 14.8384H15.6059L17.0854 13.359L16.1732 12.4469L14.6938 13.9263V12.2576H13.4014V14.8384H12.758C12.5869 14.8384 12.4229 14.9064 12.3019 15.0274C12.1809 15.1483 12.113 15.3124 12.113 15.4835V18.7094H7.59859V16.7736C7.59859 16.6026 7.53063 16.4385 7.40966 16.3175C7.28868 16.1965 7.1246 16.1286 6.95352 16.1286H5.66338V10.8486C6.03946 10.7156 6.36526 10.4697 6.59621 10.1445C6.82715 9.81922 6.95195 9.43056 6.95352 9.03168C6.95238 8.74416 6.88612 8.46063 6.75972 8.20238L10.5 4.46097L11.4679 5.42886V8.38717C11.4679 8.51478 11.5057 8.63952 11.5766 8.74562C11.6475 8.85172 11.7483 8.93441 11.8662 8.98323C11.9445 9.01589 12.0286 9.03255 12.1135 9.03224C12.2845 9.0322 12.4484 8.96432 12.5693 8.84351L17.7304 3.68238C17.8207 3.59216 17.8822 3.47719 17.9071 3.352C17.9321 3.22682 17.9193 3.09705 17.8704 2.97913C17.8216 2.86121 17.7388 2.76043 17.6327 2.68956C17.5265 2.61868 17.4017 2.58089 17.2741 2.58097H14.3158L11.9237 0.188859C11.8027 0.0679325 11.6387 0 11.4676 0C11.2966 0 11.1325 0.0679325 11.0115 0.188859L9.07634 2.12407C8.95541 2.24504 8.88748 2.40908 8.88748 2.58013C8.88748 2.75117 8.95541 2.91522 9.07634 3.03618L9.58789 3.54773L5.84592 7.2897C5.58731 7.164 5.30359 7.09851 5.01606 7.09816C4.55992 7.09704 4.11811 7.25747 3.76896 7.55099C3.41981 7.84451 3.18585 8.25218 3.10856 8.70172C3.03128 9.15127 3.11565 9.61366 3.34673 10.0069C3.57781 10.4002 3.94067 10.699 4.37099 10.8503V16.1303H3.08085C2.90976 16.1303 2.74569 16.1982 2.62471 16.3192C2.50374 16.4402 2.43577 16.6043 2.43577 16.7753V18.7094H1.14507C0.973987 18.7094 0.809911 18.7774 0.688937 18.8984C0.567963 19.0193 0.5 19.1834 0.5 19.3545V23.2255C0.5 23.3966 0.567963 23.5606 0.688937 23.6816C0.809911 23.8026 0.973987 23.8706 1.14507 23.8706H3.08085V39.3545C3.08085 39.5256 3.14881 39.6897 3.26978 39.8106C3.39076 39.9316 3.55483 39.9996 3.72592 39.9996H6.30676C6.46932 40.0001 6.62608 39.9392 6.74568 39.8291C6.86529 39.719 6.93891 39.5678 6.95183 39.4058L8.19127 23.87H32.8076L34.047 39.4058C34.06 39.5681 34.1338 39.7195 34.2538 39.8297C34.3738 39.9398 34.531 40.0005 34.6938 39.9996H37.2747C37.4457 39.9996 37.6098 39.9316 37.7308 39.8106C37.8518 39.6897 37.9197 39.5256 37.9197 39.3545V23.8706H39.8555C40.0265 23.8704 40.1904 23.8024 40.3113 23.6814C40.4321 23.5605 40.5 23.3965 40.5 23.2255V19.3545C40.5 19.1834 40.432 19.0193 40.3111 18.8984C40.1901 18.7774 40.026 18.7094 39.8549 18.7094ZM12.7563 6.82942V5.42773L14.3135 3.87055H15.7169L12.7563 6.82942ZM11.4662 1.55731L13.1344 3.22548L12.113 4.24858L10.4448 2.58041L11.4662 1.55731ZM5.01606 8.38661C5.14364 8.38661 5.26836 8.42444 5.37444 8.49532C5.48052 8.5662 5.5632 8.66695 5.61202 8.78482C5.66085 8.90269 5.67362 9.03239 5.64873 9.15752C5.62384 9.28266 5.5624 9.3976 5.47219 9.48781C5.38198 9.57802 5.26703 9.63946 5.1419 9.66435C5.01677 9.68924 4.88707 9.67647 4.7692 9.62764C4.65133 9.57882 4.55058 9.49614 4.4797 9.39006C4.40882 9.28398 4.37099 9.15926 4.37099 9.03168C4.37099 8.86059 4.43895 8.69652 4.55992 8.57554C4.6809 8.45457 4.84497 8.38661 5.01606 8.38661ZM21.7901 2.58041H35.9839C36.0687 2.58041 36.1525 2.59709 36.2308 2.62951C36.3091 2.66193 36.3802 2.70945 36.4401 2.76935C36.5 2.82925 36.5475 2.90036 36.5799 2.97862C36.6123 3.05689 36.629 3.14077 36.629 3.22548V10.3241H21.1451V3.22548C21.1451 3.0544 21.213 2.89032 21.334 2.76935C21.455 2.64837 21.6191 2.58041 21.7901 2.58041ZM21.1451 13.5477V11.6125H36.629V13.5477C36.629 13.6324 36.6123 13.7163 36.5799 13.7946C36.5475 13.8729 36.5 13.944 36.4401 14.0039C36.3802 14.0638 36.3091 14.1113 36.2308 14.1437C36.1525 14.1761 36.0687 14.1928 35.9839 14.1928H21.7901C21.6191 14.1928 21.455 14.1248 21.334 14.0039C21.213 13.8829 21.1451 13.7188 21.1451 13.5477ZM27.3507 15.4835H30.4245L31.0696 16.7736H26.7051L27.3507 15.4835ZM25.0166 18.0644H32.758V18.7094H25.0161L25.0166 18.0644ZM13.4014 16.1286H15.9823V18.7094H13.4014V16.1286ZM3.72592 17.4187H6.30676V18.7089H3.72592V17.4187ZM5.71127 38.7094H4.37099V23.8706H6.89831L5.71127 38.7094ZM36.6296 38.7094H35.2893L34.1023 23.8706H36.6296V38.7094ZM39.2099 22.5804H1.79014V19.9996H39.2099V22.5804Z" fill="#333333"/>
</svg>
