<?xml version="1.0" encoding="UTF-8" standalone="no"?>
<!-- Created with Inkscape (http://www.inkscape.org/) -->

<svg
   xmlns:dc="http://purl.org/dc/elements/1.1/"
   xmlns:cc="http://creativecommons.org/ns#"
   xmlns:rdf="http://www.w3.org/1999/02/22-rdf-syntax-ns#"
   xmlns:svg="http://www.w3.org/2000/svg"
   xmlns="http://www.w3.org/2000/svg"
   xmlns:sodipodi="http://sodipodi.sourceforge.net/DTD/sodipodi-0.dtd"
   xmlns:inkscape="http://www.inkscape.org/namespaces/inkscape"
   width="117.16964mm"
   height="295.63599mm"
   viewBox="0 0 117.16964 295.63599"
   version="1.1"
   id="svg8"
   inkscape:version="0.92.3 (2405546, 2018-03-11)"
   sodipodi:docname="I go grrr.svg">
  <title
     id="title113">I go grrrr</title>
  <defs
     id="defs2" />
  <sodipodi:namedview
     id="base"
     pagecolor="#ffffff"
     bordercolor="#666666"
     borderopacity="1.0"
     inkscape:pageopacity="0.0"
     inkscape:pageshadow="2"
     inkscape:zoom="0.5"
     inkscape:cx="76.979461"
     inkscape:cy="534.32236"
     inkscape:document-units="mm"
     inkscape:current-layer="layer1"
     showgrid="false"
     fit-margin-top="0"
     fit-margin-left="0"
     fit-margin-right="0"
     fit-margin-bottom="0"
     inkscape:window-width="1600"
     inkscape:window-height="845"
     inkscape:window-x="0"
     inkscape:window-y="27"
     inkscape:window-maximized="1" />
  <metadata
     id="metadata5">
    <rdf:RDF>
      <cc:Work
         rdf:about="">
        <dc:format>image/svg+xml</dc:format>
        <dc:type
           rdf:resource="http://purl.org/dc/dcmitype/StillImage" />
        <dc:title>I go grrrr</dc:title>
        <dc:date>2021</dc:date>
        <dc:creator>
          <cc:Agent>
            <dc:title>Doodleguy</dc:title>
          </cc:Agent>
        </dc:creator>
        <dc:rights>
          <cc:Agent>
            <dc:title>public domain</dc:title>
          </cc:Agent>
        </dc:rights>
        <cc:license
           rdf:resource="http://creativecommons.org/publicdomain/zero/1.0/" />
      </cc:Work>
      <cc:License
         rdf:about="http://creativecommons.org/publicdomain/zero/1.0/">
        <cc:permits
           rdf:resource="http://creativecommons.org/ns#Reproduction" />
        <cc:permits
           rdf:resource="http://creativecommons.org/ns#Distribution" />
        <cc:permits
           rdf:resource="http://creativecommons.org/ns#DerivativeWorks" />
      </cc:License>
    </rdf:RDF>
  </metadata>
  <g
     inkscape:groupmode="layer"
     id="layer2"
     inkscape:label="2"
     transform="translate(-1.1050584,-0.88899309)" />
  <g
     inkscape:label="Layer 1"
     inkscape:groupmode="layer"
     id="layer1"
     transform="translate(-1.1050584,-0.88899309)">
    <g
       id="g111">
      <path
         transform="scale(0.26458333)"
         inkscape:connector-curvature="0"
         id="path50"
         d="m 354.81952,9.6278431 c -3.25117,-0.2233278 -8.23097,2.6611119 -5.56585,6.3341999 5.80565,7.87195 14.99617,12.328043 21.68966,19.366027 3.80709,3.92469 9.00538,7.626085 11.45937,12.273496 -5.50056,-2.010631 -9.47832,-7.144688 -14.22397,-10.506309 -11.618,-9.149555 -24.56234,-18.745214 -39.79773,-19.964241 -3.87363,-0.01179 -10.81031,0.482288 -10.57799,5.827693 0.73084,5.509045 7.6355,6.581013 11.91866,8.175654 5.80301,0.998023 11.75697,1.454046 17.12824,4.180829 8.20406,3.822359 17.43582,8.119091 21.9658,16.37277 3.69455,13.073876 11.07245,24.753291 17.74922,36.475666 0.51909,2.328586 5.60415,3.95724 2.66703,6.447234 -2.7978,1.936679 -5.34087,-2.362306 -7.03816,-4.036321 -5.7045,-6.243651 -8.81574,-14.875467 -15.73606,-19.916887 -5.28101,-1.831708 -11.20045,-0.04453 -16.46291,1.013015 -0.99011,3.266034 2.77595,6.15938 4.40117,8.657837 5.41105,4.949384 7.54381,12.08537 8.2801,19.154266 2.65576,11.741478 13.33846,19.111228 20.84433,27.710618 3.53321,3.08509 6.86407,6.24301 4.98896,11.27469 -1.06602,7.29302 -1.12015,15.19334 -4.52217,21.85569 -15.8848,23.90592 -32.85241,47.10336 -47.82269,71.61671 -8.7194,13.08746 -17.40154,26.39179 -22.69831,41.30284 -1.47381,3.00303 -2.94965,7.21628 -7.06248,6.94372 -14.04283,2.84833 -29.22184,0.82997 -42.51655,6.86217 -8.67991,5.83591 -12.12097,16.53116 -13.78014,26.35697 -6.17834,16.90457 -16.78479,31.95431 -28.33742,45.6275 -8.21962,8.60905 -16.35246,19.76683 -29.10248,21.22857 -7.29939,1.62994 -15.2106,0.6929 -21.1989,-4.05062 -8.68721,-4.99424 -16.35312,-12.43187 -19.13754,-22.31277 -4.46568,-10.30946 1.08836,-21.11613 1.1096,-31.69687 1.838,-22.80704 -0.44655,-46.20035 -8.20072,-67.78738 -3.31909,-6.51293 -4.56167,-13.89844 -8.11455,-20.37133 -4.35162,-9.60146 -8.94144,-19.09536 -13.43586,-28.63185 3.89509,-18.52497 6.95986,-37.31385 6.38285,-56.31242 0.16832,-16.90362 0.0944,-34.036 -4.43695,-50.453263 -0.85269,-3.43191 -1.8162,-8.010981 2.13191,-9.97418 13.04978,-8.059266 29.59048,-5.168949 43.31351,-11.301979 4.69282,-2.240616 3.06293,-8.487959 3.16639,-12.641215 -0.38529,-4.110112 -4.56886,-6.335118 -8.4003,-5.710366 -11.71638,-0.728761 -24.86894,-0.266038 -33.94455,8.255779 -1.44695,1.015676 -4.55391,4.162184 -5.42421,0.965798 -3.21905,-12.16427 -4.3203,-24.85108 -8.0313,-36.9354 -1.87095,-5.492864 -2.58145,-11.85744 -6.16807,-16.523991 -8.4188,-3.106524 -17.931868,-2.173065 -26.581603,-0.416366 -10.800651,2.950541 -16.717933,13.637417 -22.365006,22.403638 -2.401393,4.908536 -6.103227,10.312213 -4.949175,16.005052 2.434446,3.964882 7.7849,0.747102 10.772575,-0.862779 9.088108,-5.878966 17.874646,-13.283505 28.70493,-15.497114 4.781769,-0.636244 5.041209,5.82052 5.947699,9.004894 0.32665,2.720553 1.47625,6.553398 -0.21587,8.764348 -2.48649,-2.568084 -0.97306,-7.10959 -4.415483,-9.182945 -1.834104,-2.488588 -7.286213,-1.75665 -6.020852,1.997412 1.050075,2.405954 4.594629,6.281611 0.70539,7.965325 -3.106391,-1.833536 -4.613907,-7.24158 -8.97834,-7.144039 -6.540387,2.735069 -11.505548,8.553168 -15.319692,14.386804 -2.624443,3.487749 2.229041,6.216123 4.057779,8.632083 9.350977,7.310828 15.505074,17.704677 21.937269,27.518225 1.463553,3.105869 4.512209,6.083699 4.541319,9.624199 -2.670416,4.38947 -6.484356,8.32015 -7.019559,13.74866 -2.724444,17.11095 -2.028218,34.58954 -1.569599,51.84973 0.712976,16.62171 8.491928,32.21096 8.162776,48.88652 -2.224038,21.35432 -12.469344,40.99964 -15.444173,62.22883 -0.608445,10.87239 5.103672,20.81331 8.743686,30.7238 6.477924,15.70204 15.062559,30.37023 23.671339,44.95752 1.46102,2.96095 -3.18105,4.61544 -3.95047,7.16979 -2.61452,5.61025 -1.08456,12.24925 -1.72539,18.25406 -0.35513,35.21159 0.28195,70.42322 0.60792,105.6327 -6.40332,12.06505 -10.71153,25.09788 -12.795738,38.59613 -3.717552,20.54747 -4.511906,41.79792 -1.466581,62.48065 1.845157,12.41532 8.388509,24.49009 19.540589,30.80536 16.89606,7.27294 34.66479,12.43985 52.06265,18.41002 8.17845,3.08758 16.75465,5.20497 25.56027,4.40713 12.40558,-0.78039 25.41686,-0.8018 37.00865,-5.78709 13.45706,-7.29746 25.73464,-16.70961 37.425,-26.54352 13.61832,-12.47183 17.40015,-31.67038 19.42612,-49.22562 5.06732,-39.66357 4.57183,-79.99439 13.1541,-119.20055 2.55148,-15.27916 8.27233,-30.00542 9.47704,-45.49152 0.46858,-3.56124 0.74235,-7.37964 -3.90039,-6.28841 -4.73997,-0.77315 -5.33206,6.57771 -9.93842,5.54725 -3.65419,-1.57765 -0.58796,-6.03311 1.64115,-7.45309 9.29278,-7.13773 19.73859,-12.7415 28.49766,-20.63401 10.95647,-9.64277 22.4594,-19.85461 28.47294,-33.45637 2.83851,-9.90555 3.57511,-20.33924 5.88349,-30.39445 0.23427,-4.37219 2.76855,-9.28778 0.83989,-13.50998 -2.20016,-2.91917 -5.25226,2.05447 -7.76215,2.27213 -2.35465,-0.40447 -5.86701,-3.16466 -3.22219,-5.47715 4.34942,-5.33243 10.68353,-8.26112 16.02795,-12.31928 5.99209,-8.2149 6.87505,-18.96155 9.04593,-28.61683 4.73186,-20.63397 11.47588,-40.75926 17.15794,-61.15082 3.37952,-12.11902 7.85884,-23.86657 12.54678,-35.51559 3.84638,-12.72779 1.13479,-26.70419 6.99237,-38.94525 6.86284,-16.368409 15.08827,-32.20055 20.22165,-49.254231 3.0576,-8.585965 7.43977,-17.138508 6.4501,-26.548697 1.28632,-6.601369 -5.58662,-11.056415 -11.46509,-10.990059 -2.12609,-0.455624 -6.65596,-0.27591 -5.16237,3.08769 2.88569,6.750919 6.13872,15.6246 0.9286,22.094583 -1.26157,2.261607 -6.35513,2.358999 -5.53295,-1.011584 1.07022,-6.677137 2.3301,-14.032371 -1.7034,-20.035071 -2.85231,-5.033059 -5.18433,-13.236993 -12.23556,-13.285654 -4.49483,0.23024 -10.87437,-0.161954 -13.33659,4.405466 -2.10368,9.733263 10.65191,15.314004 9.27738,25.004853 -0.19067,2.314027 -2.44628,-1.346333 -3.01472,-1.74559 -10.8314,-12.724875 -20.87231,-27.681091 -36.55721,-34.820215 -2.0013,-0.776723 -4.14164,-1.2971095 -6.3013,-1.2133279 z"
         style="opacity:1;vector-effect:none;fill:#00aa00;fill-opacity:1;stroke:none;stroke-width:1.8412441;stroke-linecap:round;stroke-linejoin:miter;stroke-miterlimit:4;stroke-dasharray:none;stroke-dashoffset:0;stroke-opacity:1" />
      <path
         transform="scale(0.26458333)"
         inkscape:connector-curvature="0"
         id="path52"
         d="m 63.661816,15.832112 c -6.492647,0.187822 -12.157337,4.305286 -16.217527,9.094592 -2.696961,3.356299 -5.198223,7.10212 -6.149626,11.359924 -0.463084,1.927261 0.152918,4.353312 2.201303,5.069721 3.111047,1.256612 6.771689,0.156555 9.036286,-2.22348 4.395001,-4.187698 7.39602,-9.548151 10.732513,-14.557786 1.301622,-2.275248 3.028895,-4.458417 3.543762,-7.07858 0.175785,-1.685648 -2.016959,-1.647636 -3.146711,-1.664391 z"
         style="opacity:1;vector-effect:none;fill:#00aa00;fill-opacity:1;stroke:none;stroke-width:0.46031103;stroke-linecap:round;stroke-linejoin:miter;stroke-miterlimit:4;stroke-dasharray:none;stroke-dashoffset:0;stroke-opacity:1" />
      <path
         transform="scale(0.26458333)"
         inkscape:connector-curvature="0"
         id="path54"
         d="m 37.562392,20.490117 c -2.290739,0.580128 -3.97543,2.458126 -5.668498,3.993819 -2.278049,2.414538 -4.724093,4.963411 -5.722188,8.207064 -0.415497,1.128398 0.22738,2.778968 1.614313,2.641993 2.855115,-0.0214 5.207151,-2.084294 7.105049,-4.011637 2.224603,-2.471153 3.825547,-5.670327 4.045618,-9.013036 0.02885,-0.827395 -0.34865,-1.937322 -1.374294,-1.818203 z"
         style="opacity:1;vector-effect:none;fill:#00aa00;fill-opacity:1;stroke:none;stroke-width:0.46031103;stroke-linecap:round;stroke-linejoin:miter;stroke-miterlimit:4;stroke-dasharray:none;stroke-dashoffset:0;stroke-opacity:1" />
      <path
         transform="scale(0.26458333)"
         inkscape:connector-curvature="0"
         id="path56"
         d="m 20.076452,20.312697 c -2.337741,0.170907 -5.055252,0.211215 -6.854658,1.928017 -1.742505,2.166307 -1.610166,5.158543 -1.940044,7.777551 -0.0062,1.54716 -0.332765,3.312395 0.479544,4.708064 1.148202,0.759757 2.475721,-0.442005 3.251883,-1.234013 3.112419,-3.079902 6.258562,-6.264789 8.429257,-10.100514 0.557163,-0.892819 0.692626,-2.431768 -0.541561,-2.817625 -0.904164,-0.300187 -1.883458,-0.258025 -2.824421,-0.26148 z"
         style="opacity:1;vector-effect:none;fill:#00aa00;fill-opacity:1;stroke:none;stroke-width:0.46031103;stroke-linecap:round;stroke-linejoin:miter;stroke-miterlimit:4;stroke-dasharray:none;stroke-dashoffset:0;stroke-opacity:1" />
      <path
         transform="scale(0.26458333)"
         inkscape:connector-curvature="0"
         id="path58"
         d="m 204.94821,213.34987 c -3.39408,-0.0271 -6.96557,0.57062 -9.65743,2.7958 -6.27363,4.53762 -10.38304,11.29279 -14.09437,17.9376 -2.82203,5.35206 -5.60168,10.86208 -6.84323,16.82646 -0.26356,1.68761 -0.56314,4.02392 1.14286,5.06042 2.6127,0.75538 5.27374,-0.62522 7.90022,-0.0111 1.77601,0.17334 3.29223,1.19206 4.52533,2.43763 2.33034,2.07317 5.71692,1.63276 8.58448,1.46384 3.49631,-0.24163 7.04555,-1.20222 10.52433,-0.59021 3.32025,1.03367 3.59151,5.58778 6.86861,6.66615 3.58369,1.08795 7.34641,-1.35335 10.86307,-0.001 1.95882,0.88645 2.38279,3.18339 2.40001,5.11101 0.32843,6.5018 -1.21034,12.90718 -2.35065,19.27001 -1.68958,7.8942 -3.51843,15.95161 -7.6208,22.99048 -1.98588,3.34488 -5.11525,6.59148 -9.21841,6.80223 -3.25192,0.27449 -6.20617,-1.37526 -8.93366,-2.95485 -3.9502,-1.82945 -8.28005,-2.6399 -12.47342,-3.72453 -6.38833,-1.41018 -12.80116,-2.93763 -19.34334,-3.39784 -0.81171,0.0692 -1.86499,-0.25729 -2.54306,0.264 -2.25119,7.14076 -4.35844,14.33462 -6.24103,21.58219 -1.90118,8.20118 -2.91729,17.13005 0.24343,25.15884 2.45811,6.28458 7.73946,11.03994 13.509,14.29236 3.54104,2.09706 7.72455,2.85754 11.79819,2.48201 5.99874,-0.4451 11.99175,-1.20379 17.8822,-2.42943 3.02223,-0.55586 4.98749,-3.16401 7.06606,-5.18097 8.03279,-8.76912 15.11143,-18.37162 21.7773,-28.20557 4.24588,-6.29423 8.13506,-12.88763 10.70202,-20.06232 6.49044,-17.36064 9.32422,-36.00405 9.04357,-54.50573 -0.29763,-10.92792 -1.53967,-22.06476 -5.78481,-32.23162 -2.25095,-5.43247 -5.96335,-10.52558 -11.36923,-13.13842 -7.31571,-3.58777 -15.6303,-3.98541 -23.61374,-4.57859 -1.57952,-0.0876 -3.16134,-0.14697 -4.7435,-0.12878 z m -9.19976,7.12008 c 2.22708,0.13679 3.78298,2.47815 3.54591,4.60256 0.11506,2.01743 -0.8454,4.33236 -2.79545,5.16022 -2.07988,0.45998 -3.59084,-1.69786 -4.14005,-3.42572 -0.98678,-2.53524 0.43805,-6.11642 3.38959,-6.33706 z m 22.47661,10.24997 c 1.81846,0.0401 4.17588,0.39514 5.07545,2.22384 0.32294,1.03066 -0.0166,2.18811 -1.00872,2.72676 -1.87713,1.30517 -4.49145,1.41092 -6.57422,0.52225 -1.22635,-0.75797 -2.66698,-1.99521 -2.51358,-3.56987 0.71749,-1.54926 2.75904,-1.70064 4.23484,-1.87687 0.26576,-0.0179 0.52261,-0.0265 0.78623,-0.0261 z"
         style="opacity:1;vector-effect:none;fill:#00aa00;fill-opacity:1;stroke:none;stroke-width:0.46031103;stroke-linecap:round;stroke-linejoin:miter;stroke-miterlimit:4;stroke-dasharray:none;stroke-dashoffset:0;stroke-opacity:1" />
      <path
         transform="scale(0.26458333)"
         inkscape:connector-curvature="0"
         id="path60"
         d="m 366.52303,278.78459 c -0.0537,0.0161 -0.0943,0.0581 -0.14108,0.0873 -0.43797,0.31406 -0.88025,0.62289 -1.32559,0.92755 -0.0537,0.0341 -0.0614,0.11798 -0.0127,0.15971 0.0356,0.0338 0.0894,0.0305 0.13094,0.0101 0.4235,-0.16108 0.79746,-0.42845 1.13558,-0.72596 0.10671,-0.0951 0.21171,-0.19266 0.30941,-0.29704 0.0392,-0.0468 0.0232,-0.12575 -0.0324,-0.15186 -0.0196,-0.0108 -0.0423,-0.0121 -0.0643,-0.01 z"
         style="opacity:1;vector-effect:none;fill:#00aa00;fill-opacity:1;stroke:none;stroke-width:0.00981791;stroke-linecap:round;stroke-linejoin:miter;stroke-miterlimit:4;stroke-dasharray:none;stroke-dashoffset:0;stroke-opacity:1" />
      <path
         transform="scale(0.26458333)"
         inkscape:connector-curvature="0"
         id="path62"
         d="m 439.987,37.407129 c -0.0593,0.01828 -0.0772,0.08162 -0.0749,0.137185 -0.0235,0.200087 -0.0627,0.398223 -0.0922,0.597094 0.0706,0.703429 0.11813,1.410561 0.13391,2.117131 0.006,0.16967 0.003,0.341839 0.0152,0.511811 0.0183,0.0765 0.12553,0.10253 0.17407,0.03924 0.0427,-0.06435 0.0217,-0.149559 0.0325,-0.223069 0.05,-0.993298 0.0459,-1.990654 -0.0449,-2.981541 -0.009,-0.07012 -7.7e-4,-0.167645 -0.0831,-0.196447 -0.0192,-0.0087 -0.0402,-8.95e-4 -0.0604,-0.0014 z"
         style="opacity:1;vector-effect:none;fill:#00aa00;fill-opacity:1;stroke:none;stroke-width:0.01963583;stroke-linecap:round;stroke-linejoin:miter;stroke-miterlimit:4;stroke-dasharray:none;stroke-dashoffset:0;stroke-opacity:1" />
      <path
         transform="scale(0.26458333)"
         inkscape:connector-curvature="0"
         id="path64"
         d="m 205.6576,979.28686 c -2.55012,0.0474 -5.40053,0.4503 -7.11871,2.55912 -1.49109,1.6814 -3.85743,1.67507 -5.90372,2.03915 -1.7923,0.51394 -2.05363,2.74665 -2.32054,4.29995 -1.24195,11.86062 -0.0938,23.91092 -2.24423,35.68022 -1.38641,8.4786 -4.92978,16.4894 -9.70434,23.5999 -3.42562,5.0294 -6.94083,10.0789 -11.23749,14.3978 -2.74494,2.7769 -6.34215,4.5005 -10.08623,5.4651 -4.70002,1.376 -9.85009,2.6117 -13.37017,6.2633 -1.22088,1.1898 -1.92873,3.4747 -0.49788,4.7664 1.5849,0.8725 3.44642,-0.095 4.99118,-0.615 4.59211,-1.849 8.72261,-4.8032 13.47957,-6.2096 0.72263,-0.1023 1.66245,-0.3571 2.24493,0.1219 0.0718,1.3519 -1.30222,2.2413 -2.03466,3.2137 -1.99145,2.2272 -4.45605,4.069 -6.09431,6.5898 -0.37891,0.7558 -1.18366,2.1533 -0.0697,2.6869 1.74492,0.7268 3.49415,-0.6176 4.89841,-1.5242 3.48172,-2.903 7.71904,-4.6968 12.0922,-5.7562 0.41754,-0.034 2.05926,-0.719 1.5261,-0.2134 -2.835,2.7195 -6.32028,5.0313 -8.13694,8.6246 -0.5847,1.209 -0.62286,3.3216 1.00506,3.6946 2.94452,0.6016 5.72556,-1.1204 8.15727,-2.5588 2.06681,-1.2307 4.2821,-3.3168 6.87496,-2.6084 1.00436,0.4946 1.97084,1.3875 2.32883,2.4455 -1.37707,0.8315 -3.23024,0.113 -4.55407,1.1877 -2.35118,1.7466 -2.84479,4.9214 -3.26295,7.626 -0.2808,4.0307 -0.40868,8.116 0.10376,12.1309 0.41197,2.3858 2.26518,4.3926 4.6428,4.909 1.50341,0.3354 3.08434,0.6464 4.6214,0.5372 2.34508,-0.486 3.3779,-3.0001 4.33172,-4.9256 2.71369,-6.4861 4.48931,-13.3212 6.21032,-20.1242 0.81662,-3.1984 1.36786,-6.4754 1.8125,-9.727 0.88201,-3.9442 3.79173,-7.2758 7.31479,-9.1456 2.67364,-1.2729 5.76031,-0.8066 8.50512,-1.8828 6.88404,-2.315 12.64751,-7.4522 16.24679,-13.7049 1.37812,-2.3556 3.29428,-4.6533 6.08027,-5.2747 5.19465,-1.2336 10.59943,-1.0218 15.88949,-1.6117 2.70147,-0.3325 5.50518,-0.3616 8.1007,-1.2389 1.96178,-1.1159 2.15327,-3.7497 2.08618,-5.765 -0.18563,-2.1859 -0.72482,-4.8428 -2.80089,-6.0058 -5.71565,-0.9756 -11.05694,-3.4153 -16.29913,-5.826 -4.02288,-1.9941 -8.11395,-4.003 -11.62399,-6.8239 -1.84479,-1.9064 -2.55614,-4.5798 -3.70057,-6.9109 -4.21774,-9.8963 -7.87266,-20.01896 -11.48531,-30.14661 -0.75672,-2.38188 -3.45822,-3.12583 -5.61223,-3.6818 -1.76386,-0.40156 -3.5779,-0.58289 -5.38625,-0.55773 z"
         style="opacity:1;vector-effect:none;fill:#00aa00;fill-opacity:1;stroke:none;stroke-width:0.44430804;stroke-linecap:round;stroke-linejoin:miter;stroke-miterlimit:4;stroke-dasharray:none;stroke-dashoffset:0;stroke-opacity:1" />
      <path
         transform="scale(0.26458333)"
         inkscape:connector-curvature="0"
         id="path66"
         d="m 175.91251,987.98966 c -1.3085,-0.006 -2.95865,0.20172 -3.47857,1.61723 -1.07746,2.71692 -0.59547,5.73405 -0.71773,8.58436 0.0195,8.53415 0.24312,17.07835 -0.0401,25.60675 -0.30936,5.5072 -3.28987,10.4712 -6.82454,14.5447 -5.23886,5.4934 -12.09318,9.1535 -18.97374,12.1815 -9.90774,4.302 -20.50264,6.6081 -31.05246,8.7092 -6.92237,1.5041 -13.90007,2.8119 -20.735927,4.6777 -0.647544,0.2004 0.147315,0.509 0.47267,0.4523 2.794318,0.5792 5.755237,0.5552 8.425547,1.6259 1.01877,0.462 1.47832,1.6156 1.03702,2.6379 -0.13595,0.9087 -1.04192,2.2343 -0.10203,2.9768 1.3821,0.6958 2.98784,-0.1168 4.41006,-0.2954 1.36356,-0.1832 2.84614,-0.8423 4.18743,-0.3592 0.74393,0.9363 0.0162,2.2844 -0.0735,3.3214 -0.15379,1.2103 -0.76973,2.8573 0.2952,3.8052 1.59912,0.63 3.11868,-0.7263 4.35831,-1.5796 1.93854,-1.3896 3.58327,-3.5073 6.02629,-3.993 1.17739,-0.094 1.1753,1.4562 0.92186,2.2253 -0.66964,2.6893 -2.73366,5.1122 -2.20453,8.0271 0.15469,1.1388 1.18143,2.2001 2.34471,2.1845 2.76081,-2.0049 5.08322,-4.5641 7.60672,-6.8541 6.78449,-6.528 13.62155,-13.3758 22.27418,-17.4008 3.5236,-1.6102 7.53041,-2.3826 10.52086,-5.0137 4.43095,-3.754 7.31851,-8.9278 10.19332,-13.8853 4.18719,-7.3267 5.59851,-15.7821 6.569,-24.0496 0.89078,-7.9038 1.83738,-15.8746 1.26925,-23.83686 -0.3415,-2.33679 -1.44087,-5.14225 -4.0417,-5.64857 -0.87319,-0.20051 -1.773,-0.27135 -2.66753,-0.26171 z"
         style="opacity:1;vector-effect:none;fill:#00aa00;fill-opacity:1;stroke:none;stroke-width:0.44430804;stroke-linecap:round;stroke-linejoin:miter;stroke-miterlimit:4;stroke-dasharray:none;stroke-dashoffset:0;stroke-opacity:1" />
      <path
         transform="scale(0.26458333)"
         inkscape:connector-curvature="0"
         id="path68"
         d="m 180.86216,264.58933 c -2.13945,0.30363 -3.70136,2.20797 -4.3201,4.18171 -1.37361,4.06951 -0.48342,8.43019 0.39579,12.50321 1.13678,4.62326 2.58497,9.25743 5.08935,13.339 0.37047,0.69573 1.16173,0.18046 1.59668,-0.14453 3.53603,-2.44664 6.50864,-5.59601 9.62858,-8.53134 2.16294,-2.06937 4.23668,-4.23301 6.4537,-6.24502 2.31137,3.57687 4.55954,7.23592 6.59168,10.99141 1.03142,1.96702 1.97869,4.00147 2.34069,6.20903 0.74451,2.52268 2.65137,4.55781 4.75806,6.04858 0.69744,0.35456 1.63931,1.04926 2.40259,0.50366 1.3145,-1.80294 1.79368,-4.06318 2.4353,-6.16479 1.31876,-5.15968 2.46052,-10.37758 3.19644,-15.65424 0.1232,-1.66023 0.4904,-3.56504 -0.50674,-5.03619 -1.08759,-1.28646 -2.97189,-0.83864 -4.41806,-0.65647 -2.48173,0.4872 -5.2102,0.5127 -7.41666,-0.91873 -2.08371,-1.32168 -3.67652,-3.26649 -5.4989,-4.90645 -1.32076,-1.33891 -2.94199,-2.76834 -4.95716,-2.6414 -3.10774,0.10073 -5.70247,2.73751 -8.87646,2.23364 -1.55951,-0.451 -2.48231,-1.93536 -3.65771,-2.95337 -1.27673,-1.33716 -3.07065,-2.29542 -4.96143,-2.15893 -0.0919,-4.8e-4 -0.18375,-0.003 -0.27564,0.001 z"
         style="opacity:1;vector-effect:none;fill:#005500;fill-opacity:1;stroke:none;stroke-width:0.31417322;stroke-linecap:round;stroke-linejoin:miter;stroke-miterlimit:4;stroke-dasharray:none;stroke-dashoffset:0;stroke-opacity:1" />
      <path
         transform="scale(0.26458333)"
         inkscape:connector-curvature="0"
         id="path70"
         d="m 198.39222,288.16529 c -1.97339,2.32602 -3.84013,4.74929 -5.67982,7.18414 -1.60345,2.28225 -3.16236,4.83092 -3.27727,7.69479 -0.0886,1.8402 0.8882,3.57101 2.28169,4.71739 1.58614,1.34555 3.56259,2.1136 5.45391,2.92295 2.07412,0.77236 4.31845,1.61524 6.5619,1.16242 1.42211,-0.27575 2.39076,-1.56641 2.69291,-2.92148 0.61914,-2.89292 -0.26028,-5.82892 -1.19936,-8.55036 -1.28132,-3.74039 -3.50337,-7.03885 -5.53696,-10.39567 -0.39626,-0.60361 -0.73822,-1.25344 -1.18945,-1.81574 -0.0183,0.0729 -0.078,-0.0247 -0.10755,0.002 z"
         style="opacity:1;vector-effect:none;fill:#ffffff;fill-opacity:1;stroke:none;stroke-width:0.22215402;stroke-linecap:round;stroke-linejoin:miter;stroke-miterlimit:4;stroke-dasharray:none;stroke-dashoffset:0;stroke-opacity:1" />
      <path
         transform="scale(0.26458333)"
         inkscape:connector-curvature="0"
         id="path72"
         d="m 170.79416,281.15326 c -1.49028,1.92521 -2.84169,3.97153 -4.22905,5.97735 -1.22203,1.94625 -2.19273,4.08224 -2.70218,6.32952 -0.27579,1.52345 -0.26799,3.09688 -0.10911,4.63262 0.34918,1.75929 1.51017,3.52791 3.33684,3.9868 2.42457,0.66647 4.94954,1.39557 7.48746,1.06152 1.12186,-0.15744 1.86513,-1.27743 1.81489,-2.3675 0.1443,-2.63748 -0.70853,-5.18753 -1.35606,-7.70936 -1.15811,-4.01495 -2.67437,-7.91484 -4.10175,-11.83879 -0.0191,-0.0539 -0.0832,-0.10184 -0.14104,-0.0722 z"
         style="opacity:1;vector-effect:none;fill:#ffffff;fill-opacity:1;stroke:none;stroke-width:0.22215402;stroke-linecap:round;stroke-linejoin:miter;stroke-miterlimit:4;stroke-dasharray:none;stroke-dashoffset:0;stroke-opacity:1" />
      <path
         transform="scale(0.26458333)"
         inkscape:connector-curvature="0"
         id="path74"
         d="m 280.73566,614.20115 c -9.8231,4.5965 -17.8427,12.3769 -26.83692,18.37235 -11.57421,7.63768 -22.80738,17.14287 -36.66182,20.12768 -11.85597,1.58743 -24.18231,3.32607 -36.03897,0.93775 -14.4625,-4.14924 -28.32186,-10.34026 -43.07641,-13.59001 -6.56599,-1.44837 -13.19261,-3.85023 -19.80638,-4.51855 -1.29168,6.69952 0.30943,13.83831 0.11463,20.67596 1.05578,21.29974 0.78238,42.78555 4.05067,63.89925 -0.0432,1.8251 1.34363,2.75274 2.58122,1.09519 11.22372,-8.78517 20.53491,-20.0348 32.56558,-27.75532 2.17603,-0.21448 -0.37455,3.13963 -0.76373,4.14734 -4.40876,6.53701 -12.07552,9.83722 -17.2467,15.72558 -10.84559,10.34402 -20.93501,21.60606 -33.40657,30.07079 -9.403014,8.08415 -14.337939,19.91275 -20.036692,30.62365 -3.72059,9.35226 -1.47162,19.84236 0.325122,29.3875 3.142738,14.18507 9.39961,27.57833 18.18055,39.13412 14.28902,23.10795 27.30926,47.01369 42.6527,69.46928 7.82928,11.52158 15.95995,22.84861 23.15721,34.77241 5.84045,7.01736 11.62531,14.43276 13.90459,23.44915 0.9935,3.56635 4.36146,6.50318 8.22426,5.30745 7.02903,-1.26825 14.34677,-3.09399 20.35279,-7.06969 4.1488,-4.08855 0.0469,-10.24323 -1.62965,-14.5316 -6.63757,-13.7272 -15.38765,-26.56309 -19.24467,-41.47725 -7.18626,-21.21638 -19.36386,-40.63265 -24.52966,-62.5213 -2.02446,-10.46377 -3.13029,-21.26467 -7.92043,-30.94559 -2.56121,-8.39321 -5.0295,-17.70231 -2.65441,-26.38669 6.67469,-10.69104 18.63743,-16.40057 29.0337,-22.82043 7.30351,-4.23462 15.02853,-7.82063 23.27425,-9.72029 16.95192,-7.48134 31.97787,-18.85196 45.71473,-31.16656 13.29653,-12.22291 24.52392,-27.8969 26.95706,-46.2133 3.40151,-19.96229 5.66167,-40.52188 2.96101,-60.70207 -0.63638,-2.65387 -1.19421,-6.8517 -4.19706,-7.7768 z"
         style="opacity:1;vector-effect:none;fill:#c8ab37;fill-opacity:1;stroke:none;stroke-width:1.77723217;stroke-linecap:round;stroke-linejoin:miter;stroke-miterlimit:4;stroke-dasharray:none;stroke-dashoffset:0;stroke-opacity:1" />
      <path
         transform="scale(0.26458333)"
         inkscape:connector-curvature="0"
         id="path76"
         d="m 189.73267,775.53816 c -4.49056,0.45206 -8.46463,2.91479 -12.36394,5.01066 -5.94464,3.57999 -12.02054,7.97191 -14.95345,14.483 -1.85294,4.51349 -0.2894,9.48395 0.80647,13.98702 3.39026,11.08526 6.53551,22.24157 9.13063,33.54214 1.60659,7.08373 3.80381,14.02626 6.6735,20.69786 1.52501,3.95104 1.45246,8.3319 3.2024,12.22869 2.81606,7.13964 6.4338,13.95314 10.36816,20.53306 0.44676,0.59658 1.26648,2.04047 2.17529,1.45068 1.29408,-2.04192 0.57406,-4.66 0.82666,-6.93848 0.23214,-30.76031 -0.61389,-61.51702 -1.83532,-92.25018 -0.44902,-6.85229 -0.40548,-13.81523 -1.94979,-20.53688 -0.25134,-1.06553 -0.72087,-2.38644 -2.08061,-2.20757 z"
         style="opacity:1;vector-effect:none;fill:#c8ab37;fill-opacity:1;stroke:none;stroke-width:0.62834644;stroke-linecap:round;stroke-linejoin:miter;stroke-miterlimit:4;stroke-dasharray:none;stroke-dashoffset:0;stroke-opacity:1" />
      <path
         transform="scale(0.26458333)"
         inkscape:connector-curvature="0"
         id="path78"
         d="m 173.38529,961.57125 c -0.96184,0.17161 -1.24491,1.26685 -1.57096,2.04381 -0.8183,2.56323 -1.23765,5.24084 -1.54713,7.90768 -0.10146,1.87169 -0.14774,3.75923 0.0105,5.62817 0.29981,1.58419 0.88673,3.43716 2.50561,4.11334 1.32713,0.45559 2.8041,0.0895 4.037,-0.4866 1.21216,-0.62758 2.5678,-1.25685 3.31321,-2.4575 0.74155,-1.43656 0.16658,-3.09892 -0.24525,-4.54358 -1.08448,-3.192 -2.3495,-6.33233 -3.86511,-9.34511 -0.59283,-1.0174 -1.12162,-2.23588 -2.21993,-2.7972 -0.13261,-0.0503 -0.27617,-0.0754 -0.41795,-0.063 z"
         style="opacity:1;vector-effect:none;fill:#c8ab37;fill-opacity:1;stroke:none;stroke-width:0.22215402;stroke-linecap:round;stroke-linejoin:miter;stroke-miterlimit:4;stroke-dasharray:none;stroke-dashoffset:0;stroke-opacity:1" />
      <path
         inkscape:connector-curvature="0"
         id="path47"
         d="m 47.521516,296.11875 c -1.706787,-0.69183 -2.68244,-2.10225 -3.059682,-4.42309 -0.290363,-1.7863 -0.602982,-2.12945 -2.31917,-2.54552 -1.090947,-0.26449 -2.556326,-0.76948 -3.256383,-1.12219 -0.951057,-0.47917 -1.639695,-0.47413 -2.724033,0.0194 -2.119099,0.96551 -4.324904,0.78931 -5.940604,-0.47451 -0.78082,-0.61076 -1.661459,-1.11613 -1.956973,-1.12309 -0.295535,-0.006 -1.509334,-0.68621 -2.697334,-1.5095 -3.232668,-2.24025 -2.723218,-5.43798 0.963226,-6.04581 0.936978,-0.15453 4.131164,-0.82525 7.098215,-1.4906 9.817977,-2.20166 9.816432,-2.19906 9.724101,-16.11423 -0.07447,-11.23509 -0.549928,-13.26318 -4.040936,-17.23922 -0.93949,-1.07004 -1.708183,-2.23283 -1.708183,-2.584 0,-0.35113 -0.958783,-1.93935 -2.130644,-3.52933 -1.171862,-1.58997 -2.743028,-4.04079 -3.491502,-5.44622 -0.748476,-1.40544 -1.676418,-2.93866 -2.062116,-3.40714 -0.385678,-0.46848 -1.272197,-2.00169 -1.970022,-3.40713 -0.697802,-1.40544 -2.246905,-4.00143 -3.442396,-5.76887 -2.722939,-4.02555 -4.146746,-8.75392 -3.82052,-12.68767 0.319037,-3.84729 3.750101,-9.44207 7.486489,-12.20767 2.574248,-1.90543 2.672481,-2.08131 2.37892,-4.25893 -0.168479,-1.24928 -0.586607,-7.32604 -0.929316,-13.5039 -0.599698,-10.8107 -0.676941,-11.29048 -2.056729,-12.77675 -1.973219,-2.12553 -2.78651,-3.85694 -3.526121,-7.50675 -1.408161,-6.94911 -0.794511,-14.792 1.755012,-22.4303 l 1.705842,-5.11069 -0.396514,-10.50534 c -0.447746,-11.8627 -0.427572,-20.184205 0.0573,-23.638642 0.286178,-2.038769 -0.07983,-3.185069 -2.809904,-8.801764 -4.895349,-10.07121 -4.954606,-10.696021 -1.824163,-19.234482 2.123411,-5.79172 2.303115,-9.317456 0.822863,-16.143915 -1.261488,-5.81754 -1.263526,-6.087642 -0.154743,-20.616114 0.346186,-4.536458 -0.328523,-8.100567 -1.5335,-8.100567 -0.430813,0 -3.481265,-2.714912 -8.377731,-7.456248 C 11.769717,13.461378 10.70551,13.004275 7.918164,12.623083 4.1360623,12.105843 2.2730945,10.84691 1.3434351,8.1800735 0.86049168,6.7946848 1.0195481,6.3906998 2.6824663,4.7789266 4.2875001,3.2232773 5.0224537,2.9357693 7.6000932,2.8553076 9.2668961,2.8033655 10.946811,2.5633135 11.333218,2.3220124 12.216132,1.7707121 17.103111,1.3487211 23.57025,1.2653616 c 4.765953,-0.06138 5.068162,0.00861 6.742241,1.5835283 2.187112,2.0563426 3.092691,4.1446425 3.611219,8.3276581 0.223143,1.799955 0.604227,3.395352 0.846858,3.54533 0.242653,0.150022 1.354484,-0.109028 2.470757,-0.57536 4.199264,-1.754583 9.129018,-0.691128 10.473328,2.259311 1.898273,4.166233 -0.400185,6.280459 -8.407284,7.733433 -2.030073,0.368379 -3.903234,0.860208 -4.162541,1.092945 -0.259329,0.232737 -0.06761,1.612588 0.425897,3.066335 1.436447,4.230963 1.255584,17.790028 -0.298669,22.392439 l -1.19605,3.541681 1.979186,4.092682 c 1.088545,2.250962 2.161486,4.731506 2.384308,5.512304 0.22282,0.780818 0.901114,2.476251 1.507316,3.767679 0.60618,1.291406 1.256958,3.655109 1.44617,5.252653 0.189297,1.597565 0.448432,2.904638 0.576068,2.904638 0.127701,0 0.850572,-0.702717 1.606537,-1.561593 1.512188,-1.718098 1.74059,-3.568016 0.780497,-6.322097 -0.529367,-1.518519 -0.428774,-2.274141 0.630432,-4.736357 3.752441,-8.722779 9.440048,-11.080645 16.800102,-6.964677 3.261428,1.823907 3.672322,2.271481 4.822142,5.252675 0.813227,2.108518 1.353003,5.024616 1.529143,8.261105 0.207755,3.816441 0.448884,4.934432 1.017441,4.716246 2.583821,-0.991492 6.024221,-1.697106 8.436107,-1.730181 l 2.793121,-0.03842 2.033657,-3.713765 c 1.118527,-2.042564 3.205582,-5.23675 4.637931,-7.098193 1.432348,-1.861444 2.88897,-4.216648 3.23696,-5.233809 0.347989,-1.017141 1.664227,-3.061421 2.924964,-4.542853 2.302579,-2.705599 4.125689,-5.66415 6.34875,-10.302746 1.977732,-4.126614 1.335222,-6.808366 -2.556069,-10.668741 -2.899468,-2.876416 -3.189244,-3.388184 -3.189244,-5.632492 0,-1.996099 -0.267468,-2.643851 -1.397499,-3.384256 -3.33897,-2.1878 -1.933621,-5.356917 2.375578,-5.356917 2.339642,0 2.478807,-0.08456 2.101214,-1.277692 -1.071501,-3.385457 -2.81368,-4.523644 -8.437588,-5.512346 -3.523116,-0.6193579 -5.99881,-2.2837353 -5.99881,-4.0329099 0,-1.4479725 2.488721,-2.8055898 5.143109,-2.8055898 1.483966,0 2.873476,-0.4166472 3.787618,-1.1357189 2.028619,-1.59569016 3.297181,-1.42689038 6.401384,0.8517943 3.167789,2.3253721 3.451319,2.3716241 4.877579,0.7956283 0.86596,-0.9568735 1.52316,-1.1322421 3.33327,-0.8894613 1.24004,0.1663328 2.51912,0.657111 2.84241,1.0906269 0.32326,0.4335158 2.09324,1.0880077 3.93324,1.4544117 3.97118,0.7907989 4.61525,1.2468284 5.17769,3.665969 0.57357,2.4670227 0.40898,3.6691247 -0.89144,6.5114147 -0.60575,1.323964 -1.10137,2.814347 -1.10137,3.311949 0,0.917211 -2.7163,7.688621 -4.28291,10.676833 -0.4705,0.897445 -1.13153,3.452785 -1.46895,5.678551 -0.33742,2.225764 -1.23079,5.452273 -1.98525,7.170048 -1.32143,3.008623 -7.69485,25.148151 -7.48252,25.992283 0.2451,0.974472 -0.911679,4.462971 -1.942058,5.856602 -0.855145,1.156666 -1.155229,2.597513 -1.272804,6.111401 -0.0953,2.844758 -0.472644,5.090998 -0.989904,5.89109 -0.459825,0.711238 -1.001472,2.138651 -1.203646,3.172037 -0.34887,1.783214 -5.090741,8.626437 -5.977541,8.626437 -0.229796,0 -1.492529,1.002159 -2.806084,2.227035 -1.873784,1.74727 -2.390188,2.63415 -2.397141,4.11696 -0.0043,1.03946 -0.393146,3.42314 -0.862805,5.29706 -1.306537,5.21301 -3.122802,18.12078 -4.194907,29.81242 -0.916696,9.99673 -1.761257,15.41477 -2.679778,17.19096 -0.481806,0.93172 -0.744891,2.2362 -0.584653,2.89882 0.160323,0.66266 0.717118,2.86578 1.23747,4.89587 0.732379,2.85713 0.862805,4.97303 0.577249,9.36507 -0.527606,8.11513 -1.255284,10.89031 -3.718852,14.1829 -4.15518,5.5534 -13.000338,12.785 -18.165532,14.85172 -2.094459,0.83803 -2.128176,0.90141 -2.472946,4.649 -0.192302,2.08967 -0.231921,11.3377 -0.08821,20.55115 l 0.261368,16.75175 2.500611,5.11069 c 1.648731,3.3696 2.623741,6.22199 2.861972,8.37263 0.19874,1.79407 0.981726,4.60496 1.739946,6.24642 0.758197,1.64148 1.490254,3.36779 1.626753,3.83627 0.1365,0.46848 1.74999,1.33993 3.585572,1.93658 4.781685,1.55426 5.892743,2.35066 5.892743,4.22393 0,2.54233 -3.9083,5.19661 -7.651791,5.19661 -0.679752,0 -1.855412,0.66413 -2.612579,1.47585 -0.757168,0.81171 -2.538578,2.0674 -3.958693,2.79042 -2.449918,1.2473 -2.664905,1.55675 -4.202226,6.04824 -2.198315,6.42267 -2.999352,7.28698 -5.728278,6.18083 z m 3.686724,-5.62535 c 0.637879,-2.14185 1.159777,-4.35766 1.159777,-4.92402 0,-1.39058 1.632592,-3.1067 2.955483,-3.1067 1.830367,0 4.238518,-1.57515 5.394325,-3.52834 1.022913,-1.72861 1.350149,-1.87923 4.435757,-2.04179 1.832254,-0.0966 3.538097,-0.30326 3.79073,-0.4594 0.857867,-0.5302 0.50344,-3.05616 -0.428795,-3.05616 -1.262797,0 -6.704168,-2.56245 -7.401305,-3.48543 -0.492044,-0.6514 -2.683406,-6.19516 -3.84108,-9.71721 -0.361875,-1.10097 -3.996939,-1.43598 -4.62119,-0.4259 -0.192946,0.31232 -0.805801,0.56785 -1.361717,0.56785 -0.89195,0 -1.01774,0.61732 -1.070216,5.25268 -0.07018,6.20465 -0.894139,8.86515 -4.081156,13.17928 -1.917654,2.5958 -2.753587,3.24729 -4.841436,3.77301 -2.630308,0.66233 -4.034971,1.76905 -3.448879,2.71736 0.200672,0.32467 1.324801,-0.004 2.713882,-0.79267 2.86371,-1.62663 3.876965,-1.30025 1.721896,0.55465 -0.856537,0.73725 -1.367275,1.53097 -1.134946,1.76383 0.232329,0.23288 0.871174,0.0294 1.419642,-0.45235 0.548468,-0.48171 1.636069,-1.0473 2.416866,-1.25691 l 1.419644,-0.3811 -1.277671,1.11477 c -2.360956,2.05997 -1.121446,3.25918 1.483107,1.43488 0.963849,-0.67511 1.47729,-0.75012 1.943494,-0.28392 0.466182,0.46619 0.394584,0.63357 -0.271047,0.63357 -1.126426,0 -1.59396,1.16563 -1.59396,3.97412 0,2.15052 0.475519,2.70684 2.389352,2.79531 0.719607,0.0333 1.268806,-0.95951 2.129443,-3.84941 z m -15.109649,-6.50317 c 1.899174,-1.85419 3.969917,-3.27942 5.377499,-3.70112 1.833221,-0.54924 2.655955,-1.27748 4.131593,-3.657 1.51515,-2.44324 1.943751,-3.88727 2.412036,-8.12656 0.632837,-5.72888 0.386365,-7.05353 -1.31246,-7.05353 -1.339009,0 -1.33858,-0.002 -1.180853,5.96248 0.104306,3.94021 -0.05667,4.80649 -1.211845,6.53034 -1.716295,2.56094 -6.248031,4.8025 -12.105427,5.98782 -2.498572,0.5056 -5.181698,1.07582 -5.962495,1.26711 l -1.419643,0.34784 1.530473,0.2084 c 1.125397,0.15324 1.438832,0.44708 1.18431,1.11039 -0.27989,0.72937 -0.06675,0.83197 1.112969,0.53585 1.2555,-0.31511 1.417797,-0.20797 1.162868,0.76678 -0.360867,1.37992 0.247761,1.45045 1.640469,0.19016 1.277283,-1.15594 1.907244,-0.68692 1.100949,0.81965 -0.498075,0.93066 -0.357175,1.82686 0.287208,1.82686 0.09014,0 1.553696,-1.35688 3.252349,-3.01529 z m 11.107365,-24.76588 c 0.675397,-0.42756 0.683359,-0.80321 0.05087,-2.4047 -1.145549,-2.90097 -1.588573,-3.08623 -2.009876,-0.84051 -0.595879,3.17629 0.140577,4.39631 1.958925,3.24521 z m 7.092763,-2.09974 c 3.466006,-1.18099 3.417094,-1.55789 -1.280545,-9.86897 -0.97091,-1.71779 -1.769929,-3.59912 -1.775595,-4.18077 -0.0065,-0.58165 -1.186154,-3.64806 -2.623354,-6.81427 -4.074396,-8.97605 -4.181085,-9.27711 -4.776857,-13.4778 -0.309121,-2.17965 -0.935754,-4.53331 -1.392514,-5.23043 -0.456759,-0.69709 -0.997479,-2.68851 -1.201629,-4.42537 -0.350393,-2.98134 -0.270124,-3.27299 1.435203,-5.21526 1.604862,-1.82784 10.041528,-6.64837 11.646927,-6.6548 2.139123,-0.008 10.966315,-6.02168 14.480504,-9.86415 3.936758,-4.30455 5.03288,-6.563 5.959899,-12.27984 1.348539,-8.31633 1.081784,-16.46783 -0.538917,-16.46783 -0.389626,0 -2.338078,1.30353 -4.329883,2.89674 -1.991828,1.59321 -5.322685,3.90809 -7.401906,5.14416 -3.429262,2.03869 -4.251053,2.27793 -8.846746,2.57567 -4.577429,0.29656 -5.425231,0.18457 -8.785663,-1.15973 -3.200625,-1.28046 -6.330725,-2.20195 -12.272724,-3.61308 l -1.317762,-0.31293 0.280083,9.01761 c 0.245914,7.91798 0.758863,13.84436 1.19826,13.84436 0.07877,0 1.411143,-1.2138 2.960912,-2.69732 5.347151,-5.11861 7.370034,-6.36626 5.915537,-3.64849 -0.333674,0.62348 -1.500148,1.68579 -2.592169,2.3607 -1.092022,0.6749 -3.183262,2.6291 -4.647225,4.34267 -1.463941,1.71359 -3.71808,3.73467 -5.009185,4.4913 -1.291106,0.75665 -2.882811,2.33887 -3.537131,3.51609 -0.654321,1.17721 -1.75733,3.1617 -2.451162,4.40998 -1.060859,1.90871 -1.209549,2.8258 -0.934897,5.76692 0.359493,3.84979 2.607601,9.97912 4.334197,11.81699 0.607683,0.64688 1.726812,2.32176 2.48694,3.72199 3.438148,6.33338 9.463184,15.96412 12.717357,20.32809 1.324072,1.77564 2.410106,3.45299 2.413389,3.72746 0.0043,0.27446 0.885899,1.47302 1.961372,2.66342 1.075474,1.19042 2.126052,3.07404 2.334622,4.18578 0.443818,2.3657 1.353433,2.54487 5.590662,1.10111 z m -2.788269,-36.9841 c -0.336829,-12.33979 -0.546365,-14.90621 -1.216932,-14.90621 -1.429452,0 -5.162812,2.19212 -6.38966,3.7518 -1.456966,1.85224 -1.470637,2.54798 -0.13371,6.80171 0.580661,1.84743 1.389918,4.89217 1.798324,6.76609 0.408405,1.87393 1.083221,4.09717 1.49959,4.94055 0.416367,0.84336 0.749805,1.99326 0.740984,2.55533 -0.0086,0.56208 0.821683,2.61562 1.84554,4.5634 1.690004,3.21505 1.880031,3.3982 2.062116,1.9875 0.110316,-0.85468 0.01717,-8.26176 -0.206252,-16.46017 z m 8.867585,-50.42593 c 1.126146,-0.39319 4.370532,-2.46406 7.209732,-4.60199 5.082372,-3.827 5.43152,-4.27184 7.508058,-9.56566 0.788331,-2.00973 1.969141,-12.94396 2.514283,-23.28209 0.256409,-4.86269 1.988543,-15.67637 3.087604,-19.27574 0.577443,-1.89117 1.226827,-4.65228 1.44308,-6.1358 0.354471,-2.43183 0.283946,-2.69731 -0.716582,-2.69731 -0.610365,0 -1.256852,0.38329 -1.43662,0.85178 -0.453905,1.18284 -2.068447,1.07132 -2.055354,-0.14187 0.0065,-0.58732 1.193752,-1.69048 2.903286,-2.69732 6.760806,-3.981772 13.553832,-11.147802 13.553832,-14.298098 0,-0.554435 0.426645,-2.993514 0.948116,-5.420209 0.983479,-4.576763 0.825521,-5.651915 -0.650481,-4.426957 -0.698079,0.579374 -1.033884,0.57858 -1.735959,-0.0043 -0.76167,-0.632128 -0.637489,-0.921782 0.993746,-2.31786 1.025318,-0.877506 2.15452,-1.605871 2.509333,-1.618554 0.947471,-0.03391 2.324364,-3.301261 2.761656,-6.553418 0.2099,-1.561593 0.725592,-3.861426 1.145825,-5.110701 0.42023,-1.249275 1.71252,-5.721153 2.87174,-9.937479 1.1592,-4.216326 2.70995,-8.871341 3.44611,-10.344489 0.95597,-1.91319 1.33845,-3.6441 1.33845,-6.057488 0,-3.418123 0.41382,-4.695879 3.90118,-12.045932 0.97753,-2.060313 1.77738,-4.035657 1.77738,-4.389635 0,-0.353955 0.67258,-2.281331 1.49463,-4.283052 1.963,-4.780054 1.62003,-7.4295054 -1.03039,-7.9596015 -2.17251,-0.4345036 -2.62426,-0.07383 -1.72044,1.3733055 1.33045,2.130387 0.69674,5.660435 -1.01619,5.660435 -0.87412,0 -0.9505,-0.286692 -0.54974,-2.063574 0.38598,-1.711401 0.20626,-2.5372908 -1.05355,-4.8393335 -1.4615,-2.670785 -1.60486,-2.7699403 -3.79039,-2.6212498 -2.87474,0.1955204 -3.28139,1.7599053 -1.12396,4.3238517 0.88912,1.0566726 1.41608,2.2903236 1.3069,3.0595526 -0.15946,1.122885 -0.48679,0.881004 -2.54087,-1.876897 -3.39289,-4.5554285 -7.709163,-8.0326381 -9.687925,-7.8046438 -2.261004,0.2605306 -2.17627,1.6630463 0.199601,3.3044591 3.368331,2.3270023 7.592164,6.3469487 7.250234,6.9002237 -0.17535,0.28356 -1.657591,-0.705786 -3.294072,-2.198572 -4.148293,-3.7840326 -9.422535,-6.4271106 -11.992941,-6.0099921 -3.747742,0.6081764 -1.97689,3.3338629 2.416199,3.7190025 3.725142,0.3265707 9.203218,3.6821736 9.284292,5.6870916 0.02838,0.69952 0.79439,2.549546 1.70241,4.11114 0.908052,1.561616 1.963072,3.542004 2.344502,4.400881 0.38142,0.858898 0.89302,1.561615 1.13686,1.561615 0.74476,0 0.49305,0.995141 -0.33179,1.311645 -0.49256,0.189082 -1.66318,-1.043495 -3.211054,-3.380865 -2.611342,-3.943219 -2.171878,-3.74113 -6.661097,-3.062922 -0.571711,0.08628 0.103451,1.338751 1.339673,2.485051 1.048066,0.971812 1.568768,2.146763 1.779355,4.015011 0.257764,2.286846 0.754099,3.107585 3.700027,6.118247 l 3.402356,3.477101 -0.3029,3.34043 c -0.16655,1.837235 -0.71809,3.90624 -1.22554,4.597797 -0.50745,0.691557 -1.54887,2.151741 -2.314231,3.244879 -0.765391,1.093117 -2.575672,3.678697 -4.022829,5.745728 -1.447177,2.067052 -3.303964,4.921018 -4.126162,6.342163 -0.822197,1.421145 -2.540531,4.074032 -3.818522,5.895298 -1.27797,1.821266 -2.791318,4.589061 -3.362944,6.150676 -0.571647,1.561595 -1.256465,3.127718 -1.521804,3.480236 -0.265637,0.352903 -2.709739,0.750814 -5.438816,0.885447 -2.726008,0.134569 -5.721968,0.615623 -6.657702,1.069207 -1.737349,0.842137 -3.616992,3.879626 -3.666012,5.924208 -0.05559,2.32138 -4.055081,9.211131 -7.745259,13.342617 -4.340249,4.859335 -5.192344,5.421374 -8.805388,5.808034 -2.302106,0.24634 -2.966277,0.0369 -5.615773,-1.770572 -2.40695,-1.642035 -3.214747,-2.614427 -4.059458,-4.886684 -0.783781,-2.108364 -0.922277,-3.274752 -0.53939,-4.542829 0.855143,-2.832225 1.152975,-9.730668 0.582615,-13.495214 -0.677113,-4.469237 -1.69318,-8.493476 -2.321123,-9.193189 -0.266282,-0.296716 -0.484145,-0.894312 -0.484145,-1.327999 0,-0.433709 -1.135611,-3.154609 -2.523576,-6.046478 l -2.523555,-5.257954 0.772578,-3.69254 c 1.528906,-7.307429 1.431747,-19.348682 -0.196166,-24.305113 -0.256453,-0.780797 -0.354492,-1.744431 -0.217906,-2.141398 0.414672,-1.205084 3.074597,-2.228533 6.871015,-2.643743 5.014336,-0.548403 6.335424,-1.136512 6.335424,-2.82042 0,-2.75687 -0.498032,-3.183691 -3.714861,-3.183691 -3.448298,0 -5.683743,0.706624 -7.440387,2.351942 -1.45336,1.361266 -1.796069,0.947474 -2.261585,-2.730751 C 32.273565,11.785156 30.400553,4.7328713 29.75574,4.0880372 28.963311,3.295607 23.817454,3.3232934 21.88688,4.1303164 20.751827,4.6048265 19.224722,6.1621276 17.769924,8.328679 c -3.861018,5.749954 -2.709352,7.990208 2.129872,4.143118 2.698966,-2.145604 6.184008,-3.5468323 6.922718,-2.7833981 0.81239,0.8396251 1.325145,4.7461001 0.622943,4.7461001 -0.347067,0 -0.631034,-0.519085 -0.631034,-1.153532 0,-0.634424 -0.394326,-1.304841 -0.876282,-1.489781 -1.2461,-0.47818 -1.687514,0.18715 -0.8187,1.234037 0.522198,0.629231 0.561281,1.066546 0.133495,1.49431 -0.427786,0.427764 -0.792193,0.254543 -1.245198,-0.591908 -0.35226,-0.658183 -1.018363,-1.196693 -1.480252,-1.196693 -0.961638,0 -4.189263,3.348414 -4.214287,4.371992 -0.0086,0.374517 0.903948,1.383093 2.029106,2.241305 1.125159,0.858189 2.797628,2.851605 3.7166,4.429768 0.918949,1.578184 1.972124,3.308151 2.340373,3.844385 0.545872,0.794876 0.449335,1.180146 -0.522563,2.085596 -1.00085,0.93245 -1.257023,2.062845 -1.596642,7.045589 -0.459399,6.740117 -0.102804,10.756951 1.496778,16.857599 1.279151,4.878739 1.197101,5.644598 -1.556786,14.530598 -1.071697,3.458 -1.948538,6.834915 -1.948538,7.504237 0,2.87442 4.14902,12.514282 7.60217,17.66295 1.623664,2.42088 1.640747,2.51712 0.584311,3.289121 -0.996988,0.728533 -1.086099,1.567324 -1.062447,9.998968 0.01502,5.06204 0.126842,12.43215 0.250464,16.37798 0.181571,5.79731 0.0558,7.43213 -0.654792,8.51784 -2.340975,3.57653 -4.185807,14.81572 -3.576107,21.78639 0.701451,8.01965 2.886718,11.13927 9.100108,12.99106 1.85479,0.55278 5.799919,1.87037 8.766969,2.92795 5.028995,1.79257 5.721776,1.89958 10.221404,1.57889 2.654732,-0.18909 5.748174,-0.66568 6.874321,-1.05884 z M 53.768001,98.122467 c 1.425652,-0.547068 7.61582,-8.659249 9.270475,-12.148884 3.27117,-6.898851 4.174367,-17.512071 2.026853,-23.816761 -1.332957,-3.9133 -3.302635,-5.182514 -8.626328,-5.55864 -3.545115,-0.250465 -3.903492,-0.163757 -5.609378,1.356779 -1.866057,1.663348 -4.69253,7.031253 -4.702488,8.930706 -0.0043,0.82458 0.308884,0.999841 1.4105,0.789254 0.818827,-0.15646 1.69393,0.06417 2.075013,0.523336 0.473179,0.570144 1.340534,0.691793 3.076359,0.431498 2.072955,-0.310859 2.507092,-0.194877 3.046869,0.813678 0.496615,0.927943 0.98486,1.105114 2.313138,0.839475 2.361,-0.472213 2.631489,0.671425 1.515536,6.407709 -1.377362,7.079886 -3.564194,9.442903 -6.790639,7.337605 -1.099962,-0.717742 -8.91141,-2.336812 -9.162433,-1.899088 -0.05194,0.09036 -0.649963,2.111371 -1.329115,4.491 -1.629329,5.70894 -0.778715,9.057782 2.881716,11.345062 1.474307,0.921248 2.377762,1.063713 4.879553,0.769418 1.688652,-0.198741 3.364619,-0.474099 3.724369,-0.612147 z m 2.953572,-35.798518 c -0.772062,-0.772062 -0.337623,-1.324995 1.04107,-1.324995 0.883323,0 1.419643,0.321785 1.419643,0.851773 0,0.851731 -1.746363,1.187572 -2.460713,0.473222 z M 50.855142,60.109 c -0.473285,-1.233372 0.728236,-2.393235 1.588272,-1.53322 0.726863,0.726884 0.276563,2.423174 -0.643267,2.423174 -0.331914,0 -0.757167,-0.400485 -0.945005,-0.889954 z m 3.784291,21.062552 c 0,-0.773264 -0.47981,-2.194882 -1.066224,-3.15916 l -1.066202,-1.753252 -1.205213,1.532169 c -1.54977,1.970214 -1.52717,3.22168 0.07254,4.013916 2.239051,1.108912 3.265161,0.909785 3.265161,-0.633673 z m -7.993191,-1.859255 c -0.02383,-0.546558 -0.360073,-1.87063 -0.74738,-2.942348 l -0.704199,-1.948601 -0.956165,1.365128 c -1.246936,1.780252 -1.228586,3.797254 0.03755,4.128116 1.928944,0.504106 2.412938,0.381106 2.370186,-0.602295 z m 11.35328,-1.873484 c 0.927492,-4.324818 0.852417,-4.692702 -0.889782,-4.359651 -1.115866,0.213335 -1.850885,-0.08606 -2.84463,-1.158233 -1.15115,-1.242107 -1.533179,-1.35781 -2.711135,-0.821104 -1.075474,0.490028 -1.517897,0.447918 -2.051664,-0.195306 -1.251787,-1.508324 -2.723604,-0.992458 -2.925993,1.025575 -0.148733,1.481904 0.739375,4.711503 1.668326,6.067553 0.09314,0.135856 1.169243,-0.72948 2.391476,-1.922954 l 2.222267,-2.169985 1.172333,1.922954 c 0.64477,1.057618 1.173278,2.191255 1.174437,2.519198 0.0022,0.678937 1.160464,1.959097 1.772225,1.959097 0.223959,0 0.683916,-1.290247 1.02214,-2.86723 z M 15.710964,7.9876344 c 2.306527,-3.4749553 2.39023,-3.7818015 1.024093,-3.7541365 -1.571038,0.031766 -3.52243,1.3318624 -4.715281,3.1413673 -1.537686,2.332669 -1.435032,3.6527698 0.284053,3.6527698 1.049526,0 1.882756,-0.743453 3.407135,-3.0400006 z M 4.9613527,7.7624744 C 6.7492027,5.7311776 6.7166438,5.2339612 4.8100441,5.4533275 3.5088296,5.6031339 3.218767,5.9407355 3.0704843,7.4785498 2.8533939,9.7302201 3.1855225,9.7800986 4.9612882,7.7624744 Z M 9.7441759,7.5067291 C 10.215079,6.6677702 10.393773,5.7751968 10.141292,5.5232511 9.6560085,5.0390197 6.9395515,7.8441811 6.9395515,8.8295352 c 0,1.1115513 1.9560917,0.1890822 2.8046244,-1.3228061 z"
         style="fill:#000000;stroke-width:0.56785572" />
    </g>
  </g>
</svg>
