<svg width="64" height="64" viewBox="0 0 64 64" fill="none" xmlns="http://www.w3.org/2000/svg">
<rect width="64" height="64" rx="8" fill="white"/>
<path d="M39.1875 32.625H12.625V15.4375C12.625 13.1875 14.5 12.625 15.4375 12.625H42.625C44.875 12.625 45.6458 14.9167 45.75 16.0625V29.5H41.375C39.625 29.5 39.1875 31.5833 39.1875 32.625Z" fill="#ECF7FB"/>
<path d="M51.375 32.3125H39.1875V43.875H42.625C42.8333 43.5625 43.4375 42.9375 44.1875 42.9375C44.9375 42.9375 45.3333 43.5625 45.4375 43.875H51.375V32.3125Z" fill="#ECF7FB"/>
<circle cx="28.875" cy="20.75" r="3.75" fill="white"/>
<circle cx="45.125" cy="37.625" r="3.125" fill="white"/>
<circle cx="24.1875" cy="28.5625" r="1.5625" fill="white"/>
<path d="M49.0232 28.7896H46.2357V15.7385C46.2344 14.7473 45.84 13.7971 45.1391 13.0962C44.4382 12.3954 43.4879 12.0012 42.4967 12H15.7395C14.7482 12.001 13.7978 12.3952 13.0967 13.0961C12.3957 13.7969 12.0013 14.7472 12 15.7385V35.3258C12.001 36.3173 12.3953 37.2678 13.0964 37.9689C13.7975 38.67 14.748 39.0643 15.7395 39.0653H28.5877V44.8828H22.4916C22.3507 44.8828 22.2155 44.9387 22.1159 45.0384C22.0162 45.138 21.9603 45.2732 21.9603 45.4141C21.9603 45.555 22.0162 45.6901 22.1159 45.7898C22.2155 45.8894 22.3507 45.9454 22.4916 45.9454H36.1276C36.2685 45.9454 36.4037 45.8894 36.5033 45.7898C36.603 45.6901 36.6589 45.555 36.6589 45.4141C36.6589 45.2732 36.603 45.138 36.5033 45.0384C36.4037 44.9387 36.2685 44.8828 36.1276 44.8828H29.6489V39.0653H38.7108V48.8836C38.7117 49.6727 39.0255 50.4292 39.5835 50.9872C40.1415 51.5452 40.898 51.859 41.6871 51.8599H49.0232C49.8124 51.8592 50.569 51.5453 51.1271 50.9874C51.6852 50.4294 51.9991 49.6728 52 48.8836V31.766C51.999 30.9768 51.685 30.2203 51.1269 29.6623C50.5689 29.1044 49.8123 28.7905 49.0232 28.7896ZM39.7734 44.5741H42.5435C42.6529 44.8848 42.856 45.1538 43.1248 45.3442C43.3936 45.5345 43.7149 45.6367 44.0442 45.6367C44.3736 45.6367 44.6949 45.5345 44.9637 45.3442C45.2325 45.1538 45.4356 44.8848 45.545 44.5741H50.9374V46.7926H39.7734V44.5741ZM43.5134 44.0428C43.5134 43.9377 43.5446 43.835 43.603 43.7476C43.6613 43.6602 43.7443 43.5921 43.8414 43.5519C43.9385 43.5117 44.0453 43.5012 44.1484 43.5217C44.2514 43.5422 44.3461 43.5928 44.4204 43.6671C44.4947 43.7414 44.5453 43.8361 44.5658 43.9391C44.5863 44.0422 44.5758 44.149 44.5356 44.2461C44.4954 44.3432 44.4273 44.4262 44.3399 44.4846C44.2525 44.5429 44.1498 44.5741 44.0447 44.5741C43.9749 44.5742 43.9058 44.5605 43.8412 44.5338C43.7767 44.5071 43.7181 44.468 43.6687 44.4187C43.6193 44.3693 43.5801 44.3107 43.5534 44.2462C43.5267 44.1817 43.5129 44.1126 43.5129 44.0428H43.5134ZM45.545 43.5115C45.4356 43.2008 45.2325 42.9317 44.9637 42.7414C44.6949 42.5511 44.3736 42.4489 44.0442 42.4489C43.7149 42.4489 43.3936 42.5511 43.1248 42.7414C42.856 42.9317 42.6529 43.2008 42.5435 43.5115H39.7734V32.7252H50.9374V43.5115H45.545ZM50.9345 31.6626H39.7734C39.8006 31.1738 40.0137 30.7139 40.369 30.3772C40.7244 30.0405 41.1952 29.8525 41.6847 29.8518H49.0232C49.5128 29.8524 49.9836 30.0403 50.339 30.3771C50.6944 30.7138 50.9074 31.1738 50.9345 31.6626ZM15.7395 13.0626H42.4986C43.2078 13.0639 43.8876 13.3463 44.389 13.8479C44.8904 14.3494 45.1725 15.0293 45.1735 15.7385V28.7896H41.6871C40.898 28.7905 40.1415 29.1044 39.5835 29.6624C39.0255 30.2204 38.7117 30.9769 38.7108 31.766V31.9621H13.0626V15.7385C13.0637 15.029 13.346 14.3488 13.8479 13.8472C14.3497 13.3455 15.03 13.0634 15.7395 13.0626ZM15.7395 38.0027C15.0298 38.0019 14.3494 37.7196 13.8475 37.2178C13.3457 36.7159 13.0634 36.0355 13.0626 35.3258V33.0242H38.7108V38.0032L15.7395 38.0027ZM49.0232 50.7978H41.6871C41.1797 50.7971 40.6932 50.5952 40.3345 50.2364C39.9757 49.8775 39.7739 49.391 39.7734 48.8836V47.8548H50.9374V48.8841C50.9367 49.3915 50.7348 49.878 50.376 50.2367C50.0171 50.5955 49.5306 50.7973 49.0232 50.7978Z" fill="#333333"/>
<path d="M46.4847 48.7949H44.2227C44.0818 48.7949 43.9467 48.8509 43.847 48.9505C43.7474 49.0502 43.6914 49.1853 43.6914 49.3262C43.6914 49.4671 43.7474 49.6023 43.847 49.7019C43.9467 49.8016 44.0818 49.8576 44.2227 49.8576H46.4847C46.6256 49.8576 46.7607 49.8016 46.8604 49.7019C46.96 49.6023 47.016 49.4671 47.016 49.3262C47.016 49.1853 46.96 49.0502 46.8604 48.9505C46.7607 48.8509 46.6256 48.7949 46.4847 48.7949Z" fill="#333333"/>
<path d="M19.9571 28.9483H22.3649C22.4808 29.3609 22.7283 29.7243 23.0699 29.9831C23.4114 30.2419 23.8281 30.382 24.2567 30.382C24.6852 30.382 25.102 30.2419 25.4435 29.9831C25.785 29.7243 26.0325 29.3609 26.1484 28.9483H38.2634C38.4043 28.9483 38.5395 28.8924 38.6391 28.7927C38.7387 28.6931 38.7947 28.5579 38.7947 28.417C38.7947 28.2761 38.7387 28.141 38.6391 28.0413C38.5395 27.9417 38.4043 27.8857 38.2634 27.8857H26.1498C26.0341 27.4729 25.7866 27.1093 25.445 26.8504C25.1035 26.5914 24.6865 26.4512 24.2579 26.4512C23.8292 26.4512 23.4123 26.5914 23.0707 26.8504C22.7291 27.1093 22.4816 27.4729 22.3659 27.8857H19.9571C19.8162 27.8857 19.681 27.9417 19.5814 28.0413C19.4818 28.141 19.4258 28.2761 19.4258 28.417C19.4258 28.5579 19.4818 28.6931 19.5814 28.7927C19.681 28.8924 19.8162 28.9483 19.9571 28.9483ZM24.2559 27.5143C24.4345 27.5143 24.609 27.5672 24.7575 27.6664C24.9059 27.7656 25.0217 27.9066 25.09 28.0715C25.1583 28.2365 25.1762 28.418 25.1413 28.5931C25.1065 28.7683 25.0205 28.9291 24.8943 29.0554C24.768 29.1816 24.6072 29.2676 24.4321 29.3024C24.2569 29.3373 24.0754 29.3194 23.9105 29.2511C23.7455 29.1827 23.6045 29.067 23.5053 28.9186C23.4061 28.7701 23.3532 28.5956 23.3532 28.417C23.3533 28.1776 23.4485 27.9481 23.6177 27.7788C23.787 27.6095 24.0166 27.5144 24.2559 27.5143Z" fill="#333333"/>
<path d="M28.1947 22.6746C28.2805 22.7196 28.3769 22.7403 28.4737 22.7344C28.5704 22.7286 28.6636 22.6963 28.7434 22.6413L31.0382 21.0546C31.1088 21.0057 31.1665 20.9404 31.2064 20.8643C31.2463 20.7882 31.2671 20.7036 31.2671 20.6177C31.2671 20.5318 31.2463 20.4472 31.2064 20.3711C31.1665 20.295 31.1088 20.2297 31.0382 20.1808L28.7434 18.5941C28.6638 18.5392 28.5707 18.507 28.4742 18.501C28.3777 18.495 28.2814 18.5155 28.1957 18.5603C28.11 18.605 28.0381 18.6723 27.9878 18.7548C27.9375 18.8374 27.9106 18.9321 27.9102 19.0288V22.2022C27.9098 22.2995 27.9362 22.3949 27.9863 22.4782C28.0365 22.5615 28.1086 22.6294 28.1947 22.6746ZM28.9723 20.0436L29.8021 20.6175L28.9723 21.1913V20.0436Z" fill="#333333"/>
<path d="M29.1093 24.9724C29.9707 24.9724 30.8127 24.717 31.529 24.2384C32.2452 23.7598 32.8034 23.0796 33.1331 22.2838C33.4627 21.488 33.549 20.6122 33.3809 19.7674C33.2129 18.9225 32.7981 18.1465 32.189 17.5374C31.5799 16.9283 30.8038 16.5135 29.959 16.3454C29.1141 16.1774 28.2384 16.2636 27.4425 16.5933C26.6467 16.9229 25.9665 17.4811 25.4879 18.1974C25.0094 18.9136 24.7539 19.7557 24.7539 20.6171C24.7539 21.7722 25.2128 22.88 26.0296 23.6968C26.8463 24.5136 27.9542 24.9724 29.1093 24.9724ZM29.1093 17.3239C29.7606 17.3239 30.3973 17.517 30.9389 17.8789C31.4804 18.2407 31.9025 18.7551 32.1518 19.3568C32.401 19.9586 32.4663 20.6207 32.3392 21.2595C32.2121 21.8984 31.8985 22.4852 31.4379 22.9457C30.9773 23.4063 30.3906 23.7199 29.7517 23.847C29.1129 23.9741 28.4508 23.9089 27.849 23.6596C27.2473 23.4103 26.7329 22.9882 26.3711 22.4467C26.0092 21.9051 25.8161 21.2684 25.8161 20.6171C25.816 20.1846 25.9011 19.7563 26.0666 19.3567C26.2321 18.9572 26.4747 18.5941 26.7805 18.2883C27.0863 17.9825 27.4494 17.7399 27.8489 17.5744C28.2485 17.4089 28.6768 17.3238 29.1093 17.3239Z" fill="#333333"/>
<path d="M46.9736 37.1358L45.1145 35.85C45.0349 35.795 44.9418 35.7628 44.8453 35.7569C44.7488 35.7509 44.6525 35.7714 44.5668 35.8161C44.4811 35.8609 44.4092 35.9281 44.3589 36.0107C44.3085 36.0933 44.2817 36.188 44.2812 36.2847V38.8577C44.2817 38.9544 44.3085 39.0491 44.3589 39.1317C44.4092 39.2143 44.4811 39.2815 44.5668 39.3263C44.6525 39.371 44.7488 39.3915 44.8453 39.3855C44.9418 39.3795 45.0349 39.3474 45.1145 39.2924L46.9736 38.0062C47.0441 37.9572 47.1018 37.892 47.1416 37.8159C47.1814 37.7399 47.2022 37.6553 47.2022 37.5695C47.2022 37.4837 47.1814 37.3991 47.1416 37.3231C47.1018 37.247 47.0441 37.1818 46.9736 37.1329V37.1358ZM45.3434 37.8453V37.3L45.7375 37.5724L45.3434 37.8453Z" fill="#333333"/>
<path d="M45.3559 33.9434C44.6381 33.9434 43.9364 34.1562 43.3396 34.555C42.7427 34.9538 42.2775 35.5207 42.0028 36.1838C41.7281 36.847 41.6563 37.5768 41.7963 38.2808C41.9363 38.9848 42.282 39.6315 42.7896 40.1391C43.2972 40.6467 43.9439 40.9923 44.6479 41.1324C45.3519 41.2724 46.0817 41.2006 46.7448 40.9259C47.408 40.6512 47.9749 40.186 48.3737 39.5891C48.7725 38.9923 48.9853 38.2906 48.9853 37.5727C48.9852 36.6102 48.6028 35.6871 47.9222 35.0065C47.2416 34.3259 46.3185 33.9435 45.3559 33.9434ZM45.3559 40.14C44.8482 40.14 44.3518 39.9894 43.9297 39.7073C43.5075 39.4252 43.1784 39.0243 42.9841 38.5552C42.7898 38.0861 42.739 37.5699 42.838 37.0719C42.9371 36.5739 43.1816 36.1165 43.5406 35.7574C43.8997 35.3984 44.3571 35.1539 44.8551 35.0548C45.3531 34.9558 45.8693 35.0066 46.3384 35.2009C46.8075 35.3952 47.2084 35.7243 47.4905 36.1465C47.7726 36.5686 47.9232 37.065 47.9232 37.5727C47.9232 37.9099 47.8569 38.2438 47.7279 38.5553C47.5989 38.8668 47.4098 39.1499 47.1714 39.3884C46.933 39.6268 46.65 39.8159 46.3385 39.945C46.027 40.074 45.6931 40.1405 45.3559 40.1405V40.14Z" fill="#333333"/>
</svg>
