<svg width="65" height="64" viewBox="0 0 65 64" fill="none" xmlns="http://www.w3.org/2000/svg">
<rect x="0.75" width="64" height="64" rx="8" fill="white"/>
<path d="M27.75 38.25C25.25 38.25 23.6875 39.8125 23.6875 42.625C23.8958 43.875 25 46.375 27.75 46.375C31.1875 46.375 31.1875 44.1875 32.75 44.1875C34.625 44.1875 34.9375 46.375 37.75 46.375C39.9375 46.375 42.125 44.8125 42.125 42.625C42.125 39.125 39.4167 38.25 38.0625 38.25H27.75Z" fill="#ECF7FB"/>
<path d="M47.125 16.6875H18.375V32.9375C18.375 35.1875 19.4167 35.9583 19.9375 36.0625H44.625C47.625 36.0625 48.1667 33.9792 47.75 32.9375L47.125 16.6875Z" fill="#ECF7FB"/>
<path d="M26.5 21.375L25.5625 22.3125V30.125L26.5 31.375L32.125 33.5625L32.75 32.625V25.125L32.125 23.875L26.5 21.375Z" fill="white"/>
<path d="M32.1174 41.1636H34.0892C34.2272 41.1668 34.3646 41.1424 34.493 41.0918C34.6215 41.0412 34.7386 40.9654 34.8374 40.8689C34.9361 40.7724 35.0146 40.6572 35.0682 40.5299C35.1218 40.4026 35.1494 40.2659 35.1494 40.1279C35.1494 39.9898 35.1218 39.8531 35.0682 39.7258C35.0146 39.5985 34.9361 39.4833 34.8374 39.3868C34.7386 39.2903 34.6215 39.2145 34.493 39.1639C34.3646 39.1133 34.2272 39.0889 34.0892 39.0921H32.1174C31.8468 39.0984 31.5895 39.2103 31.4004 39.4038C31.2113 39.5974 31.1055 39.8573 31.1055 40.1279C31.1055 40.3984 31.2113 40.6583 31.4004 40.8519C31.5895 41.0454 31.8468 41.1573 32.1174 41.1636ZM32.1174 40.0481H34.0892C34.1103 40.0481 34.1306 40.0565 34.1456 40.0715C34.1605 40.0864 34.1689 40.1067 34.1689 40.1279C34.1689 40.149 34.1605 40.1693 34.1456 40.1842C34.1306 40.1992 34.1103 40.2076 34.0892 40.2076H32.1174C32.0962 40.2076 32.0759 40.1992 32.061 40.1842C32.046 40.1693 32.0376 40.149 32.0376 40.1279C32.0376 40.1067 32.046 40.0864 32.061 40.0715C32.0759 40.0565 32.0962 40.0481 32.1174 40.0481Z" fill="#333333"/>
<path d="M38.5781 42.3788C38.5781 42.604 38.6449 42.8241 38.77 43.0114C38.8951 43.1986 39.0729 43.3446 39.281 43.4307C39.489 43.5169 39.718 43.5395 39.9388 43.4955C40.1597 43.4516 40.3626 43.3432 40.5218 43.1839C40.6811 43.0247 40.7895 42.8218 40.8334 42.601C40.8774 42.3801 40.8548 42.1512 40.7686 41.9431C40.6825 41.7351 40.5365 41.5572 40.3493 41.4321C40.162 41.307 39.9419 41.2402 39.7167 41.2402C39.4147 41.2402 39.1251 41.3602 38.9116 41.5737C38.6981 41.7873 38.5781 42.0769 38.5781 42.3788ZM39.7167 42.1963C39.7528 42.1963 39.7881 42.207 39.8181 42.2271C39.8482 42.2471 39.8715 42.2756 39.8854 42.309C39.8992 42.3423 39.9028 42.379 39.8957 42.4144C39.8887 42.4499 39.8713 42.4824 39.8458 42.5079C39.8203 42.5334 39.7877 42.5508 39.7523 42.5579C39.7169 42.5649 39.6802 42.5613 39.6469 42.5475C39.6135 42.5337 39.585 42.5103 39.565 42.4802C39.5449 42.4502 39.5342 42.4149 39.5342 42.3788C39.5342 42.3549 39.5389 42.3311 39.5481 42.309C39.5573 42.2868 39.5707 42.2667 39.5876 42.2498C39.6046 42.2328 39.6247 42.2194 39.6469 42.2102C39.669 42.201 39.6927 42.1963 39.7167 42.1963Z" fill="#333333"/>
<path d="M36.08 43.5174C36.3052 43.5174 36.5253 43.4506 36.7126 43.3255C36.8998 43.2004 37.0458 43.0226 37.1319 42.8145C37.2181 42.6065 37.2406 42.3776 37.1967 42.1567C37.1528 41.9358 37.0443 41.733 36.8851 41.5737C36.7259 41.4145 36.523 41.306 36.3021 41.2621C36.0813 41.2182 35.8523 41.2407 35.6443 41.3269C35.4362 41.4131 35.2584 41.559 35.1333 41.7463C35.0082 41.9335 34.9414 42.1536 34.9414 42.3788C34.9414 42.6808 35.0614 42.9704 35.2749 43.1839C35.4884 43.3975 35.778 43.5174 36.08 43.5174ZM36.08 42.1963C36.1161 42.1963 36.1514 42.207 36.1814 42.2271C36.2114 42.2471 36.2348 42.2756 36.2486 42.309C36.2625 42.3423 36.2661 42.379 36.259 42.4144C36.252 42.4499 36.2346 42.4824 36.2091 42.5079C36.1836 42.5334 36.151 42.5508 36.1156 42.5579C36.0802 42.5649 36.0435 42.5613 36.0102 42.5475C35.9768 42.5337 35.9483 42.5103 35.9282 42.4802C35.9082 42.4502 35.8975 42.4149 35.8975 42.3788C35.8975 42.3548 35.9022 42.3311 35.9114 42.309C35.9205 42.2868 35.934 42.2667 35.9509 42.2498C35.9679 42.2328 35.988 42.2194 36.0102 42.2102C36.0323 42.201 36.056 42.1963 36.08 42.1963Z" fill="#333333"/>
<path d="M37.9003 43.0566C37.6751 43.0566 37.455 43.1234 37.2677 43.2485C37.0805 43.3736 36.9346 43.5515 36.8484 43.7595C36.7622 43.9676 36.7397 44.1965 36.7836 44.4174C36.8275 44.6382 36.936 44.8411 37.0952 45.0003C37.2544 45.1596 37.4573 45.268 37.6782 45.3119C37.899 45.3559 38.128 45.3333 38.336 45.2471C38.5441 45.161 38.7219 45.015 38.847 44.8278C38.9721 44.6406 39.0389 44.4204 39.0389 44.1952C39.0389 43.8933 38.9189 43.6036 38.7054 43.3901C38.4919 43.1766 38.2023 43.0566 37.9003 43.0566ZM37.9003 44.3778C37.8642 44.3778 37.8289 44.367 37.7989 44.347C37.7689 44.3269 37.7455 44.2984 37.7317 44.2651C37.7179 44.2317 37.7142 44.195 37.7213 44.1596C37.7283 44.1242 37.7457 44.0917 37.7712 44.0662C37.7968 44.0406 37.8293 44.0232 37.8647 44.0162C37.9001 44.0092 37.9368 44.0128 37.9702 44.0266C38.0035 44.0404 38.032 44.0638 38.0521 44.0938C38.0721 44.1238 38.0829 44.1591 38.0829 44.1952C38.0829 44.2436 38.0636 44.2901 38.0294 44.3243C37.9952 44.3585 37.9487 44.3778 37.9003 44.3778Z" fill="#333333"/>
<path d="M37.9003 41.701C38.1255 41.701 38.3456 41.6342 38.5329 41.5091C38.7201 41.384 38.866 41.2062 38.9522 40.9981C39.0384 40.7901 39.0609 40.5612 39.017 40.3403C38.9731 40.1194 38.8646 39.9165 38.7054 39.7573C38.5462 39.5981 38.3433 39.4896 38.1224 39.4457C37.9016 39.4018 37.6726 39.4243 37.4646 39.5105C37.2565 39.5967 37.0787 39.7426 36.9536 39.9298C36.8285 40.1171 36.7617 40.3372 36.7617 40.5624C36.7617 40.8644 36.8817 41.154 37.0952 41.3675C37.3087 41.5811 37.5983 41.701 37.9003 41.701ZM37.9003 40.3799C37.9364 40.3799 37.9717 40.3906 38.0017 40.4106C38.0317 40.4307 38.0551 40.4592 38.0689 40.4926C38.0828 40.5259 38.0864 40.5626 38.0793 40.598C38.0723 40.6334 38.0549 40.666 38.0294 40.6915C38.0038 40.717 37.9713 40.7344 37.9359 40.7414C37.9005 40.7485 37.8638 40.7449 37.8305 40.7311C37.7971 40.7172 37.7686 40.6938 37.7485 40.6638C37.7285 40.6338 37.7178 40.5985 37.7178 40.5624C37.7177 40.5384 37.7224 40.5146 37.7315 40.4924C37.7406 40.4702 37.7541 40.45 37.771 40.433C37.788 40.416 37.8081 40.4025 37.8303 40.3933C37.8525 40.3841 37.8763 40.3793 37.9003 40.3793V40.3799Z" fill="#333333"/>
<path d="M26.8333 40.4777V41.2451H26.0062C25.9436 41.2479 25.8822 41.2631 25.8256 41.2898C25.7689 41.3166 25.7181 41.3543 25.6762 41.4009C25.6342 41.4474 25.602 41.5019 25.5813 41.561C25.5606 41.6201 25.5518 41.6828 25.5555 41.7453V43.013C25.5525 43.0734 25.562 43.1339 25.5834 43.1906C25.6048 43.2472 25.6377 43.2988 25.6801 43.3421C25.7224 43.3855 25.7732 43.4196 25.8293 43.4423C25.8855 43.4651 25.9457 43.476 26.0062 43.4744H26.8333V44.28C26.8293 44.3402 26.8377 44.4007 26.858 44.4575C26.8784 44.5144 26.9102 44.5664 26.9515 44.6104C26.9928 44.6545 27.0428 44.6895 27.0982 44.7134C27.1537 44.7373 27.2135 44.7495 27.2738 44.7493H28.5431C28.6035 44.7495 28.6633 44.7373 28.7188 44.7134C28.7743 44.6895 28.8243 44.6545 28.8656 44.6105C28.907 44.5665 28.9389 44.5144 28.9593 44.4576C28.9797 44.4007 28.9882 44.3403 28.9843 44.28V43.4744H29.8102C29.8707 43.4759 29.9309 43.4649 29.987 43.4422C30.0431 43.4194 30.0939 43.3853 30.1362 43.342C30.1785 43.2986 30.2114 43.2471 30.2328 43.1905C30.2543 43.1339 30.2638 43.0734 30.2609 43.013V41.7437C30.2664 41.6153 30.2212 41.4899 30.1352 41.3944C30.0943 41.3487 30.0446 41.3117 29.989 41.2856C29.9334 41.2596 29.8732 41.245 29.8119 41.2428H28.9859V40.4777C28.9904 40.4154 28.9825 40.3528 28.9627 40.2936C28.9428 40.2343 28.9115 40.1796 28.8705 40.1324C28.8294 40.0853 28.7795 40.0468 28.7235 40.019C28.6675 39.9913 28.6066 39.9748 28.5443 39.9707H27.275C27.2126 39.9748 27.1517 39.9913 27.0957 40.019C27.0397 40.0468 26.9898 40.0853 26.9487 40.1324C26.9077 40.1796 26.8764 40.2343 26.8566 40.2936C26.8367 40.3528 26.8288 40.4154 26.8333 40.4777ZM27.791 41.7453V40.9262H28.0299V41.7453C28.0393 41.8735 28.0984 41.9929 28.1946 42.078C28.2908 42.1632 28.4165 42.2074 28.5448 42.2011H29.3048V42.52H28.5448C28.4124 42.5223 28.2858 42.5746 28.1903 42.6663C28.0948 42.758 28.0375 42.8825 28.0299 43.0147V43.7949H27.791V43.013C27.7832 42.8807 27.7258 42.7563 27.6302 42.6646C27.5347 42.5729 27.408 42.5206 27.2755 42.5183H26.5161V42.1994H27.2755C27.4039 42.2055 27.5295 42.1613 27.6258 42.0762C27.7221 41.9911 27.7813 41.8718 27.791 41.7437V41.7453Z" fill="#333333"/>
<path d="M20.6666 36.7014H32.5708V37.6592H27.8801C27.1969 37.6636 26.5227 37.8166 25.9045 38.1076C25.2862 38.3986 24.7387 38.8207 24.2999 39.3444C23.8611 39.8682 23.5415 40.4812 23.3632 41.1408C23.185 41.8005 23.1524 42.491 23.2677 43.1645C23.3298 43.5268 23.4336 43.8807 23.577 44.2192L22.9331 48.5685C22.8309 49.2564 22.974 49.9584 23.3372 50.5515C23.7005 51.1446 24.2608 51.591 24.92 51.8127C25.5793 52.0343 26.2955 52.017 26.9432 51.7638C27.591 51.5106 28.1291 51.0376 28.4632 50.4276L30.9145 45.951C31.2159 45.6998 31.484 45.411 31.7123 45.0918C31.8411 44.9108 32.0117 44.7635 32.2094 44.6622C32.4072 44.5609 32.6264 44.5087 32.8486 44.5099H32.9376C33.1599 44.5076 33.3795 44.5588 33.5778 44.6594C33.776 44.7599 33.9472 44.9067 34.0768 45.0873C34.3055 45.4085 34.5743 45.6991 34.8768 45.9521L37.2993 50.462C37.5562 50.9277 37.9332 51.3161 38.3912 51.5866C38.8492 51.8571 39.3713 51.9999 39.9032 52C40.1956 51.9998 40.4863 51.9559 40.7658 51.8699C41.4582 51.6443 42.0482 51.1805 42.4308 50.5608C42.8133 49.9411 42.9635 49.2057 42.8548 48.4856C42.8548 48.4806 42.8548 48.4749 42.8548 48.4699L42.2193 44.178C42.5167 43.4647 42.634 42.689 42.5607 41.9196C42.4874 41.1502 42.2258 40.4107 41.799 39.7663C41.3723 39.122 40.7934 38.5926 40.1136 38.2249C39.4338 37.8572 38.6739 37.6625 37.901 37.658H33.5246V36.7003H45.0306C45.8039 36.7003 46.5457 36.3931 47.0925 35.8462C47.6394 35.2993 47.9466 34.5576 47.9466 33.7842V14.9166C47.9466 14.1435 47.6396 13.402 47.0932 12.8551C46.5467 12.3081 45.8054 12.0006 45.0323 12H20.6666C20.2836 12 19.9042 12.0755 19.5503 12.2221C19.1965 12.3687 18.8749 12.5836 18.6041 12.8545C18.3332 13.1254 18.1184 13.4469 17.9719 13.8009C17.8253 14.1548 17.7499 14.5341 17.75 14.9172V33.7848C17.7499 34.1678 17.8253 34.5471 17.9719 34.901C18.1184 35.2549 18.3332 35.5765 18.6041 35.8473C18.8749 36.1182 19.1965 36.333 19.5504 36.4795C19.9043 36.6261 20.2836 36.7015 20.6666 36.7014ZM27.6244 49.969C27.3982 50.3822 27.0339 50.7027 26.5953 50.8743C26.1566 51.0459 25.6716 51.0578 25.2251 50.9078C24.7786 50.7578 24.399 50.4556 24.1529 50.0539C23.9069 49.6523 23.8099 49.1769 23.879 48.711L24.3596 45.4648C24.6035 45.7425 24.8792 45.9906 25.181 46.2039C25.9693 46.7625 26.9117 47.0622 27.8779 47.0614C28.3755 47.0604 28.8699 46.9807 29.3427 46.8254L27.6244 49.969ZM40.4846 50.9555C40.0436 51.0898 39.5698 51.0686 39.1425 50.8955C38.7152 50.7224 38.3603 50.4079 38.137 50.0045L36.4272 46.8169C36.8996 46.9742 37.3941 47.0549 37.892 47.0558H37.8954C38.5127 47.0567 39.1241 46.9346 39.6938 46.6965C40.2634 46.4585 40.7799 46.1092 41.2131 45.6693C41.2897 45.5921 41.3618 45.5127 41.4323 45.4316L41.9021 48.6028C41.9812 49.0997 41.882 49.6085 41.6221 50.0392C41.3621 50.47 40.9582 50.795 40.4818 50.9566L40.4846 50.9555ZM37.8982 38.6141C38.8835 38.6262 39.8243 39.0261 40.5168 39.7271C41.2093 40.4281 41.5976 41.3738 41.5976 42.3592C41.5976 43.3445 41.2093 44.2902 40.5168 44.9912C39.8243 45.6923 38.8835 46.0921 37.8982 46.1042C37.3036 46.1052 36.7174 45.9636 36.1889 45.6913C35.6603 45.419 35.2047 45.0239 34.8604 44.5392C34.6431 44.2339 34.3558 43.9851 34.0225 43.8138C33.6892 43.6424 33.3197 43.5535 32.9449 43.5544H32.8486C32.4728 43.5527 32.102 43.6415 31.7678 43.8133C31.4335 43.9851 31.1455 44.2349 30.928 44.5414C30.5536 45.0592 30.0527 45.4724 29.4732 45.7414C28.8936 46.0105 28.2547 46.1265 27.6176 46.0783C26.9804 46.0301 26.3662 45.8194 25.8337 45.4663C25.3012 45.1131 24.8681 44.6293 24.5758 44.0611C24.2835 43.4929 24.1418 42.8592 24.1642 42.2207C24.1865 41.5821 24.3723 40.9599 24.7036 40.4135C25.0349 39.8672 25.5008 39.4149 26.0567 39.0998C26.6126 38.7848 27.24 38.6176 27.879 38.6141H37.8982ZM28.3477 12.9577H45.0801C45.603 12.9573 46.105 13.1627 46.4774 13.5297C46.8498 13.8966 47.0627 14.3955 47.07 14.9183V15.9859H28.3477V12.9577ZM18.7077 14.9166C18.7154 14.3943 18.9284 13.896 19.3005 13.5295C19.6727 13.1629 20.1741 12.9575 20.6965 12.9577H27.3917V15.9859H18.7077V14.9166ZM18.7077 16.9403H47.0745V33.8028C47.0672 34.3241 46.8538 34.8213 46.4809 35.1857C46.108 35.55 45.606 35.7519 45.0846 35.747H20.6965C20.1753 35.7516 19.6736 35.5496 19.301 35.1853C18.9283 34.821 18.715 34.3239 18.7077 33.8028V16.9403Z" fill="#333333"/>
<path d="M21.0839 13.877C20.963 13.877 20.8448 13.9128 20.7443 13.98C20.6438 14.0471 20.5655 14.1426 20.5192 14.2543C20.4729 14.366 20.4608 14.4889 20.4844 14.6075C20.508 14.726 20.5662 14.835 20.6517 14.9205C20.7372 15.0059 20.8461 15.0642 20.9647 15.0877C21.0832 15.1113 21.2062 15.0992 21.3178 15.053C21.4295 15.0067 21.525 14.9283 21.5922 14.8278C21.6593 14.7273 21.6952 14.6091 21.6952 14.4882C21.6952 14.3261 21.6308 14.1706 21.5162 14.056C21.4015 13.9414 21.246 13.877 21.0839 13.877Z" fill="#333333"/>
<path d="M23.08 15.0995C23.4176 15.0995 23.6913 14.8258 23.6913 14.4882C23.6913 14.1506 23.4176 13.877 23.08 13.877C22.7424 13.877 22.4688 14.1506 22.4688 14.4882C22.4688 14.8258 22.7424 15.0995 23.08 15.0995Z" fill="#333333"/>
<path d="M25.0761 13.877C24.9552 13.877 24.837 13.9128 24.7365 13.98C24.636 14.0471 24.5576 14.1426 24.5114 14.2543C24.4651 14.366 24.453 14.4889 24.4766 14.6075C24.5002 14.726 24.5584 14.835 24.6439 14.9205C24.7294 15.0059 24.8383 15.0642 24.9569 15.0877C25.0754 15.1113 25.1983 15.0992 25.31 15.053C25.4217 15.0067 25.5172 14.9283 25.5844 14.8278C25.6515 14.7273 25.6874 14.6091 25.6874 14.4882C25.6874 14.3261 25.623 14.1706 25.5083 14.056C25.3937 13.9414 25.2382 13.877 25.0761 13.877Z" fill="#333333"/>
<path d="M20.2216 19.4883C20.3485 19.4883 20.4701 19.4379 20.5598 19.3482C20.6495 19.2585 20.6999 19.1369 20.6999 19.01V18.6117C20.6999 18.4847 20.6495 18.3629 20.5597 18.2731C20.4699 18.1833 20.3481 18.1328 20.2211 18.1328C20.0941 18.1328 19.9722 18.1833 19.8824 18.2731C19.7926 18.3629 19.7422 18.4847 19.7422 18.6117V19.01C19.7422 19.1369 19.7926 19.2585 19.8823 19.3482C19.972 19.4379 20.0936 19.4883 20.2205 19.4883H20.2216Z" fill="#333333"/>
<path d="M20.2216 26.3426C20.3485 26.3426 20.4701 26.2923 20.5598 26.2026C20.6495 26.1129 20.6999 25.9912 20.6999 25.8643V20.5257C20.6999 20.3987 20.6495 20.2769 20.5597 20.1871C20.4699 20.0973 20.3481 20.0469 20.2211 20.0469C20.0941 20.0469 19.9722 20.0973 19.8824 20.1871C19.7926 20.2769 19.7422 20.3987 19.7422 20.5257V25.8643C19.7422 25.9912 19.7926 26.1129 19.8823 26.2026C19.972 26.2923 20.0936 26.3426 20.2205 26.3426H20.2216Z" fill="#333333"/>
<path d="M25.1599 22.3802V29.9126C24.927 29.9988 24.7263 30.1547 24.5852 30.359C24.4441 30.5634 24.3693 30.8062 24.3711 31.0545C24.3695 31.2977 24.4403 31.5358 24.5746 31.7385C24.7089 31.9412 24.9006 32.0993 25.1252 32.1925C25.3498 32.2857 25.597 32.3099 25.8354 32.262C26.0738 32.214 26.2925 32.0961 26.4635 31.9233L31.6601 33.9284C31.6719 34.2463 31.8065 34.5472 32.0356 34.768C32.2647 34.9887 32.5705 35.1121 32.8886 35.1121C33.2067 35.1121 33.5125 34.9887 33.7416 34.768C33.9707 34.5472 34.1052 34.2463 34.117 33.9284L39.2748 31.9267C39.3991 32.0635 39.5528 32.1705 39.7244 32.2394C39.8959 32.3083 40.0809 32.3375 40.2654 32.3247C40.4498 32.3119 40.629 32.2575 40.7894 32.1655C40.9498 32.0735 41.0872 31.9463 41.1915 31.7936C41.2957 31.6409 41.3639 31.4665 41.391 31.2836C41.4182 31.1007 41.4035 30.914 41.3481 30.7376C41.2928 30.5612 41.1982 30.3996 41.0714 30.265C40.9446 30.1304 40.789 30.0263 40.6162 29.9605V22.4275C40.8491 22.3413 41.0497 22.1854 41.1908 21.981C41.332 21.7767 41.4067 21.5339 41.4049 21.2855C41.4067 21.0355 41.3317 20.7909 41.1902 20.5848C41.0486 20.3787 40.8472 20.221 40.6132 20.1329C40.3792 20.0447 40.1238 20.0305 39.8815 20.0921C39.6391 20.1536 39.4215 20.288 39.2579 20.4771L34.1125 18.814C34.0833 18.5094 33.9416 18.2267 33.7152 18.0209C33.4887 17.8152 33.1937 17.7012 32.8877 17.7012C32.5818 17.7012 32.2868 17.8152 32.0603 18.0209C31.8339 18.2267 31.6922 18.5094 31.663 18.814L26.548 20.4681C26.4295 20.3229 26.2792 20.2068 26.1088 20.1289C25.9383 20.051 25.7523 20.0133 25.5649 20.0187C25.3776 20.024 25.194 20.0724 25.0283 20.16C24.8626 20.2475 24.7192 20.372 24.6092 20.5238C24.4992 20.6755 24.4256 20.8505 24.3939 21.0352C24.3623 21.22 24.3735 21.4095 24.4267 21.5892C24.4799 21.7689 24.5737 21.934 24.7008 22.0717C24.8279 22.2094 24.985 22.3161 25.1599 22.3836V22.3802ZM32.4111 32.7464C32.2505 32.8128 32.1049 32.9109 31.983 33.0348L29.3835 32.0371V27.9244L32.4111 29.0883V32.7464ZM32.4111 28.0624L29.3835 26.8985V23.2647L31.6449 24.1368C31.6525 24.376 31.7287 24.608 31.8646 24.805C32.0005 25.002 32.1902 25.1557 32.4111 25.2478V28.0624ZM30.3176 22.5886L33.1091 21.6168L35.5424 22.5554L33.7644 23.2467C33.65 23.1305 33.5137 23.0382 33.3633 22.9752C33.213 22.9122 33.0516 22.8798 32.8886 22.8798C32.7256 22.8798 32.5642 22.9122 32.4138 22.9752C32.2635 23.0382 32.1272 23.1305 32.0128 23.2467L30.3176 22.5886ZM32.8889 34.1565C32.8344 34.1565 32.7811 34.1404 32.7358 34.1101C32.6905 34.0798 32.6552 34.0368 32.6343 33.9865C32.6135 33.9361 32.608 33.8807 32.6187 33.8273C32.6293 33.7738 32.6555 33.7248 32.6941 33.6862C32.7326 33.6477 32.7817 33.6215 32.8351 33.6108C32.8886 33.6002 32.944 33.6056 32.9943 33.6265C33.0446 33.6474 33.0877 33.6827 33.1179 33.728C33.1482 33.7733 33.1644 33.8265 33.1644 33.881C33.1644 33.9541 33.1353 34.0242 33.0837 34.0758C33.032 34.1275 32.9619 34.1565 32.8889 34.1565ZM32.8889 24.3864C32.8344 24.3864 32.7811 24.3702 32.7358 24.3399C32.6905 24.3097 32.6552 24.2667 32.6343 24.2163C32.6135 24.166 32.608 24.1106 32.6187 24.0571C32.6293 24.0037 32.6555 23.9546 32.6941 23.9161C32.7326 23.8776 32.7817 23.8513 32.8351 23.8407C32.8886 23.8301 32.944 23.8355 32.9943 23.8564C33.0446 23.8772 33.0877 23.9125 33.1179 23.9578C33.1482 24.0031 33.1644 24.0564 33.1644 24.1109C33.1644 24.184 33.1353 24.254 33.0837 24.3057C33.032 24.3574 32.9619 24.3864 32.8889 24.3864ZM36.3948 32.0303L33.7948 33.0343C33.6731 32.9103 33.5277 32.8122 33.3672 32.7458V29.0883L36.3953 27.9244L36.3948 32.0303ZM36.3948 26.8979L33.3666 28.0619V25.245C33.5876 25.1529 33.7774 24.9991 33.9133 24.8019C34.0491 24.6048 34.1254 24.3727 34.1328 24.1334L36.3942 23.2596L36.3948 26.8979ZM39.6624 29.9762C39.4614 30.0707 39.2899 30.2181 39.1662 30.4026C39.0426 30.5871 38.9714 30.8017 38.9604 31.0236L37.3514 31.6596V27.5526L39.6613 26.6331L39.6624 29.9762ZM40.1891 21.0095C40.2436 21.0095 40.2969 21.0256 40.3422 21.0559C40.3875 21.0862 40.4228 21.1292 40.4437 21.1795C40.4645 21.2299 40.47 21.2853 40.4593 21.3387C40.4487 21.3922 40.4225 21.4412 40.384 21.4798C40.3454 21.5183 40.2963 21.5445 40.2429 21.5552C40.1895 21.5658 40.1341 21.5603 40.0837 21.5395C40.0334 21.5186 39.9904 21.4833 39.9601 21.438C39.9298 21.3927 39.9137 21.3395 39.9137 21.285C39.9137 21.2119 39.9427 21.1418 39.9943 21.0902C40.046 21.0385 40.1161 21.0095 40.1891 21.0095ZM40.1891 30.8269C40.2436 30.8269 40.2969 30.8431 40.3422 30.8734C40.3875 30.9036 40.4228 30.9467 40.4437 30.997C40.4645 31.0473 40.47 31.1027 40.4593 31.1562C40.4487 31.2096 40.4225 31.2587 40.384 31.2972C40.3454 31.3358 40.2963 31.362 40.2429 31.3726C40.1895 31.3833 40.1341 31.3778 40.0837 31.357C40.0334 31.3361 39.9904 31.3008 39.9601 31.2555C39.9298 31.2102 39.9137 31.1569 39.9137 31.1024C39.9137 31.0294 39.9427 30.9593 39.9943 30.9076C40.046 30.856 40.1161 30.8269 40.1891 30.8269ZM39.2877 22.1244C39.389 22.2467 39.5165 22.3447 39.6607 22.4112V25.6072L37.3508 26.5267V22.8895L39.2877 22.1244ZM38.7379 21.3126L36.8652 22.0405L34.5046 21.13L36.2714 20.5148L38.7379 21.3126ZM32.8877 18.6545C32.9422 18.6545 32.9955 18.6707 33.0408 18.701C33.0861 18.7312 33.1214 18.7743 33.1423 18.8246C33.1631 18.875 33.1686 18.9303 33.1579 18.9838C33.1473 19.0372 33.1211 19.0863 33.0825 19.1248C33.044 19.1634 32.9949 19.1896 32.9415 19.2002C32.888 19.2109 32.8327 19.2054 32.7823 19.1846C32.732 19.1637 32.6889 19.1284 32.6587 19.0831C32.6284 19.0378 32.6122 18.9845 32.6122 18.93C32.6123 18.8938 32.6195 18.858 32.6335 18.8245C32.6474 18.7911 32.6678 18.7607 32.6935 18.7352C32.7192 18.7097 32.7497 18.6894 32.7832 18.6757C32.8167 18.662 32.8526 18.655 32.8889 18.6551L32.8877 18.6545ZM31.948 19.725C32.0633 19.862 32.2072 19.9721 32.3695 20.0477C32.5318 20.1232 32.7087 20.1624 32.8877 20.1624C33.0668 20.1624 33.2437 20.1232 33.406 20.0477C33.5683 19.9721 33.7122 19.862 33.8275 19.725L34.7638 20.0275L33.1249 20.5982L31.3565 19.9165L31.948 19.725ZM29.9114 20.3836L31.7283 21.0844L28.9413 22.0545L27.0342 21.3143L29.9114 20.3836ZM26.1159 22.3633C26.2343 22.2878 26.3472 22.2043 26.4539 22.1131L28.4258 22.89V26.5261L26.1159 25.6067V22.3633ZM26.1159 26.632L28.4258 27.5514V31.6675L26.8201 31.0371C26.8165 30.8052 26.7487 30.5789 26.6243 30.3832C26.4999 30.1875 26.3237 30.0301 26.1153 29.9283L26.1159 26.632ZM25.5891 20.9616C25.6436 20.9616 25.6969 20.9777 25.7422 21.008C25.7875 21.0383 25.8228 21.0813 25.8437 21.1317C25.8645 21.182 25.87 21.2374 25.8594 21.2908C25.8487 21.3443 25.8225 21.3934 25.784 21.4319C25.7454 21.4704 25.6963 21.4967 25.6429 21.5073C25.5895 21.5179 25.5341 21.5125 25.4837 21.4916C25.4334 21.4708 25.3904 21.4354 25.3601 21.3901C25.3298 21.3448 25.3137 21.2916 25.3137 21.2371C25.3141 21.1643 25.3433 21.0947 25.3949 21.0434C25.4466 20.9921 25.5164 20.9633 25.5891 20.9633V20.9616ZM25.5891 30.7791C25.6436 30.7791 25.6969 30.7952 25.7422 30.8255C25.7875 30.8558 25.8228 30.8988 25.8437 30.9491C25.8645 30.9995 25.87 31.0549 25.8594 31.1083C25.8487 31.1617 25.8225 31.2108 25.784 31.2494C25.7454 31.2879 25.6963 31.3141 25.6429 31.3247C25.5895 31.3354 25.5341 31.3299 25.4837 31.3091C25.4334 31.2882 25.3904 31.2529 25.3601 31.2076C25.3298 31.1623 25.3137 31.109 25.3137 31.0545C25.314 30.9817 25.3431 30.9119 25.3947 30.8605C25.4464 30.809 25.5163 30.7802 25.5891 30.7802V30.7791Z" fill="#333333"/>
</svg>
