<svg width="65" height="64" viewBox="0 0 65 64" fill="none" xmlns="http://www.w3.org/2000/svg">
<rect x="0.25" width="64" height="64" rx="8" fill="white"/>
<g clip-path="url(#clip0_4276:101135)">
<path d="M17.25 31.6875H16.3125V27.9375C16.4167 25.8542 17.8125 21.6875 22.5625 21.6875C27.3125 21.6875 29.125 25.0208 29.4375 26.6875L29.75 30.125L29.125 31.375C28.1875 31.2708 26 31.0625 24.75 31.0625C23.5 31.0625 21.3125 29.3958 20.375 28.5625L17.875 28.875L17.25 31.6875Z" fill="#ECF7FB"/>
<path d="M14.4375 44.5L20.0625 42.625L23.1875 43.5625L26 42.625L31.9375 44.8125L33.1875 47V50.75H12.875V46.6875L14.4375 44.5Z" fill="#ECF7FB"/>
<path d="M32.25 27.3125L31.3125 30.4375H42.875L41.3125 27L38.8125 25.125L36.9375 26.6875L35.0625 25.125L32.25 27.3125Z" fill="#ECF7FB"/>
<circle cx="36.9375" cy="20.4375" r="2.8125" fill="#ECF7FB"/>
<path d="M49.64 13.25H24.3099C23.6183 13.2507 22.9552 13.5258 22.4661 14.0149C21.977 14.5039 21.7019 15.167 21.7012 15.8587V21.1694C20.055 21.4772 18.5681 22.3504 17.4974 23.6382C16.4267 24.9259 15.8395 26.5473 15.8374 28.222V31.1273C15.5671 31.2341 15.3266 31.4044 15.1361 31.624C14.9457 31.8435 14.8111 32.1058 14.7436 32.3885C14.6123 32.9256 14.6843 33.4922 14.9459 33.9793C15.2075 34.4665 15.6401 34.8395 16.1604 35.0267L16.4066 35.8732C16.5835 36.7905 16.9498 37.6609 17.482 38.4287C18.0142 39.1965 18.7007 39.845 19.4975 40.3326V42.2396L15.0397 43.6842C14.4036 43.8839 13.8272 44.2391 13.3627 44.7175C12.8982 45.1959 12.5603 45.7825 12.3796 46.4244C12.3656 46.4748 12.3527 46.5254 12.3409 46.5762C12.2772 46.8623 12.2468 47.1548 12.2503 47.4479V50.7609C12.2503 50.9143 12.3112 51.0614 12.4196 51.1698C12.5281 51.2783 12.6752 51.3392 12.8286 51.3392H33.1896C33.3429 51.3392 33.49 51.2783 33.5985 51.1698C33.7069 51.0614 33.7679 50.9143 33.7679 50.7609V47.4479C33.7703 47.1548 33.7388 46.8625 33.674 46.5767C33.6622 46.5258 33.6493 46.4753 33.6354 46.4249C33.4546 45.7831 33.1168 45.1965 32.6524 44.7181C32.1881 44.2397 31.6118 43.8846 30.9757 43.6848L26.5195 42.2396V40.3326C27.3165 39.8449 28.0031 39.1963 28.5353 38.4282C29.0675 37.6602 29.4337 36.7896 29.6105 35.8721L29.8567 35.0256C29.906 35.0079 29.9543 34.9881 30.0021 34.9671H32.5126V39.6299H31.1994C31.046 39.6299 30.8988 39.6908 30.7903 39.7993C30.6818 39.9078 30.6208 40.055 30.6208 40.2084C30.6208 40.3618 30.6818 40.509 30.7903 40.6175C30.8988 40.726 31.046 40.7869 31.1994 40.7869H43.5809C43.7343 40.7869 43.8815 40.726 43.99 40.6175C44.0985 40.509 44.1595 40.3618 44.1595 40.2084C44.1595 40.055 44.0985 39.9078 43.99 39.7993C43.8815 39.6908 43.7343 39.6299 43.5809 39.6299H41.4378V34.9677H49.64C50.3314 34.9672 50.9945 34.6926 51.4837 34.204C51.973 33.7153 52.2485 33.0526 52.2497 32.3611V15.8587C52.249 15.1669 51.9738 14.5036 51.4845 14.0145C50.9952 13.5254 50.3318 13.2504 49.64 13.25ZM22.8583 15.8587C22.8588 15.4738 23.0118 15.1049 23.284 14.8327C23.5561 14.5606 23.9251 14.4075 24.3099 14.4071H49.64C50.0249 14.4074 50.394 14.5604 50.6663 14.8325C50.9385 15.1047 51.0917 15.4737 51.0921 15.8587V29.9262H43.1201C43.031 28.7257 42.5924 27.5776 41.8584 26.6234C41.1244 25.6693 40.1271 24.9509 38.9895 24.557C38.8885 24.5226 38.7799 24.5168 38.6757 24.5402C38.5716 24.5637 38.4759 24.6156 38.3995 24.6901L36.9806 26.0746L35.5569 24.6901C35.4801 24.6151 35.3841 24.5629 35.2794 24.5394C35.1747 24.5159 35.0655 24.522 34.9641 24.557C33.8266 24.951 32.8293 25.6694 32.0953 26.6235C31.3613 27.5776 30.9227 28.7257 30.8335 29.9262H30.1828V28.222C30.1807 26.3203 29.4243 24.4971 28.0797 23.1525C26.735 21.8078 24.9118 21.0514 23.0101 21.0493C22.9592 21.0493 22.9087 21.0493 22.8583 21.0493V15.8587ZM36.9757 29.4306C37.129 29.4306 37.276 29.3697 37.3845 29.2614C37.4929 29.153 37.5539 29.0061 37.554 28.8528V27.1266L38.937 25.7769C39.7681 26.1315 40.4879 26.7045 41.0198 27.435C41.5518 28.1655 41.8763 29.0263 41.9587 29.9262H31.9912C32.0736 29.0263 32.3981 28.1655 32.93 27.435C33.462 26.7045 34.1817 26.1315 35.0129 25.7769L36.3959 27.1266V28.8528C36.3959 29.0062 36.4568 29.1533 36.5652 29.2617C36.6737 29.3702 36.8208 29.4311 36.9741 29.4311L36.9757 29.4306ZM23.538 28.4988C24.9634 29.894 26.8133 30.774 28.7951 30.9996C27.3692 30.9272 24.2708 30.5673 21.6819 28.8582C22.3062 28.7694 22.9257 28.6495 23.538 28.4988ZM16.9935 28.2247C16.9935 26.6292 17.6272 25.0991 18.7554 23.971C19.8835 22.8428 21.4136 22.209 23.0091 22.209C24.6045 22.209 26.1346 22.8428 27.2627 23.971C28.3909 25.0991 29.0247 26.6292 29.0247 28.2247V29.8629C27.7788 29.717 26.5818 29.2925 25.5223 28.6211C25.2819 28.467 25.051 28.2986 24.8308 28.1168C25.8665 27.7739 26.8404 27.2667 27.7152 26.6148C27.7755 26.5686 27.8261 26.5109 27.864 26.4451C27.902 26.3793 27.9267 26.3067 27.9366 26.2314C27.9465 26.156 27.9415 26.0795 27.9218 26.0061C27.9022 25.9328 27.8682 25.864 27.822 25.8037C27.7757 25.7434 27.7181 25.6929 27.6523 25.6549C27.5865 25.6169 27.5139 25.5923 27.4385 25.5824C27.3632 25.5724 27.2867 25.5775 27.2133 25.5971C27.1399 25.6168 27.0712 25.6507 27.0109 25.697C23.7628 28.1876 17.9451 27.9253 17.8855 27.9221C17.8094 27.9181 17.7332 27.9293 17.6613 27.9549C17.5895 27.9805 17.5234 28.0201 17.4669 28.0713C17.4104 28.1226 17.3646 28.1845 17.3321 28.2536C17.2997 28.3226 17.2812 28.3974 17.2778 28.4736L17.1705 30.8677C17.1684 30.9205 17.1524 30.9718 17.1241 31.0164C17.0959 31.0611 17.0564 31.0975 17.0095 31.122L16.9935 31.13V28.2247ZM30.619 44.7877C31.0724 44.9286 31.4837 45.1803 31.8155 45.52C32.1473 45.8597 32.3893 46.2767 32.5196 46.7334C32.5292 46.7693 32.5389 46.8058 32.5475 46.8406C32.5921 47.0403 32.6135 47.2444 32.6113 47.449V50.181H13.4068V47.4479C13.4046 47.2432 13.426 47.0389 13.4707 46.839C13.4793 46.8033 13.4884 46.7675 13.498 46.7317C13.6282 46.275 13.8702 45.8579 14.202 45.5181C14.5338 45.1783 14.9451 44.9265 15.3986 44.7856L20.0184 43.2873C20.9493 43.7427 21.9719 43.9794 23.0083 43.9794C24.0446 43.9794 25.0672 43.7427 25.9981 43.2873L30.619 44.7877ZM25.3619 42.311C24.6232 42.6497 23.8201 42.825 23.0075 42.825C22.1948 42.825 21.3917 42.6497 20.653 42.311V40.8985C22.1711 41.4673 23.8438 41.4673 25.3619 40.8985V42.311ZM29.2881 33.986C29.1719 34.0063 29.0648 34.0617 28.981 34.1446C28.8972 34.2275 28.8407 34.3341 28.8192 34.45L28.4909 35.5765C28.4856 35.5948 28.4813 35.6125 28.478 35.6302C28.2392 36.9068 27.5615 38.0597 26.5622 38.8893C25.563 39.7189 24.3051 40.173 23.0064 40.173C21.7076 40.173 20.4498 39.7189 19.4505 38.8893C18.4513 38.0597 17.7736 36.9068 17.5347 35.6302C17.5315 35.6119 17.5272 35.5937 17.5218 35.5765L17.1935 34.45C17.172 34.3341 17.1156 34.2275 17.0318 34.1446C16.948 34.0617 16.8408 34.0063 16.7247 33.986C16.5795 33.9599 16.4412 33.9043 16.3183 33.8227C16.1953 33.7411 16.0904 33.6352 16.01 33.5115C15.9296 33.3878 15.8754 33.249 15.8507 33.1035C15.826 32.9581 15.8313 32.8091 15.8664 32.6658C15.8908 32.5591 15.9417 32.4603 16.0145 32.3785C16.0873 32.2967 16.1795 32.2347 16.2827 32.198C16.4999 32.2921 16.7368 32.332 16.9729 32.3143C17.209 32.2966 17.4372 32.2218 17.638 32.0964C17.8388 31.9709 18.0061 31.7986 18.1256 31.5942C18.2451 31.3898 18.3131 31.1594 18.3238 30.9229L18.407 29.0926C18.7878 29.0926 19.3355 29.0835 19.9905 29.039C23.8904 32.3531 29.3889 32.182 29.6239 32.1734H29.6394C29.7624 32.1989 29.8755 32.2591 29.9655 32.3468C30.0554 32.4346 30.1183 32.5462 30.1469 32.6685C30.1819 32.8118 30.1872 32.9607 30.1624 33.1062C30.1377 33.2516 30.0835 33.3904 30.0031 33.5141C29.9227 33.6378 29.8178 33.7437 29.6949 33.8253C29.572 33.9069 29.4338 33.9625 29.2886 33.9887L29.2881 33.986ZM40.2797 39.6331H33.6697V34.9677H40.2807L40.2797 39.6331ZM49.64 33.8095H31.1533C31.3475 33.3611 31.3899 32.8616 31.274 32.3869C31.2066 32.1048 31.0724 31.8431 30.8826 31.6238C30.6927 31.4046 30.4529 31.2343 30.1834 31.1273V31.0833H51.0926V32.3611C51.0914 32.7456 50.9378 33.1139 50.6655 33.3854C50.3932 33.6569 50.0245 33.8094 49.64 33.8095Z" fill="#333333"/>
<path d="M36.9735 24.0934C37.7014 24.0934 38.413 23.8776 39.0183 23.4731C39.6235 23.0687 40.0952 22.4939 40.3738 21.8214C40.6524 21.1489 40.7253 20.4088 40.5833 19.6949C40.4412 18.9809 40.0907 18.3251 39.576 17.8104C39.0612 17.2957 38.4054 16.9452 37.6915 16.8031C36.9776 16.6611 36.2375 16.734 35.565 17.0126C34.8925 17.2912 34.3177 17.7629 33.9133 18.3681C33.5088 18.9734 33.293 19.685 33.293 20.4129C33.293 20.8963 33.3882 21.3748 33.5731 21.8214C33.7581 22.2679 34.0292 22.6737 34.371 23.0154C34.7127 23.3572 35.1185 23.6283 35.565 23.8133C36.0115 23.9982 36.4901 24.0934 36.9735 24.0934ZM36.9735 17.8895C37.4721 17.8895 37.9596 18.0374 38.3742 18.3144C38.7888 18.5915 39.112 18.9852 39.3028 19.4459C39.4936 19.9066 39.5436 20.4136 39.4463 20.9026C39.349 21.3917 39.1089 21.841 38.7563 22.1936C38.4037 22.5462 37.9544 22.7863 37.4653 22.8836C36.9763 22.9809 36.4693 22.9309 36.0086 22.7401C35.5479 22.5493 35.1542 22.2261 34.8771 21.8115C34.6001 21.3969 34.4522 20.9094 34.4522 20.4108C34.4522 19.7421 34.7178 19.1008 35.1907 18.628C35.6635 18.1552 36.3048 17.8895 36.9735 17.8895Z" fill="#333333"/>
</g>
<defs>
<clipPath id="clip0_4276:101135">
<rect width="40" height="40" fill="white" transform="translate(12.25 12)"/>
</clipPath>
</defs>
</svg>
