<svg width="102" height="27" viewBox="0 0 102 27" fill="none" xmlns="http://www.w3.org/2000/svg">
<g clip-path="url(#clip0)">
<g clip-path="url(#clip1)">
<path d="M100.681 8.15686C100.368 8.15686 100.108 8.4183 99.8996 9.09804C99.2747 11.2941 98.2851 12.8627 97.1393 14.1176V3.08497C97.1393 2.30065 96.4623 1.6732 95.4207 1.6732C95.004 1.6732 94.5874 1.88235 94.5874 2.19608C94.5874 2.40523 94.6915 2.61438 94.6915 3.18954V8.31372C94.327 10.5098 92.2958 12.6013 91.0459 12.6013C90.1084 12.6013 89.5876 11.6601 89.5876 9.98693C89.5876 7.32026 89.9522 5.96078 90.5251 3.60784C90.6292 3.13725 91.5667 1.88235 90.0043 1.88235C88.3377 1.88235 88.546 2.5098 88.3377 3.03268C88.3377 3.03268 87.5565 5.59477 87.2961 8.4183C87.1398 8.52288 86.9836 8.78431 86.8273 9.20261C86.4628 10.1961 85.7336 11.1373 84.2233 11.451C84.3274 11.085 84.3795 10.719 84.3795 10.3007C84.3795 7.32026 82.4525 6.16993 80.9943 3.55555C81.0463 3.3464 81.7234 2.30065 81.7234 1.41176C81.7234 0.575163 81.3588 0 80.5776 0C79.7443 0 77.9215 1.41176 77.9215 2.5098C77.9215 3.03268 78.1298 3.50327 78.4423 3.97386C77.8694 5.64706 77.1924 7.42484 76.8799 8.8366C76.8278 8.94118 76.8278 9.04575 76.7757 9.15033C76.7236 9.46405 76.6195 9.83006 76.5153 10.1961C76.4632 10.1961 76.4632 10.1961 76.4111 10.1961C75.8903 10.1961 75.3174 11.085 75.6299 12.0784C75.3695 12.3922 75.057 12.6013 74.6404 12.6013C73.8592 12.6013 73.5467 11.817 73.5467 11.1373V5.9085C73.5467 5.12418 72.8696 4.49673 71.828 4.49673C71.4114 4.49673 70.9947 4.70588 70.9947 5.01961C70.9947 5.22876 71.0989 5.43791 71.0989 6.01307V10.8758C70.7343 11.7647 70.1614 12.4967 69.3281 12.4967C68.2344 12.4967 67.5574 11.5556 67.5574 9.88235C67.5574 5.33333 70.3697 3.29412 72.7655 3.29412C73.078 3.29412 73.3904 3.3464 73.7029 3.3464C74.0154 3.3464 74.1196 3.13725 74.1196 2.61438C74.1196 1.77778 73.5467 1.30719 72.6613 1.30719C69.276 1.30719 66.047 3.7647 65.3179 7.94771C65.2137 8.05229 65.1096 8.26144 65.0575 8.47059C64.6929 10.4052 63.6513 12.4444 61.2035 12.4444C59.589 12.4444 58.7036 11.5556 58.287 10.5098C61.3598 9.56863 62.9222 6.79739 62.9222 4.49673C62.9222 2.61438 61.8285 1.30719 60.1098 1.30719C57.662 1.30719 55.3184 4.28758 55.3184 8.31372C55.3184 12.2876 58.0266 14.5882 60.891 14.5882C63.2347 14.5882 64.745 13.5948 65.6304 12.3399C66.2033 13.6993 67.297 14.5882 68.9115 14.5882C70.1093 14.5882 70.9947 14.0131 71.6197 13.281C72.0884 14.0654 72.9217 14.5882 74.0675 14.5882C75.1612 14.5882 75.9945 14.1176 76.6195 13.4902C77.3486 14.0131 78.6506 14.5882 79.8485 14.5882C81.1505 14.5882 82.1921 14.1176 82.9213 13.4379C84.8482 13.3333 86.1503 12.7059 87.1398 11.9216C87.1919 11.8693 87.244 11.817 87.2961 11.7647C87.7127 13.5425 88.8064 14.5882 90.4209 14.5882C91.775 14.5882 93.8062 13.6471 94.5874 12.3922V16.4183C92.5041 18.2484 90.6813 19.8693 90.6813 23.0588C90.6813 25.098 91.9313 26.6667 93.702 26.6667C95.3165 26.6667 96.9831 25.5163 96.9831 22.1699V16.7843C98.7018 15.3203 100.525 13.4379 101.566 9.77778C101.618 9.6732 101.618 9.51634 101.618 9.46405C101.775 8.88889 101.15 8.15686 100.681 8.15686ZM58.0787 8.26144C58.0266 6.95425 58.4953 3.45098 60.0056 3.45098C60.4223 3.45098 60.6827 3.86928 60.6827 4.54902C60.6827 6.43137 59.6932 8.10457 58.0787 8.8366C58.1307 8.67974 58.0787 8.47059 58.0787 8.26144ZM81.6192 11.9739C80.7339 11.9739 79.4318 11.3987 78.3381 10.8758C78.4944 10.4575 78.5985 10.0915 78.7027 9.6732V9.62091C78.7548 9.56863 78.7548 9.46405 78.8069 9.41176C79.2235 7.89542 79.536 6.79738 80.0568 5.59477C81.1505 6.7451 82.3484 8.05229 82.3484 10.0392C82.2963 10.8235 81.9838 11.5556 81.6192 11.9739ZM93.8582 24.7843C93.3374 24.7843 93.025 24.0523 93.025 23.0588C93.025 21.1765 93.702 19.9739 94.7436 18.9281V22.3268C94.7436 22.8497 94.8999 24.7843 93.8582 24.7843Z" fill="#6A6A6A"/>
</g>
<g clip-path="url(#clip2)">
<path fill-rule="evenodd" clip-rule="evenodd" d="M34.3353 2.84493C34.3353 2.2666 35.0643 1.26765 35.6372 1.26765C36.887 1.26765 38.3972 4.05419 38.3451 6.78815C38.3451 11.0468 35.9496 14.622 32.2522 14.622C30.4816 14.622 29.7526 13.6231 29.5963 12.2035C29.1276 12.4138 28.5548 12.5715 27.8778 12.5715C27.305 12.5715 26.7842 12.519 26.3155 12.3612C25.5344 13.6756 24.3366 14.622 22.566 14.622C20.6913 14.622 19.4415 13.6756 18.7124 12.2561C17.9313 13.5705 16.8377 14.622 15.2233 14.622C13.5569 14.622 12.5674 13.255 12.5674 11.6252V5.15829C12.5674 4.21192 12.5153 3.3707 11.9946 3.3707C11.1614 3.3707 9.39077 6.10466 9.18246 8.62832V13.255C9.18246 13.2864 9.18259 13.3181 9.18272 13.3499C9.18519 13.9574 9.1879 14.622 8.29716 14.622C7.67225 14.622 6.78695 14.3591 6.78695 13.2025V5.15829C6.78695 4.21192 6.73488 3.3707 6.21411 3.3707C5.3809 3.3707 3.6103 6.10466 3.402 8.62832V13.255C3.402 13.2864 3.40213 13.3181 3.40226 13.3499C3.40473 13.9574 3.40744 14.622 2.51671 14.622C1.89179 14.622 1.00649 14.3591 1.00649 13.2025V3.10782C1.00649 2.74704 0.965964 2.52948 0.93547 2.36579C0.917082 2.26709 0.902344 2.18798 0.902344 2.10887C0.902344 1.79341 1.31895 1.5831 1.73556 1.5831C2.77709 1.5831 3.45408 2.21402 3.45408 3.00266V4.31707C4.2873 2.58205 5.38089 1.26765 6.78695 1.26765C8.71377 1.26765 9.23454 2.84493 9.28661 4.26449C10.0678 2.58205 11.1614 1.26765 12.5674 1.26765C14.5984 1.26765 15.0671 3.00266 15.0671 4.4748V11.0468C15.0671 11.3623 15.0671 12.519 15.9003 12.519C17.1501 12.519 17.6709 10.5736 17.9833 9.20666C17.8271 8.31286 17.775 7.26134 17.8792 6.15724C18.1396 3.00266 19.806 0.373851 22.9306 0.689308C24.3887 0.794461 25.3782 1.53053 26.0551 2.52948C26.9404 3.3707 27.5133 5.10571 27.5133 7.26134C27.5133 8.41802 27.4091 9.57469 27.0967 10.6788C27.305 10.7314 27.5133 10.7314 27.7216 10.7314C28.659 10.7314 29.2839 10.2056 29.6484 9.46954V3.10782C29.6484 2.74704 29.6079 2.52948 29.5774 2.36579C29.559 2.26709 29.5443 2.18798 29.5443 2.10887C29.5443 1.79341 29.9609 1.5831 30.3775 1.5831C31.419 1.5831 32.096 2.21402 32.096 3.00266V11.52C32.096 12.1509 32.2001 12.519 32.773 12.519C34.2832 12.519 36.0538 10.3633 36.0538 6.683C36.0538 4.10676 35.1685 3.42327 34.7519 3.10782C34.6958 3.07006 34.6263 3.05264 34.5602 3.03608C34.4422 3.00653 34.3353 2.97973 34.3353 2.84493ZM21.0038 11.2571C21.4204 12.0984 22.0453 12.519 22.7223 12.519C23.6076 12.519 24.1804 12.0458 24.597 11.3623C23.1389 10.0479 22.3577 7.94483 22.3577 5.68405C22.3577 4.57995 22.6181 3.52843 23.1389 2.84493C23.0868 2.84493 23.0477 2.83179 23.0087 2.81865C22.9696 2.8055 22.9306 2.79236 22.8785 2.79236C21.6287 2.68721 20.483 3.89646 20.2747 6.57785C20.0664 9.10151 20.5871 10.4159 21.0038 11.2571ZM23.9721 5.52632C23.9721 6.99846 24.4408 8.31287 25.1699 9.25924C25.1746 9.21105 25.1794 9.16331 25.1841 9.11597C25.231 8.64674 25.274 8.21692 25.274 7.7871C25.274 5.63148 25.1699 4.05419 24.4929 4.05419C24.1804 4.05419 23.9721 4.52737 23.9721 5.52632ZM45.115 12.519C47.5626 12.519 48.6041 10.4685 48.9687 8.52316C49.2811 7.1036 51.0517 7.73452 50.8955 8.89119C50.6872 10.8365 49.4374 14.6746 44.8026 14.6746C41.9384 14.6746 39.2304 12.3612 39.2304 8.36543C39.2304 4.31706 41.5739 1.32021 44.0214 1.32021C45.74 1.32021 46.8336 2.63462 46.8336 4.52737C46.8336 6.84072 45.2713 9.62726 42.1988 10.5736C42.6154 11.6252 43.5007 12.519 45.115 12.519ZM43.7611 3.37069C42.2508 3.37069 41.7822 6.8933 41.8342 8.2077V8.78604C43.4486 8.04997 44.438 6.36753 44.438 4.47479C44.438 3.7913 44.1777 3.37069 43.7611 3.37069Z" fill="#6A6A6A"/>
</g>
</g>
<defs>
<clipPath id="clip0">
<rect width="100.74" height="26.6667" fill="white" transform="translate(0.902344)"/>
</clipPath>
<clipPath id="clip1">
<rect width="46.3244" height="26.6667" fill="white" transform="translate(55.3184)"/>
</clipPath>
<clipPath id="clip2">
<rect width="50.0029" height="14.011" fill="white" transform="translate(0.902344 0.663574)"/>
</clipPath>
</defs>
</svg>
