<svg width="40" height="40" viewBox="0 0 40 40" fill="none" xmlns="http://www.w3.org/2000/svg">
<path d="M20.0744 2.77979C10.5291 2.77979 2.78125 10.5276 2.78125 20.073C2.78125 29.6183 10.5291 37.3662 20.0744 37.3662C29.6198 37.3662 37.3676 29.6183 37.3676 20.073C37.3676 10.5276 29.6198 2.77979 20.0744 2.77979Z" fill="#246F56"/>
<path d="M19.5158 36.8705C9.9705 36.8705 2.22266 29.0607 2.22266 19.5154C2.22266 9.97001 9.9705 2.22217 19.5158 2.22217C29.0612 2.22217 36.809 9.97001 36.809 19.5154C36.809 29.0607 29.0612 36.8705 19.5158 36.8705Z" fill="#5CBD9D"/>
<path d="M29.3094 14.9286C29.2475 14.8667 29.1855 14.8047 29.1235 14.7427L21.4376 8.2345C20.6319 7.55269 19.5162 7.55269 18.7104 8.2345L16.355 10.218L11.0245 14.7427C10.7766 14.9286 10.5906 15.2386 10.4047 15.5485C10.2807 15.8584 10.2188 16.1683 10.2188 16.5402V27.2012C10.2188 27.8211 10.4667 28.9367 12.0782 29.5566C12.4501 29.6805 14.1237 30.1144 15.9212 30.1144C17.3468 30.1144 18.8344 29.8665 20.074 29.1227C21.2517 29.8665 22.8012 30.1144 24.2269 30.1144C26.0863 30.1144 27.6979 29.6805 28.0698 29.5566C29.6813 28.9367 29.9293 27.8211 29.9293 27.2012V16.5402C29.9293 15.9204 29.6813 15.3625 29.3094 14.9286ZM20.074 25.8376C19.2682 24.8459 18.2765 23.2963 18.2765 21.9947C18.2765 21.1269 18.4625 19.2054 20.074 19.2054C21.6856 19.2054 21.8715 21.1269 21.8715 21.9947C21.8715 23.2963 20.8798 24.8459 20.074 25.8376ZM27.5739 27.1392C27.5119 27.2012 27.45 27.2632 27.264 27.3252C26.7681 27.5111 23.793 28.069 21.8715 27.3872C22.8632 26.1475 24.2269 24.1021 24.2269 22.0567C24.2269 18.2757 21.9955 16.9121 20.074 16.9121C18.7104 16.9121 17.1608 17.6559 16.417 19.4534C16.1071 20.1352 15.9831 21.0029 15.9831 22.0567C15.9831 24.1641 17.3468 26.2095 18.3385 27.4492C16.479 28.1929 13.5038 27.6351 12.946 27.3872C12.76 27.3252 12.6361 27.2632 12.6361 27.2012V16.6022L20.136 10.218L27.6359 16.5402V27.1392H27.5739Z" fill="#246F56"/>
<path d="M29.3707 15.9821C29.3707 15.7342 29.3087 15.4243 29.2467 15.1763C29.1227 14.9284 28.9988 14.6805 28.8128 14.4325C28.7508 14.3706 28.6889 14.2466 28.5649 14.1846L20.879 7.73841C20.0733 7.0566 18.9576 7.0566 18.1518 7.73841L16.2303 9.34996L10.4659 14.2466C9.97007 14.6805 9.66016 15.3003 9.66016 15.9821V26.6432C9.66016 27.263 9.90809 28.3787 11.5196 28.9985C11.8915 29.1225 13.5651 29.5563 15.3626 29.5563C16.7882 29.5563 18.2758 29.3084 19.5154 28.5646C20.6931 29.3084 22.2427 29.5563 23.6683 29.5563C25.5277 29.5563 27.1393 29.1225 27.5112 28.9985C29.1227 28.3787 29.3707 27.263 29.3707 26.6432V15.9821ZM19.5154 18.7094C21.127 18.7094 21.3129 20.6308 21.3129 21.4986C21.3129 22.8002 20.3212 24.2878 19.5154 25.3415C18.7096 24.3498 17.7179 22.8002 17.7179 21.4986C17.7799 20.6308 17.9658 18.7094 19.5154 18.7094ZM27.0153 26.6432C26.9533 26.7051 26.8914 26.7671 26.7054 26.8291C26.2096 27.015 23.2344 27.5729 21.3129 26.8911C22.3046 25.6514 23.6683 23.606 23.6683 21.5606C23.6683 21.0647 23.6063 20.6308 23.5443 20.2589C23.1104 17.4697 21.1889 16.416 19.5154 16.416C17.8419 16.416 15.9204 17.4697 15.4865 20.2589C15.4246 20.6308 15.3626 21.0647 15.3626 21.5606C15.3626 23.668 16.7262 25.7134 17.7179 26.9531C15.8584 27.6969 12.8833 27.139 12.3254 26.8911C12.1395 26.8291 12.0155 26.7671 12.0155 26.7051V16.1061L19.5154 9.65987L27.0153 15.9821V26.6432Z" fill="white"/>
</svg>
