<svg width="64" height="64" viewBox="0 0 64 64" fill="none" xmlns="http://www.w3.org/2000/svg">
<path d="M23.3 60.3C19.4 58.2 16.6 56 14.4 52C12.4 48.4 11.2 44.3 11 40.1C11 39.9 11 39.8 11.1 39.6C11.2 39.5 11.3 39.3 11.5 39.3C11.7 39.2 11.8 39.2 12 39.3C12.2 39.3 12.3 39.4 12.4 39.6C13.8 41.3 15.4 42.8 17.2 44C17.3 44.1 17.4 44.1 17.6 44.1C17.7 44.1 17.8 44 17.9 44C18 43.9 18.1 43.8 18.1 43.7C18.1 43.6 18.1 43.4 18.1 43.3C16.1 39.3 12.3 29.3 18.5 21.9C18.6 21.8 18.8 21.7 19 21.6C19.2 21.6 19.4 21.6 19.5 21.6C19.7 21.7 19.8 21.8 19.9 21.9C20 22.1 20.1 22.2 20.1 22.4C20 23.9 20.3 25.4 20.8 26.8C21.3 28.2 22.2 29.4 23.2 30.5C23.3 28.1 23.5 25.8 24 23.4C25.3 17.2 28.7 8.1 37.6 2C39 0.999996 41.1 0.499996 40.5 3.8C38.8 13.7 39.1 26.4 45.1 34.6C45.2 34.7 45.3 34.8 45.5 34.9C45.6 35 45.8 35 46 35.1C46.2 35.1 46.3 35.1 46.5 35.1C46.7 35.1 46.8 35 46.9 34.9C48.5 33.5 49.7 31.7 50.1 29.6C50.4 28.4 50.3 28.2 50.6 27.9C50.7 27.8 50.8 27.8 50.9 27.8C51 27.8 51.1 27.8 51.2 27.8C51.3 27.8 51.4 27.9 51.5 28C51.6 28.1 51.6 28.2 51.7 28.3C52.9 32.1 53.6 36.1 53.8 40.1C54.2 55.9 36.7 67.7 23.3 60.3Z" fill="#ECF7FB"/>
<path d="M42.8 48.5C41.3 60.5 18.3 60.6 22.2 41.6C22.2 41.4 22.3 41.3 22.4 41.2C22.5 41.1 22.6 41 22.8 40.9C22.9 40.8 23.1 40.8 23.3 40.8C23.5 40.8 23.6 40.8 23.8 40.9C24 41.1 28 42.8 29.6 45.4C28.6 43.1 26.2 35 33.7 21.1C33.8 20.9 34 20.8 34.1 20.7C34.3 20.6 34.5 20.6 34.7 20.6C34.9 20.6 35.1 20.7 35.2 20.9C35.3 21.1 35.4 21.2 35.4 21.5C35.7 26 36.9 34.2 41.1 41.2C42.5 43.4 43.1 46 42.8 48.5Z" fill="white"/>
<path fill-rule="evenodd" clip-rule="evenodd" d="M34.4 21.8C34.7 26.4 36 34.7 40.2 41.8C41.5 43.8 42 46.1 41.8 48.4C41.1 53.7 35.7 56.5 30.6 55.7C28.1 55.3 25.8 54 24.4 51.8C22.9 49.6 22.2 46.3 23.2 41.8C23.3 41.8 23.4 41.9 23.4 41.9C23.5 42 23.7 42.1 23.9 42.2C24.3 42.4 24.9 42.7 25.4 43.1C26.6 43.9 27.8 44.8 28.4 45.9L30.2 45C29.5 43.1 27.1 35.3 34.4 21.8ZM42.8 48.5L43.8 48.6C43 55.4 36.1 58.5 30.3 57.6C27.3 57.1 24.5 55.6 22.7 52.9C20.9 50.2 20.2 46.3 21.2 41.4C21.3 41.1 21.4 40.8 21.6 40.6C21.8 40.4 22 40.2 22.3 40C22.6 39.9 22.9 39.8 23.2 39.8C23.5 39.8 23.8 39.9 24.1 40H24.2C24.2 40 24.2 40 24.4 40.1C24.5 40.2 24.7 40.3 24.9 40.4C25.3 40.6 25.9 41 26.6 41.4C26.9 41.6 27.2 41.8 27.5 42C26.9 37.8 27.3 30.6 32.7 20.7L33.6 21.2L32.7 20.7C32.9 20.3 33.2 20 33.6 19.9C34 19.7 34.4 19.7 34.8 19.8C35.2 19.9 35.6 20.1 35.9 20.4C36.2 20.7 36.3 21.1 36.4 21.5C36.7 25.9 37.9 34 41.9 40.8C43.4 43.1 44.1 45.9 43.8 48.7L42.8 48.5Z" fill="#333333"/>
<path d="M32.1 63.6C28.9 63.6 25.7 62.8 22.8 61.2C18.9 59.1 15.9 56.8 13.5 52.5C11.4 48.7 10.2 44.5 10 40.2C10 39.8 10.1 39.4 10.3 39.1C10.5 38.8 10.8 38.5 11.2 38.4C11.6 38.3 12 38.2 12.3 38.3C12.7 38.4 13 38.6 13.2 38.9C14.2 40.1 15.3 41.2 16.5 42.1C14.4 37.3 11.8 28.1 17.7 21C18 20.7 18.3 20.5 18.7 20.4C19.1 20.3 19.5 20.3 19.8 20.5C20.2 20.6 20.5 20.9 20.7 21.2C20.9 21.5 21 21.9 21 22.3C20.9 23.7 21.2 25 21.7 26.3C21.9 26.8 22.1 27.2 22.3 27.6C22.4 26.1 22.7 24.5 23 23C24.4 16.4 27.9 7.20001 37 0.900007C38.3 7.39098e-06 39.7 -0.199993 40.6 0.300007C41.5 0.900007 41.8 2.00001 41.5 3.70001C40.7 8.20001 38.7 23.7 45.9 33.7L46 34H46.2C47.7 32.8 48.7 31.1 49.1 29.2C49.2 28.8 49.3 28.5 49.3 28.3C49.4 27.8 49.5 27.4 50 27C50.2 26.8 50.5 26.7 50.8 26.7C51.1 26.7 51.4 26.7 51.6 26.8C51.9 26.9 52.1 27 52.3 27.2C52.5 27.4 52.6 27.6 52.7 27.9C53.9 31.8 54.6 35.8 54.8 39.9C55 48.1 50.6 55.8 43.3 60.2C39.8 62.5 35.9 63.6 32.1 63.6ZM12 40.7C12.3 44.5 13.4 48.2 15.3 51.5C17.4 55.3 20.1 57.4 23.8 59.4C29.4 62.5 36.3 62.2 42.3 58.6C49 54.6 53 47.5 52.8 40C52.6 36.5 52.1 32.9 51.1 29.5C51.1 29.6 51.1 29.6 51 29.7C50.5 31.9 49.2 34 47.5 35.5C47.2 35.7 47 35.8 46.7 35.9C46.4 36 46.1 36 45.8 35.9C45.5 35.9 45.2 35.8 45 35.6C44.7 35.4 44.5 35.2 44.3 35C36.6 24.4 38.7 8.20001 39.5 3.50001C39.7 2.40001 39.5 2.10001 39.5 2.10001C39.4 2.10001 38.9 2.20001 38.2 2.60001C29.6 8.70001 26.3 17.3 25 23.6C24.5 25.9 24.3 28.2 24.2 30.5L24.1 32.8L22.5 31.2C21.3 30 20.4 28.7 19.8 27.2C19.2 25.8 19 24.3 19 22.8C13.5 29.8 17.1 39.2 18.9 42.9C19.1 43.2 19.1 43.6 19 43.9C18.9 44.2 18.8 44.5 18.5 44.8C18.2 45 17.9 45.2 17.6 45.2C17.3 45.2 16.9 45.1 16.6 45C15 43.7 13.4 42.3 12 40.7Z" fill="#333333"/>
</svg>
