<svg width="64" height="64" viewBox="0 0 64 64" fill="none" xmlns="http://www.w3.org/2000/svg">
<g clip-path="url(#clip0)">
<path d="M27.363 59.99L50.424 21.7661C50.5379 21.5674 50.5931 21.3405 50.5831 21.1117C50.5732 20.8829 50.4985 20.6616 50.3677 20.4736C50.237 20.2855 50.0556 20.1385 49.8446 20.0494C49.6336 19.9604 49.4016 19.9331 49.1757 19.9707L33.8359 21.978L37.5011 3.46119C37.5216 3.32446 37.4961 3.18479 37.4288 3.06406C37.3614 2.94333 37.2559 2.84836 37.1287 2.79404C37.0016 2.73971 36.86 2.72909 36.7262 2.76385C36.5924 2.79861 36.4739 2.87679 36.3893 2.98612L13.7159 31.7939C13.5697 31.9835 13.4834 32.2125 13.4682 32.4516C13.4531 32.6906 13.5097 32.9287 13.6308 33.1353C13.752 33.3419 13.9321 33.5075 14.1481 33.611C14.3641 33.7145 14.6061 33.7511 14.843 33.716L31.7555 32.0025L26.2097 59.574C26.1877 59.7171 26.2161 59.8634 26.29 59.9879C26.364 60.1125 26.4789 60.2074 26.6151 60.2566C26.7513 60.3057 26.9004 60.306 27.0368 60.2574C27.1732 60.2088 27.2885 60.1143 27.363 59.99Z" fill="#ECF7FB"/>
<path d="M34.5 22L31.5 32L26 62L51.5 20L34.5 22Z" fill="white"/>
<path d="M52.5166 19.1276C52.4119 18.9804 52.269 18.8646 52.1032 18.7928C51.9375 18.721 51.7553 18.6959 51.5763 18.7202L35.0461 20.875L37.1725 10.1308C37.1942 10.0081 37.1913 9.88237 37.1641 9.76084C37.1368 9.6393 37.0857 9.5244 37.0136 9.42279C36.9416 9.32119 36.8501 9.23491 36.7444 9.16896C36.6388 9.10301 36.5211 9.05871 36.3981 9.03864C36.1484 8.98929 35.8893 9.03975 35.6764 9.17918C35.4635 9.31862 35.3137 9.53594 35.2591 9.78455L32.8794 21.8087C32.8508 21.9555 32.8587 22.107 32.9023 22.2499C32.9459 22.3929 33.0239 22.5231 33.1294 22.6289C33.2378 22.7375 33.3697 22.8197 33.515 22.8689C33.6603 22.9182 33.815 22.9332 33.9671 22.9128L49.865 20.8378L27.5586 57.8059L31.5011 38.1991C31.5238 38.0763 31.5218 37.9501 31.4952 37.828C31.4686 37.7059 31.4179 37.5903 31.3462 37.488C31.2744 37.3857 31.1829 37.2988 31.0771 37.2322C30.9713 37.1657 30.8534 37.1209 30.7301 37.1005C30.4805 37.0501 30.2211 37.0997 30.0077 37.2386C29.7943 37.3774 29.6439 37.5945 29.5888 37.8431L24.552 62.8929C24.5102 63.1133 24.5492 63.3414 24.6619 63.5354C24.7747 63.7294 24.9535 63.8762 25.1658 63.949C25.2754 63.9887 25.391 64.009 25.5076 64.0091C25.6762 64.01 25.8421 63.9677 25.9896 63.886C26.137 63.8043 26.261 63.6861 26.3496 63.5427L52.5494 20.1105C52.639 19.9608 52.6835 19.7885 52.6777 19.6142C52.6719 19.4399 52.616 19.2709 52.5166 19.1276Z" fill="#333333"/>
<path d="M29.5134 38.2419C29.4907 38.3648 29.4927 38.491 29.5193 38.6131C29.5459 38.7352 29.5966 38.8508 29.6684 38.9531C29.7402 39.0554 29.8316 39.1423 29.9374 39.2089C30.0432 39.2754 30.1612 39.3202 30.2845 39.3406C30.3457 39.3521 30.4078 39.3579 30.4701 39.3581C30.6932 39.3607 30.9103 39.2859 31.0845 39.1466C31.2587 39.0072 31.3793 38.8118 31.4257 38.5936L32.7101 32.1774C32.7387 32.033 32.7321 31.8838 32.6906 31.7425C32.6492 31.6012 32.5742 31.472 32.472 31.366C32.3669 31.2573 32.2384 31.174 32.0963 31.1223C31.9542 31.0706 31.8022 31.052 31.6518 31.0678L14.1081 32.848L36.2649 4.69877L35.2612 10.0086C35.2395 10.1313 35.2423 10.257 35.2696 10.3785C35.2969 10.5001 35.348 10.615 35.42 10.7166C35.4921 10.8182 35.5836 10.9045 35.6892 10.9704C35.7949 11.0364 35.9126 11.0807 36.0355 11.1007C36.2852 11.1501 36.5443 11.0996 36.7573 10.9602C36.9702 10.8208 37.12 10.6034 37.1746 10.3548L38.9569 1.11337C38.9965 0.90301 38.9623 0.685434 38.86 0.497398C38.7577 0.309362 38.5937 0.162393 38.3956 0.0813212C38.1953 -0.0048686 37.9724 -0.0231298 37.7608 0.0293279C37.5492 0.0817855 37.3606 0.202077 37.2238 0.371823L11.1976 33.441C11.0832 33.5848 11.0151 33.7598 11.0022 33.9431C10.9894 34.1264 11.0324 34.3092 11.1255 34.4676C11.2222 34.6289 11.3631 34.759 11.5315 34.8427C11.6999 34.9263 11.8888 34.9599 12.0757 34.9394L30.5477 33.0675L29.5134 38.2419Z" fill="#333333"/>
</g>
<defs>
<clipPath id="clip0">
<rect width="64" height="64" fill="white"/>
</clipPath>
</defs>
</svg>
