<svg width="64" height="64" viewBox="0 0 64 64" fill="none" xmlns="http://www.w3.org/2000/svg">
<g clip-path="url(#clip0)">
<path d="M12.0151 9.99704V4.37443H28.8528L36.8193 0.937592H51.477V9.99704" fill="white"/>
<path d="M54.1844 15.2501H8.9375V12.4445C8.9375 11.7962 9.19507 11.1744 9.65352 10.7159C10.112 10.2575 10.7338 9.99991 11.3821 9.99991H51.7384C52.3867 9.99991 53.0085 10.2575 53.467 10.7159C53.9254 11.1744 54.183 11.7962 54.183 12.4445V15.2486L54.1844 15.2501Z" fill="#ECF7FB"/>
<path d="M46.8782 63.0624H16.6139L12.0151 15.2486H51.477L46.8782 63.0624Z" fill="#ECF7FB"/>
<path d="M29.2754 40.9847H23.4759C23.4086 40.9842 23.3424 40.9665 23.2839 40.9331C23.2253 40.8998 23.1764 40.8519 23.1417 40.7941C23.107 40.7363 23.0878 40.6705 23.0859 40.6032C23.084 40.5358 23.0995 40.4691 23.1308 40.4095L25.7897 35.49L26.2211 36.6749C26.2562 36.7954 26.3166 36.907 26.3982 37.0023C26.4798 37.0976 26.5808 37.1743 26.6944 37.2275C26.808 37.2807 26.9316 37.3091 27.0571 37.3108C27.1825 37.3124 27.3069 37.2874 27.4218 37.2372C27.6556 37.1525 27.8462 36.9784 27.9516 36.7533C28.0571 36.5281 28.0688 36.2702 27.9841 36.0365L26.8438 32.8844C26.7622 32.6672 26.6039 32.4874 26.3989 32.3788C26.1939 32.2702 25.9563 32.2403 25.7308 32.2948L22.3227 33.1576C22.2033 33.188 22.0911 33.2416 21.9925 33.3154C21.8939 33.3891 21.8107 33.4816 21.7478 33.5875C21.6208 33.8013 21.584 34.0569 21.6454 34.2979C21.7068 34.539 21.8614 34.7457 22.0753 34.8727C22.2891 34.9997 22.5447 35.0366 22.7857 34.9752L24.1216 34.6358L21.4843 39.515C20.5395 41.3758 21.1205 42.8598 23.4788 42.8598H29.2783C29.5135 42.8413 29.7332 42.7349 29.8934 42.5616C30.0535 42.3883 30.1425 42.1611 30.1425 41.9251C30.1425 41.6891 30.0535 41.4619 29.8934 41.2886C29.7332 41.1153 29.5135 41.0089 29.2783 40.9904L29.2754 40.9847Z" fill="#333333"/>
<path d="M42.5539 39.3352L39.4866 34.0232C39.3597 33.8132 39.1555 33.6613 38.9178 33.6001C38.6801 33.539 38.4278 33.5735 38.2153 33.6963C38.0028 33.819 37.8468 34.0202 37.781 34.2566C37.7151 34.4931 37.7446 34.7459 37.8631 34.9608L40.9304 40.2728C40.9639 40.331 40.982 40.3967 40.9829 40.4639C40.9837 40.531 40.9674 40.5972 40.9353 40.6562C40.9033 40.7152 40.8567 40.765 40.8 40.8009C40.7432 40.8367 40.6782 40.8574 40.6112 40.861H34.9814L35.8226 39.8544C35.9828 39.6637 36.0606 39.4172 36.0391 39.169C36.0175 38.9209 35.8982 38.6916 35.7076 38.5314C35.5169 38.3712 35.2703 38.2934 35.0222 38.3149C34.7741 38.3365 34.5448 38.4557 34.3846 38.6464L32.2276 41.2104C32.0801 41.3895 32.0034 41.6164 32.0119 41.8482C32.0203 42.0801 32.1135 42.3008 32.2736 42.4686L34.7283 44.9866C34.9018 45.1647 35.139 45.2666 35.3876 45.2698C35.6362 45.2731 35.876 45.1774 36.0541 45.0038C36.2322 44.8303 36.3341 44.5932 36.3373 44.3445C36.3406 44.0959 36.2449 43.8561 36.0714 43.678L35.1467 42.7289H40.627C41.0362 42.7637 41.4467 42.6804 41.8101 42.489C42.1734 42.2977 42.4742 42.0062 42.677 41.6491C42.8798 41.2919 42.9759 40.8842 42.9541 40.4741C42.9323 40.0641 42.7934 39.6688 42.5539 39.3352Z" fill="#333333"/>
<path d="M34.9601 29.9767L33.7191 29.7553C33.5961 29.7291 33.4691 29.7279 33.3456 29.7518C33.2221 29.7756 33.1048 29.8241 33.0004 29.8943C32.8961 29.9645 32.8069 30.0549 32.7382 30.1603C32.6696 30.2656 32.6228 30.3837 32.6007 30.5075C32.5786 30.6313 32.5816 30.7583 32.6096 30.8809C32.6376 31.0035 32.6899 31.1192 32.7636 31.2212C32.8372 31.3231 32.9306 31.4092 33.0381 31.4743C33.1457 31.5395 33.2653 31.5823 33.3898 31.6002L36.69 32.1884C36.92 32.2287 37.1569 32.182 37.3543 32.0573C37.5518 31.9327 37.6959 31.739 37.7584 31.514L38.7104 28.1346C38.7717 27.8972 38.7376 27.6453 38.6153 27.4327C38.4931 27.2202 38.2925 27.064 38.0565 26.9976C37.8205 26.9312 37.5678 26.9599 37.3527 27.0776C37.1376 27.1952 36.9771 27.3925 36.9057 27.627L36.5318 28.9543L33.6242 24.2319C32.5298 22.594 30.9049 22.3754 29.73 24.2865L26.7864 29.3843C26.6679 29.5992 26.6384 29.852 26.7043 30.0885C26.7701 30.3249 26.9261 30.5261 27.1386 30.6488C27.3512 30.7716 27.6034 30.8061 27.8411 30.7449C28.0788 30.6838 28.283 30.5319 28.41 30.3218L31.3536 25.2241C31.3876 25.1655 31.4362 25.1167 31.4946 25.0825C31.5531 25.0482 31.6195 25.0297 31.6872 25.0287C31.755 25.0276 31.8218 25.0442 31.8813 25.0767C31.9407 25.1092 31.9908 25.1565 32.0265 25.214L34.9601 29.9767Z" fill="#333333"/>
<path d="M41.3374 5.6557H51.4782V9.99992H41.3374V5.6557Z" fill="white"/>
<path d="M46.8722 63.0639C50.6692 63.0639 53.7473 59.9858 53.7473 56.1887C53.7473 52.3917 50.6692 49.3136 46.8722 49.3136C43.0752 49.3136 39.9971 52.3917 39.9971 56.1887C39.9971 59.9858 43.0752 63.0639 46.8722 63.0639Z" fill="#ECF7FB"/>
<path d="M46.8724 59.0216C48.437 59.0216 49.7053 57.7533 49.7053 56.1887C49.7053 54.6242 48.437 53.3559 46.8724 53.3559C45.3079 53.3559 44.0396 54.6242 44.0396 56.1887C44.0396 57.7533 45.3079 59.0216 46.8724 59.0216Z" fill="#ECF6FE"/>
<path d="M52.4115 9.12992V0.937581C52.4115 0.689665 52.3133 0.451839 52.1384 0.276132C51.9635 0.100425 51.7261 0.00114072 51.4782 0L45.1121 0C44.8769 0.0184676 44.6573 0.124953 44.4971 0.298208C44.3369 0.471463 44.2479 0.698746 44.2479 0.934705C44.2479 1.17066 44.3369 1.39795 44.4971 1.5712C44.6573 1.74446 44.8769 1.85094 45.1121 1.86941H50.542V4.71811H41.3388C41.0901 4.71811 40.8517 4.81689 40.6758 4.99272C40.5 5.16855 40.4012 5.40703 40.4012 5.65569V9.05945H12.9525V5.312H28.854C28.9816 5.31206 29.1078 5.28613 29.225 5.23579L37.0133 1.86941H41.0267C41.262 1.85094 41.4816 1.74446 41.6418 1.5712C41.802 1.39795 41.8909 1.17066 41.8909 0.934705C41.8909 0.698746 41.802 0.471463 41.6418 0.298208C41.4816 0.124953 41.262 0.0184676 41.0267 0L36.8191 0C36.692 9.631e-05 36.5663 0.0260262 36.4496 0.0762144L28.6599 3.43684H12.0149C11.7663 3.43684 11.5278 3.53562 11.352 3.71145C11.1761 3.88728 11.0773 4.12576 11.0773 4.37442V9.07671C10.237 9.15375 9.45572 9.54174 8.8865 10.1647C8.31728 10.7876 8.00113 11.6007 8 12.4445V15.2429C8 15.4916 8.09878 15.73 8.27461 15.9059C8.45044 16.0817 8.68892 16.1805 8.93758 16.1805H11.1636L15.6804 63.1458C15.7026 63.378 15.8105 63.5935 15.983 63.7504C16.1556 63.9073 16.3805 63.9942 16.6137 63.9943H46.8722C48.74 63.9937 50.5457 63.3241 51.9622 62.1067C53.3787 60.8894 54.3123 59.2048 54.5936 57.3584C54.8749 55.5119 54.4855 53.6258 53.4958 52.0418C52.5062 50.4578 50.9818 49.2808 49.1989 48.724L49.6605 43.9283C49.6844 43.6804 49.6088 43.4332 49.4503 43.241C49.2919 43.0489 49.0636 42.9275 48.8157 42.9037C48.5678 42.8799 48.3206 42.9555 48.1285 43.1139C47.9363 43.2724 47.815 43.5006 47.7911 43.7485L47.3453 48.3861C46.2847 48.3352 45.2247 48.4985 44.2285 48.8661C43.2323 49.2337 42.3203 49.7981 41.547 50.5257C40.7736 51.2533 40.1546 52.1292 39.727 53.1012C39.2994 54.0731 39.0719 55.1212 39.0581 56.183C39.058 57.3127 39.3035 58.4289 39.7775 59.4544C40.2515 60.4799 40.9427 61.3901 41.8033 62.122H17.4678L13.0474 16.1862H18.2717C18.5069 16.1678 18.7266 16.0613 18.8867 15.888C19.0469 15.7148 19.1359 15.4875 19.1359 15.2515C19.1359 15.0156 19.0469 14.7883 18.8867 14.615C18.7266 14.4418 18.5069 14.3353 18.2717 14.3168H9.87516V12.4474C9.87554 12.0478 10.0344 11.6647 10.317 11.3822C10.5995 11.0996 10.9826 10.9407 11.3822 10.9404H51.7399C52.1394 10.9411 52.5222 11.1001 52.8047 11.3826C53.0872 11.6651 53.2462 12.0479 53.2469 12.4474V14.3168H22.3571C22.1218 14.3353 21.9022 14.4418 21.742 14.615C21.5818 14.7883 21.4929 15.0156 21.4929 15.2515C21.4929 15.4875 21.5818 15.7148 21.742 15.888C21.9022 16.0613 22.1218 16.1678 22.3571 16.1862H50.4457L47.7537 44.4575C47.7301 44.705 47.8058 44.9517 47.9641 45.1435C48.1224 45.3352 48.3503 45.4562 48.5979 45.4799C48.6281 45.4799 48.6582 45.4799 48.6884 45.4799C48.9214 45.4795 49.1459 45.3924 49.3182 45.2356C49.4904 45.0787 49.5981 44.8634 49.6203 44.6315L52.3295 16.1805H54.186C54.4346 16.1805 54.6731 16.0817 54.8489 15.9059C55.0247 15.73 55.1235 15.4916 55.1235 15.2429V12.4445C55.1209 11.6661 54.8502 10.9122 54.3571 10.3099C53.8639 9.70754 53.1784 9.29339 52.4158 9.13711L52.4115 9.12992ZM40.9347 56.1887C40.9338 55.0143 41.2813 53.8661 41.9331 52.8891C42.5848 51.9122 43.5117 51.1505 44.5964 50.7004C45.6811 50.2502 46.8749 50.1319 48.0269 50.3602C49.1789 50.5886 50.2372 51.1535 51.0682 51.9834C51.8991 52.8133 52.4652 53.871 52.695 55.0227C52.9248 56.1744 52.8079 57.3684 52.359 58.4536C51.9102 59.5389 51.1496 60.4666 50.1735 61.1196C49.1974 61.7726 48.0495 62.1214 46.8751 62.122H46.8651C45.2928 62.1185 43.7859 61.4922 42.6744 60.3802C41.5629 59.2682 40.9374 57.761 40.9347 56.1887ZM42.2735 6.59327H50.542V9.05945H42.2749L42.2735 6.59327Z" fill="#333333"/>
<path d="M46.8725 59.9592C46.1268 59.9592 45.3978 59.738 44.7777 59.3237C44.1577 58.9094 43.6744 58.3206 43.3891 57.6316C43.1037 56.9427 43.029 56.1846 43.1745 55.4532C43.32 54.7218 43.6791 54.0499 44.2064 53.5226C44.7337 52.9953 45.4055 52.6362 46.1369 52.4907C46.8683 52.3452 47.6264 52.4199 48.3154 52.7053C49.0044 52.9907 49.5932 53.4739 50.0075 54.094C50.4218 54.714 50.6429 55.443 50.6429 56.1887C50.6418 57.1884 50.2442 58.1467 49.5374 58.8536C48.8305 59.5604 47.8722 59.958 46.8725 59.9592ZM46.8725 54.2934C46.4977 54.2934 46.1312 54.4046 45.8196 54.6129C45.5079 54.8211 45.2649 55.1171 45.1215 55.4634C44.978 55.8098 44.9405 56.1908 45.0136 56.5585C45.0867 56.9261 45.2673 57.2638 45.5323 57.5289C45.7974 57.794 46.1351 57.9745 46.5027 58.0476C46.8704 58.1207 47.2515 58.0832 47.5978 57.9398C47.9441 57.7963 48.2401 57.5534 48.4484 57.2417C48.6566 56.93 48.7678 56.5636 48.7678 56.1887C48.767 55.6863 48.5671 55.2047 48.2118 54.8494C47.8566 54.4941 47.375 54.2942 46.8725 54.2934Z" fill="#333333"/>
</g>
<defs>
<clipPath id="clip0">
<rect width="64" height="64" fill="white"/>
</clipPath>
</defs>
</svg>
