<svg width="64" height="64" viewBox="0 0 64 64" fill="none" xmlns="http://www.w3.org/2000/svg">
<path d="M32.4216 23.1175L34.9214 27.9416C35.7754 30.2303 36.0718 32.6894 35.7861 35.1155C35.5004 37.5415 34.6409 39.8646 33.2787 41.8923C31.9166 43.9201 30.0909 45.5941 27.953 46.7758C25.815 47.9576 23.4263 48.613 20.9847 48.6878C18.5425 48.613 16.1533 47.9575 14.015 46.7754C11.8767 45.5933 10.0509 43.9187 8.68872 41.8904C7.32657 39.862 6.46734 37.5383 6.18222 35.1117C5.89709 32.6851 6.19428 30.2255 7.04916 27.9366L20.9847 1.07494L30.7146 19.8284" fill="#ECF7FB"/>
<path d="M54.04 30.4204L56.4916 35.1443C56.9425 36.268 57.1109 37.485 56.9822 38.6888C56.8535 39.8927 56.4315 41.0465 55.7533 42.0494C55.0751 43.0523 54.1613 43.8736 53.092 44.4414C52.0227 45.0091 50.8305 45.306 49.6198 45.306C48.4091 45.306 47.2168 45.0091 46.1475 44.4414C45.0782 43.8736 44.1644 43.0523 43.4862 42.0494C42.808 41.0465 42.386 39.8927 42.2573 38.6888C42.1286 37.485 42.297 36.268 42.7478 35.1443L49.6191 21.9003L52.5247 27.5" fill="#ECF7FB"/>
<path d="M39.8458 62.6072C38.9515 62.9166 37.9872 62.9622 37.0676 62.7388C36.1481 62.5154 35.3122 62.0323 34.6596 61.3471C34.007 60.6619 33.5652 59.8035 33.3868 58.8742C33.2084 57.9449 33.301 56.9839 33.6536 56.1057L38.2303 47.28L42.8071 56.1057C43.2762 57.3606 43.2277 58.7503 42.6724 59.9695C42.1171 61.1887 41.1004 62.1374 39.8458 62.6072Z" fill="white"/>
<path d="M20.986 49.7651H20.9526C18.3392 49.6858 15.7824 48.9848 13.4941 47.7202C11.2058 46.4556 9.25179 44.6638 7.79412 42.4933C6.33646 40.3229 5.41709 37.8362 5.11223 35.2395C4.80736 32.6428 5.12578 30.0109 6.04108 27.5618C6.05622 27.5195 6.07398 27.4782 6.09427 27.4381L20.031 0.580131C20.1218 0.405282 20.2589 0.258719 20.4273 0.156421C20.5957 0.0541236 20.7889 1.68672e-05 20.986 0V0C21.183 1.68672e-05 21.3762 0.0541236 21.5446 0.156421C21.713 0.258719 21.8501 0.405282 21.9409 0.580131L33.4841 22.8453C33.6038 23.0973 33.6209 23.3859 33.5319 23.6502C33.4429 23.9146 33.2547 24.134 33.0071 24.2624C32.7594 24.3907 32.4716 24.4178 32.2043 24.3381C31.937 24.2583 31.7111 24.0779 31.5743 23.8349L20.986 3.41276L8.03505 28.3745C7.25225 30.4991 6.9851 32.7793 7.25559 35.0273C7.52608 37.2754 8.32648 39.4271 9.59093 41.3054C10.8554 43.1837 12.5477 44.735 14.5288 45.8315C16.5098 46.9281 18.7229 47.5386 20.986 47.6128C23.249 47.5386 25.4621 46.9281 27.4431 45.8315C29.4242 44.735 31.1165 43.1837 32.381 41.3054C33.6454 39.4271 34.4458 37.2754 34.7163 35.0273C34.9868 32.7793 34.7197 30.4991 33.9369 28.3745L31.463 23.6147C31.3921 23.4888 31.3473 23.3499 31.3312 23.2064C31.3151 23.0628 31.3281 22.9174 31.3694 22.779C31.4107 22.6405 31.4795 22.5118 31.5716 22.4005C31.6637 22.2892 31.7773 22.1976 31.9056 22.1312C32.0339 22.0647 32.1742 22.0247 32.3183 22.0137C32.4623 22.0026 32.6071 22.0207 32.744 22.0668C32.8809 22.1129 33.0072 22.1861 33.1152 22.282C33.2232 22.3779 33.3109 22.4946 33.3728 22.6251L35.8727 27.4492C35.8929 27.4894 35.9107 27.5307 35.9259 27.5729C36.8412 30.022 37.1596 32.654 36.8547 35.2507C36.5499 37.8474 35.6305 40.334 34.1728 42.5045C32.7152 44.6749 30.7612 46.4667 28.4729 47.7314C26.1845 48.996 23.6277 49.697 21.0144 49.7763L20.986 49.7651Z" fill="#333333"/>
<path d="M49.6214 46.4526H49.588C48.213 46.4105 46.8678 46.0415 45.6638 45.376C44.4599 44.7105 43.4318 43.7678 42.6647 42.6258C41.8977 41.4839 41.4138 40.1756 41.2531 38.8094C41.0924 37.4431 41.2596 36.0583 41.7407 34.7695C41.7559 34.7272 41.7737 34.686 41.7939 34.6458L48.6652 21.4018C48.756 21.2269 48.8931 21.0804 49.0615 20.9781C49.2299 20.8759 49.4231 20.8218 49.6201 20.8218C49.8171 20.8218 50.0103 20.8759 50.1787 20.9781C50.3471 21.0804 50.4842 21.2269 50.575 21.4018L55.1802 30.3301C55.2511 30.456 55.2959 30.5949 55.312 30.7384C55.3281 30.882 55.315 31.0274 55.2737 31.1658C55.2324 31.3042 55.1637 31.433 55.0716 31.5443C54.9795 31.6556 54.8659 31.7472 54.7376 31.8136C54.6093 31.8801 54.469 31.92 54.3249 31.9311C54.1809 31.9422 54.0361 31.9241 53.8991 31.878C53.7622 31.8319 53.636 31.7587 53.528 31.6628C53.4199 31.5669 53.3323 31.4502 53.2704 31.3197L49.6201 24.2319L43.7347 35.576C43.3555 36.5357 43.2167 37.5736 43.3304 38.5992C43.4442 39.6249 43.807 40.6071 44.3873 41.4604C44.9676 42.3137 45.7478 43.0121 46.6599 43.4948C47.5719 43.9776 48.5882 44.2299 49.6201 44.2299C50.652 44.2299 51.6683 43.9776 52.5803 43.4948C53.4924 43.0121 54.2726 42.3137 54.8529 41.4604C55.4332 40.6071 55.796 39.6249 55.9098 38.5992C56.0235 37.5736 55.8848 36.5357 55.5055 35.576L53.0861 30.9115C53.0152 30.7856 52.9704 30.6467 52.9543 30.5031C52.9382 30.3595 52.9512 30.2142 52.9925 30.0758C53.0338 29.9373 53.1026 29.8086 53.1947 29.6973C53.2868 29.586 53.4004 29.4944 53.5287 29.4279C53.6569 29.3615 53.7973 29.3215 53.9413 29.3104C54.0854 29.2994 54.2302 29.3174 54.3671 29.3635C54.504 29.4096 54.6303 29.4828 54.7383 29.5788C54.8464 29.6747 54.934 29.7914 54.9959 29.9219L57.4476 34.6458C57.4679 34.6859 57.4856 34.7272 57.5008 34.7695C57.9819 36.0583 58.149 37.4431 57.9883 38.8094C57.8276 40.1756 57.3437 41.4839 56.5767 42.6258C55.8097 43.7678 54.7816 44.7105 53.5777 45.376C52.3737 46.0415 51.0285 46.4105 49.6535 46.4526H49.6214Z" fill="#333333"/>
<path d="M38.2339 64H38.2005C37.2271 63.9704 36.2748 63.7092 35.4225 63.2382C34.5701 62.7671 33.8424 62.0997 33.2995 61.2912C32.7565 60.4828 32.4141 59.5566 32.3006 58.5894C32.187 57.6222 32.3056 56.6419 32.6466 55.7297C32.6616 55.6874 32.6794 55.6461 32.6997 55.606L37.2765 46.7803C37.3673 46.6055 37.5043 46.4589 37.6727 46.3566C37.8411 46.2543 38.0344 46.2002 38.2314 46.2002C38.4284 46.2002 38.6217 46.2543 38.7901 46.3566C38.9585 46.4589 39.0955 46.6055 39.1863 46.7803L43.7631 55.606C43.7833 55.6461 43.801 55.6874 43.8162 55.7297C44.1572 56.6419 44.2758 57.6222 44.1622 58.5894C44.0487 59.5566 43.7063 60.4828 43.1633 61.2912C42.6204 62.0997 41.8927 62.7671 41.0403 63.2382C40.188 63.7092 39.2357 63.9704 38.2623 64H38.2339ZM34.6467 56.5399C34.4182 57.1245 34.3358 57.7561 34.4067 58.3798C34.4776 59.0035 34.6997 59.6005 35.0536 60.1189C35.4076 60.6373 35.8827 61.0615 36.4378 61.3546C36.9929 61.6477 37.6111 61.8009 38.2388 61.8009C38.8665 61.8009 39.4848 61.6477 40.0399 61.3546C40.5949 61.0615 41.07 60.6373 41.424 60.1189C41.7779 59.6005 42.0001 59.0035 42.071 58.3798C42.1419 57.7561 42.0595 57.1245 41.8309 56.5399L38.2438 49.613L34.6467 56.5399Z" fill="#333333"/>
</svg>
