<svg width="16" height="16" viewBox="0 0 16 16" fill="none" xmlns="http://www.w3.org/2000/svg">
<path fill-rule="evenodd" clip-rule="evenodd" d="M12 2.66667H12.6667C13.4 2.66667 14 3.26667 14 4V13.3333C14 14.0667 13.4 14.6667 12.6667 14.6667H3.33333C2.59333 14.6667 2 14.0667 2 13.3333V4C2 3.26667 2.59333 2.66667 3.33333 2.66667H4V2C4 1.63334 4.3 1.33334 4.66667 1.33334C5.03333 1.33334 5.33333 1.63334 5.33333 2V2.66667H10.6667V2C10.6667 1.63334 10.9667 1.33334 11.3333 1.33334C11.7 1.33334 12 1.63334 12 2V2.66667ZM5.33333 7.33334H10.6667C11.0333 7.33334 11.3333 7.63334 11.3333 8C11.3333 8.36667 11.0333 8.66667 10.6667 8.66667H5.33333C4.96667 8.66667 4.66667 8.36667 4.66667 8C4.66667 7.63334 4.96667 7.33334 5.33333 7.33334ZM12 13.3333H4C3.63333 13.3333 3.33333 13.0333 3.33333 12.6667V6H12.6667V12.6667C12.6667 13.0333 12.3667 13.3333 12 13.3333ZM5.33333 10H8.66667C9.03333 10 9.33333 10.3 9.33333 10.6667C9.33333 11.0333 9.03333 11.3333 8.66667 11.3333H5.33333C4.96667 11.3333 4.66667 11.0333 4.66667 10.6667C4.66667 10.3 4.96667 10 5.33333 10Z" fill="#0F3F2F"/>
</svg>
