<svg width="35" height="36" viewBox="0 0 35 36" fill="none" xmlns="http://www.w3.org/2000/svg">
<rect y="0.5" width="35" height="35" rx="16" fill="#465B74"/>
<path fill-rule="evenodd" clip-rule="evenodd" d="M21.25 13H21.875C22.5625 13 23.125 13.5625 23.125 14.25V23C23.125 23.6875 22.5625 24.25 21.875 24.25H13.125C12.4312 24.25 11.875 23.6875 11.875 23V14.25C11.875 13.5625 12.4312 13 13.125 13H13.75V12.375C13.75 12.0312 14.0312 11.75 14.375 11.75C14.7188 11.75 15 12.0312 15 12.375V13H20V12.375C20 12.0312 20.2812 11.75 20.625 11.75C20.9688 11.75 21.25 12.0312 21.25 12.375V13ZM15 17.375H20C20.3438 17.375 20.625 17.6562 20.625 18C20.625 18.3438 20.3438 18.625 20 18.625H15C14.6562 18.625 14.375 18.3438 14.375 18C14.375 17.6562 14.6562 17.375 15 17.375ZM21.25 23H13.75C13.4062 23 13.125 22.7188 13.125 22.375V16.125H21.875V22.375C21.875 22.7188 21.5938 23 21.25 23ZM15 19.875H18.125C18.4688 19.875 18.75 20.1562 18.75 20.5C18.75 20.8438 18.4688 21.125 18.125 21.125H15C14.6562 21.125 14.375 20.8438 14.375 20.5C14.375 20.1562 14.6562 19.875 15 19.875Z" fill="white"/>
</svg>
