<svg width="35" height="36" viewBox="0 0 35 36" fill="none" xmlns="http://www.w3.org/2000/svg">
<rect y="0.5" width="35" height="35" rx="16" fill="#465B74"/>
<path fill-rule="evenodd" clip-rule="evenodd" d="M20.426 19.8612L22.0135 20.0425C22.6448 20.1175 23.1198 20.6487 23.1135 21.28V22.3612C23.1135 23.0675 22.526 23.655 21.8198 23.6112C16.4885 23.28 12.2198 19.0175 11.8885 13.68C11.8448 12.9737 12.4323 12.3862 13.1385 12.3862H14.2198C14.8573 12.3862 15.3885 12.8612 15.4635 13.4925L15.6448 15.0675C15.6885 15.4487 15.5573 15.8237 15.2885 16.0925L14.1323 17.2487C15.0323 19.0237 16.4823 20.4675 18.251 21.3675L19.401 20.2175C19.6698 19.9487 20.0448 19.8175 20.426 19.8612ZM18.0448 13.6612C20.0323 13.9112 21.5885 15.4675 21.8385 17.455C21.876 17.7737 22.1448 18.005 22.4573 18.005C22.4823 18.005 22.5073 18.005 22.5323 17.9987C22.876 17.955 23.1198 17.6425 23.076 17.2987C22.7573 14.7425 20.751 12.7362 18.1948 12.4175C17.851 12.38 17.5385 12.6237 17.501 12.9675C17.4573 13.3112 17.701 13.6237 18.0448 13.6612ZM18.2823 14.98C17.951 14.8925 17.6073 15.0925 17.5198 15.43C17.4323 15.7675 17.6323 16.105 17.9698 16.1925C18.626 16.3612 19.1385 16.8737 19.3135 17.5362C19.3885 17.8175 19.6385 18.005 19.9198 18.005C19.9698 18.005 20.026 17.9987 20.076 17.9862C20.4073 17.8987 20.6073 17.555 20.526 17.2237C20.2323 16.1175 19.376 15.2612 18.2823 14.98Z" fill="white"/>
</svg>
