<svg width="16" height="16" viewBox="0 0 16 16" fill="none" xmlns="http://www.w3.org/2000/svg">
<path fill-rule="evenodd" clip-rule="evenodd" d="M4.77821 2.58712L2.73155 4.29379C2.45155 4.52712 2.03155 4.49379 1.79821 4.20712C1.55821 3.92712 1.59821 3.50712 1.87821 3.26712L3.93155 1.56046C4.21155 1.32712 4.63155 1.36046 4.86488 1.64712C5.10488 1.92712 5.06488 2.34712 4.77821 2.58712ZM14.1182 3.26712L12.0649 1.56046C11.7849 1.32712 11.3649 1.36046 11.1249 1.64712C10.8915 1.92712 10.9315 2.34712 11.2115 2.58712L13.2582 4.29379C13.5382 4.52712 13.9582 4.49379 14.1982 4.20712C14.4382 3.92712 14.3982 3.50712 14.1182 3.26712ZM10.5782 10.0938L8.33155 8.76045V5.74045C8.33155 5.47379 8.11822 5.26045 7.85155 5.26045H7.81155C7.54488 5.26045 7.33155 5.47379 7.33155 5.74045V8.88712C7.33155 9.12045 7.45155 9.34045 7.65822 9.46045L10.0915 10.9205C10.3182 11.0538 10.6115 10.9871 10.7449 10.7605C10.8849 10.5271 10.8115 10.2271 10.5782 10.0938ZM7.99822 2.59379C4.68488 2.59379 1.99822 5.28045 1.99822 8.59379C1.99822 11.9071 4.68488 14.5938 7.99822 14.5938C11.3115 14.5938 13.9982 11.9071 13.9982 8.59379C13.9982 5.28045 11.3115 2.59379 7.99822 2.59379ZM3.33155 8.59379C3.33155 11.1671 5.42488 13.2605 7.99822 13.2605C10.5715 13.2605 12.6649 11.1671 12.6649 8.59379C12.6649 6.02045 10.5715 3.92712 7.99822 3.92712C5.42488 3.92712 3.33155 6.02045 3.33155 8.59379Z" fill="#0F3F2F"/>
</svg>
