<svg width="49" height="16" viewBox="0 0 49 16" fill="none" xmlns="http://www.w3.org/2000/svg">
<path d="M-0.000976562 2C-0.000976562 0.895431 0.894454 0 1.99902 0H46.999C48.1036 0 48.999 0.895431 48.999 2V14C48.999 15.1046 48.1036 16 46.999 16H1.99902C0.894453 16 -0.000976562 15.1046 -0.000976562 14V2Z" fill="#F4AE33"/>
<path d="M5.50755 11L5.93936 9.6733H8.0388L8.47061 11H9.7888L7.78311 5.18182H6.19789L4.18936 11H5.50755ZM6.25186 8.71307L6.96777 6.51136H7.01323L7.72914 8.71307H6.25186ZM12.9516 11C14.7243 11 15.7982 9.90341 15.7982 8.08523C15.7982 6.27273 14.7243 5.18182 12.9686 5.18182H10.8891V11H12.9516ZM12.1192 9.94602V6.2358H12.9033C13.9942 6.2358 14.5709 6.79261 14.5709 8.08523C14.5709 9.38352 13.9942 9.94602 12.9004 9.94602H12.1192ZM19.1719 11C20.9446 11 22.0185 9.90341 22.0185 8.08523C22.0185 6.27273 20.9446 5.18182 19.1889 5.18182H17.1094V11H19.1719ZM18.3395 9.94602V6.2358H19.1236C20.2145 6.2358 20.7912 6.79261 20.7912 8.08523C20.7912 9.38352 20.2145 9.94602 19.1208 9.94602H18.3395Z" fill="white"/>
<path d="M33.7908 9.0415H32.0408V10.7915C32.0408 11.2728 31.647 11.6665 31.1658 11.6665C30.6845 11.6665 30.2908 11.2728 30.2908 10.7915V9.0415H28.5408C28.0595 9.0415 27.6658 8.64775 27.6658 8.1665C27.6658 7.68525 28.0595 7.2915 28.5408 7.2915H30.2908V5.5415C30.2908 5.06025 30.6845 4.6665 31.1658 4.6665C31.647 4.6665 32.0408 5.06025 32.0408 5.5415V7.2915H33.7908C34.272 7.2915 34.6658 7.68525 34.6658 8.1665C34.6658 8.64775 34.272 9.0415 33.7908 9.0415Z" fill="white"/>
</svg>
