<svg width="35" height="36" viewBox="0 0 35 36" fill="none" xmlns="http://www.w3.org/2000/svg">
<rect y="0.5" width="35" height="35" rx="16" fill="#465B74"/>
<path fill-rule="evenodd" clip-rule="evenodd" d="M19.375 18C20.7563 18 21.875 16.8812 21.875 15.5C21.875 14.1187 20.7563 13 19.375 13C17.9938 13 16.875 14.1187 16.875 15.5C16.875 16.8812 17.9938 18 19.375 18ZM13.75 16.75V15.5C13.75 15.1562 13.4688 14.875 13.125 14.875C12.7812 14.875 12.5 15.1562 12.5 15.5V16.75H11.25C10.9062 16.75 10.625 17.0312 10.625 17.375C10.625 17.7188 10.9062 18 11.25 18H12.5V19.25C12.5 19.5938 12.7812 19.875 13.125 19.875C13.4688 19.875 13.75 19.5938 13.75 19.25V18H15C15.3438 18 15.625 17.7188 15.625 17.375C15.625 17.0312 15.3438 16.75 15 16.75H13.75ZM14.375 21.75C14.375 20.0875 17.7063 19.25 19.375 19.25C21.0437 19.25 24.375 20.0875 24.375 21.75V22.375C24.375 22.7188 24.0938 23 23.75 23H15C14.6562 23 14.375 22.7188 14.375 22.375V21.75Z" fill="white"/>
</svg>
