<svg width="32" height="32" viewBox="0 0 32 32" fill="none" xmlns="http://www.w3.org/2000/svg">
<rect width="32" height="32" rx="4" fill="#ECF7FB"/>
<g clip-path="url(#clip0)">
<path fill-rule="evenodd" clip-rule="evenodd" d="M14.4372 10.1533L17.7706 11.32C17.9239 11.3733 18.0839 11.3667 18.2306 11.3133L20.1839 10.5533C21.0572 10.2133 21.9972 10.8533 21.9972 11.7933V19.6933C21.9972 20.2667 21.6306 20.78 21.0906 20.96L18.4306 21.8533C18.1506 21.9467 17.8439 21.9467 17.5639 21.8467L14.2306 20.68C14.0839 20.6267 13.9172 20.6267 13.7706 20.6867L11.8172 21.4467C10.9439 21.7867 10.0039 21.1467 10.0039 20.2067V12.3067C10.0039 11.7333 10.3706 11.2267 10.9106 11.04L13.5706 10.1467C13.8506 10.0533 14.1572 10.0533 14.4372 10.1533ZM14.0039 19.1867L18.0039 20.5933V12.8133L14.0039 11.4067V19.1867Z" fill="#52BDE6"/>
</g>
<defs>
<clipPath id="clip0">
<rect width="16" height="16" fill="white" transform="translate(8 8)"/>
</clipPath>
</defs>
</svg>
