<svg width="35" height="36" viewBox="0 0 35 36" fill="none" xmlns="http://www.w3.org/2000/svg">
<rect y="0.5" width="35" height="35" rx="16" fill="#465B74"/>
<path fill-rule="evenodd" clip-rule="evenodd" d="M22.5 11.75H12.5C11.8125 11.75 11.25 12.3125 11.25 13V20.5C11.25 21.1875 11.8125 21.75 12.5 21.75H21.25L23.75 24.25L23.7438 13C23.7438 12.3125 23.1875 11.75 22.5 11.75ZM20.625 19.25H14.375C14.0313 19.25 13.75 18.9688 13.75 18.625C13.75 18.2812 14.0313 18 14.375 18H20.625C20.9688 18 21.25 18.2812 21.25 18.625C21.25 18.9688 20.9688 19.25 20.625 19.25ZM14.375 17.375H20.625C20.9688 17.375 21.25 17.0938 21.25 16.75C21.25 16.4062 20.9688 16.125 20.625 16.125H14.375C14.0313 16.125 13.75 16.4062 13.75 16.75C13.75 17.0938 14.0313 17.375 14.375 17.375ZM20.625 15.5H14.375C14.0313 15.5 13.75 15.2188 13.75 14.875C13.75 14.5312 14.0313 14.25 14.375 14.25H20.625C20.9688 14.25 21.25 14.5312 21.25 14.875C21.25 15.2188 20.9688 15.5 20.625 15.5Z" fill="white"/>
</svg>
