<svg width="35" height="36" viewBox="0 0 35 36" fill="none" xmlns="http://www.w3.org/2000/svg">
<rect y="0.5" width="35" height="35" rx="16" fill="#465B74"/>
<path d="M14.375 14.25C14.2514 14.25 14.1306 14.2867 14.0278 14.3553C13.925 14.424 13.8449 14.5216 13.7976 14.6358C13.7503 14.75 13.7379 14.8757 13.762 14.9969C13.7861 15.1182 13.8457 15.2295 13.9331 15.317C14.0205 15.4044 14.1318 15.4639 14.2531 15.488C14.3743 15.5121 14.5 15.4997 14.6142 15.4524C14.7284 15.4051 14.826 15.325 14.8947 15.2222C14.9634 15.1195 15 14.9986 15 14.875C15 14.7093 14.9342 14.5503 14.817 14.4331C14.6997 14.3159 14.5408 14.25 14.375 14.25ZM23.5688 17.8625L17.6438 11.95C17.5855 11.8872 17.5149 11.837 17.4364 11.8026C17.3579 11.7682 17.2732 11.7503 17.1875 11.75H13.4375C13.3553 11.7495 13.2737 11.7653 13.1976 11.7964C13.1214 11.8275 13.0522 11.8733 12.9938 11.9313L11.4313 13.4875C11.3733 13.5459 11.3275 13.6152 11.2964 13.6913C11.2653 13.7675 11.2495 13.849 11.25 13.9313V17.6813C11.2523 17.8467 11.3171 18.0052 11.4313 18.125L17.3625 24.0625C17.4823 24.1767 17.6408 24.2415 17.8063 24.2438C17.8885 24.2442 17.9701 24.2285 18.0462 24.1974C18.1224 24.1663 18.1916 24.1204 18.25 24.0625L23.5688 18.7438C23.6267 18.6854 23.6725 18.6161 23.7036 18.54C23.7347 18.4638 23.7505 18.3823 23.75 18.3C23.7462 18.1367 23.6815 17.9807 23.5688 17.8625ZM17.8063 22.7438L12.5 17.4313V14.1875L13.6875 13H16.925L22.2375 18.3063L17.8063 22.7438Z" fill="white"/>
</svg>
