<svg width="35" height="35" viewBox="0 0 35 35" fill="none" xmlns="http://www.w3.org/2000/svg">
<rect width="35" height="35" rx="16" fill="#465B74"/>
<path d="M19.3371 14.1006H21.5746L21.0809 14.6006C20.9645 14.7177 20.8991 14.8761 20.8991 15.0412C20.8991 15.2063 20.9645 15.3647 21.0809 15.4818C21.198 15.5982 21.3564 15.6636 21.5215 15.6636C21.6866 15.6636 21.845 15.5982 21.9621 15.4818L23.5246 13.9193C23.641 13.8022 23.7064 13.6438 23.7064 13.4787C23.7064 13.3136 23.641 13.1552 23.5246 13.0381L21.9621 11.4756C21.8426 11.3732 21.6888 11.3197 21.5315 11.3258C21.3742 11.3318 21.225 11.3971 21.1137 11.5084C21.0023 11.6197 20.9371 11.7689 20.9311 11.9262C20.925 12.0835 20.9785 12.2373 21.0809 12.3568L21.5746 12.8506H19.3371C19.1714 12.8506 19.0124 12.9164 18.8952 13.0336C18.778 13.1509 18.7121 13.3098 18.7121 13.4756C18.7121 13.6413 18.778 13.8003 18.8952 13.9175C19.0124 14.0347 19.1714 14.1006 19.3371 14.1006V14.1006ZM22.1496 18.1256C22.0121 18.1256 21.8684 18.0818 21.7309 18.0506C21.4524 17.9892 21.1788 17.9078 20.9121 17.8068C20.6222 17.7014 20.3035 17.7068 20.0173 17.8222C19.7312 17.9376 19.4978 18.1547 19.3621 18.4318L19.2246 18.7131C18.6159 18.3745 18.0565 17.9539 17.5621 17.4631C17.0714 16.9687 16.6508 16.4093 16.3121 15.8006L16.5746 15.6256C16.8517 15.4899 17.0689 15.2565 17.1843 14.9704C17.2996 14.6842 17.3051 14.3655 17.1996 14.0756C17.1004 13.8084 17.019 13.5348 16.9559 13.2568C16.9246 13.1193 16.8996 12.9756 16.8809 12.8318C16.805 12.3916 16.5744 11.9929 16.2306 11.7076C15.8869 11.4223 15.4526 11.2691 15.0059 11.2756H13.1309C12.8615 11.2731 12.5948 11.3286 12.3488 11.4384C12.1029 11.5482 11.8835 11.7098 11.7055 11.912C11.5276 12.1143 11.3953 12.3525 11.3178 12.6104C11.2402 12.8684 11.2191 13.14 11.2559 13.4068C11.5888 16.0252 12.7847 18.458 14.6544 20.321C16.5242 22.184 18.9613 23.3709 21.5809 23.6943H21.8184C22.2793 23.695 22.7243 23.5259 23.0684 23.2193C23.2661 23.0425 23.4241 22.8257 23.5318 22.5833C23.6395 22.3409 23.6946 22.0784 23.6934 21.8131V19.9381C23.6857 19.504 23.5276 19.0859 23.2461 18.7554C22.9646 18.4248 22.577 18.2022 22.1496 18.1256V18.1256ZM22.4621 21.8756C22.462 21.9643 22.443 22.052 22.4064 22.1329C22.3697 22.2137 22.3163 22.2858 22.2496 22.3443C22.1798 22.4046 22.0981 22.4497 22.0099 22.4766C21.9216 22.5035 21.8287 22.5117 21.7371 22.5006C19.3964 22.2005 17.2223 21.1296 15.5576 19.457C13.8929 17.7844 12.8324 15.6052 12.5434 13.2631C12.5334 13.1715 12.5422 13.0789 12.569 12.9908C12.5959 12.9027 12.6403 12.821 12.6996 12.7506C12.7582 12.6839 12.8303 12.6305 12.9111 12.5938C12.9919 12.5572 13.0796 12.5382 13.1684 12.5381H15.0434C15.1887 12.5349 15.3307 12.5824 15.4447 12.6725C15.5588 12.7626 15.6379 12.8897 15.6684 13.0318C15.6934 13.2027 15.7246 13.3714 15.7621 13.5381C15.8343 13.8676 15.9304 14.1913 16.0496 14.5068L15.1746 14.9131C15.0998 14.9474 15.0325 14.9962 14.9766 15.0566C14.9207 15.117 14.8773 15.1878 14.8488 15.2651C14.8203 15.3423 14.8074 15.4244 14.8108 15.5067C14.8142 15.5889 14.8337 15.6697 14.8684 15.7443C15.7679 17.6711 17.3167 19.2198 19.2434 20.1193C19.3955 20.1819 19.5662 20.1819 19.7184 20.1193C19.7963 20.0915 19.868 20.0484 19.9291 19.9926C19.9903 19.9368 20.0397 19.8694 20.0746 19.7943L20.4621 18.9193C20.7852 19.0349 21.115 19.1309 21.4496 19.2068C21.6163 19.2443 21.7851 19.2756 21.9559 19.3006C22.098 19.3311 22.2251 19.4102 22.3152 19.5242C22.4053 19.6383 22.4529 19.7802 22.4496 19.9256L22.4621 21.8756Z" fill="white"/>
</svg>
