<svg width="38" height="38" viewBox="0 0 38 38" fill="none" xmlns="http://www.w3.org/2000/svg">
<path d="M19.0003 0.666504C8.91699 0.666504 0.666992 8.9165 0.666992 18.9998C0.666992 29.0832 8.91699 37.3332 19.0003 37.3332C29.0837 37.3332 37.3337 29.0832 37.3337 18.9998C37.3337 8.9165 29.0837 0.666504 19.0003 0.666504ZM26.7003 15.8832L17.9003 24.6832C17.167 25.4165 16.067 25.4165 15.3337 24.6832L11.3003 20.6498C10.567 19.9165 10.567 18.8165 11.3003 18.0832C12.0337 17.3498 13.1337 17.3498 13.867 18.0832L16.617 20.8332L24.1337 13.3165C24.867 12.5832 25.967 12.5832 26.7003 13.3165C27.4337 14.0498 27.4337 15.1498 26.7003 15.8832Z" fill="#B7B8BE"/>
</svg>
